<?xml version="1.0" encoding="utf-8"?>
<!-- Generator: Adobe Illustrator 22.0.1, SVG Export Plug-In . SVG Version: 6.00 Build 0)  -->
<svg version="1.1" id="Layer_1" xmlns="http://www.w3.org/2000/svg" xmlns:xlink="http://www.w3.org/1999/xlink" x="0px" y="0px"
	 viewBox="0 0 144 144" style="enable-background:new 0 0 144 144;" xml:space="preserve">
<g>
	<path d="M71.8,99c-2.4-1.8-4.3-4.1-5.8-6.8c-1.5-2.6-2.4-5.3-2.9-8.2c0-0.2,0-0.3-0.2-0.5c-1.9,4.5-0.8,8.9,0.7,13.3
		c-1.3-1.7-2.2-3.6-2.9-5.6s-1.1-4.1-1.3-6.3c-6.6,2.4-13,2.4-19.4,0c6.9,1,13.2-0.5,18.9-4.5c-6.6,2-13.1,1.9-19.5-0.4
		c-2.7-1-5.3-2.4-7.5-4.2c8,3.5,15.9,3.6,23.8-0.1c-5.3,0.7-10.5,0.2-15.5-1.8s-9.2-5.1-12.4-9.5c7.4,5.9,15.6,7.9,25,5.8
		c-0.7-0.3-1.2-0.3-1.6-0.3c-0.5-0.1-1-0.2-1.5-0.3C39.6,67.5,32.4,61.7,28,52.4c-0.1-0.2-0.1-0.4-0.2-0.5c0,0,0,0,0.1-0.1
		c1.2,1.5,2.3,3,3.7,4.3c5,4.8,10.9,7.6,17.9,8.1c0.5,0,1.1,0.1,1.6,0.1C39.7,59.8,33,51.5,31,39.5c3.5,9.1,9.8,15.3,19.2,18.3
		c-9.7-7.3-13.9-16.9-13-28.9c0.1,0,0.1,0,0.2-0.1c0.1,0.6,0.2,1.3,0.3,1.9c1.4,8.7,5.7,15.6,13.1,20.4c0.1,0.1,0.2,0.1,0.3,0.2
		c0.1,0,0.1,0,0.2,0c0,0,0-0.1-0.1-0.1c-1.5-1.9-3-3.9-4-6.1c-3.8-8-4.3-16.1-1.3-24.4c0.1-0.2,0.2-0.4,0.3-0.6c0,0,0.1-0.1,0.2-0.1
		c-1.1,6.5-0.3,12.7,2.6,18.6c1.2,2.5,2.8,4.8,4.9,6.8c-2.3-5.1-3.3-10.4-2.8-15.9c0.5-5.6,2.3-10.6,5.7-15.1
		c-1.7,4.2-2.6,8.6-2.4,13.2c0.2,4.6,1.3,8.9,3.6,12.9c-0.1-0.8-0.2-1.7-0.3-2.5c-0.9-8.9,1.6-16.8,7.4-23.6c1-1.2,2.1-2.3,3.5-3.3
		c0,0.1,0.1,0.1,0.1,0.2c-1.8,2.4-3.4,5-4.4,7.8c-2.1,5.4-2.5,10.9-1.4,16.6c0,0.2,0.1,0.3,0.1,0.5c0,0.1,0.1,0.1,0.2,0.2
		c0.3-0.5,0.2-1.1,0.3-1.6c1-10.9,6.7-18.9,16.6-23.8c0.2-0.1,0.4-0.1,0.6-0.2c0,0,0,0,0.1,0.1c-1.7,1.4-3.5,2.8-4.9,4.5
		c-4.3,5-6.8,10.9-7.3,17.5c-0.1,1.7-0.1,3.5,0.1,5.2c0,0.3-0.1,0.5-0.3,0.7c-4.8,4.5-7,10.1-7,16.6c0,1.3,0.4,2.5,1.1,3.6
		c1.3,2,3.7,2.2,5.1,0.3c0.3-0.5,0.4-0.9,0.4-1.5c-0.1-2.8,1.5-5.1,3.9-5.8c1.1-0.4,2.2-0.2,3.3,0.1c1.5,0.5,2.9,1.1,4.2,2
		c0.3,0.2,0.7,0.3,1.1,0.3c3.1,0,6.2,0,9.3,0c0,0.1,0,0.2,0,0.2c-1.1,0.4-2.3,0.8-3.4,1.2c-1.5,0.6-3.1,1.2-4.6,1.7
		c-1.7,0.6-3.1,1.6-4.5,2.8c-2,1.7-2.6,3.8-2.5,6.3c0.3,5.2-1.4,9.4-5.7,12.5c-0.1,0-0.1,0.1-0.1,0.2c-0.1,0-0.1,0.1-0.2,0.1
		c0.1,0.1,0.2,0.1,0.3,0c3.8-1.7,6.8-4,7.8-8.4c0.1-0.3,0.1-0.4,0.4-0.2c1.4,0.9,2.9,0.8,4.4,0.3c2.6-0.8,4.7-2.3,6.6-4
		c1.5-1.4,2.8-2.9,3.9-4.6c0.2-0.3,0.4-0.5,0.8-0.6c8.3-1.8,14-6.7,17.2-14.5c0.1-0.3,0.1-0.6,0.4-0.8c-0.4,5.9-4.8,15.6-15.4,19.6
		c1.7,0.5,7-1,10.2-2.8s5.8-4.3,7.9-7.4c-0.1,2.2-4.2,7.7-7.7,10.4c-3.4,2.6-7,4-12.2,4.6c0.6,0.4,1.3,0.4,1.9,0.5
		c6.5,0.8,12.3-0.8,17.4-4.8c0.2-0.2,0.4-0.3,0.6-0.5l0.1,0.1c-1.8,2.5-4.1,4.5-6.7,6c-4.8,2.8-10,3.8-15.6,3c-0.2,0-0.3,0-0.6,0
		c1.5,0.9,3,1.4,4.5,1.8c5.3,1.5,10.4,1.1,15.4-1.1c0.2-0.1,0.4-0.2,0.7-0.3l0.1,0.1c-2.6,2.1-5.6,3.5-8.9,4.3
		c-5,1.2-9.9,0.8-14.7-1.2c-0.2-0.1-0.4-0.1-0.6-0.2c-0.1-0.1-0.2-0.1-0.2-0.1c-0.1,0.1,0.1,0.1,0.1,0.2c2.9,2.8,6.4,4.5,10.3,5.4
		c2.7,0.6,5.5,0.8,8.3,0.3c0.3,0,0.5,0,0.8,0c-0.2,0.3-0.5,0.3-0.7,0.4c-8.6,3-16.2,1.7-23.1-3.6c-0.2-0.1-0.3-0.2-0.5-0.3
		c0,0-0.1,0-0.1-0.1c0,0,0,0.1,0.1,0.1c1.9,3.1,4.5,5.6,7.6,7.5s6.4,2.9,10,3.2c0.1,0,0.2,0,0.4,0.1c-3.7,0.7-8.5,0.3-12.9-1.6
		c-4.1-1.8-7.4-4.6-10.1-8.3c-0.1,1.1,1.4,4.2,3,6.5c1.4,2,3.1,3.7,5.1,5.2s4.1,2.6,6.4,3.4c-9-1.3-15.3-6.1-19.2-14.4
		c-0.1,0.6,0,1.1,0.1,1.6c0,0.5,0.1,1.1,0.2,1.6c1,5.6,4,10,8.5,13.4c0.2,0.1,0.4,0.3,0.6,0.5c0,0,0,0.1-0.1,0.1
		c-2.4-0.9-4.5-2.3-6.5-4c-3.8-3.4-6.3-7.6-7.5-12.5c0-0.1,0-0.3-0.2-0.4c-0.3,1-0.3,1.9-0.4,2.9c-0.1,4.7,1.6,8.8,4.4,12.6
		C71.6,98.6,71.7,98.8,71.8,99C71.9,99,71.8,99,71.8,99z M56,75.5C56.1,75.5,56.1,75.5,56,75.5C56.1,75.5,56,75.4,56,75.5
		C55.9,75.4,55.9,75.4,56,75.5C56,75.5,56,75.5,56,75.5z M53.6,45.5L53.6,45.5L53.6,45.5C53.7,45.5,53.7,45.5,53.6,45.5
		C53.7,45.5,53.7,45.5,53.6,45.5z M50.3,57.8L50.3,57.8L50.3,57.8L50.3,57.8z"/>
	<path d="M61.7,132.1c1.6,0.7,2.5,2,2.7,3.6c0.2,1.9,0.2,3.8-1,5.4c-1.1,1.5-2.6,2.1-4.3,2.3c-2.2,0.2-4.3,0.1-6.5,0.1c-1,0-2,0-3,0
		c-0.6,0-0.7-0.2-0.7-0.7c0-6.2,0-12.5,0-18.7c0-0.8,0-1.6,0-2.4c0-0.3,0-0.4,0.4-0.4c3.3,0.1,6.5-0.2,9.8,0.1
		c2.6,0.3,4.3,1.6,4.8,3.8c0.4,1.7,0.3,3.3-0.3,4.9C63.1,131,62.5,131.6,61.7,132.1z M52.8,137c0,0.8,0,1.5,0,2.3
		c0,0.3,0,0.5,0.4,0.5c1.6,0,3.3,0.1,4.9-0.1c1.6-0.2,2.2-1,2.2-2.7c0-1.6-0.7-2.5-2.2-2.7c-1.6-0.2-3.2,0-4.8-0.1
		c-0.4,0-0.4,0.2-0.4,0.5C52.8,135.5,52.8,136.2,52.8,137z M52.8,127.8c0,0.7,0,1.5,0,2.2c0,0.4,0.1,0.5,0.5,0.5c1.3,0,2.6,0,4,0
		c0.7,0,1.5-0.1,1.9-0.8c0.8-1,0.8-2.2,0.4-3.4c-0.4-1-1.3-1.3-2.3-1.3c-1.3,0-2.7,0-4,0c-0.4,0-0.5,0.2-0.5,0.5
		C52.8,126.3,52.8,127.1,52.8,127.8z"/>
	<path d="M26.1,143.9c-1.7,0-3.2-0.1-4.6-0.7c-2.2-0.8-3.3-2.4-3.5-4.7c-0.2-2.4,0.4-4.6,2.4-6.2c0.6-0.4,0-0.6-0.2-0.8
		c-2.7-2.1-2.8-7.9,1.1-9.7c1-0.5,2-0.8,3-0.9c2-0.2,4-0.1,5.9,0.7c2.2,1,3.4,2.7,3.4,5.2c0,2-0.4,3.6-2.1,4.8
		c-0.4,0.3-0.2,0.5,0.1,0.7c2.3,1.7,2.7,4,2.2,6.6c-0.5,2.7-2.4,4-4.9,4.6C28,143.8,27,143.9,26.1,143.9z M26.1,133.9
		c-2,0-3.3,0.9-3.7,2.5c-0.4,1.6,0.3,2.8,1.8,3.2c1.3,0.3,2.5,0.3,3.8,0c1.1-0.3,1.7-1,1.7-2.1C29.9,135.3,28.4,133.9,26.1,133.9z
		 M26.2,130.6c1.1,0.2,2-0.4,2.7-1.4c1.1-1.5,0.5-3.6-1.2-4.1c-1.1-0.3-2.3-0.3-3.4,0c-0.9,0.3-1.4,0.8-1.6,1.8
		C22.3,128.9,23.8,130.6,26.2,130.6z"/>
	<path d="M94.6,121.3c1.1,0,2.1,0,3.2,0c0.4,0,0.6,0.1,0.7,0.5c1.6,7.1,3.3,14.1,5,21.1c0.1,0.4,0.1,0.6-0.4,0.6c-1,0-2,0-3,0
		c-0.4,0-0.5-0.1-0.6-0.5c-0.3-1.1-0.6-2.2-0.9-3.3c-0.1-0.4-0.3-0.6-0.7-0.6c-2.2,0-4.4,0-6.6,0c-0.4,0-0.6,0.1-0.7,0.5
		c-0.2,1.1-0.5,2.1-0.8,3.2c-0.1,0.5-0.2,0.7-0.8,0.7c-0.9-0.1-1.9,0-2.8,0c-0.5,0-0.6-0.1-0.5-0.6c1.1-4.6,2.2-9.3,3.3-13.9
		c0.6-2.4,1.1-4.7,1.7-7.1c0.1-0.5,0.2-0.7,0.8-0.7C92.5,121.3,93.5,121.3,94.6,121.3z M91.5,135.3c1.8,0,3.6,0,5.4,0
		c0.6,0,0.5-0.2,0.4-0.6c-0.7-3-1.4-6-2.1-9c-0.1-0.5-0.2-0.7-0.8-0.7c-0.6,0-0.7,0.3-0.8,0.7c-0.1,0.5-0.2,0.9-0.3,1.4
		C92.8,129.9,92.2,132.6,91.5,135.3z"/>
	<path d="M143.6,143.6c-1.5,0-2.9,0-4.3,0c-0.4,0-0.5-0.2-0.7-0.5c-1.3-2.8-2.7-5.6-4-8.4c-0.2-0.4-0.4-0.6-0.9-0.5
		c-0.7,0.1-1.5-0.1-1.9,0.3c-0.4,0.4-0.1,1.3-0.1,1.9c0,2.2,0,4.4,0,6.6c0,0.5-0.1,0.6-0.6,0.6c-1,0-1.9,0-2.9,0
		c-0.5,0-0.6-0.2-0.6-0.6c0-3.6,0-7.3,0-10.9c0-3.4,0-6.7,0-10.1c0-0.6,0.2-0.7,0.7-0.7c0.9,0,1.8,0,2.7,0c0.5,0,0.7,0.1,0.7,0.7
		c0,2.6,0,5.2,0,7.8c0,0.6,0.2,0.7,0.7,0.6c0.2,0,0.4-0.1,0.6-0.1c1.4,0.2,2.1-0.5,2.6-1.8c0.9-2.3,2-4.4,3-6.7
		c0.2-0.4,0.4-0.6,0.9-0.6c1.3,0,2.6,0,3.9,0c0.1,0.3-0.1,0.5-0.2,0.8c-1.5,3.1-3,6.3-4.5,9.4c-0.3,0.5-0.2,0.9,0,1.5
		c1.6,3.2,3.1,6.5,4.6,9.8C143.4,142.9,143.5,143.2,143.6,143.6z"/>
	<path d="M6.8,143.5c-2,0-4,0-6,0c-0.7,0-0.8-0.2-0.8-0.9c0.1-1.4-0.1-2.9,0.2-4.3c0.2-1.1,0.9-2.1,1.6-2.9c1.5-1.7,3.5-3,5.2-4.5
		c0.6-0.5,1.2-1.1,1.6-1.8c1.1-1.9,0.2-3.6-1.9-3.9c-1.7-0.2-3.3,0-5,0.2c-1.2,0.1-1.2,0.2-1.3-0.9c-0.1-0.7-0.3-1.5-0.4-2.2
		c0-0.3-0.1-0.5,0.3-0.6c2.9-0.6,5.7-1.2,8.7-0.5c2.6,0.6,4,2.4,4.2,5.1c0.2,2.6-0.8,4.7-2.5,6.6c-1.1,1.2-2.4,2.2-3.7,3.1
		c-0.9,0.7-1.8,1.4-2.1,2.5c-0.3,0.8-0.2,1,0.7,1c2.4,0,4.9,0,7.3,0c0.6,0,0.8,0.2,0.8,0.8c0,0.9-0.1,1.8,0,2.7
		c0,0.6-0.2,0.7-0.7,0.7C10.9,143.5,8.8,143.5,6.8,143.5z"/>
	<path d="M107.1,132.5c0-2.1,0.1-4.3,0.7-6.4c0.9-3.2,3-4.9,6.4-5.1c2.5-0.2,4.9,0.2,7.2,0.7c0.3,0.1,0.5,0.2,0.4,0.6
		c-0.1,0.9-0.1,1.8-0.1,2.7c0,0.3-0.1,0.4-0.5,0.4c-1.4-0.2-2.9-0.3-4.3-0.4c-0.6-0.1-1.2-0.1-1.8,0c-2.1,0.3-3.1,1.1-3.5,3.2
		c-0.5,2.8-0.5,5.7,0,8.6c0.3,2,1.4,2.9,3.4,3.1c2,0.2,4-0.2,6-0.4c0.5-0.1,0.7,0,0.7,0.6c0,0.9,0,1.7,0.1,2.6c0,0.2,0,0.5-0.3,0.5
		c-2.5,0.5-5,1-7.5,0.7c-3.8-0.4-5.7-2.3-6.4-6C107.2,136,107.2,134.3,107.1,132.5z"/>
	<path d="M70.1,132.4c0-3.5,0-7,0-10.5c0-0.6,0.2-0.7,0.7-0.7c0.9,0,1.8,0,2.7,0c0.6,0,0.7,0.1,0.7,0.7c0,5.6,0,11.2,0,16.8
		c0,0.7,0.1,0.9,0.9,0.9c2.3-0.1,4.6,0,6.9,0c0.5,0,0.6,0.1,0.5,0.6c-0.3,1-0.5,1.9-0.7,2.9c-0.1,0.3-0.2,0.4-0.5,0.4
		c-3.5,0-7,0-10.6,0c-0.6,0-0.5-0.3-0.5-0.6C70.1,139.4,70.1,135.9,70.1,132.4z"/>
	<path d="M72.1,13c1.7-3,3.7-5.8,6.5-7.9c5.1-3.7,10.6-4.4,16.6-2.6c0.1,0,0.2,0.1,0.3,0.1l0.1,0.1C86.7,3.9,78.7,6.8,72.1,13z"/>
	<path d="M78.8,0.4C74.8,1.9,71.3,4,68,6.6s-6.1,5.6-8.2,9.5C61.2,6.6,70.4-1,78.8,0.4z"/>
	<path d="M63.4,1.6c-6.3,5-11.3,11-13.6,19C49.3,10.2,55.2,3.1,63.4,1.6z"/>
	<path d="M48.4,8.4c-2.2,3-4,6.1-5.3,9.6c-1.4,3.6-2.2,7.2-2,11.2c-0.3-0.5-0.4-1.1-0.5-1.6c-0.1-0.6-0.3-1.1-0.4-1.7
		c-0.7-4.1-0.3-8,1.9-11.7C43.6,11.6,45.6,9.7,48.4,8.4C48.3,8.3,48.3,8.4,48.4,8.4z"/>
	<path d="M35.7,19.3c-0.7,2.4-1.2,4.8-1.4,7.3c-0.3,4.2-0.2,8.4,1.3,12.5c0,0.1,0.1,0.3,0,0.4c-0.1,0-0.2,0-0.2-0.1
		c-2.3-3.3-3.8-6.8-3.6-10.9c0.2-3.4,1.5-6.4,3.7-9.1C35.4,19.3,35.5,19.3,35.7,19.3C35.6,19.2,35.7,19.3,35.7,19.3z"/>
	<path d="M27.8,33.6c0,6.7,1.4,12.9,5.3,18.5C25.7,46.8,24.9,39,27.8,33.6z"/>
	<path d="M35.2,64.6c-7-1.7-11.4-7.5-10.7-14.3c1.1,3,2.5,5.6,4.3,8.1C30.6,60.8,32.6,62.9,35.2,64.6z"/>
	<path d="M109.4,56.9c2.6-4.2,4.2-8.7,4.6-13.6c0.1-1.2,0-2.4-0.1-3.5c0.1,0,0.1,0,0.1,0c1.7,4.4,2.1,8.7-0.4,13
		c-1,1.6-2.3,3-3.8,4.1C109.7,56.8,109.6,56.9,109.4,56.9L109.4,56.9z"/>
	<path d="M117.9,53.4c0.4,7.8-4.2,12.6-9.7,13.6C112.8,63.4,116.3,59.1,117.9,53.4z"/>
	<path d="M46.4,90c3.2,0.1,6.4,0.1,9.5-0.8c0.5-0.1,0.6-0.1,0.7,0.5c0.3,2.4,0.7,4.8,1.9,7c0.1,0.2,0.1,0.3,0.1,0.5
		c-1.6-1.5-2.9-3.2-3.4-5.4c-0.1-0.4-0.4-0.4-0.7-0.3c-2.6,0.4-5.2-0.1-7.6-1.1C46.7,90.2,46.5,90.2,46.4,90z"/>
	<path d="M38.4,74.4c-7.1,0.5-11.8-3.6-12.9-9.1C28.8,69.5,32.9,72.9,38.4,74.4z"/>
	<path d="M105.8,75.3c2.5-1.1,4.8-2.5,6.8-4.2s3.8-3.7,5.1-6.2C116.7,71.2,111.4,75.9,105.8,75.3z"/>
	<path d="M115.5,76.5c-1.2,2.3-2.8,4.3-5.1,5.6c-2.8,1.5-5.6,1.6-8.6,0.7c2.5-0.4,5-1.1,7.3-2.1C111.5,79.6,113.6,78.2,115.5,76.5z"
		/>
	<path d="M86.6,92.3c0.3-0.1,0.5,0.1,0.7,0.2c3.2,1.4,6.6,2.1,10.2,2.1c1.4,0,2.7-0.2,4.1-0.6C96.2,97.5,90.1,96.7,86.6,92.3
		L86.6,92.3z"/>
	<path d="M109.1,86.4c-3.8,4.5-9.7,5.4-14.3,2.3C99.9,89.2,104.6,88.7,109.1,86.4z"/>
	<path d="M78.7,93.9c3.6,3,7.6,5.3,12.6,5.8C86.1,100.9,81.1,99.3,78.7,93.9z"/>
	<path d="M31,77.5c4,2.7,8.2,4.5,13.1,4.4C38.6,84,33.5,82.2,31,77.5z"/>
	<path d="M70.8,93.8c1.3,2,2.9,3.8,4.8,5.3c1.4,1.1,2.9,2.1,4.8,2.7c-4.9,0-8.5-2.8-9.5-7.2C70.8,94.3,70.8,94,70.8,93.8L70.8,93.8z
		"/>
	<path d="M69.5,100.5c-4.1-1.3-6.7-5.7-5.8-9.8C64.7,94.5,66.4,97.8,69.5,100.5z"/>
	<path d="M110.5,46.2L110.5,46.2C110.5,46.4,110.5,46.4,110.5,46.2C110.5,46.3,110.5,46.2,110.5,46.2L110.5,46.2z"/>
	<path d="M81.7,99.7C81.8,99.7,81.9,99.7,81.7,99.7C81.8,99.9,81.7,99.8,81.7,99.7C81.6,99.7,81.6,99.7,81.7,99.7z"/>
	<path d="M72.2,99.3c-0.2,0.1-0.2,0-0.3-0.1l0.1-0.1C72.1,99.1,72.2,99.2,72.2,99.3L72.2,99.3z"/>
	<path d="M111,75.8L111,75.8L111,75.8C111.1,75.8,111.1,75.8,111,75.8L111,75.8z"/>
	<path d="M68.6,10.7c0,0.1-0.1,0.1-0.1,0.2c0,0,0-0.1-0.1-0.1C68.5,10.7,68.5,10.7,68.6,10.7L68.6,10.7z"/>
	<path d="M80.7,10.8L80.7,10.8C80.9,10.8,80.8,10.8,80.7,10.8C80.8,10.8,80.8,10.8,80.7,10.8z"/>
	<path d="M68.2,10.9c0.1,0,0.1-0.1,0.2-0.1c0,0,0,0.1,0.1,0.1c0,0.1-0.1,0.1-0.1,0.2C68.3,11,68.3,10.9,68.2,10.9z"/>
	<path d="M68.4,11c0,0.1-0.1,0.1-0.1,0.2c0-0.1-0.1-0.1-0.1-0.2l0.1-0.1C68.3,10.9,68.3,11,68.4,11z"/>
	<path d="M35.6,19.2C35.6,19.2,35.6,19.1,35.6,19.2C35.8,19.2,35.7,19.3,35.6,19.2C35.7,19.3,35.6,19.2,35.6,19.2z"/>
	<polygon points="27.6,51.4 27.6,51.5 27.6,51.5 	"/>
	<path d="M48.3,8.3c0.1,0,0.1,0,0.2,0C48.5,8.4,48.4,8.4,48.3,8.3C48.3,8.4,48.3,8.3,48.3,8.3z"/>
	<path d="M27.8,51.9c0-0.1,0-0.1,0-0.2C27.7,51.7,27.8,51.8,27.8,51.9C27.8,51.8,27.8,51.8,27.8,51.9z"/>
	<path d="M109.4,56.8L109.4,56.8C109.4,56.9,109.4,56.9,109.4,56.8C109.4,56.9,109.4,56.9,109.4,56.8
		C109.4,56.9,109.4,56.8,109.4,56.8z"/>
	<path d="M68.8,10.6L68.8,10.6L68.8,10.6z"/>
	<path d="M68.6,10.7c0-0.1,0.1-0.1,0.2-0.1l0,0C68.7,10.6,68.7,10.7,68.6,10.7L68.6,10.7z"/>
	<path d="M72.4,99.4C72.4,99.4,72.4,99.5,72.4,99.4C72.4,99.5,72.4,99.4,72.4,99.4L72.4,99.4z"/>
	<path d="M72.4,99.4c-0.1,0-0.2,0-0.2-0.1l0,0C72.3,99.3,72.3,99.4,72.4,99.4L72.4,99.4z"/>
	<path d="M113.5,66L113.5,66C113.5,65.9,113.5,65.9,113.5,66L113.5,66L113.5,66z"/>
	<path d="M71.9,99.2c-0.1,0-0.1-0.1-0.2-0.1l0.1-0.1L71.9,99.2C72,99.1,72,99.1,71.9,99.2z"/>
	<path d="M113.5,66L113.5,66C113.3,66,113.5,66,113.5,66L113.5,66z"/>
	<path d="M113.1,66.3c0.1,0,0.1,0,0.2,0c0,0.1,0,0.1-0.1,0.2C113.2,66.4,113.2,66.4,113.1,66.3z"/>
	<path d="M70.8,93.8L70.8,93.8L70.8,93.8z"/>
	<path d="M86.6,92.3C86.5,92.3,86.5,92.3,86.6,92.3C86.5,92.3,86.5,92.3,86.6,92.3L86.6,92.3L86.6,92.3z"/>
	<polygon points="31.7,75.6 31.7,75.6 31.6,75.6 	"/>
	<path d="M111,75.8c0.1,0.1,0,0.1-0.1,0.2l-0.1-0.1C110.9,75.9,111,75.9,111,75.8L111,75.8z"/>
	<polygon points="81.1,10.7 81.1,10.6 81.2,10.6 	"/>
	<path d="M69,79.4c-0.1,0.1-0.2,0.1-0.3,0C68.8,79.4,68.8,79.3,69,79.4C68.9,79.3,68.9,79.3,69,79.4z"/>
	<path d="M86.6,79c-0.1-0.1-0.2-0.1-0.1-0.2S86.7,78.8,86.6,79C86.7,78.9,86.7,78.9,86.6,79z"/>
	<path d="M56,75.5C56,75.5,55.9,75.5,56,75.5C55.9,75.5,56,75.4,56,75.5C56,75.4,56.1,75.5,56,75.5C56.1,75.5,56.1,75.5,56,75.5z"/>
	<path d="M53.6,45.5C53.7,45.5,53.7,45.5,53.6,45.5C53.7,45.5,53.7,45.5,53.6,45.5L53.6,45.5L53.6,45.5z"/>
	<path d="M51,51.2C51,51.2,51,51.3,51,51.2c0,0.1,0,0.1-0.1,0.1C50.9,51.3,51,51.2,51,51.2z"/>
	<path d="M50.3,57.8L50.3,57.8L50.3,57.8z"/>
	<path d="M81.9,81.1C81.9,81.1,81.9,81,81.9,81.1C81.9,81,81.9,81,81.9,81.1C82,81,81.9,81.1,81.9,81.1z"/>
</g>
</svg>
