<?xml version="1.0" encoding="utf-8"?>
<!-- Generator: Adobe Illustrator 22.0.1, SVG Export Plug-In . SVG Version: 6.00 Build 0)  -->
<svg version="1.1" id="Layer_1" xmlns="http://www.w3.org/2000/svg" xmlns:xlink="http://www.w3.org/1999/xlink" x="0px" y="0px"
	 viewBox="0 0 144 144" style="enable-background:new 0 0 144 144;" xml:space="preserve">
<style type="text/css">
	.st0{fill:#AC9862;}
	.st1{fill:#FCFCFC;}
	.st2{fill:#C4C4C4;}
	.st3{fill:#C3C3C3;}
	.st4{fill:#1D1D1B;}
</style>
<g>
	<path class="st0" d="M71.8,99.1c-2.4-1.8-4.3-4.1-5.8-6.8c-1.5-2.6-2.4-5.3-2.9-8.2c0-0.2,0-0.3-0.2-0.5c-1.9,4.5-0.8,8.9,0.7,13.3
		c-1.3-1.7-2.2-3.6-2.9-5.6c-0.7-2-1.1-4.1-1.3-6.3C52.8,87.4,46.4,87.4,40,85c6.9,1,13.2-0.5,18.9-4.5c-6.6,2-13.1,1.9-19.5-0.4
		c-2.7-1-5.3-2.4-7.5-4.2c8,3.5,15.9,3.6,23.8-0.1c-5.3,0.7-10.5,0.2-15.5-1.8c-5-2-9.2-5.1-12.4-9.5c7.4,5.9,15.6,7.9,25,5.8
		C52.1,70,51.6,70,51.2,70c-0.5-0.1-1-0.2-1.5-0.3c-10.1-2.1-17.3-7.9-21.7-17.2c-0.1-0.2-0.1-0.4-0.2-0.5c0,0,0,0,0.1-0.1
		c1.2,1.5,2.3,3,3.7,4.3c5,4.8,10.9,7.6,17.9,8.1c0.5,0,1.1,0.1,1.6,0.1c-11.4-4.5-18.1-12.8-20.1-24.8c3.5,9.1,9.8,15.3,19.2,18.3
		c-9.7-7.3-13.9-16.9-13-28.9c0.1,0,0.1,0,0.2-0.1c0.1,0.6,0.2,1.3,0.3,1.9c1.4,8.7,5.7,15.6,13.1,20.4c0.1,0.1,0.2,0.1,0.3,0.2
		c0.1,0,0.1,0,0.2,0c0,0,0-0.1-0.1-0.1c-1.5-1.9-3-3.9-4-6.1c-3.8-8-4.3-16.1-1.3-24.4c0.1-0.2,0.2-0.4,0.3-0.6c0,0,0.1-0.1,0.2-0.1
		c-1.1,6.5-0.3,12.7,2.6,18.6c1.2,2.5,2.8,4.8,4.9,6.8c-2.3-5.1-3.3-10.4-2.8-15.9c0.5-5.6,2.3-10.6,5.7-15.1
		c-1.7,4.2-2.6,8.6-2.4,13.2c0.2,4.6,1.3,8.9,3.6,12.9c-0.1-0.8-0.2-1.7-0.3-2.5c-0.9-8.9,1.6-16.8,7.4-23.6c1-1.2,2.1-2.3,3.5-3.3
		c0,0.1,0.1,0.1,0.1,0.2c-1.8,2.4-3.4,5-4.4,7.8c-2.1,5.4-2.5,10.9-1.4,16.6c0,0.2,0.1,0.3,0.1,0.5c0,0.1,0.1,0.1,0.2,0.2
		c0.3-0.5,0.2-1.1,0.3-1.6C64.5,24,70.2,16,80.1,11.1c0.2-0.1,0.4-0.1,0.6-0.2c0,0,0,0,0.1,0.1c-1.7,1.4-3.5,2.8-4.9,4.5
		c-4.3,5-6.8,10.9-7.3,17.5c-0.1,1.7-0.1,3.5,0.1,5.2c0,0.3-0.1,0.5-0.3,0.7c-4.8,4.5-7,10.1-7,16.6c0,1.3,0.4,2.5,1.1,3.6
		c1.3,2,3.7,2.2,5.1,0.3c0.3-0.5,0.4-0.9,0.4-1.5c-0.1-2.8,1.5-5.1,3.9-5.8c1.1-0.4,2.2-0.2,3.3,0.1c1.5,0.5,2.9,1.1,4.2,2
		c0.3,0.2,0.7,0.3,1.1,0.3c3.1,0,6.2,0,9.3,0c0,0.1,0,0.2,0,0.2c-1.1,0.4-2.3,0.8-3.4,1.2c-1.5,0.6-3.1,1.2-4.6,1.7
		c-1.7,0.6-3.1,1.6-4.5,2.8c-2,1.7-2.6,3.8-2.5,6.3c0.3,5.2-1.4,9.4-5.7,12.5c-0.1,0-0.1,0.1-0.1,0.2c-0.1,0-0.1,0.1-0.2,0.1
		c0.1,0.1,0.2,0.1,0.3,0c3.8-1.7,6.8-4,7.8-8.4c0.1-0.3,0.1-0.4,0.4-0.2c1.4,0.9,2.9,0.8,4.4,0.3c2.6-0.8,4.7-2.3,6.6-4
		c1.5-1.4,2.8-2.9,3.9-4.6c0.2-0.3,0.4-0.5,0.8-0.6c8.3-1.8,14-6.7,17.2-14.5c0.1-0.3,0.1-0.6,0.4-0.8c-0.4,5.9-4.8,15.6-15.4,19.6
		c1.7,0.5,7-1,10.2-2.8c3.2-1.8,5.8-4.3,7.9-7.4c-0.1,2.2-4.2,7.7-7.7,10.4c-3.4,2.6-7,4-12.2,4.6c0.6,0.4,1.3,0.4,1.9,0.5
		c6.5,0.8,12.3-0.8,17.4-4.8c0.2-0.2,0.4-0.3,0.6-0.5c0,0,0.1,0.1,0.1,0.1c-1.8,2.5-4.1,4.5-6.7,6c-4.8,2.8-10,3.8-15.6,3
		c-0.2,0-0.3,0-0.6,0c1.5,0.9,3,1.4,4.5,1.8c5.3,1.5,10.4,1.1,15.4-1.1c0.2-0.1,0.4-0.2,0.7-0.3c0,0,0.1,0.1,0.1,0.1
		c-2.6,2.1-5.6,3.5-8.9,4.3c-5,1.2-9.9,0.8-14.7-1.2c-0.2-0.1-0.4-0.1-0.6-0.2c-0.1-0.1-0.2-0.1-0.2-0.1c-0.1,0.1,0.1,0.1,0.1,0.2
		c2.9,2.8,6.4,4.5,10.3,5.4c2.7,0.6,5.5,0.8,8.3,0.3c0.3,0,0.5,0,0.8,0c-0.2,0.3-0.5,0.3-0.7,0.4C97,88,89.4,86.7,82.5,81.4
		c-0.2-0.1-0.3-0.2-0.5-0.3c0,0-0.1,0-0.1-0.1c0,0,0,0.1,0.1,0.1c1.9,3.1,4.5,5.6,7.6,7.5c3.1,1.9,6.4,2.9,10,3.2
		c0.1,0,0.2,0,0.4,0.1c-3.7,0.7-8.5,0.3-12.9-1.6c-4.1-1.8-7.4-4.6-10.1-8.3c-0.1,1.1,1.4,4.2,3,6.5c1.4,2,3.1,3.7,5.1,5.2
		c2,1.5,4.1,2.6,6.4,3.4c-9-1.3-15.3-6.1-19.2-14.4c-0.1,0.6,0,1.1,0.1,1.6c0,0.5,0.1,1.1,0.2,1.6c1,5.6,4,10,8.5,13.4
		c0.2,0.1,0.4,0.3,0.6,0.5c0,0,0,0.1-0.1,0.1c-2.4-0.9-4.5-2.3-6.5-4c-3.8-3.4-6.3-7.6-7.5-12.5c0-0.1,0-0.3-0.2-0.4
		c-0.3,1-0.3,1.9-0.4,2.9c-0.1,4.7,1.6,8.8,4.4,12.6c0.2,0.2,0.3,0.4,0.5,0.6C71.9,99.1,71.8,99.1,71.8,99.1z M56,75.6
		C56.1,75.6,56.1,75.6,56,75.6C56.1,75.6,56,75.5,56,75.6c-0.1-0.1-0.1-0.1-0.1-0.1C56,75.6,56,75.6,56,75.6z M53.6,45.6
		C53.6,45.6,53.6,45.6,53.6,45.6C53.6,45.6,53.6,45.6,53.6,45.6C53.7,45.6,53.7,45.6,53.6,45.6C53.7,45.6,53.7,45.6,53.6,45.6z
		 M50.3,57.9L50.3,57.9L50.3,57.9L50.3,57.9z"/>
	<path class="st1" d="M61.7,132.2c1.6,0.7,2.5,2,2.7,3.6c0.2,1.9,0.2,3.8-1,5.4c-1.1,1.5-2.6,2.1-4.3,2.3c-2.2,0.2-4.3,0.1-6.5,0.1
		c-1,0-2,0-3,0c-0.6,0-0.7-0.2-0.7-0.7c0-6.2,0-12.5,0-18.7c0-0.8,0-1.6,0-2.4c0-0.3,0-0.4,0.4-0.4c3.3,0.1,6.5-0.2,9.8,0.1
		c2.6,0.3,4.3,1.6,4.8,3.8c0.4,1.7,0.3,3.3-0.3,4.9C63.1,131.1,62.5,131.7,61.7,132.2z M52.8,137.1c0,0.8,0,1.5,0,2.3
		c0,0.3,0,0.5,0.4,0.5c1.6,0,3.3,0.1,4.9-0.1c1.6-0.2,2.2-1,2.2-2.7c0-1.6-0.7-2.5-2.2-2.7c-1.6-0.2-3.2,0-4.8-0.1
		c-0.4,0-0.4,0.2-0.4,0.5C52.8,135.6,52.8,136.3,52.8,137.1z M52.8,127.9c0,0.7,0,1.5,0,2.2c0,0.4,0.1,0.5,0.5,0.5c1.3,0,2.6,0,4,0
		c0.7,0,1.5-0.1,1.9-0.8c0.8-1,0.8-2.2,0.4-3.4c-0.4-1-1.3-1.3-2.3-1.3c-1.3,0-2.7,0-4,0c-0.4,0-0.5,0.2-0.5,0.5
		C52.8,126.4,52.8,127.2,52.8,127.9z"/>
	<path class="st0" d="M26.1,144c-1.7,0-3.2-0.1-4.6-0.7c-2.2-0.8-3.3-2.4-3.5-4.7c-0.2-2.4,0.4-4.6,2.4-6.2c0.6-0.4,0-0.6-0.2-0.8
		c-2.7-2.1-2.8-7.9,1.1-9.7c1-0.5,2-0.8,3-0.9c2-0.2,4-0.1,5.9,0.7c2.2,1,3.4,2.7,3.4,5.2c0,2-0.4,3.6-2.1,4.8
		c-0.4,0.3-0.2,0.5,0.1,0.7c2.3,1.7,2.7,4,2.2,6.6c-0.5,2.7-2.4,4-4.9,4.6C28,143.9,27,144,26.1,144z M26.1,134
		c-2,0-3.3,0.9-3.7,2.5c-0.4,1.6,0.3,2.8,1.8,3.2c1.3,0.3,2.5,0.3,3.8,0c1.1-0.3,1.7-1,1.7-2.1C29.9,135.4,28.4,134,26.1,134z
		 M26.2,130.7c1.1,0.2,2-0.4,2.7-1.4c1.1-1.5,0.5-3.6-1.2-4.1c-1.1-0.3-2.3-0.3-3.4,0c-0.9,0.3-1.4,0.8-1.6,1.8
		C22.3,129,23.8,130.7,26.2,130.7z"/>
	<path class="st1" d="M94.6,121.4c1.1,0,2.1,0,3.2,0c0.4,0,0.6,0.1,0.7,0.5c1.6,7.1,3.3,14.1,5,21.1c0.1,0.4,0.1,0.6-0.4,0.6
		c-1,0-2,0-3,0c-0.4,0-0.5-0.1-0.6-0.5c-0.3-1.1-0.6-2.2-0.9-3.3c-0.1-0.4-0.3-0.6-0.7-0.6c-2.2,0-4.4,0-6.6,0
		c-0.4,0-0.6,0.1-0.7,0.5c-0.2,1.1-0.5,2.1-0.8,3.2c-0.1,0.5-0.2,0.7-0.8,0.7c-0.9-0.1-1.9,0-2.8,0c-0.5,0-0.6-0.1-0.5-0.6
		c1.1-4.6,2.2-9.3,3.3-13.9c0.6-2.4,1.1-4.7,1.7-7.1c0.1-0.5,0.2-0.7,0.8-0.7C92.5,121.4,93.5,121.4,94.6,121.4z M91.5,135.4
		c1.8,0,3.6,0,5.4,0c0.6,0,0.5-0.2,0.4-0.6c-0.7-3-1.4-6-2.1-9c-0.1-0.5-0.2-0.7-0.8-0.7c-0.6,0-0.7,0.3-0.8,0.7
		c-0.1,0.5-0.2,0.9-0.3,1.4C92.8,130,92.2,132.7,91.5,135.4z"/>
	<path class="st1" d="M143.6,143.7c-1.5,0-2.9,0-4.3,0c-0.4,0-0.5-0.2-0.7-0.5c-1.3-2.8-2.7-5.6-4-8.4c-0.2-0.4-0.4-0.6-0.9-0.5
		c-0.7,0.1-1.5-0.1-1.9,0.3c-0.4,0.4-0.1,1.3-0.1,1.9c0,2.2,0,4.4,0,6.6c0,0.5-0.1,0.6-0.6,0.6c-1,0-1.9,0-2.9,0
		c-0.5,0-0.6-0.2-0.6-0.6c0-3.6,0-7.3,0-10.9c0-3.4,0-6.7,0-10.1c0-0.6,0.2-0.7,0.7-0.7c0.9,0,1.8,0,2.7,0c0.5,0,0.7,0.1,0.7,0.7
		c0,2.6,0,5.2,0,7.8c0,0.6,0.2,0.7,0.7,0.6c0.2,0,0.4-0.1,0.6-0.1c1.4,0.2,2.1-0.5,2.6-1.8c0.9-2.3,2-4.4,3-6.7
		c0.2-0.4,0.4-0.6,0.9-0.6c1.3,0,2.6,0,3.9,0c0.1,0.3-0.1,0.5-0.2,0.8c-1.5,3.1-3,6.3-4.5,9.4c-0.3,0.5-0.2,0.9,0,1.5
		c1.6,3.2,3.1,6.5,4.6,9.8C143.4,143,143.5,143.3,143.6,143.7z"/>
	<path class="st0" d="M6.8,143.6c-2,0-4,0-6,0c-0.7,0-0.8-0.2-0.8-0.9c0.1-1.4-0.1-2.9,0.2-4.3c0.2-1.1,0.9-2.1,1.6-2.9
		c1.5-1.7,3.5-3,5.2-4.5c0.6-0.5,1.2-1.1,1.6-1.8c1.1-1.9,0.2-3.6-1.9-3.9c-1.7-0.2-3.3,0-5,0.2c-1.2,0.1-1.2,0.2-1.3-0.9
		c-0.1-0.7-0.3-1.5-0.4-2.2c0-0.3-0.1-0.5,0.3-0.6c2.9-0.6,5.7-1.2,8.7-0.5c2.6,0.6,4,2.4,4.2,5.1c0.2,2.6-0.8,4.7-2.5,6.6
		c-1.1,1.2-2.4,2.2-3.7,3.1c-0.9,0.7-1.8,1.4-2.1,2.5c-0.3,0.8-0.2,1,0.7,1c2.4,0,4.9,0,7.3,0c0.6,0,0.8,0.2,0.8,0.8
		c0,0.9-0.1,1.8,0,2.7c0,0.6-0.2,0.7-0.7,0.7C10.9,143.6,8.8,143.6,6.8,143.6z"/>
	<path class="st1" d="M107.1,132.6c0-2.1,0.1-4.3,0.7-6.4c0.9-3.2,3-4.9,6.4-5.1c2.5-0.2,4.9,0.2,7.2,0.7c0.3,0.1,0.5,0.2,0.4,0.6
		c-0.1,0.9-0.1,1.8-0.1,2.7c0,0.3-0.1,0.4-0.5,0.4c-1.4-0.2-2.9-0.3-4.3-0.4c-0.6-0.1-1.2-0.1-1.8,0c-2.1,0.3-3.1,1.1-3.5,3.2
		c-0.5,2.8-0.5,5.7,0,8.6c0.3,2,1.4,2.9,3.4,3.1c2,0.2,4-0.2,6-0.4c0.5-0.1,0.7,0,0.7,0.6c0,0.9,0,1.7,0.1,2.6c0,0.2,0,0.5-0.3,0.5
		c-2.5,0.5-5,1-7.5,0.7c-3.8-0.4-5.7-2.3-6.4-6C107.2,136.1,107.2,134.4,107.1,132.6z"/>
	<path class="st1" d="M70.1,132.5c0-3.5,0-7,0-10.5c0-0.6,0.2-0.7,0.7-0.7c0.9,0,1.8,0,2.7,0c0.6,0,0.7,0.1,0.7,0.7
		c0,5.6,0,11.2,0,16.8c0,0.7,0.1,0.9,0.9,0.9c2.3-0.1,4.6,0,6.9,0c0.5,0,0.6,0.1,0.5,0.6c-0.3,1-0.5,1.9-0.7,2.9
		c-0.1,0.3-0.2,0.4-0.5,0.4c-3.5,0-7,0-10.6,0c-0.6,0-0.5-0.3-0.5-0.6C70.1,139.5,70.1,136,70.1,132.5z"/>
	<path class="st2" d="M72.1,13.1c1.7-3,3.7-5.8,6.5-7.9c5.1-3.7,10.6-4.4,16.6-2.6c0.1,0,0.2,0.1,0.3,0.1c0,0,0.1,0.1,0.1,0.1
		C86.7,4,78.7,6.9,72.1,13.1z"/>
	<path class="st2" d="M78.8,0.5C74.8,2,71.3,4.1,68,6.7c-3.3,2.6-6.1,5.6-8.2,9.5C61.2,6.7,70.4-0.9,78.8,0.5z"/>
	<path class="st3" d="M63.4,1.7c-6.3,5-11.3,11-13.6,19C49.3,10.3,55.2,3.2,63.4,1.7z"/>
	<path class="st3" d="M48.4,8.5c-2.2,3-4,6.1-5.3,9.6c-1.4,3.6-2.2,7.2-2,11.2c-0.3-0.5-0.4-1.1-0.5-1.6c-0.1-0.6-0.3-1.1-0.4-1.7
		c-0.7-4.1-0.3-8,1.9-11.7C43.6,11.7,45.6,9.8,48.4,8.5C48.3,8.4,48.3,8.5,48.4,8.5z"/>
	<path class="st3" d="M35.7,19.4c-0.7,2.4-1.2,4.8-1.4,7.3c-0.3,4.2-0.2,8.4,1.3,12.5c0,0.1,0.1,0.3,0,0.4c-0.1,0-0.2,0-0.2-0.1
		c-2.3-3.3-3.8-6.8-3.6-10.9c0.2-3.4,1.5-6.4,3.7-9.1C35.4,19.4,35.5,19.4,35.7,19.4C35.6,19.3,35.7,19.4,35.7,19.4z"/>
	<path class="st3" d="M27.8,33.7c0,6.7,1.4,12.9,5.3,18.5C25.7,46.9,24.9,39.1,27.8,33.7z"/>
	<path class="st3" d="M35.2,64.7c-7-1.7-11.4-7.5-10.7-14.3c1.1,3,2.5,5.6,4.3,8.1C30.6,60.9,32.6,63,35.2,64.7z"/>
	<path class="st3" d="M109.4,57c2.6-4.2,4.2-8.7,4.6-13.6c0.1-1.2,0-2.4-0.1-3.5c0.1,0,0.1,0,0.1,0c1.7,4.4,2.1,8.7-0.4,13
		c-1,1.6-2.3,3-3.8,4.1C109.7,56.9,109.6,57,109.4,57L109.4,57z"/>
	<path class="st3" d="M117.9,53.5c0.4,7.8-4.2,12.6-9.7,13.6C112.8,63.5,116.3,59.2,117.9,53.5z"/>
	<path class="st3" d="M46.4,90.1c3.2,0.1,6.4,0.1,9.5-0.8c0.5-0.1,0.6-0.1,0.7,0.5c0.3,2.4,0.7,4.8,1.9,7c0.1,0.2,0.1,0.3,0.1,0.5
		c-1.6-1.5-2.9-3.2-3.4-5.4c-0.1-0.4-0.4-0.4-0.7-0.3c-2.6,0.4-5.2-0.1-7.6-1.1C46.7,90.3,46.5,90.3,46.4,90.1z"/>
	<path class="st3" d="M38.4,74.5c-7.1,0.5-11.8-3.6-12.9-9.1C28.8,69.6,32.9,73,38.4,74.5z"/>
	<path class="st3" d="M105.8,75.4c2.5-1.1,4.8-2.5,6.8-4.2c2-1.7,3.8-3.7,5.1-6.2C116.7,71.3,111.4,76,105.8,75.4z"/>
	<path class="st3" d="M115.5,76.6c-1.2,2.3-2.8,4.3-5.1,5.6c-2.8,1.5-5.6,1.6-8.6,0.7c2.5-0.4,5-1.1,7.3-2.1
		C111.5,79.7,113.6,78.3,115.5,76.6z"/>
	<path class="st3" d="M86.6,92.4c0.3-0.1,0.5,0.1,0.7,0.2c3.2,1.4,6.6,2.1,10.2,2.1c1.4,0,2.7-0.2,4.1-0.6
		C96.2,97.6,90.1,96.8,86.6,92.4L86.6,92.4z"/>
	<path class="st3" d="M109.1,86.5c-3.8,4.5-9.7,5.4-14.3,2.3C99.9,89.3,104.6,88.8,109.1,86.5z"/>
	<path class="st3" d="M78.7,94c3.6,3,7.6,5.3,12.6,5.8C86.1,101,81.1,99.4,78.7,94z"/>
	<path class="st3" d="M31,77.6c4,2.7,8.2,4.5,13.1,4.4C38.6,84.1,33.5,82.3,31,77.6z"/>
	<path class="st3" d="M70.8,93.9c1.3,2,2.9,3.8,4.8,5.3c1.4,1.1,2.9,2.1,4.8,2.7c-4.9,0-8.5-2.8-9.5-7.2
		C70.8,94.4,70.8,94.1,70.8,93.9L70.8,93.9z"/>
	<path class="st3" d="M69.5,100.6c-4.1-1.3-6.7-5.7-5.8-9.8C64.7,94.6,66.4,97.9,69.5,100.6z"/>
	<path class="st0" d="M110.5,46.3c0,0,0,0.1,0,0.1c0,0.1,0,0.1-0.1,0C110.5,46.4,110.5,46.3,110.5,46.3
		C110.5,46.3,110.5,46.3,110.5,46.3z"/>
	<path class="st0" d="M81.7,99.8c0.1,0,0.2,0,0.1,0.1C81.8,100,81.7,99.9,81.7,99.8C81.6,99.8,81.6,99.8,81.7,99.8z"/>
	<path class="st0" d="M72.2,99.4c-0.2,0.1-0.2,0-0.3-0.1c0,0,0.1-0.1,0.1-0.1C72.1,99.2,72.2,99.3,72.2,99.4
		C72.2,99.4,72.2,99.4,72.2,99.4z"/>
	<path class="st0" d="M111,75.9c0,0,0.1-0.1,0.1-0.1c0,0,0,0.1,0,0.1C111.1,75.9,111.1,75.9,111,75.9L111,75.9z"/>
	<path class="st0" d="M68.6,10.8c0,0.1-0.1,0.1-0.1,0.2c0,0,0-0.1-0.1-0.1C68.5,10.8,68.5,10.8,68.6,10.8
		C68.6,10.8,68.6,10.8,68.6,10.8z"/>
	<path class="st0" d="M80.7,10.9c0,0,0.1,0,0.1,0C80.9,10.9,80.8,10.9,80.7,10.9C80.8,10.9,80.8,10.9,80.7,10.9z"/>
	<path class="st0" d="M68.2,11c0.1,0,0.1-0.1,0.2-0.1c0,0,0,0.1,0.1,0.1c0,0.1-0.1,0.1-0.1,0.2C68.3,11.1,68.3,11,68.2,11z"/>
	<path class="st0" d="M68.4,11.1c0,0.1-0.1,0.1-0.1,0.2c0-0.1-0.1-0.1-0.1-0.2c0,0,0.1-0.1,0.1-0.1C68.3,11,68.3,11.1,68.4,11.1z"/>
	<path class="st3" d="M35.6,19.3C35.6,19.3,35.6,19.2,35.6,19.3C35.8,19.3,35.7,19.4,35.6,19.3C35.7,19.4,35.6,19.3,35.6,19.3z"/>
	<polygon class="st0" points="27.6,51.5 27.6,51.6 27.6,51.6 	"/>
	<path class="st3" d="M48.3,8.4c0.1,0,0.1,0,0.2,0C48.5,8.5,48.4,8.5,48.3,8.4C48.3,8.5,48.3,8.4,48.3,8.4z"/>
	<path class="st0" d="M27.8,52c0-0.1,0-0.1,0-0.2C27.7,51.8,27.8,51.9,27.8,52C27.8,51.9,27.8,51.9,27.8,52z"/>
	<path class="st3" d="M109.4,56.9c0,0,0,0.1,0,0.1C109.4,57,109.4,57,109.4,56.9C109.4,57,109.4,57,109.4,56.9
		C109.4,57,109.4,56.9,109.4,56.9z"/>
	<polygon class="st0" points="68.8,10.7 68.8,10.6 68.8,10.7 	"/>
	<path class="st0" d="M68.6,10.8c0-0.1,0.1-0.1,0.2-0.1c0,0,0,0,0,0C68.7,10.7,68.7,10.8,68.6,10.8C68.6,10.8,68.6,10.8,68.6,10.8z"
		/>
	<path class="st0" d="M72.4,99.5C72.4,99.5,72.4,99.6,72.4,99.5C72.4,99.6,72.4,99.5,72.4,99.5L72.4,99.5z"/>
	<path class="st0" d="M72.4,99.5c-0.1,0-0.2,0-0.2-0.1c0,0,0,0,0,0C72.3,99.4,72.3,99.5,72.4,99.5C72.4,99.5,72.4,99.5,72.4,99.5z"
		/>
	<path class="st0" d="M113.5,66.1C113.5,66.1,113.5,66.1,113.5,66.1C113.5,66,113.5,66,113.5,66.1C113.5,66.1,113.5,66.1,113.5,66.1
		L113.5,66.1z"/>
	<path class="st0" d="M71.9,99.3c-0.1,0-0.1-0.1-0.2-0.1c0,0,0.1-0.1,0.1-0.1c0,0,0.1,0.1,0.1,0.1C72,99.2,72,99.2,71.9,99.3z"/>
	<path class="st0" d="M113.5,66.1c0,0,0,0.1,0,0.1C113.3,66.1,113.5,66.1,113.5,66.1C113.5,66.1,113.5,66.1,113.5,66.1z"/>
	<path class="st0" d="M113.1,66.4c0.1,0,0.1,0,0.2,0c0,0.1,0,0.1-0.1,0.2C113.2,66.5,113.2,66.5,113.1,66.4z"/>
	<polygon class="st3" points="70.8,93.9 70.8,93.9 70.8,93.9 	"/>
	<path class="st3" d="M86.6,92.4C86.5,92.4,86.5,92.4,86.6,92.4C86.5,92.4,86.5,92.4,86.6,92.4C86.6,92.4,86.6,92.4,86.6,92.4
		C86.6,92.4,86.6,92.4,86.6,92.4z"/>
	<polygon class="st0" points="31.7,75.7 31.7,75.7 31.6,75.7 	"/>
	<path class="st0" d="M111,75.9c0.1,0.1,0,0.1-0.1,0.2c0,0-0.1-0.1-0.1-0.1C110.9,76,111,76,111,75.9C111,75.9,111,75.9,111,75.9z"
		/>
	<polygon class="st0" points="81.1,10.8 81.1,10.7 81.2,10.7 	"/>
	<path class="st4" d="M69,79.5c-0.1,0.1-0.2,0.1-0.3,0C68.8,79.5,68.8,79.4,69,79.5C68.9,79.4,68.9,79.4,69,79.5z"/>
	<path class="st4" d="M86.6,79.1c-0.1-0.1-0.2-0.1-0.1-0.2c0.1-0.1,0.2,0,0.2,0.1C86.7,79,86.7,79,86.6,79.1z"/>
	<path class="st4" d="M56,75.6c0,0-0.1,0-0.1-0.1C55.9,75.6,56,75.5,56,75.6C56,75.5,56.1,75.6,56,75.6C56.1,75.6,56.1,75.6,56,75.6
		z"/>
	<path class="st4" d="M53.6,45.6C53.7,45.6,53.7,45.6,53.6,45.6C53.7,45.6,53.7,45.6,53.6,45.6C53.6,45.6,53.6,45.6,53.6,45.6
		C53.6,45.6,53.6,45.6,53.6,45.6z"/>
	<path class="st4" d="M51,51.3c0,0,0,0.1,0.1,0.1c-0.1,0-0.1,0-0.2,0C50.9,51.4,51,51.3,51,51.3z"/>
	<polygon class="st4" points="50.3,57.9 50.3,57.9 50.3,57.9 	"/>
	<path class="st4" d="M81.9,81.2c0,0,0-0.1-0.1-0.1C81.9,81.1,81.9,81.1,81.9,81.2C82,81.1,81.9,81.2,81.9,81.2z"/>
</g>
</svg>
