<?xml version="1.0" encoding="utf-8"?>
<!-- Generator: Adobe Illustrator 22.0.1, SVG Export Plug-In . SVG Version: 6.00 Build 0)  -->
<svg version="1.1" id="Layer_1" xmlns="http://www.w3.org/2000/svg" xmlns:xlink="http://www.w3.org/1999/xlink" x="0px" y="0px"
	 viewBox="0 0 144 144" style="enable-background:new 0 0 144 144;" xml:space="preserve">
<style type="text/css">
	.st0{fill:#A49263;}
	.st1{fill:#141314;}
	.st2{fill:#181819;}
	.st3{fill:#BDBFC1;}
	.st4{fill:#FFFEFE;}
	.st5{fill:none;}
</style>
<g>
	<path class="st0" d="M24.1,144c-0.5-0.2-1-0.2-1.5-0.3c-3.3-0.8-4.9-3.2-4.6-6.6c0.2-1.9,0.9-3.5,2.4-4.6c0.6-0.4,0.1-0.6-0.2-0.8
		c-2.6-2-2.5-7.1,0.1-9.1c1.2-0.9,2.6-1.4,4.1-1.6c1.9-0.2,3.7-0.1,5.5,0.5c4.1,1.5,4.6,5.2,3.6,8.2c-0.3,0.8-0.9,1.4-1.6,1.9
		c-0.5,0.3-0.4,0.5,0,0.8c2.6,2.1,3.2,5.9,1.4,8.6c-1.1,1.7-2.9,2.4-4.8,2.7c-0.2,0-0.4,0-0.5,0.2C26.7,144,25.4,144,24.1,144z
		 M26.1,134c-1.5-0.2-2.6,0.5-3.3,1.9c-0.9,1.7-0.1,3.4,1.7,3.8c1.2,0.3,2.4,0.3,3.6,0c1.4-0.4,2-1.5,1.8-2.9
		C29.5,135,28.3,134,26.1,134z M26.1,130.6c1.8,0,3.1-1,3.4-2.5c0.3-1.2-0.2-2.3-1.3-2.7c-1.3-0.5-2.7-0.5-4,0
		c-0.9,0.3-1.3,0.9-1.4,1.9C22.6,129.2,24,130.6,26.1,130.6z"/>
	<path class="st1" d="M144.1,143.7c-1.4,0-2.8,0-4.1,0c-0.4,0-0.7-0.1-0.9-0.5c-1.3-2.8-2.7-5.5-4-8.3c-0.3-0.5-0.5-0.7-1.1-0.6
		c-0.3,0.1-0.7,0.1-1,0.1c-0.8-0.1-0.9,0.3-0.9,1c0,2.6,0,5.1,0,7.7c0,0.5-0.1,0.7-0.6,0.6c-1,0-1.9,0-2.9,0c-0.4,0-0.5-0.1-0.5-0.5
		c0-7.1,0-14.2,0-21.3c0-0.4,0.1-0.5,0.5-0.5c1,0,2,0,3,0c0.5,0,0.6,0.2,0.6,0.6c0,2.6,0,5.2,0,7.8c0,0.6,0.2,0.7,0.7,0.6
		c0.8-0.1,1.7,0.2,2.3-0.3c0.5-0.5,0.7-1.4,1-2.1c0.9-2,1.9-4.1,2.8-6.1c0.2-0.4,0.4-0.6,0.9-0.5c1.3,0,2.7,0,4.1,0
		c-0.6,1.4-1.3,2.7-1.9,4c-1,2.2-2.1,4.4-3.1,6.5c-0.1,0.3-0.2,0.5,0,0.7c1.7,3.6,3.4,7.1,5.1,10.7c0,0.1,0.1,0.1,0.1,0.1
		C144.1,143.5,144.1,143.6,144.1,143.7z"/>
	<path class="st1" d="M118.1,143.9c1.2-0.2,2.4-0.3,3.7-0.6c0.4-0.1,0.5-0.2,0.5-0.6c0-0.8-0.1-1.6-0.1-2.5c0-0.7-0.2-0.8-0.8-0.7
		c-2,0.3-3.9,0.6-5.9,0.4c-1.7-0.1-2.8-1-3.3-2.7c-0.2-0.8-0.3-1.7-0.4-2.5c-0.1-2.3-0.2-4.7,0.4-7c0.3-1.3,1.1-2.3,2.5-2.6
		c0.7-0.1,1.3-0.2,2-0.2c1.7,0.1,3.3,0.3,5,0.5c0.4,0,0.5-0.1,0.5-0.4c0-0.9,0-1.8,0.1-2.7c0-0.4-0.1-0.5-0.5-0.6
		c-2.3-0.5-4.6-0.8-6.9-0.7c-3.7,0.1-6,1.9-6.8,5.4c-0.9,4.1-0.9,8.2,0,12.3c0.6,2.5,2,4.2,4.6,4.9
		C112.7,143.7,115.5,144.2,118.1,143.9z"/>
	<path class="st0" d="M72.4,99.3c-2.6-1.9-4.6-4.3-6.2-7c-1.5-2.6-2.5-5.3-2.9-8.3c0-0.1,0-0.2-0.2-0.3c-0.6,1.4-0.9,2.9-0.9,4.4
		c-0.1,2.8,0.6,5.5,1.5,8.1c0.1,0.3,0.2,0.5,0.3,0.8c0,0,0,0-0.1,0.1c-1.8-2.3-2.9-5-3.6-7.8c-0.3-1.2-0.5-2.5-0.7-3.7
		c-0.1-0.6-0.2-0.7-0.7-0.5c-3.1,1.1-6.3,1.6-9.5,1.5C46.1,86.6,43,86,40,84.8c6.9,1,13.2-0.4,18.9-4.4c-9.8,2.8-18.8,1.3-27-4.8
		c3.8,1.7,7.8,2.6,12,2.7c4.2,0,8.2-0.9,12-2.8c-1.2,0.1-2.5,0.2-3.7,0.3c-3.2,0.1-6.4-0.3-9.5-1.2c-5.9-1.8-10.9-5.1-14.7-10
		c-0.1-0.1-0.2-0.3-0.3-0.5c0,0,0.1-0.1,0.1-0.1c2.9,2.4,6.2,4.3,9.8,5.5c4.9,1.6,9.8,1.7,14.8,0.6c0.1,0,0.3-0.1,0.4-0.1
		c-11.8-1.5-20.1-7.6-25-18.4c2.8,3.7,6.1,6.8,10.2,9c4.1,2.2,8.4,3.4,13.3,3.5c-14.1-5-19.6-17.4-20.3-25.2
		c3.4,9.4,9.7,15.7,19.2,18.7c-4.7-3.4-8.3-7.6-10.6-12.9c-2.3-5.3-3.1-10.8-2.2-16.5c0.4,4.7,1.7,9,4.1,13.1
		c2.4,4.1,5.5,7.3,9.6,9.9c-0.1-0.4-0.3-0.6-0.4-0.8c-3.9-4.9-6.1-10.5-6.7-16.7c-0.4-4.6,0.2-9.1,1.9-13.4c0.1-0.2,0.1-0.5,0.3-0.6
		l0,0c-0.1,1.7-0.4,3.3-0.4,5c0,7.7,2.5,14.5,7.7,20.3c0.1,0.1,0.2,0.2,0.3,0.3c0,0,0,0.1,0.1,0.1c0,0,0-0.1,0-0.1c0,0-0.1,0-0.1,0
		c0.1-0.3-0.1-0.5-0.2-0.8c-4.4-10.6-3.5-20.8,2.9-30.3c0.1-0.2,0.2-0.4,0.6-0.6c-3.9,9.1-3.8,17.9,0.7,26.7
		c-1.8-12,1.8-21.9,11.1-29.8c-2.9,3.7-4.9,7.8-6,12.4c-1.1,4.6-1,9.1,0.2,13.7c0.1-1.1,0.2-2.2,0.4-3.2c0.2-1.1,0.4-2.1,0.7-3.2
		c2.6-8.9,8.1-15.4,16.5-19.4c0.2-0.1,0.4-0.1,0.5-0.2c0,0,0.1,0.1,0.1,0.1c-1.8,1.4-3.6,2.9-5.1,4.6c-4.1,4.7-6.5,10.1-7.2,16.3
		c-0.2,2.1-0.2,4.2,0,6.4c0,0.3,0,0.5-0.3,0.8c-3.7,3.1-5.6,7.3-6.7,11.9c-0.5,2.1-0.7,4.2-0.2,6.3c0.3,1.3,0.8,2.5,2,3.3
		c0.9,0.6,1.9,0.6,2.8,0.1c0.9-0.5,1.4-1.3,1.4-2.4c-0.1-3.2,1.8-5.5,4.8-6.1c0.9-0.2,1.7,0.1,2.5,0.3c1.1,0.3,2.3,0.7,3.2,1.4
		c1.1,0.8,2.4,0.9,3.7,0.9c2.6,0,5.1,0,7.7,0c0,0.1,0,0.1,0,0.2c-0.8,0.3-1.6,0.6-2.3,0.8c-1.9,0.6-3.7,1.3-5.6,2
		c-1.8,0.7-3.4,1.7-4.8,3c-1.9,1.7-2.4,3.8-2.3,6.2c0.2,3.5-0.6,6.8-2.7,9.6c-0.8,1.1-1.8,1.9-2.8,2.7c-0.1,0.1-0.1,0.1-0.2,0.2
		c0.1,0.1,0.2,0,0.3-0.1c3.1-1.3,6.9-4.3,7.5-8.6c2.1,1.5,4.1,0.8,6.2,0c1-0.4,1.9-1,2.8-1.6c2.5-1.8,4.6-4,6.3-6.5
		c0.2-0.3,0.4-0.5,0.8-0.6c8.6-1.8,14.4-7,17.5-15.2c0.1-0.2,0.2-0.4,0.3-0.8c-0.5,7.1-5.2,16.4-15.5,20.4c1.8,0.4,7-1.1,10.1-2.8
		c3.1-1.8,5.7-4.2,7.8-7.2c0.1,1.5-3.5,7.2-7.6,10.2c-3.6,2.6-7.6,4.2-12,4.7c4,0.9,8,0.8,12-0.5c3-1,5.6-2.5,8-4.5
		c0,0,0.1,0.1,0.1,0.1c-2.1,2.9-4.8,5.1-7.9,6.8c-3.6,1.9-7.4,2.8-11.5,2.7c-1.2,0-2.4-0.1-3.7-0.3c1.5,0.9,3.2,1.5,4.9,2
		c5.3,1.3,10.4,0.9,15.4-1.4c0.2-0.1,0.4-0.2,0.6-0.2c0,0,0,0,0.1,0.1c-2.1,1.8-4.4,3-7,3.9c-5.8,2-11.5,1.7-17.1-0.7
		c-0.2-0.1-0.3-0.2-0.6-0.1c2.7,2.5,5.8,4.2,9.3,5.2c3.5,1,7.1,1.1,10.7,0.4c-1.2,0.7-2.5,1.1-3.8,1.4c-7.5,1.6-14.3,0.2-20.4-4.6
		c-0.1-0.1-0.2-0.2-0.4-0.2c0-0.1-0.1-0.1-0.1-0.1c0,0,0,0.1,0,0.2c1.9,3.1,4.4,5.5,7.5,7.3c3.1,1.9,6.5,2.9,10.1,3.2
		c0.2,0,0.4,0,0.6,0.1c-9.7,1.2-17.4-2.2-23.4-9.9c2.5,7.4,7.4,12.4,14.6,15.1c-9-1.3-15.3-6.2-19.3-14.4c0.4,7.4,3.8,12.9,9.5,17.2
		c-7.6-3.3-12.3-9-14.4-17.2c-0.4,1.6-0.4,3.1-0.3,4.5c0.2,4.3,2.1,8,4.7,11.4c0.2,0.2,0.3,0.4,0.5,0.6
		C72.5,99.3,72.4,99.3,72.4,99.3z M51.2,51.1C51.2,51.1,51.2,51.1,51.2,51.1C51.2,51.1,51.2,51.1,51.2,51.1
		C51.2,51.1,51.2,51.1,51.2,51.1C51.2,51.1,51.2,51.1,51.2,51.1z"/>
	<path class="st1" d="M62,132.2c1.7,0.8,2.6,2.2,2.7,4c0.2,2.2,0,4.2-1.7,5.8c-1,1-2.3,1.4-3.7,1.5c-3.3,0.3-6.6,0.1-9.9,0.1
		c-0.3,0-0.5-0.1-0.4-0.4c0-0.1,0-0.2,0-0.3c0-7,0-14,0-21c0-0.6,0.2-0.7,0.7-0.7c2.6,0,5.2,0,7.8,0c1,0,2.1,0.1,3.1,0.4
		c2,0.6,3.3,2,3.6,4.1c0.2,1.2,0.1,2.4-0.2,3.6C63.7,130.6,63,131.5,62,132.2z M53,137c0,0.8,0,1.6,0,2.4c0,0.3,0,0.4,0.4,0.4
		c1.6,0,3.2,0,4.8-0.1c1.6-0.1,2.3-1,2.3-2.7c0-1.6-0.7-2.5-2.2-2.7c-1.6-0.2-3.3-0.1-4.9-0.1c-0.3,0-0.3,0.2-0.3,0.4
		C53,135.5,53,136.3,53,137z M53,127.9c0,0.7,0,1.4,0,2.1c0,0.5,0.1,0.6,0.6,0.6c1.1,0,2.3,0,3.4,0c0.1,0,0.3,0,0.4,0
		c1.8,0,2.6-0.9,2.6-2.8c0-1.8-0.8-2.6-2.5-2.6c-1.3,0-2.7,0-4,0c-0.4,0-0.5,0.1-0.5,0.5C53,126.4,53,127.1,53,127.9z"/>
	<path class="st1" d="M95,121.3c1,0,2.1,0,3.1,0c0.5,0,0.7,0.1,0.8,0.6c1.2,5.2,2.5,10.5,3.7,15.7c0.4,1.8,0.8,3.6,1.3,5.3
		c0.1,0.5,0.1,0.7-0.5,0.7c-0.9-0.1-1.9-0.1-2.8,0c-0.5,0-0.7-0.2-0.8-0.6c-0.3-1.1-0.6-2.1-0.9-3.2c-0.1-0.4-0.2-0.5-0.6-0.5
		c-2.2,0-4.5,0-6.7,0c-0.5,0-0.6,0.2-0.6,0.6c-0.3,1.1-0.5,2.2-0.8,3.3c-0.1,0.3-0.2,0.5-0.6,0.5c-1,0-2,0-3,0
		c-0.6,0-0.6-0.2-0.5-0.6c1.6-6.5,3.1-13,4.7-19.6c0.2-0.7,0.1-1.7,0.6-2c0.5-0.4,1.4-0.1,2.2-0.1C93.9,121.3,94.4,121.3,95,121.3z
		 M94.9,135.4c0.8,0,1.6,0,2.5,0c0.3,0,0.5,0,0.4-0.4c-0.7-3.2-1.5-6.3-2.2-9.5c-0.1-0.4-0.4-0.4-0.7-0.4c-0.3,0-0.6-0.1-0.7,0.4
		c-0.7,3.2-1.5,6.3-2.2,9.4c-0.1,0.4,0.1,0.5,0.4,0.5C93.2,135.4,94.1,135.4,94.9,135.4z"/>
	<path class="st0" d="M6.9,143.7c-2,0-4.1,0-6.1,0c-0.5,0-0.8-0.1-0.8-0.7c0.1-1.1,0-2.3,0.1-3.4c0.1-1.6,0.7-2.9,1.8-4
		c1.3-1.4,2.8-2.5,4.2-3.7c0.8-0.6,1.6-1.3,2.2-2.1c0.2-0.3,0.4-0.6,0.5-0.9c0.9-1.8,0-3.4-2-3.7c-1.7-0.2-3.3,0-5,0.2
		c-0.1,0-0.1,0-0.2,0c-1,0.2-1,0.2-1.2-0.8c-0.1-0.8-0.2-1.6-0.4-2.4C0,122,0,121.8,0.3,121.7c2.9-0.7,5.8-1.2,8.8-0.5
		c2.7,0.6,4.2,2.5,4.3,5.4c0.1,3.3-1.6,5.7-4,7.8c-0.8,0.7-1.7,1.3-2.6,2c-0.8,0.6-1.5,1.3-1.8,2.2c-0.3,0.8-0.1,1,0.7,1
		c2.5,0,5,0,7.5,0c0.5,0,0.7,0.1,0.6,0.7c0,1,0,1.9,0,2.9c0,0.5-0.2,0.6-0.7,0.6C11,143.6,8.9,143.7,6.9,143.7z"/>
	<path class="st2" d="M70.3,132.5c0-3.5,0-7,0-10.5c0-0.5,0.1-0.7,0.7-0.7c0.9,0.1,1.8,0.1,2.8,0c0.5,0,0.7,0.1,0.7,0.7
		c0,5.6,0,11.1,0,16.7c0,1.2-0.2,1,1,1c2.2,0,4.5,0,6.7,0c0.6,0,0.7,0.1,0.6,0.7c-0.3,0.9-0.5,1.9-0.7,2.8c-0.1,0.4-0.2,0.5-0.6,0.5
		c-3.5,0-7,0-10.5,0c-0.5,0-0.6-0.2-0.6-0.6c0-3.2,0-6.4,0-9.7C70.3,133.1,70.3,132.8,70.3,132.5z"/>
	<path class="st3" d="M72.5,12.5c0.8-1.7,1.9-3.2,3.1-4.6c2.9-3.3,6.4-5.6,10.9-6.3c3.2-0.5,6.3-0.2,9.3,0.8c0.1,0,0.2,0.1,0.3,0.2
		c-5.8,0.5-11.3,2.2-16.4,4.9c-2.5,1.3-4.7,2.9-6.7,4.8C72.9,12.4,72.8,12.6,72.5,12.5C72.5,12.6,72.5,12.5,72.5,12.5z"/>
	<path class="st3" d="M60,15.9C62.3,4.4,71-0.8,79,0.1C71.2,3.5,64.5,8.2,60,15.9z"/>
	<path class="st3" d="M50,20.3c-0.1-4.6,0.7-9,3.5-12.7c2.5-3.4,5.9-5.4,10.1-6.2C57.2,6.4,52.2,12.4,50,20.3z"/>
	<path class="st3" d="M48.7,8c-2.2,2.9-4,6.1-5.3,9.5c-1.4,3.5-2.2,7.1-2.1,10.9c0,0.1,0,0.3-0.1,0.4c-0.4-1.2-0.7-2.4-0.9-3.6
		c-0.5-3.3-0.3-6.5,1-9.6c1.4-3.3,3.8-5.8,6.8-7.6C48.3,8.1,48.5,8,48.7,8L48.7,8z"/>
	<path class="st3" d="M35.9,18.9c-0.4,1.6-0.9,3.2-1.1,4.8c-0.5,3.3-0.7,6.6-0.3,9.9c0.3,2,0.7,4,1.5,6.1c-0.5-0.3-0.6-0.7-0.9-1
		c-0.3-0.3-0.5-0.7-0.7-1c-1.7-2.8-2.8-5.9-2.7-9.3c0.1-3.4,1.3-6.4,3.4-9C35.4,19.3,35.6,19,35.9,18.9L35.9,18.9z"/>
	<path class="st3" d="M33.2,51.9c-1-0.5-1.7-1.3-2.5-2c-1.7-1.8-3.1-3.8-3.8-6.2c-1-3.5-0.7-6.8,0.7-10.1c0.1-0.1,0.1-0.3,0.3-0.3
		c-0.1,4,0.5,7.8,1.8,11.6c0.8,2.4,1.9,4.7,3.5,6.7C33.2,51.7,33.2,51.8,33.2,51.9L33.2,51.9z"/>
	<path class="st3" d="M35.4,64.5c-6.7-1.5-11.5-7.2-10.7-14.4C26.9,55.9,30.1,60.9,35.4,64.5z"/>
	<path class="st3" d="M114.2,39c3.5,7.6,0.8,14.8-4.5,17.8C113,51.3,114.9,45.6,114.2,39z"/>
	<path class="st3" d="M118.4,53.1c0.4,7.9-4.1,12.9-9.9,13.9C113.1,63.3,116.7,59,118.4,53.1z"/>
	<path class="st3" d="M58.8,97c-1.7-1.4-2.8-3.1-3.4-5.2c-0.1-0.4-0.3-0.5-0.7-0.4c-2.9,0.4-5.6-0.1-8.2-1.3c0,0,0-0.1-0.1-0.1
		c3.3,0.2,6.6,0.1,9.7-0.8c0.4-0.1,0.6-0.1,0.6,0.4c0.2,1.9,0.5,3.9,1.3,5.7C58.3,95.8,58.7,96.3,58.8,97
		C58.8,96.9,58.8,96.9,58.8,97z"/>
	<path class="st3" d="M38.6,74.3c-8.1,0.5-12.2-4.5-13-9.2C29.1,69.5,33.2,72.9,38.6,74.3z"/>
	<path class="st3" d="M102.1,82.7c5.2-0.9,10-2.7,13.9-6.5c-1.3,2.6-3.1,4.7-5.7,6C107.7,83.5,104.9,83.6,102.1,82.7z"/>
	<path class="st3" d="M118,65c-0.2,1.8-0.9,3.5-1.8,5c-2.1,3.5-5.8,5.5-10,5.3c0.1-0.2,0.3-0.2,0.4-0.3c4.2-2,7.8-4.7,10.5-8.6
		C117.4,65.9,117.7,65.5,118,65L118,65z"/>
	<path class="st3" d="M109.8,86.1c-3.7,4.6-9.8,5.8-14.7,2.5c2.6,0.2,5.1,0.3,7.6-0.1C105.2,88.1,107.6,87.4,109.8,86.1z"/>
	<path class="st3" d="M86.9,92.3c1.3,0.4,2.6,1,4,1.4c2.2,0.6,4.4,0.9,6.7,0.9c1.1,0,2.2-0.1,3.2-0.4c0.2,0,0.4-0.1,0.7,0
		c-1.2,0.8-2.5,1.3-3.8,1.6c-4,1-7.4-0.1-10.4-2.9C87.2,92.8,87,92.6,86.9,92.3L86.9,92.3z"/>
	<path class="st3" d="M78.9,93.6c3.7,3.3,7.7,5.6,12.9,6.1C85,101.3,80.3,97.8,78.9,93.6z"/>
	<path class="st3" d="M31.2,77.6c0.7,0.2,1.2,0.7,1.9,1.1c3.5,2,7.1,3.3,11.4,3.1c-1.1,0.5-2,0.7-3,0.8c-2.6,0.3-5.1,0-7.3-1.5
		C33,80.2,31.9,79.1,31.2,77.6L31.2,77.6z"/>
	<path class="st3" d="M71,93.7c2.5,3.8,5.5,6.7,9.7,8.2C75.5,101.9,71.5,98.4,71,93.7z"/>
	<path class="st3" d="M69.6,100.4c-2-0.6-3.5-1.9-4.6-3.6c-1.2-1.8-1.4-3.8-1.2-5.9c0-0.1,0.1-0.2,0.2-0.4c0.6,2.7,1.7,5.1,3.2,7.3
		C67.9,98.7,68.8,99.5,69.6,100.4L69.6,100.4z"/>
	<path class="st0" d="M113.7,66.1c0.1-0.1,0.2-0.3,0.3-0.2c0.2,0.1-0.1,0.2-0.1,0.3C113.8,66.1,113.7,66.1,113.7,66.1z"/>
	<path class="st0" d="M46.2,19.7c0-0.1,0-0.1,0-0.2c0,0,0-0.1,0-0.1C46.3,19.5,46.4,19.6,46.2,19.7C46.2,19.7,46.2,19.7,46.2,19.7z"
		/>
	<path class="st3" d="M101.9,94.1C101.9,94.1,101.8,94.1,101.9,94.1C101.8,94.1,101.8,94.1,101.9,94.1
		C101.8,94.1,101.8,94.1,101.9,94.1C101.9,94.1,101.9,94.1,101.9,94.1z"/>
	<path class="st0" d="M82.4,99.9C82.4,99.9,82.4,100,82.4,99.9c-0.1,0-0.1,0-0.2,0c0,0,0-0.1,0-0.1C82.3,99.9,82.4,99.9,82.4,99.9z"
		/>
	<path class="st3" d="M69.6,100.4c0.1,0,0.1,0,0.2,0.1c0,0,0,0.1,0,0.1C69.7,100.5,69.6,100.5,69.6,100.4
		C69.6,100.4,69.6,100.4,69.6,100.4z"/>
	<path class="st3" d="M72.6,12.6c-0.1,0.1-0.1,0.2-0.2,0.3c0,0,0,0,0,0C72.3,12.7,72.4,12.6,72.6,12.6
		C72.5,12.5,72.5,12.6,72.6,12.6z"/>
	<path class="st0" d="M107.2,84.4C107.2,84.4,107.2,84.3,107.2,84.4C107.3,84.4,107.3,84.4,107.2,84.4
		C107.2,84.4,107.2,84.4,107.2,84.4C107.2,84.4,107.2,84.4,107.2,84.4z"/>
	<path class="st0" d="M81.2,10.5c0.1-0.1,0.2-0.1,0.2-0.1C81.5,10.5,81.3,10.5,81.2,10.5C81.2,10.5,81.2,10.5,81.2,10.5z"/>
	<path class="st3" d="M31.2,77.6c0-0.1-0.1-0.1-0.1-0.2c0,0,0,0,0.1,0C31.2,77.5,31.2,77.5,31.2,77.6C31.2,77.6,31.2,77.6,31.2,77.6
		z"/>
	<path class="st3" d="M118,65c0-0.1,0-0.1,0-0.2c0,0,0.1,0,0.1,0C118.1,64.9,118,64.9,118,65C118,65,118,65,118,65z"/>
	<path class="st3" d="M35.7,64.6C35.7,64.6,35.7,64.6,35.7,64.6C35.8,64.6,35.8,64.6,35.7,64.6C35.7,64.7,35.7,64.7,35.7,64.6
		C35.7,64.6,35.7,64.6,35.7,64.6z"/>
	<path class="st3" d="M35.9,18.9c0-0.1,0-0.1,0-0.2C36,18.9,35.9,18.9,35.9,18.9C35.9,18.9,35.9,18.9,35.9,18.9z"/>
	<path class="st3" d="M48.7,8C48.7,8,48.7,8,48.7,8C48.7,8,48.7,8,48.7,8C48.7,8,48.7,8,48.7,8C48.7,8,48.7,8,48.7,8z"/>
	<path class="st0" d="M72.8,99.6C72.8,99.6,72.8,99.6,72.8,99.6C72.8,99.7,72.8,99.6,72.8,99.6C72.8,99.5,72.8,99.6,72.8,99.6z"/>
	<path class="st0" d="M72.6,99.4c0,0,0.1,0.1,0.1,0.1c0,0,0,0,0,0C72.7,99.6,72.6,99.5,72.6,99.4L72.6,99.4z"/>
	<path class="st0" d="M72.6,99.4c-0.1,0.1-0.2,0-0.2,0c0,0,0.1-0.1,0.1-0.1C72.6,99.3,72.6,99.4,72.6,99.4L72.6,99.4z"/>
	<path class="st0" d="M57,13.3C57,13.3,57.1,13.3,57,13.3C57.1,13.4,57,13.4,57,13.3C57,13.4,57,13.4,57,13.3
		C57,13.3,57,13.3,57,13.3z"/>
	<path class="st3" d="M33.3,51.9C33.3,51.9,33.3,51.9,33.3,51.9C33.3,52.1,33.3,52,33.3,51.9C33.2,51.9,33.3,51.9,33.3,51.9z"/>
	<path class="st0" d="M27.7,64.1C27.7,64.1,27.6,64,27.7,64.1C27.7,64,27.7,64,27.7,64.1C27.8,64.1,27.7,64.1,27.7,64.1z"/>
	<polygon class="st0" points="114.1,65.7 114.1,65.6 114.1,65.7 	"/>
	<path class="st0" d="M31.8,75.5C31.8,75.5,31.8,75.5,31.8,75.5C31.7,75.5,31.7,75.5,31.8,75.5C31.7,75.5,31.7,75.5,31.8,75.5
		C31.7,75.5,31.8,75.5,31.8,75.5z"/>
	<path class="st0" d="M111.5,75.7c0.1,0,0.2-0.1,0.2,0C111.7,75.7,111.7,75.7,111.5,75.7C111.6,75.7,111.6,75.7,111.5,75.7z"/>
	<path class="st3" d="M72.4,12.8C72.3,12.9,72.3,12.9,72.4,12.8C72.2,12.9,72.3,12.8,72.4,12.8C72.3,12.8,72.4,12.8,72.4,12.8z"/>
	<path class="st3" d="M86.9,92.3C86.8,92.3,86.8,92.2,86.9,92.3C86.8,92.2,86.9,92.2,86.9,92.3C86.9,92.3,86.9,92.3,86.9,92.3z"/>
	<path class="st3" d="M58.9,96.9c0,0,0.1,0.1,0,0.1C58.9,97,58.8,97,58.9,96.9C58.8,96.9,58.8,96.9,58.9,96.9z"/>
	<path class="st0" d="M64,97c0,0.1,0.1,0.2,0,0.2C63.9,97.2,63.9,97.2,64,97C63.9,97.1,63.9,97.1,64,97z"/>
	<polygon class="st0" points="64.2,97.4 64.1,97.5 64.1,97.4 	"/>
	<path class="st4" d="M53.7,45.2c0,0,0.1,0,0.1,0C53.8,45.3,53.8,45.3,53.7,45.2C53.8,45.3,53.8,45.3,53.7,45.2
		C53.7,45.2,53.7,45.2,53.7,45.2z"/>
	<path class="st4" d="M51.2,51.1C51.2,51.1,51.2,51.1,51.2,51.1C51.2,51.1,51.2,51.1,51.2,51.1C51.2,51.1,51.2,51.1,51.2,51.1
		C51.2,51.1,51.2,51.1,51.2,51.1z"/>
	<path class="st5" d="M82.3,81.2c0-0.1-0.1-0.1,0-0.2C82.3,81,82.4,81,82.3,81.2C82.4,81.1,82.3,81.1,82.3,81.2z"/>
</g>
</svg>
