<?xml version="1.0" encoding="utf-8"?>
<!-- Generator: Adobe Illustrator 22.0.1, SVG Export Plug-In . SVG Version: 6.00 Build 0)  -->
<svg version="1.1" id="Layer_1" xmlns="http://www.w3.org/2000/svg" xmlns:xlink="http://www.w3.org/1999/xlink" x="0px" y="0px"
	 viewBox="0 0 421.5 455.9" style="enable-background:new 0 0 421.5 455.9;" xml:space="preserve">
<style type="text/css">
	.st0{fill:#121212;}
</style>
<path id="XMLID_18_" class="st0" d="M45.1,3.8c0,0-144,314.4,126.6,377.7c0,0,38.6,46.4,72,66.8l1.3-6.5c0,2.2,0,4.3,0.4,6.5l13-3.9
	c0,0,0-143.1,95.8-237.2c0,0-65.5,88-74.6,177.8c0,0,72-8.7,90.2-67.7c16.9-55.1,3-131,48.6-170c0,0-239.4,50.3-162.2,231.6
	c0,0-9.5,27.8-11.3,53.8c-16-12.6-161.8-128.8-187.3-306.2c0,0,46,147.9,140.1,233.7c0,0,58.1-95.4-0.9-159.2
	C138.7,137.3,51.6,88.3,45.1,3.8"/>
</svg>
