<?xml version="1.0" encoding="utf-8"?>
<!-- Generator: Adobe Illustrator 21.1.0, SVG Export Plug-In . SVG Version: 6.00 Build 0)  -->
<svg version="1.1" id="Layer_1" xmlns="http://www.w3.org/2000/svg" xmlns:xlink="http://www.w3.org/1999/xlink" x="0px" y="0px"
	 viewBox="0 0 1280 1024" style="enable-background:new 0 0 1280 1024;" xml:space="preserve">
<style type="text/css">
	.st0{fill:#FFFFFF;}
</style>
<g id="XMLID_38_">
	<g>
		<path class="st0" d="M250.8,856.3v-73.7h10.7l16.2,38.6v-38.6h12.4v73.7h-10.3l-16.1-40.9v40.9H250.8z"/>
		<path class="st0" d="M303.2,856.3l15.9-73.7h13.2l15.9,73.7h-14.7l-3-15.8h-9.6l-2.9,15.8H303.2z M321.9,831.3h7.6l-3.7-27.3
			L321.9,831.3z"/>
		<path class="st0" d="M366.3,856.3v-62.5h-10.8v-11.1h36.3v11.1h-10.6v62.5H366.3z"/>
		<path class="st0" d="M404.8,828.9v-46.3h14.9v45.8c0,2.6,0,4.5,0,5.7c0,1.2,0.1,2.6,0.2,4.3c0.1,1.7,0.3,2.9,0.6,3.6
			c0.3,0.7,0.6,1.4,1.1,2.2c0.5,0.8,1.1,1.3,1.9,1.6c0.8,0.2,1.7,0.4,2.8,0.4c1.1,0,2-0.1,2.8-0.4c0.8-0.2,1.4-0.8,1.9-1.5
			c0.5-0.8,0.9-1.5,1.1-2.2c0.3-0.7,0.5-1.9,0.6-3.5c0.1-1.7,0.2-3.1,0.2-4.3c0-1.2,0-3,0-5.6c0-0.1,0-0.2,0-0.2v-45.8h14.9v46.3
			c0,2.3-0.1,4.5-0.2,6.4c-0.1,1.9-0.4,3.9-0.8,5.9c-0.4,2-0.9,3.9-1.6,5.4c-0.7,1.6-1.5,3.1-2.6,4.5c-1.1,1.4-2.4,2.6-3.9,3.5
			c-1.5,0.9-3.3,1.7-5.4,2.2c-2.1,0.5-4.5,0.8-7.1,0.8s-5-0.3-7.1-0.8c-2.1-0.5-3.9-1.3-5.4-2.2c-1.5-0.9-2.8-2.1-3.8-3.5
			c-1.1-1.4-2-2.9-2.6-4.5c-0.7-1.6-1.2-3.4-1.6-5.4c-0.4-2-0.7-4-0.8-5.9C404.8,833.3,404.8,831.2,404.8,828.9z"/>
		<path class="st0" d="M464.6,856.3v-73.7h16.2c3.7,0,6.9,0.3,9.7,1c2.8,0.7,5.2,1.8,7.3,3.3c2.1,1.5,3.7,3.5,4.8,6
			c1.1,2.5,1.6,5.5,1.6,9.1c0,1.5-0.1,2.9-0.2,4.1c-0.1,1.2-0.4,2.6-0.8,4.1c-0.4,1.5-0.9,2.9-1.6,4.1c-0.7,1.2-1.7,2.4-2.9,3.5
			c-1.3,1.1-2.8,2.1-4.5,2.9c4.4,14,8.3,25.9,11.5,35.6h-15.4l-8.4-33.9h-2.5v33.9H464.6z M479.5,813.2h4.3c1.1,0,2.1-0.4,2.9-1.1
			c0.8-0.8,1.4-1.7,1.8-2.9c0.4-1.2,0.6-2.3,0.8-3.2c0.1-1,0.2-1.9,0.2-2.8c0-0.9-0.1-1.8-0.2-2.7c-0.1-0.9-0.3-2-0.7-3.1
			c-0.3-1.1-0.8-2.1-1.6-2.8c-0.7-0.7-1.6-1.1-2.6-1.1h-5V813.2z"/>
		<path class="st0" d="M514.9,856.3l15.9-73.7H544l15.9,73.7h-14.7l-3-15.8h-9.6l-2.9,15.8H514.9z M533.5,831.3h7.6l-3.7-27.3
			L533.5,831.3z"/>
		<path class="st0" d="M573,856.3v-73.7h14.9V846h14.7v10.2H573z"/>
		<path class="st0" d="M638.3,835.2l15.1-2.9c0,1.5,0,2.8,0.1,4c0.1,1.1,0.2,2.4,0.4,3.7c0.2,1.4,0.5,2.5,0.9,3.3
			c0.4,0.9,1,1.6,1.7,2.2c0.7,0.6,1.6,0.9,2.6,0.9c2.9,0,4.4-1.9,4.4-5.7c0-5.2-2.9-10.3-8.7-15.4l-4.6-3.9
			c-1.5-1.2-2.6-2.3-3.5-3.1c-0.9-0.8-1.9-1.9-3.1-3.3c-1.2-1.4-2.1-2.7-2.8-4c-0.7-1.3-1.2-2.9-1.7-4.7c-0.5-1.8-0.7-3.8-0.7-5.8
			c0-6,1.9-10.7,5.7-14.2c3.8-3.5,8.8-5.2,15.1-5.2c5.2,0,9.6,1.9,13.3,5.6c3.7,3.7,5.5,8.2,5.5,13.4l0,0.5c0,0.4,0,0.8,0,1.2
			l-15.4,2.1c0-0.3,0-0.8,0.1-1.4c0-0.6,0.1-1.2,0.1-1.6c0-1-0.1-1.9-0.2-2.8c-0.1-0.9-0.4-1.8-0.7-2.7c-0.3-0.9-0.8-1.6-1.5-2.1
			c-0.7-0.5-1.4-0.8-2.4-0.8c-1.6,0-2.9,0.6-3.7,1.9c-0.8,1.3-1.2,2.8-1.2,4.5c0,1.5,0.2,3,0.7,4.3c0.5,1.3,1.2,2.6,2.2,3.7
			c1,1.2,1.9,2.1,2.7,2.9c0.8,0.8,1.9,1.7,3.3,2.8c1.4,1.1,2.3,1.9,2.9,2.4c2.1,1.9,3.9,3.6,5.3,5.2c1.4,1.6,2.8,3.5,4.1,5.5
			c1.3,2,2.2,4.3,2.9,6.6c0.6,2.4,1,4.9,1,7.7c0,5.2-1.8,9.4-5.5,12.7c-3.7,3.3-8.2,4.9-13.4,4.9c-3.4,0-6.4-0.6-9.1-1.9
			c-2.6-1.3-4.8-3-6.4-5.1c-1.6-2.2-2.9-4.5-3.7-7.2C638.9,841,638.4,838.2,638.3,835.2z"/>
		<path class="st0" d="M699.3,856.3v-62.5h-10.8v-11.1h36.3v11.1h-10.6v62.5H699.3z"/>
		<path class="st0" d="M737.8,828.9v-46.3h14.9v45.8c0,2.6,0,4.5,0,5.7c0,1.2,0.1,2.6,0.2,4.3c0.1,1.7,0.3,2.9,0.6,3.6
			c0.3,0.7,0.6,1.4,1.1,2.2c0.5,0.8,1.1,1.3,1.9,1.6c0.8,0.2,1.7,0.4,2.8,0.4s2-0.1,2.8-0.4c0.8-0.2,1.4-0.8,1.9-1.5
			c0.5-0.8,0.9-1.5,1.1-2.2c0.3-0.7,0.5-1.9,0.6-3.5c0.1-1.7,0.2-3.1,0.2-4.3c0-1.2,0-3,0-5.6c0-0.1,0-0.2,0-0.2v-45.8h14.9v46.3
			c0,2.3-0.1,4.5-0.2,6.4c-0.1,1.9-0.4,3.9-0.8,5.9c-0.4,2-0.9,3.9-1.6,5.4c-0.7,1.6-1.5,3.1-2.6,4.5c-1.1,1.4-2.4,2.6-3.9,3.5
			c-1.5,0.9-3.3,1.7-5.4,2.2c-2.1,0.5-4.5,0.8-7.1,0.8c-2.6,0-5-0.3-7.1-0.8c-2.1-0.5-3.9-1.3-5.4-2.2c-1.5-0.9-2.8-2.1-3.8-3.5
			s-2-2.9-2.6-4.5c-0.7-1.6-1.2-3.4-1.6-5.4c-0.4-2-0.7-4-0.8-5.9C737.9,833.3,737.8,831.2,737.8,828.9z"/>
		<path class="st0" d="M797.6,856.3v-73.7h30.7v10.2h-15.8v20.1h11.2v10.5h-11.2v32.9H797.6z"/>
		<path class="st0" d="M841,856.3v-73.7h30.7v10.2h-15.8v20.1h11.2v10.5h-11.2v32.9H841z"/>
		<path class="st0" d="M909.6,856.3v-73.7h14.9v73.7H909.6z"/>
		<path class="st0" d="M941.7,856.3v-73.7h10.7l16.2,38.6v-38.6h12.4v73.7h-10.3l-16.1-40.9v40.9H941.7z"/>
		<path class="st0" d="M997.1,831.7v-24.4c0-17.4,7.1-26.1,21.4-26.1c3,0,5.7,0.4,8,1.2s4.3,1.9,5.9,3.3c1.6,1.4,2.9,3.2,3.9,5.2
			c1,2.1,1.8,4.3,2.2,6.8c0.4,2.4,0.7,5.1,0.7,8v6.3h-14.7v-6.8c0-1.3,0-2.5-0.1-3.5c-0.1-1-0.2-2.1-0.4-3.3c-0.2-1.2-0.5-2.3-0.9-3
			c-0.4-0.8-1-1.4-1.8-2c-0.8-0.5-1.7-0.8-2.8-0.8c-4.3,0-6.5,3.6-6.5,10.9v31.8c0,7.2,2.2,10.8,6.5,10.8c1.3,0,2.4-0.4,3.2-1.1
			c0.9-0.7,1.5-1.8,1.9-3.1c0.4-1.4,0.6-2.7,0.8-4s0.2-2.8,0.2-4.4V826h14.6v6.2c-0.1,2.8-0.3,5.4-0.7,7.8c-0.4,2.4-1.1,4.7-2.1,6.9
			c-1,2.2-2.2,4.1-3.7,5.7c-1.5,1.5-3.5,2.8-5.9,3.7c-2.4,0.9-5.2,1.4-8.3,1.4c-3.2,0-6-0.5-8.5-1.4c-2.5-0.9-4.5-2.1-6.1-3.7
			c-1.6-1.5-2.9-3.4-4-5.7c-1-2.3-1.8-4.6-2.2-7.1C997.3,837.4,997.1,834.6,997.1,831.7z"/>
	</g>
	<rect id="XMLID_74_" x="249.1" y="739.3" class="st0" width="788.3" height="14.9"/>
	<rect id="XMLID_73_" x="249.1" y="886.3" class="st0" width="788.3" height="14.9"/>
	<path id="XMLID_19_" class="st0" d="M672,561.6c0,0-13.4,39.6-16,76C633.2,620.2,426.5,455,390.7,203.4c0,0,65.1,210,198.7,331.5
		c0,0,82.4-135-1.2-225.7c-83.6-90.7-207.1-160.3-216.3-280c0,0-204,445.8,179.6,535.7c0,0,54.6,65.9,102.1,94.7l2-9
		c0,3.3,0.2,6.5,0.5,9.6l18.5-5.6c0,0,0-203.1,136.1-336.6c0,0-92.7,124.9-105.9,252.2c0,0,102.3-12.2,128.2-95.7
		c24.2-77.9,4.5-185.6,69-241.1C901.9,233.3,562.2,304.9,672,561.6z"/>
</g>
<g>
	<path class="st0" d="M62.4,989.8h-7.1l-7-16.5H20.1l-7,16.5H6l24.2-56.9h8.1L62.4,989.8z M45.8,967.4l-11.6-27.8l-11.6,27.8H45.8z"
		/>
	<path class="st0" d="M111.8,958.4c-0.6-4.5-4.2-6.7-10.8-6.7c-6.6,0-9.9,2.1-9.9,6.2c0,1.7,0.7,3,2.1,3.9c1.4,0.9,3.2,1.6,5.3,2.2
		c2.1,0.6,4.4,1.1,6.9,1.6c2.5,0.5,4.8,1.2,6.9,2.1c2.1,0.9,3.9,2.1,5.3,3.7s2.1,3.7,2.1,6.4c0,4.2-1.6,7.4-4.7,9.6
		c-3.2,2.2-7.4,3.3-12.8,3.3c-5.7,0-10.3-1.4-13.7-4.3c-3.1-2.5-4.8-5.8-5-9.9h6.7c0.4,4,2.6,6.6,6.7,8c1.5,0.5,3,0.7,4.4,0.7
		c1.5,0,2.8-0.1,4.1-0.3c1.3-0.2,2.5-0.5,3.7-0.9c2.8-1.1,4.1-3,4.1-5.6c0-1.8-0.7-3.1-2.1-4.1c-1.4-0.9-3.2-1.7-5.3-2.3
		c-2.1-0.6-4.4-1.1-6.9-1.6c-2.5-0.5-4.8-1.2-6.9-2c-2.1-0.9-3.9-2-5.3-3.5c-1.4-1.5-2.1-3.6-2.1-6.2c0-3.9,1.4-6.9,4.3-9.1
		c2.8-2.2,7-3.2,12.6-3.2c5.3,0,9.4,1.3,12.5,3.8c2.5,2.1,4,4.9,4.4,8.4H111.8z"/>
	<path class="st0" d="M161.5,983c-3.4,5-8.6,7.6-15.4,7.6c-6.2,0-11.2-2.1-15.1-6.4c-3.8-4.2-5.7-9.5-5.7-15.7
		c0-6.2,1.9-11.5,5.7-15.7c3.9-4.3,9.1-6.4,15.6-6.4c6.5,0,11.5,2.6,15,7.7v-7h6.4v43h-6.4V983z M147,984.7c4.6,0,8.3-1.6,11-4.8
		c2.6-3,3.9-6.9,3.9-11.5s-1.3-8.5-3.9-11.5c-2.7-3.2-6.4-4.8-11-4.8c-4.6,0-8.3,1.6-11.2,4.8c-2.7,3-4,6.9-4,11.5s1.3,8.5,4,11.5
		C138.7,983.1,142.4,984.7,147,984.7z"/>
	<path class="st0" d="M185.6,989.8h-6.4v-60.2h6.4V989.8z"/>
	<path class="st0" d="M215.9,984.7c5.8,0,9.9-2.4,12.5-7.2h7.1c-1.5,3.9-3.9,7.1-7.1,9.5c-3.2,2.4-7.4,3.6-12.5,3.6
		c-6.5,0-11.8-2.1-15.8-6.4c-4-4.2-5.9-9.4-5.9-15.7c0-6.4,1.9-11.6,5.7-15.7c4-4.3,9.2-6.4,15.6-6.4c6.4,0,11.6,2.1,15.6,6.4
		c3.8,4.1,5.7,9.4,5.7,15.7v2.6h-36c0.5,4,2,7.2,4.7,9.8C208.2,983.4,211.7,984.7,215.9,984.7z M215.4,952c-4,0-7.3,1.2-10,3.7
		c-2.5,2.4-4.1,5.4-4.6,9.2H230c-0.6-3.8-2.1-6.8-4.6-9.2C222.7,953.3,219.4,952,215.4,952z"/>
	<path class="st0" d="M269.9,958.4c-0.6-4.5-4.2-6.7-10.8-6.7c-6.6,0-9.9,2.1-9.9,6.2c0,1.7,0.7,3,2.1,3.9c1.4,0.9,3.2,1.6,5.3,2.2
		c2.1,0.6,4.4,1.1,6.9,1.6c2.5,0.5,4.8,1.2,6.9,2.1c2.1,0.9,3.9,2.1,5.3,3.7s2.1,3.7,2.1,6.4c0,4.2-1.6,7.4-4.7,9.6
		c-3.2,2.2-7.4,3.3-12.8,3.3c-5.7,0-10.3-1.4-13.7-4.3c-3.1-2.5-4.8-5.8-5-9.9h6.7c0.4,4,2.6,6.6,6.7,8c1.5,0.5,3,0.7,4.4,0.7
		s2.8-0.1,4.1-0.3c1.3-0.2,2.5-0.5,3.7-0.9c2.8-1.1,4.1-3,4.1-5.6c0-1.8-0.7-3.1-2.1-4.1c-1.4-0.9-3.2-1.7-5.3-2.3
		c-2.1-0.6-4.4-1.1-6.9-1.6c-2.5-0.5-4.8-1.2-6.9-2c-2.1-0.9-3.9-2-5.3-3.5c-1.4-1.5-2.1-3.6-2.1-6.2c0-3.9,1.4-6.9,4.3-9.1
		c2.8-2.2,7-3.2,12.6-3.2c5.3,0,9.4,1.3,12.5,3.8c2.5,2.1,4,4.9,4.4,8.4H269.9z"/>
	<path class="st0" d="M337.9,983c-3.4,5-8.6,7.6-15.4,7.6c-6.2,0-11.2-2.1-15.1-6.4c-3.8-4.2-5.7-9.5-5.7-15.7
		c0-6.2,1.9-11.5,5.7-15.7c3.9-4.3,9.1-6.4,15.6-6.4c6.5,0,11.5,2.6,15,7.7v-7h6.4v43h-6.4V983z M323.4,984.7c4.6,0,8.3-1.6,11-4.8
		c2.6-3,3.9-6.9,3.9-11.5s-1.3-8.5-3.9-11.5c-2.7-3.2-6.4-4.8-11-4.8c-4.6,0-8.3,1.6-11.2,4.8c-2.7,3-4,6.9-4,11.5s1.3,8.5,4,11.5
		C315.1,983.1,318.8,984.7,323.4,984.7z"/>
	<path class="st0" d="M362,946.9v6.7c1.5-2.1,3.4-3.8,5.7-5.2c2.2-1.4,4.8-2.1,7.7-2.1c2.9,0,5.3,0.4,7.4,1.2c2.1,0.8,3.9,2,5.4,3.6
		c3.6,3.5,5.3,8.1,5.3,13.8v25H387V965c0-4-1.1-7.1-3.4-9.5c-2.2-2.4-5.1-3.5-8.7-3.5c-3.6,0-6.7,1.2-9.2,3.6
		c-2.5,2.5-3.8,5.6-3.8,9.5v24.8h-6.4v-43H362z"/>
	<path class="st0" d="M437.7,983c-3.4,5-8.6,7.6-15.4,7.6c-6.2,0-11.2-2.1-15.1-6.4c-3.8-4.2-5.7-9.5-5.7-15.7
		c0-6.2,1.9-11.5,5.7-15.7c3.9-4.3,9.1-6.4,15.6-6.4c6.5,0,11.5,2.6,15,7.7v-24.2h6.4v60.2h-6.4V983z M423.2,984.7
		c4.6,0,8.3-1.6,11-4.8c2.6-3,3.9-6.9,3.9-11.5s-1.3-8.5-3.9-11.5c-2.7-3.2-6.4-4.8-11-4.8c-4.6,0-8.3,1.6-11.2,4.8
		c-2.7,3-4,6.9-4,11.5s1.3,8.5,4,11.5C414.9,983.1,418.6,984.7,423.2,984.7z"/>
	<path class="st0" d="M507.2,983c-3.4,5-8.6,7.6-15.4,7.6c-6.2,0-11.2-2.1-15.1-6.4c-3.8-4.2-5.7-9.5-5.7-15.7
		c0-6.2,1.9-11.5,5.7-15.7c3.9-4.3,9.1-6.4,15.6-6.4c6.5,0,11.5,2.6,15,7.7v-24.2h6.4v60.2h-6.4V983z M492.7,984.7
		c4.6,0,8.3-1.6,11-4.8c2.6-3,3.9-6.9,3.9-11.5s-1.3-8.5-3.9-11.5c-2.7-3.2-6.4-4.8-11-4.8c-4.6,0-8.3,1.6-11.2,4.8
		c-2.7,3-4,6.9-4,11.5s1.3,8.5,4,11.5C484.4,983.1,488.1,984.7,492.7,984.7z"/>
	<path class="st0" d="M531.5,931.2v8.4h-7v-8.4H531.5z M524.8,946.9h6.4v43h-6.4V946.9z"/>
	<path class="st0" d="M567.7,958.4c-0.6-4.5-4.2-6.7-10.8-6.7c-6.6,0-9.9,2.1-9.9,6.2c0,1.7,0.7,3,2.1,3.9c1.4,0.9,3.2,1.6,5.3,2.2
		c2.1,0.6,4.4,1.1,6.9,1.6c2.5,0.5,4.8,1.2,6.9,2.1c2.1,0.9,3.9,2.1,5.3,3.7c1.4,1.5,2.1,3.7,2.1,6.4c0,4.2-1.6,7.4-4.7,9.6
		c-3.2,2.2-7.4,3.3-12.8,3.3c-5.7,0-10.3-1.4-13.7-4.3c-3.1-2.5-4.8-5.8-5-9.9h6.7c0.4,4,2.6,6.6,6.7,8c1.5,0.5,3,0.7,4.4,0.7
		c1.5,0,2.8-0.1,4.1-0.3c1.3-0.2,2.5-0.5,3.7-0.9c2.8-1.1,4.1-3,4.1-5.6c0-1.8-0.7-3.1-2.1-4.1c-1.4-0.9-3.2-1.7-5.3-2.3
		c-2.1-0.6-4.4-1.1-6.9-1.6c-2.5-0.5-4.8-1.2-6.9-2c-2.1-0.9-3.9-2-5.3-3.5c-1.4-1.5-2.1-3.6-2.1-6.2c0-3.9,1.4-6.9,4.3-9.1
		c2.8-2.2,7-3.2,12.6-3.2c5.3,0,9.4,1.3,12.5,3.8c2.5,2.1,4,4.9,4.4,8.4H567.7z"/>
	<path class="st0" d="M588.5,989.8v-37.3h-8.8v-5.7h8.8v-15.4h6.4v15.4h9.9v5.7H595v37.3H588.5z"/>
	<path class="st0" d="M634.6,946.2v6.4h-0.8c-4.6,0-8.4,1.9-11.3,5.6c-2.8,3.6-4.1,7.8-4.1,12.7v18.9h-6.4v-43h6.4v10.6
		c1.4-4.5,4.4-7.8,8.9-9.9c1.9-0.9,4.2-1.4,6.9-1.4H634.6z"/>
	<path class="st0" d="M648.3,931.2v8.4h-7v-8.4H648.3z M641.6,946.9h6.4v43h-6.4V946.9z"/>
	<path class="st0" d="M665.7,953.8c3.5-5.1,8.6-7.7,15.4-7.7c6.2,0,11.2,2.1,15,6.4c3.8,4.2,5.8,9.5,5.8,15.7
		c0,6.2-1.9,11.5-5.8,15.7c-3.8,4.3-9,6.4-15.5,6.4c-6.5,0-11.5-2.5-14.9-7.6v6.9h-6.4v-60.2h6.4V953.8z M680.2,984.7
		c4.6,0,8.3-1.6,11.2-4.8c2.7-3,4-6.9,4-11.5s-1.3-8.5-4-11.5c-2.9-3.2-6.6-4.8-11.2-4.8c-4.6,0-8.3,1.6-11,4.8
		c-2.6,3-3.9,6.9-3.9,11.5s1.3,8.5,3.9,11.5C671.9,983.1,675.5,984.7,680.2,984.7z"/>
	<path class="st0" d="M741.3,989.8v-6.7c-1.5,2.1-3.4,3.8-5.7,5.2c-2.2,1.4-4.8,2.1-7.7,2.1c-2.9,0-5.3-0.4-7.4-1.2
		c-2.1-0.8-3.9-2-5.4-3.6c-3.6-3.5-5.3-8.1-5.3-13.8v-25h6.4v24.8c0,4,1.1,7.1,3.4,9.5c2.2,2.4,5.1,3.5,8.7,3.5
		c3.6,0,6.7-1.2,9.2-3.6c2.5-2.5,3.8-5.6,3.8-9.5v-24.8h6.4v43H741.3z"/>
	<path class="st0" d="M763.6,989.8v-37.3h-8.8v-5.7h8.8v-15.4h6.4v15.4h9.9v5.7H770v37.3H763.6z"/>
	<path class="st0" d="M793.7,931.2v8.4h-7v-8.4H793.7z M787,946.9h6.4v43H787V946.9z"/>
	<path class="st0" d="M823.2,946.2c6.4,0,11.6,2.1,15.6,6.4c3.8,4.1,5.7,9.4,5.7,15.7c0,6.4-1.9,11.6-5.7,15.7
		c-4,4.3-9.2,6.4-15.6,6.4c-6.4,0-11.6-2.1-15.6-6.4c-3.8-4.1-5.7-9.4-5.7-15.7c0-6.4,1.9-11.6,5.7-15.7
		C811.6,948.3,816.8,946.2,823.2,946.2z M823.2,984.7c4.6,0,8.3-1.6,11-4.8c2.6-3,3.9-6.9,3.9-11.5s-1.3-8.5-3.9-11.5
		c-2.7-3.2-6.4-4.8-11-4.8c-4.6,0-8.3,1.6-11,4.8c-2.6,3-3.9,6.9-3.9,11.5s1.3,8.5,3.9,11.5C814.9,983.1,818.6,984.7,823.2,984.7z"
		/>
	<path class="st0" d="M859.5,946.9v6.7c1.5-2.1,3.4-3.8,5.7-5.2c2.2-1.4,4.8-2.1,7.7-2.1c2.9,0,5.3,0.4,7.4,1.2
		c2.1,0.8,3.9,2,5.4,3.6c3.6,3.5,5.3,8.1,5.3,13.8v25h-6.4V965c0-4-1.1-7.1-3.4-9.5c-2.2-2.4-5.1-3.5-8.7-3.5
		c-3.6,0-6.7,1.2-9.2,3.6c-2.5,2.5-3.8,5.6-3.8,9.5v24.8h-6.4v-43H859.5z"/>
	<path class="st0" d="M939.9,984.7c2.8,0,5.2-0.8,7.3-2.3c2.1-1.5,3.7-3.6,4.6-6h7c-1.3,4.2-3.7,7.7-7.2,10.2c-3.7,2.6-8,4-13.1,4
		c-6.3,0-11.4-2.1-15.4-6.4c-3.8-4.2-5.8-9.4-5.8-15.7c0-6.3,1.9-11.5,5.8-15.7c4-4.3,9.1-6.4,15.4-6.4c5,0,9.4,1.3,13.1,4
		c3.5,2.6,5.9,6,7.2,10.2h-7c-1-2.5-2.5-4.5-4.6-6c-2.1-1.5-4.6-2.3-7.3-2.3c-2.8,0-5.1,0.4-7,1.3c-1.9,0.9-3.5,2-4.9,3.5
		c-2.8,3.1-4.2,6.9-4.2,11.5c0,4.6,1.4,8.4,4.2,11.5C930.9,983.1,934.9,984.7,939.9,984.7z"/>
	<path class="st0" d="M985.5,946.2c6.4,0,11.6,2.1,15.6,6.4c3.8,4.1,5.7,9.4,5.7,15.7c0,6.4-1.9,11.6-5.7,15.7
		c-4,4.3-9.2,6.4-15.6,6.4c-6.4,0-11.6-2.1-15.6-6.4c-3.8-4.1-5.7-9.4-5.7-15.7c0-6.4,1.9-11.6,5.7-15.7
		C973.8,948.3,979,946.2,985.5,946.2z M985.5,984.7c4.6,0,8.3-1.6,11-4.8c2.6-3,3.9-6.9,3.9-11.5s-1.3-8.5-3.9-11.5
		c-2.7-3.2-6.4-4.8-11-4.8c-4.6,0-8.3,1.6-11,4.8c-2.6,3-3.9,6.9-3.9,11.5s1.3,8.5,3.9,11.5C977.2,983.1,980.8,984.7,985.5,984.7z"
		/>
	<path class="st0" d="M1021.7,953.4c2.9-4.8,7.2-7.2,13.1-7.2c2.9,0,5.5,0.8,8,2.3c2.4,1.5,4.3,3.7,5.7,6.4c1.9-3.6,5-6.2,9.1-7.7
		c1.7-0.6,3.5-0.9,5.6-0.9c2.1,0,4.1,0.4,6,1.2c1.9,0.8,3.6,2,5.1,3.6c3.2,3.4,4.8,7.7,4.8,12.9v26h-6.4v-25.8c0-3.6-1-6.5-3-8.8
		c-2-2.2-4.6-3.3-7.7-3.3c-3.3,0-6,1.1-8.2,3.2c-2.3,2.2-3.4,5.2-3.4,8.9v25.7h-6.4v-25.8c0-3.6-1-6.5-3-8.8c-2-2.2-4.6-3.3-7.7-3.3
		c-3.3,0-6,1.1-8.2,3.2c-2.3,2.2-3.4,5.2-3.4,8.9v25.7h-6.4v-43h6.4V953.4z"/>
	<path class="st0" d="M1096.4,953.7c3.4-5,8.6-7.6,15.4-7.6c6.2,0,11.2,2.1,15,6.4c3.8,4.2,5.8,9.5,5.8,15.7
		c0,6.2-1.9,11.5-5.8,15.7c-3.8,4.3-9,6.4-15.5,6.4c-6.5,0-11.5-2.6-15-7.7v24h-6.4v-60h6.4V953.7z M1110.9,952
		c-4.6,0-8.3,1.6-11,4.8c-2.6,3-3.9,6.9-3.9,11.5s1.3,8.5,3.9,11.5c2.7,3.2,6.4,4.8,11,4.8c4.6,0,8.3-1.6,11.2-4.8
		c2.7-3,4-6.9,4-11.5s-1.3-8.5-4-11.5C1119.2,953.6,1115.5,952,1110.9,952z"/>
	<path class="st0" d="M1174.5,983c-3.4,5-8.6,7.6-15.4,7.6c-6.2,0-11.2-2.1-15.1-6.4c-3.8-4.2-5.7-9.5-5.7-15.7
		c0-6.2,1.9-11.5,5.7-15.7c3.9-4.3,9.1-6.4,15.6-6.4c6.5,0,11.5,2.6,15,7.7v-7h6.4v43h-6.4V983z M1160,984.7c4.6,0,8.3-1.6,11-4.8
		c2.6-3,3.9-6.9,3.9-11.5s-1.3-8.5-3.9-11.5c-2.7-3.2-6.4-4.8-11-4.8c-4.6,0-8.3,1.6-11.2,4.8c-2.7,3-4,6.9-4,11.5s1.3,8.5,4,11.5
		C1151.7,983.1,1155.4,984.7,1160,984.7z"/>
	<path class="st0" d="M1198.6,946.9v6.7c1.5-2.1,3.4-3.8,5.7-5.2c2.2-1.4,4.8-2.1,7.7-2.1c2.9,0,5.3,0.4,7.4,1.2
		c2.1,0.8,3.9,2,5.4,3.6c3.6,3.5,5.3,8.1,5.3,13.8v25h-6.4V965c0-4-1.1-7.1-3.4-9.5c-2.2-2.4-5.1-3.5-8.7-3.5
		c-3.6,0-6.7,1.2-9.2,3.6c-2.5,2.5-3.8,5.6-3.8,9.5v24.8h-6.4v-43H1198.6z"/>
	<path class="st0" d="M1251.1,1006.9h-7l7.8-17.6l-17.5-42.4h7.1l13.8,35.2l14.1-35.2h7.1L1251.1,1006.9z"/>
</g>
</svg>
