<?xml version="1.0" encoding="utf-8"?>
<!-- Generator: Adobe Illustrator 21.1.0, SVG Export Plug-In . SVG Version: 6.00 Build 0)  -->
<svg version="1.1" id="Layer_1" xmlns="http://www.w3.org/2000/svg" xmlns:xlink="http://www.w3.org/1999/xlink" x="0px" y="0px"
	 viewBox="0 0 560 200" style="enable-background:new 0 0 560 200;" xml:space="preserve">
<style type="text/css">
	.st0{fill:#416E34;}
	.st1{fill:url(#XMLID_2_);}
	.st2{fill:url(#XMLID_3_);}
	.st3{fill:url(#XMLID_4_);}
	.st4{fill:#2C302D;}
</style>
<g>
	<path class="st0" d="M126.4,95.5V55.1h5.9l8.9,21.1V55.1h6.8v40.4h-5.7l-8.8-22.4v22.4H126.4z"/>
	<path class="st0" d="M155.1,95.5l8.7-40.4h7.2l8.7,40.4h-8.1l-1.7-8.6h-5.3l-1.6,8.6H155.1z M165.4,81.8h4.2l-2-15L165.4,81.8z"/>
	<path class="st0" d="M189.7,95.5V61.2h-5.9v-6.1h19.9v6.1h-5.8v34.3H189.7z"/>
	<path class="st0" d="M210.8,80.5V55.1h8.2v25.1c0,1.4,0,2.5,0,3.1c0,0.7,0.1,1.4,0.1,2.4c0.1,0.9,0.2,1.6,0.3,2
		c0.1,0.4,0.4,0.8,0.6,1.2c0.3,0.4,0.6,0.7,1,0.9c0.4,0.1,0.9,0.2,1.5,0.2c0.6,0,1.1-0.1,1.5-0.2c0.4-0.1,0.8-0.4,1-0.8
		c0.3-0.4,0.5-0.8,0.6-1.2c0.1-0.4,0.3-1,0.3-1.9c0.1-0.9,0.1-1.7,0.1-2.3c0-0.6,0-1.7,0-3.1c0-0.1,0-0.1,0-0.1V55.1h8.2v25.4
		c0,1.3,0,2.5-0.1,3.5c-0.1,1-0.2,2.1-0.4,3.3c-0.2,1.1-0.5,2.1-0.9,3c-0.4,0.9-0.8,1.7-1.4,2.5c-0.6,0.8-1.3,1.4-2.1,1.9
		s-1.8,0.9-2.9,1.2c-1.2,0.3-2.4,0.4-3.9,0.4s-2.7-0.2-3.9-0.4c-1.2-0.3-2.1-0.7-2.9-1.2c-0.8-0.5-1.5-1.2-2.1-1.9
		c-0.6-0.8-1.1-1.6-1.4-2.5c-0.4-0.9-0.6-1.9-0.9-3c-0.2-1.1-0.4-2.2-0.4-3.3C210.9,83,210.8,81.8,210.8,80.5z"/>
	<path class="st0" d="M243.6,95.5V55.1h8.9c2,0,3.8,0.2,5.3,0.6c1.5,0.4,2.9,1,4,1.8c1.2,0.8,2,1.9,2.6,3.3s0.9,3,0.9,5
		c0,0.8,0,1.6-0.1,2.2c-0.1,0.7-0.2,1.4-0.4,2.3c-0.2,0.8-0.5,1.6-0.9,2.2c-0.4,0.7-0.9,1.3-1.6,1.9c-0.7,0.6-1.5,1.2-2.5,1.6
		c2.4,7.7,4.5,14.2,6.3,19.5h-8.5l-4.6-18.6h-1.3v18.6H243.6z M251.7,71.9h2.3c0.6,0,1.2-0.2,1.6-0.6s0.8-1,1-1.6
		c0.2-0.6,0.3-1.2,0.4-1.8c0.1-0.5,0.1-1,0.1-1.5c0-0.5,0-1-0.1-1.5c-0.1-0.5-0.2-1.1-0.4-1.7c-0.2-0.6-0.5-1.1-0.9-1.5
		s-0.9-0.6-1.4-0.6h-2.7V71.9z"/>
	<path class="st0" d="M271.1,95.5l8.7-40.4h7.2l8.7,40.4h-8.1l-1.7-8.6h-5.3l-1.6,8.6H271.1z M281.4,81.8h4.2l-2-15L281.4,81.8z"/>
	<path class="st0" d="M303,95.5V55.1h8.2v34.8h8v5.6H303z"/>
	<path class="st0" d="M338.8,84l8.3-1.6c0,0.8,0,1.5,0,2.2c0,0.6,0.1,1.3,0.2,2.1c0.1,0.7,0.3,1.3,0.5,1.8c0.2,0.5,0.5,0.9,0.9,1.2
		c0.4,0.3,0.9,0.5,1.4,0.5c1.6,0,2.4-1,2.4-3.1c0-2.8-1.6-5.6-4.8-8.4l-2.5-2.2c-0.8-0.7-1.5-1.2-1.9-1.7c-0.5-0.4-1-1.1-1.7-1.8
		c-0.7-0.8-1.2-1.5-1.5-2.2c-0.4-0.7-0.7-1.6-0.9-2.6c-0.3-1-0.4-2.1-0.4-3.2c0-3.3,1-5.9,3.1-7.8c2.1-1.9,4.8-2.9,8.3-2.9
		c2.9,0,5.3,1,7.3,3.1c2,2,3,4.5,3,7.4l0,0.3c0,0.2,0,0.4,0,0.7l-8.4,1.2c0-0.2,0-0.4,0-0.8c0-0.4,0-0.6,0-0.9c0-0.5,0-1.1-0.1-1.5
		c-0.1-0.5-0.2-1-0.4-1.5c-0.2-0.5-0.4-0.9-0.8-1.2c-0.4-0.3-0.8-0.4-1.3-0.4c-0.9,0-1.6,0.4-2,1.1c-0.4,0.7-0.7,1.5-0.7,2.5
		c0,0.8,0.1,1.6,0.4,2.4c0.3,0.7,0.7,1.4,1.2,2.1c0.5,0.6,1,1.2,1.5,1.6c0.4,0.4,1,0.9,1.8,1.5c0.7,0.6,1.3,1.1,1.6,1.3
		c1.2,1,2.1,2,2.9,2.9c0.8,0.9,1.5,1.9,2.2,3c0.7,1.1,1.2,2.3,1.6,3.6c0.4,1.3,0.5,2.7,0.5,4.2c0,2.8-1,5.1-3,6.9
		c-2,1.8-4.5,2.7-7.4,2.7c-1.9,0-3.5-0.3-5-1c-1.5-0.7-2.6-1.6-3.5-2.8c-0.9-1.2-1.6-2.5-2.1-3.9C339.1,87.1,338.9,85.6,338.8,84z"
		/>
	<path class="st0" d="M372.2,95.5V61.2h-5.9v-6.1h19.9v6.1h-5.8v34.3H372.2z"/>
	<path class="st0" d="M393.3,80.5V55.1h8.2v25.1c0,1.4,0,2.5,0,3.1c0,0.7,0.1,1.4,0.1,2.4c0.1,0.9,0.2,1.6,0.3,2
		c0.1,0.4,0.4,0.8,0.6,1.2c0.3,0.4,0.6,0.7,1,0.9c0.4,0.1,0.9,0.2,1.5,0.2c0.6,0,1.1-0.1,1.5-0.2c0.4-0.1,0.8-0.4,1-0.8
		c0.3-0.4,0.5-0.8,0.6-1.2c0.1-0.4,0.3-1,0.3-1.9c0.1-0.9,0.1-1.7,0.1-2.3c0-0.6,0-1.7,0-3.1c0-0.1,0-0.1,0-0.1V55.1h8.2v25.4
		c0,1.3,0,2.5-0.1,3.5c-0.1,1-0.2,2.1-0.4,3.3c-0.2,1.1-0.5,2.1-0.9,3c-0.4,0.9-0.8,1.7-1.4,2.5s-1.3,1.4-2.1,1.9
		c-0.8,0.5-1.8,0.9-2.9,1.2c-1.2,0.3-2.4,0.4-3.9,0.4s-2.7-0.2-3.9-0.4c-1.2-0.3-2.1-0.7-2.9-1.2c-0.8-0.5-1.5-1.2-2.1-1.9
		c-0.6-0.8-1.1-1.6-1.4-2.5c-0.4-0.9-0.6-1.9-0.9-3c-0.2-1.1-0.4-2.2-0.4-3.3C393.4,83,393.3,81.8,393.3,80.5z"/>
	<path class="st0" d="M426.1,95.5V55.1H443v5.6h-8.7v11h6.1v5.7h-6.1v18H426.1z"/>
	<path class="st0" d="M449.9,95.5V55.1h16.8v5.6h-8.7v11h6.1v5.7h-6.1v18H449.9z"/>
	<path class="st0" d="M487.5,95.5V55.1h8.2v40.4H487.5z"/>
	<path class="st0" d="M505.1,95.5V55.1h5.9l8.9,21.1V55.1h6.8v40.4h-5.7l-8.8-22.4v22.4H505.1z"/>
	<path class="st0" d="M535.4,82V68.7c0-9.5,3.9-14.3,11.7-14.3c1.6,0,3.1,0.2,4.4,0.7c1.3,0.4,2.4,1.1,3.2,1.8
		c0.9,0.8,1.6,1.7,2.1,2.9c0.6,1.1,1,2.4,1.2,3.7c0.2,1.3,0.4,2.8,0.4,4.4v3.5h-8v-3.7c0-0.7,0-1.4,0-1.9c0-0.5-0.1-1.1-0.2-1.8
		c-0.1-0.7-0.3-1.2-0.5-1.7c-0.2-0.4-0.5-0.8-1-1.1c-0.4-0.3-0.9-0.4-1.5-0.4c-2.4,0-3.5,2-3.5,6V84c0,4,1.2,5.9,3.5,5.9
		c0.7,0,1.3-0.2,1.8-0.6c0.5-0.4,0.8-1,1-1.7c0.2-0.7,0.4-1.5,0.4-2.2c0.1-0.7,0.1-1.5,0.1-2.4v-4.2h8v3.4c0,1.5-0.2,3-0.4,4.3
		c-0.2,1.3-0.6,2.6-1.1,3.8c-0.5,1.2-1.2,2.3-2.1,3.1c-0.8,0.8-1.9,1.5-3.2,2c-1.3,0.5-2.8,0.8-4.5,0.8c-1.7,0-3.3-0.3-4.7-0.8
		c-1.4-0.5-2.5-1.2-3.3-2s-1.6-1.9-2.2-3.1c-0.6-1.2-1-2.5-1.2-3.9C535.6,85.2,535.4,83.7,535.4,82z"/>
</g>
<linearGradient id="XMLID_2_" gradientUnits="userSpaceOnUse" x1="125.5206" y1="35.5108" x2="557.5381" y2="35.5108">
	<stop  offset="0" style="stop-color:#0D6B30"/>
	<stop  offset="0.2867" style="stop-color:#32882F"/>
	<stop  offset="0.5762" style="stop-color:#509F2E"/>
	<stop  offset="0.8243" style="stop-color:#62AE2D"/>
	<stop  offset="1" style="stop-color:#69B32D"/>
</linearGradient>
<rect id="XMLID_21_" x="125.5" y="31.4" class="st1" width="432" height="8.2"/>
<linearGradient id="XMLID_3_" gradientUnits="userSpaceOnUse" x1="125.5206" y1="116.065" x2="557.5381" y2="116.065">
	<stop  offset="0" style="stop-color:#0D6B30"/>
	<stop  offset="0.2867" style="stop-color:#32882F"/>
	<stop  offset="0.5762" style="stop-color:#509F2E"/>
	<stop  offset="0.8243" style="stop-color:#62AE2D"/>
	<stop  offset="1" style="stop-color:#69B32D"/>
</linearGradient>
<rect id="XMLID_20_" x="125.5" y="112" class="st2" width="432" height="8.2"/>
<linearGradient id="XMLID_4_" gradientUnits="userSpaceOnUse" x1="2.4884" y1="66.3019" x2="102.6182" y2="66.3019">
	<stop  offset="0" style="stop-color:#0D6B30"/>
	<stop  offset="0.2867" style="stop-color:#32882F"/>
	<stop  offset="0.5762" style="stop-color:#509F2E"/>
	<stop  offset="0.8243" style="stop-color:#62AE2D"/>
	<stop  offset="1" style="stop-color:#69B32D"/>
</linearGradient>
<path id="XMLID_18_" class="st3" d="M11.8,12.2c0,0-35,76.4,30.8,91.8c0,0,9.4,11.3,17.5,16.2l0.3-1.5c0,0.6,0,1.1,0.1,1.6l3.2-1
	c0,0,0-34.8,23.3-57.7c0,0-15.9,21.4-18.2,43.2c0,0,17.5-2.1,22-16.4c4.1-13.3,0.8-31.8,11.8-41.3c0,0-58.2,12.3-39.4,56.3
	c0,0-2.3,6.8-2.7,13c-3.9-3-39.3-31.3-45.5-74.4c0,0,11.2,36,34.1,56.8c0,0,14.1-23.1-0.2-38.7C34.5,44.7,13.4,32.7,11.8,12.2"/>
<g>
	<path class="st4" d="M53.5,172.3h-2.8l-2.7-6.5H36.9l-2.7,6.5h-2.8l9.5-22.3H44L53.5,172.3z M47,163.5l-4.6-10.9l-4.6,10.9H47z"/>
	<path class="st4" d="M72.9,160c-0.2-1.8-1.6-2.6-4.2-2.6c-2.6,0-3.9,0.8-3.9,2.4c0,0.7,0.3,1.2,0.8,1.5c0.6,0.3,1.2,0.6,2.1,0.9
		c0.8,0.2,1.7,0.4,2.7,0.6c1,0.2,1.9,0.5,2.7,0.8c0.8,0.3,1.5,0.8,2.1,1.4c0.6,0.6,0.8,1.4,0.8,2.5c0,1.6-0.6,2.9-1.9,3.8
		c-1.2,0.9-2.9,1.3-5,1.3c-2.2,0-4-0.6-5.4-1.7c-1.2-1-1.9-2.3-2-3.9h2.6c0.2,1.6,1,2.6,2.6,3.1c0.6,0.2,1.2,0.3,1.7,0.3
		s1.1,0,1.6-0.1c0.5-0.1,1-0.2,1.5-0.4c1.1-0.4,1.6-1.2,1.6-2.2c0-0.7-0.3-1.2-0.8-1.6c-0.6-0.4-1.2-0.7-2.1-0.9
		c-0.8-0.2-1.7-0.4-2.7-0.6c-1-0.2-1.9-0.5-2.7-0.8c-0.8-0.3-1.5-0.8-2.1-1.4c-0.6-0.6-0.8-1.4-0.8-2.4c0-1.5,0.6-2.7,1.7-3.6
		c1.1-0.8,2.8-1.3,4.9-1.3c2.1,0,3.7,0.5,4.9,1.5c1,0.8,1.6,1.9,1.7,3.3H72.9z"/>
	<path class="st4" d="M92.4,169.6c-1.3,2-3.4,3-6,3c-2.4,0-4.4-0.8-5.9-2.5c-1.5-1.7-2.2-3.7-2.2-6.2c0-2.5,0.7-4.5,2.2-6.2
		c1.5-1.7,3.6-2.5,6.1-2.5c2.5,0,4.5,1,5.9,3v-2.7h2.5v16.9h-2.5V169.6z M86.7,170.3c1.8,0,3.3-0.6,4.3-1.9c1-1.2,1.5-2.7,1.5-4.5
		c0-1.8-0.5-3.3-1.5-4.5c-1.1-1.3-2.5-1.9-4.3-1.9c-1.8,0-3.3,0.6-4.4,1.9c-1.1,1.2-1.6,2.7-1.6,4.5c0,1.8,0.5,3.3,1.6,4.5
		C83.4,169.6,84.9,170.3,86.7,170.3z"/>
	<path class="st4" d="M101.8,172.3h-2.5v-23.6h2.5V172.3z"/>
	<path class="st4" d="M113.7,170.3c2.3,0,3.9-0.9,4.9-2.8h2.8c-0.6,1.5-1.5,2.8-2.8,3.7c-1.3,0.9-2.9,1.4-4.9,1.4
		c-2.5,0-4.6-0.8-6.2-2.5c-1.6-1.6-2.3-3.7-2.3-6.2c0-2.5,0.7-4.6,2.2-6.2c1.6-1.7,3.6-2.5,6.1-2.5c2.5,0,4.6,0.8,6.1,2.5
		c1.5,1.6,2.2,3.7,2.2,6.2v1h-14.1c0.2,1.6,0.8,2.8,1.9,3.8C110.7,169.8,112.1,170.3,113.7,170.3z M113.5,157.5
		c-1.6,0-2.9,0.5-3.9,1.5c-1,0.9-1.6,2.1-1.8,3.6h11.5c-0.2-1.5-0.8-2.7-1.8-3.6C116.4,157.9,115.1,157.5,113.5,157.5z"/>
	<path class="st4" d="M134.9,160c-0.2-1.8-1.6-2.6-4.2-2.6s-3.9,0.8-3.9,2.4c0,0.7,0.3,1.2,0.8,1.5c0.6,0.3,1.2,0.6,2.1,0.9
		c0.8,0.2,1.7,0.4,2.7,0.6c1,0.2,1.9,0.5,2.7,0.8c0.8,0.3,1.5,0.8,2.1,1.4c0.6,0.6,0.8,1.4,0.8,2.5c0,1.6-0.6,2.9-1.9,3.8
		c-1.2,0.9-2.9,1.3-5,1.3c-2.2,0-4-0.6-5.4-1.7c-1.2-1-1.9-2.3-2-3.9h2.6c0.2,1.6,1,2.6,2.6,3.1c0.6,0.2,1.2,0.3,1.7,0.3
		c0.6,0,1.1,0,1.6-0.1c0.5-0.1,1-0.2,1.5-0.4c1.1-0.4,1.6-1.2,1.6-2.2c0-0.7-0.3-1.2-0.8-1.6c-0.6-0.4-1.2-0.7-2.1-0.9
		c-0.8-0.2-1.7-0.4-2.7-0.6c-1-0.2-1.9-0.5-2.7-0.8c-0.8-0.3-1.5-0.8-2.1-1.4c-0.6-0.6-0.8-1.4-0.8-2.4c0-1.5,0.6-2.7,1.7-3.6
		c1.1-0.8,2.8-1.3,4.9-1.3c2.1,0,3.7,0.5,4.9,1.5c1,0.8,1.6,1.9,1.7,3.3H134.9z"/>
	<path class="st4" d="M161.6,169.6c-1.3,2-3.4,3-6,3c-2.4,0-4.4-0.8-5.9-2.5c-1.5-1.7-2.2-3.7-2.2-6.2c0-2.5,0.7-4.5,2.2-6.2
		c1.5-1.7,3.6-2.5,6.1-2.5c2.5,0,4.5,1,5.9,3v-2.7h2.5v16.9h-2.5V169.6z M155.9,170.3c1.8,0,3.3-0.6,4.3-1.9c1-1.2,1.5-2.7,1.5-4.5
		c0-1.8-0.5-3.3-1.5-4.5c-1.1-1.3-2.5-1.9-4.3-1.9c-1.8,0-3.3,0.6-4.4,1.9c-1.1,1.2-1.6,2.7-1.6,4.5c0,1.8,0.5,3.3,1.6,4.5
		C152.6,169.6,154.1,170.3,155.9,170.3z"/>
	<path class="st4" d="M171,155.4v2.6c0.6-0.8,1.3-1.5,2.2-2.1c0.9-0.6,1.9-0.8,3-0.8c1.1,0,2.1,0.2,2.9,0.5c0.8,0.3,1.5,0.8,2.1,1.4
		c1.4,1.4,2.1,3.2,2.1,5.4v9.8h-2.5v-9.7c0-1.6-0.4-2.8-1.3-3.7s-2-1.4-3.4-1.4c-1.4,0-2.6,0.5-3.6,1.4c-1,1-1.5,2.2-1.5,3.7v9.7
		h-2.5v-16.9H171z"/>
	<path class="st4" d="M200.7,169.6c-1.3,2-3.4,3-6,3c-2.4,0-4.4-0.8-5.9-2.5c-1.5-1.7-2.2-3.7-2.2-6.2c0-2.5,0.7-4.5,2.2-6.2
		c1.5-1.7,3.6-2.5,6.1-2.5c2.5,0,4.5,1,5.9,3v-9.5h2.5v23.6h-2.5V169.6z M195,170.3c1.8,0,3.3-0.6,4.3-1.9c1-1.2,1.5-2.7,1.5-4.5
		c0-1.8-0.5-3.3-1.5-4.5c-1.1-1.3-2.5-1.9-4.3-1.9c-1.8,0-3.3,0.6-4.4,1.9c-1.1,1.2-1.6,2.7-1.6,4.5c0,1.8,0.5,3.3,1.6,4.5
		C191.8,169.6,193.2,170.3,195,170.3z"/>
	<path class="st4" d="M228,169.6c-1.3,2-3.4,3-6,3c-2.4,0-4.4-0.8-5.9-2.5c-1.5-1.7-2.2-3.7-2.2-6.2c0-2.5,0.7-4.5,2.2-6.2
		c1.5-1.7,3.6-2.5,6.1-2.5c2.5,0,4.5,1,5.9,3v-9.5h2.5v23.6H228V169.6z M222.3,170.3c1.8,0,3.3-0.6,4.3-1.9c1-1.2,1.5-2.7,1.5-4.5
		c0-1.8-0.5-3.3-1.5-4.5c-1.1-1.3-2.5-1.9-4.3-1.9c-1.8,0-3.3,0.6-4.4,1.9c-1.1,1.2-1.6,2.7-1.6,4.5c0,1.8,0.5,3.3,1.6,4.5
		C219,169.6,220.5,170.3,222.3,170.3z"/>
	<path class="st4" d="M237.5,149.3v3.3h-2.7v-3.3H237.5z M234.9,155.4h2.5v16.9h-2.5V155.4z"/>
	<path class="st4" d="M251.7,160c-0.2-1.8-1.6-2.6-4.2-2.6s-3.9,0.8-3.9,2.4c0,0.7,0.3,1.2,0.8,1.5c0.6,0.3,1.2,0.6,2.1,0.9
		c0.8,0.2,1.7,0.4,2.7,0.6c1,0.2,1.9,0.5,2.7,0.8c0.8,0.3,1.5,0.8,2.1,1.4c0.6,0.6,0.8,1.4,0.8,2.5c0,1.6-0.6,2.9-1.9,3.8
		c-1.2,0.9-2.9,1.3-5,1.3c-2.2,0-4-0.6-5.4-1.7c-1.2-1-1.9-2.3-2-3.9h2.6c0.2,1.6,1,2.6,2.6,3.1c0.6,0.2,1.2,0.3,1.7,0.3
		c0.6,0,1.1,0,1.6-0.1c0.5-0.1,1-0.2,1.5-0.4c1.1-0.4,1.6-1.2,1.6-2.2c0-0.7-0.3-1.2-0.8-1.6c-0.6-0.4-1.2-0.7-2.1-0.9
		c-0.8-0.2-1.7-0.4-2.7-0.6c-1-0.2-1.9-0.5-2.7-0.8c-0.8-0.3-1.5-0.8-2.1-1.4c-0.6-0.6-0.8-1.4-0.8-2.4c0-1.5,0.6-2.7,1.7-3.6
		c1.1-0.8,2.8-1.3,4.9-1.3c2.1,0,3.7,0.5,4.9,1.5c1,0.8,1.6,1.9,1.7,3.3H251.7z"/>
	<path class="st4" d="M259.9,172.3v-14.6h-3.4v-2.2h3.4v-6h2.5v6h3.9v2.2h-3.9v14.6H259.9z"/>
	<path class="st4" d="M278,155.2v2.5h-0.3c-1.8,0-3.3,0.7-4.5,2.2c-1.1,1.4-1.6,3.1-1.6,5v7.4h-2.5v-16.9h2.5v4.1
		c0.5-1.8,1.7-3,3.5-3.9c0.7-0.4,1.6-0.5,2.7-0.5H278z"/>
	<path class="st4" d="M283.3,149.3v3.3h-2.7v-3.3H283.3z M280.7,155.4h2.5v16.9h-2.5V155.4z"/>
	<path class="st4" d="M290.2,158.2c1.4-2,3.4-3,6-3c2.4,0,4.4,0.8,5.9,2.5c1.5,1.7,2.3,3.7,2.3,6.2c0,2.5-0.8,4.5-2.3,6.2
		c-1.5,1.7-3.5,2.5-6.1,2.5c-2.6,0-4.5-1-5.9-3v2.7h-2.5v-23.6h2.5V158.2z M295.9,170.3c1.8,0,3.3-0.6,4.4-1.9
		c1.1-1.2,1.6-2.7,1.6-4.5c0-1.8-0.5-3.3-1.6-4.5c-1.1-1.3-2.6-1.9-4.4-1.9c-1.8,0-3.3,0.6-4.3,1.9c-1,1.2-1.5,2.7-1.5,4.5
		c0,1.8,0.5,3.3,1.5,4.5C292.6,169.6,294,170.3,295.9,170.3z"/>
	<path class="st4" d="M319.8,172.3v-2.6c-0.6,0.8-1.3,1.5-2.2,2.1c-0.9,0.6-1.9,0.8-3,0.8c-1.1,0-2.1-0.2-2.9-0.5
		c-0.8-0.3-1.5-0.8-2.1-1.4c-1.4-1.4-2.1-3.2-2.1-5.4v-9.8h2.5v9.7c0,1.6,0.4,2.8,1.3,3.7c0.9,0.9,2,1.4,3.4,1.4
		c1.4,0,2.6-0.5,3.6-1.4c1-1,1.5-2.2,1.5-3.7v-9.7h2.5v16.9H319.8z"/>
	<path class="st4" d="M328.6,172.3v-14.6h-3.4v-2.2h3.4v-6h2.5v6h3.9v2.2h-3.9v14.6H328.6z"/>
	<path class="st4" d="M340.4,149.3v3.3h-2.7v-3.3H340.4z M337.7,155.4h2.5v16.9h-2.5V155.4z"/>
	<path class="st4" d="M352,155.2c2.5,0,4.6,0.8,6.1,2.5c1.5,1.6,2.2,3.7,2.2,6.2c0,2.5-0.7,4.6-2.2,6.2c-1.6,1.7-3.6,2.5-6.1,2.5
		c-2.5,0-4.6-0.8-6.1-2.5c-1.5-1.6-2.2-3.7-2.2-6.2c0-2.5,0.7-4.6,2.2-6.2C347.4,156,349.5,155.2,352,155.2z M352,170.3
		c1.8,0,3.3-0.6,4.3-1.9c1-1.2,1.5-2.7,1.5-4.5c0-1.8-0.5-3.3-1.5-4.5c-1.1-1.3-2.5-1.9-4.3-1.9c-1.8,0-3.3,0.6-4.3,1.9
		c-1,1.2-1.5,2.7-1.5,4.5c0,1.8,0.5,3.3,1.5,4.5C348.7,169.6,350.2,170.3,352,170.3z"/>
	<path class="st4" d="M366.2,155.4v2.6c0.6-0.8,1.3-1.5,2.2-2.1c0.9-0.6,1.9-0.8,3-0.8c1.1,0,2.1,0.2,2.9,0.5
		c0.8,0.3,1.5,0.8,2.1,1.4c1.4,1.4,2.1,3.2,2.1,5.4v9.8H376v-9.7c0-1.6-0.4-2.8-1.3-3.7s-2-1.4-3.4-1.4c-1.4,0-2.6,0.5-3.6,1.4
		c-1,1-1.5,2.2-1.5,3.7v9.7h-2.5v-16.9H366.2z"/>
	<path class="st4" d="M397.7,170.3c1.1,0,2-0.3,2.9-0.9c0.8-0.6,1.4-1.4,1.8-2.4h2.7c-0.5,1.7-1.5,3-2.8,4c-1.4,1-3.1,1.6-5.1,1.6
		c-2.5,0-4.5-0.8-6-2.5c-1.5-1.6-2.3-3.7-2.3-6.2c0-2.5,0.8-4.5,2.3-6.2c1.6-1.7,3.6-2.5,6-2.5c2,0,3.7,0.5,5.1,1.6
		c1.4,1,2.3,2.3,2.8,4h-2.7c-0.4-1-1-1.8-1.8-2.4c-0.8-0.6-1.8-0.9-2.9-0.9c-1.1,0-2,0.2-2.7,0.5c-0.8,0.3-1.4,0.8-1.9,1.4
		c-1.1,1.2-1.7,2.7-1.7,4.5c0,1.8,0.6,3.3,1.7,4.5C394.2,169.6,395.8,170.3,397.7,170.3z"/>
	<path class="st4" d="M415.6,155.2c2.5,0,4.6,0.8,6.1,2.5c1.5,1.6,2.2,3.7,2.2,6.2c0,2.5-0.7,4.6-2.2,6.2c-1.6,1.7-3.6,2.5-6.1,2.5
		c-2.5,0-4.6-0.8-6.1-2.5c-1.5-1.6-2.2-3.7-2.2-6.2c0-2.5,0.7-4.6,2.2-6.2C411.1,156,413.1,155.2,415.6,155.2z M415.6,170.3
		c1.8,0,3.3-0.6,4.3-1.9c1-1.2,1.5-2.7,1.5-4.5c0-1.8-0.5-3.3-1.5-4.5c-1.1-1.3-2.5-1.9-4.3-1.9c-1.8,0-3.3,0.6-4.3,1.9
		c-1,1.2-1.5,2.7-1.5,4.5c0,1.8,0.5,3.3,1.5,4.5C412.4,169.6,413.8,170.3,415.6,170.3z"/>
	<path class="st4" d="M429.9,158c1.1-1.9,2.8-2.8,5.1-2.8c1.1,0,2.2,0.3,3.1,0.9c1,0.6,1.7,1.4,2.2,2.5c0.8-1.4,2-2.4,3.6-3
		c0.7-0.2,1.4-0.4,2.2-0.4c0.8,0,1.6,0.2,2.4,0.5c0.8,0.3,1.4,0.8,2,1.4c1.3,1.3,1.9,3,1.9,5.1v10.2h-2.5v-10.1
		c0-1.4-0.4-2.5-1.2-3.4c-0.8-0.9-1.8-1.3-3-1.3c-1.3,0-2.3,0.4-3.2,1.2c-0.9,0.9-1.3,2-1.3,3.5v10.1h-2.5v-10.1
		c0-1.4-0.4-2.5-1.2-3.4c-0.8-0.9-1.8-1.3-3-1.3c-1.3,0-2.3,0.4-3.2,1.2c-0.9,0.9-1.3,2-1.3,3.5v10.1h-2.5v-16.9h2.5V158z"/>
	<path class="st4" d="M459.1,158.1c1.3-2,3.4-3,6-3c2.4,0,4.4,0.8,5.9,2.5c1.5,1.7,2.3,3.7,2.3,6.2c0,2.5-0.8,4.5-2.3,6.2
		c-1.5,1.7-3.5,2.5-6.1,2.5c-2.5,0-4.5-1-5.9-3v9.4h-2.5v-23.5h2.5V158.1z M464.8,157.5c-1.8,0-3.3,0.6-4.3,1.9
		c-1,1.2-1.5,2.7-1.5,4.5c0,1.8,0.5,3.3,1.5,4.5c1.1,1.3,2.5,1.9,4.3,1.9c1.8,0,3.3-0.6,4.4-1.9c1.1-1.2,1.6-2.7,1.6-4.5
		c0-1.8-0.5-3.3-1.6-4.5C468.1,158.1,466.6,157.5,464.8,157.5z"/>
	<path class="st4" d="M489.8,169.6c-1.3,2-3.4,3-6,3c-2.4,0-4.4-0.8-5.9-2.5c-1.5-1.7-2.2-3.7-2.2-6.2c0-2.5,0.7-4.5,2.2-6.2
		c1.5-1.7,3.6-2.5,6.1-2.5c2.5,0,4.5,1,5.9,3v-2.7h2.5v16.9h-2.5V169.6z M484.1,170.3c1.8,0,3.3-0.6,4.3-1.9c1-1.2,1.5-2.7,1.5-4.5
		c0-1.8-0.5-3.3-1.5-4.5c-1.1-1.3-2.5-1.9-4.3-1.9c-1.8,0-3.3,0.6-4.4,1.9c-1.1,1.2-1.6,2.7-1.6,4.5c0,1.8,0.5,3.3,1.6,4.5
		C480.8,169.6,482.3,170.3,484.1,170.3z"/>
	<path class="st4" d="M499.2,155.4v2.6c0.6-0.8,1.3-1.5,2.2-2.1c0.9-0.6,1.9-0.8,3-0.8c1.1,0,2.1,0.2,2.9,0.5
		c0.8,0.3,1.5,0.8,2.1,1.4c1.4,1.4,2.1,3.2,2.1,5.4v9.8H509v-9.7c0-1.6-0.4-2.8-1.3-3.7s-2-1.4-3.4-1.4c-1.4,0-2.6,0.5-3.6,1.4
		c-1,1-1.5,2.2-1.5,3.7v9.7h-2.5v-16.9H499.2z"/>
	<path class="st4" d="M519.8,179h-2.7l3.1-6.9l-6.9-16.6h2.8l5.4,13.8l5.5-13.8h2.8L519.8,179z"/>
</g>
</svg>
