<?xml version="1.0" encoding="utf-8"?>
<!-- Generator: Adobe Illustrator 19.0.0, SVG Export Plug-In . SVG Version: 6.00 Build 0)  -->
<svg version="1.0" id="Camada_1" xmlns="http://www.w3.org/2000/svg" xmlns:xlink="http://www.w3.org/1999/xlink" x="0px" y="0px"
	 width="595.28px" height="841.89px" viewBox="0 0 595.28 841.89" style="enable-background:new 0 0 595.28 841.89;"
	 xml:space="preserve">
<style type="text/css">
	.st0{fill:url(#XMLID_114_);}
	.st1{fill:url(#XMLID_115_);}
	.st2{fill:url(#XMLID_116_);}
	.st3{fill:#49782E;}
	.st4{fill:url(#XMLID_117_);}
	.st5{fill:url(#XMLID_118_);}
	.st6{fill:url(#XMLID_119_);}
	.st7{fill:none;}
	.st8{fill:#2B302E;}
	.st9{font-family:'Calibri';}
	.st10{font-size:35.4464px;}
</style>
<g id="XMLID_38_">
	<text id="XMLID_75_" transform="matrix(1 0 0 1 -485.927 570.9766)">
		<tspan x="0" y="0" style="font-family:'Oswald-Bold'; font-size:36.0779px; letter-spacing:3;">NATURAL STUFF INC</tspan>
	</text>
	<linearGradient id="XMLID_114_" gradientUnits="userSpaceOnUse" x1="-484.7602" y1="523.8615" x2="-145.5032" y2="523.8615">
		<stop  offset="0" style="stop-color:#0D6B30"/>
		<stop  offset="0.2046" style="stop-color:#2B7E32"/>
		<stop  offset="0.5276" style="stop-color:#4C9A31"/>
		<stop  offset="0.8041" style="stop-color:#61AD2F"/>
		<stop  offset="1" style="stop-color:#69B42D"/>
	</linearGradient>
	<rect id="XMLID_74_" x="-484.76" y="520.66" class="st0" width="339.26" height="6.41"/>
	<linearGradient id="XMLID_115_" gradientUnits="userSpaceOnUse" x1="-484.7602" y1="587.1196" x2="-145.5032" y2="587.1196">
		<stop  offset="0" style="stop-color:#0D6B30"/>
		<stop  offset="0.2046" style="stop-color:#2B7E32"/>
		<stop  offset="0.5276" style="stop-color:#4C9A31"/>
		<stop  offset="0.8041" style="stop-color:#61AD2F"/>
		<stop  offset="1" style="stop-color:#69B42D"/>
	</linearGradient>
	<rect id="XMLID_73_" x="-484.76" y="583.92" class="st1" width="339.26" height="6.41"/>
	<linearGradient id="XMLID_116_" gradientUnits="userSpaceOnUse" x1="-455.2183" y1="350.7769" x2="-203.8106" y2="350.7769">
		<stop  offset="0" style="stop-color:#0D6B30"/>
		<stop  offset="0.2046" style="stop-color:#2B7E32"/>
		<stop  offset="0.5276" style="stop-color:#4C9A31"/>
		<stop  offset="0.8041" style="stop-color:#61AD2F"/>
		<stop  offset="1" style="stop-color:#69B42D"/>
	</linearGradient>
	<path id="XMLID_19_" class="st2" d="M-302.77,444.18c0,0-5.78,17.05-6.87,32.73c-9.81-7.54-98.77-78.62-114.18-186.91
		c0,0,28.03,90.37,85.5,142.65c0,0,35.48-58.11-0.5-97.13c-35.98-39.02-89.12-69-93.07-120.52c0,0-87.81,191.86,77.3,230.56
		c0,0,23.48,28.35,43.92,40.77l0.85-3.88c0.02,1.41,0.08,2.78,0.21,4.11l7.96-2.39c0,0-0.02-87.39,58.56-144.86
		c0,0-39.89,53.76-45.59,108.52c0,0,44.02-5.26,55.19-41.18c10.42-33.51,1.93-79.89,29.67-103.78
		C-203.81,302.87-350.03,333.69-302.77,444.18z"/>
</g>
<rect id="XMLID_1_" x="-604.14" y="602.57" class="st7" width="577.14" height="104.29"/>
<text id="XMLID_2_" transform="matrix(1 0 0 1 -563.7253 627.6572)"><tspan x="0" y="0" class="st8 st9" style="font-size:37px;">A sales and di</tspan><tspan x="204.6" y="0" class="st8 st9" style="font-size:37px;">s</tspan><tspan x="218.66" y="0" class="st8 st9" style="font-size:37px;">tribution </tspan><tspan x="359.25" y="0" class="st8 st9" style="font-size:37px;">c</tspan><tspan x="374.59" y="0" class="st8 st9" style="font-size:37px;">ompa</tspan><tspan x="460.82" y="0" class="st8 st9" style="font-size:37px;">n</tspan><tspan x="479.57" y="0" class="st8 st9" style="font-size:37px;">y</tspan></text>
<g id="XMLID_51_">
	<path id="XMLID_52_" class="st3" d="M160.38,439.96v-38.33h5.58l8.41,20.05v-20.05h6.43v38.33h-5.36l-8.39-21.26v21.26H160.38z"/>
	<path id="XMLID_54_" class="st3" d="M187.62,439.96l8.28-38.31h6.85l8.26,38.31h-7.64l-1.58-8.19h-5l-1.49,8.19H187.62z
		 M197.32,427h3.96l-1.94-14.22L197.32,427z"/>
	<path id="XMLID_57_" class="st3" d="M220.41,439.96v-32.52h-5.62v-5.79h18.88v5.79h-5.51v32.52H220.41z"/>
	<path id="XMLID_59_" class="st3" d="M240.44,425.72v-24.07h7.75v23.84c0,1.36,0.01,2.35,0.02,2.97c0.01,0.62,0.05,1.37,0.11,2.26
		c0.06,0.89,0.16,1.51,0.3,1.86c0.14,0.36,0.34,0.74,0.58,1.15c0.25,0.41,0.57,0.68,0.97,0.81c0.4,0.13,0.88,0.19,1.45,0.19
		c0.57,0,1.05-0.06,1.45-0.19c0.4-0.13,0.72-0.39,0.97-0.8c0.25-0.4,0.44-0.78,0.59-1.14c0.14-0.35,0.24-0.97,0.3-1.84
		c0.06-0.87,0.09-1.61,0.11-2.21c0.01-0.6,0.02-1.58,0.02-2.93c0-0.06,0-0.1,0-0.13v-23.84h7.75v24.07c0,1.22-0.04,2.33-0.11,3.32
		c-0.07,0.99-0.21,2.02-0.4,3.09c-0.2,1.06-0.47,2-0.81,2.82c-0.34,0.82-0.79,1.6-1.36,2.34s-1.24,1.36-2.01,1.84
		s-1.71,0.87-2.8,1.15c-1.09,0.28-2.32,0.43-3.68,0.43s-2.59-0.14-3.68-0.43c-1.09-0.28-2.02-0.67-2.79-1.15
		c-0.77-0.48-1.43-1.1-2-1.84c-0.57-0.75-1.02-1.53-1.36-2.34c-0.34-0.82-0.61-1.76-0.82-2.82c-0.21-1.06-0.34-2.09-0.42-3.09
		C240.47,428.05,240.44,426.94,240.44,425.72z"/>
	<path id="XMLID_61_" class="st3" d="M271.53,439.96v-38.31h8.43c1.92,0,3.6,0.18,5.05,0.54c1.45,0.36,2.73,0.93,3.82,1.7
		s1.92,1.82,2.49,3.13s0.85,2.88,0.85,4.71c0,0.79-0.03,1.5-0.08,2.13c-0.06,0.62-0.19,1.34-0.39,2.14
		c-0.21,0.8-0.49,1.51-0.84,2.13s-0.87,1.22-1.53,1.82s-1.45,1.09-2.36,1.49c2.3,7.29,4.3,13.47,6,18.52h-8.02l-4.38-17.64h-1.28
		v17.64H271.53z M279.27,417.59h2.21c0.6,0,1.11-0.2,1.53-0.6s0.73-0.9,0.93-1.51c0.19-0.61,0.33-1.17,0.4-1.68
		c0.08-0.51,0.12-0.99,0.12-1.45c0-0.45-0.03-0.92-0.1-1.4s-0.18-1.02-0.34-1.61s-0.43-1.07-0.81-1.45s-0.83-0.56-1.37-0.56h-2.58
		V417.59z"/>
	<path id="XMLID_64_" class="st3" d="M297.68,439.96l8.28-38.31h6.85l8.26,38.31h-7.64l-1.58-8.19h-5l-1.49,8.19H297.68z
		 M307.39,427h3.96l-1.94-14.22L307.39,427z"/>
	<path id="XMLID_67_" class="st3" d="M327.9,439.96v-38.31h7.75v32.99h7.62v5.32H327.9z"/>
	<path id="XMLID_69_" class="st3" d="M361.86,429l7.85-1.51c0,0.78,0.01,1.47,0.04,2.06c0.03,0.6,0.1,1.25,0.22,1.95
		c0.12,0.7,0.28,1.28,0.49,1.72c0.21,0.45,0.5,0.82,0.87,1.13c0.38,0.31,0.82,0.46,1.33,0.46c1.53,0,2.3-0.98,2.3-2.94
		c0-2.68-1.51-5.35-4.53-8l-2.41-2.04c-0.77-0.64-1.38-1.17-1.83-1.6c-0.45-0.42-0.99-1-1.61-1.72s-1.1-1.42-1.45-2.1
		c-0.35-0.67-0.65-1.49-0.89-2.44s-0.37-1.96-0.37-3.02c0-3.11,0.99-5.57,2.96-7.38c1.97-1.81,4.59-2.71,7.85-2.71
		c2.71,0,5.02,0.97,6.92,2.89c1.9,1.93,2.85,4.26,2.85,6.98l-0.02,0.28c0,0.18,0,0.4,0,0.64l-8,1.11c0-0.16,0.01-0.4,0.03-0.73
		c0.02-0.33,0.03-0.61,0.03-0.82c0-0.51-0.04-1-0.11-1.47c-0.07-0.47-0.19-0.94-0.35-1.41c-0.16-0.47-0.42-0.84-0.76-1.12
		c-0.34-0.28-0.75-0.42-1.23-0.42c-0.85,0-1.49,0.33-1.92,1c-0.43,0.67-0.64,1.46-0.64,2.36c0,0.79,0.12,1.54,0.37,2.23
		s0.63,1.34,1.13,1.95c0.5,0.6,0.97,1.1,1.39,1.5s0.99,0.88,1.7,1.46c0.71,0.57,1.21,1,1.51,1.27c1.09,0.97,2.01,1.87,2.77,2.71
		c0.75,0.84,1.46,1.8,2.13,2.86c0.67,1.06,1.17,2.21,1.5,3.45c0.33,1.23,0.5,2.57,0.5,4c0,2.68-0.96,4.88-2.87,6.59
		c-1.92,1.71-4.24,2.56-6.98,2.56c-1.77,0-3.35-0.33-4.73-0.98s-2.49-1.54-3.33-2.66c-0.84-1.12-1.49-2.36-1.95-3.73
		C362.19,432.02,361.93,430.56,361.86,429z"/>
	<path id="XMLID_71_" class="st3" d="M393.59,439.96v-32.52h-5.62v-5.79h18.88v5.79h-5.51v32.52H393.59z"/>
	<path id="XMLID_76_" class="st3" d="M413.61,425.72v-24.07h7.75v23.84c0,1.36,0.01,2.35,0.02,2.97c0.01,0.62,0.05,1.37,0.11,2.26
		c0.06,0.89,0.16,1.51,0.3,1.86c0.14,0.36,0.34,0.74,0.58,1.15c0.25,0.41,0.57,0.68,0.97,0.81c0.4,0.13,0.88,0.19,1.45,0.19
		c0.57,0,1.05-0.06,1.45-0.19c0.4-0.13,0.72-0.39,0.97-0.8c0.25-0.4,0.44-0.78,0.59-1.14c0.14-0.35,0.24-0.97,0.3-1.84
		c0.06-0.87,0.09-1.61,0.11-2.21c0.01-0.6,0.02-1.58,0.02-2.93c0-0.06,0-0.1,0-0.13v-23.84h7.75v24.07c0,1.22-0.04,2.33-0.11,3.32
		c-0.07,0.99-0.21,2.02-0.4,3.09c-0.2,1.06-0.47,2-0.81,2.82c-0.34,0.82-0.79,1.6-1.36,2.34s-1.24,1.36-2.01,1.84
		s-1.71,0.87-2.8,1.15c-1.09,0.28-2.32,0.43-3.68,0.43s-2.59-0.14-3.68-0.43c-1.09-0.28-2.02-0.67-2.79-1.15
		c-0.77-0.48-1.43-1.1-2-1.84c-0.57-0.75-1.02-1.53-1.36-2.34c-0.34-0.82-0.61-1.76-0.82-2.82c-0.21-1.06-0.34-2.09-0.42-3.09
		C413.65,428.05,413.61,426.94,413.61,425.72z"/>
	<path id="XMLID_78_" class="st3" d="M444.71,439.96v-38.31h15.98v5.32h-8.24v10.43h5.83v5.45h-5.83v17.11H444.71z"/>
	<path id="XMLID_80_" class="st3" d="M467.28,439.96v-38.31h15.98v5.32h-8.24v10.43h5.83v5.45h-5.83v17.11H467.28z"/>
	<path id="XMLID_82_" class="st3" d="M502.95,439.96v-38.31h7.75v38.31H502.95z"/>
	<path id="XMLID_84_" class="st3" d="M519.61,439.96v-38.33h5.58l8.41,20.05v-20.05h6.43v38.33h-5.36l-8.39-21.26v21.26H519.61z"/>
	<path id="XMLID_86_" class="st3" d="M548.44,427.17v-12.68c0-9.05,3.7-13.58,11.11-13.58c1.56,0,2.95,0.21,4.16,0.63
		c1.21,0.42,2.23,1,3.05,1.73c0.82,0.74,1.5,1.65,2.03,2.72s0.92,2.25,1.15,3.51s0.35,2.65,0.35,4.17v3.3h-7.62v-3.53
		c0-0.7-0.01-1.29-0.04-1.8c-0.03-0.5-0.1-1.08-0.22-1.72c-0.12-0.65-0.28-1.17-0.49-1.58c-0.21-0.4-0.51-0.75-0.92-1.03
		c-0.4-0.28-0.89-0.43-1.46-0.43c-2.24,0-3.36,1.89-3.36,5.66v16.54c0,3.76,1.12,5.64,3.36,5.64c0.67,0,1.23-0.19,1.68-0.58
		s0.78-0.93,0.98-1.63c0.2-0.7,0.33-1.39,0.4-2.06c0.07-0.67,0.11-1.44,0.11-2.31v-3.94h7.58v3.24c-0.03,1.46-0.15,2.81-0.36,4.04
		s-0.57,2.43-1.08,3.6c-0.51,1.16-1.16,2.15-1.95,2.95c-0.79,0.8-1.81,1.45-3.05,1.94c-1.25,0.49-2.68,0.73-4.3,0.73
		c-1.66,0-3.13-0.24-4.42-0.71c-1.28-0.48-2.34-1.11-3.17-1.92s-1.51-1.79-2.05-2.96c-0.54-1.17-0.92-2.4-1.14-3.69
		C548.55,430.13,548.44,428.71,548.44,427.17z"/>
</g>
<linearGradient id="XMLID_117_" gradientUnits="userSpaceOnUse" x1="159.5116" y1="383.0333" x2="569.3994" y2="383.0333">
	<stop  offset="0" style="stop-color:#016734"/>
	<stop  offset="0.2418" style="stop-color:#2B7E35"/>
	<stop  offset="0.5496" style="stop-color:#4C9A33"/>
	<stop  offset="0.8132" style="stop-color:#61AD30"/>
	<stop  offset="1" style="stop-color:#69B42D"/>
</linearGradient>
<rect id="XMLID_21_" x="159.51" y="379.16" class="st4" width="409.89" height="7.74"/>
<linearGradient id="XMLID_118_" gradientUnits="userSpaceOnUse" x1="159.5116" y1="459.4612" x2="569.3994" y2="459.4612">
	<stop  offset="0" style="stop-color:#0D6B30"/>
	<stop  offset="0.2046" style="stop-color:#2B7E32"/>
	<stop  offset="0.5276" style="stop-color:#4C9A31"/>
	<stop  offset="0.8041" style="stop-color:#61AD2F"/>
	<stop  offset="1" style="stop-color:#69B42D"/>
</linearGradient>
<rect id="XMLID_20_" x="159.51" y="455.59" class="st5" width="409.89" height="7.74"/>
<linearGradient id="XMLID_119_" gradientUnits="userSpaceOnUse" x1="42.7817" y1="412.2472" x2="137.7824" y2="412.2472">
	<stop  offset="0" style="stop-color:#0D6B30"/>
	<stop  offset="0.2046" style="stop-color:#2B7E32"/>
	<stop  offset="0.5276" style="stop-color:#4C9A31"/>
	<stop  offset="0.8041" style="stop-color:#61AD2F"/>
	<stop  offset="1" style="stop-color:#69B42D"/>
</linearGradient>
<path id="XMLID_18_" class="st6" d="M51.6,360.94c0,0-33.18,72.5,29.21,87.12c0,0,8.87,10.71,16.6,15.4l0.32-1.47
	c0.01,0.53,0.03,1.05,0.08,1.55l3.01-0.9c0,0-0.01-33.02,22.13-54.74c0,0-15.07,20.32-17.23,41.01c0,0,16.64-1.99,20.85-15.56
	c3.94-12.66,0.73-30.19,11.21-39.22c0,0-55.25,11.65-37.4,53.4c0,0-2.18,6.44-2.6,12.37c-3.71-2.85-37.32-29.71-43.15-70.63
	c0,0,10.59,34.15,32.31,53.9c0,0,13.41-21.96-0.19-36.7C73.17,391.73,53.09,380.41,51.6,360.94"/>
<rect id="XMLID_17_" x="30.18" y="490.42" class="st7" width="552.91" height="99.91"/>
<text id="XMLID_16_" transform="matrix(1 0 0 1 68.8993 514.4478)">
	<tspan x="0" y="0" class="st8 st9 st10">A sales and distribution company</tspan>
</text>
</svg>
