<?xml version="1.0" encoding="utf-8"?>
<!-- Generator: Adobe Illustrator 21.1.0, SVG Export Plug-In . SVG Version: 6.00 Build 0)  -->
<svg version="1.1" id="Camada_1" xmlns="http://www.w3.org/2000/svg" xmlns:xlink="http://www.w3.org/1999/xlink" x="0px" y="0px"
	 viewBox="0 0 595.3 841.9" style="enable-background:new 0 0 595.3 841.9;" xml:space="preserve">
<style type="text/css">
	.st0{fill:url(#XMLID_5_);}
	.st1{fill:url(#XMLID_6_);}
	.st2{fill:url(#XMLID_7_);}
	.st3{font-family:'Oswald-Bold';}
	.st4{font-size:43.5891px;}
	.st5{letter-spacing:4;}
	.st6{fill:url(#XMLID_8_);}
	.st7{fill:url(#XMLID_9_);}
	.st8{fill:url(#XMLID_10_);}
	.st9{fill:none;}
	.st10{fill:#2B302E;}
	.st11{font-family:'Calibri';}
	.st12{font-size:35.4464px;}
	.st13{fill:url(#XMLID_11_);}
</style>
<text id="XMLID_22_" transform="matrix(1 0 0 1 158.1026 439.958)" class="st3 st4 st5">NATURAL STUFF INC</text>
<linearGradient id="XMLID_5_" gradientUnits="userSpaceOnUse" x1="159.5116" y1="383.0333" x2="569.3994" y2="383.0333">
	<stop  offset="0" style="stop-color:#0D6B30"/>
	<stop  offset="0.2046" style="stop-color:#2B7E32"/>
	<stop  offset="0.5276" style="stop-color:#4C9A31"/>
	<stop  offset="0.8041" style="stop-color:#61AD2F"/>
	<stop  offset="1" style="stop-color:#69B42D"/>
</linearGradient>
<rect id="XMLID_21_" x="159.5" y="379.2" class="st0" width="409.9" height="7.7"/>
<linearGradient id="XMLID_6_" gradientUnits="userSpaceOnUse" x1="159.5116" y1="459.4612" x2="569.3994" y2="459.4612">
	<stop  offset="0" style="stop-color:#0D6B30"/>
	<stop  offset="0.2046" style="stop-color:#2B7E32"/>
	<stop  offset="0.5276" style="stop-color:#4C9A31"/>
	<stop  offset="0.8041" style="stop-color:#61AD2F"/>
	<stop  offset="1" style="stop-color:#69B42D"/>
</linearGradient>
<rect id="XMLID_20_" x="159.5" y="455.6" class="st1" width="409.9" height="7.7"/>
<linearGradient id="XMLID_7_" gradientUnits="userSpaceOnUse" x1="42.7817" y1="412.2472" x2="137.7824" y2="412.2472">
	<stop  offset="0" style="stop-color:#0D6B30"/>
	<stop  offset="0.2046" style="stop-color:#2B7E32"/>
	<stop  offset="0.5276" style="stop-color:#4C9A31"/>
	<stop  offset="0.8041" style="stop-color:#61AD2F"/>
	<stop  offset="1" style="stop-color:#69B42D"/>
</linearGradient>
<path id="XMLID_18_" class="st2" d="M51.6,360.9c0,0-33.2,72.5,29.2,87.1c0,0,8.9,10.7,16.6,15.4l0.3-1.5c0,0.5,0,1.1,0.1,1.6l3-0.9
	c0,0,0-33,22.1-54.7c0,0-15.1,20.3-17.2,41c0,0,16.6-2,20.9-15.6c3.9-12.7,0.7-30.2,11.2-39.2c0,0-55.3,11.6-37.4,53.4
	c0,0-2.2,6.4-2.6,12.4c-3.7-2.9-37.3-29.7-43.1-70.6c0,0,10.6,34.1,32.3,53.9c0,0,13.4-22-0.2-36.7
	C73.2,391.7,53.1,380.4,51.6,360.9"/>
<rect id="XMLID_17_" x="30.2" y="490.4" class="st9" width="552.9" height="99.9"/>
<text id="XMLID_16_" transform="matrix(1 0 0 1 68.2245 514.4478)" class="st10 st11 st12">A sales and distribution company</text>
</svg>
