<svg id="Camada_1" data-name="Camada 1" xmlns="http://www.w3.org/2000/svg" xmlns:xlink="http://www.w3.org/1999/xlink" viewBox="0 0 595.28 841.89"><defs><style>.cls-1{fill:#436d2c;}.cls-2{fill:url(#linear-gradient);}.cls-3{fill:url(#linear-gradient-2);}.cls-4{fill:url(#linear-gradient-3);}.cls-5{fill:#2b302e;}</style><linearGradient id="linear-gradient" x1="130.52" y1="523.86" x2="469.78" y2="523.86" gradientUnits="userSpaceOnUse"><stop offset="0" stop-color="#0f6c31"/><stop offset="0.28" stop-color="#32882f"/><stop offset="0.57" stop-color="#50a02e"/><stop offset="0.82" stop-color="#62af2d"/><stop offset="1" stop-color="#69b42d"/></linearGradient><linearGradient id="linear-gradient-2" x1="130.52" y1="587.12" x2="469.78" y2="587.12" xlink:href="#linear-gradient"/><linearGradient id="linear-gradient-3" x1="160.06" y1="350.78" x2="411.47" y2="350.78" xlink:href="#linear-gradient"/></defs><title>logo</title><g id="_Group_" data-name="&lt;Group&gt;"><path class="cls-1" d="M131.24,571V539.25h4.62l7,16.59V539.25h5.32V571h-4.44l-6.94-17.6V571Z"/><path class="cls-1" d="M153.78,571l6.85-31.71h5.67L173.14,571h-6.32l-1.3-6.78h-4.14L160.14,571Zm8-10.73h3.28l-1.6-11.77Z"/><path class="cls-1" d="M180.93,571V544.06h-4.65v-4.79H191.9v4.79h-4.56V571Z"/><path class="cls-1" d="M197.5,559.19V539.27h6.41V559q0,1.69,0,2.46t.09,1.87a5.58,5.58,0,0,0,.25,1.54,6.6,6.6,0,0,0,.48,1,1.44,1.44,0,0,0,.8.67,4.62,4.62,0,0,0,2.4,0,1.46,1.46,0,0,0,.8-.66,6.34,6.34,0,0,0,.48-.94,5.58,5.58,0,0,0,.25-1.52q.07-1.08.09-1.83t0-2.42V539.27H216v19.92q0,1.51-.09,2.75a22.83,22.83,0,0,1-.33,2.55,11.62,11.62,0,0,1-.67,2.33,8.78,8.78,0,0,1-1.13,1.94,6.22,6.22,0,0,1-1.67,1.52,8.31,8.31,0,0,1-2.32,1,13.39,13.39,0,0,1-6.1,0,8.18,8.18,0,0,1-2.31-1,6.25,6.25,0,0,1-1.66-1.52,8.72,8.72,0,0,1-1.13-1.94,11.93,11.93,0,0,1-.68-2.33,21.51,21.51,0,0,1-.34-2.55Q197.5,560.71,197.5,559.19Z"/><path class="cls-1" d="M223.23,571V539.27h7a17.42,17.42,0,0,1,4.18.45,9.32,9.32,0,0,1,3.16,1.41,6,6,0,0,1,2.06,2.59,9.79,9.79,0,0,1,.7,3.9q0,1-.07,1.76a11.38,11.38,0,0,1-.33,1.77,7,7,0,0,1-.7,1.76,6.19,6.19,0,0,1-1.27,1.51,7.28,7.28,0,0,1-2,1.23q2.85,9.06,5,15.33h-6.64l-3.63-14.6h-1.06V571Zm6.41-18.51h1.83a1.79,1.79,0,0,0,1.27-.49,2.84,2.84,0,0,0,.77-1.25,9.41,9.41,0,0,0,.33-1.39,8,8,0,0,0,.1-1.2,8.8,8.8,0,0,0-.08-1.16,9.91,9.91,0,0,0-.28-1.33,2.67,2.67,0,0,0-.67-1.2,1.55,1.55,0,0,0-1.14-.47h-2.13Z"/><path class="cls-1" d="M244.88,571l6.85-31.71h5.67L264.24,571h-6.32l-1.3-6.78h-4.14L251.24,571Zm8-10.73h3.28l-1.6-11.77Z"/><path class="cls-1" d="M269.89,571V539.27h6.41v27.3h6.31V571Z"/><path class="cls-1" d="M298,561.9l6.5-1.25q0,1,0,1.71a13.19,13.19,0,0,0,.19,1.61,5.78,5.78,0,0,0,.41,1.43,2.57,2.57,0,0,0,.72.93,1.7,1.7,0,0,0,1.1.38q1.9,0,1.9-2.43,0-3.33-3.75-6.62l-2-1.69q-1-.79-1.51-1.32a18.13,18.13,0,0,1-1.33-1.43,9.3,9.3,0,0,1-1.2-1.74,10.21,10.21,0,0,1-1-4.52,7.88,7.88,0,0,1,2.45-6.1,9.24,9.24,0,0,1,6.5-2.25,7.74,7.74,0,0,1,5.72,2.4,7.93,7.93,0,0,1,2.36,5.78l0,.23v.53l-6.62.92q0-.19,0-.61c0-.28,0-.5,0-.68a8.12,8.12,0,0,0-.09-1.21,6.58,6.58,0,0,0-.29-1.16,2,2,0,0,0-.62-.92,1.57,1.57,0,0,0-1-.34,1.76,1.76,0,0,0-1.58.83,3.56,3.56,0,0,0-.53,2,5.48,5.48,0,0,0,.31,1.85,5.28,5.28,0,0,0,.93,1.61,13.94,13.94,0,0,0,1.15,1.24q.53.49,1.41,1.21t1.25,1a27.17,27.17,0,0,1,2.29,2.25,17.67,17.67,0,0,1,1.76,2.37,10.52,10.52,0,0,1,1.24,2.85,12.7,12.7,0,0,1,.41,3.31,7,7,0,0,1-2.38,5.45,8.37,8.37,0,0,1-5.78,2.12,9,9,0,0,1-3.91-.81,7.28,7.28,0,0,1-2.76-2.2,10.72,10.72,0,0,1-1.61-3.08A13.33,13.33,0,0,1,298,561.9Z"/><path class="cls-1" d="M324.26,571V544.06h-4.65v-4.79h15.63v4.79h-4.56V571Z"/><path class="cls-1" d="M340.83,559.19V539.27h6.41V559q0,1.69,0,2.46t.09,1.87a5.58,5.58,0,0,0,.25,1.54,6.55,6.55,0,0,0,.48,1,1.44,1.44,0,0,0,.8.67,4.61,4.61,0,0,0,2.4,0,1.46,1.46,0,0,0,.8-.66,6.43,6.43,0,0,0,.48-.94,5.57,5.57,0,0,0,.25-1.52q.07-1.08.09-1.83t0-2.42V539.27h6.41v19.92q0,1.51-.09,2.75a23.06,23.06,0,0,1-.33,2.55,11.62,11.62,0,0,1-.67,2.33,8.72,8.72,0,0,1-1.13,1.94,6.22,6.22,0,0,1-1.67,1.52,8.31,8.31,0,0,1-2.32,1,13.38,13.38,0,0,1-6.09,0,8.18,8.18,0,0,1-2.31-1,6.27,6.27,0,0,1-1.66-1.52,8.76,8.76,0,0,1-1.13-1.94,12,12,0,0,1-.68-2.33,21.41,21.41,0,0,1-.34-2.55Q340.83,560.71,340.83,559.19Z"/><path class="cls-1" d="M366.57,571V539.27H379.8v4.4H373v8.63h4.83v4.51H373V571Z"/><path class="cls-1" d="M385.26,571V539.27h13.23v4.4h-6.82v8.63h4.83v4.51h-4.83V571Z"/><path class="cls-1" d="M414.77,571V539.27h6.41V571Z"/><path class="cls-1" d="M428.56,571V539.25h4.62l7,16.59V539.25h5.32V571H441l-6.94-17.6V571Z"/><path class="cls-1" d="M452.43,560.39v-10.5q0-11.24,9.2-11.24a10.53,10.53,0,0,1,3.44.52,7,7,0,0,1,4.21,3.69,11.13,11.13,0,0,1,1,2.91,19,19,0,0,1,.29,3.45V552h-6.31V549q0-.86,0-1.49a11.36,11.36,0,0,0-.18-1.43,4.9,4.9,0,0,0-.41-1.3,2.34,2.34,0,0,0-.76-.85,2,2,0,0,0-1.21-.35q-2.78,0-2.78,4.69V562q0,4.67,2.78,4.67a2.08,2.08,0,0,0,1.39-.48,2.65,2.65,0,0,0,.81-1.35,10.12,10.12,0,0,0,.33-1.71,18.49,18.49,0,0,0,.09-1.91v-3.26h6.27v2.68a22.33,22.33,0,0,1-.3,3.35,12.8,12.8,0,0,1-.9,3,8,8,0,0,1-1.61,2.44,7.12,7.12,0,0,1-2.53,1.6,9.69,9.69,0,0,1-3.56.61A10.49,10.49,0,0,1,458,571a7.43,7.43,0,0,1-2.62-1.58,8,8,0,0,1-1.7-2.45,12.12,12.12,0,0,1-.94-3.06A21,21,0,0,1,452.43,560.39Z"/><rect id="_Rectangle_" data-name="&lt;Rectangle&gt;" class="cls-2" x="130.52" y="520.66" width="339.26" height="6.41"/><rect id="_Rectangle_2" data-name="&lt;Rectangle&gt;" class="cls-3" x="130.52" y="583.92" width="339.26" height="6.41"/><path id="_Path_" data-name="&lt;Path&gt;" class="cls-4" d="M312.51,444.18s-5.78,17.05-6.87,32.73c-9.81-7.54-98.77-78.62-114.18-186.91,0,0,28,90.37,85.5,142.65,0,0,35.48-58.11-.5-97.13s-89.12-69-93.07-120.52c0,0-87.81,191.86,77.3,230.56,0,0,23.48,28.35,43.92,40.77l.85-3.88c0,1.41.08,2.78.21,4.11l8-2.39s0-87.39,58.56-144.86c0,0-39.89,53.76-45.59,108.52,0,0,44-5.26,55.19-41.18,10.42-33.51,1.93-79.89,29.67-103.78C411.47,302.87,265.25,333.69,312.51,444.18Z"/></g><path class="cls-5" d="M50.58,628.47H47.51l-3-7.1H32.38l-3,7.1H26.31L36.7,604h3.48Zm-7.14-9.66-5-12-5,12Z"/><path class="cls-5" d="M71.85,614.93Q71.48,612,67.21,612t-4.27,2.66a1.87,1.87,0,0,0,.91,1.68,8.31,8.31,0,0,0,2.28.94q1.37.37,3,.68a15.32,15.32,0,0,1,3,.89,6.32,6.32,0,0,1,2.28,1.57,3.92,3.92,0,0,1,.91,2.74,4.72,4.72,0,0,1-2,4.13,9.46,9.46,0,0,1-5.51,1.42,8.8,8.8,0,0,1-5.88-1.85,5.66,5.66,0,0,1-2.15-4.25h2.89a3.85,3.85,0,0,0,2.89,3.44,6.42,6.42,0,0,0,1.91.3,13.17,13.17,0,0,0,1.76-.11,7.2,7.2,0,0,0,1.59-.41,2.46,2.46,0,0,0,1.78-2.41,2,2,0,0,0-.91-1.76,8,8,0,0,0-2.28-1q-1.37-.39-3-.7a16.17,16.17,0,0,1-3-.87,6.35,6.35,0,0,1-2.28-1.52,3.73,3.73,0,0,1-.91-2.66,4.61,4.61,0,0,1,1.83-3.9,8.89,8.89,0,0,1,5.42-1.39,8.15,8.15,0,0,1,5.37,1.63,5.35,5.35,0,0,1,1.89,3.63Z"/><path class="cls-5" d="M93.24,625.51a7.49,7.49,0,0,1-6.62,3.26A8.38,8.38,0,0,1,80.11,626a10.61,10.61,0,0,1,0-13.54,8.6,8.6,0,0,1,6.7-2.77A7.34,7.34,0,0,1,93.24,613v-3H96v18.5H93.24Zm-6.25.74a5.86,5.86,0,0,0,4.74-2.07,8.21,8.21,0,0,0,0-9.92A5.86,5.86,0,0,0,87,612.19a6.15,6.15,0,0,0-4.81,2.07,7.94,7.94,0,0,0,0,9.92A6.14,6.14,0,0,0,87,626.25Z"/><path class="cls-5" d="M103.6,628.47h-2.78v-25.9h2.78Z"/><path class="cls-5" d="M116.66,626.25a5.6,5.6,0,0,0,5.37-3.11h3a8.93,8.93,0,0,1-3.05,4.07,8.79,8.79,0,0,1-5.38,1.55,9,9,0,0,1-6.81-2.77,9.47,9.47,0,0,1-2.55-6.77,9.63,9.63,0,0,1,2.44-6.77,9.56,9.56,0,0,1,13.47,0,9.63,9.63,0,0,1,2.44,6.77v1.11h-15.5a6.72,6.72,0,0,0,2,4.22A6.26,6.26,0,0,0,116.66,626.25Zm-.22-14.06a6.13,6.13,0,0,0-4.29,1.59,6.57,6.57,0,0,0-2,4h12.58a6.58,6.58,0,0,0-2-4A6.13,6.13,0,0,0,116.44,612.19Z"/><path class="cls-5" d="M139.9,614.93q-.37-2.89-4.64-2.89T131,614.71a1.87,1.87,0,0,0,.91,1.68,8.31,8.31,0,0,0,2.28.94q1.37.37,3,.68a15.32,15.32,0,0,1,3,.89,6.32,6.32,0,0,1,2.28,1.57,3.92,3.92,0,0,1,.91,2.74,4.72,4.72,0,0,1-2,4.13,9.46,9.46,0,0,1-5.51,1.42,8.8,8.8,0,0,1-5.88-1.85,5.66,5.66,0,0,1-2.15-4.25h2.89a3.85,3.85,0,0,0,2.89,3.44,6.42,6.42,0,0,0,1.91.3,13.17,13.17,0,0,0,1.76-.11,7.2,7.2,0,0,0,1.59-.41,2.46,2.46,0,0,0,1.78-2.41,2,2,0,0,0-.91-1.76,8,8,0,0,0-2.28-1q-1.37-.39-3-.7a16.17,16.17,0,0,1-3-.87,6.35,6.35,0,0,1-2.28-1.52,3.73,3.73,0,0,1-.91-2.66,4.61,4.61,0,0,1,1.83-3.9,8.89,8.89,0,0,1,5.42-1.39,8.15,8.15,0,0,1,5.37,1.63,5.35,5.35,0,0,1,1.89,3.63Z"/><path class="cls-5" d="M169.16,625.51a7.49,7.49,0,0,1-6.62,3.26A8.38,8.38,0,0,1,156,626a10.61,10.61,0,0,1,0-13.54,8.6,8.6,0,0,1,6.7-2.77,7.34,7.34,0,0,1,6.44,3.29v-3h2.77v18.5h-2.77Zm-6.25.74a5.86,5.86,0,0,0,4.74-2.07,8.21,8.21,0,0,0,0-9.92,5.86,5.86,0,0,0-4.74-2.07,6.15,6.15,0,0,0-4.81,2.07,7.94,7.94,0,0,0,0,9.92A6.14,6.14,0,0,0,162.91,626.25Z"/><path class="cls-5" d="M179.52,610v2.89A9.3,9.3,0,0,1,182,610.6a6,6,0,0,1,3.29-.92,8.79,8.79,0,0,1,3.18.52,6.46,6.46,0,0,1,2.33,1.55,8,8,0,0,1,2.29,6v10.77h-2.78V617.78a5.66,5.66,0,0,0-1.44-4.07,4.92,4.92,0,0,0-3.74-1.52,5.52,5.52,0,0,0-4,1.55,5.44,5.44,0,0,0-1.63,4.07v10.66h-2.78V610Z"/><path class="cls-5" d="M212.12,625.51a7.49,7.49,0,0,1-6.62,3.26A8.38,8.38,0,0,1,199,626a10.61,10.61,0,0,1,0-13.54,8.6,8.6,0,0,1,6.7-2.77,7.34,7.34,0,0,1,6.44,3.29v-10.4h2.77v25.9h-2.77Zm-6.25.74a5.86,5.86,0,0,0,4.74-2.07,8.21,8.21,0,0,0,0-9.92,5.86,5.86,0,0,0-4.74-2.07,6.15,6.15,0,0,0-4.81,2.07,7.94,7.94,0,0,0,0,9.92A6.14,6.14,0,0,0,205.87,626.25Z"/><path class="cls-5" d="M242,625.51a7.49,7.49,0,0,1-6.62,3.26,8.38,8.38,0,0,1-6.51-2.77,10.61,10.61,0,0,1,0-13.54,8.6,8.6,0,0,1,6.7-2.77A7.34,7.34,0,0,1,242,613v-10.4h2.77v25.9H242Zm-6.25.74a5.86,5.86,0,0,0,4.74-2.07,8.21,8.21,0,0,0,0-9.92,5.86,5.86,0,0,0-4.74-2.07,6.15,6.15,0,0,0-4.81,2.07,7.94,7.94,0,0,0,0,9.92A6.14,6.14,0,0,0,235.76,626.25Z"/><path class="cls-5" d="M252.49,603.24v3.63h-3v-3.63ZM249.6,610h2.78v18.5H249.6Z"/><path class="cls-5" d="M268.06,614.93q-.37-2.89-4.64-2.89t-4.27,2.66a1.87,1.87,0,0,0,.91,1.68,8.31,8.31,0,0,0,2.28.94q1.37.37,3,.68a15.32,15.32,0,0,1,3,.89,6.32,6.32,0,0,1,2.28,1.57,3.92,3.92,0,0,1,.91,2.74,4.72,4.72,0,0,1-2,4.13,9.46,9.46,0,0,1-5.51,1.42,8.8,8.8,0,0,1-5.88-1.85,5.66,5.66,0,0,1-2.15-4.25h2.89a3.85,3.85,0,0,0,2.89,3.44,6.42,6.42,0,0,0,1.91.3,13.17,13.17,0,0,0,1.76-.11,7.2,7.2,0,0,0,1.59-.41,2.46,2.46,0,0,0,1.78-2.41,2,2,0,0,0-.91-1.76,8,8,0,0,0-2.28-1q-1.37-.39-3-.7a16.17,16.17,0,0,1-3-.87,6.35,6.35,0,0,1-2.28-1.52,3.73,3.73,0,0,1-.91-2.66,4.61,4.61,0,0,1,1.83-3.9,8.89,8.89,0,0,1,5.42-1.39A8.15,8.15,0,0,1,269,611.3a5.35,5.35,0,0,1,1.89,3.63Z"/><path class="cls-5" d="M277,628.47V612.41h-3.77V610H277v-6.62h2.78V610H284v2.44h-4.25v16.06Z"/><path class="cls-5" d="M296.85,609.67v2.77h-.33a5.93,5.93,0,0,0-4.88,2.41,8.68,8.68,0,0,0-1.78,5.48v8.14h-2.78V610h2.78v4.55a7,7,0,0,1,6.81-4.85Z"/><path class="cls-5" d="M302.73,603.24v3.63h-3v-3.63ZM299.84,610h2.77v18.5h-2.77Z"/><path class="cls-5" d="M310.2,613a7.52,7.52,0,0,1,6.62-3.29,8.27,8.27,0,0,1,6.48,2.77,10.49,10.49,0,0,1,0,13.54,8.51,8.51,0,0,1-6.68,2.77,7.29,7.29,0,0,1-6.42-3.26v3h-2.77v-25.9h2.77Zm6.25,13.28a6.15,6.15,0,0,0,4.81-2.07,7.94,7.94,0,0,0,0-9.92,6.15,6.15,0,0,0-4.81-2.07,5.86,5.86,0,0,0-4.74,2.07,8.21,8.21,0,0,0,0,9.92A5.85,5.85,0,0,0,316.46,626.25Z"/><path class="cls-5" d="M342.76,628.47v-2.89a9.28,9.28,0,0,1-2.44,2.26,6,6,0,0,1-3.29.92,8.79,8.79,0,0,1-3.18-.52,6.45,6.45,0,0,1-2.33-1.55,8,8,0,0,1-2.29-6V610H332v10.69a5.66,5.66,0,0,0,1.44,4.07,4.92,4.92,0,0,0,3.74,1.52,5.52,5.52,0,0,0,4-1.55,5.44,5.44,0,0,0,1.63-4.07V610h2.78v18.5Z"/><path class="cls-5" d="M352.35,628.47V612.41h-3.77V610h3.77v-6.62h2.77V610h4.25v2.44h-4.25v16.06Z"/><path class="cls-5" d="M365.3,603.24v3.63h-3v-3.63ZM362.41,610h2.77v18.5h-2.77Z"/><path class="cls-5" d="M378,609.67a8.79,8.79,0,0,1,6.73,2.77,10.61,10.61,0,0,1,0,13.54,9.56,9.56,0,0,1-13.47,0,10.61,10.61,0,0,1,0-13.54A8.79,8.79,0,0,1,378,609.67Zm0,16.58a5.86,5.86,0,0,0,4.74-2.07,8.21,8.21,0,0,0,0-9.92,6.45,6.45,0,0,0-9.47,0,8.21,8.21,0,0,0,0,9.92A5.85,5.85,0,0,0,378,626.25Z"/><path class="cls-5" d="M393.64,610v2.89a9.3,9.3,0,0,1,2.44-2.26,6,6,0,0,1,3.29-.92,8.79,8.79,0,0,1,3.18.52,6.45,6.45,0,0,1,2.33,1.55,8,8,0,0,1,2.29,6v10.77h-2.77V617.78a5.66,5.66,0,0,0-1.44-4.07,4.93,4.93,0,0,0-3.74-1.52,5.52,5.52,0,0,0-4,1.55,5.45,5.45,0,0,0-1.63,4.07v10.66h-2.77V610Z"/><path class="cls-5" d="M428.23,626.25a5.19,5.19,0,0,0,3.14-1,5.77,5.77,0,0,0,2-2.59h3a8.44,8.44,0,0,1-3.11,4.4,9.38,9.38,0,0,1-5.62,1.7A8.59,8.59,0,0,1,421,626a10.49,10.49,0,0,1,0-13.54,8.59,8.59,0,0,1,6.62-2.77,9.38,9.38,0,0,1,5.62,1.7,8.44,8.44,0,0,1,3.11,4.4h-3a5.77,5.77,0,0,0-2-2.59,5.19,5.19,0,0,0-3.14-1,7.35,7.35,0,0,0-3,.56,6,6,0,0,0-2.09,1.52,7.69,7.69,0,0,0,0,9.92A6.49,6.49,0,0,0,428.23,626.25Z"/><path class="cls-5" d="M447.84,609.67a8.79,8.79,0,0,1,6.73,2.77,10.61,10.61,0,0,1,0,13.54,9.56,9.56,0,0,1-13.47,0,10.61,10.61,0,0,1,0-13.54A8.79,8.79,0,0,1,447.84,609.67Zm0,16.58a5.86,5.86,0,0,0,4.74-2.07,8.21,8.21,0,0,0,0-9.92,6.45,6.45,0,0,0-9.47,0,8.21,8.21,0,0,0,0,9.92A5.85,5.85,0,0,0,447.84,626.25Z"/><path class="cls-5" d="M463.46,612.78a6.11,6.11,0,0,1,5.62-3.11,6.35,6.35,0,0,1,3.42,1,6.69,6.69,0,0,1,2.46,2.76,7.11,7.11,0,0,1,3.92-3.33,6.78,6.78,0,0,1,2.42-.41,6.46,6.46,0,0,1,2.59.54,6.78,6.78,0,0,1,2.2,1.54,7.82,7.82,0,0,1,2.07,5.55v11.17H485.4v-11.1a5.52,5.52,0,0,0-1.29-3.77,4.28,4.28,0,0,0-3.29-1.41,4.84,4.84,0,0,0-3.52,1.37,5.05,5.05,0,0,0-1.48,3.85v11.06H473v-11.1a5.52,5.52,0,0,0-1.29-3.77,4.28,4.28,0,0,0-3.29-1.41,4.84,4.84,0,0,0-3.51,1.37,5.05,5.05,0,0,0-1.48,3.85v11.06h-2.77V610h2.77Z"/><path class="cls-5" d="M495.57,612.93a7.49,7.49,0,0,1,6.62-3.26,8.27,8.27,0,0,1,6.48,2.77,10.49,10.49,0,0,1,0,13.54,8.49,8.49,0,0,1-6.66,2.77,7.34,7.34,0,0,1-6.44-3.29V635.8H492.8V610h2.77Zm6.25-.74a5.86,5.86,0,0,0-4.74,2.07,8.21,8.21,0,0,0,0,9.92,5.85,5.85,0,0,0,4.74,2.07,6.15,6.15,0,0,0,4.81-2.07,7.94,7.94,0,0,0,0-9.92A6.15,6.15,0,0,0,501.83,612.19Z"/><path class="cls-5" d="M529.21,625.51a7.49,7.49,0,0,1-6.62,3.26,8.38,8.38,0,0,1-6.51-2.77,10.61,10.61,0,0,1,0-13.54,8.6,8.6,0,0,1,6.7-2.77,7.34,7.34,0,0,1,6.44,3.29v-3H532v18.5h-2.78Zm-6.25.74a5.86,5.86,0,0,0,4.74-2.07,8.21,8.21,0,0,0,0-9.92,5.86,5.86,0,0,0-4.74-2.07,6.15,6.15,0,0,0-4.81,2.07,7.94,7.94,0,0,0,0,9.92A6.14,6.14,0,0,0,523,626.25Z"/><path class="cls-5" d="M539.56,610v2.89A9.3,9.3,0,0,1,542,610.6a6,6,0,0,1,3.29-.92,8.79,8.79,0,0,1,3.18.52,6.45,6.45,0,0,1,2.33,1.55,8,8,0,0,1,2.29,6v10.77h-2.77V617.78a5.66,5.66,0,0,0-1.44-4.07,4.93,4.93,0,0,0-3.74-1.52,5.52,5.52,0,0,0-4,1.55,5.45,5.45,0,0,0-1.63,4.07v10.66h-2.77V610Z"/><path class="cls-5" d="M562.17,635.8h-3l3.37-7.58L555,610h3.07l6,15.17L570.09,610h3Z"/></svg>