<?xml version="1.0" encoding="utf-8"?>
<!-- Generator: Adobe Illustrator 22.0.1, SVG Export Plug-In . SVG Version: 6.00 Build 0)  -->
<svg version="1.1" id="Camada_1" xmlns="http://www.w3.org/2000/svg" xmlns:xlink="http://www.w3.org/1999/xlink" x="0px" y="0px"
	 viewBox="0 0 528.3 159.3" style="enable-background:new 0 0 528.3 159.3;" xml:space="preserve">
<style type="text/css">
	.st0{fill:none;}
	.st1{fill:#2B302E;}
	.st2{fill:#FFFFFF;}
</style>
<g id="XMLID_38_">
	<g>
		<path d="M-526.3,210.5v-29.2h4.5l6,14v-14h5.4v29.2h-4.4l-6-15.1v15.1H-526.3z"/>
		<path d="M-504.5,210.5l5.5-29.2h7.3l5.5,29.2h-6l-1-6.2h-4.3l-1,6.2H-504.5z M-496.8,200.5h3.1l-1.6-11.3L-496.8,200.5z"/>
		<path d="M-478.3,210.5v-24.4h-4.5v-4.8h15.4v4.8h-4.4v24.4H-478.3z"/>
		<path d="M-453.5,210.9c-1.3,0-2.5-0.1-3.5-0.4s-1.8-0.7-2.5-1.2s-1.2-1.2-1.6-2s-0.7-1.7-0.9-2.7s-0.2-2.1-0.2-3.4v-20h6.4v21
			c0,0.5,0,0.8,0,1.2c0,0.3,0.1,0.7,0.2,1s0.2,0.7,0.4,0.9c0.2,0.2,0.4,0.4,0.7,0.6c0.3,0.2,0.6,0.2,1,0.2s0.7-0.1,1-0.2
			s0.5-0.4,0.7-0.6c0.2-0.2,0.3-0.5,0.4-0.9s0.1-0.7,0.2-1.1c0-0.3,0-0.7,0-1.2v-21h6.4v20c0,1.6-0.1,3-0.4,4.1s-0.7,2.1-1.4,3
			c-0.6,0.8-1.5,1.5-2.7,1.9C-450.4,210.7-451.8,210.9-453.5,210.9z"/>
		<path d="M-437.7,210.5v-29.2h8c1.2,0,2.3,0.1,3.3,0.2s1.8,0.4,2.7,0.7c0.8,0.4,1.5,0.8,2.1,1.4s1,1.3,1.3,2.2s0.5,2,0.5,3.2
			c0,1.9-0.3,3.5-0.8,4.6c-0.5,1.2-1.5,2.1-2.8,2.7l4,14.1h-6.7l-3.2-13.1h-1.8v13.1h-6.6V210.5z M-431.3,193.8h1.7
			c1.3,0,2.2-0.3,2.8-1c0.5-0.7,0.8-1.7,0.8-3.1c0-1.4-0.2-2.4-0.7-3c-0.5-0.7-1.3-1-2.5-1h-2L-431.3,193.8L-431.3,193.8z"/>
		<path d="M-414.6,210.5l5.5-29.2h7.3l5.5,29.2h-6l-1-6.2h-4.3l-1,6.2H-414.6z M-406.9,200.5h3.1l-1.6-11.3L-406.9,200.5z"/>
		<path d="M-390.3,210.5v-29.2h6.4v24.8h6.7v4.4H-390.3z"/>
		<path d="M-351.4,210.9c-2.8,0-4.8-0.7-6.2-2.2s-2.1-3.8-2.2-7.1l5.5-0.8c0,1.8,0.2,3.2,0.7,4c0.4,0.8,1,1.2,1.9,1.2
			c1.1,0,1.6-0.7,1.6-2.1c0-0.8-0.1-1.5-0.4-2.2s-0.6-1.2-1-1.7s-1-1-1.7-1.7l-2.6-2.2c-0.6-0.5-1.1-1-1.5-1.5s-0.8-1-1.2-1.6
			c-0.4-0.6-0.7-1.3-0.9-2.1s-0.3-1.6-0.3-2.5c0-2.4,0.7-4.3,2.2-5.6s3.5-2,6-2c0.9,0,1.7,0.1,2.4,0.3c0.7,0.2,1.3,0.4,1.8,0.7
			s0.9,0.7,1.3,1.2s0.7,0.9,0.9,1.4c0.2,0.5,0.4,1,0.5,1.6s0.2,1.1,0.3,1.6c0.1,0.5,0.1,1,0.1,1.6l-5.6,0.7c0-0.5,0-0.9,0-1.2
			s0-0.7-0.1-1c0-0.4-0.1-0.7-0.2-0.9s-0.2-0.4-0.3-0.6c-0.1-0.2-0.3-0.3-0.5-0.4c-0.2-0.1-0.4-0.1-0.7-0.1c-0.6,0-1,0.2-1.3,0.7
			s-0.4,1-0.4,1.6s0.1,1.1,0.2,1.5c0.1,0.5,0.4,0.9,0.7,1.3c0.3,0.4,0.6,0.7,0.8,1c0.2,0.2,0.6,0.5,1.1,1l2.5,2.2
			c0.7,0.6,1.3,1.2,1.8,1.8s1,1.2,1.4,1.9s0.8,1.5,1,2.3c0.2,0.9,0.3,1.8,0.3,2.7c0,2.1-0.7,3.9-2.1,5.3
			C-347.2,210.2-349.1,210.9-351.4,210.9z"/>
		<path d="M-334.9,210.5v-24.4h-4.5v-4.8h15.4v4.8h-4.4v24.4H-334.9z"/>
		<path d="M-310,210.9c-1.3,0-2.5-0.1-3.5-0.4s-1.8-0.7-2.5-1.2s-1.2-1.2-1.6-2s-0.7-1.7-0.9-2.7s-0.2-2.1-0.2-3.4v-20h6.4v21
			c0,0.5,0,0.8,0,1.2c0,0.3,0.1,0.7,0.2,1s0.2,0.7,0.4,0.9c0.2,0.2,0.4,0.4,0.7,0.6c0.3,0.2,0.6,0.2,1,0.2s0.7-0.1,1-0.2
			s0.5-0.4,0.7-0.6c0.2-0.2,0.3-0.5,0.4-0.9s0.1-0.7,0.2-1.1c0-0.3,0-0.7,0-1.2v-21h6.4v20c0,1.6-0.1,3-0.4,4.1s-0.7,2.1-1.4,3
			c-0.6,0.8-1.5,1.5-2.7,1.9C-307,210.7-308.4,210.9-310,210.9z"/>
		<path d="M-294.3,210.5v-29.2h12.6v4.4h-6.2v7.3h5.3v4.5h-5.3v13H-294.3z"/>
		<path d="M-275.7,210.5v-29.2h12.6v4.4h-6.2v7.3h5.3v4.5h-5.3v13H-275.7z"/>
		<path d="M-244.8,210.5v-29.2h6.4v29.2H-244.8z"/>
		<path d="M-231,210.5v-29.2h4.5l6,14v-14h5.4v29.2h-4.4l-6-15.1v15.1H-231z"/>
		<path d="M-199.4,210.9c-1.6,0-3-0.2-4.2-0.7s-2.1-1.1-2.7-2c-0.7-0.9-1.1-1.9-1.4-3c-0.3-1.2-0.4-2.5-0.4-4.1v-10.4
			c0-1.6,0.1-3,0.4-4.1c0.3-1.2,0.8-2.2,1.4-3.1c0.7-0.9,1.6-1.5,2.7-2s2.5-0.7,4.2-0.7c1.6,0,2.9,0.2,4,0.6c1.1,0.4,2,1,2.6,1.8
			s1.1,1.7,1.4,2.6c0.3,1,0.4,2.1,0.4,3.4v2.6h-6.3V189c0-0.5,0-0.8,0-1s-0.1-0.5-0.1-0.9c-0.1-0.4-0.2-0.6-0.3-0.8
			s-0.3-0.4-0.6-0.5s-0.6-0.2-1-0.2s-0.7,0.1-1,0.2c-0.3,0.1-0.5,0.3-0.6,0.5s-0.3,0.5-0.4,0.8s-0.1,0.7-0.2,1c0,0.3,0,0.7,0,1.1
			v13.6c0,1.2,0.2,2.1,0.5,2.7c0.3,0.6,0.9,0.9,1.7,0.9c0.4,0,0.7-0.1,1-0.2c0.3-0.1,0.5-0.3,0.6-0.5s0.2-0.5,0.3-0.8
			c0.1-0.4,0.1-0.7,0.1-1s0-0.6,0-1.1v-3.1h6.3v2.5c0,1-0.1,2-0.2,2.8c-0.2,0.8-0.4,1.6-0.8,2.4c-0.4,0.7-0.9,1.4-1.5,1.9
			s-1.4,0.9-2.4,1.2C-197,210.8-198.2,210.9-199.4,210.9z"/>
	</g>
	
		<image style="overflow:visible;enable-background:new    ;" width="340" height="8" id="XMLID_74_" xlink:href="99C4EDAAF350B9F3.png"  transform="matrix(1 0 0 1 -527.4723 159.4518)">
	</image>
	
		<image style="overflow:visible;enable-background:new    ;" width="340" height="7" id="XMLID_73_" xlink:href="99C4EDAAF350B9F1.png"  transform="matrix(1 0 0 1 -527.4723 223.4518)">
	</image>
	
		<image style="overflow:visible;enable-background:new    ;" width="253" height="272" id="XMLID_19_" xlink:href="99C4EDAAF350B9F7.png"  transform="matrix(1 0 0 1 -498.4723 -145.5482)">
	</image>
</g>
<rect id="XMLID_1_" x="-646.6" y="242.1" class="st0" width="577.1" height="104.3"/>
<g>
	<path class="st1" d="M-585.6,266.1c0.1,0.3,0.1,0.5,0.2,0.6c0,0.2,0,0.3-0.1,0.4s-0.3,0.1-0.5,0.2c-0.2,0-0.5,0-0.9,0s-0.7,0-0.9,0
		s-0.4,0-0.5-0.1c-0.1,0-0.2-0.1-0.3-0.2s-0.1-0.2-0.2-0.3l-2-5.7h-9.7l-1.9,5.6c0,0.1-0.1,0.2-0.1,0.3c-0.1,0.1-0.1,0.1-0.3,0.2
		c-0.1,0.1-0.3,0.1-0.5,0.1s-0.5,0-0.8,0s-0.6,0-0.9,0c-0.2,0-0.4-0.1-0.5-0.2s-0.1-0.2-0.1-0.4c0-0.2,0.1-0.4,0.2-0.6l7.8-21.7
		c0-0.1,0.1-0.2,0.2-0.3c0.1-0.1,0.2-0.2,0.3-0.2c0.2,0,0.3-0.1,0.6-0.1c0.2,0,0.5,0,0.9,0s0.7,0,1,0s0.5,0.1,0.6,0.1
		c0.2,0,0.3,0.1,0.4,0.2c0.1,0.1,0.2,0.2,0.2,0.3L-585.6,266.1z M-595.7,246.9L-595.7,246.9l-4,11.7h8.1L-595.7,246.9z"/>
	<path class="st1" d="M-563.5,262.3c0,0.8-0.2,1.6-0.5,2.2c-0.3,0.7-0.7,1.2-1.3,1.6s-1.2,0.8-2,1s-1.6,0.3-2.6,0.3
		c-0.6,0-1.1,0-1.7-0.1c-0.5-0.1-1-0.2-1.4-0.3c-0.4-0.1-0.8-0.3-1.1-0.4c-0.3-0.2-0.5-0.3-0.6-0.4s-0.2-0.3-0.3-0.5
		s-0.1-0.5-0.1-0.9c0-0.2,0-0.4,0-0.6s0.1-0.3,0.1-0.4s0.1-0.2,0.2-0.2c0.1,0,0.1-0.1,0.2-0.1c0.1,0,0.3,0.1,0.6,0.2
		c0.3,0.2,0.6,0.3,1,0.5s0.8,0.4,1.3,0.5c0.5,0.2,1.1,0.2,1.8,0.2c0.5,0,1-0.1,1.4-0.2s0.8-0.3,1.1-0.5s0.5-0.5,0.7-0.8
		s0.2-0.7,0.2-1.2s-0.1-0.8-0.4-1.2c-0.2-0.3-0.5-0.6-0.9-0.8c-0.4-0.2-0.8-0.5-1.3-0.6c-0.5-0.2-1-0.4-1.5-0.6s-1-0.4-1.5-0.7
		c-0.5-0.3-0.9-0.6-1.3-0.9c-0.4-0.4-0.7-0.8-0.9-1.3c-0.2-0.5-0.4-1.1-0.4-1.9c0-0.6,0.1-1.2,0.4-1.8c0.2-0.6,0.6-1.1,1.1-1.5
		s1.1-0.8,1.9-1.1c0.7-0.3,1.6-0.4,2.6-0.4c0.4,0,0.9,0,1.3,0.1s0.8,0.2,1.2,0.3c0.3,0.1,0.6,0.2,0.9,0.4c0.2,0.1,0.4,0.2,0.6,0.3
		c0.1,0.1,0.2,0.2,0.3,0.3c0,0.1,0.1,0.2,0.1,0.2c0,0.1,0,0.2,0.1,0.3c0,0.1,0,0.3,0,0.5s0,0.4,0,0.5c0,0.2,0,0.3-0.1,0.4
		c0,0.1-0.1,0.2-0.2,0.2c-0.1,0-0.1,0.1-0.2,0.1c-0.1,0-0.3-0.1-0.5-0.2c-0.2-0.1-0.5-0.3-0.8-0.4c-0.3-0.2-0.7-0.3-1.1-0.4
		c-0.4-0.1-0.9-0.2-1.5-0.2c-0.5,0-1,0.1-1.3,0.2c-0.4,0.1-0.7,0.3-0.9,0.5s-0.4,0.5-0.6,0.8c-0.1,0.3-0.2,0.6-0.2,0.9
		c0,0.5,0.1,0.9,0.4,1.2c0.2,0.3,0.6,0.6,0.9,0.8c0.4,0.2,0.8,0.5,1.3,0.7s1,0.4,1.5,0.6s1,0.4,1.5,0.7c0.5,0.3,0.9,0.6,1.3,0.9
		c0.4,0.4,0.7,0.8,0.9,1.3C-563.6,261-563.5,261.6-563.5,262.3z"/>
	<path class="st1" d="M-547,266.8c0,0.1,0,0.3-0.1,0.3c-0.1,0.1-0.2,0.1-0.4,0.2c-0.2,0-0.4,0.1-0.7,0.1s-0.6,0-0.8-0.1
		c-0.2,0-0.3-0.1-0.4-0.2c-0.1-0.1-0.1-0.2-0.1-0.3v-1.6c-0.7,0.8-1.5,1.3-2.4,1.8c-0.9,0.4-1.8,0.6-2.8,0.6c-0.9,0-1.6-0.1-2.3-0.3
		c-0.7-0.2-1.3-0.5-1.8-1c-0.5-0.4-0.9-0.9-1.1-1.6c-0.3-0.6-0.4-1.3-0.4-2.1c0-0.9,0.2-1.7,0.6-2.4c0.4-0.7,0.9-1.2,1.6-1.7
		c0.7-0.4,1.6-0.8,2.6-1s2.1-0.3,3.4-0.3h2.2v-1.3c0-0.6-0.1-1.2-0.2-1.7c-0.1-0.5-0.3-0.9-0.6-1.2s-0.7-0.6-1.1-0.7
		c-0.5-0.2-1-0.2-1.7-0.2s-1.4,0.1-2,0.3c-0.6,0.2-1.1,0.4-1.5,0.6c-0.4,0.2-0.8,0.4-1.1,0.6c-0.3,0.2-0.5,0.3-0.7,0.3
		c-0.1,0-0.2,0-0.3-0.1c-0.1,0-0.1-0.1-0.2-0.2c-0.1-0.1-0.1-0.2-0.1-0.4s0-0.3,0-0.5c0-0.3,0-0.5,0.1-0.7c0-0.2,0.1-0.3,0.3-0.5
		s0.4-0.3,0.8-0.6s0.9-0.4,1.4-0.6c0.5-0.2,1.1-0.3,1.7-0.4s1.2-0.2,1.9-0.2c1.2,0,2.2,0.1,3,0.4c0.8,0.3,1.5,0.7,2,1.2
		s0.9,1.1,1.1,1.9c0.2,0.8,0.3,1.6,0.3,2.7v10.9H-547z M-549.9,259.4h-2.5c-0.8,0-1.5,0.1-2.1,0.2s-1.1,0.3-1.5,0.6
		c-0.4,0.3-0.7,0.6-0.9,1s-0.3,0.8-0.3,1.3c0,0.8,0.3,1.5,0.8,2s1.3,0.8,2.2,0.8c0.8,0,1.5-0.2,2.2-0.6s1.4-1,2.1-1.8V259.4z"/>
	<path class="st1" d="M-538.5,266.8c0,0.1,0,0.2-0.1,0.2c0,0.1-0.1,0.1-0.2,0.2c-0.1,0.1-0.3,0.1-0.5,0.1s-0.4,0-0.7,0
		c-0.3,0-0.5,0-0.7,0s-0.3-0.1-0.5-0.1c-0.1,0-0.2-0.1-0.2-0.2s-0.1-0.1-0.1-0.2v-24.1c0-0.1,0-0.2,0.1-0.3c0-0.1,0.1-0.1,0.2-0.2
		c0.1,0,0.3-0.1,0.5-0.1s0.4,0,0.7,0s0.5,0,0.7,0s0.3,0.1,0.5,0.1c0.1,0,0.2,0.1,0.2,0.2c0,0.1,0.1,0.2,0.1,0.3V266.8z"/>
	<path class="st1" d="M-519.1,257.9c0,0.5-0.1,0.8-0.4,1c-0.2,0.2-0.5,0.3-0.8,0.3H-531c0,0.9,0.1,1.7,0.3,2.4
		c0.2,0.7,0.5,1.3,0.9,1.9c0.4,0.5,1,0.9,1.7,1.2s1.5,0.4,2.5,0.4c0.8,0,1.5-0.1,2.1-0.2c0.6-0.1,1.1-0.3,1.6-0.4
		c0.4-0.2,0.8-0.3,1.1-0.4c0.3-0.1,0.5-0.2,0.6-0.2c0.1,0,0.2,0,0.2,0.1c0.1,0,0.1,0.1,0.2,0.2c0,0.1,0.1,0.2,0.1,0.4
		c0,0.2,0,0.3,0,0.6c0,0.2,0,0.3,0,0.4s0,0.2,0,0.3c0,0.1,0,0.2-0.1,0.2c0,0.1-0.1,0.1-0.2,0.2c-0.1,0.1-0.3,0.2-0.6,0.3
		c-0.3,0.1-0.7,0.3-1.3,0.4c-0.5,0.1-1.1,0.3-1.8,0.4c-0.7,0.1-1.4,0.2-2.2,0.2c-1.3,0-2.5-0.2-3.5-0.6s-1.9-0.9-2.5-1.7
		c-0.6-0.8-1.2-1.7-1.6-2.8c-0.3-1.1-0.5-2.4-0.5-3.9c0-1.4,0.2-2.7,0.5-3.8c0.4-1.1,0.9-2.1,1.6-2.8c0.7-0.8,1.5-1.4,2.5-1.8
		c1-0.4,2-0.6,3.2-0.6c1.3,0,2.4,0.2,3.3,0.6c0.9,0.4,1.6,1,2.2,1.7c0.6,0.7,1,1.5,1.3,2.4s0.4,1.9,0.4,3v0.6H-519.1z M-522.1,257
		c0-1.6-0.3-2.8-1-3.7s-1.8-1.3-3.3-1.3c-0.7,0-1.4,0.1-1.9,0.4c-0.6,0.3-1,0.6-1.4,1.1c-0.4,0.5-0.7,1-0.9,1.6
		c-0.2,0.6-0.3,1.2-0.3,1.9H-522.1z"/>
	<path class="st1" d="M-504.4,262.3c0,0.8-0.2,1.6-0.5,2.2c-0.3,0.7-0.7,1.2-1.3,1.6c-0.6,0.4-1.2,0.8-2,1s-1.6,0.3-2.6,0.3
		c-0.6,0-1.1,0-1.7-0.1c-0.5-0.1-1-0.2-1.4-0.3c-0.4-0.1-0.8-0.3-1.1-0.4c-0.3-0.2-0.5-0.3-0.6-0.4c-0.1-0.1-0.2-0.3-0.3-0.5
		s-0.1-0.5-0.1-0.9c0-0.2,0-0.4,0-0.6s0.1-0.3,0.1-0.4s0.1-0.2,0.2-0.2c0.1,0,0.1-0.1,0.2-0.1c0.1,0,0.3,0.1,0.6,0.2
		c0.3,0.2,0.6,0.3,1,0.5c0.4,0.2,0.8,0.4,1.3,0.5c0.5,0.2,1.1,0.2,1.8,0.2c0.5,0,1-0.1,1.4-0.2s0.8-0.3,1.1-0.5
		c0.3-0.2,0.5-0.5,0.7-0.8s0.2-0.7,0.2-1.2s-0.1-0.8-0.4-1.2c-0.2-0.3-0.5-0.6-0.9-0.8c-0.4-0.2-0.8-0.5-1.3-0.6
		c-0.5-0.2-1-0.4-1.5-0.6s-1-0.4-1.5-0.7c-0.5-0.3-0.9-0.6-1.3-0.9c-0.4-0.4-0.7-0.8-0.9-1.3c-0.2-0.5-0.4-1.1-0.4-1.9
		c0-0.6,0.1-1.2,0.4-1.8c0.2-0.6,0.6-1.1,1.1-1.5s1.1-0.8,1.9-1.1c0.7-0.3,1.6-0.4,2.6-0.4c0.4,0,0.9,0,1.3,0.1s0.8,0.2,1.2,0.3
		c0.3,0.1,0.6,0.2,0.9,0.4c0.2,0.1,0.4,0.2,0.6,0.3c0.1,0.1,0.2,0.2,0.3,0.3c0,0.1,0.1,0.2,0.1,0.2c0,0.1,0,0.2,0.1,0.3
		c0,0.1,0,0.3,0,0.5s0,0.4,0,0.5c0,0.2,0,0.3-0.1,0.4c0,0.1-0.1,0.2-0.2,0.2s-0.1,0.1-0.2,0.1s-0.3-0.1-0.5-0.2
		c-0.2-0.1-0.5-0.3-0.8-0.4c-0.3-0.2-0.7-0.3-1.1-0.4c-0.4-0.1-0.9-0.2-1.5-0.2c-0.5,0-1,0.1-1.3,0.2c-0.4,0.1-0.7,0.3-0.9,0.5
		c-0.2,0.2-0.4,0.5-0.6,0.8c-0.1,0.3-0.2,0.6-0.2,0.9c0,0.5,0.1,0.9,0.4,1.2c0.2,0.3,0.6,0.6,0.9,0.8c0.4,0.2,0.8,0.5,1.3,0.7
		s1,0.4,1.5,0.6s1,0.4,1.5,0.7c0.5,0.3,0.9,0.6,1.3,0.9c0.4,0.4,0.7,0.8,0.9,1.3C-504.5,261-504.4,261.6-504.4,262.3z"/>
	<path class="st1" d="M-479.5,266.8c0,0.1,0,0.3-0.1,0.3c-0.1,0.1-0.2,0.1-0.4,0.2c-0.2,0-0.4,0.1-0.7,0.1c-0.3,0-0.6,0-0.8-0.1
		c-0.2,0-0.3-0.1-0.4-0.2s-0.1-0.2-0.1-0.3v-1.6c-0.7,0.8-1.5,1.3-2.4,1.8c-0.9,0.4-1.8,0.6-2.8,0.6c-0.9,0-1.6-0.1-2.3-0.3
		c-0.7-0.2-1.3-0.5-1.8-1c-0.5-0.4-0.9-0.9-1.1-1.6c-0.3-0.6-0.4-1.3-0.4-2.1c0-0.9,0.2-1.7,0.6-2.4c0.4-0.7,0.9-1.2,1.6-1.7
		c0.7-0.4,1.6-0.8,2.6-1s2.1-0.3,3.4-0.3h2.2v-1.3c0-0.6-0.1-1.2-0.2-1.7s-0.3-0.9-0.6-1.2c-0.3-0.3-0.7-0.6-1.1-0.7
		c-0.5-0.2-1-0.2-1.7-0.2s-1.4,0.1-2,0.3s-1.1,0.4-1.5,0.6c-0.4,0.2-0.8,0.4-1.1,0.6c-0.3,0.2-0.5,0.3-0.7,0.3c-0.1,0-0.2,0-0.3-0.1
		c-0.1,0-0.1-0.1-0.2-0.2c-0.1-0.1-0.1-0.2-0.1-0.4s0-0.3,0-0.5c0-0.3,0-0.5,0.1-0.7c0-0.2,0.1-0.3,0.3-0.5c0.2-0.2,0.4-0.3,0.8-0.6
		s0.9-0.4,1.4-0.6c0.5-0.2,1.1-0.3,1.7-0.4s1.2-0.2,1.9-0.2c1.2,0,2.2,0.1,3,0.4c0.8,0.3,1.5,0.7,2,1.2s0.9,1.1,1.1,1.9
		c0.2,0.8,0.3,1.6,0.3,2.7v10.9H-479.5z M-482.5,259.4h-2.5c-0.8,0-1.5,0.1-2.1,0.2s-1.1,0.3-1.5,0.6c-0.4,0.3-0.7,0.6-0.9,1
		c-0.2,0.4-0.3,0.8-0.3,1.3c0,0.8,0.3,1.5,0.8,2s1.3,0.8,2.2,0.8c0.8,0,1.5-0.2,2.2-0.6s1.4-1,2.1-1.8L-482.5,259.4L-482.5,259.4z"
		/>
	<path class="st1" d="M-460,266.8c0,0.1,0,0.2-0.1,0.2c0,0.1-0.1,0.1-0.2,0.2s-0.3,0.1-0.5,0.1s-0.4,0-0.7,0c-0.3,0-0.5,0-0.7,0
		s-0.3-0.1-0.5-0.1s-0.2-0.1-0.2-0.2s-0.1-0.1-0.1-0.2v-9.5c0-0.9-0.1-1.7-0.2-2.2s-0.4-1.1-0.6-1.5c-0.3-0.4-0.6-0.7-1.1-0.9
		c-0.4-0.2-0.9-0.3-1.5-0.3c-0.7,0-1.5,0.3-2.2,0.8s-1.5,1.3-2.3,2.3v11.4c0,0.1,0,0.2-0.1,0.2c0,0.1-0.1,0.1-0.2,0.2
		s-0.3,0.1-0.5,0.1s-0.4,0-0.7,0c-0.3,0-0.5,0-0.7,0s-0.3-0.1-0.5-0.1c-0.1,0-0.2-0.1-0.2-0.2s-0.1-0.1-0.1-0.2v-16.3
		c0-0.1,0-0.2,0.1-0.2s0.1-0.1,0.2-0.2c0.1-0.1,0.2-0.1,0.4-0.1c0.2,0,0.4,0,0.7,0c0.3,0,0.5,0,0.7,0s0.3,0.1,0.4,0.1
		c0.1,0.1,0.2,0.1,0.2,0.2c0,0.1,0.1,0.1,0.1,0.2v2.1c0.9-1,1.8-1.8,2.7-2.2c0.9-0.5,1.8-0.7,2.8-0.7c1.1,0,2,0.2,2.7,0.6
		c0.7,0.4,1.3,0.9,1.8,1.5s0.8,1.3,1,2.2c0.2,0.8,0.3,1.8,0.3,3v9.7H-460z"/>
	<path class="st1" d="M-440.7,266.8c0,0.1,0,0.2-0.1,0.3c0,0.1-0.1,0.1-0.2,0.2c-0.1,0-0.2,0.1-0.4,0.1c-0.2,0-0.4,0-0.6,0
		c-0.3,0-0.5,0-0.6,0c-0.2,0-0.3-0.1-0.4-0.1s-0.2-0.1-0.2-0.2s-0.1-0.2-0.1-0.3v-2.2c-0.9,0.9-1.7,1.7-2.7,2.2
		c-0.9,0.5-1.9,0.8-3,0.8c-1.2,0-2.2-0.2-3.1-0.7c-0.8-0.5-1.5-1.1-2.1-1.9c-0.5-0.8-0.9-1.7-1.1-2.8c-0.2-1.1-0.4-2.2-0.4-3.4
		c0-1.4,0.2-2.7,0.5-3.8s0.7-2.1,1.3-2.9c0.6-0.8,1.3-1.4,2.2-1.8c0.9-0.4,1.9-0.6,3-0.6c1,0,1.8,0.2,2.6,0.6c0.8,0.4,1.6,1,2.3,1.8
		v-9.4c0-0.1,0-0.2,0.1-0.2c0-0.1,0.1-0.1,0.2-0.2c0.1,0,0.3-0.1,0.5-0.1s0.4,0,0.7,0c0.3,0,0.5,0,0.7,0s0.3,0.1,0.5,0.1
		s0.2,0.1,0.2,0.2c0.1,0.1,0.1,0.2,0.1,0.2v24.1H-440.7z M-443.7,255.3c-0.8-1-1.6-1.8-2.3-2.3c-0.8-0.5-1.5-0.8-2.4-0.8
		c-0.8,0-1.4,0.2-1.9,0.5c-0.5,0.4-1,0.8-1.3,1.4c-0.3,0.6-0.6,1.3-0.7,2c-0.2,0.7-0.2,1.5-0.2,2.3s0.1,1.6,0.2,2.4s0.3,1.5,0.7,2.1
		c0.3,0.6,0.7,1.1,1.2,1.5s1.2,0.6,2,0.6c0.4,0,0.8-0.1,1.1-0.2c0.4-0.1,0.7-0.3,1.1-0.5c0.4-0.3,0.8-0.6,1.2-1
		c0.4-0.4,0.9-0.9,1.3-1.5L-443.7,255.3L-443.7,255.3z"/>
	<path class="st1" d="M-412.9,266.8c0,0.1,0,0.2-0.1,0.3c0,0.1-0.1,0.1-0.2,0.2c-0.1,0-0.2,0.1-0.4,0.1c-0.2,0-0.4,0-0.6,0
		c-0.3,0-0.5,0-0.6,0c-0.2,0-0.3-0.1-0.4-0.1s-0.2-0.1-0.2-0.2s-0.1-0.2-0.1-0.3v-2.2c-0.9,0.9-1.7,1.7-2.7,2.2
		c-0.9,0.5-1.9,0.8-3,0.8c-1.2,0-2.2-0.2-3.1-0.7c-0.8-0.5-1.5-1.1-2.1-1.9c-0.5-0.8-0.9-1.7-1.1-2.8c-0.2-1.1-0.4-2.2-0.4-3.4
		c0-1.4,0.2-2.7,0.5-3.8s0.7-2.1,1.3-2.9c0.6-0.8,1.3-1.4,2.2-1.8c0.9-0.4,1.9-0.6,3-0.6c1,0,1.8,0.2,2.6,0.6c0.8,0.4,1.6,1,2.3,1.8
		v-9.4c0-0.1,0-0.2,0.1-0.2c0-0.1,0.1-0.1,0.2-0.2c0.1,0,0.3-0.1,0.5-0.1s0.4,0,0.7,0c0.3,0,0.5,0,0.7,0s0.3,0.1,0.5,0.1
		s0.2,0.1,0.2,0.2c0.1,0.1,0.1,0.2,0.1,0.2v24.1H-412.9z M-415.9,255.3c-0.8-1-1.6-1.8-2.3-2.3c-0.8-0.5-1.5-0.8-2.4-0.8
		c-0.8,0-1.4,0.2-1.9,0.5c-0.5,0.4-1,0.8-1.3,1.4c-0.3,0.6-0.6,1.3-0.7,2c-0.2,0.7-0.2,1.5-0.2,2.3s0.1,1.6,0.2,2.4s0.3,1.5,0.7,2.1
		c0.3,0.6,0.7,1.1,1.2,1.5s1.2,0.6,2,0.6c0.4,0,0.8-0.1,1.1-0.2c0.4-0.1,0.7-0.3,1.1-0.5c0.4-0.3,0.8-0.6,1.2-1
		c0.4-0.4,0.9-0.9,1.3-1.5L-415.9,255.3L-415.9,255.3z"/>
	<path class="st1" d="M-404,245c0,0.7-0.1,1.2-0.4,1.4c-0.3,0.3-0.8,0.4-1.5,0.4s-1.2-0.1-1.4-0.4c-0.3-0.2-0.4-0.7-0.4-1.4
		s0.1-1.2,0.4-1.4c0.3-0.3,0.8-0.4,1.5-0.4s1.2,0.1,1.4,0.4S-404,244.3-404,245z M-404.4,266.8c0,0.1,0,0.2-0.1,0.2
		c0,0.1-0.1,0.1-0.2,0.2s-0.3,0.1-0.5,0.1s-0.4,0-0.7,0c-0.3,0-0.5,0-0.7,0s-0.3-0.1-0.5-0.1c-0.1,0-0.2-0.1-0.2-0.2
		s-0.1-0.1-0.1-0.2v-16.3c0-0.1,0-0.2,0.1-0.2c0-0.1,0.1-0.1,0.2-0.2c0.1,0,0.3-0.1,0.5-0.1s0.4,0,0.7,0c0.3,0,0.5,0,0.7,0
		s0.3,0.1,0.5,0.1s0.2,0.1,0.2,0.2c0,0.1,0.1,0.2,0.1,0.2V266.8z"/>
</g>
<g>
	<path class="st1" d="M-388.7,262.3c0,0.8-0.2,1.6-0.5,2.2c-0.3,0.7-0.7,1.2-1.3,1.6c-0.6,0.4-1.2,0.8-2,1s-1.6,0.3-2.6,0.3
		c-0.6,0-1.1,0-1.7-0.1c-0.5-0.1-1-0.2-1.4-0.3c-0.4-0.1-0.8-0.3-1.1-0.4c-0.3-0.2-0.5-0.3-0.6-0.4s-0.2-0.3-0.3-0.5
		c-0.1-0.2-0.1-0.5-0.1-0.9c0-0.2,0-0.4,0-0.6s0.1-0.3,0.1-0.4s0.1-0.2,0.2-0.2s0.1-0.1,0.2-0.1s0.3,0.1,0.6,0.2
		c0.3,0.2,0.6,0.3,1,0.5s0.8,0.4,1.3,0.5c0.5,0.2,1.1,0.2,1.8,0.2c0.5,0,1-0.1,1.4-0.2s0.8-0.3,1.1-0.5c0.3-0.2,0.5-0.5,0.7-0.8
		s0.2-0.7,0.2-1.2s-0.1-0.8-0.4-1.2c-0.2-0.3-0.5-0.6-0.9-0.8c-0.4-0.2-0.8-0.5-1.3-0.6c-0.5-0.2-1-0.4-1.5-0.6s-1-0.4-1.5-0.7
		c-0.5-0.3-0.9-0.6-1.3-0.9c-0.4-0.4-0.7-0.8-0.9-1.3c-0.2-0.5-0.4-1.1-0.4-1.9c0-0.6,0.1-1.2,0.4-1.8c0.2-0.6,0.6-1.1,1.1-1.5
		s1.1-0.8,1.9-1.1c0.7-0.3,1.6-0.4,2.6-0.4c0.4,0,0.9,0,1.3,0.1s0.8,0.2,1.2,0.3c0.3,0.1,0.6,0.2,0.9,0.4c0.2,0.1,0.4,0.2,0.6,0.3
		c0.1,0.1,0.2,0.2,0.3,0.3c0,0.1,0.1,0.2,0.1,0.2c0,0.1,0,0.2,0.1,0.3c0,0.1,0,0.3,0,0.5s0,0.4,0,0.5c0,0.2,0,0.3-0.1,0.4
		c0,0.1-0.1,0.2-0.2,0.2s-0.1,0.1-0.2,0.1s-0.3-0.1-0.5-0.2c-0.2-0.1-0.5-0.3-0.8-0.4c-0.3-0.2-0.7-0.3-1.1-0.4
		c-0.4-0.1-0.9-0.2-1.5-0.2c-0.5,0-1,0.1-1.3,0.2c-0.4,0.1-0.7,0.3-0.9,0.5c-0.2,0.2-0.4,0.5-0.6,0.8c-0.1,0.3-0.2,0.6-0.2,0.9
		c0,0.5,0.1,0.9,0.4,1.2c0.2,0.3,0.6,0.6,0.9,0.8c0.4,0.2,0.8,0.5,1.3,0.7s1,0.4,1.5,0.6s1,0.4,1.5,0.7c0.5,0.3,0.9,0.6,1.3,0.9
		c0.4,0.4,0.7,0.8,0.9,1.3C-388.8,261-388.7,261.6-388.7,262.3z"/>
</g>
<g>
	<path class="st1" d="M-376.3,265.6c0,0.3,0,0.6-0.1,0.8c0,0.2-0.1,0.4-0.2,0.5s-0.2,0.2-0.4,0.3c-0.2,0.1-0.4,0.2-0.7,0.2
		c-0.2,0.1-0.5,0.1-0.8,0.1s-0.6,0.1-0.8,0.1c-0.8,0-1.6-0.1-2.2-0.3c-0.6-0.2-1.1-0.6-1.5-1c-0.4-0.5-0.7-1-0.8-1.7
		c-0.2-0.7-0.3-1.5-0.3-2.4v-9.5h-2.3c-0.2,0-0.3-0.1-0.4-0.3s-0.2-0.5-0.2-0.9c0-0.2,0-0.4,0-0.6c0-0.2,0.1-0.3,0.1-0.4
		c0-0.1,0.1-0.2,0.2-0.2s0.2-0.1,0.3-0.1h2.3v-3.9c0-0.1,0-0.2,0.1-0.2c0-0.1,0.1-0.1,0.2-0.2c0.1-0.1,0.3-0.1,0.5-0.1s0.4,0,0.7,0
		c0.3,0,0.5,0,0.7,0s0.3,0.1,0.5,0.1c0.1,0.1,0.2,0.1,0.2,0.2c0,0.1,0.1,0.2,0.1,0.2v3.9h4.2c0.1,0,0.2,0,0.3,0.1
		c0.1,0,0.1,0.1,0.2,0.2c0.1,0.1,0.1,0.2,0.1,0.4s0,0.3,0,0.6c0,0.4-0.1,0.7-0.2,0.9s-0.3,0.3-0.4,0.3h-4.2v9.1c0,1.1,0.2,2,0.5,2.5
		c0.3,0.6,0.9,0.9,1.8,0.9c0.3,0,0.5,0,0.7-0.1s0.4-0.1,0.6-0.2s0.3-0.1,0.4-0.2s0.2-0.1,0.3-0.1c0.1,0,0.1,0,0.2,0s0.1,0.1,0.1,0.2
		s0.1,0.2,0.1,0.3C-376.4,265.2-376.3,265.4-376.3,265.6z"/>
	<path class="st1" d="M-362.9,251.6c0,0.3,0,0.5,0,0.7s0,0.3-0.1,0.4c0,0.1-0.1,0.2-0.1,0.2c-0.1,0.1-0.1,0.1-0.2,0.1
		s-0.2,0-0.4-0.1c-0.1-0.1-0.3-0.1-0.5-0.2c-0.2-0.1-0.4-0.1-0.6-0.2s-0.5-0.1-0.7-0.1c-0.3,0-0.6,0.1-0.9,0.2s-0.6,0.3-0.9,0.6
		s-0.7,0.6-1,1.1s-0.7,1-1.2,1.7v10.7c0,0.1,0,0.2-0.1,0.2c0,0.1-0.1,0.1-0.2,0.2s-0.3,0.1-0.5,0.1s-0.4,0-0.7,0c-0.3,0-0.5,0-0.7,0
		s-0.3-0.1-0.5-0.1c-0.1,0-0.2-0.1-0.2-0.2s-0.1-0.1-0.1-0.2v-16.3c0-0.1,0-0.2,0.1-0.2s0.1-0.1,0.2-0.2c0.1-0.1,0.2-0.1,0.4-0.1
		c0.2,0,0.4,0,0.7,0c0.3,0,0.5,0,0.7,0s0.3,0.1,0.4,0.1c0.1,0.1,0.2,0.1,0.2,0.2c0,0.1,0.1,0.1,0.1,0.2v2.4c0.4-0.7,0.9-1.2,1.3-1.6
		c0.4-0.4,0.8-0.7,1.1-1c0.3-0.2,0.7-0.4,1-0.5s0.7-0.1,1-0.1c0.2,0,0.3,0,0.5,0s0.4,0.1,0.6,0.1s0.4,0.1,0.6,0.2
		c0.2,0.1,0.3,0.1,0.4,0.2s0.1,0.1,0.1,0.2c0,0.1,0,0.1,0.1,0.2c0,0.1,0,0.2,0,0.4C-362.9,251.1-362.9,251.3-362.9,251.6z"/>
	<path class="st1" d="M-356.2,245c0,0.7-0.1,1.2-0.4,1.4c-0.3,0.3-0.8,0.4-1.5,0.4s-1.2-0.1-1.4-0.4c-0.3-0.2-0.4-0.7-0.4-1.4
		s0.1-1.2,0.4-1.4c0.3-0.3,0.8-0.4,1.5-0.4s1.2,0.1,1.4,0.4C-356.3,243.9-356.2,244.3-356.2,245z M-356.5,266.8c0,0.1,0,0.2-0.1,0.2
		c0,0.1-0.1,0.1-0.2,0.2s-0.3,0.1-0.5,0.1s-0.4,0-0.7,0c-0.3,0-0.5,0-0.7,0s-0.3-0.1-0.5-0.1c-0.1,0-0.2-0.1-0.2-0.2
		s-0.1-0.1-0.1-0.2v-16.3c0-0.1,0-0.2,0.1-0.2c0-0.1,0.1-0.1,0.2-0.2c0.1,0,0.3-0.1,0.5-0.1s0.4,0,0.7,0c0.3,0,0.5,0,0.7,0
		s0.3,0.1,0.5,0.1s0.2,0.1,0.2,0.2c0,0.1,0.1,0.2,0.1,0.2V266.8z"/>
	<path class="st1" d="M-336.1,258.4c0,1.4-0.2,2.7-0.5,3.8c-0.3,1.1-0.8,2.1-1.4,2.9s-1.3,1.4-2.2,1.8s-1.9,0.6-3,0.6
		c-0.5,0-1-0.1-1.4-0.2s-0.9-0.3-1.3-0.5s-0.8-0.5-1.3-0.9c-0.4-0.3-0.9-0.8-1.3-1.3v2c0,0.1,0,0.2-0.1,0.3c0,0.1-0.1,0.1-0.2,0.2
		s-0.2,0.1-0.4,0.1c-0.2,0-0.4,0-0.6,0s-0.4,0-0.6,0s-0.3-0.1-0.4-0.1s-0.2-0.1-0.2-0.2s-0.1-0.2-0.1-0.3v-24.1c0-0.1,0-0.2,0.1-0.3
		c0-0.1,0.1-0.1,0.2-0.2c0.1,0,0.3-0.1,0.5-0.1s0.4,0,0.7,0c0.3,0,0.5,0,0.7,0s0.3,0.1,0.5,0.1c0.1,0,0.2,0.1,0.2,0.2
		c0,0.1,0.1,0.2,0.1,0.3v9.7c0.5-0.5,0.9-0.9,1.4-1.2s0.9-0.6,1.3-0.8s0.9-0.4,1.3-0.5s0.9-0.1,1.4-0.1c1.2,0,2.2,0.2,3,0.7
		s1.5,1.1,2,1.9c0.5,0.8,0.9,1.7,1.1,2.8C-336.2,256.1-336.1,257.2-336.1,258.4z M-339.1,258.8c0-0.8-0.1-1.6-0.2-2.4
		c-0.1-0.8-0.3-1.5-0.7-2.1c-0.3-0.6-0.7-1.1-1.3-1.5c-0.5-0.4-1.2-0.6-1.9-0.6c-0.4,0-0.8,0.1-1.1,0.2c-0.4,0.1-0.8,0.3-1.1,0.5
		c-0.4,0.3-0.8,0.6-1.2,1c-0.4,0.4-0.9,0.9-1.3,1.5v6.5c0.8,1,1.6,1.8,2.4,2.3s1.5,0.8,2.3,0.8s1.4-0.2,1.9-0.5s1-0.8,1.3-1.4
		s0.6-1.3,0.7-2C-339.2,260.3-339.1,259.5-339.1,258.8z"/>
	<path class="st1" d="M-317.6,266.8c0,0.1,0,0.2-0.1,0.2c0,0.1-0.1,0.1-0.2,0.2s-0.2,0.1-0.4,0.1c-0.2,0-0.4,0-0.6,0
		c-0.3,0-0.5,0-0.7,0s-0.3-0.1-0.4-0.1s-0.2-0.1-0.2-0.2s-0.1-0.1-0.1-0.2v-2.2c-0.9,1-1.8,1.8-2.7,2.2s-1.8,0.7-2.7,0.7
		c-1.1,0-2-0.2-2.7-0.5c-0.7-0.4-1.3-0.9-1.8-1.5s-0.8-1.3-1-2.2c-0.2-0.8-0.3-1.8-0.3-3v-9.9c0-0.1,0-0.2,0.1-0.2
		c0-0.1,0.1-0.1,0.2-0.2c0.1-0.1,0.3-0.1,0.5-0.1s0.4,0,0.7,0s0.5,0,0.7,0s0.3,0.1,0.5,0.1c0.1,0.1,0.2,0.1,0.2,0.2
		c0,0.1,0.1,0.1,0.1,0.2v9.5c0,1,0.1,1.7,0.2,2.3c0.1,0.6,0.3,1.1,0.6,1.5c0.3,0.4,0.6,0.7,1.1,0.9c0.4,0.2,0.9,0.3,1.5,0.3
		c0.7,0,1.5-0.3,2.2-0.8s1.5-1.3,2.4-2.3v-11.4c0-0.1,0-0.2,0.1-0.2c0-0.1,0.1-0.1,0.2-0.2c0.1-0.1,0.3-0.1,0.5-0.1s0.4,0,0.7,0
		c0.3,0,0.5,0,0.7,0s0.3,0.1,0.5,0.1c0.1,0.1,0.2,0.1,0.2,0.2c0.1,0.1,0.1,0.1,0.1,0.2v16.4H-317.6z"/>
	<path class="st1" d="M-298,250c0.4,0,0.6,0.1,0.7,0.2c0.1,0.2,0.2,0.4,0.2,0.7v15.8c0,0.1,0,0.2-0.1,0.2c0,0.1-0.1,0.1-0.2,0.2
		c-0.1,0-0.3,0.1-0.5,0.1c-0.2,0-0.4,0-0.7,0s-0.5,0-0.7,0s-0.3-0.1-0.5-0.1c-0.1,0-0.2-0.1-0.2-0.2s-0.1-0.1-0.1-0.2v-14.3h-8.4
		v9.1c0,1.1,0.2,2,0.5,2.5c0.3,0.6,0.9,0.9,1.8,0.9c0.3,0,0.5,0,0.7-0.1s0.4-0.1,0.6-0.2s0.3-0.1,0.4-0.2s0.2-0.1,0.3-0.1
		c0.1,0,0.1,0,0.2,0s0.1,0.1,0.1,0.2s0.1,0.2,0.1,0.3c0,0.1,0,0.3,0,0.5c0,0.3,0,0.6-0.1,0.8c0,0.2-0.1,0.3-0.2,0.5
		c-0.1,0.1-0.2,0.2-0.4,0.3c-0.2,0.1-0.4,0.2-0.7,0.2c-0.2,0.1-0.5,0.1-0.8,0.1s-0.6,0.1-0.8,0.1c-0.8,0-1.6-0.1-2.2-0.3
		c-0.6-0.2-1.1-0.6-1.5-1c-0.4-0.5-0.7-1-0.8-1.7c-0.2-0.7-0.3-1.5-0.3-2.4v-9.5h-2.3c-0.2,0-0.3-0.1-0.4-0.3s-0.2-0.5-0.2-0.9
		c0-0.2,0-0.4,0-0.6c0-0.2,0.1-0.3,0.1-0.4c0-0.1,0.1-0.2,0.2-0.2s0.2-0.1,0.3-0.1h2.3V246c0-0.1,0-0.2,0.1-0.2
		c0-0.1,0.1-0.1,0.2-0.2c0.1-0.1,0.3-0.1,0.5-0.1s0.4,0,0.7,0c0.3,0,0.5,0,0.7,0s0.3,0.1,0.5,0.1c0.1,0.1,0.2,0.1,0.2,0.2
		c0,0.1,0.1,0.2,0.1,0.2v3.9h10.6V250z M-296.7,245c0,0.7-0.1,1.2-0.4,1.4c-0.3,0.3-0.8,0.4-1.5,0.4c-0.7,0-1.2-0.1-1.4-0.4
		c-0.3-0.2-0.4-0.7-0.4-1.4s0.1-1.2,0.4-1.4c0.3-0.3,0.8-0.4,1.5-0.4c0.7,0,1.2,0.1,1.4,0.4C-296.8,243.9-296.7,244.3-296.7,245z"/>
	<path class="st1" d="M-276.4,258.5c0,1.3-0.2,2.5-0.5,3.7c-0.3,1.1-0.9,2.1-1.6,2.9s-1.6,1.4-2.6,1.9s-2.2,0.7-3.6,0.7
		c-1.3,0-2.5-0.2-3.5-0.6s-1.8-1-2.5-1.7c-0.7-0.8-1.2-1.7-1.5-2.8c-0.3-1.1-0.5-2.3-0.5-3.7c0-1.3,0.2-2.5,0.5-3.7
		c0.3-1.1,0.9-2.1,1.6-2.9c0.7-0.8,1.6-1.4,2.6-1.9c1-0.4,2.2-0.7,3.6-0.7c1.3,0,2.5,0.2,3.5,0.6c1,0.4,1.8,1,2.5,1.7
		c0.7,0.8,1.2,1.7,1.5,2.8C-276.6,255.9-276.4,257.1-276.4,258.5z M-279.5,258.7c0-0.9-0.1-1.7-0.2-2.5c-0.2-0.8-0.4-1.5-0.8-2.1
		s-0.9-1.1-1.5-1.4c-0.6-0.3-1.4-0.5-2.4-0.5c-0.9,0-1.6,0.2-2.3,0.5c-0.6,0.3-1.2,0.8-1.6,1.3c-0.4,0.5-0.7,1.2-0.9,2
		c-0.2,0.8-0.3,1.6-0.3,2.6c0,0.9,0.1,1.7,0.2,2.5c0.2,0.8,0.4,1.5,0.8,2.1c0.4,0.6,0.9,1,1.5,1.4c0.6,0.3,1.4,0.5,2.4,0.5
		c0.9,0,1.6-0.2,2.3-0.5c0.6-0.3,1.2-0.8,1.6-1.3c0.4-0.6,0.7-1.2,0.9-2C-279.6,260.5-279.5,259.6-279.5,258.7z"/>
	<path class="st1" d="M-258,266.8c0,0.1,0,0.2-0.1,0.2c0,0.1-0.1,0.1-0.2,0.2c-0.1,0.1-0.3,0.1-0.5,0.1c-0.2,0-0.4,0-0.7,0
		c-0.3,0-0.5,0-0.7,0c-0.2,0-0.3-0.1-0.5-0.1c-0.2,0-0.2-0.1-0.2-0.2s-0.1-0.1-0.1-0.2v-9.5c0-0.9-0.1-1.7-0.2-2.2
		c-0.1-0.5-0.4-1.1-0.6-1.5c-0.3-0.4-0.6-0.7-1.1-0.9c-0.4-0.2-0.9-0.3-1.5-0.3c-0.7,0-1.5,0.3-2.2,0.8c-0.7,0.5-1.5,1.3-2.3,2.3
		v11.4c0,0.1,0,0.2-0.1,0.2c0,0.1-0.1,0.1-0.2,0.2c-0.1,0.1-0.3,0.1-0.5,0.1c-0.2,0-0.4,0-0.7,0c-0.3,0-0.5,0-0.7,0
		c-0.2,0-0.3-0.1-0.5-0.1c-0.1,0-0.2-0.1-0.2-0.2s-0.1-0.1-0.1-0.2v-16.3c0-0.1,0-0.2,0.1-0.2s0.1-0.1,0.2-0.2
		c0.1-0.1,0.2-0.1,0.4-0.1c0.2,0,0.4,0,0.7,0c0.3,0,0.5,0,0.7,0c0.2,0,0.3,0.1,0.4,0.1c0.1,0.1,0.2,0.1,0.2,0.2
		c0,0.1,0.1,0.1,0.1,0.2v2.1c0.9-1,1.8-1.8,2.7-2.2c0.9-0.5,1.8-0.7,2.8-0.7c1.1,0,2,0.2,2.7,0.6c0.7,0.4,1.3,0.9,1.8,1.5
		s0.8,1.3,1,2.2c0.2,0.8,0.3,1.8,0.3,3v9.7H-258z"/>
</g>
<g>
	<path class="st1" d="M-232.5,264.3c0,0.2,0,0.4,0,0.5c0,0.2,0,0.3-0.1,0.4c0,0.1-0.1,0.2-0.1,0.3c0,0.1-0.1,0.2-0.3,0.3
		c-0.2,0.2-0.4,0.3-0.8,0.6s-0.8,0.4-1.2,0.6c-0.5,0.2-0.9,0.3-1.5,0.4c-0.5,0.1-1.1,0.2-1.6,0.2c-1.2,0-2.2-0.2-3.1-0.6
		c-0.9-0.4-1.7-0.9-2.3-1.7c-0.6-0.7-1.1-1.7-1.4-2.7c-0.3-1.1-0.5-2.3-0.5-3.7c0-1.6,0.2-3,0.6-4.1c0.4-1.2,0.9-2.1,1.6-2.8
		c0.7-0.7,1.5-1.3,2.4-1.6c0.9-0.4,1.9-0.5,3-0.5c0.5,0,1,0,1.5,0.1s0.9,0.2,1.3,0.4c0.4,0.2,0.8,0.3,1.1,0.5s0.6,0.4,0.7,0.5
		s0.2,0.3,0.3,0.3c0.1,0.1,0.1,0.2,0.1,0.3s0.1,0.2,0.1,0.4c0,0.1,0,0.3,0,0.5c0,0.5-0.1,0.8-0.2,1c-0.1,0.2-0.2,0.3-0.4,0.3
		s-0.4-0.1-0.6-0.3c-0.2-0.2-0.5-0.4-0.9-0.7c-0.4-0.2-0.8-0.5-1.3-0.7s-1.1-0.3-1.8-0.3c-1.4,0-2.5,0.6-3.3,1.7
		c-0.8,1.1-1.1,2.7-1.1,4.8c0,1,0.1,2,0.3,2.8s0.5,1.4,0.9,2c0.4,0.5,0.9,0.9,1.4,1.2c0.6,0.3,1.2,0.4,1.9,0.4s1.3-0.1,1.8-0.3
		c0.5-0.2,1-0.5,1.3-0.7c0.4-0.3,0.7-0.5,1-0.7s0.5-0.3,0.6-0.3s0.2,0,0.2,0.1c0.1,0,0.1,0.1,0.2,0.2c0,0.1,0.1,0.3,0.1,0.4
		C-232.5,263.8-232.5,264.1-232.5,264.3z"/>
</g>
<g>
	<path class="st1" d="M-213.7,258.5c0,1.3-0.2,2.5-0.5,3.7c-0.3,1.1-0.9,2.1-1.6,2.9c-0.7,0.8-1.6,1.4-2.6,1.9s-2.2,0.7-3.6,0.7
		c-1.3,0-2.5-0.2-3.5-0.6s-1.8-1-2.5-1.7c-0.7-0.8-1.2-1.7-1.5-2.8s-0.5-2.3-0.5-3.7c0-1.3,0.2-2.5,0.5-3.7c0.3-1.1,0.9-2.1,1.6-2.9
		c0.7-0.8,1.6-1.4,2.6-1.9c1-0.4,2.2-0.7,3.6-0.7c1.3,0,2.5,0.2,3.5,0.6c1,0.4,1.8,1,2.5,1.7c0.7,0.8,1.2,1.7,1.5,2.8
		C-213.9,255.9-213.7,257.1-213.7,258.5z M-216.8,258.7c0-0.9-0.1-1.7-0.2-2.5c-0.2-0.8-0.4-1.5-0.8-2.1c-0.4-0.6-0.9-1.1-1.5-1.4
		c-0.6-0.3-1.4-0.5-2.4-0.5c-0.9,0-1.6,0.2-2.3,0.5c-0.6,0.3-1.2,0.8-1.6,1.3s-0.7,1.2-0.9,2c-0.2,0.8-0.3,1.6-0.3,2.6
		c0,0.9,0.1,1.7,0.2,2.5c0.2,0.8,0.4,1.5,0.8,2.1c0.4,0.6,0.9,1,1.5,1.4c0.6,0.3,1.4,0.5,2.4,0.5c0.9,0,1.6-0.2,2.3-0.5
		c0.6-0.3,1.2-0.8,1.6-1.3c0.4-0.6,0.7-1.2,0.9-2C-216.9,260.5-216.8,259.6-216.8,258.7z"/>
	<path class="st1" d="M-185.2,266.8c0,0.1,0,0.2-0.1,0.2c0,0.1-0.1,0.1-0.2,0.2s-0.3,0.1-0.5,0.1s-0.4,0-0.7,0s-0.5,0-0.7,0
		s-0.3-0.1-0.5-0.1c-0.1,0-0.2-0.1-0.2-0.2s-0.1-0.1-0.1-0.2v-9.9c0-0.7-0.1-1.3-0.2-1.9c-0.1-0.6-0.3-1.1-0.6-1.5s-0.6-0.7-1-0.9
		s-0.9-0.3-1.4-0.3c-0.7,0-1.4,0.3-2.1,0.8c-0.7,0.5-1.5,1.3-2.3,2.3v11.4c0,0.1,0,0.2-0.1,0.2c0,0.1-0.1,0.1-0.2,0.2
		c-0.1,0-0.3,0.1-0.5,0.1s-0.4,0-0.7,0s-0.5,0-0.7,0s-0.4-0.1-0.5-0.1s-0.2-0.1-0.2-0.2s-0.1-0.1-0.1-0.2v-9.9
		c0-0.7-0.1-1.3-0.2-1.9c-0.1-0.6-0.3-1.1-0.6-1.5s-0.6-0.7-1-0.9s-0.9-0.3-1.4-0.3c-0.7,0-1.4,0.3-2.1,0.8
		c-0.7,0.5-1.5,1.3-2.3,2.3v11.4c0,0.1,0,0.2-0.1,0.2c0,0.1-0.1,0.1-0.2,0.2s-0.3,0.1-0.5,0.1s-0.4,0-0.7,0s-0.5,0-0.7,0
		s-0.3-0.1-0.5-0.1c-0.1,0-0.2-0.1-0.2-0.2s-0.1-0.1-0.1-0.2v-16.3c0-0.1,0-0.2,0.1-0.2s0.1-0.1,0.2-0.2c0.1-0.1,0.2-0.1,0.4-0.1
		s0.4,0,0.7,0s0.5,0,0.7,0s0.3,0.1,0.4,0.1c0.1,0.1,0.2,0.1,0.2,0.2c0,0.1,0.1,0.1,0.1,0.2v2.1c0.9-1,1.8-1.8,2.7-2.2
		c0.9-0.5,1.7-0.7,2.6-0.7c0.7,0,1.3,0.1,1.8,0.2c0.5,0.2,1,0.4,1.4,0.7s0.8,0.6,1,1s0.5,0.8,0.7,1.3c0.5-0.6,1.1-1.1,1.5-1.5
		c0.5-0.4,1-0.7,1.4-1c0.5-0.3,0.9-0.4,1.3-0.6c0.4-0.1,0.9-0.2,1.3-0.2c1,0,1.9,0.2,2.6,0.6c0.7,0.4,1.3,0.9,1.7,1.5
		s0.8,1.3,0.9,2.2c0.2,0.8,0.3,1.7,0.3,2.6v10.3H-185.2z"/>
	<path class="st1" d="M-164.8,258.4c0,1.4-0.2,2.7-0.5,3.8c-0.3,1.1-0.8,2.1-1.4,2.9c-0.6,0.8-1.3,1.4-2.2,1.8s-1.9,0.6-3,0.6
		c-0.5,0-0.9,0-1.3-0.1c-0.4-0.1-0.8-0.2-1.2-0.5c-0.4-0.2-0.8-0.5-1.2-0.8s-0.8-0.7-1.2-1.1v8.1c0,0.1,0,0.2-0.1,0.3
		c0,0.1-0.1,0.1-0.2,0.2s-0.3,0.1-0.5,0.1s-0.4,0-0.7,0s-0.5,0-0.7,0s-0.3-0.1-0.5-0.1c-0.1,0-0.2-0.1-0.2-0.2s-0.1-0.2-0.1-0.3
		v-22.7c0-0.1,0-0.2,0.1-0.3c0-0.1,0.1-0.1,0.2-0.2c0.1,0,0.2-0.1,0.4-0.1s0.4,0,0.6,0c0.3,0,0.5,0,0.6,0c0.2,0,0.3,0.1,0.4,0.1
		c0.1,0,0.2,0.1,0.2,0.2c0,0.1,0.1,0.2,0.1,0.3v2.2c0.5-0.5,1-0.9,1.4-1.3c0.5-0.4,0.9-0.7,1.4-0.9s0.9-0.4,1.4-0.6
		c0.5-0.1,1-0.2,1.5-0.2c1.2,0,2.2,0.2,3,0.7s1.5,1.1,2,1.9c0.5,0.8,0.9,1.7,1.1,2.8C-165,256.1-164.8,257.2-164.8,258.4z
		 M-167.9,258.7c0-0.8-0.1-1.6-0.2-2.4c-0.1-0.8-0.3-1.5-0.7-2.1s-0.7-1.1-1.2-1.4s-1.2-0.5-1.9-0.5c-0.4,0-0.8,0.1-1.1,0.2
		s-0.8,0.3-1.1,0.5c-0.4,0.2-0.8,0.6-1.2,1s-0.9,0.9-1.3,1.5v6.5c0.8,1,1.6,1.8,2.3,2.3s1.5,0.8,2.3,0.8s1.4-0.2,1.9-0.5
		c0.5-0.4,1-0.8,1.3-1.4s0.6-1.3,0.7-2C-168,260.2-167.9,259.5-167.9,258.7z"/>
	<path class="st1" d="M-148.1,266.8c0,0.1,0,0.3-0.1,0.3c-0.1,0.1-0.2,0.1-0.4,0.2c-0.2,0-0.4,0.1-0.7,0.1s-0.6,0-0.8-0.1
		c-0.2,0-0.3-0.1-0.4-0.2c-0.1-0.1-0.1-0.2-0.1-0.3v-1.6c-0.7,0.8-1.5,1.3-2.4,1.8c-0.9,0.4-1.8,0.6-2.8,0.6c-0.9,0-1.6-0.1-2.3-0.3
		c-0.7-0.2-1.3-0.5-1.8-1c-0.5-0.4-0.9-0.9-1.1-1.6c-0.3-0.6-0.4-1.3-0.4-2.1c0-0.9,0.2-1.7,0.6-2.4c0.4-0.7,0.9-1.2,1.6-1.7
		c0.7-0.4,1.6-0.8,2.6-1s2.1-0.3,3.4-0.3h2.2v-1.3c0-0.6-0.1-1.2-0.2-1.7c-0.1-0.5-0.3-0.9-0.6-1.2s-0.7-0.6-1.1-0.7
		c-0.5-0.2-1-0.2-1.7-0.2s-1.4,0.1-2,0.3c-0.6,0.2-1.1,0.4-1.5,0.6c-0.4,0.2-0.8,0.4-1.1,0.6c-0.3,0.2-0.5,0.3-0.7,0.3
		c-0.1,0-0.2,0-0.3-0.1c-0.1,0-0.1-0.1-0.2-0.2c-0.1-0.1-0.1-0.2-0.1-0.4s0-0.3,0-0.5c0-0.3,0-0.5,0.1-0.7c0-0.2,0.1-0.3,0.3-0.5
		s0.4-0.3,0.8-0.6c0.4-0.3,0.9-0.4,1.4-0.6c0.5-0.2,1.1-0.3,1.7-0.4c0.6-0.1,1.2-0.2,1.9-0.2c1.2,0,2.2,0.1,3,0.4
		c0.8,0.3,1.5,0.7,2,1.2s0.9,1.1,1.1,1.9c0.2,0.8,0.3,1.6,0.3,2.7v10.9H-148.1z M-151.1,259.4h-2.5c-0.8,0-1.5,0.1-2.1,0.2
		c-0.6,0.1-1.1,0.3-1.5,0.6c-0.4,0.3-0.7,0.6-0.9,1c-0.2,0.4-0.3,0.8-0.3,1.3c0,0.8,0.3,1.5,0.8,2s1.3,0.8,2.2,0.8
		c0.8,0,1.5-0.2,2.2-0.6s1.4-1,2.1-1.8C-151.1,262.9-151.1,259.4-151.1,259.4z"/>
</g>
<g>
	<path class="st1" d="M-128.6,266.8c0,0.1,0,0.2-0.1,0.2c0,0.1-0.1,0.1-0.2,0.2c-0.1,0.1-0.3,0.1-0.5,0.1s-0.4,0-0.7,0
		c-0.3,0-0.5,0-0.7,0s-0.3-0.1-0.5-0.1s-0.2-0.1-0.2-0.2s-0.1-0.1-0.1-0.2v-9.5c0-0.9-0.1-1.7-0.2-2.2c-0.1-0.5-0.4-1.1-0.6-1.5
		c-0.3-0.4-0.6-0.7-1.1-0.9c-0.4-0.2-0.9-0.3-1.5-0.3c-0.7,0-1.5,0.3-2.2,0.8s-1.5,1.3-2.3,2.3v11.4c0,0.1,0,0.2-0.1,0.2
		c0,0.1-0.1,0.1-0.2,0.2c-0.1,0.1-0.3,0.1-0.5,0.1s-0.4,0-0.7,0c-0.3,0-0.5,0-0.7,0s-0.3-0.1-0.5-0.1c-0.1,0-0.2-0.1-0.2-0.2
		s-0.1-0.1-0.1-0.2v-16.3c0-0.1,0-0.2,0.1-0.2c0.1,0,0.1-0.1,0.2-0.2c0.1-0.1,0.2-0.1,0.4-0.1s0.4,0,0.7,0c0.3,0,0.5,0,0.7,0
		s0.3,0.1,0.4,0.1c0.1,0.1,0.2,0.1,0.2,0.2c0,0.1,0.1,0.1,0.1,0.2v2.1c0.9-1,1.8-1.8,2.7-2.2c0.9-0.5,1.8-0.7,2.8-0.7
		c1.1,0,2,0.2,2.7,0.6c0.7,0.4,1.3,0.9,1.8,1.5s0.8,1.3,1,2.2c0.2,0.8,0.3,1.8,0.3,3v9.7H-128.6z"/>
</g>
<g>
	<path class="st1" d="M-116.5,267.2l-2.2,6c-0.1,0.2-0.3,0.3-0.6,0.4c-0.3,0.1-0.7,0.2-1.3,0.2c-0.3,0-0.6,0-0.8,0
		c-0.2,0-0.3-0.1-0.4-0.2s-0.2-0.2-0.2-0.3c0-0.1,0-0.3,0.1-0.4l2.2-5.7c-0.1,0-0.2-0.1-0.3-0.2c-0.1-0.1-0.2-0.2-0.2-0.3l-5.8-15.5
		c-0.1-0.3-0.1-0.5-0.1-0.6s0-0.3,0.1-0.3c0.1-0.1,0.3-0.1,0.5-0.2c0.2,0,0.5,0,0.9,0s0.6,0,0.8,0c0.2,0,0.4,0.1,0.5,0.1
		s0.2,0.1,0.3,0.2c0.1,0.1,0.1,0.2,0.2,0.4l4.6,13h0.1l4.5-13.1c0.1-0.2,0.2-0.4,0.3-0.4c0.1-0.1,0.3-0.1,0.5-0.1s0.5,0,0.9,0
		c0.3,0,0.6,0,0.8,0c0.2,0,0.4,0.1,0.5,0.2c0.1,0.1,0.2,0.2,0.2,0.3s0,0.3-0.1,0.5L-116.5,267.2z"/>
</g>
<g id="XMLID_51_">
	<path id="XMLID_52_" class="st2" d="M117.9,79.5V41.2h5.6l8.4,20v-20h6.4v38.3h-5.4l-8.4-21.3v21.3H117.9L117.9,79.5z"/>
	<path id="XMLID_54_" class="st2" d="M145.1,79.5l8.3-38.3h6.9l8.3,38.3H161l-1.6-8.2h-5l-1.5,8.2H145.1z M154.8,66.6h4l-1.9-14.2
		L154.8,66.6z"/>
	<path id="XMLID_57_" class="st2" d="M177.9,79.5V47h-5.6v-5.8h18.9V47h-5.5v32.5H177.9z"/>
	<path id="XMLID_59_" class="st2" d="M197.9,65.3V41.2h7.8V65c0,1.4,0,2.4,0,3s0.1,1.4,0.1,2.3s0.2,1.5,0.3,1.9s0.3,0.7,0.6,1.1
		c0.2,0.4,0.6,0.7,1,0.8s0.9,0.2,1.4,0.2c0.6,0,1.1-0.1,1.4-0.2s0.7-0.4,1-0.8c0.2-0.4,0.4-0.8,0.6-1.1c0.1-0.4,0.2-1,0.3-1.8
		s0.1-1.6,0.1-2.2s0-1.6,0-2.9c0-0.1,0-0.1,0-0.1v-24h7.7v24.1c0,1.2,0,2.3-0.1,3.3s-0.2,2-0.4,3.1c-0.2,1.1-0.5,2-0.8,2.8
		s-0.8,1.6-1.4,2.3s-1.2,1.4-2,1.8s-1.7,0.9-2.8,1.1c-1.1,0.3-2.3,0.4-3.7,0.4s-2.6-0.1-3.7-0.4c-1.1-0.3-2-0.7-2.8-1.1
		c-0.8-0.5-1.4-1.1-2-1.8c-0.6-0.8-1-1.5-1.4-2.3c-0.3-0.8-0.6-1.8-0.8-2.8s-0.3-2.1-0.4-3.1C198,67.6,197.9,66.5,197.9,65.3z"/>
	<path id="XMLID_61_" class="st2" d="M229,79.5V41.2h8.4c1.9,0,3.6,0.2,5,0.5c1.5,0.4,2.7,0.9,3.8,1.7s1.9,1.8,2.5,3.1
		s0.9,2.9,0.9,4.7c0,0.8,0,1.5-0.1,2.1s-0.2,1.3-0.4,2.1c-0.2,0.8-0.5,1.5-0.8,2.1s-0.9,1.2-1.5,1.8s-1.5,1.1-2.4,1.5
		c2.3,7.3,4.3,13.5,6,18.5h-8L238,61.7h-1.3v17.6L229,79.5L229,79.5z M236.8,57.2h2.2c0.6,0,1.1-0.2,1.5-0.6s0.7-0.9,0.9-1.5
		c0.2-0.6,0.3-1.2,0.4-1.7s0.1-1,0.1-1.5s0-0.9-0.1-1.4s-0.2-1-0.3-1.6s-0.4-1.1-0.8-1.5s-0.8-0.6-1.4-0.6h-2.6L236.8,57.2
		L236.8,57.2z"/>
	<path id="XMLID_64_" class="st2" d="M255.2,79.5l8.3-38.3h6.9l8.3,38.3h-7.6l-1.6-8.2h-5l-1.5,8.2H255.2z M264.9,66.6h4L267,52.4
		L264.9,66.6z"/>
	<path id="XMLID_67_" class="st2" d="M285.4,79.5V41.2h7.8v33h7.6v5.3H285.4z"/>
	<path id="XMLID_69_" class="st2" d="M319.4,68.6l7.9-1.5c0,0.8,0,1.5,0,2.1s0.1,1.2,0.2,2s0.3,1.3,0.5,1.7c0.2,0.5,0.5,0.8,0.9,1.1
		c0.4,0.3,0.8,0.5,1.3,0.5c1.5,0,2.3-1,2.3-2.9c0-2.7-1.5-5.4-4.5-8l-2.4-2c-0.8-0.6-1.4-1.2-1.8-1.6c-0.5-0.4-1-1-1.6-1.7
		s-1.1-1.4-1.5-2.1c-0.4-0.7-0.6-1.5-0.9-2.4s-0.4-2-0.4-3c0-3.1,1-5.6,3-7.4s4.6-2.7,7.9-2.7c2.7,0,5,1,6.9,2.9s2.9,4.3,2.9,7v0.3
		c0,0.2,0,0.4,0,0.6l-8,1.1c0-0.2,0-0.4,0-0.7s0-0.6,0-0.8c0-0.5,0-1-0.1-1.5s-0.2-0.9-0.4-1.4s-0.4-0.8-0.8-1.1s-0.8-0.4-1.2-0.4
		c-0.9,0-1.5,0.3-1.9,1s-0.6,1.5-0.6,2.4c0,0.8,0.1,1.5,0.4,2.2s0.6,1.3,1.1,2c0.5,0.6,1,1.1,1.4,1.5s1,0.9,1.7,1.5s1.2,1,1.5,1.3
		c1.1,1,2,1.9,2.8,2.7s1.5,1.8,2.1,2.9c0.7,1.1,1.2,2.2,1.5,3.5c0.3,1.2,0.5,2.6,0.5,4c0,2.7-1,4.9-2.9,6.6s-4.2,2.6-7,2.6
		c-1.8,0-3.4-0.3-4.7-1s-2.5-1.5-3.3-2.7s-1.5-2.4-2-3.7C319.7,71.6,319.4,70.1,319.4,68.6z"/>
	<path id="XMLID_71_" class="st2" d="M351.1,79.5V47h-5.6v-5.8h18.9V47h-5.5v32.5H351.1z"/>
	<path id="XMLID_76_" class="st2" d="M371.1,65.3V41.2h7.8V65c0,1.4,0,2.4,0,3s0,1.4,0.1,2.3s0.2,1.5,0.3,1.9
		c0.1,0.4,0.3,0.7,0.6,1.1c0.2,0.4,0.6,0.7,1,0.8s0.9,0.2,1.5,0.2s1-0.1,1.5-0.2c0.4-0.1,0.7-0.4,1-0.8c0.2-0.4,0.4-0.8,0.6-1.1
		c0.1-0.4,0.2-1,0.3-1.8s0.1-1.6,0.1-2.2s0-1.6,0-2.9c0-0.1,0-0.1,0-0.1v-24h7.8v24.1c0,1.2,0,2.3-0.1,3.3s-0.2,2-0.4,3.1
		c-0.2,1.1-0.5,2-0.8,2.8s-0.8,1.6-1.4,2.3s-1.2,1.4-2,1.8s-1.7,0.9-2.8,1.1s-2.3,0.4-3.7,0.4s-2.6-0.1-3.7-0.4s-2-0.7-2.8-1.1
		c-0.8-0.5-1.4-1.1-2-1.8c-0.6-0.8-1-1.5-1.4-2.3c-0.3-0.8-0.6-1.8-0.8-2.8c-0.2-1.1-0.3-2.1-0.4-3.1
		C371.1,67.6,371.1,66.5,371.1,65.3z"/>
	<path id="XMLID_78_" class="st2" d="M402.2,79.5V41.2h16v5.3H410V57h5.8v5.5H410v17.1L402.2,79.5L402.2,79.5z"/>
	<path id="XMLID_80_" class="st2" d="M424.8,79.5V41.2h16v5.3h-8.3V57h5.8v5.5h-5.8v17.1L424.8,79.5L424.8,79.5z"/>
	<path id="XMLID_82_" class="st2" d="M460.5,79.5V41.2h7.8v38.3H460.5z"/>
	<path id="XMLID_84_" class="st2" d="M477.1,79.5V41.2h5.6l8.4,20v-20h6.4v38.3h-5.4l-8.4-21.3v21.3H477.1L477.1,79.5z"/>
	<path id="XMLID_86_" class="st2" d="M505.9,66.7V54.1c0-9,3.7-13.6,11.1-13.6c1.6,0,3,0.2,4.2,0.6c1.2,0.4,2.2,1,3,1.7
		s1.5,1.6,2,2.7s0.9,2.2,1.2,3.5s0.3,2.6,0.3,4.2v3.3h-7.6V53c0-0.7,0-1.3,0-1.8s-0.1-1.1-0.2-1.7c-0.1-0.6-0.3-1.2-0.5-1.6
		c-0.2-0.4-0.5-0.8-0.9-1c-0.4-0.3-0.9-0.4-1.5-0.4c-2.2,0-3.4,1.9-3.4,5.7v16.5c0,3.8,1.1,5.6,3.4,5.6c0.7,0,1.2-0.2,1.7-0.6
		s0.8-0.9,1-1.6s0.3-1.4,0.4-2.1c0.1-0.7,0.1-1.4,0.1-2.3v-3.9h7.6V67c0,1.5-0.2,2.8-0.4,4s-0.6,2.4-1.1,3.6s-1.2,2.1-2,3
		c-0.8,0.8-1.8,1.5-3,1.9c-1.2,0.5-2.7,0.7-4.3,0.7c-1.7,0-3.1-0.2-4.4-0.7c-1.3-0.5-2.3-1.1-3.2-1.9s-1.5-1.8-2-3s-0.9-2.4-1.1-3.7
		C506,69.7,505.9,68.3,505.9,66.7z"/>
</g>
<rect id="XMLID_21_" x="117" y="18.7" class="st2" width="409.9" height="7.7"/>
<rect id="XMLID_20_" x="117" y="95.2" class="st2" width="409.9" height="7.7"/>
<path id="XMLID_18_" class="st2" d="M9.1,0.5c0,0-33.2,72.5,29.2,87.1c0,0,8.9,10.7,16.6,15.4l0.3-1.5c0,0.5,0,1,0.1,1.5l3-0.9
	c0,0,0-33,22.1-54.7c0,0-15.1,20.3-17.2,41c0,0,16.6-2,20.8-15.6c3.9-12.7,0.7-30.2,11.2-39.2c0,0-55.2,11.6-37.4,53.4
	c0,0-2.2,6.4-2.6,12.4C51.5,96.5,17.9,69.7,12,28.8c0,0,10.6,34.1,32.3,53.9c0,0,13.4-22-0.2-36.7C30.7,31.3,10.6,20,9.1,0.5"/>
<g>
	<path class="st2" d="M1.7,144.6L12,119.3h2.7L25,144.6h-3.3l-3-7.6H8l-3,7.6H1.7z M13.3,123.2c-1.1,3.1-2.2,6-3.2,8.6l-0.9,2.4h8.4
		l-1-2.4C15.5,129.2,14.5,126.3,13.3,123.2L13.3,123.2z"/>
	<path class="st2" d="M38.3,131.4c0,0.5,0.1,0.9,0.3,1.2c0.2,0.3,0.5,0.6,0.8,0.8s0.8,0.4,1.2,0.5c0.5,0.1,0.9,0.2,1.4,0.3
		c0.7,0.2,1.3,0.3,1.9,0.5s1.2,0.5,1.7,0.8c0.5,0.4,0.9,0.9,1.2,1.5c0.3,0.6,0.5,1.4,0.5,2.4c0,0.9-0.2,1.7-0.5,2.4
		s-0.9,1.3-1.5,1.8c-0.6,0.5-1.4,0.8-2.3,1.1c-0.9,0.2-1.9,0.4-2.9,0.4c-0.7,0-1.3,0-1.8-0.1c-0.5-0.1-1-0.2-1.4-0.3
		c-0.4-0.1-0.8-0.2-1-0.3c-0.3-0.1-0.5-0.2-0.7-0.3v-2.5c0.7,0.3,1.5,0.5,2.2,0.7c0.7,0.2,1.5,0.3,2.4,0.3c0.7,0,1.3-0.1,1.9-0.2
		s1-0.3,1.4-0.6c0.4-0.2,0.7-0.6,0.9-0.9c0.2-0.4,0.3-0.8,0.3-1.3c0-0.5-0.1-0.9-0.3-1.2c-0.2-0.3-0.5-0.6-0.8-0.8
		c-0.3-0.2-0.7-0.4-1.2-0.5c-0.4-0.1-0.9-0.3-1.4-0.4c-0.6-0.1-1.3-0.3-1.9-0.5c-0.6-0.2-1.2-0.5-1.8-0.8s-1-0.8-1.3-1.4
		c-0.3-0.6-0.5-1.3-0.5-2.3c0-0.9,0.2-1.8,0.5-2.5c0.3-0.7,0.8-1.3,1.4-1.7s1.3-0.8,2-1s1.6-0.3,2.4-0.3c1,0,1.9,0.1,2.8,0.3
		c0.9,0.2,1.6,0.4,2.3,0.7v2.5c-0.7-0.3-1.5-0.5-2.2-0.7s-1.5-0.3-2.3-0.3c-0.7,0-1.3,0.1-1.7,0.2s-0.9,0.3-1.2,0.6
		c-0.3,0.2-0.5,0.5-0.7,0.9C38.4,130.6,38.3,131,38.3,131.4z"/>
	<path class="st2" d="M62.4,142.6L62.4,142.6c-0.3,0.3-0.6,0.6-1,0.9c-0.4,0.3-0.8,0.6-1.3,0.8c-0.5,0.2-1,0.4-1.6,0.6
		s-1.2,0.2-1.8,0.2c-0.9,0-1.7-0.1-2.4-0.4c-0.7-0.3-1.3-0.6-1.9-1.1c-0.5-0.5-0.9-1.1-1.2-1.8c-0.3-0.7-0.4-1.5-0.4-2.4
		c0-0.9,0.2-1.7,0.5-2.4c0.3-0.7,0.8-1.3,1.4-1.8s1.3-0.9,2.1-1.1s1.7-0.4,2.7-0.4c0.9,0,1.8,0.1,2.6,0.2c0.8,0.2,1.5,0.3,2.1,0.6
		h0.1v-1.2c0-0.5,0-0.9-0.1-1.3s-0.2-0.7-0.3-1c-0.3-0.6-0.9-1.1-1.6-1.5c-0.7-0.4-1.7-0.6-2.9-0.6c-0.9,0-1.8,0.1-2.6,0.3
		c-0.8,0.2-1.6,0.4-2.4,0.7v-2.5c0.3-0.2,0.7-0.3,1.1-0.4c0.4-0.1,0.8-0.2,1.3-0.3c0.5-0.1,0.9-0.2,1.4-0.2c0.5,0,1-0.1,1.5-0.1
		c1.8,0,3.3,0.3,4.4,1c1.2,0.6,2,1.5,2.5,2.6c0.2,0.4,0.3,0.8,0.4,1.3c0.1,0.5,0.1,1,0.1,1.6v12h-2.5L62.4,142.6z M62.2,136.7
		c-0.5-0.2-1.2-0.3-1.9-0.4c-0.7-0.1-1.6-0.2-2.4-0.2c-1.2,0-2.2,0.3-2.9,0.8c-0.7,0.5-1.1,1.3-1.1,2.4c0,0.6,0.1,1,0.3,1.5
		c0.2,0.4,0.4,0.8,0.7,1c0.3,0.3,0.7,0.5,1.1,0.6c0.4,0.1,0.9,0.2,1.3,0.2c0.6,0,1.2-0.1,1.7-0.3s1-0.4,1.4-0.7
		c0.4-0.3,0.8-0.5,1.1-0.8c0.3-0.3,0.5-0.4,0.6-0.6V136.7z"/>
	<path class="st2" d="M71,144.6v-27.4h2.9v27.4H71z"/>
	<path class="st2" d="M88.3,142.5c1,0,1.9-0.1,2.7-0.2c0.8-0.2,1.6-0.4,2.4-0.7v2.4c-0.6,0.3-1.4,0.6-2.4,0.7s-2,0.3-3,0.3
		c-1.3,0-2.5-0.2-3.6-0.5c-1.1-0.3-2.1-0.9-2.9-1.6c-0.8-0.7-1.5-1.7-1.9-2.9s-0.7-2.6-0.7-4.3c0-1.6,0.2-3.1,0.7-4.3s1.1-2.2,1.8-3
		c0.8-0.8,1.6-1.4,2.6-1.8c1-0.4,2-0.6,3.1-0.6c1,0,1.9,0.2,2.8,0.5c0.9,0.3,1.6,0.9,2.3,1.6c0.6,0.7,1.1,1.6,1.5,2.8
		c0.4,1.1,0.6,2.5,0.6,4.1c0,0.2,0,0.3,0,0.4c0,0.1,0,0.3,0,0.7H81.7c0,1.1,0.2,2.1,0.5,2.9c0.3,0.8,0.8,1.4,1.4,1.9
		c0.6,0.5,1.3,0.9,2.1,1.1S87.4,142.5,88.3,142.5z M86.8,128.6c-0.7,0-1.3,0.1-1.9,0.4c-0.6,0.3-1.1,0.6-1.5,1.1
		c-0.4,0.5-0.8,1-1.1,1.6c-0.3,0.6-0.4,1.3-0.5,2H91c0-0.7-0.1-1.4-0.3-2c-0.2-0.6-0.5-1.1-0.8-1.6c-0.4-0.5-0.8-0.8-1.3-1.1
		C88.1,128.8,87.5,128.6,86.8,128.6z"/>
	<path class="st2" d="M101.1,131.4c0,0.5,0.1,0.9,0.3,1.2c0.2,0.3,0.5,0.6,0.8,0.8s0.8,0.4,1.2,0.5c0.5,0.1,0.9,0.2,1.4,0.3
		c0.7,0.2,1.3,0.3,1.9,0.5s1.2,0.5,1.7,0.8c0.5,0.4,0.9,0.9,1.2,1.5c0.3,0.6,0.5,1.4,0.5,2.4c0,0.9-0.2,1.7-0.5,2.4
		s-0.9,1.3-1.5,1.8c-0.6,0.5-1.4,0.8-2.3,1.1c-0.9,0.2-1.9,0.4-2.9,0.4c-0.7,0-1.3,0-1.8-0.1c-0.5-0.1-1-0.2-1.4-0.3
		c-0.4-0.1-0.8-0.2-1-0.3c-0.3-0.1-0.5-0.2-0.7-0.3v-2.5c0.7,0.3,1.5,0.5,2.2,0.7c0.7,0.2,1.5,0.3,2.4,0.3c0.7,0,1.3-0.1,1.9-0.2
		s1-0.3,1.4-0.6c0.4-0.2,0.7-0.6,0.9-0.9c0.2-0.4,0.3-0.8,0.3-1.3c0-0.5-0.1-0.9-0.3-1.2c-0.2-0.3-0.5-0.6-0.8-0.8
		c-0.3-0.2-0.7-0.4-1.2-0.5c-0.4-0.1-0.9-0.3-1.4-0.4c-0.6-0.1-1.3-0.3-1.9-0.5c-0.6-0.2-1.2-0.5-1.8-0.8s-1-0.8-1.3-1.4
		c-0.3-0.6-0.5-1.3-0.5-2.3c0-0.9,0.2-1.8,0.5-2.5c0.3-0.7,0.8-1.3,1.4-1.7s1.3-0.8,2-1s1.6-0.3,2.4-0.3c1,0,1.9,0.1,2.8,0.3
		c0.9,0.2,1.6,0.4,2.3,0.7v2.5c-0.7-0.3-1.5-0.5-2.2-0.7s-1.5-0.3-2.3-0.3c-0.7,0-1.3,0.1-1.7,0.2s-0.9,0.3-1.2,0.6
		c-0.3,0.2-0.5,0.5-0.7,0.9C101.2,130.6,101.1,131,101.1,131.4z"/>
	<path class="st2" d="M133,142.6L133,142.6c-0.3,0.3-0.6,0.6-1,0.9c-0.4,0.3-0.8,0.6-1.3,0.8c-0.5,0.2-1,0.4-1.6,0.6
		s-1.2,0.2-1.8,0.2c-0.9,0-1.7-0.1-2.4-0.4c-0.7-0.3-1.3-0.6-1.9-1.1c-0.5-0.5-0.9-1.1-1.2-1.8c-0.3-0.7-0.4-1.5-0.4-2.4
		c0-0.9,0.2-1.7,0.5-2.4c0.3-0.7,0.8-1.3,1.4-1.8s1.3-0.9,2.1-1.1s1.7-0.4,2.7-0.4c0.9,0,1.8,0.1,2.6,0.2c0.8,0.2,1.5,0.3,2.1,0.6
		h0.1v-1.2c0-0.5,0-0.9-0.1-1.3s-0.2-0.7-0.3-1c-0.3-0.6-0.9-1.1-1.6-1.5c-0.7-0.4-1.7-0.6-2.9-0.6c-0.9,0-1.8,0.1-2.6,0.3
		c-0.8,0.2-1.6,0.4-2.4,0.7v-2.5c0.3-0.2,0.7-0.3,1.1-0.4c0.4-0.1,0.8-0.2,1.3-0.3c0.5-0.1,0.9-0.2,1.4-0.2c0.5,0,1-0.1,1.5-0.1
		c1.8,0,3.3,0.3,4.4,1c1.2,0.6,2,1.5,2.5,2.6c0.2,0.4,0.3,0.8,0.4,1.3c0.1,0.5,0.1,1,0.1,1.6v12h-2.5L133,142.6z M132.8,136.7
		c-0.5-0.2-1.2-0.3-1.9-0.4c-0.7-0.1-1.6-0.2-2.4-0.2c-1.2,0-2.2,0.3-2.9,0.8c-0.7,0.5-1.1,1.3-1.1,2.4c0,0.6,0.1,1,0.3,1.5
		c0.2,0.4,0.4,0.8,0.7,1c0.3,0.3,0.7,0.5,1.1,0.6c0.4,0.1,0.9,0.2,1.3,0.2c0.6,0,1.2-0.1,1.7-0.3s1-0.4,1.4-0.7
		c0.4-0.3,0.8-0.5,1.1-0.8c0.3-0.3,0.5-0.4,0.6-0.6V136.7z"/>
	<path class="st2" d="M144.2,129.1L144.2,129.1c0.4-0.4,0.7-0.8,1.1-1.2c0.4-0.4,0.8-0.7,1.3-0.9c0.5-0.3,1-0.5,1.6-0.6
		c0.6-0.2,1.2-0.2,1.9-0.2c0.8,0,1.6,0.1,2.3,0.3s1.3,0.6,1.9,1.1c0.5,0.5,0.9,1.2,1.3,2c0.3,0.8,0.5,1.8,0.5,3v12h-2.9V133
		c0-1.5-0.3-2.7-0.9-3.3c-0.6-0.7-1.5-1-2.6-1c-1,0-2,0.3-2.9,0.8c-0.9,0.6-1.8,1.3-2.4,2.3v12.8h-2.9v-18h2.3L144.2,129.1z"/>
	<path class="st2" d="M160.8,135.8c0-1.2,0.1-2.4,0.4-3.3s0.6-1.8,1-2.5c0.4-0.7,0.9-1.3,1.4-1.8c0.5-0.5,1.1-0.9,1.7-1.2
		c0.6-0.3,1.2-0.5,1.8-0.7c0.6-0.1,1.2-0.2,1.7-0.2c1.1,0,2,0.2,2.9,0.5c0.8,0.4,1.5,0.9,2.2,1.6h0.1v-11.1h2.9v27.4h-2.2l-0.6-2
		h-0.1c-0.2,0.3-0.5,0.6-0.8,0.9c-0.3,0.3-0.7,0.6-1.1,0.8c-0.4,0.2-0.9,0.4-1.4,0.6s-1.2,0.2-1.9,0.2c-1,0-1.9-0.2-2.9-0.5
		s-1.8-0.9-2.5-1.6c-0.7-0.7-1.3-1.7-1.8-2.9C161,138.9,160.8,137.5,160.8,135.8z M163.8,135.8c0,1,0.1,2,0.3,2.8
		c0.2,0.8,0.6,1.5,1,2.1s1,1,1.6,1.4c0.6,0.3,1.4,0.5,2.2,0.5c0.6,0,1.2-0.1,1.7-0.2c0.5-0.2,1-0.4,1.4-0.6c0.4-0.3,0.7-0.5,1-0.8
		c0.3-0.3,0.5-0.5,0.7-0.8v-9.4c-0.6-0.6-1.3-1.1-2.1-1.5c-0.8-0.4-1.7-0.6-2.6-0.6c-0.6,0-1.1,0.1-1.7,0.3
		c-0.6,0.2-1.2,0.6-1.7,1.1c-0.5,0.5-1,1.3-1.3,2.2C164,133.2,163.8,134.4,163.8,135.8z"/>
	<path class="st2" d="M189.2,135.8c0-1.2,0.1-2.4,0.4-3.3s0.6-1.8,1-2.5c0.4-0.7,0.9-1.3,1.4-1.8c0.5-0.5,1.1-0.9,1.7-1.2
		c0.6-0.3,1.2-0.5,1.8-0.7c0.6-0.1,1.2-0.2,1.7-0.2c1.1,0,2,0.2,2.9,0.5c0.8,0.4,1.5,0.9,2.2,1.6h0.1v-11.1h2.9v27.4h-2.2l-0.6-2
		h-0.1c-0.2,0.3-0.5,0.6-0.8,0.9c-0.3,0.3-0.7,0.6-1.1,0.8c-0.4,0.2-0.9,0.4-1.4,0.6s-1.2,0.2-1.9,0.2c-1,0-1.9-0.2-2.9-0.5
		s-1.8-0.9-2.5-1.6c-0.7-0.7-1.3-1.7-1.8-2.9C189.5,138.9,189.2,137.5,189.2,135.8z M192.3,135.8c0,1,0.1,2,0.3,2.8
		c0.2,0.8,0.6,1.5,1,2.1s1,1,1.6,1.4c0.6,0.3,1.4,0.5,2.2,0.5c0.6,0,1.2-0.1,1.7-0.2c0.5-0.2,1-0.4,1.4-0.6c0.4-0.3,0.7-0.5,1-0.8
		c0.3-0.3,0.5-0.5,0.7-0.8v-9.4c-0.6-0.6-1.3-1.1-2.1-1.5c-0.8-0.4-1.7-0.6-2.6-0.6c-0.6,0-1.1,0.1-1.7,0.3
		c-0.6,0.2-1.2,0.6-1.7,1.1c-0.5,0.5-1,1.3-1.3,2.2C192.5,133.2,192.3,134.4,192.3,135.8z"/>
	<path class="st2" d="M211.1,122.4v-3.3h2.9v3.3H211.1z M211.2,144.6v-18h2.9v18H211.2z"/>
	<path class="st2" d="M222.1,131.4c0,0.5,0.1,0.9,0.3,1.2c0.2,0.3,0.5,0.6,0.8,0.8s0.8,0.4,1.2,0.5c0.5,0.1,0.9,0.2,1.4,0.3
		c0.7,0.2,1.3,0.3,1.9,0.5s1.2,0.5,1.7,0.8c0.5,0.4,0.9,0.9,1.2,1.5c0.3,0.6,0.5,1.4,0.5,2.4c0,0.9-0.2,1.7-0.5,2.4
		s-0.9,1.3-1.5,1.8c-0.6,0.5-1.4,0.8-2.3,1.1c-0.9,0.2-1.9,0.4-2.9,0.4c-0.7,0-1.3,0-1.8-0.1c-0.5-0.1-1-0.2-1.4-0.3
		c-0.4-0.1-0.8-0.2-1-0.3c-0.3-0.1-0.5-0.2-0.7-0.3v-2.5c0.7,0.3,1.5,0.5,2.2,0.7c0.7,0.2,1.5,0.3,2.4,0.3c0.7,0,1.3-0.1,1.9-0.2
		s1-0.3,1.4-0.6c0.4-0.2,0.7-0.6,0.9-0.9c0.2-0.4,0.3-0.8,0.3-1.3c0-0.5-0.1-0.9-0.3-1.2c-0.2-0.3-0.5-0.6-0.8-0.8
		c-0.3-0.2-0.7-0.4-1.2-0.5c-0.4-0.1-0.9-0.3-1.4-0.4c-0.6-0.1-1.3-0.3-1.9-0.5c-0.6-0.2-1.2-0.5-1.8-0.8s-1-0.8-1.3-1.4
		c-0.3-0.6-0.5-1.3-0.5-2.3c0-0.9,0.2-1.8,0.5-2.5c0.3-0.7,0.8-1.3,1.4-1.7s1.3-0.8,2-1s1.6-0.3,2.4-0.3c1,0,1.9,0.1,2.8,0.3
		c0.9,0.2,1.6,0.4,2.3,0.7v2.5c-0.7-0.3-1.5-0.5-2.2-0.7s-1.5-0.3-2.3-0.3c-0.7,0-1.3,0.1-1.7,0.2s-0.9,0.3-1.2,0.6
		c-0.3,0.2-0.5,0.5-0.7,0.9C222.2,130.6,222.1,131,222.1,131.4z"/>
	<path class="st2" d="M245.1,144.6c-0.3,0.1-0.6,0.2-1.2,0.3s-1.1,0.1-1.9,0.2c-0.9,0-1.8-0.1-2.5-0.3c-0.7-0.2-1.3-0.6-1.7-1
		s-0.8-1-1-1.6c-0.2-0.6-0.3-1.3-0.3-2.1v-10.9h-3.5v-2.5h3.5v-4.9h2.9v4.9h5.4v2.5h-5.4v10.5c0,0.4,0.1,0.8,0.2,1.2
		c0.1,0.4,0.3,0.7,0.6,0.9c0.3,0.3,0.6,0.5,1,0.6c0.4,0.1,0.9,0.2,1.5,0.2c0.4,0,0.8,0,1.2-0.1c0.4-0.1,0.8-0.1,1.2-0.2V144.6z"/>
	<path class="st2" d="M258.9,129h-0.2c-0.7,0-1.4,0.1-2,0.2c-0.7,0.1-1.3,0.3-1.9,0.6c-0.6,0.3-1.1,0.6-1.6,1s-0.9,0.8-1.2,1.3v12.5
		h-2.9v-18h2.3l0.6,2.9h0.1c0.3-0.5,0.6-0.9,1.1-1.3c0.4-0.4,0.9-0.8,1.4-1.1c0.5-0.3,1.1-0.5,1.7-0.7c0.6-0.2,1.3-0.3,2-0.3
		c0.1,0,0.3,0,0.4,0c0.1,0,0.2,0,0.3,0V129z"/>
	<path class="st2" d="M262.1,122.4v-3.3h2.9v3.3H262.1z M262.2,144.6v-18h2.9v18H262.2z"/>
	<path class="st2" d="M287.1,135.3c0,1.7-0.2,3.1-0.7,4.3s-1.1,2.2-1.8,3c-0.7,0.8-1.6,1.4-2.6,1.8c-1,0.4-1.9,0.6-3,0.6
		c-0.8,0-1.4-0.1-2-0.3c-0.6-0.2-1.1-0.4-1.5-0.7s-0.7-0.5-1-0.8c-0.2-0.3-0.4-0.5-0.5-0.7H274l-0.6,2h-2.2v-27.4h2.9v11.1h0.1
		c0.6-0.7,1.4-1.2,2.2-1.6s1.8-0.6,2.9-0.6c0.5,0,1,0.1,1.6,0.2s1.2,0.3,1.7,0.6s1.1,0.6,1.7,1.1s1,1,1.4,1.7s0.7,1.5,1,2.4
		S287.1,134.1,287.1,135.3z M284,135.5c0-1.4-0.2-2.6-0.5-3.5c-0.3-0.9-0.8-1.6-1.3-2.1c-0.5-0.5-1.1-0.8-1.7-1
		c-0.6-0.2-1.2-0.3-1.8-0.3c-0.9,0-1.8,0.2-2.6,0.6s-1.5,0.9-2.1,1.5v9.4c0.2,0.2,0.4,0.5,0.7,0.8c0.3,0.3,0.6,0.5,1,0.8
		c0.4,0.2,0.8,0.5,1.3,0.6c0.5,0.2,1,0.3,1.6,0.3c0.9,0,1.6-0.2,2.3-0.5c0.7-0.3,1.2-0.8,1.7-1.4c0.4-0.6,0.8-1.4,1-2.2
		C283.9,137.5,284,136.5,284,135.5z"/>
	<path class="st2" d="M298.9,145c-0.9,0-1.8-0.1-2.5-0.3s-1.4-0.5-2-0.9c-0.6-0.4-1-0.8-1.4-1.3c-0.4-0.5-0.7-1.1-0.9-1.7
		c-0.2-0.5-0.3-1-0.4-1.5c-0.1-0.5-0.1-1.1-0.1-1.8v-11h2.9v11c0,1,0.1,1.8,0.4,2.5c0.3,0.8,0.8,1.4,1.5,1.8s1.5,0.7,2.6,0.7
		c1.1,0,2-0.2,2.7-0.7c0.7-0.5,1.2-1.1,1.4-1.9c0.2-0.6,0.3-1.4,0.3-2.3v-11h2.9v11c0,0.6,0,1.2-0.1,1.7c-0.1,0.5-0.2,1-0.3,1.4
		c-0.2,0.6-0.5,1.2-0.9,1.7c-0.4,0.5-0.9,1-1.5,1.4c-0.6,0.4-1.3,0.7-2,0.9C300.7,144.9,299.8,145,298.9,145z"/>
	<path class="st2" d="M321.2,144.6c-0.3,0.1-0.6,0.2-1.2,0.3s-1.1,0.1-1.9,0.2c-0.9,0-1.8-0.1-2.5-0.3c-0.7-0.2-1.3-0.6-1.7-1
		s-0.8-1-1-1.6c-0.2-0.6-0.3-1.3-0.3-2.1v-10.9h-3.5v-2.5h3.5v-4.9h2.9v4.9h5.4v2.5h-5.4v10.5c0,0.4,0.1,0.8,0.2,1.2
		c0.1,0.4,0.3,0.7,0.6,0.9c0.3,0.3,0.6,0.5,1,0.6c0.4,0.1,0.9,0.2,1.5,0.2c0.4,0,0.8,0,1.2-0.1c0.4-0.1,0.8-0.1,1.2-0.2V144.6z"/>
	<path class="st2" d="M325.3,122.4v-3.3h2.9v3.3H325.3z M325.4,144.6v-18h2.9v18H325.4z"/>
	<path class="st2" d="M350.2,135.6c0,1.4-0.2,2.7-0.6,3.9c-0.4,1.2-1,2.2-1.7,3c-0.7,0.8-1.6,1.5-2.7,1.9c-1,0.5-2.2,0.7-3.5,0.7
		c-1.3,0-2.5-0.2-3.6-0.7c-1.1-0.5-1.9-1.1-2.7-1.9s-1.3-1.8-1.7-3s-0.6-2.4-0.6-3.9c0-1.4,0.2-2.7,0.6-3.9c0.4-1.2,1-2.2,1.7-3
		c0.7-0.8,1.6-1.5,2.7-1.9c1.1-0.5,2.2-0.7,3.5-0.7c1.3,0,2.5,0.2,3.6,0.7c1.1,0.5,2,1.1,2.7,1.9s1.3,1.8,1.7,3
		C350,132.9,350.2,134.2,350.2,135.6z M347.1,135.6c0-1.1-0.1-2.1-0.4-3s-0.6-1.6-1.1-2.2c-0.5-0.6-1.1-1.1-1.7-1.4
		c-0.7-0.3-1.4-0.5-2.2-0.5s-1.5,0.2-2.2,0.5c-0.7,0.3-1.2,0.8-1.7,1.4c-0.5,0.6-0.9,1.3-1.1,2.2c-0.3,0.9-0.4,1.8-0.4,3
		c0,1.1,0.1,2.1,0.4,2.9c0.3,0.9,0.7,1.6,1.1,2.2s1.1,1,1.7,1.4c0.7,0.3,1.4,0.5,2.2,0.5c0.8,0,1.5-0.2,2.2-0.5
		c0.7-0.3,1.2-0.8,1.7-1.4s0.9-1.3,1.1-2.2C347,137.7,347.1,136.7,347.1,135.6z"/>
	<path class="st2" d="M357.6,129.1L357.6,129.1c0.4-0.4,0.7-0.8,1.1-1.2c0.4-0.4,0.8-0.7,1.3-0.9c0.5-0.3,1-0.5,1.6-0.6
		s1.2-0.2,1.9-0.2c0.8,0,1.6,0.1,2.3,0.3s1.3,0.6,1.9,1.1c0.5,0.5,0.9,1.2,1.3,2s0.5,1.8,0.5,3v12h-2.9V133c0-1.5-0.3-2.7-0.9-3.3
		c-0.6-0.7-1.5-1-2.6-1c-1,0-2,0.3-2.9,0.8c-0.9,0.6-1.8,1.3-2.4,2.3v12.8h-2.9v-18h2.3L357.6,129.1z"/>
	<path class="st2" d="M390.7,126.1c0.9,0,1.7,0.1,2.5,0.3c0.8,0.2,1.5,0.4,2,0.8v2.4c-0.8-0.3-1.5-0.5-2.2-0.7
		c-0.7-0.2-1.3-0.2-2-0.2c-0.7,0-1.5,0.1-2.2,0.4c-0.7,0.2-1.4,0.6-1.9,1.2c-0.6,0.5-1,1.3-1.4,2.2c-0.3,0.9-0.5,2-0.5,3.4
		c0,1,0.1,1.9,0.4,2.7c0.3,0.8,0.6,1.5,1.2,2.1s1.1,1.1,1.9,1.4s1.7,0.5,2.7,0.5c0.7,0,1.5-0.1,2.2-0.2c0.7-0.2,1.5-0.4,2.2-0.7v2.4
		c-0.2,0.1-0.5,0.3-0.8,0.4c-0.3,0.1-0.7,0.2-1.1,0.3c-0.4,0.1-0.9,0.2-1.3,0.2s-0.9,0.1-1.4,0.1c-1.2,0-2.4-0.2-3.4-0.5
		s-2-0.9-2.8-1.7c-0.8-0.8-1.4-1.7-1.9-2.9c-0.5-1.2-0.7-2.5-0.7-4.1c0-1.2,0.1-2.2,0.4-3.2c0.2-0.9,0.6-1.8,1-2.5
		c0.4-0.7,0.9-1.3,1.5-1.8s1.2-0.9,1.8-1.2s1.3-0.6,2-0.7C389.3,126.2,390,126.1,390.7,126.1z"/>
	<path class="st2" d="M415.9,135.6c0,1.4-0.2,2.7-0.6,3.9c-0.4,1.2-1,2.2-1.7,3c-0.7,0.8-1.6,1.5-2.7,1.9c-1,0.5-2.2,0.7-3.5,0.7
		c-1.3,0-2.5-0.2-3.6-0.7c-1.1-0.5-1.9-1.1-2.7-1.9s-1.3-1.8-1.7-3s-0.6-2.4-0.6-3.9c0-1.4,0.2-2.7,0.6-3.9c0.4-1.2,1-2.2,1.7-3
		c0.7-0.8,1.6-1.5,2.7-1.9c1.1-0.5,2.2-0.7,3.5-0.7c1.3,0,2.5,0.2,3.6,0.7c1.1,0.5,2,1.1,2.7,1.9s1.3,1.8,1.7,3
		C415.7,132.9,415.9,134.2,415.9,135.6z M412.9,135.6c0-1.1-0.1-2.1-0.4-3s-0.6-1.6-1.1-2.2c-0.5-0.6-1.1-1.1-1.7-1.4
		c-0.7-0.3-1.4-0.5-2.2-0.5s-1.5,0.2-2.2,0.5c-0.7,0.3-1.2,0.8-1.7,1.4c-0.5,0.6-0.9,1.3-1.1,2.2c-0.3,0.9-0.4,1.8-0.4,3
		c0,1.1,0.1,2.1,0.4,2.9c0.3,0.9,0.7,1.6,1.1,2.2s1.1,1,1.7,1.4c0.7,0.3,1.4,0.5,2.2,0.5c0.8,0,1.5-0.2,2.2-0.5
		c0.7-0.3,1.2-0.8,1.7-1.4s0.9-1.3,1.1-2.2C412.7,137.7,412.9,136.7,412.9,135.6z"/>
	<path class="st2" d="M435.2,144.6h-2.9V133c0-0.8-0.1-1.4-0.3-2c-0.2-0.5-0.4-1-0.7-1.4c-0.3-0.4-0.7-0.6-1.2-0.8
		c-0.4-0.2-0.9-0.2-1.5-0.2c-1,0-2,0.3-2.9,0.8c-0.9,0.6-1.6,1.3-2.3,2.3v12.8h-2.9v-18h2.3l0.6,2.5h0.1c0.3-0.4,0.7-0.8,1.1-1.2
		c0.4-0.4,0.8-0.7,1.3-0.9c0.5-0.3,1-0.5,1.6-0.6c0.6-0.2,1.2-0.2,1.9-0.2c1.3,0,2.4,0.3,3.3,1c0.9,0.6,1.6,1.5,2,2.6h0.1
		c0.8-1.1,1.7-2,2.7-2.6c1-0.6,2.2-1,3.6-1c0.6,0,1.3,0.1,2,0.3c0.7,0.2,1.4,0.5,1.9,1s1.1,1.1,1.5,2c0.4,0.8,0.6,1.9,0.6,3.2v12
		h-2.9V133c0-0.8-0.1-1.4-0.3-2s-0.4-1-0.7-1.4c-0.3-0.4-0.7-0.6-1.2-0.8s-0.9-0.2-1.5-0.2c-1,0-2,0.3-2.9,0.8
		c-0.9,0.6-1.6,1.3-2.3,2.3V144.6z"/>
	<path class="st2" d="M468.6,135.4c0,1.2-0.1,2.4-0.4,3.3s-0.6,1.8-1,2.5s-0.9,1.3-1.4,1.8c-0.5,0.5-1.1,0.9-1.7,1.2
		s-1.2,0.5-1.8,0.6c-0.6,0.1-1.2,0.2-1.7,0.2c-1.1,0-2.1-0.2-2.9-0.5c-0.8-0.4-1.5-0.9-2.2-1.6h-0.1v10.5h-2.9v-26.7h2.2l0.6,2h0.1
		c0.2-0.3,0.4-0.5,0.6-0.7c0.3-0.2,0.6-0.5,1-0.8c0.4-0.3,1-0.5,1.6-0.7c0.6-0.2,1.3-0.3,2-0.3c1,0,2,0.2,2.9,0.5
		c0.9,0.3,1.8,0.9,2.5,1.6c0.7,0.7,1.3,1.7,1.7,2.9S468.6,133.7,468.6,135.4z M465.5,135.4c0-1-0.1-2-0.3-2.8
		c-0.2-0.8-0.6-1.5-1-2.1c-0.4-0.6-1-1-1.6-1.4c-0.6-0.3-1.4-0.5-2.2-0.5c-0.6,0-1.2,0.1-1.7,0.2c-0.5,0.2-1,0.4-1.4,0.6
		c-0.4,0.3-0.8,0.5-1,0.8c-0.3,0.3-0.5,0.5-0.7,0.8v9.4c0.6,0.6,1.3,1.1,2.1,1.5c0.8,0.4,1.6,0.5,2.6,0.5c0.6,0,1.1-0.1,1.8-0.3
		c0.6-0.2,1.2-0.6,1.7-1.1c0.5-0.5,1-1.3,1.3-2.2S465.5,136.8,465.5,135.4z"/>
	<path class="st2" d="M483.7,142.6L483.7,142.6c-0.3,0.3-0.6,0.6-1,0.9c-0.4,0.3-0.8,0.6-1.3,0.8c-0.5,0.2-1,0.4-1.6,0.6
		c-0.6,0.1-1.2,0.2-1.8,0.2c-0.9,0-1.7-0.1-2.4-0.4s-1.3-0.6-1.9-1.1c-0.5-0.5-0.9-1.1-1.2-1.8s-0.4-1.5-0.4-2.4
		c0-0.9,0.2-1.7,0.5-2.4c0.3-0.7,0.8-1.3,1.4-1.8s1.3-0.9,2.1-1.1s1.7-0.4,2.7-0.4c0.9,0,1.8,0.1,2.6,0.2c0.8,0.2,1.5,0.3,2.1,0.6
		h0.1v-1.2c0-0.5,0-0.9-0.1-1.3c-0.1-0.4-0.2-0.7-0.3-1c-0.3-0.6-0.9-1.1-1.6-1.5c-0.7-0.4-1.7-0.6-2.9-0.6c-0.9,0-1.8,0.1-2.6,0.3
		c-0.8,0.2-1.6,0.4-2.4,0.7v-2.5c0.3-0.2,0.7-0.3,1.1-0.4s0.8-0.2,1.3-0.3c0.5-0.1,0.9-0.2,1.4-0.2c0.5,0,1-0.1,1.5-0.1
		c1.8,0,3.3,0.3,4.5,1c1.2,0.6,2,1.5,2.5,2.6c0.2,0.4,0.3,0.8,0.4,1.3c0.1,0.5,0.1,1,0.1,1.6v12H484L483.7,142.6z M483.5,136.7
		c-0.5-0.2-1.2-0.3-1.9-0.4c-0.7-0.1-1.6-0.2-2.4-0.2c-1.2,0-2.2,0.3-2.9,0.8c-0.7,0.5-1.1,1.3-1.1,2.4c0,0.6,0.1,1,0.3,1.5
		c0.2,0.4,0.4,0.8,0.7,1c0.3,0.3,0.7,0.5,1.1,0.6c0.4,0.1,0.9,0.2,1.3,0.2c0.6,0,1.2-0.1,1.7-0.3s1-0.4,1.4-0.7
		c0.4-0.3,0.8-0.5,1.1-0.8c0.3-0.3,0.5-0.4,0.6-0.6V136.7z"/>
	<path class="st2" d="M495,129.1L495,129.1c0.4-0.4,0.7-0.8,1.1-1.2c0.4-0.4,0.8-0.7,1.3-0.9c0.5-0.3,1-0.5,1.6-0.6s1.2-0.2,1.9-0.2
		c0.8,0,1.6,0.1,2.3,0.3s1.3,0.6,1.9,1.1c0.5,0.5,0.9,1.2,1.3,2s0.5,1.8,0.5,3v12h-2.9V133c0-1.5-0.3-2.7-0.9-3.3
		c-0.6-0.7-1.5-1-2.6-1c-1,0-2,0.3-2.9,0.8c-0.9,0.6-1.8,1.3-2.4,2.3v12.8h-2.9v-18h2.3L495,129.1z"/>
	<path class="st2" d="M510.3,126.6h2.9l5.6,14.1h0.1l5.7-14.1h2.9l-11.1,26.7h-2.9l3.8-9.1L510.3,126.6z"/>
</g>
</svg>
