<?xml version="1.0" encoding="utf-8"?>
<!-- Generator: Adobe Illustrator 19.0.0, SVG Export Plug-In . SVG Version: 6.00 Build 0)  -->
<svg version="1.1" id="Camada_1" xmlns="http://www.w3.org/2000/svg" xmlns:xlink="http://www.w3.org/1999/xlink" x="0px" y="0px"
	 width="612px" height="612px" viewBox="0 0 612 612" style="enable-background:new 0 0 612 612;" xml:space="preserve">
<style type="text/css">
	.st0{fill:#739469;}
</style>
<path class="st0" d="M530,172H88c-34.1,0-62-27.9-62-62v-4c0-34.1,27.9-62,62-62h442c34.1,0,62,27.9,62,62v4
	C592,144.1,564.1,172,530,172z"/>
<path class="st0" d="M530,386H88c-34.1,0-62-27.9-62-62v-4c0-34.1,27.9-62,62-62h442c34.1,0,62,27.9,62,62v4
	C592,358.1,564.1,386,530,386z"/>
<path class="st0" d="M527,594H85c-34.1,0-62-27.9-62-62v-4c0-34.1,27.9-62,62-62h442c34.1,0,62,27.9,62,62v4
	C589,566.1,561.1,594,527,594z"/>
</svg>
