<?xml version="1.0" encoding="utf-8"?>
<!-- Generator: Adobe Illustrator 22.0.1, SVG Export Plug-In . SVG Version: 6.00 Build 0)  -->
<svg version="1.1" id="Layer_1" xmlns="http://www.w3.org/2000/svg" xmlns:xlink="http://www.w3.org/1999/xlink" x="0px" y="0px"
	 viewBox="0 0 177.2 149.3" style="enable-background:new 0 0 177.2 149.3;" xml:space="preserve">
<style type="text/css">
	.st0{fill:#028EA5;}
	.st1{fill:#E983A4;}
</style>
<g id="oCsD0g.tif">
	<g>
		<path class="st0" d="M146.7,46.9c-0.3,4.3-2,8.1-4.6,11.5c-4.1,5.4-9.6,9-15.8,11.6c-0.6,0.2-1.2,0.5-1.8,0.8
			c5.6,1,11,0.5,16.5-0.7c5.4-1.3,10.5-3.3,15.7-6.2c-0.8,1.8-1.9,3-3.1,4.2c-1.1,1.2-2.5,2.1-3.9,3.3c6.5-0.8,12.1,0.6,17.3,4.1
			c-0.3-0.1-0.7-0.1-1-0.2c-0.3-0.1-0.7-0.2-1-0.2c-6.4-1.5-12.8-2.1-19.3-1.1c-5.4,0.9-10.4,3-15.2,5.6c-4.1,2.2-8.2,4.6-12.8,6
			c-3.6,1.1-7.3,1.6-11,0.4c-4-1.3-6.6-4.3-8.5-7.9c-1.4-2.7-2.3-5.5-2.8-8.5c-0.1-0.7-0.4-1.2-1.2-1.2c-0.8-0.1-1.6-0.3-2.5-0.5
			c0.1,0.4,0.2,0.7,0.1,1c-0.1,0.8-0.6,1.3-1.4,1.3c-0.8,0-1.3-0.6-1.2-1.4c0-0.8,0.5-1.3,1.3-1.3c1.9,0.2,3.2-1.2,4.8-1.7
			c0.4-0.1,0.4-0.6,0.5-1c1.1-3.5,5.2-5.2,8.4-3.5c1.5,0.8,2,2.3,2.6,3.8c0.4,1.1,0.8,2.2,1.9,2.8c0.8,0.5,1.5,0.3,2.2-0.2
			c0.5-0.4,0.6-0.7,0.1-1.2c-3.3-4-3.5-8.6-2-13.3c0.6-1.9,1.5-3.7,2.7-5.4c4-5.9,5.8-12.5,6.7-19.4c0.8-5.9,0.8-11.8,0.5-17.8
			c0.7,0.4,0.9,1,1.2,1.5c3.8,5.8,5.7,12.3,6.5,19.1c1.1,9.5,0.3,18.8-1.8,28.1c-0.2,1,0,1.1,1.1,0.9c2.5-0.6,4.7-1.7,6.9-3
			c4.6-2.8,8.9-6.1,13.1-9.5C146.2,47.2,146.3,46.8,146.7,46.9L146.7,46.9z"/>
		<path class="st1" d="M55.6,12.8c-0.2,1.2-0.5,2.3-0.7,3.4c-1.4,6-2.3,12-2.2,18.1c0.1,3.6,0.5,7.2,2.3,10.5c0.8,1.5,1.8,2.7,3,3.8
			c3.6,3.2,5.5,7.2,6.1,12c0.2,1.8,0.1,3.6-0.1,5.4c-0.1,1.4,1.2,2.3,2.5,1.6c0.9-0.4,1.4-1.1,1.8-2c0.2-0.6,0.4-1.1,0.6-1.7
			c1-2.6,2.4-3.6,4.8-3.6c2.6,0,4.7,1.2,5.6,3.5c0.4,1.3,1.1,1.9,2.3,2.3c0.8,0.3,1.5,0.7,2.5,1.2c-1.2,0.3-2.1,0.5-3,0.6
			c-0.8,0.1-1.1,0.5-1.2,1.3c-0.7,4-2.4,7.6-5.3,10.5c-2.9,2.9-6.5,4.3-10.6,4.7c-5,0.4-9.5-0.9-14-2.9c-3.5-1.6-6.8-3.5-10.5-4.7
			c-4.4-1.5-9-1.5-13.5-1.2c-5.2,0.4-10.3,1.7-15.3,3.4c-0.2,0.1-0.4,0.1-0.5,0.1c-0.2,0-0.4,0-0.8,0c5.3-3.1,10.7-4.9,16.5-5.6
			c-6-0.7-11.8,0.4-17.7,1.6c2.5-1.7,5.3-2.8,8.2-3.6c3-0.7,5.9-0.9,9.3-0.4c-2.8-2.2-5.4-4.1-7.1-7.4c10.3,5.5,20.8,8.5,32.6,7
			c-17-6.8-23-20.1-23.5-37c0.3,0,0.3,0.2,0.3,0.3c0.1,0.2,0.1,0.4,0.2,0.5c1.9,6.4,4.2,12.5,8.3,17.9c2.5,3.3,5.5,6,9.7,7
			c1.2,0.3,2.4,0.6,3.7,0.3c0.6-0.1,0.8-0.3,0.5-0.9c-2.4-6-2.7-12.2-2.3-18.5c0.3-5.6,1.5-11.1,3.1-16.5c1.1-3.6,2.3-7.1,3.8-10.6
			C55.2,13.2,55.1,12.9,55.6,12.8z"/>
		<path class="st1" d="M164.6,126.9c3.2-2.2,4-4.7,2.6-7.6c-0.6-1.3-1.6-2.1-3-2.3c-2.6-0.4-5.2-0.1-7.9-0.2c-0.5,0-0.6,0.3-0.7,0.7
			c-0.2,1.4-0.4,2.9-0.6,4.3c-0.6,4.9-1.3,9.7-1.9,14.6c-0.1,0.7,0.1,1,0.9,1c2.5,0,4.9,0,7.4,0c3,0,4.7-1.3,5.4-4.2
			C167.4,130.6,167.2,128.3,164.6,126.9z M163.2,131.2c0,1.4-0.9,2.4-2.2,2.5c-0.5,0.1-1.1,0-1.6,0c-2.2,0-2.2,0-1.9-2.2
			c0-0.1,0-0.2,0-0.2c0.3-0.8-0.2-2.1,0.6-2.4c1-0.5,2.2-0.2,3.4-0.1C162.6,128.9,163.2,129.8,163.2,131.2z M163.4,124.3
			c-0.4,0.7-0.8,0.8-2.8,0.8c-2.3,0-2.3,0-2-2.2c0.3-2.5,0.3-2.5,2.8-2.4c0.9,0,1.7,0,2.2,0.9C164,122.3,164,123.3,163.4,124.3z"/>
		<path class="st1" d="M99.6,129c0.5-3.9,1-7.5,1.4-11.1c0.1-0.8,0.4-1.1,1.2-1.1c2.1,0,2,0,1.8,2.1c-0.7,5-1.3,10-2,15
			c-0.1,0.5-0.1,0.9-0.2,1.4c-0.2,2.1-0.2,2.1-2.3,2.1c-0.8,0-1.1-0.3-1.3-1c-1.3-4.2-2.6-8.3-3.9-12.5c-0.1-0.2-0.2-0.5-0.4-0.9
			c-0.4,4.7-1.1,9-1.6,13.4c-0.1,0.8-0.4,1.2-1.2,1c-0.2,0-0.5,0-0.7,0c-1.1,0.2-1.3-0.3-1.2-1.3c0.6-4.4,1.2-8.7,1.7-13.1
			c0.2-1.8,0.5-3.5,0.7-5.3c0.1-0.7,0.3-0.9,1-0.9c3.1,0,3.1-0.1,4,2.9c0.8,2.6,1.6,5.3,2.4,8C99.2,128,99.3,128.4,99.6,129z"/>
		<path class="st1" d="M21.2,122.6c-0.7-3-2.3-5.4-5.8-5.7c-0.8-0.1-1.7,0-2.5,0v0c-0.6,0-1.3,0-1.9,0c-0.9-0.1-1.2,0.2-1.3,1.1
			c-0.2,2.1-0.5,4.1-0.8,6.2c-0.5,4.2-1.1,8.3-1.7,12.5c-0.1,0.5,0.1,0.7,0.6,0.7c1.6,0,3.3,0.1,4.9,0.1c3.7,0.1,6.3-1.5,7.7-4.9
			C21.8,129.3,22.1,126,21.2,122.6z M17.9,126.1c-0.1,1.7-0.3,3.3-0.9,4.9c-0.8,2.2-3.1,3.4-5.3,2.7c-0.7-0.2-0.4-0.8-0.3-1.1
			c0.2-1.8,0.4-3.6,0.7-5.4c0.2-1.8,0.5-3.5,0.7-5.3c0.1-1.1,0.5-1.5,1.6-1.4c1.9,0.2,3,1,3.3,3C17.8,124.3,18.1,125.2,17.9,126.1z"
			/>
		<path class="st1" d="M129.5,128.9c-3.3,0.1-2.3-0.5-2.9,2.7c-0.3,1.7-0.5,3.5-0.7,5.2c-0.1,0.4-0.2,0.6-0.7,0.6
			c-2.9,0.4-3,0.1-2.6-2.7c0.7-4.9,1.3-9.9,1.9-14.8c0-0.4,0.1-0.8,0.2-1.1c0.1-0.6-0.2-1.6,0.5-1.8c0.9-0.3,1.9-0.2,2.8-0.1
			c0.6,0.1,0.4,0.7,0.3,1c-0.2,2-0.5,3.9-0.8,5.9c-0.1,0.8,0,1.1,0.9,1.1c1-0.1,2.1-0.1,3.1,0c0.8,0.1,1.1-0.3,1.2-1
			c0.2-2,0.5-4,0.7-6c0.1-0.7,0.3-1.1,1.1-1.1c2.5,0,2.6,0,2.3,2.4c-0.6,5-1.3,9.9-1.9,14.9c-0.1,0.8-0.2,1.7-0.3,2.5
			c0,0.3,0,0.5-0.3,0.7c-0.2,0.1-3,0.1-3.2,0c-0.3-0.2-0.2-0.5-0.1-0.7c0.3-2.3,0.5-4.6,0.9-6.9c0.1-0.7-0.1-0.9-0.7-0.8
			C130.7,128.9,130.1,128.9,129.5,128.9z"/>
		<path class="st1" d="M72,121.3c-0.7-2.4-2.2-4.3-4.9-4.7c-2.6-0.4-4.8,0.9-6.2,3.5c-1.5,2.7-2.1,5.5-2.1,8.5c0,0.3,0,0.5,0,0.8
			c0,1.3,0.2,2.7,0.7,3.9c0.9,2.4,2.5,4.2,5.3,4.4c2.6,0.1,4.4-1.2,5.6-3.4C72.8,130.2,73.3,125.8,72,121.3z M68.1,131
			c-0.2,0.7-0.5,1.3-0.9,1.8c-0.6,0.8-1.4,1.2-2.3,1.1c-1-0.1-1.6-0.7-1.9-1.6c-0.5-1.2-0.5-2.4-0.4-3.6c0.1-2,0.4-4,1.1-5.9
			c0.3-0.7,0.6-1.3,1.1-1.8c1.2-1.1,2.9-0.8,3.6,0.7c0.4,0.9,0.5,1.6,0.5,3.8C69,127.2,68.6,129.1,68.1,131z"/>
		<path class="st1" d="M78.2,116.8c2.1,0,2.1,0,1.8,2.2c-0.5,3.8-1,7.5-1.5,11.3c-0.3,2.6,1.5,4,3.6,3.2c0.9-0.4,1.4-1.1,1.5-2
			c0.6-4,1.1-8,1.6-12.1c0-0.2,0-0.3,0-0.5c0.2-2.2,0.2-2.1,2.4-2.2c0.9,0,1.1,0.3,0.9,1.1c-0.2,1.7-0.4,3.5-0.7,5.2
			c-0.4,3.1-0.7,6.3-1.3,9.3c-1,5-5.4,5.9-8.9,4.7c-2.3-0.8-3.7-3.4-3.3-6.2c0.5-4.3,1.1-8.5,1.6-12.8c0.1-1.2,0.6-1.6,1.7-1.4
			C77.9,116.9,78,116.8,78.2,116.8z"/>
		<path class="st1" d="M138.5,130.5c0.1-2.4,0.7-5.4,1-8.4c0.2-1.5,0.4-2.9,0.6-4.4c0.1-0.7,0.3-1,1-0.9c0.3,0,0.5,0,0.8,0
			c2.4,0,2.4,0,2.1,2.3c-0.5,3.8-1.1,7.7-1.4,11.5c-0.2,1.7,0.6,2.8,2.2,3c1.4,0.2,2.7-0.7,2.9-2.2c0.6-4.4,1.3-8.7,1.8-13.1
			c0.1-1.2,0.5-1.6,1.7-1.5c2.1,0.1,1.7-0.1,1.5,1.6c-0.5,4.4-1.2,8.9-1.8,13.3c-0.7,4.8-4.1,6.5-8.3,5.6
			C139.7,136.7,138.4,134.7,138.5,130.5z"/>
		<path class="st1" d="M35.6,137.8c-3.3,0-5.7-2-6.4-5.1c-0.2-0.8-0.1-1.4,0.9-1.3c0.2,0,0.4-0.1,0.7-0.2c1-0.3,1.7-0.3,2.1,1
			c0.5,1.5,2.2,2.1,3.7,1.6c0.9-0.3,1.4-0.9,1.5-1.9c0.1-1-0.2-1.8-1.2-2.2c-0.7-0.3-1.3-0.6-2-0.8c-4.6-1.4-4.8-5.8-3.7-8.7
			c1.1-2.8,3.1-4,6-3.7c2.4,0.2,4.5,2.2,5.1,4.8c0,0.1,0.1,0.2,0.1,0.2c-0.6,1.1-1.8,0.7-2.6,1.2c-0.5,0.2-0.6,0-0.8-0.4
			c-0.6-1.5-1.4-2-2.9-1.9c-1,0.1-1.6,0.7-1.8,1.7c-0.2,0.9,0.2,1.7,1.1,2c0.8,0.4,1.7,0.7,2.5,1c4,1.6,5.4,6.4,2.9,10
			C39.5,137,37.9,137.8,35.6,137.8z"/>
		<path class="st1" d="M43.9,129c0-4,0.8-7.3,3-10.2c1.4-1.9,3.4-2.6,5.7-2.2c2.2,0.4,3.6,1.9,4.3,3.9c0.4,1.1,0.6,2.2,0.6,3.3
			c0,0.4-0.1,0.8-0.6,0.8c-0.9,0.1-1.7,0.1-2.6,0.1c-0.5,0-0.5-0.4-0.4-0.7c0-0.8-0.1-1.6-0.5-2.3c-0.7-1.5-2.3-1.8-3.5-0.6
			c-0.4,0.3-0.7,0.7-0.8,1.2c-1,2.9-1.7,5.9-1.1,9c0.2,1.3,1,2.2,1.9,2.4c1.3,0.2,2.3-0.3,3-1.6c0-0.1,0.1-0.1,0.1-0.2
			c0.4-0.6,0.2-1.7,0.8-1.7c0.8-0.1,1.8,0.3,2.6,0.5c0.3,0.1,0.5,0.2,0.4,0.6c-0.8,2.3-1.6,4.6-4,5.9c-3,1.7-6.5,0.3-8-3.1
			C44.1,132.3,43.8,130.5,43.9,129z"/>
		<path class="st1" d="M111.7,116.8c1.6,0,3.3,0,4.9,0c0.7,0,1,0.2,0.8,0.9c-0.2,0.7-0.3,1.3-0.3,2c0,1-0.5,1.2-1.3,1.1
			c-0.5,0-0.9,0-1.4,0c-1.6,0-1.5,0-1.7,1.5c-0.6,4.7-1.2,9.5-1.8,14.2c-0.1,0.6-0.3,0.8-0.8,0.8c-0.3,0-0.7,0-1,0
			c-2.1,0-2,0-1.7-2.1c0.6-4.4,1.2-8.7,1.8-13.1c0.1-1-0.1-1.5-1.2-1.3c-0.1,0-0.2,0-0.3,0c-2.4,0-2.4,0-2-2.4
			c0.3-1.6,0.3-1.6,1.9-1.6C108.8,116.8,110.2,116.8,111.7,116.8z"/>
		<path class="st1" d="M89,98.3c0.4,0.5,0.8,1,1.6,0.5c1.6-1,3.6-0.6,4.7,0.9c1.1,1.5,0.9,3.5-0.5,4.8c-1.3,1.2-2.7,2.2-4.1,3.3
			c-0.5,0.4-0.9,0.4-1.4,0c-1.3-1.1-2.7-2-3.9-3.1c-2.1-1.9-1.7-4.9,0.7-6.1C87,98.1,88,98.4,89,98.3L89,98.3z"/>
		<path class="st1" d="M24.6,137.4c-1.9,0-1.9,0-1.6-1.9c0.7-5.1,1.3-10.2,2-15.3c0-0.3,0.1-0.6,0.1-0.9c0.4-2.4,0.4-2.4,2.9-2.4
			c1.1,0,1.2,0.4,1,1.3c-0.3,2.2-0.6,4.4-0.9,6.5c-0.5,3.8-1.1,7.6-1.5,11.4c-0.1,1.2-0.6,1.5-1.6,1.3
			C25,137.3,24.8,137.4,24.6,137.4z"/>
		<path class="st0" d="M92.6,84.7c0.1-0.8,0.5-1.3,1.4-1.3c0.8,0,1.3,0.5,1.3,1.3c0,0.8-0.5,1.4-1.3,1.4
			C93.2,86,92.7,85.5,92.6,84.7z"/>
		<path class="st0" d="M87.4,84.6C87.3,85.5,86.8,86,86,86c-0.8,0-1.3-0.5-1.3-1.4c0-0.8,0.5-1.3,1.3-1.3
			C86.8,83.4,87.3,83.8,87.4,84.6z"/>
		<path class="st0" d="M87.6,80.4c-0.1,0.9-0.6,1.3-1.4,1.3c-0.8,0-1.3-0.5-1.3-1.3c0-0.8,0.5-1.4,1.3-1.3
			C87.1,79.1,87.5,79.6,87.6,80.4z"/>
		<path class="st0" d="M93.1,77.5c-0.8-0.1-1.3-0.6-1.3-1.4c0.1-0.8,0.6-1.3,1.4-1.2c0.8,0.1,1.2,0.6,1.2,1.3
			C94.5,77,93.9,77.4,93.1,77.5z"/>
		<path class="st0" d="M95.1,80.4c-0.1,0.9-0.6,1.4-1.4,1.4c-0.8-0.1-1.3-0.6-1.3-1.4c0.1-0.8,0.5-1.2,1.3-1.2
			C94.6,79.1,95,79.7,95.1,80.4z"/>
		<path class="st0" d="M92.4,92.4c1.2,0,1.6,0.5,1.6,1.3c0,0.8-0.5,1.4-1.3,1.4c-0.8,0-1.3-0.5-1.3-1.3
			C91.4,92.9,91.9,92.4,92.4,92.4z"/>
		<path class="st0" d="M88.5,93.4c0,1.1-0.5,1.6-1.3,1.6c-0.8,0-1.4-0.5-1.4-1.3c0-0.8,0.5-1.3,1.4-1.3
			C88.1,92.4,88.4,92.8,88.5,93.4z"/>
		<path class="st0" d="M86.7,74.8c1,0,1.5,0.5,1.5,1.3c0,0.7-0.4,1.3-1.2,1.3c-0.9,0-1.4-0.5-1.4-1.3C85.4,75.4,85.9,74.9,86.7,74.8
			z"/>
		<path class="st0" d="M86.5,90.3c-0.8-0.1-1.4-0.5-1.4-1.3c0-0.9,0.5-1.3,1.3-1.4c0.8,0,1.3,0.5,1.3,1.3
			C87.8,89.7,87.3,90.2,86.5,90.3z"/>
		<path class="st0" d="M94.9,89c-0.1,0.8-0.5,1.3-1.4,1.3c-0.9,0-1.3-0.6-1.3-1.4c0-0.8,0.5-1.3,1.3-1.3
			C94.3,87.6,94.8,88.1,94.9,89z"/>
		<path class="st0" d="M91.9,73.4c-0.8-0.1-1.3-0.5-1.3-1.4c0-0.9,0.5-1.3,1.4-1.3c0.8,0,1.3,0.5,1.3,1.3
			C93.3,72.8,92.8,73.3,91.9,73.4z"/>
		<path class="st0" d="M89,98.3c0.2-0.4-0.2-0.5-0.3-0.7c-0.2-0.6-0.2-1.2,0.4-1.6c0.5-0.4,1-0.5,1.6-0.1c0.5,0.4,0.7,0.9,0.6,1.5
			c-0.2,0.7-0.7,1-1.3,1C89.5,98.3,89.3,98,89,98.3C89,98.3,89,98.3,89,98.3z"/>
		<path class="st0" d="M87.9,70.7c0.9,0.1,1.4,0.5,1.4,1.3c0,0.8-0.5,1.4-1.3,1.4c-0.8,0-1.3-0.4-1.3-1.2
			C86.7,71.3,87.1,70.8,87.9,70.7z"/>
		<polygon class="st0" points="146.7,46.9 146.8,46.9 146.7,46.9 		"/>
	</g>
</g>
</svg>
