<?xml version="1.0" encoding="utf-8"?>
<!-- Generator: Adobe Illustrator 22.0.1, SVG Export Plug-In . SVG Version: 6.00 Build 0)  -->
<svg version="1.1" id="Layer_1" xmlns="http://www.w3.org/2000/svg" xmlns:xlink="http://www.w3.org/1999/xlink" x="0px" y="0px"
	 viewBox="0 0 429 196.9" style="enable-background:new 0 0 429 196.9;" xml:space="preserve">
<style type="text/css">
	.st0{fill:#2F2A1F;}
	.st1{fill:#A92724;}
	.st2{fill:#DDE3CD;}
	.st3{fill:#559944;}
</style>
<g id="YEsSs3.tif">
	<g>
		<path class="st0" d="M166.2,105.5c-7.1,0.6-14.2,0.1-21.3,0.2c-1.5,0-1.7-0.8-1.7-2c0-2.1-0.1-4.2-0.1-6.3c0.2-0.8,0.3-1.6-0.6-2
			c-0.8-0.3-1.1,0.5-1.5,1c-0.4,0.6-0.7,1.4-1,2c0,0,0,0,0,0c-0.3,0.4-0.7,0.8-1,1.2c0,0,0,0,0,0c-0.6,0.6-1.1,1.2-1.7,1.7
			c-0.2,0.2-0.4,0.4-0.6,0.5c-3.2,2-6.5,3.6-10.3,4.3c-5.4,0.9-10.7,0.7-16.1-0.3c0,0,0,0,0,0c-2.8-1.1-5.6-2.3-8.1-3.9
			c-0.2-0.2-0.4-0.4-0.6-0.6c-0.6-0.7-1.3-1.3-1.9-2c0,0-0.1-0.2-0.1-0.2c-0.4-0.5-0.8-1-1.1-1.5c0,0-0.1-0.1-0.1-0.1
			c-0.3-0.8-0.6-1.6-1.3-2.2c-0.2-0.4-0.3-0.8-0.5-1.3c-0.3-1.4-0.6-2.8-1-4.2c-0.1-0.3-0.4-0.7-0.7-0.8c-0.6-0.1-0.8,0.4-0.8,0.9
			c-0.8,4.5-3.2,8-6.5,11.1c0,0-0.1,0-0.1,0C84,103,80.7,104.5,77,105c-11.5,1.3-23.1,0.3-34.7,0.7c-1.5,0-2-0.7-2-2.1
			c0.1-3.7,0-7.3,0-11c0-26.5,0-53,0-79.5c0.7-0.9,1.8-0.6,2.7-0.6c8.8,0,17.5,0,26.3,0c3.4,0,6.7,0.5,10,1.2
			c7.4,1.6,12.4,5.8,14.4,13.3c0.3,2.5,0.5,5,0.8,7.6c0,4.6,0.1,9.2,0.1,13.9c0,1.9-0.1,3.8-0.1,5.6c0.1,0,0.1,0,0.1,0
			c0.4-1.8,0.7-3.5,1.1-5.3c0,0,0-0.2,0-0.2c0.6-0.7,0.8-1.6,1-2.5c3.9-7.2,10.3-10.2,18.1-11.1c5.9-0.6,11.5-0.1,17,2.1
			c3.9,1.6,6.8,4.3,9,7.8c0.4,0.6,0.5,1.7,1.5,1.5c1-0.3,0.8-1.4,0.8-2.2c0-1.7,0.1-3.5,0-5.2c0-1.4,0.4-2.1,2-2.1
			c6.2,0,12.3,0,18.5,0c0.3,0,0.7-0.1,0.8,0.1c2.3,2.9,4-0.1,5.9-0.7c6-1.9,11.6-1.1,16.7,2.6c0,0.1,0.1,0.2,0.2,0.2
			c0.3,0.3,0.7,0.6,1,0.9c0,0,0.1,0.2,0.1,0.2c0.5,0.7,0.9,1.5,1.4,2.1c0.4,0.5,0.4,1.7,1.5,1.3c0.8-0.3,0.5-1.1,0.5-1.8
			c0.1-1.6,0-3.2,0-4.8c6.8-0.5,13.8-0.9,20.5,0.1c3.1,0.5,5.1-0.4,7.5-1.2c8.3-2.6,16,0.6,19.7,8.5c0.2,0.5,0.3,1.2,1.4,1.2
			c0-2.2,0-4.3,0-6.5c0-0.8-0.2-2.2,0.8-2.2c3.4-0.1,2.3-2.8,3.1-4.5c1.2-2.6-0.6-3.8-2.2-5.2c-0.7-0.6-2-1-1.6-2.4
			c6.2,4.3,6.2,4.3,4.5,11.3c-0.2,1,0.1,2.5-1,2.8c-1.7,0.4-1.4,1.5-1.4,2.6c0,20.2,0.1,40.5,0,60.7c0,1.8,0.6,2.3,2.3,2.3
			c4.7-0.1,9.4-0.1,14.2,0c2.2,0.1,2.7-0.8,2.7-2.8c-0.1-15.5-0.1-31-0.1-46.5c0-8,0.8-16.2-2.5-23.9c-0.4-0.9-0.1-1.5,0.6-2
			c1.3-0.9,2.2-2.3,3.8-2.9c0,0.4,0.1,1-0.1,1.1c-2.9,2-1.7,4.5-1.2,7.1c0.4,1.8,1,2.3,2.8,2.3c5.4-0.1,10.8-0.1,16.2,0
			c1.7,0,3.6-0.8,5,1.2c0.5,0.7,1.5-0.4,2.2-0.7c6.9-3.5,14.3-2.8,19.3,1.9c1,0.9,1.7,2.1,2.6,3.1c0.3,0.3,0.8,0.7,1.1,0.7
			c0.7,0,0.7-0.8,0.8-1.3c0.2-2.1-0.1-4.2,1-6.1c1.3-2.3,0.3-4.1-1.7-5.6c-1.1-0.8-3.3-1.4-2.1-3.7c1.7,1.4,3.4,2.9,5.2,4.2
			c1.5,1.1,1.8,2.2,1.2,3.9c-1.1,3.5-1.6,7-1.5,10.9c0.4,18.8,0.2,37.6,0.1,56.4c0,2.1,0.5,2.9,2.7,2.8c4.5-0.2,9.1-0.1,13.6,0
			c2.3,0.1,2.8-0.9,2.7-2.9c-0.1-6.2,0-12.3,0-18.5c0-13.9,0-27.7-0.1-41.6c0-0.9,0.6-2.1-1.2-2.3c-1.9-0.2-4.6-6-3.4-7.2
			c2.1-2.1,4.1-4.5,7.1-5.5c0,5.1,0,10.2,0,15.3c0,1.6,0.4,2.2,2.1,2.2c3.7,0,3.7,0.1,2.2,3.5c-0.4,0.8-0.7,1.6-1.1,2.3
			c-1.5,3.3-3,6.7-4.7,10.3c3.2,0,5.9-0.1,8.5,0c1.5,0.1,2.2-0.5,2.9-1.7c2.1-4.1,4.2-8.2,6.3-12.3c0.6-1.1,1.4-2.1,1.3-3.4
			c0-4.8,0-9.6,0-14.4c0-1.3-0.3-1.9-1.8-1.8c-5.3,0.1-10.6,0.1-15.9,0.1c0.1-0.9,0.4-1.8-1.2-1.7c-2.2,0.1-4.4-0.1-6.6-0.2
			c-0.7,0-1.8,0.2-2.1-0.6c-0.8-2.4-2.5-4.6-2.3-7.3c1.6,0.5,1.6,2.1,2.3,3.3c0.5,0.9,0.3,2.3,1.8,2.5c1,0.1,1.9,0.2,2.9,0.3
			c3.5,0.8,7.1,0.7,10.6,0.7c4.7,0,9.4,0.1,14.1,0.2c0,5,0.1,10,0.2,15c0,0.7-0.3,1.8,0.6,2c0.4,0.1,1.2-0.5,1.7-0.9
			c8.3-6.2,23.8-7,32.7-1.7c4.2,2.5,6.5,6.2,7.3,10.9c0.7,3.6,0.5,7.3,0.5,11c0,1.7-0.8,1.9-2.2,1.9c-2.8,0-5.6,0-8.4,0
			c-0.7,0-1.5-0.1-1.7,0.7c-0.3,1,0.5,1.3,1.2,1.7c0.4,0.3,0.9,0.4,1.3,0.7c13.3,7.5,15.5,28.8,3.9,37.6c-3.1,2.4-6.8,3.7-10.7,4.1
			c-7.9,0.9-15.6,0.8-22.6-3.8c-4.7-3.2-7-7.9-7.6-13.4c-0.3-3.1-0.2-6.2-0.3-9.2c-0.1-1.6,0.5-2.2,2.2-2.2c3.1,0.1,6.2,0,9.3,0
			c0.8,0,2,0.4,2.3-0.7c0.3-1-0.7-1.5-1.5-1.9c-3.1-1.5-5.6-3.7-7.9-6.2c-1.7-2.8-3-5.8-3.9-8.9c0.1-0.1,0.1-0.2-0.1-0.3
			c0-2.8,0-5.6,0-8.5c-1.8,2.1-3.1,4.2-4.1,6.5c-0.9,1.9-2.1,2.9-4.2,2.8c-0.6,0-1.2,0-1.8,0c-0.3,0-0.7,0-1.1,0c-0.4,0-0.8,0-1.2,0
			c-3.9-0.4-4-0.4-3.9,3.4c0,1.1,0.1,2.3,0.2,3.4c0,0.6,0,1.2,0,1.7c-0.3,1.2-0.2,2.3,0,3.5c0,0.4,0,0.8,0,1.1
			c-0.1,9.4-0.3,18.9-0.1,28.3c0.1,3-0.9,3.7-3.7,3.6c-12.3-0.1-24.7,0-37,0.1c-0.4,0-0.7,0-1.1,0c-1,0-2,0-2.9,0
			c-0.3-0.1-0.7-0.3-1-0.4c0-10.1,0.1-20.1,0-30.2c0-6-0.1-12.1-0.2-18.1c0-0.4-0.1-0.8-0.1-1.2c-2.9-2.1-2.7,0.3-2.7,2
			c-0.1,14.8-0.1,29.7,0,44.5c0,2.7-0.7,3.4-3.4,3.4c-20.8-0.1-41.6-0.1-62.4,0c-2.8,0-3.3-1-3.3-3.5c0.1-14.5,0.1-28.9,0-43.4
			c0-1.6,0.6-4.3-1.6-4.3c-2.1,0-1.5,2.7-1.5,4.3c0,14.6-0.1,29.3,0,43.9c0,2-0.4,2.9-2.7,2.9c-14.2-0.1-28.3-0.1-42.5-0.1
			c0,0-0.1-0.1-0.1-0.1c-0.1-1.5-0.3-3.1-0.4-4.6c0-6.6,0-13.2,0-19.7c0.3-0.4,0.3-0.7,0-1.1c0-2.3,0-4.7,0-7
			c0.1-3.9,0.1-7.9,0.2-11.8c0-1.8-0.1-3.7-0.2-5.5c0-0.7-0.3-1.4-1.1-1.5c-1-0.1-1.4,0.6-1.6,1.4c-0.2,0.8-0.2,1.7-0.2,2.6
			c0,4.7,0,9.4,0,14.1c0,9.7,0.1,19.4,0.2,29.1c0,0.2,0,0.4,0,0.7C166.3,103.3,166.3,104.4,166.2,105.5z M213.1,53.5
			c5.1-1.9,6.7-0.8,6.8,4.8c0,0.8,0,1.5,0,2.3c0,13.6,0,27.2,0,40.8c0,2,0.5,2.6,2.6,2.6c4.8-0.2,9.6-0.1,14.5,0
			c1.7,0,2.1-0.5,2.1-2.1C239,85.1,239,68.5,238.9,52c0-1.2,0.3-2.6-1-3.4c-0.2-0.9-0.4-1.8-0.6-2.7c0.3-1.1-0.2-2-0.8-3
			c-4.3-7.2-15.4-8-21.8-1.7c-0.7,0.7-1.1,1.8-2.3,2c-1.3-1.3,0.9-3.6-1.5-4.5c-3.9-0.2-7.7-0.3-11.6,0c-0.9,0-1.9,0-2.8,0.1
			c-0.8-0.1-1.7-0.7-2.1,0.5c-0.3,0.8-0.6,1.5-0.6,2.5c0.1,20.1,0.1,40.1,0.1,60.2c0,1.7,0.5,2.1,2.1,2c4.8-0.1,9.6,0,14.5-0.1
			c0.9,0,2,0.4,2.5-0.9c0-15.4,0-30.7,0-46.1C213,55.7,213.4,54.6,213.1,53.5C213.1,53.5,213.1,53.5,213.1,53.5z M372.8,59.3
			c-0.1-0.4-0.2-0.7-0.2-1.1c-0.2-0.9-0.9-1.6-0.8-2.5c0.4-0.6,0.7-1.1-0.1-1.6c-0.2-0.2-0.3-0.3-0.5-0.5c0.7,0.1,1-0.4,1.5-0.7
			c2.7-1.7,6.1-0.3,6.5,2.5c0.2,1.5-0.8,3.6,0.5,4.3c1.2,0.7,3.2,0.3,4.8,0.3c1.4,0,2.9,0,4.3,0c8.3,0,8.3,0,7.8-8.3
			c-0.4-6.6-3.5-11.4-9.9-13.5c-8-2.6-16-2.4-23.7,0.9c-3.5,1.5-6,4.1-7.5,7.6c-4.8,10.8-0.2,22.5,11.1,28c2.8,1.4,5.7,2.7,8.5,4.2
			c2.9,1.6,4.5,4.1,4.2,7.6c-0.2,1.8-0.9,3.2-2.9,3.3c-1.9,0.1-3.1-0.8-3.7-2.6c-0.5-1.7-0.6-3.4-0.4-5.2c0.1-1.7-0.5-2.1-2.1-2.1
			c-3,0.1-6,0-9,0c-7.9,0-7.9,0-7.3,8.1c0.8,8.8,5.6,14.4,14.2,16.3c5.4,1.2,10.9,1.2,16.3-0.1c7.4-1.7,11.9-6.3,13.4-13.8
			c2.4-12.4-1.2-19.8-12.6-25.5c-3.5-1.8-7.2-3.1-10.5-5.5c-0.6-0.4-1.3-0.4-1.9-0.4L372.8,59.3z M311.3,103
			c0-10.8,0.1-21.6,0.1-32.3c0-6.2,0.3-12.3-0.3-18.5c-0.1-0.9-0.1-1.7-0.2-2.6c-1.8-12.5-12.9-14.4-20.3-10.8
			c-2.3,1.2-4,3.1-5.8,4.8c-0.7-0.5-0.6-1-0.5-1.4c0.5-2.8-0.8-3.4-3.3-3.3c-4.2,0.2-8.5,0.1-12.7,0c-1.8-0.1-2.3,0.5-2.3,2.3
			c0.1,20.3,0.2,40.5,0.1,60.8c0,2.1,0.8,2.4,2.5,2.3c4.4-0.1,8.9-0.2,13.3,0c2.5,0.1,3.3-0.5,3.2-3.2c-0.2-13.6-0.1-27.2-0.1-40.8
			c0-1.8-0.1-3.7,0.6-5.4c0.6-1.4,1.6-2,3.1-2.1c1.5,0,2.3,0.7,2.9,1.9c0.7,1.5,0.7,3.2,0.7,4.8c0,14.1,0,28.2,0,42.2
			c0,1.2-0.4,2.5,1.7,2.4c5.1-0.1,10.2,0,15.3,0C310.2,104.2,311.1,104.2,311.3,103z M163.5,44.3c-0.1-1.3-0.2-1.7-0.1-2.2
			c0.6-2.9-0.8-3.3-3.3-3.2c-4,0.2-8.1,0.2-12.1,0c-2.1-0.1-3,0.4-2.8,2.7c0.2,2.6,0.1,5.2,0.1,7.8c0,17.3,0.1,34.5,0,51.8
			c0,2.2,0.4,3.3,2.9,3.2c4.4-0.2,8.9-0.2,13.3,0c2.3,0.1,2.9-0.7,2.9-2.9c-0.1-14-0.1-28-0.1-41.9c0-1.4,0.2-2.9,0.5-4.3
			c0.4-1.6,1.6-2.3,3.2-2.3c1.7,0,2.8,0.9,3.1,2.5c0.3,1.4,0.4,2.9,0.4,4.3c0,14,0.1,28,0,41.9c0,2.1,0.5,2.9,2.7,2.8
			c4.3-0.2,8.7-0.2,13,0c2.5,0.1,3.5-0.5,3.4-3.3c-0.2-14,0-28-0.1-41.9c0-3.7-0.3-7.4-0.8-11.1c-1.1-8.1-9.5-11.9-15.8-10.5
			C169.7,38.4,166.6,40.7,163.5,44.3z M42.3,59.5c0,14.2,0,28.3,0,42.5c0,1.2-0.3,2.5,1.7,2.4c9.3-0.1,18.7,0.2,28-0.2
			c14.9-0.7,20.5-6.7,20.6-21.6c0.1-16.1,0.2-32.2-0.2-48.3c-0.3-11.2-4.4-17.1-16-18.9c-0.9-0.1-1.7-0.2-2.6-0.3
			C64,14.3,54.1,15,44.2,14.7c-2.2-0.1-1.9,1.2-1.9,2.6C42.3,31.4,42.3,45.4,42.3,59.5z M141.8,70.8c-0.2-5.5,0.3-11.7-0.4-17.8
			c-0.8-7.3-5.4-12.6-12.4-14.7c-5.1-1.5-10.3-1.7-15.4-1c-9.9,1.5-16,7.7-16.3,17.5c-0.3,11.2-0.3,22.4,0.1,33.5
			c0.3,7.6,4.3,12.9,11.7,15.5c5.5,2,11.2,2.1,16.8,1.1c9.9-1.7,15.8-8.7,15.9-18.8C141.8,81.3,141.8,76.4,141.8,70.8z M334.8,32.8
			c-1.1-0.9,0.9-3-1.1-3.1c-1.1,0-3.2,1.3-2.9,3.2c0.2,1.3-0.3,3.7,2.2,3.7C335.9,36.6,333.8,34.1,334.8,32.8z M377.3,85.2
			c-0.1-1.8-0.7-3.7-2.5-4.1c-1.3-0.3-0.8,1.4-0.8,2.1c0.1,1.6-0.5,3.8,1.8,4.3C377.4,87.7,377.2,86.2,377.3,85.2z M377.5,58.8
			c-0.5-2.1,0.6-4.1-1.7-5.1c-0.8-0.3-1.6,0.2-1.7,1C373.9,56.7,375.3,57.6,377.5,58.8z"/>
		<path class="st1" d="M309.5,124.8c4.4-0.2,8.6,1.1,12.8,1.9c17.3,3.3,34.6,3.8,52.1,2.7c3.7-0.2,7.2-1.1,10.6-2.6
			c7-3.1,14.4-4.9,22-5.6c4.6-0.5,9.5-0.4,11.9,4.5c2.5,5.1,2.7,10.9-1.2,15.3c-9.1,10.4-20.2,17.2-34.5,18.2
			c-12.1,0.9-23.5-2.1-34.8-5.7c-10.5-3.3-21.2-5-32.2-3.7c-0.7,0.1-1.5-0.1-2.3-0.1C312,141.4,310.4,133.2,309.5,124.8z"/>
		<path class="st1" d="M133.1,149.6c-11.3,1.4-22.1,4.1-31.2,11.6c-3.9,3.2-8.8,4.4-13.7,4.8c-3.4,0.3-5.5-1.3-7-4.5
			c-1-2.2-2-4.4-3.1-6.5c-1.3-2.5-3.3-3.4-6.2-3.1c-8,0.8-15.8,2.5-23.7,3.8c-7.4,1.2-13.6,5.3-19.8,9.2c-3.3,2-6.5,4.1-10.1,5.7
			c-4.5,2-7.9,0.2-8.5-4.7c-0.6-4.6,0.2-9,2.1-13.2c0.8-1.8,2.2-2.9,4.1-3.4c8.1-2.3,16.4-3.4,24.8-3.6c6.6-0.2,13.3-0.1,20-0.1
			c7.3,0,13-3.9,18.6-7.9c2.7-1.9,2.8-5.2,2.2-8.3c-0.6-3,0.6-4.6,3.3-5.5c2.3-0.8,4.6-1.4,7-1.6c12.5-1,25-1.4,37.6-0.8
			c1.3,0.1,2.5,0.3,3.6,0.8C132.9,131.4,133,140.5,133.1,149.6z"/>
		<path class="st0" d="M309.5,124.8c0.9,8.4,2.5,16.7,4.4,24.9c0.1,4.8,1.3,9.5,2.2,14.2c0.4,2.3,0,3.1-2.4,3
			c-5.4-0.2-10.8-0.1-16.2,0c-1.3,0-2.3-0.1-2.3-1.7c0.1-0.2,0.1-0.3-0.1-0.5c0-0.6-0.1-1.2-0.1-1.8c0.1-0.8,0.5-2.1-0.5-2.1
			c-1-0.1-1.5,1-1.2,2.1c-0.1,0.6-0.2,1.2-0.2,1.7c-0.1,0.6-0.1,1.1-0.2,1.7c-1,0.8-2.2,0.6-3.3,0.6c-4.9,0-9.8-0.2-14.7,0.1
			c-2.8,0.1-3.3-0.9-2.8-3.3c0.5-2.3,0.7-4.8,1-7.1c0.7-4.5,1.5-9.1,2.2-13.6c1.2-7.6,2.3-15.2,3.4-22.8c0.7-1.7,0.9-3.5,1-5.3
			c0.1-2.1,1.1-2.7,3.1-2.7c7.2,0.1,14.4,0.1,21.6,0c1.8,0,2.5,0.7,2.9,2.4C308,117.9,307.9,121.5,309.5,124.8z M293.5,114.5
			C293.5,114.5,293.5,114.5,293.5,114.5c-2.9,0.1-5.8,0.2-8.7,0c-1.9-0.1-2.6,0.6-2.9,2.5c-1.4,9.6-3,19.2-4.5,28.9
			c-0.8,5.3-1.6,10.7-2.5,16c-0.3,1.8,0.2,2.4,2,2.3c2.4-0.1,4.8-0.1,7.2-0.1c6.2,0,6.3,0,6.8-6.3c0.2-1.8,0.6-2.8,2.7-2.7
			c2,0.1,3.7-0.1,3.5,2.7c-0.1,1.4,0.3,2.9,0.4,4.3c0,1.5,0.6,2,2.1,2c4-0.1,7.9-0.1,11.9,0c1.5,0,1.8-0.5,1.5-1.9
			c-2.7-15.3-5.5-30.5-8.1-45.8c-0.3-1.6-1-2-2.5-2C299.5,114.6,296.5,114.5,293.5,114.5z"/>
		<path class="st0" d="M209.5,129.4c1.1-1.9,0.4-2.5-1.6-2.6c-2.2-0.1-4.9,1.1-6.3-0.7c-1.2-1.5-0.3-4.1-0.4-6.2
			c-0.1-7.8-0.1-7.8,7.8-7.8c7.2,0,14.4,0,21.7-0.1c2,0,2.7,0.6,2.7,2.6c-0.1,3.5,0,6.9,0,10.4c-3,7.8-6.1,15.6-9,23.4
			c-1.1,2.9-0.6,3.3,2.5,3.3c0.5,0,1,0,1.4,0c4.8-0.1,4.8-0.1,5.3,4.7c-0.1,2.7-0.2,5.4-0.2,8.1c0,1.5-0.4,2.4-2.1,2.3
			c-9.7,0-19.5,0-29.2,0c-1.6,0-2.3-0.7-2.2-2.2c0.1-3.5-0.3-6.9,0.6-10.3C203.5,146,206.5,137.7,209.5,129.4z M216.6,164.2
			C216.6,164.2,216.6,164.2,216.6,164.2c2.2,0,4.4,0,6.6,0c8,0,7.9,0,7.5-8c-0.1-1.4-0.5-1.9-1.8-1.8c-2.4,0.1-4.8,0-7.2,0
			c-1.7,0-2.5-0.2-1.6-2.3c1.8-4.3,3.6-8.7,5-13.2c2.3-7,6.5-13.6,5.6-21.5c-0.2-2.1-0.4-3-2.8-2.9c-5.6,0.2-11.2,0.1-16.8,0.1
			c-7.7,0-7.6,0-7.3,7.7c0.1,1.7,0.7,2.1,2.3,2c1.9-0.1,3.9,0,5.8,0c1.9-0.1,2.4,0.4,1.7,2.3c-3.3,8.9-6.3,18-9.7,26.9
			c-1.1,3-1.2,6-1.2,9.1c0,1.5,0.7,1.7,1.9,1.7C208.5,164.1,212.5,164.2,216.6,164.2z"/>
		<path class="st0" d="M237.2,124.8c0.1-3.5,0.2-6.9,0.2-10.4c0-1.7,0.5-2.4,2.3-2.4c9.3,0.1,18.5,0,27.8,0c1.6,0,2.2,0.6,2.2,2.2
			c0,2.1-0.3,4.2,0.2,6.3c-0.4,2.6-0.5,5.3-1.6,7.8c-2.5,6.2-4.9,12.5-7.2,18.8c-1.5,4.1-1,4.6,3.4,4.5c4.9-0.1,4.9-0.1,5.3,4.6
			c-0.1,2.7-0.2,5.4-0.2,8.1c0,1.7-0.5,2.4-2.3,2.4c-9.6,0-19.2,0-28.9,0c-1.7,0-2.4-0.6-2.4-2.4c0.1-2.6,0-5.2,0-7.8
			c3-8.3,6.1-16.6,8.9-24.9c1.6-4.7,1.4-4.7-3.7-4.8C239.6,126.9,237.6,127.3,237.2,124.8z M252.9,164.2
			C252.9,164.2,252.9,164.1,252.9,164.2c2.2,0,4.4,0,6.6,0c7.7,0,7.6,0,7.4-7.8c-0.1-1.5-0.4-2.1-2-2c-2.4,0.1-4.8,0-7.2,0
			c-1.6,0-2.3-0.3-1.6-2.1c2.9-7.3,5.4-14.8,8.5-22.1c1.9-4.5,2.3-9,2.2-13.8c0-1.4-0.4-1.9-1.8-1.8c-7.8,0.1-15.6,0-23.4,0
			c-1,0-1.5,0.2-1.6,1.4c-0.9,7.8-0.7,8.2,7,8.2c0.2,0,0.4,0,0.6,0c2.4-0.3,2.7,0.6,1.9,2.8c-3.1,8.4-6,16.9-9.1,25.2
			c-1.2,3.2-1.9,6.4-1.8,9.8c0.1,1.6,0.6,2.2,2.2,2.2C244.8,164.1,248.9,164.2,252.9,164.2z"/>
		<path class="st0" d="M133.1,149.6c-0.1-9.1-0.1-18.2-0.2-27.3c0.5-2.7,0.2-5.4,0.2-8.1c0-1.3,0.4-2.1,1.7-2.1
			c8.5,0.2,17.1-0.8,25.6,0.8c7.8,1.5,10.5,4.9,10.8,12.9c0.1,1.6,0.2,3.3,0.3,4.9c-0.1,1.4-0.3,2.9-0.3,4.3c0,4.8-2.2,8.3-6.5,10.2
			c-2.7,1.2-5.6,1.3-8.4,1.5c-1.4,0.1-3.1,0-2.6,2.3c0,5.1-0.1,10.2,0,15.3c0,1.9-0.6,2.6-2.5,2.5c-5.2-0.1-10.4-0.1-15.6,0
			c-2,0-2.4-0.8-2.4-2.6C133.2,159.4,133.1,154.5,133.1,149.6z M135.7,139.4c0,0,0.1,0,0.1,0c0,7.5,0,15,0,22.6
			c0,1.8,0.5,2.4,2.3,2.3c3.6-0.1,7.1-0.1,10.7,0c1.8,0.1,2.3-0.6,2.3-2.3c-0.1-5.1,0-10.2-0.1-15.3c0-1.9,0.5-2.8,2.6-2.7
			c3,0.2,6,0,8.9-0.8c4.2-1.2,5.8-3,6.2-7.3c0.3-4.1,0.3-8.3-0.1-12.4c-0.3-3-1.5-5.4-4.2-6.8c-2.3-1.2-4.9-1.8-7.5-1.8
			c-6.2-0.1-12.3-0.1-18.5-0.2c-2.1-0.1-2.6,0.6-2.6,2.6C135.8,124.5,135.7,132,135.7,139.4z"/>
		<path class="st2" d="M336.3,26.2c-3,1-5,3.3-7.1,5.5c-1.2,1.3,1.5,7,3.4,7.2c1.8,0.2,1.2,1.4,1.2,2.3c0.1,13.9,0.1,27.7,0.1,41.6
			c0,6.2,0,12.3,0,18.5c0,2-0.5,3-2.7,2.9c-4.5-0.1-9.1-0.2-13.6,0c-2.2,0.1-2.7-0.7-2.7-2.8c0.1-18.8,0.2-37.6-0.1-56.4
			c-0.1-3.9,0.4-7.4,1.5-10.9c0.5-1.8,0.2-2.9-1.2-3.9c-1.8-1.3-3.4-2.8-5.2-4.2c-0.2-0.5-0.3-1,0-1.5c9.3,0.2,9.3,0.2,11.9-8.2
			c0-0.1,0-0.2,0-0.3c0.3-0.4,0.6-0.8,0.9-1.2c0.2,0.2,0.4,0.4,0.6,0.5c0,0.6,0.3,0.9,0.7,1.1c-0.3,2.7,1.4,4.9,2.3,7.3
			c0.3,0.8,1.3,0.6,2.1,0.6c2.2,0.1,4.4,0.2,6.6,0.2c1.5-0.1,1.3,0.8,1.2,1.7L336.3,26.2z M332.5,71.7
			C332.5,71.7,332.5,71.7,332.5,71.7c-0.1-4.6,0-9.2-0.1-13.9c0-4.9,0-9.8-0.1-14.7c0-0.6,0.6-1.7-0.8-1.9c-3-0.5-6-1-9.2-0.9
			c-6.7,0.3-5.9-1.1-5.9,6c0,0.4,0,0.8,0,1.2c0,17.2,0.1,34.5,0,51.7c0,2.8,0.8,3.8,3.6,3.5c3-0.3,6-0.2,8.9,0
			c2.5,0.2,3.6-0.5,3.6-3.2C332.4,90.2,332.5,80.9,332.5,71.7z M328.6,38c0-0.4,0.1-0.8,0-1.1c-1.3-3.7-1.7-7,2.6-9.2
			c0.5-0.2,1-0.8,0.6-1.4c-0.2-0.3-0.9-0.5-1.3-0.4c-4.2,0.8-6.1-1.5-7-5.2c-0.1-0.4-0.3-0.9-1.4-1c-0.6,4.3-2.7,6.9-7.6,6.4
			c-1.6-0.2-0.7,1.2,0,1.6c3.7,2.1,4.3,5,2.6,8.7c-0.2,0.4-0.2,0.9-0.3,1.5c2.4-0.5,3.8-3,5.9-3C325,35,326.4,37.4,328.6,38z
			 M325.7,38.8c-2.9-2.9-3.3-2.9-5.8,0C321.8,38.8,323.6,38.8,325.7,38.8z"/>
		<path class="st0" d="M175.3,131.2c0-5.5,0.2-10.9,0.1-16.4c0-2.2,0.8-2.8,2.8-2.7c5.1,0.1,10.2,0.1,15.3,0c1.9,0,2.5,0.7,2.5,2.5
			c0.1,5.7-0.5,11.3,0.3,17c-0.5,7.5-0.1,15-0.2,22.5c0,3.4-0.1,6.7-0.1,10.1c0,1.9-0.5,2.8-2.6,2.7c-5.1-0.1-10.2-0.1-15.3,0
			c-2,0-2.7-0.7-2.7-2.7c0.1-4.3-0.1-8.7-0.1-13C175.4,144.6,175.4,137.9,175.3,131.2z M178.2,139.4
			C178.2,139.4,178.2,139.4,178.2,139.4c0.1,7.5,0.1,15,0,22.6c0,1.8,0.5,2.4,2.3,2.3c3.6-0.1,7.1-0.1,10.7,0
			c1.9,0.1,2.2-0.7,2.2-2.4c-0.1-15-0.1-30.1,0-45.1c0-1.8-0.6-2.3-2.3-2.2c-3.6,0.1-7.1,0.2-10.7,0c-1.9-0.1-2.2,0.6-2.2,2.3
			C178.2,124.3,178.2,131.9,178.2,139.4z"/>
		<path class="st1" d="M237.2,124.8c0.4,2.5,2.4,2.1,4.1,2.1c5.1,0.1,5.3,0.2,3.7,4.8c-2.8,8.4-5.9,16.6-8.9,24.9
			c-0.9-0.1-1.7-0.2-2.6-0.3c-0.5-4.8-0.5-4.8-5.3-4.7c-0.5,0-1,0-1.4,0c-3.1,0-3.6-0.5-2.5-3.3c2.9-7.8,6-15.6,9-23.4
			C234.6,125.3,235.9,125,237.2,124.8z"/>
		<path class="st1" d="M269.8,156.4c-0.4-4.7-0.4-4.7-5.3-4.6c-4.5,0.1-4.9-0.4-3.4-4.5c2.3-6.3,4.7-12.6,7.2-18.8
			c1-2.6,1.2-5.2,1.6-7.8c2.9-0.6,5.8-0.6,8.7-0.5c-1.1,7.6-2.2,15.2-3.4,22.8c-0.7,4.5-1.5,9.1-2.2,13.6
			C272,156.4,270.9,156.4,269.8,156.4z"/>
		<path class="st2" d="M264,26.2c-1.6,0.6-2.5,2-3.8,2.9c-0.7,0.5-0.9,1.1-0.6,2c3.3,7.7,2.4,15.8,2.5,23.9c0.1,15.5,0,31,0.1,46.5
			c0,2.1-0.4,2.9-2.7,2.8c-4.7-0.2-9.4-0.1-14.2,0c-1.7,0-2.3-0.4-2.3-2.3c0-20.2,0-40.5,0-60.7c0-1.1-0.3-2.2,1.4-2.6
			c1.1-0.3,0.8-1.8,1-2.8c1.7-7,1.7-7-4.5-11.3c-0.7-0.6-1.4-1.1-0.3-2c1.3,0,2.7,0,4,0c4.8-0.1,4.8-0.1,6.5-4.6
			c0.5-1.4,1.1-2.9,1.6-4.3c0.4,0,0.7,0,1.1-0.1c1.2,2.8,1.1,6.6,3.5,8.2c2.3,1.7,5.9,0.6,8.9,0.9C266.9,24.8,265,25.2,264,26.2z
			 M260.6,101.9c0.6-1.1,0.3-2.3,0.3-3.4c0-11.2,0-22.4-0.1-33.5c0-7.6,0.2-15.2-0.3-22.8c0.1-1.7-0.9-1.9-2.2-1.8
			c-2.5,0-5,0.1-7.5,0c-6.3-0.1-6.3-0.1-6.3,6.3c0,17.6,0.1,35.3,0.1,52.9c0,2.3,0.5,3.3,3,3.2c3.4-0.2,6.7,0,10.1-0.1
			C258.7,102.6,259.8,102.9,260.6,101.9z M243,24.5c5.1,2.6,7,6.1,3.7,11.8c1.6-0.7,2.4-0.9,2.9-1.3c2.3-2,4.5-3.1,7-0.2
			c0.4,0.4,1.4,1.3,3.1,0.5c-3.3-4.7-0.9-8,3.7-10.9c-2.9-0.7-5.3,0.2-7-1c-1.8-1.3-1.6-4-3-5.9c-1.8,1.7-1.2,4.5-3,5.8
			C248.3,24.7,245.8,23.5,243,24.5z M259,38.8c-4.7-5-7.2-5-11.4,0C251.4,38.8,255.1,38.8,259,38.8z"/>
		<path class="st1" d="M196.2,154.1c0.1-7.5-0.4-15,0.2-22.5c4.4-0.7,8.8-1.5,13.2-2.2c-3,8.3-6,16.6-9,24.9
			C199.1,154.2,197.6,154.1,196.2,154.1z"/>
		<path class="st1" d="M175.3,131.2c0,6.7,0,13.3,0.1,20c-7.2-0.7-14.4-1.4-21.7-2.2c-0.5-2.3,1.2-2.3,2.6-2.3
			c2.9-0.2,5.8-0.3,8.4-1.5c4.4-2,6.5-5.4,6.5-10.2c0-1.4,0.2-2.9,0.3-4.3C172.9,130.5,174.1,131,175.3,131.2z"/>
		<path class="st0" d="M266.3,22.8c-3-0.3-6.6,0.8-8.9-0.9c-2.3-1.7-2.3-5.5-3.5-8.2c2.1-0.6,3,1,3.2,2.4c0.6,3.6,2.8,4.3,6,4.2
			C264.5,20.3,266.5,20.2,266.3,22.8z"/>
		<path class="st0" d="M252.7,13.8c-0.5,1.4-1.1,2.9-1.6,4.3c-1.6,4.5-1.6,4.5-6.5,4.6c-1.3,0-2.7,0-4,0c0-2,1.5-2.4,2.9-2.4
			c3.6,0.2,6-1,6.7-4.8C250.4,14.3,251.3,13.5,252.7,13.8z"/>
		<path class="st0" d="M321.9,16.1c0,0.1,0,0.2,0,0.3c-2.7,8.4-2.7,8.4-11.9,8.2c0.3-1.8,1.7-1.9,3-1.9c3.3,0.2,5.8-0.7,6.2-4.5
			c0.1-1,0.9-1.7,1.6-2.3C321.1,16,321.5,16,321.9,16.1z"/>
		<path class="st3" d="M237.3,45.8c0.2,0.9,0.4,1.8,0.6,2.7c-0.9,0.4-0.5,1.3-0.6,1.9c0,1.3,0,2.5,0,3.8c0.1,15.7,0.1,31.4,0.2,47.1
			c-0.4,1-1.3,0.7-2.1,0.8c-3,0-6,0-8.9,0c-0.5,0-0.9,0-1.4,0c-0.8,0-1.7,0-2.5,0c-2-0.1-1.2-1.7-1.2-2.6c-0.1-13.4,0-26.9,0-40.3
			c0-1.7,0-3.5-0.6-5.1c-1-2.7-4.4-3.9-6.9-2.5c-0.8,0.4-1.7,0.9-0.8,2c0,0,0,0,0,0c-1.3-0.6-1.2,0.4-1.3,1.2
			c-0.5,2.4-0.3,4.8-0.3,7.2c0,12.3,0,24.7,0.1,37c0,2.4-0.5,3.5-3.2,3.4c-3.4-0.2-6.7-0.1-10.1,0c-2.2,0.1-3.1-0.6-3-3
			c0.2-3.8,0.1-7.7,0.1-11.6c0-14.7,0-29.5-0.1-44.2c0-2.2,0.2-3.7,3-3.5c3.1,0.2,6.2,0.2,9.2,0c2.6-0.2,3.5,0.7,3.3,3.2
			c-0.1,1.2-0.8,3.2,0.6,3.7c1.7,0.6,1.9-1.7,2.7-2.8c5.5-8,18.2-7.9,22.1,0.6C236.3,45.4,236.6,45.9,237.3,45.8z"/>
		<path class="st3" d="M371.8,55.7c-0.2,1,0.6,1.7,0.8,2.5c0.1,0.4,0.2,0.7,0.2,1.1l0-0.1c0,1,0.9,1.2,1.4,1.6
			c3.2,2.5,7.1,3.8,10.7,5.6c10.7,5.2,14.1,12.8,10.8,26c-0.8,3.4-2.8,6.1-5.8,8c-4.9,3-10.3,3.5-15.9,3.3
			c-12.8-0.5-19.2-7.4-18.8-19.8c0.1-1.8,0.6-2.6,2.5-2.5c3,0.1,6,0.1,9-0.1c2.7-0.2,4.5,0.2,4,3.6c-0.1,1,0.2,2.1,0.6,3.1
			c0.9,2.1,2.4,3.6,4.9,3.2c2.3-0.4,4-1.6,4.3-4.3c0.4-3.8-0.9-6.8-4.1-8.9c-2.7-1.8-5.8-3-8.8-4.4c-6-2.8-10.5-6.7-12-13.5
			c-1.9-8.4,0.5-15.8,7-19.1c8.2-4.2,16.8-4.2,25.1-0.7c5.8,2.5,9.3,11.1,7.4,17c-0.4,1.3-1.3,1.2-2.3,1.2c-3.2,0-6.4-0.1-9.5,0
			c-1.9,0.1-3-0.5-2.8-2.5c0.1-1.3-0.5-2.4-1.3-3.4c-1.3-1.6-3.1-2.7-5.2-2.1c-1.4,0.4-3.3,0.8-3,3.1c0.2,0.2,0.3,0.3,0.5,0.5
			C371.7,54.6,371.7,55.1,371.8,55.7z"/>
		<path class="st2" d="M311.3,103c-0.1,1.2-1,1.2-1.9,1.2c-5.1,0-10.2-0.1-15.3,0c-2.1,0-1.7-1.2-1.7-2.4c0-14.1,0-28.2,0-42.2
			c0-1.6,0-3.3-0.7-4.8c-0.6-1.3-1.4-2-2.9-1.9c-1.6,0-2.6,0.7-3.1,2.1c-0.7,1.8-0.6,3.6-0.6,5.4c0,13.6,0,27.2,0.1,40.8
			c0,2.6-0.8,3.3-3.2,3.2c-4.4-0.2-8.9-0.1-13.3,0c-1.7,0-2.5-0.2-2.5-2.3c0-20.3,0-40.5-0.1-60.8c0-1.8,0.6-2.3,2.3-2.3
			c4.2,0.1,8.5,0.2,12.7,0c2.5-0.1,3.9,0.5,3.3,3.3c-0.1,0.4-0.2,1,0.5,1.4c1.8-1.7,3.5-3.6,5.8-4.8c7.4-3.6,18.5-1.7,20.3,10.8
			c0.1,0.9,0.1,1.7,0.2,2.6c0,14.8-0.1,29.7-0.1,44.5C311,98.8,311.2,100.9,311.3,103z M267.3,71.7c0,0,0.1,0,0.1,0
			c0,9.4,0.1,18.7,0,28.1c0,2.1,0.6,3,2.8,2.9c3.4-0.1,6.8-0.1,10.1,0c2.7,0.1,3.4-1,3.4-3.6c-0.1-13.4,0-26.8-0.1-40.2
			c0-1.5,0.1-2.9,0.5-4.3c0.7-2.2,2.1-3.6,4.6-3.6c2.4,0,3.6,1.5,4.4,3.5c0.5,1.4,0.4,2.8,0.4,4.3c0,13.6,0.1,27.2,0,40.8
			c0,2.3,0.7,3.1,2.9,3c3.3-0.1,6.6-0.2,9.8,0c2.7,0.2,3.6-0.6,3.6-3.5c-0.2-13.3-0.1-26.6-0.1-39.9c0-3.1,0-6.2-0.3-9.2
			c-0.6-6.4-4.1-10.4-10.1-11.2c-5.6-0.8-9.9,1.3-13.4,5.7c-0.8,1-0.9,3.5-2.6,2.9c-1.4-0.5-0.7-2.8-0.6-4.2c0.1-2-0.6-2.9-2.6-2.8
			c-3.1,0.1-6.2,0.2-9.3,0c-2.8-0.2-3.7,0.9-3.7,3.6C267.4,53.1,267.3,62.4,267.3,71.7z"/>
		<path class="st2" d="M163.5,44.3c3.1-3.6,6.2-5.9,10.3-6.8c6.3-1.4,14.7,2.4,15.8,10.5c0.5,3.7,0.8,7.4,0.8,11.1
			c0.1,14,0,28,0.1,41.9c0,2.8-0.9,3.4-3.4,3.3c-4.3-0.2-8.7-0.2-13,0c-2.3,0.1-2.7-0.7-2.7-2.8c0.1-14,0-28,0-41.9
			c0-1.4-0.1-2.9-0.4-4.3c-0.3-1.6-1.4-2.5-3.1-2.5c-1.7,0-2.9,0.7-3.2,2.3c-0.3,1.4-0.5,2.9-0.5,4.3c0,14-0.1,28,0.1,41.9
			c0,2.3-0.5,3-2.9,2.9c-4.4-0.2-8.9-0.2-13.3,0c-2.6,0.1-2.9-0.9-2.9-3.2c0.1-17.3,0-34.5,0-51.8c0-2.6,0.1-5.2-0.1-7.8
			c-0.2-2.3,0.7-2.7,2.8-2.7c4,0.2,8.1,0.2,12.1,0c2.5-0.1,3.9,0.3,3.3,3.2C163.3,42.6,163.4,43.1,163.5,44.3z M147.4,102.5
			c0.1,0.1,0.2,0.3,0.4,0.4l0.1,0.2l0.2,0c3.6,0.5,7.2-0.9,10.9-0.4c3.9,0.5,4,0.5,4-3.5c0-12.5,0-25-0.1-37.5
			c0-2.3-0.1-4.6,0.5-6.9c0.6-2.4,2-3.9,4.6-3.7c2.6,0.2,4.2,1.8,4.6,4.3c0.3,1.6,0.2,3.3,0.3,4.9c-0.3,7.1-0.3,14.1,0,21.2
			c0,6.8,0.1,13.6,0.1,20.4c0,0.1-0.1,0.1-0.1,0.2c0.1,0.1,0.2,0.2,0.2,0.2c1,0.6,2.1,0.4,3.2,0.4c2.6,0,5.2,0.2,7.8,0.1
			c1.6-0.1,3.4,0.8,4.9-0.6c0-0.3,0.1-0.6,0.1-0.9c-0.4-16.7,0.7-33.5-0.7-50.2c-0.8-10.2-7.2-13.3-14.6-12c-4,0.7-6.9,3.3-9,6.7
			c-0.5,0.8-0.7,2.2-1.9,1.9c-1.3-0.3-0.7-1.8-0.8-2.7c-0.1-0.8,0-1.7,0-2.6c0-0.9-0.2-1.7-1.4-1.8c-3.9,0-7.8-0.1-11.7-0.1
			c-0.7,0-1.7-0.6-2.1,0.6c0,0.6-0.1,1.3-0.1,1.9c0,0.9,0,1.8,0,2.7c0,2.6,0,5.1,0.1,7.7c-0.1,0.1-0.1,0.3,0,0.4c0,7,0,14,0,21
			c-0.3,1.1-0.3,2.1,0,3.2c0,3.3,0,6.7,0,10l0,0c0,0.6,0,1.3,0,1.9c0,0.3,0,0.6,0,0.9c0,0.7,0,1.4,0,2c-0.3,2.9-0.2,5.7,0,8.6
			c0.1,0.4,0.2,0.8,0.4,1.1l0.1,0.1L147.4,102.5z"/>
		<path class="st2" d="M371.2,53.6c-0.3-2.3,1.5-2.7,3-3.1c2.1-0.6,3.9,0.4,5.2,2.1c0.8,1,1.4,2,1.3,3.4c-0.1,2,0.9,2.6,2.8,2.5
			c3.2-0.1,6.4,0,9.5,0c1,0,1.9,0.1,2.3-1.2c1.8-5.9-1.6-14.5-7.4-17c-8.4-3.5-17-3.5-25.1,0.7c-6.5,3.3-8.9,10.7-7,19.1
			c1.5,6.8,6,10.7,12,13.5c3,1.4,6,2.6,8.8,4.4c3.2,2.1,4.5,5.1,4.1,8.9c-0.3,2.6-2,3.9-4.3,4.3c-2.5,0.4-4-1.1-4.9-3.2
			c-0.4-0.9-0.8-2.1-0.6-3.1c0.5-3.4-1.4-3.8-4-3.6c-3,0.2-6,0.2-9,0.1c-1.9-0.1-2.5,0.7-2.5,2.5c-0.4,12.4,6,19.3,18.8,19.8
			c5.5,0.2,11-0.3,15.9-3.3c3-1.8,5-4.6,5.8-8c3.3-13.1-0.1-20.8-10.8-26c-3.6-1.8-7.5-3.1-10.7-5.6c-0.5-0.4-1.5-0.7-1.4-1.6
			c0.7,0,1.3-0.1,1.9,0.4c3.2,2.3,6.9,3.7,10.5,5.5c11.4,5.7,15,13.1,12.6,25.5c-1.5,7.5-5.9,12.1-13.4,13.8
			c-5.4,1.2-10.9,1.3-16.3,0.1c-8.6-1.9-13.4-7.5-14.2-16.3c-0.7-8.1-0.7-8.1,7.3-8.1c3,0,6,0.1,9,0c1.6-0.1,2.2,0.4,2.1,2.1
			c-0.1,1.7-0.1,3.5,0.4,5.2c0.6,1.8,1.8,2.7,3.7,2.6c2-0.1,2.7-1.5,2.9-3.3c0.3-3.5-1.2-6-4.2-7.6c-2.8-1.5-5.7-2.8-8.5-4.2
			c-11.3-5.5-15.9-17.1-11.1-28c1.6-3.5,4.1-6.2,7.5-7.6c7.8-3.3,15.7-3.5,23.7-0.9c6.4,2.1,9.5,6.8,9.9,13.5
			c0.5,8.4,0.5,8.4-7.8,8.3c-1.4,0-2.9,0-4.3,0c-1.6,0-3.6,0.4-4.8-0.3c-1.3-0.8-0.3-2.8-0.5-4.3c-0.4-2.9-3.8-4.2-6.5-2.5
			C372.2,53.2,371.8,53.7,371.2,53.6z"/>
		<path class="st2" d="M42.3,59.5c0-14.1,0-28.1,0-42.2c0-1.3-0.3-2.7,1.9-2.6c9.9,0.3,19.9-0.4,29.8,0.5c0.9,0.1,1.7,0.2,2.6,0.3
			c11.6,1.8,15.7,7.7,16,18.9c0.4,16.1,0.2,32.2,0.2,48.3c-0.1,14.8-5.7,20.9-20.6,21.6c-9.3,0.4-18.7,0.1-28,0.2
			c-2.1,0-1.7-1.2-1.7-2.4C42.3,87.8,42.3,73.7,42.3,59.5z M43.7,59.3C43.8,59.3,43.8,59.3,43.7,59.3c0,13.5,0,27,0.1,40.5
			c0,1.5-0.2,3,2,3c10.3-0.2,20.7,0.8,30.9-0.7c9-1.3,13.1-5.8,14.3-14.8c0.5-4.2,0.2-8.5,0.2-12.7c0-13.6,0-27.2-0.2-40.8
			c-0.1-5.8-1.6-11.1-7-14.4c-3.1-1.9-6.7-2.5-10.2-2.8C65,15.7,56.1,16.3,47.3,16c-2.9-0.1-3.6,1-3.6,3.7
			C43.8,32.9,43.7,46.1,43.7,59.3z"/>
		<path class="st2" d="M141.8,70.8c0,5.6,0,10.5,0,15.4c-0.1,10.1-6,17-15.9,18.8c-5.6,1-11.3,0.9-16.8-1.1
			c-7.4-2.6-11.4-8-11.7-15.5c-0.4-11.2-0.4-22.4-0.1-33.5c0.3-9.8,6.4-16.1,16.3-17.5c5.2-0.8,10.4-0.6,15.4,1
			c7,2.1,11.6,7.4,12.4,14.7C142.1,59.1,141.5,65.3,141.8,70.8z M140.4,70.1c-0.2-4.7,0.4-10.6-0.3-16.6c-0.7-6.4-3.9-10.9-10-13.3
			c-6.3-2.4-12.7-2.5-19-0.8c-7.9,2.1-12.2,7.3-12.4,15.4c-0.3,10.8-0.2,21.6,0,32.4c0.2,7.4,3.8,12.6,11,15.3
			c4.9,1.8,9.9,1.9,14.8,1.2c10.5-1.4,15.8-7.8,15.9-18.4C140.4,80.6,140.4,76,140.4,70.1z"/>
		<path class="st2" d="M237.3,45.8c-0.7,0-0.9-0.4-1.2-1c-4-8.5-16.6-8.6-22.1-0.6c-0.7,1.1-1,3.3-2.7,2.8c-1.4-0.4-0.7-2.4-0.6-3.7
			c0.2-2.5-0.7-3.4-3.3-3.2c-3.1,0.2-6.2,0.3-9.2,0c-2.9-0.2-3.1,1.3-3,3.5c0.1,14.7,0.1,29.5,0.1,44.2c0,3.9,0.1,7.7-0.1,11.6
			c-0.1,2.4,0.8,3,3,3c3.4-0.1,6.8-0.2,10.1,0c2.7,0.2,3.2-1,3.2-3.4c-0.1-12.3-0.1-24.7-0.1-37c0-2.4-0.2-4.8,0.3-7.2
			c0.2-0.7,0-1.7,1.3-1.2c0.3,1.1-0.1,2.2-0.2,3.3c-0.6,5.8-0.2,11.7-0.2,17.6c0,9.5-0.3,19,0.2,28.5c-0.5,1.3-1.6,0.8-2.5,0.9
			c-4.8,0-9.6-0.1-14.5,0.1c-1.6,0-2.1-0.4-2.1-2c0-20.1,0-40.1-0.1-60.2c0-0.9,0.3-1.7,0.6-2.5c0.7-0.2,1.4-0.3,2.1-0.5
			c0.9,0,1.9,0,2.8-0.1c3.9,0.2,7.7,0.4,11.6,0c2.4,0.9,0.2,3.2,1.5,4.5c1.1-0.2,1.6-1.3,2.3-2c6.5-6.3,17.5-5.5,21.8,1.7
			C237.1,43.8,237.6,44.7,237.3,45.8z"/>
		<path class="st2" d="M225.1,102.2c0.5,0,0.9,0,1.4,0c3,0.3,6,0.3,9,0c0.8-0.1,1.7,0.2,2.1-0.8c0.1-1,0.3-2.1,0.3-3.1
			c0-10.5,0-21,0-31.5c0-5.4-0.3-10.8-0.4-16.2c0.1-0.7-0.4-1.5,0.6-1.9c1.3,0.9,1,2.2,1,3.4c0.1,16.6,0.1,33.1,0.2,49.7
			c0,1.6-0.5,2.2-2.1,2.1c-4.8-0.1-9.6-0.1-14.5,0c-2.1,0.1-2.6-0.6-2.6-2.6c0.1-13.6,0-27.2,0-40.8c0-0.8,0-1.5,0-2.3
			c-0.1-5.5-1.7-6.7-6.8-4.8c-0.8-1.1,0.1-1.6,0.8-2c2.5-1.4,5.9-0.1,6.9,2.5c0.6,1.7,0.6,3.4,0.6,5.1c0,13.4,0,26.9,0,40.3
			c0,0.9-0.9,2.5,1.2,2.6C223.4,102.5,224.3,102.4,225.1,102.2z"/>
		<path class="st2" d="M336.2,26.3c5.3,0,10.6,0,15.9-0.1c1.5,0,1.8,0.5,1.8,1.8c0,4.8,0,9.6,0,14.4c0,1.3-0.8,2.3-1.3,3.4
			c-2.1,4.1-4.2,8.2-6.3,12.3c-0.6,1.2-1.4,1.8-2.9,1.7c-2.7-0.2-5.4,0-8.5,0c1.6-3.6,3.1-7,4.7-10.3c0.4-0.8,0.7-1.6,1.1-2.3
			c1.5-3.4,1.5-3.5-2.2-3.5c-1.7,0-2.1-0.6-2.1-2.2c0.1-5.1,0-10.2,0-15.3C336.3,26.2,336.2,26.3,336.2,26.3z M352.5,36.1
			c0-2.6-0.1-4.6,0-6.6c0.1-1.5-0.5-2.1-2-2c-3.5,0.1-6.9,0.1-10.4,0.1c-1.6,0-2.3,0.6-2.3,2.2c0,2.6,0,5.2,0,7.8
			c0,4.2,0,4.3,4.1,4.5c1.9,0.1,2.4,0.7,1.5,2.4c-1.8,3.7-3.5,7.5-5.3,11.2c-0.3,0.7-1.1,1.5-0.2,2.3c0.9,0.8,6.6,0.2,7-0.8
			C348,50.1,354.1,44.2,352.5,36.1z"/>
		<path class="st2" d="M372.8,59.3c-0.1-0.4-0.2-0.7-0.2-1.1C372.6,58.6,372.7,58.9,372.8,59.3z"/>
		<path class="st2" d="M371.8,55.7c0-0.5-0.1-1.1-0.1-1.6C372.5,54.5,372.2,55.1,371.8,55.7z"/>
		<path class="st2" d="M293.5,114.5c3,0,6,0.1,9,0c1.5-0.1,2.2,0.4,2.5,2c2.7,15.3,5.4,30.6,8.1,45.8c0.3,1.4-0.1,1.9-1.5,1.9
			c-4-0.1-7.9,0-11.9,0c-1.5,0-2.1-0.5-2.1-2c0-1.4-0.5-2.9-0.4-4.3c0.2-2.9-1.5-2.6-3.5-2.7c-2.1-0.1-2.5,0.8-2.7,2.7
			c-0.5,6.3-0.6,6.3-6.8,6.3c-2.4,0-4.8-0.1-7.2,0.1c-1.8,0.1-2.4-0.5-2-2.3c0.9-5.3,1.7-10.7,2.5-16c1.5-9.6,3.1-19.2,4.5-28.9
			c0.3-1.9,1-2.6,2.9-2.5C287.7,114.6,290.6,114.5,293.5,114.5C293.5,114.5,293.5,114.5,293.5,114.5z M293.6,127.9
			c-0.7,5.2-1.5,10.3-2.1,15.5c-0.1,1-0.8,2.4,0.4,2.8c1.2,0.4,2.8,0.4,3.9,0c1.2-0.4,0.5-1.9,0.4-2.8c-0.3-3.1-0.6-6.3-1.1-9.4
			C294.7,132,294.9,129.8,293.6,127.9z"/>
		<path class="st2" d="M216.6,164.2c-4,0-8.1,0-12.1,0c-1.2,0-1.9-0.2-1.9-1.7c0-3.1,0.1-6,1.2-9.1c3.4-8.9,6.4-17.9,9.7-26.9
			c0.7-1.9,0.2-2.4-1.7-2.3c-1.9,0.1-3.9,0-5.8,0c-1.5,0.1-2.2-0.3-2.3-2c-0.3-7.7-0.3-7.7,7.3-7.7c5.6,0,11.2,0.1,16.8-0.1
			c2.4-0.1,2.6,0.8,2.8,2.9c0.9,7.9-3.3,14.5-5.6,21.5c-1.5,4.5-3.2,8.9-5,13.2c-0.9,2-0.1,2.3,1.6,2.3c2.4-0.1,4.8,0,7.2,0
			c1.4,0,1.8,0.4,1.8,1.8c0.5,8,0.5,8-7.5,8C221,164.2,218.8,164.2,216.6,164.2C216.6,164.2,216.6,164.2,216.6,164.2z"/>
		<path class="st2" d="M252.9,164.2c-4,0-8.1-0.1-12.1,0c-1.6,0-2.1-0.5-2.2-2.2c-0.1-3.4,0.6-6.6,1.8-9.8c3.1-8.4,6-16.9,9.1-25.2
			c0.8-2.2,0.5-3.1-1.9-2.8c-0.2,0-0.4,0-0.6,0c-7.7,0-7.9-0.4-7-8.2c0.1-1.2,0.6-1.4,1.6-1.4c7.8,0,15.6,0,23.4,0
			c1.4,0,1.8,0.5,1.8,1.8c0.1,4.7-0.3,9.3-2.2,13.8c-3.1,7.2-5.6,14.7-8.5,22.1c-0.7,1.9-0.1,2.2,1.6,2.1c2.4,0,4.8,0.1,7.2,0
			c1.5-0.1,1.9,0.5,2,2c0.3,7.8,0.3,7.8-7.4,7.8C257.4,164.1,255.1,164.1,252.9,164.2C252.9,164.1,252.9,164.2,252.9,164.2z"/>
		<path class="st2" d="M135.7,139.4c0-7.4,0.1-14.9,0-22.3c0-2,0.5-2.6,2.6-2.6c6.2,0.2,12.3,0.1,18.5,0.2c2.6,0,5.2,0.6,7.5,1.8
			c2.7,1.4,3.9,3.9,4.2,6.8c0.4,4.1,0.4,8.3,0.1,12.4c-0.4,4.3-1.9,6.1-6.2,7.3c-2.9,0.8-5.9,1-8.9,0.8c-2.1-0.1-2.6,0.7-2.6,2.7
			c0.1,5.1,0,10.2,0.1,15.3c0,1.8-0.5,2.4-2.3,2.3c-3.6-0.1-7.1-0.1-10.7,0c-1.8,0.1-2.3-0.5-2.3-2.3c0.1-7.5,0-15,0-22.6
			C135.8,139.4,135.7,139.4,135.7,139.4z M151,129.3c0,1.3,0,2.7,0,4c0,1-0.5,2.3,1.2,2.4c1.5,0,3.1-0.1,3.4-1.9
			c0.6-2.9,0.7-6,0.1-8.9c-0.4-1.9-2.2-2.1-3.7-1.9c-1.6,0.2-0.9,1.6-1,2.6C150.9,126.8,151,128,151,129.3z"/>
		<path class="st3" d="M332.5,71.7c0,9.2-0.1,18.5,0,27.7c0,2.7-1,3.4-3.6,3.2c-3-0.2-6-0.3-8.9,0c-2.9,0.3-3.7-0.7-3.6-3.5
			c0.1-17.2,0-34.5,0-51.7c0-0.4,0-0.8,0-1.2c0.1-7.1-0.8-5.7,5.9-6c3.1-0.1,6.1,0.4,9.2,0.9c1.4,0.2,0.8,1.3,0.8,1.9
			c0.1,4.9,0.1,9.8,0.1,14.7C332.5,62.4,332.4,67.1,332.5,71.7C332.5,71.7,332.5,71.7,332.5,71.7z"/>
		<path class="st3" d="M328.6,38c-2.3-0.6-3.6-3-5.8-3.1c-2.2,0-3.5,2.5-5.9,3c0.1-0.7,0.1-1.1,0.3-1.5c1.6-3.7,1.1-6.6-2.6-8.7
			c-0.7-0.4-1.5-1.8,0-1.6c5,0.5,7.1-2.1,7.6-6.4c1,0.1,1.3,0.6,1.4,1c0.9,3.7,2.8,6,7,5.2c0.4-0.1,1.1,0.1,1.3,0.4
			c0.4,0.6-0.2,1.2-0.6,1.4c-4.3,2.1-3.8,5.5-2.6,9.2C328.7,37.2,328.6,37.6,328.6,38z"/>
		<path class="st0" d="M325.7,38.8c-2.1,0-3.9,0-5.8,0C322.5,35.9,322.8,35.9,325.7,38.8z"/>
		<path class="st2" d="M178.2,139.4c0-7.5,0-15,0-22.6c0-1.7,0.3-2.4,2.2-2.3c3.6,0.2,7.1,0.1,10.7,0c1.7-0.1,2.4,0.4,2.3,2.2
			c-0.1,15,0,30.1,0,45.1c0,1.7-0.4,2.5-2.2,2.4c-3.6-0.1-7.1-0.1-10.7,0c-1.8,0.1-2.3-0.6-2.3-2.3
			C178.3,154.4,178.2,146.9,178.2,139.4C178.2,139.4,178.2,139.4,178.2,139.4z"/>
		<path class="st3" d="M260.6,101.9c-0.8,1-1.9,0.7-3,0.7c-3.4,0-6.8-0.1-10.1,0.1c-2.5,0.2-3-0.9-3-3.2c0-17.6,0-35.3-0.1-52.9
			c0-6.4,0.1-6.3,6.3-6.3c2.5,0,5,0,7.5,0c1.3,0,2.4,0.2,2.2,1.8C260.6,62.1,260.6,82,260.6,101.9z"/>
		<path class="st3" d="M243,24.5c2.8-1,5.4,0.2,7.3-1.2c1.9-1.3,1.2-4.2,3-5.8c1.4,1.8,1.2,4.6,3,5.9c1.7,1.2,4.1,0.3,7,1
			c-4.6,2.9-7,6.2-3.7,10.9c-1.6,0.8-2.7,0-3.1-0.5c-2.5-2.9-4.7-1.8-7,0.2c-0.5,0.5-1.3,0.6-2.9,1.3
			C249.9,30.6,248.1,27.1,243,24.5z"/>
		<path class="st0" d="M259,38.8c-3.9,0-7.6,0-11.4,0C251.8,33.8,254.3,33.8,259,38.8z"/>
		<path class="st3" d="M267.3,71.7c0-9.3,0.1-18.5,0-27.8c0-2.7,0.8-3.8,3.7-3.6c3.1,0.2,6.2,0.1,9.3,0c2,0,2.8,0.9,2.6,2.8
			c-0.1,1.5-0.8,3.7,0.6,4.2c1.7,0.7,1.8-1.8,2.6-2.9c3.4-4.4,7.8-6.5,13.4-5.7c6,0.9,9.6,4.8,10.1,11.2c0.3,3.1,0.3,6.2,0.3,9.2
			c0,13.3-0.1,26.6,0.1,39.9c0,2.9-0.8,3.6-3.6,3.5c-3.3-0.2-6.6-0.1-9.8,0c-2.2,0.1-2.9-0.7-2.9-3c0.1-13.6,0-27.2,0-40.8
			c0-1.5,0.1-2.9-0.4-4.3c-0.7-2-1.9-3.5-4.4-3.5c-2.5,0-3.9,1.4-4.6,3.6c-0.4,1.4-0.5,2.8-0.5,4.3c0,13.4-0.1,26.8,0.1,40.2
			c0,2.6-0.7,3.7-3.4,3.6c-3.4-0.1-6.8-0.1-10.1,0c-2.2,0.1-2.8-0.8-2.8-2.9c0.1-9.4,0-18.7,0-28.1
			C267.4,71.7,267.4,71.7,267.3,71.7z"/>
		<path class="st3" d="M147.1,102.4c-0.1-0.4-0.2-0.8-0.4-1.1c0.3-2.9,0.3-5.7,0-8.6c0-0.7,0-1.4,0-2c0.3-0.3,0.3-0.6,0-0.9
			c0-0.6,0-1.3,0-1.9c0,0,0,0,0,0c0-3.3,0-6.7,0-10c0.4-1.1,0.4-2.1,0-3.2c0-7,0-14,0-21c0.1,0,0.2-0.1,0.2-0.1
			c0-0.1-0.1-0.2-0.2-0.3c0-2.6,0-5.1-0.1-7.7c0.4-0.9,0.4-1.8,0-2.7c0-0.6,0.1-1.3,0.1-1.9c4.6-0.8,9.2,0.1,13.8-0.5
			c1.2,0.1,1.4,0.9,1.4,1.8c0,0.9-0.2,1.7,0,2.6c0.1,1-0.5,2.4,0.8,2.7c1.1,0.3,1.4-1.1,1.9-1.9c2.1-3.4,5-5.9,9-6.7
			c7.4-1.3,13.8,1.8,14.6,12c1.4,16.7,0.3,33.5,0.7,50.2c0,0.3-0.1,0.6-0.1,0.8c-4.2,0.7-8.5-0.3-12.7,0.6c-1.1,0-2.2,0.2-3.2-0.4
			c0,0,0.1-0.2,0.1-0.2s-0.2-0.2-0.2-0.2c0-6.8-0.1-13.6-0.1-20.4c0.3-7.1,0.3-14.1,0-21.2c-0.1-1.6,0-3.3-0.3-4.9
			c-0.4-2.6-2-4.1-4.6-4.3c-2.6-0.2-4,1.3-4.6,3.7c-0.6,2.3-0.5,4.6-0.5,6.9c0,12.5,0,25,0.1,37.5c0,3.9-0.1,4-4,3.5
			c-3.6-0.5-7.2,0.9-10.9,0.4c0,0-0.1-0.2-0.1-0.2l-0.2,0c-0.1-0.1-0.3-0.3-0.4-0.4c0,0-0.1-0.2-0.1-0.2L147.1,102.4z"/>
		<path class="st3" d="M43.7,59.3c0-13.2,0.1-26.4,0-39.6c0-2.7,0.7-3.8,3.6-3.7c8.9,0.3,17.7-0.3,26.6,0.5
			c3.6,0.3,7.1,0.9,10.2,2.8c5.3,3.3,6.9,8.6,7,14.4c0.2,13.6,0.2,27.2,0.2,40.8c0,4.2,0.3,8.5-0.2,12.7c-1.2,9-5.3,13.5-14.3,14.8
			c-10.3,1.5-20.6,0.5-30.9,0.7c-2.3,0-2-1.5-2-3C43.8,86.3,43.8,72.8,43.7,59.3C43.8,59.3,43.8,59.3,43.7,59.3z M61.6,34
			c-0.4,16.6-0.2,33.2,0,49.8c0,1.5-0.9,3.4,1.1,4.2c5.6,2.2,10.5-1,10.6-7.1c0.1-14.1,0.1-28.2,0-42.2c-0.1-6.7-1.7-7.9-8.4-8.1
			C62.2,30.6,61,31.3,61.6,34z"/>
		<path class="st3" d="M140.4,70.1c0,5.9,0,10.6,0,15.2c-0.1,10.6-5.4,17-15.9,18.4c-4.9,0.7-9.9,0.6-14.8-1.2
			c-7.2-2.7-10.8-7.9-11-15.3c-0.2-10.8-0.3-21.6,0-32.4c0.2-8.1,4.5-13.3,12.4-15.4c6.3-1.7,12.8-1.6,19,0.8
			c6.1,2.4,9.3,6.9,10,13.3C140.8,59.4,140.2,65.4,140.4,70.1z M124.1,71.7C124.2,71.7,124.2,71.7,124.1,71.7c0-5.3,0.1-10.6,0-15.9
			c-0.1-3.1-1.6-4.8-3.8-4.8c-4.3,0-5.7,0.9-5.7,4.6c-0.1,10.4-0.1,20.8,0.1,31.2c0.1,3.4,1.8,4.8,4.6,4.7c3.2-0.1,4.7-1.5,4.8-4.8
			C124.2,81.7,124.1,76.7,124.1,71.7z"/>
		<path class="st3" d="M352.5,36.1c1.6,8-4.5,14-7.5,21c-0.4,1-6.1,1.6-7,0.8c-0.9-0.8-0.1-1.6,0.2-2.3c1.7-3.8,3.4-7.5,5.3-11.2
			c0.9-1.8,0.4-2.3-1.5-2.4c-4.1-0.2-4.1-0.3-4.1-4.5c0-2.6,0-5.2,0-7.8c0-1.6,0.7-2.2,2.3-2.2c3.5,0,6.9,0,10.4-0.1
			c1.5,0,2.1,0.6,2,2C352.4,31.5,352.5,33.5,352.5,36.1z"/>
		<path class="st0" d="M293.6,127.9c1.4,2,1.1,4.1,1.5,6.1c0.5,3.1,0.8,6.3,1.1,9.4c0.1,1,0.8,2.4-0.4,2.8c-1.2,0.4-2.8,0.4-3.9,0
			c-1.2-0.4-0.5-1.9-0.4-2.8C292.1,138.2,292.8,133.1,293.6,127.9z"/>
		<path class="st0" d="M151,129.3c0-1.3-0.1-2.5,0-3.8c0.1-0.9-0.6-2.4,1-2.6c1.5-0.1,3.3,0.1,3.7,1.9c0.7,2.9,0.6,6-0.1,8.9
			c-0.4,1.8-2,2-3.4,1.9c-1.7-0.1-1.2-1.4-1.2-2.4C150.9,132,151,130.6,151,129.3z"/>
		<path class="st2" d="M61.6,34c-0.5-2.7,0.7-3.5,3.3-3.4c6.7,0.1,8.3,1.4,8.4,8.1c0.2,14.1,0.2,28.2,0,42.2
			c-0.1,6.1-5,9.3-10.6,7.1c-2.1-0.8-1.1-2.7-1.1-4.2c0.1-0.3,0.2-0.5,0.2-0.8C61.7,66.7,61.6,50.4,61.6,34z M71.8,59.6
			C71.8,59.6,71.8,59.6,71.8,59.6c0-7,0-14.1,0-21.1c0-4.7-0.7-5.3-5.3-6.1c-2.3-0.3-3.5,0-3.5,2.8c0.1,15.8,0.1,31.6,0.1,47.4
			c0,4.4,1.2,5.2,5.5,4.1c2.7-0.7,3.2-2.9,3.2-5.2C71.8,74.2,71.8,66.9,71.8,59.6z"/>
		<path class="st2" d="M124.1,71.7c0,5,0.1,10,0,15c-0.1,3.4-1.6,4.8-4.8,4.8c-2.8,0.1-4.5-1.3-4.6-4.7c-0.2-10.4-0.2-20.8-0.1-31.2
			c0-3.7,1.4-4.6,5.7-4.6c2.2,0,3.7,1.6,3.8,4.8C124.3,61.1,124.2,66.4,124.1,71.7C124.2,71.7,124.2,71.7,124.1,71.7z M122.8,71.4
			C122.8,71.4,122.8,71.4,122.8,71.4c0-4.9,0-9.8,0-14.7c0-2.5-0.8-4.2-3.6-4.2c-2.7,0-3.4,1.8-3.4,4.1c0,9.8,0,19.7,0,29.5
			c0,2.4,0.9,4.3,3.6,4.3c2.6,0,3.3-1.9,3.3-4.2C122.8,81.2,122.8,76.3,122.8,71.4z"/>
		<path class="st0" d="M71.8,59.6c0,7.3,0,14.7,0,22c0,2.3-0.5,4.5-3.2,5.2c-4.3,1.2-5.5,0.3-5.5-4.1c0-15.8,0-31.6-0.1-47.4
			c0-2.8,1.2-3.2,3.5-2.8c4.6,0.7,5.2,1.3,5.3,6.1C71.8,45.5,71.8,52.5,71.8,59.6C71.8,59.6,71.8,59.6,71.8,59.6z M65,59
			C65,59,65,59,65,59C65,66.5,65,74,65,81.5c0,1.1-0.5,2.7,1.6,2.7c1.6,0,2.9-0.4,3.1-2.2c0.1-1.1,0.2-2.3,0.2-3.5
			c0-13.3,0-26.6-0.1-39.8c0-1-0.1-1.9-0.2-2.9c-0.2-2.1-1.7-2.3-3.3-2.3c-2,0.1-1.3,1.6-1.3,2.6C64.9,43.8,65,51.4,65,59z"/>
		<path class="st0" d="M122.8,71.4c0,4.9,0,9.8,0,14.7c0,2.3-0.7,4.1-3.3,4.2c-2.7,0-3.6-1.8-3.6-4.3c0-9.8,0-19.7,0-29.5
			c0-2.3,0.7-4.1,3.4-4.1c2.7,0,3.6,1.7,3.6,4.2C122.7,61.5,122.8,66.5,122.8,71.4C122.8,71.4,122.8,71.4,122.8,71.4z M117.7,70.8
			C117.7,70.8,117.7,70.8,117.7,70.8c0.1,4.9,0,9.8,0.1,14.8c0,1,0.1,2.1,1.5,2c1.2-0.1,1.2-1.1,1.2-1.9c0-9.6,0-19.3,0-28.9
			c0-1-0.2-2-1.5-2.1c-1.7-0.1-1.3,1.4-1.3,2.3C117.6,61.5,117.7,66.2,117.7,70.8z"/>
	</g>
</g>
</svg>
