<?xml version="1.0" encoding="utf-8"?>
<!-- Generator: Adobe Illustrator 22.0.1, SVG Export Plug-In . SVG Version: 6.00 Build 0)  -->
<svg version="1.1" id="Layer_1" xmlns="http://www.w3.org/2000/svg" xmlns:xlink="http://www.w3.org/1999/xlink" x="0px" y="0px"
	 viewBox="0 0 287.7 165" style="enable-background:new 0 0 287.7 165;" xml:space="preserve">
<style type="text/css">
	.st0{fill:#FECA05;}
	.st1{fill:#E90202;}
	.st2{fill:#FEFCFA;}
</style>
<g id="_x39_0EuRt.tif">
	<g>
		<path class="st0" d="M177.9,53.4c0-0.1,0-0.2,0-0.3c-0.2-0.2-0.5-0.4-0.7-0.6c-5.4-4-11.3-7.3-17.4-9.9c-1-0.4-2-0.9-2.4-2
			c-0.2-0.8-0.7-1-1.4-1.2c-3.1-0.8-6.2-1.4-9.4-1.9c-10.4-1.5-20.6-1-30.5,2.5c-12.4,4.4-21.7,12.7-28.8,23.6
			c-0.3,0.4-0.9,0.9-0.7,1.4c0.3,0.6,1,0.3,1.5,0.3c20.7,0,41.3,0,62,0c0.3,0,0.5,0,0.8,0c0.7,0.1,1-0.2,1-0.9
			c0.1-1.8,0.2-3.6,0.5-5.5c0.5-4.5,4.2-7.7,8.7-7.7c1.3,0,2.6,0.3,3.9,0.4C169.4,52.3,173.6,52.9,177.9,53.4z M275.6,56.3
			c-5.3-1.8-10.7-3.5-16.2-4.9c-1.1-0.3-1.3-0.7-1-1.8c0.7-2.1,1.3-4.3,1.9-6.4c0.4-1.4,0.5-2.7-0.5-3.9c-1.1-1.2-2.5-1.1-4-0.8
			c-2.8,0.7-5.4,1.7-8.1,2.7c-5,2-9.8,4.5-14.6,6.8l-0.3,0.1c0-0.1,0.1-0.2,0.1-0.3c0.4-0.8,0.7-1.6,1.1-2.3
			c2.2-5.3,1.2-10-2.9-13.2c-4.7-3.6-10-3.6-14.6-0.1c-0.3,0.2-0.4,0.6-1,0.4c0-4-0.2-7.9-1.5-11.7c-2-6.1-5.6-10.7-12.2-12.2
			c-0.1,0-0.2-0.2-0.3-0.3h-7c-0.2,0.5-0.7,0.4-1,0.5c-7.7,2.3-12,7.6-13.4,15.4c-0.6,3.2-0.6,6.5-0.2,9.7c0.1,1.4,0.3,2.9,0.4,4.4
			c-0.9-0.1-1.3-0.6-1.9-1c-22.1-13.7-45.7-18.7-71.2-11.8c-20.9,5.7-35.8,18.5-44.1,38.7c-0.4,1-1,1-1.9,1c-13.2,0-26.4,0-39.6,0
			c-8.5,0-15.2,5.3-17.3,13.6c-0.1,0.3,0,0.7-0.4,0.9v66.2c0.4,0.2,0.4,0.7,0.5,1.1c2.2,8.1,8.9,13.3,17.2,13.3
			c71,0,141.9,0,212.9,0c9.9,0,17.6-7.6,17.6-17.6c0-23,0-46.1,0-69.1c0-2-0.3-3.9-1.1-5.8c-1.4-3.5-4-5.4-7.7-5.8
			c-0.7-0.1-1.4-0.1-2.1-0.5c11.1-0.5,22-0.2,32.9,1c2.3,0.3,3.9-0.6,4.3-2.2C278.9,58.5,277.9,57.1,275.6,56.3z M276.6,59.9
			c-0.2,0.9-0.9,1.2-1.7,1.1c-2.2-0.2-4.4-0.4-6.7-0.6c-9.9-0.8-19.8-1-29.7-0.2c-3.2,0.3-6.5,0.7-9.7,1.1c-0.4,0-0.9-0.1-1.3,0.6
			c2.9,0.4,5.7,0.8,8.5,1.2c2.4,0.3,4.7,0.7,7.1,0.9c3.1,0.3,5.2,1.9,6.2,4.8c0.6,1.6,0.9,3.3,0.9,5.1c0,23,0,45.9,0,68.9
			c0,9-6.9,15.8-15.9,15.8c-70.9,0-141.9,0-212.8,0c-9.1,0-15.9-6.8-15.9-15.9c0-19.8,0-39.6,0-59.5c0-9.1,6.5-16,15.6-16.1
			c13.3-0.1,26.5,0,39.8,0c0.7,0,1.1,0.1,1.4,0.8c0.9,2.4,2.9,3,5.1,1.6c2.2-1.4,4.5-2.8,6.7-4.3c0.7-0.5,1.2-0.5,1.7,0.3
			c0.7,1.3,2,2.3,2.4,3.8c0.4,0.3,0.8,0.6,1.2,0.9c2.4,0.6,4.1-0.2,5-2.5c0.4-0.9,1-0.8,1.7-0.8c21.8,0,43.5,0,65.3,0
			c1.6,0,2.1-0.4,2.1-2c0-1.9,0.2-3.9,0.4-5.8c0.5-4.4,4-6.9,8.4-6.3c7.1,1,14.2,1.9,21.3,2.9c-0.1-0.7-0.7-0.9-1.1-1.3
			c-6.5-5.8-13.9-10.2-21.9-13.6c-1-0.4-2.2-0.8-1.9-2.3c0.1-0.5-0.4-0.5-0.7-0.6c-16.2-4.3-32.2-5-47.8,2.3
			c-10.8,5-18.8,13-25.1,22.9c-0.9,1.4-1.7,2.9-2.6,4.3c-0.9,1.5-1.9,1.5-2.9,0.1c-1.1-1.5-2.2-3-3.3-4.6c-0.5-0.8-0.9-0.8-1.7-0.3
			c-2.6,1.7-5.2,3.3-7.8,5c-0.7,0.4-1.4,1-2.2,0.3c-0.9-0.7-0.6-1.5-0.3-2.3c4.4-11.7,11.8-21.1,21.9-28.4
			c9.3-6.7,19.8-10.5,31.1-12.1c23.4-3.3,44.4,2.8,63.5,16.1c0.7,0.5,1.2,1.1,2.2,1.4c-0.3-1.5-0.6-3-0.9-4.4c-0.8-4.6-1-9.3-0.4-14
			c1.4-9.9,11.1-16.4,20.8-13.7c4.5,1.3,7.2,4.6,9,8.7c2,4.6,2.3,9.5,2,14.5c-0.1,1.3-0.2,2.6-0.3,4.4c1.1-1.3,1.9-2.3,2.7-3.3
			c4.3-4.7,10.2-5,14.7-0.8c2.3,2.2,3,4.9,2.4,7.9c-0.6,3.1-2.4,5.6-4.2,8c-0.9,1.1-1.9,2.1-2.6,3.3c0.6,0.1,1-0.3,1.5-0.6
			c7.9-4.2,15.8-8.4,24.2-11.4c1.6-0.6,3.2-1,4.8-1.4c1.6-0.4,2.3,0.5,1.9,2.1c-0.8,2.9-1.6,5.8-2.5,8.6c-0.3,1.1-0.2,1.5,1,1.8
			c5.9,1.4,11.7,3.3,17.5,5.2c0.3,0.1,0.6,0.2,0.9,0.3C276.4,58.5,276.8,59,276.6,59.9z"/>
		<path class="st1" d="M79.6,70.5c1.2,1.9,1.6,3.9,1.3,6.1c-0.5,3.7-3.3,5.9-7.5,5.8c-3.9-0.1-6.7-2.4-7-6c-0.2-2.7,0.2-5.1,2.6-6.7
			c2.6-1.7,5.4-1.7,8.3-0.6c0.4,0.1,0.7,0.3,1.1,0.5C78.8,69.8,79.2,70.1,79.6,70.5z"/>
		<path class="st2" d="M233.2,48.1c-0.1,0-0.2,0-0.3,0.1c0-0.1,0.1-0.2,0.1-0.3C233,47.9,233.1,48,233.2,48.1z"/>
		<path class="st0" d="M179.4,87.6c-2.5-0.3-5-0.7-7.4-1c0.1-1.4,0.2-2.8,0.4-4.2c0.6-5.9,1-11.7,1.6-17.6c0.2-2.8,0.5-5.7,0.8-8.5
			c4.4,0.5,8.8,1.1,13.2,1.6c3.4,0.5,6.7,1.2,10.1,1.2c2.8,0.7,5.7,1,8.6,1.2c0.6,0.2,1.1,0.3,1.7,0.3c0.7,0.1,1.5,0.2,2.2,0.3
			c1.3,0.2,2.6,0.4,3.9,0.5c0.5,0,1,0.1,1.5,0.1c1,0.4,2.1,0.4,3.1,0.3c2.3,0.8,4.7,0.7,7.1,1.2c0.4,0.1,0.9,0.2,1.3,0.3
			c-0.7,4.9-1.4,9.7-2,14.6c-1.1,8-2.1,16-3.1,23.9c-1,7.5-2,14.9-3,22.4c-12.2-1.6-24.5-3.2-36.7-4.9c-4.9-0.7-9.8-1.3-14.6-2
			c1.2-9.1,2.4-18.2,3.6-27.4c1.6-0.3,3.3-0.5,4.9-0.8c2.5,3,4.9,6,7.5,8.8c1.6,1.7,2.5,3.3,0.7,5.4c-0.1,0.1,0,0.3,0,0.5
			c2.9,0,5.9,0,8.8,0c0.9,0,1.2,0.2,1,1.1c-0.4,1.9-0.7,3.9-1,5.8c-0.4,2.4-0.4,2.3,2,2.6c1.1,0.1,1.3-0.3,1.4-1.2
			c0.2-2.1,0.5-4.2,0.6-6.4c0.1-1.2,0.5-1.4,1.6-1c2.2,0.8,4.4,1.4,6.5,2c1.7,0.5,1.8,0.4,1.4-1.3c-0.4-1.4,0-2.1,1.2-3
			c2.9-2.3,6.2-4.1,9.2-6.3c1.8-1.3,1.9-1.4,0-2.7c-0.9-0.6-1-1.1-0.7-2.1c0.5-1.4,0.7-2.9,1.2-4.2c0.5-1.3,0.3-1.9-1.2-1.8
			c-1.1,0.1-2.2-0.2-3.3-0.1c-1.3,0.1-2.1-0.4-2.5-1.7c-0.4-1.5-1.1-1.2-1.9-0.3c-1.4,1.4-2.8,2.7-4.2,4c1-4.6,2.8-8.7,4.3-13.2
			c-1.3,0.2-2.5,0.2-3.5,0.5c-1.1,0.3-1.4-0.2-1.7-1.1c-0.6-1.8-1.3-3.5-1.9-5.3c-0.1-0.4-0.1-1-0.6-1.1c-0.4-0.1-0.6,0.5-0.8,0.8
			c-0.7,0.9-1.3,1.8-2,2.7c-0.7,1-1.3,2.3-2.3,2.8c-1.1,0.6-2.2-0.7-3.3-1.2c-0.9-0.4-1.1-0.2-1,0.7c0.3,3.1,0.5,6.3,0.7,9.4
			c0.1,1.1,0,2.1,0,3.6c-1.2-1.9-2.1-3.5-3-5c-1.1-1.8-1.1-1.8-2.4-0.3c-0.7,0.9-1.4,1.1-2.5,0.8c-1.4-0.4-2.8-0.7-4.1-1.1
			c-0.9-0.3-1.1,0.1-1,0.9C179.4,83.3,179.4,85.5,179.4,87.6z"/>
		<path class="st1" d="M214.4,61.5c-1.3-0.2-2.6-0.4-3.9-0.5c0.5-0.4,1-0.8,1.5-1.2c2.9-2.2,5.7-4.5,7.9-7.5
			c0.8-1.1,1.5-2.2,1.6-3.6c0.1-1.2-0.4-2.2-1.4-2.9c-1-0.6-1.9-0.1-2.7,0.4c-1.4,0.8-2.4,2.1-3.3,3.3c-2.5,3.4-4.3,7.2-5.9,11.1
			c-0.6,0.1-1.1-0.1-1.7-0.3c0.7-7.5,1-15.1,0.2-22.7c-0.5-4.7-1.4-9.2-3.7-13.4c-1.6-2.8-3.7-5-6.9-5.8c-2.4-0.6-4.8-0.4-7.5,0.5
			c2.8,0.8,5.2,1.8,7.3,3.3c1.2,0.9,2.1,2,2.6,3.5c0.2,0.6,0.3,1-0.6,1.2c-4.1,0.9-6,3.7-6.5,7.6c-0.6,4.6,0.7,9,2.1,13.3
			c1.2,3.9,3.2,7.4,4.5,11.2c-3.4,0-6.8-0.8-10.1-1.2c-4.3-4.9-9.5-8.7-15-12.2c-3.4-2.1-7.1-4-10.7-5.7c4,0.4,7.9,1.8,11.8,2.8
			c0.2-0.4-0.1-0.5-0.2-0.5c-12.7-5.6-26-9-40-8.6c-13.4,0.4-25.5,4.5-35.9,13.1C91.3,52.2,86.2,58.7,82,66c-0.7,1.2-1,1.4-1.8,0.1
			c-1-1.5-2.2-2.9-3.2-4.5c-0.7-1-1.1-1.2-2.2-0.5c-2.9,2-6,3.8-9.1,5.8c-0.2-0.7,0.1-1.2,0.3-1.6c4.8-12.4,13-22,24.3-29.1
			c7-4.4,14.6-7.1,22.6-8.7c7.7-1.5,15.5-2.1,23.3-1.5c6.6,0.5,13,2.3,19.4,4.3c11.1,3.5,21.2,8.8,29.8,16.7c0.1,0.1,0.2,0,0.4,0.1
			c0.3-0.6-0.1-1-0.3-1.5c-2.4-7-3.2-14.1-2.2-21.5c1.3-8.9,11.3-14.9,19.7-11.8c3.1,1.1,5.1,3.4,6.6,6.2c1.9,3.4,2.5,7.2,2.6,11
			c0.3,6.2-1.1,12.1-2.2,18.1c-0.1,0.4-0.4,0.9,0.1,1c0.5,0.1,0.5-0.5,0.6-0.8c1-2.8,2.1-5.6,3.7-8.2c0.9-1.6,2-3.1,3.3-4.3
			c3.7-3.5,8.3-3.5,12,0c2,1.9,2.5,4.2,1.9,6.8c-0.6,2.6-2,4.8-3.6,6.8c-3.3,4.2-7.3,7.5-11.5,10.8
			C215.8,60.4,215.1,60.9,214.4,61.5z M186,47.4c0,0-0.1-0.1-0.1-0.1c0,0.1-0.1,0.1-0.1,0.2c0,0,0.1,0.1,0.1,0.1
			C185.9,47.5,186,47.5,186,47.4z"/>
		<path class="st1" d="M58.6,86.2c-4.4-2.8-9-4-13.9-4.2c-2.8-0.1-5.6,0.3-8.2,1.4c-5.2,2.1-8.1,5.9-8.8,11.4
			c-0.4,3.7-0.2,7.3,1.7,10.7c3.3,5.9,8.7,7.3,14.9,7.2c0.4,0,0.7-0.1,1.1-0.1c1.1,0,1.4-0.4,1.4-1.6c-0.1-5,0-10.1,0-15.1
			c0-1,0.1-1.4,1.3-1.4c3.6,0.1,7.1,0.1,10.7,0c1,0,1.3,0.3,1.3,1.3c0,8.1,0,16.2,0,24.2c0,0.7-0.1,1.2-0.9,1.5
			c-9.4,3.5-19,4.5-28.6,1.2c-10.2-3.5-16.5-12-17.2-23.1c-0.4-7.3,0.8-14.2,5.5-20.1c4.5-5.6,10.6-8.4,17.6-9.4
			c7.2-1.1,14.2-0.2,21,2.3c0.9,0.3,1.3,0.7,1.3,1.8C58.5,78.2,58.6,82,58.6,86.2z"/>
		<path class="st1" d="M219.3,124.3c1-7.5,2-14.9,3-22.4c1.1-8,2.1-16,3.1-23.9c0.6-4.9,1.3-9.7,2-14.6c2.2,0.1,4.3,0.7,6.4,0.9
			c2.9,0.3,5.8,0.8,8.8,1c1,0.1,1.9,0.3,2.8,0.7c2.5,1.2,3.5,3.5,2.7,6.1c-2,6.5-4,13-6.1,19.5c-0.7,2.1-2,3.6-4.4,3.7
			c-1,0-1,0.7-1.1,1.3c-1.9,8.1-3.8,16.2-5.7,24.3c-0.8,3.4-2.6,4.7-6,4.2C223,124.9,221.1,124.6,219.3,124.3z"/>
		<path class="st1" d="M115.6,81.6c-1.5-0.5-2.8-1-4.2-1.2c-1.2-0.2-2.4-0.1-3.6,0.3c-2.6,0.8-4.1,3.8-3.2,6.4
			c0.2,0.6,0.7,0.4,1.1,0.4c2.4,0,4.9,0,7.3,0c0.9,0,1.2,0.2,1.2,1.2c-0.1,2.7-0.1,5.5,0,8.2c0,1-0.3,1.2-1.2,1.2
			c-2.2-0.1-4.4,0-6.6,0c-2.2,0-1.9-0.3-1.9,2c0,7.3-0.1,14.6,0,21.9c0,1.5-0.5,1.7-1.8,1.7c-3.2-0.1-6.4-0.1-9.6,0
			c-1.2,0-1.5-0.3-1.5-1.5c0.1-7.5,0-15,0.1-22.6c0-1.2-0.3-1.7-1.6-1.6c-1.1,0.1-2.2,0-3.4,0c-0.8,0-1.1-0.2-1.1-1
			c0-2.8,0-5.7,0-8.5c0-0.8,0.3-1.1,1.1-1c1.3,0,2.5,0,3.8,0c0.9,0,1.1-0.3,1.1-1.1c0-1.7-0.1-3.5,0.2-5.2
			c1.1-6.6,5.3-10.5,12.1-11.2c3.5-0.4,7-0.1,10.4,0.9c0.5,0.1,1.2,0.1,1.1,0.9C115.6,75,115.6,78.2,115.6,81.6z"/>
		<path class="st1" d="M179.4,87.6c0-2.1,0-4.2-0.1-6.4c0-0.8,0.1-1.1,1-0.9c1.4,0.4,2.8,0.6,4.1,1.1c1.1,0.3,1.8,0.1,2.5-0.8
			c1.3-1.5,1.3-1.5,2.4,0.3c0.9,1.6,1.9,3.1,3,5c0-1.5,0.1-2.6,0-3.6c-0.2-3.1-0.4-6.3-0.7-9.4c-0.1-0.9,0.1-1.1,1-0.7
			c1.1,0.5,2.2,1.7,3.3,1.2c1-0.5,1.5-1.8,2.3-2.8c0.7-0.9,1.3-1.8,2-2.7c0.2-0.3,0.4-0.9,0.8-0.8c0.5,0.1,0.5,0.7,0.6,1.1
			c0.7,1.8,1.3,3.5,1.9,5.3c0.3,0.9,0.7,1.4,1.7,1.1c1.1-0.3,2.2-0.3,3.5-0.5c-1.5,4.5-3.3,8.6-4.3,13.2c1.4-1.3,2.9-2.6,4.2-4
			c0.9-0.9,1.5-1.2,1.9,0.3c0.4,1.3,1.2,1.7,2.5,1.7c1.1-0.1,2.2,0.2,3.3,0.1c1.5-0.1,1.7,0.5,1.2,1.8c-0.5,1.4-0.7,2.8-1.2,4.2
			c-0.3,1-0.2,1.5,0.7,2.1c1.9,1.4,1.8,1.4,0,2.7c-3,2.2-6.3,4-9.2,6.3c-1.1,0.9-1.5,1.7-1.2,3c0.5,1.7,0.3,1.8-1.4,1.3
			c-2.2-0.7-4.4-1.3-6.5-2c-1.2-0.4-1.5-0.1-1.6,1c-0.2,2.1-0.5,4.2-0.6,6.4c-0.1,0.9-0.3,1.4-1.4,1.2c-2.4-0.2-2.4-0.2-2-2.6
			c0.3-1.9,0.6-3.9,1-5.8c0.2-0.9-0.1-1.1-1-1.1c-2.9,0-5.9,0-8.8,0c0-0.2-0.1-0.4,0-0.5c1.9-2.1,0.9-3.6-0.7-5.4
			c-2.6-2.8-5-5.9-7.5-8.8C177.1,88.2,178.7,88.7,179.4,87.6z"/>
		<path class="st1" d="M121.7,106.6c0-2.4-0.1-4.9,0-7.3c0-1-0.3-1.3-1.3-1.3c-1.2,0.1-2.3,0-3.5,0c-0.7,0-1-0.2-1-1
			c0-2.8,0-5.7,0-8.5c0-0.8,0.2-1.1,1-1.1c1.1,0.1,2.2,0,3.4,0c1,0.1,1.4-0.2,1.4-1.3c-0.1-2.4,0-4.9-0.1-7.3
			c-0.1-1.2,0.3-1.7,1.5-1.9c3.3-0.7,6.5-1.4,9.8-2.3c1.3-0.3,1.7-0.2,1.6,1.2c-0.1,3.5,0,6.9-0.1,10.4c0,1,0.3,1.3,1.3,1.3
			c2.5-0.1,5,0,7.5,0c0.8,0,1.1,0.2,1,1c0,2.8,0,5.7,0,8.5c0,0.8-0.3,1-1,1c-2.5,0-5.1,0-7.6,0c-0.9,0-1.1,0.2-1.1,1.1
			c0,3.6,0,7.2,0,10.8c0,2.6,1.4,4,4,4.2c1.8,0.1,3.6,0,5.3-0.5c0.9-0.3,1.3-0.2,1.2,0.9c-0.1,2.6,0,5.2,0,7.8
			c0,0.7-0.2,1.1-0.9,1.3c-4.7,1.3-9.4,1.7-14.2,0.5c-5.1-1.3-8.4-5.6-8.3-10.8C121.7,111,121.7,108.8,121.7,106.6z"/>
		<path class="st0" d="M43.5,142.6c-1.6,2.5-3.3,5-4.9,7.5c-1.1,1.7-4.6,1.7-5.6,0c-1.6-2.5-3.3-5-4.9-7.6c-0.4,0.5-0.2,1-0.2,1.4
			c0,3.9,0,7.7,0,11.6c0,1-0.2,1.4-1.3,1.3c-1.7-0.1-3.4-0.1-5,0c-0.9,0-1.1-0.3-1.1-1.2c0-8.5,0-17,0-25.4c0-0.9,0.2-1.3,1.2-1.2
			c0,0,0.1,0,0.2,0c1.8,0,3.9-0.5,5.4,0.2c1.5,0.7,2.1,2.8,3.1,4.4c1.8,2.7,3.5,5.4,5.3,8.1c0.6,0,0.7-0.5,0.9-0.8
			c2.4-3.6,4.7-7.2,7-10.9c0.5-0.8,1-1.1,2-1.1c1.5,0.1,3,0.1,4.6,0c0.8,0,1.2,0.2,1.2,1.1c0,8.5,0,17.1,0,25.6
			c0,0.9-0.3,1.1-1.1,1.1c-1.6-0.1-3.3-0.1-4.9,0c-1.1,0.1-1.4-0.3-1.4-1.4c0.1-3.8,0-7.5,0-11.3c0-0.5,0-1,0-1.5
			C43.7,142.6,43.6,142.6,43.5,142.6z"/>
		<path class="st1" d="M174.7,56.3c-0.3,2.8-0.5,5.7-0.8,8.5c-0.5,5.9-1,11.7-1.6,17.6c-0.1,1.4-0.3,2.8-0.4,4.2
			c-4.2-0.5-8.4-1-12.5-1.6c-3.4-0.5-5-2.5-4.9-6c0.3-6.4,0.6-12.9,0.9-19.3c0.2-3.1,2.8-5.6,5.9-5.2
			C165.9,55,170.3,55.7,174.7,56.3z"/>
		<path class="st0" d="M123.3,147.7c-0.6-0.7-0.6-1.1,0.3-1.6c1.6-0.8,2.8-2.1,3.5-3.7c2.6-6.1-0.6-12.2-7.2-13.1
			c-4.7-0.7-9.5-0.2-14.3-0.3c-1,0-0.9,0.6-0.9,1.2c0,8.5,0,17,0,25.4c0,0.8,0.2,1.2,1.1,1.2c1.7-0.1,3.5-0.1,5.2,0
			c1,0,1.2-0.3,1.2-1.2c-0.1-2.2,0-4.5,0-6.7c0-0.4-0.1-0.8,0.3-1.1c0.7-0.4,2.8,0.1,3.3,0.8c1.8,2.4,3.6,4.9,5.4,7.4
			c0.3,0.4,0.5,0.9,1.1,0.9c2.5,0,4.9,0,7.8,0C127.7,153.5,125.6,150.6,123.3,147.7z M117.3,141.7c-1.3,0.1-2.6,0-4,0.1
			c-1,0.1-1.2-0.4-1.2-1.3c0.1-0.7,0-1.3,0-2c0-3.2,0-3.2,3.2-3.2c0.6,0,1.2,0,1.8,0c2,0.1,3.1,1.2,3.1,3
			C120.3,140.4,119.3,141.6,117.3,141.7z"/>
		<path class="st1" d="M67.3,105.4c0-5.5,0-11.1,0-16.6c0-1.1,0.3-1.4,1.4-1.4c3.4,0.1,6.8,0.1,10.2,0c0.9,0,1.3,0.2,1.3,1.2
			c0,11.2,0,22.5,0,33.7c0,1-0.3,1.3-1.3,1.3c-3.5-0.1-6.9-0.1-10.4,0c-1.1,0-1.2-0.4-1.2-1.3C67.3,116.7,67.3,111,67.3,105.4z"/>
		<path class="st0" d="M167.8,156.8c-2.7,0-5.2,0-7.6,0c-0.6,0-0.8-0.6-1.1-1c-1.8-2.9-3.6-5.8-5.4-8.6c-0.6-0.9-2.9-1.5-3.7-1
			c-0.5,0.3-0.3,0.8-0.3,1.2c0,2.6-0.1,5.3,0,7.9c0,1.1-0.2,1.6-1.4,1.5c-1.7-0.1-3.4-0.1-5,0c-0.8,0-1.1-0.3-1.1-1.1
			c0-8.6,0-17.2,0-25.7c0-0.8,0.4-1,1.1-1c1.7,0,3.5,0.1,5.2,0c0.9,0,1.2,0.3,1.2,1.2c-0.1,2.6,0,5.3,0,7.9c0,1,0.3,1.3,1.3,1.4
			c1.6,0.1,2.5-0.4,3.2-1.8c1.4-2.6,3-5.1,4.5-7.6c0.5-0.8,1-1.2,1.9-1.1c2.2,0.1,4.4,0,6.9,0c-0.5,0.9-0.9,1.5-1.3,2.1
			c-2.2,3.5-4.4,6.9-6.7,10.4c-0.5,0.8-0.5,1.4,0,2.2c2.5,3.9,5,7.8,7.5,11.7C167.2,155.7,167.5,156.1,167.8,156.8z"/>
		<path class="st0" d="M179.5,142.9c0-4.2,0-8.3,0-12.5c0-1,0.1-1.4,1.3-1.4c5.8,0.1,11.7,0,17.5,0c1,0,1.2,0.3,1.2,1.2
			c-0.1,1.4-0.1,2.7,0,4.1c0,0.9-0.3,1.1-1.2,1.1c-3.4,0-6.7,0-10.1,0c-1.2,0-1.5,0.3-1.4,1.4c0.1,2.8,0,2.8,2.8,2.8
			c2.4,0,4.9,0,7.3,0c0.9,0,1.4,0.2,1.3,1.2c-0.1,1.3-0.1,2.5,0,3.8c0.1,1-0.4,1.3-1.3,1.3c-2.9-0.1-5.9,0-8.8,0
			c-1,0-1.3,0.3-1.3,1.3c0,3.2,0,3.2,3.1,3.2c2.8,0,5.6,0,8.4,0c1,0,1.5,0.2,1.4,1.3c-0.1,1.4-0.1,2.7,0,4.1c0,0.7-0.2,1-1,1
			c-6.1,0-12.2,0-18.3,0c-1,0-1-0.5-1-1.3C179.6,151.3,179.5,147.1,179.5,142.9z"/>
		<path class="st0" d="M92.3,155.3c-3-7.5-6-15.1-8.9-22.7c-1.4-3.7-1.4-3.7-5.4-3.7c-0.7,0-1.4,0.1-2.1,0c-1.5-0.2-2.1,0.5-2.6,1.8
			c-2.8,7.4-5.8,14.7-8.6,22.1c-0.5,1.2-1.7,2.8-1.2,3.6c0.7,0.9,2.5,0.3,3.9,0.3c3.3,0,3.3,0,4.4-3.1c0.3-0.9,0.8-1.3,1.8-1.2
			c2.2,0.1,4.4,0,6.5,0c3.5,0,3.6,0,4.8,3.3c0.3,0.8,0.7,1.1,1.5,1.1c1.6-0.1,3.3-0.1,4.9,0C92.6,156.9,92.8,156.6,92.3,155.3z
			 M74.4,146.4c1.2-3.3,2.3-6.6,3.5-9.9c1.2,3.3,2.3,6.6,3.5,9.9H74.4z"/>
		<path class="st1" d="M219,61.9c-1.1,0-2.1,0.1-3.1-0.3c7.1-4.4,14.4-8.4,21.8-12.2c4.8-2.4,9.7-4.8,14.8-6.5
			c1.5-0.5,3.1-1.1,4.9-1.4c-0.9,3.1-1.8,6.1-2.7,9.1c-0.8,2.7-0.8,2.7,1.9,3.3c5.3,1.3,10.6,3,15.8,4.7c0.3,0.1,1,0.1,0.8,0.7
			c-0.1,0.3-0.5,0.2-0.8,0.2c-4.4-0.9-9-1-13.5-1.1c-12.2-0.4-24.4-0.1-36.4,2.7C221.3,61.3,220.2,61.6,219,61.9z"/>
		<path class="st1" d="M171.6,90c-1.2,9.1-2.4,18.2-3.6,27.4c-2.1-0.2-4.1-0.4-6.2-0.8c-2.5-0.4-4-2.1-4-4.6
			c-0.2-6.4-0.2-12.8-0.4-19.2c0-0.5-0.1-1,0.6-1.1C162.5,91.2,167.1,90.6,171.6,90z"/>
		<path class="st0" d="M224.2,129c3.4,0,6.8,0,10.2,0c1,0,1.4,0.2,1.3,1.3c-0.1,1.4-0.1,2.8,0,4.3c0,0.9-0.3,1.2-1.1,1.1
			c-1.6,0-3.3,0.1-4.9,0c-1.4-0.1-1.9,0.3-1.9,1.8c0.1,5.9,0,11.9,0.1,17.8c0,1.3-0.4,1.7-1.6,1.6c-1.5-0.1-2.9-0.1-4.4,0
			c-1.1,0.1-1.4-0.3-1.4-1.4c0-6,0-12.1,0.1-18.1c0-1.3-0.3-1.8-1.7-1.7c-1.7,0.1-3.4,0-5,0c-0.9,0-1.3-0.2-1.2-1.2
			c0.1-1.4,0.1-2.8,0-4.3c0-0.9,0.3-1.2,1.2-1.2C217.3,129,220.7,129,224.2,129z"/>
		<path class="st0" d="M226.3,53.7c0,0.1-0.1,0.1-0.1,0.2C226.2,53.8,226.2,53.8,226.3,53.7C226.2,53.7,226.3,53.7,226.3,53.7
			C226.3,53.7,226.3,53.7,226.3,53.7z"/>
		<path class="st2" d="M186,47.4c0,0.1-0.1,0.1-0.1,0.2c0,0-0.1-0.1-0.1-0.1c0-0.1,0.1-0.1,0.1-0.2C185.9,47.3,186,47.3,186,47.4z"
			/>
	</g>
</g>
</svg>
