<?xml version="1.0" encoding="utf-8"?>
<!-- Generator: Adobe Illustrator 22.0.1, SVG Export Plug-In . SVG Version: 6.00 Build 0)  -->
<svg version="1.1" id="Layer_1" xmlns="http://www.w3.org/2000/svg" xmlns:xlink="http://www.w3.org/1999/xlink" x="0px" y="0px"
	 viewBox="0 0 329.4 142.5" style="enable-background:new 0 0 329.4 142.5;" xml:space="preserve">
<style type="text/css">
	.st0{fill:#8AC732;}
	.st1{fill:#8AC632;}
	.st2{fill:#8AC533;}
	.st3{fill:#A7A7A7;}
</style>
<g id="Uamljt_1_">
	<g>
		<path d="M59.8,7.1c-4.5,0-8.6,1.2-12.7,2.9c-10.4,4.4-18.9,11.4-26.8,19.2C14.4,34.9,8.8,41,4.6,48.1c-1.3,2.2-2.5,4.5,0,6.6
			c2.6,2.2,4.8,0.9,6.9-0.9c1.7-1.4,3.2-2.9,4.8-4.5c4.8-5,10-10,12.8-16.3c1.8-4,3.9-6.8,7.6-8.9c0.7,1.7-0.4,2.9-0.9,4.1
			C28.7,45.9,22,63.6,17.2,82.1c-1.4,5.3-3.1,10.7-3,16.3c0,1.1-0.1,2.5,1.3,3c1.4,0.5,2.5-0.3,3.4-1.2c2.5-2.5,3.3-5.8,3.8-9.1
			c1.8-12.2,7-23.3,10.7-35.4c2.2,3.2,4.9,4.7,8.3,4.9c3.5,0.1,6.6-1.2,9.6-2.5c1.1-0.5,2.2-1.4,3.5-0.7c0.3-0.1,0.6-0.3,0.7-0.6
			c0.3-1.6,1.8-2.1,2.8-3c10-8.3,16.4-18.5,16.5-31.8C74.9,12.5,69.1,7.1,59.8,7.1z M69.3,19c-0.5,12.7-13.5,30.5-25.5,34.8
			c-1.2,0.4-2.5,0.7-3.7,1c-1.1,0.2-2.7-0.2-2.4-1.2c1-3.2-1.6-6.3,0.2-9.7c3.3-6.3,5.9-13.1,8.7-19.6c0.6-1.4,1.8-2.9,0.7-4.3
			c-2-2.4-0.4-3.2,1.4-4.1c3.8-1.9,7.6-3.7,11.8-4.4C66.4,10.4,69.5,13.2,69.3,19z"/>
		<path d="M97.9,25.6c-1-1.4-2.6-1.6-4.2-1.6c-1.9,0-2.5,1.7-3.2,3c-4.1,6.8-7.6,14-10.8,21.3c-1.6,3.6-3.1,6.6-7.7,6.5
			c-1.3,0-2.8,0.6-2.4,2.3c0.3,1.6,1.8,1.2,2.9,1c2.5-0.5,2.7,0.2,1.9,2.5c-2.6,8.6-8.1,15.1-14.6,20.8c-1.1,1-2.6,1.7-3.9,2.3
			c-1.4,0.7-2.5,0.2-3.2-1.2c-1.4-2.7-0.1-7,2.6-8.6c4-2.4,7.9-4.8,10.8-8.6c1.5-2,2.7-4.6,0.1-6.4c-3.1-2.1-6.4-4.5-10.6-2.3
			c-0.2,0.2-0.5,0.4-0.7,0.6c-0.8,1-1.6,1.9-2.4,2.9c-4.7,5.9-7.7,12.5-6.9,20.3c0.7,6.8,6.3,10,12.6,7.4c2.7-1.1,4.8-2.9,6.8-4.9
			c1.5-1.5,3.1-2.8,4.7-4.3c0.2,2.4,0.2,4.9,0.7,7.2c1.1,5.3,5.5,7.2,10.3,4.7c1.2-0.7,2.4-1.5,3.4-2.5c1.2-1.1,3-2.4,1.2-4.1
			c-1.5-1.6-2.4,0.6-3.4,1.3c-0.4,0.3-0.8,0.6-1.2,1c-1.3,1-2.8,2.2-4.5,1.5c-1.9-0.8-1.9-2.9-1.9-4.7c0-0.9,0.2-1.8,0.3-2.7
			c1.4-7.5,4.6-14.4,7.8-21.3c0.8-1.6,1.2-2.6,3.5-1.7c2,0.8,4.2-0.5,6.1-1.7c0.8-0.4,1.6-1.1,1.3-2.1c-0.3-1.1-1.2-1.7-2.3-1.6
			c-1.7,0.1-3.4,0.2-5.5,0.4c3.8-7.9,7.4-15.3,11.8-22.5C98.1,28.5,99,27.1,97.9,25.6z M56.6,64.1c1.9-1.9,3.8-3,4.3-2.6
			c0.5,0.5-0.7,2.4-2.6,4.3c-1.9,1.9-3.8,3-4.3,2.6C53.5,67.9,54.7,65.9,56.6,64.1z"/>
		<path class="st0" d="M216.4,64.4c-0.4-4.4-3-7.4-6.9-8.3c-4.1-0.9-7,1.1-9.2,4.3c-1.5,2.2-2.5,4.8-3.7,7.2
			c-0.4-1.3-0.6-2.6-1.1-3.8c-2.4-6.1-9.3-7.7-13.7-2.7c-5.5,6.3-7.2,13.9-5,22c1.7,6.2,7.7,7.4,12.3,2.9c2.8-2.8,4.6-6.2,5.7-9.9
			c2.2,0.3,0.5,2.3,1.4,3.2c0.4,3.3,1.7,6,4.9,7.2c3.1,1.2,6,0,8.1-2.3C214.1,78.5,217.1,72,216.4,64.4z M185.8,82.9
			c-2.4,2.3-3.8,1.8-4.2-1.4c-0.7-5.3-0.1-10.3,3.9-14.5c1.3-1.3,1.3-4.5,4-3.5c2.5,1,1.2,3.8,1.7,5.4
			C190.9,74.5,189.6,79.3,185.8,82.9z M206.3,80.6c-0.8,1-1.8,2-3.3,1.6c-1.4-0.3-1.4-1.7-1.7-2.8c-1.3-5.3,2.1-14.7,6.4-17.7
			c1.7-1.2,2.8-0.3,3.2,1.2c0.4,1.3,0.3,2.8,0.4,3.8C211.1,72.1,209.6,76.7,206.3,80.6z"/>
		<path class="st0" d="M161,49.5c3.8-0.6,6.9-1,10.1-1.5c2.3-0.4,4.6,0,4.8,2.5c0.2,2.7-2.5,2.7-4.5,3c-2.9,0.3-5.9,0.6-8.8,0.8
			c-2,0.2-3.1,0.9-3.6,3.2c-2.2,11.1-4.7,22.1-4.7,33.5c0,1.9,0.5,5-2.7,5c-3.2,0-4.1-2.3-4-5.4c0.5-10.2,2-20.2,4.3-30.1
			c0.3-1.2,0.5-2.4,0.8-4c-2.8,0.6-5.1,1.2-7.6,0.9c-0.8-0.1-2,0.1-2.2-1.1c-0.2-1.2,0.5-2,1.6-2.3c2.2-0.7,4.4-1.6,6.6-2
			c2.4-0.4,3.5-1.6,4.1-3.8c1.9-6.2,4.3-12.2,9.1-16.7c3.3-3.1,7.3-2.6,9.4,1.1c0.6,1.1,1.5,2.4,0.1,3.4c-1.1,0.8-2.6,0.8-3.5-0.4
			c-2.2-2.8-3.4-1-4.6,0.9C163.4,40.5,162.1,44.8,161,49.5z"/>
		<path d="M119.3,59c-1.7-0.8-2.1,0.6-2.8,1.8c-2.7,4.7-5.8,9.1-9.4,13.2c-2.1,2.4-4.5,4.6-7.4,6.2c-1.5,0.8-3.2,1.4-4.3-0.7
			c-1.5-2.7-0.2-7.1,2.5-8.6c3.9-2.3,7.7-4.8,10.6-8.3c1.4-1.7,2.7-3.6,1.3-5.9c-2.2-3.6-9-4.9-12.1-2C91.6,60,88.5,66.8,88,73.4
			c0,10.2,6.3,14.8,13.4,10.9c8.9-4.9,13.9-13.5,18.9-21.9C121,61.2,120.7,59.7,119.3,59z M99.8,61.1c1.9-1.9,3.8-3.1,4.3-2.6
			c0.5,0.5-0.7,2.4-2.6,4.3c-1.9,1.9-3.8,3-4.3,2.6C96.8,64.9,97.9,63,99.8,61.1z"/>
		<path class="st0" d="M264.6,54.4c-2-0.8-2.6,1-3.4,2.4c-1.1,1.9-2.2,3.8-3.5,6.1c-0.7-3.7-2.6-5.9-5.6-6.9c-2.3-0.7-4,0.7-5.2,2.6
			c-4.2,6.5-5.9,13.6-4.9,21.3c0.3,2.1,1.3,4,3.7,4.5c2.3,0.5,4-0.8,5.2-2.6c1.1-1.6,2.1-3.4,3.2-5.1c0.3,0.1,0.6,0.2,0.8,0.3
			c-0.3,2-0.7,4-1,6c-0.5,4.9-1.2,9.7,0.1,14.5c0.4,1.4,1.2,2.8,3,2.4c1.5-0.3,1.8-1.7,1.6-3.1c-0.7-5.5,0.4-10.8,1.5-16
			c1.6-7.5,3.5-15,5.4-22.4C265.9,56.9,266.6,55.2,264.6,54.4z M255.4,67.9c-2.1,3.8-4.3,7.6-7.9,11.4c-0.4-5.7,0.1-10.5,1.5-15.1
			c0.8-2.7,2.1-3.1,5.2-1.8C258.2,64,256.6,65.7,255.4,67.9z"/>
		<path class="st0" d="M320.3,55.5c-2.4,2.2-3.8,4.6-5.3,6.9c-4.3,6.4-8.7,12.8-15,17.5c-1.3,1-2.8,2.9-4.7,1.7
			c-1.9-1.3-1.6-3.6-1.3-5.7c0.3-1.8,1.5-2.9,2.9-3.9c3-2,6.1-3.8,8.5-6.7c2.9-3.4,3.2-6.1,0.9-8.2c-3.7-3.4-7.6-3.8-10.6-0.6
			c-4.7,5.1-7.6,11.3-8.1,18.3c-0.3,4.4,0.1,8.8,4.6,11c4.6,2.3,8.2-0.6,11.4-3.4c7.5-6.3,12.6-14.5,16.7-23.3
			C320.9,58.2,321.1,57.1,320.3,55.5z M303.4,59.9c-1.4,2.5-2.6,3.7-4.4,4.2C299.8,62.6,300.7,61.2,303.4,59.9z"/>
		<path class="st1" d="M224.1,53.7c-2.5-0.7-4.4,0.8-6.5,0.4c-1-0.2-2.3-0.1-2.3-1.5c-0.1-1,0.9-1.7,1.8-1.7
			c6.9-0.1,10-4.1,11.4-10.4c0.5-2.4,3.1-2.8,5.1-2c2.4,0.9,1.3,2.9,0.7,4.6c-0.5,1.4-1,2.8-1.5,4.3c1.9,0,3.5,0.1,5.2,0
			c1.6-0.1,2.5,0.7,2.7,2.1c0.3,1.7-1.1,2.1-2.4,2.4c-0.1,0-0.3,0-0.4,0c-2.3,0.5-5.3-1.2-6.8,1.1c-1.3,1.9-1.5,4.6-1.9,7
			c-1.4,8-3.6,15.8-3.5,24c0.1,5.6,0.1,5.6,5.4,6c0.9,0.1,1.9,0.3,2.2,1.3c0.4,1.2-0.5,1.9-1.4,2.4c-3.2,2.1-7.3,0.9-9.1-2.7
			c-2.7-5.4-2.9-11.2-2.2-17C221.3,67.2,222.2,60.5,224.1,53.7z"/>
		<path d="M128.4,83c-0.8-0.1-1.6-0.1-2.3-0.3c-1.8-0.7-4.2-1.5-3.7-3.7c0.5-2.2,2.7-1,4.3-0.7c2.5,0.5,4.2-0.7,5.5-2.7
			c1.3-1.9,1.3-3.9-0.1-5.8c-1.1-1.4-2.3-2.8-3.6-4c-4.2-4.1-5.2-9.2-3.7-14.6c1.5-5.5,5.3-8.9,10.9-10.3c3.4-0.8,9.7,2.1,11.3,5.1
			c0.6,1.2,0.7,2.3-0.3,3.1c-0.8,0.7-1.7,0.6-2.4-0.2c-3.1-3.5-6.2-2.2-9.1,0.2c-3.2,2.7-3.7,6.9-1.5,10.4c1.2,1.8,2.7,3.5,4,5.2
			c2.6,3.5,3.3,7.3,1.2,11.2C136.6,80.2,133.1,82.5,128.4,83z"/>
		<path class="st1" d="M271.3,77.4c3.5-7.1,7.1-14.2,10.6-21.3c0.6-1.2,0.8-3,2.8-2.5c1.9,0.5,1.4,2.1,1.4,3.5
			c-0.2,8.7-2.8,17.2-2.6,26c0,1.8-1.1,3.4-3,3.4c-1.9,0-2.9-1.5-2.9-3.4c0-2.8,0-5.7,0.1-8.5c0.4-0.7,0.3-1.5,0.1-2.2
			c-0.3,0.2-0.5,0.5-0.8,0.8c-1.5,3.2-2.5,6.7-4.6,9.6c-1,1.3-2.1,2.4-3.7,2.2c-1.8-0.2-2.9-1.6-3.3-3.4c-1.5-7.7,0-15,3.8-21.8
			c0.7-1.3,2-2.2,3.5-1.4c1.7,0.8,1.3,2.3,0.8,3.7c-1.5,4-2.6,8-2.8,12.3C270.5,75.4,269,76.8,271.3,77.4z"/>
		<path class="st1" d="M160,87.6c1.4-8.3,2.5-16.8,4.8-25.1c0.8-2.8,2.7-3.6,5.1-1.9c1.2,0.9,1.6,0.1,2.2-0.2
			c1.3-0.6,2.5-1.4,3.9-1.3c1.2,0,2,0.6,2.3,1.7c0.3,0.9,0.1,1.8-0.9,2.3c-8.9,4.5-9.6,13.2-11.4,21.4c-0.3,1.6-0.4,3.3-1.3,4.8
			c-0.8,1.4-2.3,1.8-3.7,1.5C159.5,90.3,160.1,88.9,160,87.6z"/>
		<path class="st2" d="M231.1,81.5c0.9-8.2,2-16.2,4-24.1c0.4-1.7,0.9-3.3,3.3-2.6c2.2,0.6,2.9,2,2.4,4.1c-2.1,7.4-3.2,15.1-4,22.7
			c-0.3,2.6-1.3,4.4-3.9,4.1C230.1,85.5,231.6,82.9,231.1,81.5z"/>
		<path d="M111.6,123.2c0,1.9-0.1,3.8,0,5.8c0.1,1.6-0.7,1.9-2.1,1.9c-1.7,0-1.5-1-1.5-2c0-3.5-0.1-6.9,0-10.4
			c0-0.9-0.7-2.2,0.8-2.6c1.3-0.3,2.5-0.2,3.4,1.1c1.7,2.3,3.5,4.6,5.9,7.6c0-2.7-0.1-4.4,0-6.1c0.1-1.1-0.7-2.7,1.6-2.7
			c2.3,0,1.9,1.6,1.9,2.9c0,3.1,0.1,6.2,0,9.3c0,1,0.8,2.5-0.9,2.9c-1.5,0.4-2.6-0.3-3.5-1.6c-1.5-2.2-3.2-4.2-4.8-6.3
			C112.2,123,111.9,123.1,111.6,123.2z"/>
		<path d="M219.9,115.5c-4.4,0-7.9,3.4-8,7.7c-0.1,4.6,3.4,8,8,8c4.4,0,8-3.5,8.1-7.7C228.1,119.1,224.5,115.5,219.9,115.5z
			 M219.8,127.9c-2.7-0.2-4.2-1.8-4.2-4.5c0-2.9,1.6-4.6,4.5-4.5c2.8,0.1,4.2,1.9,4.1,4.6C224.2,126.2,222.7,127.8,219.8,127.9z"/>
		<path d="M193.9,115.5c-4.5-0.2-8.3,3.4-8.3,7.8c-0.1,4.5,3.5,8,8.2,7.9c4.4,0,7.9-3.5,8-7.8C201.8,119.2,198.4,115.7,193.9,115.5z
			 M193.3,127.9c-2.5-0.4-4-1.9-4-4.6c0-2.7,1.5-4.4,4.3-4.4c3,0,4.4,1.9,4.3,4.7C197.8,126.4,196.2,127.8,193.3,127.9z"/>
		<path d="M132.2,123.2c0-7.4,0-7.4,7.5-7.4c0.9,0,1.8,0,2.7,0c1,0,1.3,0.5,1.4,1.4c0,1-0.2,1.8-1.4,1.7c-1.5,0-3.1,0-4.6,0
			c-1,0-1.8,0.1-1.8,1.4c0,1.3,0.7,1.4,1.7,1.4c1.3,0,2.6,0,3.9,0c1.3,0,1.4,0.9,1.4,1.8c0,1.1-0.7,1.2-1.5,1.3
			c-0.8,0-1.6-0.1-2.3,0c-1.2,0.2-3.2-0.9-3.1,1.6c0.1,2.4,2.1,1,3.3,1.3c0.9,0.2,1.8,0,2.7,0c1.1,0,2-0.1,2,1.5
			c0,1.5-0.7,1.7-1.9,1.6c-0.6,0-1.3,0-1.9,0C132.2,130.9,132.2,130.9,132.2,123.2z"/>
		<path d="M252.8,123c-0.2-4.9-3.8-7.1-10.7-7.2c-6-0.1-2.1,4.4-3.2,6.5c-0.2,0.3,0,0.8,0,1.1c0,7.7,0,7.7,6.4,7.5
			C249.9,130.7,253,127.4,252.8,123z M244.4,127.8c-4.1,0.1-0.8-3.2-2.3-4.1c0.7-1.9-1.2-4.8,2.6-4.6c2.8,0.2,4.3,1.6,4.3,4.3
			C249.1,126.4,247.3,127.7,244.4,127.8z"/>
		<path d="M55.8,126c1.7-2.4,0.2-2.8-1.8-2.9c-0.3,0.7-0.4,1.8-1.6,1.6c-0.3,0-0.7-0.4-0.8-0.7c-0.3-1.2,0.7-1.3,1.5-1.6
			c1.1-1.9,1.6-3.8-0.2-5.6c-1.5-1.5-3.4-1.6-5.3-0.7c-2.3,1.1-2.6,2.9-2.1,5.1c0.2,0.9,0.2,1.5-0.7,2.3c-1.8,1.5-2.1,3.5-0.9,5.5
			c1.3,2.2,3.5,2.2,5.8,2.1c1.3-0.1,2.1-1.3,3.6-0.9c3,0.7,3.1,0.6,2.1-2.4C55.1,127,55.4,126.5,55.8,126z M48.5,128.3
			c-0.9-0.2-1.7-0.7-1.6-1.8c0.1-0.8,0.5-1.7,1.4-1.3c0.9,0.4,1.5,1.3,2.2,2C50,128.1,49.3,128.5,48.5,128.3z M49.5,121.2
			c-0.7,0.1-1-0.6-1.1-1.2c-0.1-0.9,0.3-1.4,1.2-1.6c0.7,0,1.2,0.3,1.3,1C51.1,120.4,50.5,121.1,49.5,121.2z"/>
		<path d="M125.6,25.3c-1.4,5.1-3.4,10.1-7.6,13.8c-1.2,1.1-3,2.3-4.4,0.6c-1.2-1.4,0.5-2.5,1.4-3.5c3-3.1,4.5-6.5,2.6-10.7
			c-0.9-2.1,0-3.7,1.5-5.2c1-1.1,2.2-0.6,3.2,0C124,21.4,125.8,22.6,125.6,25.3z"/>
		<path d="M164.2,123.3c0-7.6,0-7.6,7.7-7.6c0.8,0,1.5,0,2.3,0c1.2,0,1.4,0.7,1.4,1.8c0,1.1-0.4,1.7-1.6,1.6c-1.5,0-3.1,0-4.6,0
			c-1,0-1.7,0.1-1.7,1.4c0,1.3,0.8,1.4,1.8,1.4c1,0,2.1,0,3.1,0c1.3-0.1,2.2,0.1,2.1,1.8c0,1.5-0.8,1.7-2,1.6c-0.8,0-1.6,0.1-2.3,0
			c-2.2-0.3-3,0.5-2.8,2.7c0.1,1.2,0.8,2.9-1.7,2.9c-2.5-0.1-1.7-1.8-1.8-3C164.1,126.4,164.2,124.9,164.2,123.3z"/>
		<path d="M268.9,131.1c-1.8-0.1-3.5-0.4-5.1-1.3c-0.9-0.5-1.5-1.1-0.6-2.1c0.5-0.6,0.9-1.7,2.1-0.9c0.4,0.3,0.9,0.7,1.3,0.7
			c1.4,0.3,3.5,1.3,4-0.6c0.5-1.9-1.8-1.7-3-2.1c-2.3-0.7-4.5-1.5-4.5-4.4c-0.1-1.9,0.8-3.5,2.7-4.3c2.6-1.1,5-0.6,7.4,0.7
			c0.9,0.5,0.7,1.2,0.2,1.9c-0.4,0.6-0.7,1.5-1.7,1c-0.7-0.3-1.4-0.6-2.1-0.9c-1.1-0.4-2.2-0.4-2.6,0.7c-0.5,1.5,1,1.5,1.9,1.8
			c0.6,0.2,1.2,0.4,1.8,0.6c2.6,0.8,4.4,2.2,3.8,5.2C273.8,130.3,271.6,131.1,268.9,131.1z"/>
		<path d="M72.4,123.4c0-7.7,0-7.7,7.6-7.7c0.8,0,1.5,0,2.3,0c1.3-0.1,1.8,0.5,1.8,1.9c0,1.2-0.6,1.5-1.7,1.5c-1.3,0-2.6-0.1-3.9,0
			c-1,0.1-2.6-0.7-2.7,1.2c-0.1,2.2,1.7,1.4,2.8,1.5c0.8,0.1,1.5,0,2.3,0c1.2-0.1,2,0.2,2.1,1.6c0.1,1.7-0.9,1.9-2.2,1.8
			c-0.5,0-1,0.1-1.5,0c-2.5-0.4-3.9,0.3-3.5,3.2c0.2,1,0.4,2.3-1.5,2.4c-2.1,0.1-1.9-1.2-1.8-2.5C72.4,126.8,72.4,125.1,72.4,123.4z
			"/>
		<path d="M97.3,123.4c0,1.9-0.1,3.9,0,5.8c0.1,1.3-0.4,1.8-1.7,1.8c-1.3,0-1.9-0.4-1.8-1.8c0-3.9,0-7.7,0-11.6
			c0-1.3,0.6-1.8,1.9-1.8c1.4-0.1,1.8,0.6,1.7,1.9C97.3,119.5,97.3,121.4,97.3,123.4z"/>
		<path class="st0" d="M194.8,76c0-0.8,0.1-1.7,1-1.7c0.9,0,0.5,1,0.5,1.5c0.1,1.1,0,2.2,0,3.4C195,78.4,196.2,76.6,194.8,76z"/>
		<path class="st0" d="M271.3,77.4c-0.3,0.4-0.5,0.8-0.8,1.2c-0.2-0.2-0.6-0.5-0.6-0.7c0.1-1.2-0.2-2.5,0.7-3.6
			C271,75.3,270.1,76.6,271.3,77.4z"/>
		<path class="st0" d="M276.9,73.1c0.1-0.7,0.3-1.5,1.2-2c0.5,1.3,0.3,2.4-0.4,3.4C277.4,74.1,277.2,73.6,276.9,73.1z"/>
		<path class="st3" d="M18.7,39.6c-1.5,2.4-3.3,4.7-6.1,6.3C14.8,43.6,16.8,41.6,18.7,39.6z"/>
	</g>
</g>
</svg>
