<?xml version="1.0" encoding="utf-8"?>
<!-- Generator: Adobe Illustrator 22.0.1, SVG Export Plug-In . SVG Version: 6.00 Build 0)  -->
<svg version="1.1" id="Layer_1" xmlns="http://www.w3.org/2000/svg" xmlns:xlink="http://www.w3.org/1999/xlink" x="0px" y="0px"
	 viewBox="0 0 862.6 199.8" style="enable-background:new 0 0 862.6 199.8;" xml:space="preserve">
<style type="text/css">
	.st0{fill:#8BC53E;}
	.st1{fill:#535349;}
	.st2{fill:#91C54A;}
	.st3{fill:#DFF2C4;}
	.st4{fill:#A7D865;}
	.st5{fill:#53534A;}
	.st6{fill:#8BC544;}
	.st7{fill:#8EC445;}
	.st8{fill:#90C34A;}
	.st9{fill:#94C552;}
	.st10{fill:#94C452;}
	.st11{fill:#93C24F;}
	.st12{fill:#8FC63F;}
	.st13{fill:#90C54C;}
	.st14{fill:#8FC649;}
	.st15{fill:#94C456;}
	.st16{fill:#8FC44E;}
	.st17{fill:#93C646;}
	.st18{fill:#95C751;}
	.st19{fill:#93C64C;}
	.st20{fill:#9BC95C;}
	.st21{fill:#99BF59;}
	.st22{fill:#95C756;}
	.st23{fill:#E3F6C8;}
	.st24{fill:#A6C976;}
	.st25{fill:#9BC35F;}
	.st26{fill:#95C355;}
</style>
<g>
	<path class="st0" d="M273.3,95.9c1.3-0.6,2,0,1.8,1.3c-0.3,3.1-1.3,6-2.1,8.9c-0.2,0.6-0.7,0.8-1.3,1.1c-8.4,3.8-17.2,5-26.3,4.6
		c-8.9-0.4-17.2-2.5-24.7-7.3c-10.9-6.9-17.2-16.8-18.3-29.8c-0.9-10,0.5-19.7,5.3-28.7c2.9-5.4,6.8-9.8,11.8-13.4
		c0.9-0.7,1.6-1.8,2.8-2c0.4-0.3,0.7-0.8,1.3-0.7c4.4-2,8.9-3.9,13.7-4.9c1-0.2,2-0.4,3-0.6c0.4-0.3,0.8-0.4,1.2-0.4
		c1.2,0,2.3-0.1,3.5,0.3c0.9,0.4,1.7-0.2,2.4-0.7c2.3,0,4.7,0,7,0c0.9,0.4,1.8,0.4,2.6,0c0.3,0,0.6,0,0.9,0c1,0.4,2.1,0.4,3.1,0.8
		c4.9,0.9,9.6,2.3,14.2,4.5c1,0.5,1.2,0.9,1,2c-0.8,3.3-1.5,6.6-2.2,9.8c-0.1,0.6,0,1.4-0.8,1.6c-0.9,0.2-1.5-0.3-2-1
		c-3.3-4.2-7.3-7.3-12.4-9c-11-3.7-22.7,0.6-29.1,10.5c-4.2,6.5-6.1,13.8-6.7,21.4c-0.7,10.3,0.7,20.3,6.5,29.2
		c0.2,1,0.9,1.7,1.7,2.3c3.2,3,6.6,5.7,10.9,7.1c9.8,3.3,18.7,1.3,27.2-4c0.7-0.5,1.5-0.9,2.2-1.3C272.2,97.1,273.2,97,273.3,95.9z"
		/>
	<path class="st0" d="M153,72.1c-1,0.1-1.8-0.4-2.5-1c-1.6-0.3-2.6-1.3-3.5-2.6c-4.2-3.8-6.9-8.4-8-14c-0.7-3.2-0.7-6.4,0-9.7
		c1.5-7.3,5-13.2,11.5-17c2.6-1.5,5.4-2.6,8.3-3.3c0.7-0.4,1.5-0.4,2.2-0.8c4.4,0,8.8,0,13.2,0c0.2,0.8,0.9,0.8,1.5,0.9
		c3.3,0.7,6.4,1.9,9.3,3.6c1.2,0.7,1.7,1.5,1.1,3c-1.1,2.8-1.8,5.7-2.8,8.5c-0.3,0.8-0.1,1.8-1.3,2c-1.3,0.2-1.6-0.8-2-1.7
		c-1.7-3.7-4.2-6.7-8.2-8.1c-4.5-1.5-9-1.4-13.2,0.8c-7.1,3.8-7.4,13.8-0.7,19c4.4,3.4,9.5,5.4,14.3,7.9c5.6,3,11,6.2,14.5,11.6
		c6.9,10.5,4.3,25.7-5.8,33.3c-0.9,0.6-1.6,1.5-2.7,1.8c-0.9,0.6-2.3,0.2-2.6,1.6c-0.3,0.6-0.8,0.9-1.5,0.9
		c-4.5,1.6-9.1,2.7-13.9,2.9c-7.3,0.4-14.2-1.1-20.8-4.2c-1-0.5-1.5-1.1-1.1-2.4c1.3-4,2.2-8.2,3-12.4c0.1-0.8,0-1.9,1.5-2
		c1.4,0,1.4,1,1.7,1.8c3.4,10,14.3,14.6,23.9,10.1c7.5-3.5,9.4-13.6,3.6-19.6c-0.8-0.8-1.5-1.6-2.3-2.3c-0.6-1.1-1.6-1.5-2.7-1.8
		c-3-1.5-6.1-3-9.1-4.5C156.4,73.6,154.8,72.7,153,72.1z"/>
	<path class="st0" d="M26.2,36c6.2-3.7,12.7-3.2,19.3-1.4C60.3,38.5,73.5,46,86.4,53.8c4.8,2.9,9.4,6.1,14.1,9.2
		c0.6,0.4,1.3,0.7,1.6,1.4c-0.5,0.7-1.2,0.4-1.8,0.4c-16.3,0-32.5,0-48.8,0c-1.5,0-2.3-0.4-2.7-1.8c-0.1-0.6-0.4-1.1-0.7-1.6
		c-1.4-2.1-3.3-2.1-4.7,0c-0.4,0.7-0.7,1.4-1,2.2c-0.2,0.7-0.6,1.2-1.4,1.1c-3.9-0.4-7.9-0.3-11.7-1.3c-4.5-1.2-7.2-4.2-9.3-8.1
		c-0.1-0.3-0.1-0.5-0.5-0.6c0-2.5,0-5,0-7.5c0.5-0.8,0-1.9,0.8-2.7c0.7-2.7,2.3-5,4-7.1C24.9,37,25.3,36.2,26.2,36z"/>
	<path class="st0" d="M836.6,56.2c-3.4,6.4-9.2,8.1-15.8,8.4c-1.5,0.1-2.9,0.1-4.4,0.2c-1,0.1-1.7,0-1.9-1.2
		c-0.1-0.4-0.3-0.8-0.5-1.2c-0.6-1.2-1.4-2.4-2.8-2.4c-1.6,0-2.5,1.3-2.8,2.7c-0.5,2-1.6,2.3-3.5,2.3c-15.8-0.1-31.6,0-47.4-0.1
		c-0.8,0-1.7,0.3-2.7-0.4c1.9-1.9,4.2-3.1,6.4-4.6c7.9-5.4,16.1-10.2,24.5-14.8c3.9-2.1,7.9-4.3,12.2-5.6c0.6-0.3,1.3-0.3,1.8-0.8
		c0.1-0.1,0.3-0.1,0.4-0.1c0.6-0.2,1.3-0.4,1.8-0.8c5.2-2.2,10.5-3.7,16.1-4.4c4.5-0.6,8.8,0.5,12.8,2.6c1.4,0.7,2.3,1.8,3.2,3.1
		c1.1,1.8,2.2,3.6,2.8,5.6c0.6,0.6,0.4,1.5,0.8,2.2c0,2.5,0,5,0,7.5C837,54.9,837.2,55.7,836.6,56.2z"/>
	<path class="st0" d="M765.4,78.1c-1.9-1.2-3.8-2.3-5.7-3.5c-1-0.4-1.8-1-2.7-1.7c-0.8-0.7-1.5-1.3-2.7-2.3c1.4,0,2.3,0,3.2,0
		c15.9,0,31.8,0.1,47.7,0.1c1.6,0,2.6,0.2,3,2c0.4,1.4,1.3,2.8,3,2.8c1.6,0,2.5-1.3,2.8-2.7c0.5-2,1.7-2.2,3.4-2.1
		c3.1,0.2,6.1,0.3,9.1,0.9c5.1,1.1,8.6,4,10.4,9c0.1,0.2,0.3,0.4,0.5,0.6c0,2.8,0,5.6,0,8.4c-0.2,0.1-0.7,0.1-0.7,0.3
		c-0.9,4.8-3.7,8.2-8,10.3c-0.6,0.3-1.3,0.3-1.8,0.8c-3.7,1.5-7.5,0.8-11.3,0.9c-1.2-0.2-2.6,0.2-3.7-0.8
		c-5.3-1.5-10.5-3.4-15.6-5.5c-4.7-2-9.1-4.5-13.6-6.9c-5.3-3-10.7-5.9-15.7-9.4C766.8,78.4,765.9,78.5,765.4,78.1z"/>
	<path class="st0" d="M20.8,78.1c0.2-0.3,0.4-0.5,0.6-0.8c0.1-0.4,0.5-0.7,0.8-0.9c5.2-5.8,12.2-5.5,19-5.7c0.7,0,1.1,0.2,1.2,1
		c0.1,0.4,0.3,0.8,0.4,1.2c0.6,1.3,1.4,2.6,3,2.6c1.6,0,2.5-1.3,2.9-2.7c0.4-1.8,1.4-2.1,3.1-2.1c16.1,0,32.2,0,48.3,0
		c0.7,0,1.4-0.2,2.1,0.2c-0.5,1-1.7,1.1-2.2,2c-0.3,0.5-0.9,0.5-1.3,0.9l0,0c-0.2,0.6-0.9,0.6-1.3,0.9l0,0c-0.7,0.8-1.6,1.4-2.6,1.8
		c-6.1,3.6-11.9,7.5-18.1,10.9c-8.8,4.9-17.8,9.4-27.4,12.5c-1.5,0.5-3.1,0.9-4.6,1.3c-1.2,0.6-2.6,0.8-4,0.8c-0.4,0-0.9,0-1.3,0.1
		c-3.2,0.5-6.3,1.1-9.3-0.8c-1.7-0.7-3.4-1.5-4.8-2.8c-0.1-0.8-2-1.6,0.4-2.4c-2-0.5-3.5-1.2-4.3-2.8c-0.3-0.7-0.7-1.5-1-2.2
		c-0.3-0.5-0.4-1-0.8-1.3c0-2.9,0-5.9,0-8.8C20,79.9,19.8,78.8,20.8,78.1z"/>
	<path class="st1" d="M474.7,175.9c-1.1-1.3-2.9-2.6-3.1-4c-0.1-1.1,1.8-2.5,2.8-3.7c0.1-0.1,0.2-0.2,0.3-0.3
		c1.8-2.3,1.8-2.3-0.7-4.1c-1,2-2.1,3.9-3.4,5.6c-0.6,0.8-1,0.9-1.6,0.1c-1.3-1.7-2.7-3.3-4.1-4.9c-0.5-0.6-0.6-1,0.2-1.5
		c0.7-0.4,1.3-1,1.8-1.5c1.9-1.9,2.4-4.6,1.1-6.4c-1.6-2.3-6-2.9-9.1-1.2c-2.6,1.4-3.6,4.2-2.5,7.1c0.5,1.3,1.9,2.6,1.7,3.6
		c-0.3,1-2.1,1.5-3.2,2.4c-4,3.3-3.6,8.2,0.9,10.8c0.3,0.2,0.7,0.2,0.8,0.7h5.3c1.1-0.5,2.3-0.9,3.3-1.6c1.5-1,2.6-1.5,3.5,0.6
		c0.1,0.3,0.5,0.5,0.9,0.5c2.1,0,4.3,0,6.9,0C475.6,177,475.1,176.4,474.7,175.9z M461.9,155.2c0.8-0.6,1.8-0.7,2.7-0.1
		c1,0.7,1.5,1.6,1.2,2.8c-0.4,1.7-1.3,3.1-2.8,4.1c-0.9-1.3-1.8-2.5-2.1-4.1C460.7,156.8,461,155.9,461.9,155.2z M464.2,175.2
		c-0.7,0.2-1.4,0.3-1.8,0.3c-2.5-0.2-4.1-1.3-4.9-3.3c-0.8-1.8-0.3-3.4,1-4.8c0.8-0.9,1.4-1.2,2.3,0c1.3,1.8,2.6,3.5,4.1,5.1
		C466.4,174,465.8,174.7,464.2,175.2z"/>
	<path class="st1" d="M411.3,178.4c-0.2-0.7-0.9-0.6-1.4-0.8c-5.5-2-8.3-5.5-8.6-11.2c-0.3-5.6,2.6-10.5,7.7-12.7
		c4.6-2,9.4-1.9,14.1-0.3c1.6,0.5,2.5,1.3,1.5,3.1c-0.3,0.5,0,1.2-0.8,1.7c-1.8-2-3.9-3.6-6.8-3.6c-3.5-0.1-6.1,1.3-7.8,4.4
		c-2.1,3.9-2.4,8-0.9,12.1c1.5,4.1,6.1,6.1,10.3,4.8c1.1-0.3,1.5-0.8,1.5-2c-0.1-1.9,0-3.8,0-5.7c0-1,0.1-1.6,1.4-1.4
		c1.3,0.2,3.4-0.4,3.9,0.3c0.7,1,0.3,2.8,0.3,4.2c0,1.8,0.7,4-0.3,5.3c-1,1.3-3.3,1.1-5.1,1.5c-0.1,0-0.2,0.2-0.2,0.3
		C417.2,178.4,414.3,178.4,411.3,178.4z"/>
	<path class="st1" d="M215.2,178.4c-0.2-0.6-0.8-0.6-1.2-0.7c-6.4-2.4-9.2-7.1-8.4-13.9c0.7-6.1,5.1-10.5,11.4-11.3
		c3.2-0.4,6.3-0.2,9.3,1c0.5,0.2,1.3,0.2,1.2,1c-0.2,1.1-0.5,2.1-0.9,3.1c-0.2,0.4-0.6,0-0.9-0.2c-6.6-4.9-12.1-2.7-13.7,5.3
		c-0.5,2.5-0.4,5,0.3,7.4c1.7,5.7,7.5,7.8,12.7,4.7c0.7-0.4,1.1-1.1,2.1-1.1c0.2,2.3-0.7,3.8-3,4.2c-0.5,0.1-1.1-0.1-1.3,0.5
		C220.2,178.4,217.7,178.4,215.2,178.4z"/>
	<path class="st1" d="M561.3,178.4c0-0.1-0.1-0.2-0.1-0.2c-2.8-1.3-3.3-2.5-2-5.4c0.1-0.3,0.2-0.6,0.6-0.6c0.6,0.1,0.5,0.6,0.7,1
		c1.3,2.4,3.6,3.4,6.1,2.7c1.4-0.4,2.3-1.2,2.6-2.6c0.3-1.5-0.1-2.7-1.3-3.7c-1.1-1-2.5-1.5-3.8-2.1c-4.9-2.4-6.6-5.6-5.3-9.9
		c1.1-3.8,5.1-6,10-5c5,1,4.3,1.1,2.6,5.2c-0.9-0.3-1-1.2-1.5-1.8c-2-2.2-5.9-1.8-6.8,0.8c-0.6,1.8,0,3.2,1.6,4.1
		c1.5,0.9,3.1,1.7,4.6,2.5c3,1.6,5,4,4.7,7.5c-0.3,3.8-2.6,6-6.2,7.1c-0.3,0.1-0.6,0.1-0.7,0.4C565.1,178.4,563.2,178.4,561.3,178.4
		z"/>
	<path class="st2" d="M247.3,23.6c-0.6,1.4-1.3,2.3-3,1.1c-0.6-0.4-1.8-0.2-2.7-0.2c-0.2-0.8,0.7-0.5,0.9-0.9
		C244.1,23.6,245.7,23.6,247.3,23.6z"/>
	<path class="st3" d="M19.5,47.4c0-0.9,0-1.8,0-2.6"/>
	<path class="st4" d="M257,23.6c-0.9,0.8-1.8,0.6-2.6,0C255.2,23.6,256.1,23.6,257,23.6z"/>
	<path class="st0" d="M568.4,67.6c-2.3,6.2-4.4,12.5-6.3,18.8c-0.1,0.8-0.1,1.7-0.8,2.3c-2.4,6.4-4.2,12.9-6.2,19.4
		c-0.5,1.7-1.1,2.3-3.1,1.9c-2.7-0.5-5.6-0.5-8.3,0c-1.5,0.3-2-0.1-2.4-1.6c-2.5-9-5.1-18-8.3-26.8c-0.4-0.5-0.9-1-0.6-1.8
		c-1.9-6.7-4.4-13.1-6.7-19.7c-1.1-3.1-2.2-6.1-3.5-9.8c-2.1,5.7-3.9,10.9-5.8,16.1c-1.4,3.9-2.9,7.8-4.4,11.7
		c-0.9,0.5-0.9,1.4-0.9,2.3c0,0.1,0,0.2-0.1,0.3c-0.8,0.6-0.5,1.5-0.8,2.3c0,0.1,0,0.3-0.1,0.4c-0.1,0.2-0.3,0.5-0.6,0.5
		c-0.2-0.2,0-0.3-0.1-0.1c-0.1,0.1,0.1,0.3,0.1,0.4c0,0.4-0.1,0.7-0.2,1c-1.3,4.7-3.2,9.2-4.7,13.9c-1.1,3.2-2.2,6.3-3.2,9.6
		c-0.4,1.2-0.8,1.5-2,1.3c-3.1-0.5-6.3-0.6-9.4,0c-1.3,0.2-1.8-0.1-2.1-1.3c-2.2-8.1-4.4-16.2-6.7-24.3c-3.7-12.7-7.4-25.4-11.5-38
		c-0.7-0.6-0.6-1.5-0.8-2.3c-1.3-5.5-3.2-10.9-4.9-16.3c-0.6-2.1-0.6-2.2,1.7-1.9c5.3,0.6,10.6,0.5,16,0c1-0.1,2.1-0.6,2.5,1
		c1.6,6.8,3.3,13.6,5,20.4c0.4,1.1-0.3,2-0.6,2.9c0.4-0.7,0.8-0.6,1.4-0.2c0,0.3,0.1,0.5,0.1,0.8c0.1,1,0.3,1.9,0.8,2.7
		c3,10.7,5.9,21.4,8.9,32.1c0.1,0.2,0.1,0.4,0.4,1.1c3.5-9.6,6.8-18.7,10.2-27.9c1-1.3,1.3-2.9,1.7-4.4l0,0c0.4-0.8,0.8-1.5,1.2-2.3
		c0.2-0.5,0.7-0.9,1.2-0.8c0.7,0.1,0.7,0.8,0.7,1.4c0.1,1.5-0.7,2.6-1.5,3.5c2.4-1.6,2-4,1.2-6.4c-0.3-1-0.6-2-0.2-3
		c1.9-5.8,3.8-11.7,5.7-17.5c0.2-0.6,0.4-1.3,0.5-1.9c0.3-1.3,0.9-1.8,2.3-1.6c3,0.5,6,0.5,9,0c1.3-0.2,1.8,0.2,2.1,1.4
		c5.1,18.7,12.1,36.8,17.8,55.3c0.3,0.9,0.6,1.8,0.8,2.7c0.3,0.2,0.7,0.3,1-0.1c6-17.5,11.2-35.2,16.1-53c0.5-2,0.5-4.5,1.7-5.8
		c1.3-1.5,3.8,0.1,5.8-0.2c1.1-0.2,2.2,0.1,3.3-0.2c2-0.5,2.3,0,1.6,1.9c-1.9,5.1-3.8,10.1-5.6,15.2c-2.5,7-4.9,13.9-7.4,20.9
		c-0.1,0.4-0.2,0.9-0.2,1.3C569,66.1,569.1,67,568.4,67.6z"/>
	<path class="st0" d="M406.4,45.6c7.3,7.2,14.1,14.8,21.1,22.3c4.5,4.9,8.9,9.8,13.8,15.2c0-1.3,0-2,0-2.8c0-17.3,0-34.6,0-51.9
		c0-2,0.2-3,2.6-2.4c1.8,0.4,3.7,0.3,5.5-0.1c1.8-0.4,2.1,0.2,2.1,1.9c-0.1,9.5,0,19,0,28.6c0,17.2,0,34.4,0,51.6
		c0,1.7-0.4,2.1-2.2,2.3c-6.1,0.8-10.4-1.2-14.2-6.2c-4.1-5.5-9.2-10.3-13.9-15.5c-1.1-0.6-1.8-1.5-2.3-2.6
		c-6-7-12.3-13.7-18.6-20.3c-4.6-4.9-9.3-9.7-13.9-14.6c-0.7,0.5-0.5,1.1-0.5,1.7c0,18.2,0,36.5,0,54.7c0,1.9-0.4,2.6-2.4,2.4
		c-2-0.2-4-0.1-5.9,0c-1.3,0.1-1.9-0.3-1.8-1.7c0.1-1.8,0-3.5,0-5.3c0-24.8,0-49.7-0.1-74.5c0-2.1,0.5-3,2.7-2.6c0.1,0,0.3,0,0.4,0
		c3.1,0.1,6.6-1,9.3,0.4c2.6,1.3,4.3,4.2,6.4,6.5c3.7,4,7.4,8.1,11,12.1C405.7,45.2,405.9,45.6,406.4,45.6z"/>
	<path class="st0" d="M364,108.3c-6.4-15.9-12.8-31.8-19.2-47.7c-2.6-6.6-5.2-13.2-7.8-19.7c-0.3-0.5,0.1-1.3-0.7-1.6
		c0,0-0.1,0-0.1-0.1c-1.8-0.8-1-2.9-1.8-4.1c-1.1-2.8-2.2-5.6-3.1-8.4c-0.5-1.6-1.4-2-3.1-1.8c-1.8,0.3-3.7,0.2-5.5,0
		c-1.5-0.2-2,0.3-2.6,1.6c-3.7,9-7.4,18-11.1,26.9c-7.6,18.3-15.1,36.6-22.7,54.9c-0.5,1.3-0.4,1.7,1.1,1.6c2.7-0.1,5.4-0.2,8.1,0
		c1.6,0.1,2.2-0.5,2.6-1.9c2.1-7.5,5-14.7,7.5-22c0.4-1.2,0.9-1.6,2.2-1.6c8.4,0,16.7,0,25.1,0c1.6,0,2.3,0.6,2.5,2.1
		c0.2,0.8,0.5,1.5,0.9,2.2c2.5,6,4.5,12.2,6.1,18.5c0.4,0.9-0.1,2,0.9,2.7c0.6,0.6,1.4,0.4,2.1,0.4c5.8-0.6,11.7-0.7,17.5,0
		C364.7,110.4,364.6,109.6,364,108.3z M311.1,76.9c-1,0-1.5-0.3-1.2-1.4c-0.2-0.8,0.4-1.2,0.8-1.8c2.9-7.1,5.8-14.2,8.7-21.3
		c0.5-1.1,0.9-2.3,1.6-3.9c3.7,9.6,7.2,18.8,10.9,28.3L311.1,76.9z"/>
	<path class="st0" d="M658.5,108.4c-10.8-26.8-21.7-53.7-32.4-80.6c-0.9-2.3-1.8-3.6-4.5-2.9c-2.1,0.5-4.8-1-6.3,0.3
		c-1.5,1.4-1.9,4-2.8,6.1c-2.5,6-4.9,12-7.4,18.1c-0.6,1.3-0.2,3.1-1.7,4.1c-4.4,10.6-8.8,21.2-13.3,31.7
		c-3.2,7.6-6.4,15.2-9.6,22.8c-0.8,2.1-0.6,2.3,1.5,2c0.2,0,0.4-0.1,0.6-0.2c2.5,0,5-0.1,7.5,0c1.3,0.1,1.7-0.3,2.1-1.5
		c1.2-4,2.2-8,4-11.8c1.2-1.4,1-3.4,1.8-4.9c0-0.4-0.1-0.9,0.3-1.2c0.7-1.1,1.2-2.2,1.4-3.5c0-2,1-2.5,3-2.5
		c7.8,0.1,15.7,0.1,23.5,0c2.2,0,3,0.8,3.7,2.7c2.6,7,4.9,14.1,7.1,21.2c0.5,1.7,1.3,2.2,3,1.9c5.6-0.7,11.3-0.6,16.9,0
		C658.6,110.3,659.3,110.3,658.5,108.4z M624.5,76.9c-6.3,0-12.6,0-18.9,0c-1.1,0-1.7-0.2-1.2-1.5c3.5-8.7,7-17.3,10.5-26
		c0-0.1,0.2-0.2,0.6-0.4c3.4,8.8,6.6,17.5,10,26.1C626.1,76.4,626,76.9,624.5,76.9z"/>
	<path class="st0" d="M672.6,65c-4.9-9.4-9.9-18.8-14.8-28.3c-1.9-3.5-3.8-7-5.8-10.7c1.5-0.5,2.9,0.1,4.2,0.1
		c5.3,0.1,10.5,0.4,15.8-0.3c1.5-0.2,2.4,0.1,3.1,1.6c4.5,9.6,9.2,19.2,13.8,28.8c1,2,2.1,3.8,3.2,5.8c1.3-0.8,1.8-2.1,2.5-3.2
		c5.3-9.1,9.7-18.6,13.8-28.3c-0.1-0.7,0.3-1.3,0.7-1.8c0.8-2.4,2.3-3.4,5-2.8c2.7,0.5,5.5,0.1,8.7-0.3c-2,3.5-3.8,6.6-5.6,9.7
		c-5.5,9.5-11.1,19-16.3,28.7c-0.3,0.5-0.5,1.1-0.7,1.6c-0.4,0.5-0.2,1.4-0.9,1.7c-1.7,2.7-2.6,5.5-2.6,8.8c0.2,11.3,0,22.6,0,33.9
		c-1.9,0.3-3.8,0.2-5.7-0.3c-3.6-0.2-7.2-0.3-10.7,0.3c-1.8,0.3-2.1-0.3-2.1-1.9c0.1-9.7-0.1-19.4,0.1-29.2c0.1-3.1-0.5-5.7-2.2-8.2
		c-0.7-1.1-1.4-2.2-2.1-3.3C673,67,673,65.9,672.6,65z"/>
	<path class="st0" d="M94.7,48.2c-1.3-1.4-3.4-1.5-4.8-2.7c-1.1-0.1-1.8-1-2.7-1.6c-4.2-2.4-8.6-4.5-13-6.7c-6-3-11.9-5.9-18-8.7
		c-1.9-0.9-3.8-1.7-5.6-3c22.1,0,44.2,0,66.5,0c-2.3,3.1-4.4,6.3-6,9.6c-2.7,5.5-4.8,11.2-6.4,17c-0.5,1.6-0.9,1.8-2.3,0.8
		c-2-1.4-4.2-2.6-6.3-3.9C95.6,48.8,95.1,48.7,94.7,48.2z"/>
	<path class="st0" d="M805.8,26.2c-9.3,4.3-18.6,8.5-27.7,13.2c-8.1,4.2-16.2,8.5-23.6,13.7c-1.4,1-1.8,0.5-2.2-0.9
		c-2.4-8.1-5.3-15.9-9.9-23.1c-0.7-1.2-1.6-2.3-2.4-3.4c0.3-0.6,0.9-0.4,1.4-0.4c21.3,0,42.6,0,64,0c0.3,0,0.6,0,0.9,0.1
		C806.4,25.8,806.2,26,805.8,26.2z"/>
	<path class="st0" d="M54.7,107.3c5.4-2,10.5-4.7,15.7-7.2c11.1-5.4,22-11,32.2-18c1.4-1,1.7-0.3,2,0.9c1.4,5.1,3.3,10.1,5.5,15
		c0.2,0.5,0.5,0.9,0.8,1.3c0.6,0.4,0.9,1,0.9,1.7c1.2,3.1,3.2,5.7,5.1,8.4c-0.1,0.4-0.3,0.4-0.6,0.4c-21.7,0-43.4,0-65,0
		c-0.3-0.5,0.2-0.6,0.4-0.8c0.4-0.3,0.9-0.6,1.3-0.8C53.4,107.6,54,107.3,54.7,107.3z"/>
	<path class="st0" d="M795.7,104.4c3.5,1.6,6.9,3.3,10.4,4.9c0,0.1-0.1,0.3-0.1,0.4c-21.9,0-43.8,0-66.1,0c3.4-4.6,6.1-9.2,8.2-14.3
		c1.6-3.9,3-7.8,4.2-11.8c0.7-2.5,0.7-2.5,2.9-1c0.4,0.2,0.7,0.6,1,0.8c-0.1,1,0.6,0.7,1.1,0.7c6.9,3.9,13.7,8,20.6,11.8
		c5.1,2.7,10.4,4.9,15.6,7.3C794.3,103.5,795.2,103.5,795.7,104.4z"/>
	<path class="st1" d="M334,167.1c-0.5-0.8-1.1-1.4,0.5-2.1c3.3-1.3,4.8-4.2,4.1-7.3c-0.6-2.9-2.9-4.6-6.5-4.7
		c-2.8-0.1-5.6,0.1-8.3-0.1c-1.6-0.1-2.1,0.3-2.1,2c0.1,6.3,0,12.6,0,18.9c0,4.1,0,4,4,4.2c1.5,0.1,1.7-0.4,1.6-1.7
		c-0.1-3.1,0-6.2,0-9.3c1.5,1.8,2.9,3.6,3.7,5.7c1.6,4.6,4.7,6.2,9.3,5.3c0.1,0,0.1,0,0.4-0.2C338.4,174.1,336.2,170.6,334,167.1z
		 M332.6,161.8c-0.5,1.8-2,2.6-3.7,2.9c-1.1,0.2-1.6-0.2-1.5-1.4c0.1-1.2,0-2.3,0-3.5c0-0.7-0.1-1.5,0-2.2c0.1-0.8-0.7-2.1,0.6-2.5
		c1.3-0.4,2.9-0.3,3.9,0.8C333.3,157.7,333.1,159.8,332.6,161.8z"/>
	<path class="st5" d="M625.6,166.9c-0.6-0.9-0.7-1.3,0.6-1.8c3.4-1.4,4.8-4.1,4.1-7.6c-0.5-2.7-2.9-4.4-6.4-4.5
		c-2.9-0.1-5.7,0.1-8.6-0.1c-1.5-0.1-1.8,0.4-1.8,1.8c0.1,6.6,0,13.2,0,19.8c0,3.4,0,3.3,3.4,3.5c1.9,0.1,2.3-0.5,2.2-2.3
		c0-2.9-0.3-5.8,0.2-9.2c2.1,3.7,3.9,6.9,5.8,10.1c0.3,0.6,0.5,1.4,1.5,1.4c1.9,0,3.8,0,6,0C630.2,174,627.9,170.4,625.6,166.9z
		 M624.4,161.7c-0.4,1.7-1.7,2.6-3.4,3c-1.2,0.2-2,0.1-1.9-1.5c0.1-1.2,0-2.3,0-3.5c0-0.7-0.1-1.3,0-2c0.2-0.9-0.7-2.3,0.7-2.6
		c1.3-0.3,2.8-0.3,3.9,0.9C625.1,157.7,624.9,159.7,624.4,161.7z"/>
	<path class="st1" d="M389.3,169.4c0-5,0-9.9,0-14.7c0-1-0.1-1.7,1.4-1.8c1.5,0,1.6,0.7,1.6,1.8c0,7,0,13.9-0.1,20.9
		c0,0.8,0.5,2-0.5,2.3c-1.2,0.3-2.5,0.4-3.6-0.9c-3.3-3.9-6.8-7.7-10.3-11.4c-1.5-1.6-3.1-3-4.7-4.5c-0.5,0.6-0.2,1.4-0.2,2.2
		c0,4.4,0,8.8,0,13.2c0,1.1-0.3,1.5-1.5,1.5c-1.2,0-1.5-0.4-1.5-1.5c0-7,0-14.1,0-21.1c0-0.8-0.5-2.1,0.5-2.3c1.3-0.2,2.8-0.6,4,0.8
		c4.3,4.8,8.7,9.5,13.1,14.2C388,168.5,388.3,169.1,389.3,169.4z"/>
	<path class="st1" d="M520.5,158.2c-0.3-3.2-2.7-5.1-6.7-5.3c-2.9-0.1-5.7,0-8.6-0.1c-1.4-0.1-1.5,0.5-1.5,1.7c0.1,3.6,0,7.2,0,10.8
		v8.6c0,4.1,0,4,4.1,4.1c1.3,0,1.4-0.4,1.4-1.5c-0.1-2.4,0.1-4.8,0-7.3c-0.1-1.6,0.2-2.4,2.1-2.3c1.2,0.1,2.5-0.2,3.7-0.5
		C519,165.5,520.8,162.7,520.5,158.2z M514.6,161.3c-0.4,1.9-1.5,3.1-3.5,3.5c-1.3,0.2-2.2,0.1-2-1.6c0.1-1.2,0-2.3,0-3.5
		c0-0.7-0.1-1.5,0-2.2c0.1-0.8-0.5-2,0.5-2.3c1-0.3,2.2-0.3,3.2,0.3C514.3,156.4,515.2,159.1,514.6,161.3z"/>
	<path class="st1" d="M549.3,176.2c-3-7.4-6-14.7-8.9-22.1c-0.4-0.9-0.7-1.6-2-1.5c-1.2,0.1-1.8,0.4-2.2,1.5
		c-2.5,6.2-5.1,12.3-7.6,18.4c-0.7,1.7-1.6,3.4-2,5.4c1.5-0.3,3.2,0.9,3.9-1.6c1.7-5.9,1.8-5.8,8-5.9c1.8,0,2.7,0.5,3.3,2.2
		c0.5,1.8,0.5,4.3,2,5.1c1.6,0.8,3.8,0.2,5.9,0.2C549.6,177.3,549.5,176.8,549.3,176.2z M538.9,168.1c-1.7,0-3.3,0-5.3,0
		c1.2-2.9,2.2-5.4,3.3-8.2c1,2.6,1.9,4.9,2.8,7.1C540,167.7,539.7,168.1,538.9,168.1z"/>
	<path class="st1" d="M258.8,177.2c-3.1-7.9-6.3-15.7-9.4-23.6c-0.5-1.2-1.3-0.8-2.1-1c-1-0.2-1.4,0.3-1.8,1.1c-1.6,4-3.3,8-4.9,12
		c-1.6,4-3.3,7.9-5,12.1c1.8-0.2,3.5,0.9,4.1-1.6c0.5-2,0.7-4.6,2.2-5.5c1.5-0.9,4-0.1,6-0.4c1.9-0.2,2.5,0.6,3,2.2
		c0.6,1.8,0.5,4.3,2,5.1c1.4,0.8,3.7,0.2,5.6,0.2c0.1,0,0.1,0,0.2-0.1C258.9,177.6,258.9,177.4,258.8,177.2z M247.8,168.1
		c-5.1,0.2-5.1,0.3-3.2-4.4c0.5-1.1,0.9-2.3,1.6-3.9c1,2.5,1.7,4.6,2.6,6.7C249.2,167.7,249.1,168.1,247.8,168.1z"/>
	<path class="st1" d="M294.7,165.5c0-3.7,0.1-7.3,0-11c0-1.2,0.3-1.6,1.6-1.6c3.6,0.1,7.2,0.1,10.8,0c1.7-0.1,1.4,0.8,1.5,1.9
		c0.2,1.5-0.6,1.3-1.6,1.2c-1.7-0.1-3.4-0.2-5-0.4c-1.2-0.1-1.8,0.3-1.6,1.6c0.1,1.1,0,2.2,0,3.3c0,2.9,0,2.9,3.1,2.9
		c1,0,2-0.1,3.1-0.2c0.8,0,2-0.8,2,1.2c0,1.7-0.6,1.8-2,1.7c-6.2-0.3-6.2-0.3-6.1,6c0,2.9,0,2.9,3.1,2.9c1,0,2.1-0.2,3.1-0.1
		c0.8,0.1,2.1-1.1,2.1,1c0,1.6-0.3,2.1-2,2.1c-3.4-0.1-6.7-0.1-10.1,0c-1.3,0-1.8-0.4-1.7-1.7C294.8,172.6,294.7,169,294.7,165.5z"
		/>
	<path class="st1" d="M640.6,152.9c2,0,3.9,0.1,5.7,0c1-0.1,1.2,0.5,1.6,1.2c1.5,3.1,3,6.3,4.7,9.6c1.9-2.5,3.1-5.1,4.1-7.7
		c0.9-2.4,2.1-3.7,4.9-2.8c-1.9,3.3-3.7,6.7-5.7,9.9c-1.4,2.3-2.1,4.6-1.9,7.3c0.2,2,0,4.1,0.1,6.1c0,1.2-0.3,1.4-1.5,1.4
		c-4.2,0-4.3,0-4.1-4.2c0.2-4.2-0.5-8-2.9-11.6C643.7,159.3,642.3,156.2,640.6,152.9z"/>
	<path class="st1" d="M271.9,166.9c0-3.1-0.1-6.2,0-9.2c0.1-1.9-0.7-2.3-2.3-2.1c-0.8,0.1-1.6,0.3-2.4,0.3c-0.8,0-2,0.8-2.1-1.1
		c0-1.6,0.5-1.9,1.9-1.9c5.1,0.1,10.1,0.1,15.2,0c1.9-0.1,1.4,1,1.5,2c0.3,1.7-0.9,1.1-1.6,1c-4.7-0.3-4.7-0.3-4.7,4.3
		c0,5.3,0,10.6,0,15.8c0,1.3-0.1,1.9-1.8,1.9c-3.9-0.2-3.9-0.1-3.9-4C271.9,171.6,271.9,169.2,271.9,166.9z"/>
	<path class="st1" d="M589.9,166.8c0-3.1-0.1-6.3,0-9.4c0.1-1.5-0.5-1.9-1.9-1.8c-0.9,0.1-1.9,0.1-2.8,0.3c-1.8,0.4-2.1-0.4-2-1.9
		c0.1-0.9,0.3-1.1,1.1-1.1c5.5,0,11,0,16.5,0c1.7,0,0.8,1.1,0.9,1.8c0.2,0.8,0.1,1.5-1,1.3c-1.2-0.2-2.3-0.2-3.5-0.4
		c-1.3-0.2-1.8,0.3-1.8,1.7c0.1,6.2,0,12.5,0.1,18.7c0,1.7-0.4,2.1-2.1,2c-3.6-0.2-3.6-0.1-3.6-3.7
		C589.9,171.8,589.9,169.3,589.9,166.8z"/>
	<path class="st5" d="M352,165.3c0-3.7,0-7.3,0-11c0-1.2,0.3-1.4,1.5-1.4c4.2,0.2,4.2,0.2,4.2,4.4c0,6.2,0,12.4,0,18.7
		c0,1.4-0.1,2.1-1.9,2c-3.8-0.2-3.8-0.1-3.8-3.9C352,171.2,352,168.2,352,165.3z"/>
	<path class="st6" d="M514.7,46.8c0.4,1.7,0.6,3.4,1.3,5c0.7,1.5,0.4,2.4-0.7,3.4c-0.5,0.5-0.8,1.2-1.2,1.8c-0.3,0.4-0.6,1-1.1,0.6
		c-0.6-0.4-0.4-1.1,0.1-1.5c1.3-1.2,2-2.6,1.7-4.6c-1.4,0.4-1.3,2.3-2.5,2.8C512.6,51.8,513.6,49.3,514.7,46.8z"/>
	<path class="st7" d="M21.3,93.1c1.2,1.8,4,1.1,5,3.2c-1.3,0.3-1.3,0.3-1.1,1.9C23.4,97,22.1,95.2,21.3,93.1z"/>
	<path class="st8" d="M336.1,39.4c-0.7,0.1-1.6-0.2-1.5-0.9c0.2-1.2-0.8-2.3-0.3-3.5c0.9,1.2,1.1,2.7,1.8,3.9
		C336.3,39.2,336.3,39.3,336.1,39.4z"/>
	<path class="st9" d="M153,72.1c2.1,0,3.6,1.1,5,2.6C156.2,74,154.5,73.3,153,72.1z"/>
	<path class="st10" d="M605.2,49.4c0.3,0.9-0.3,1.8-0.1,2.8c0.2,0.9-0.6,1.4-1.5,1.3C603.8,52,604.5,50.7,605.2,49.4z"/>
	<path class="st11" d="M175.6,108c-0.2-0.9-0.7-2,1.1-1.6c0.5,0.1,1.1,0,1.7,0c-0.6,0.9-1.7,1-2.4,1.7
		C175.9,108.2,175.7,108.2,175.6,108z"/>
	<path class="st12" d="M512,54.4c0.5,1.5-1,2.8-0.6,4.3c0.1,0.4-0.7,0-1.1,0.1C510.8,57.3,511.2,55.7,512,54.4z"/>
	<path class="st2" d="M490,50c-0.6-0.2-1,0.3-1.6,0.5c-0.4-1.2,0.8-2.1,0.8-3.1C489.7,48.1,489.9,49.1,490,50z"/>
	<path class="st13" d="M167.2,79.1c1.4-0.2,2.7-0.1,2.7,1.8C168.9,80.4,167.9,80,167.2,79.1z"/>
	<path class="st14" d="M511.2,80.5c-1.2-1.3-1.2-2.2,0.9-2.3C512.1,79,511.8,79.8,511.2,80.5z"/>
	<path class="st15" d="M231.1,95.7c-0.8-0.6-2.7-0.4-1.7-2.3C230.2,94,230.6,94.9,231.1,95.7z"/>
	<path class="st16" d="M757.2,84.2c-0.7,0-0.6,1.5-1.4,0.9c-0.8-0.5,0.1-1.1,0.3-1.7C756.6,83.5,756.9,83.8,757.2,84.2z"/>
	<path class="st17" d="M273.3,95.9c0.6,1.9-0.7,1.6-1.8,1.6C272,96.9,272.6,96.4,273.3,95.9z"/>
	<path class="st18" d="M490.9,53.5c-0.9-0.7-1.4-1.6-0.8-2.7C490.6,51.6,491,52.5,490.9,53.5z"/>
	<path class="st19" d="M406.4,45.6c-0.4,0.2-0.5,0.9-0.9,0.6c-0.6-0.4,0-1,0.1-1.5C406.1,44.8,406.4,45.1,406.4,45.6z"/>
	<path class="st14" d="M510.3,83.1c0.2-0.8-0.6-1.9,0.8-2.3C511.2,81.6,510.8,82.4,510.3,83.1z"/>
	<path class="st20" d="M826.9,101c0.2-1.1,1.1-0.8,1.8-0.8C828.3,100.8,827.7,101,826.9,101z"/>
	<path class="st21" d="M765.4,78.1c0.7,0.1,1.7-0.2,1.7,1C766.4,79,765.8,78.7,765.4,78.1z"/>
	<path class="st22" d="M799.7,38.6c-0.2,1.1-1.1,0.8-1.8,0.8C798.4,38.9,799,38.6,799.7,38.6z"/>
	<path class="st23" d="M553.8,85.2c0,0.5,0.2,1.1-0.5,1.1c-0.5,0-0.4-0.6-0.5-1C553.2,85.2,553.5,85.2,553.8,85.2z"/>
	<path class="st22" d="M801.9,37.7c-0.3,1-0.9,1.1-1.8,0.8C800.6,38,801.1,37.7,801.9,37.7z"/>
	<path class="st24" d="M51.6,108.9c-0.1,0.3-0.3,0.6-0.4,0.8c-0.4,0.1-1,0.1-1-0.1C50.4,109.1,51,109,51.6,108.9z"/>
	<path class="st14" d="M509.4,83.9c0.3-0.1,0.5-0.3,0.8-0.4c0,0.7-0.3,1.4-0.8,1.9C509.5,84.9,509.4,84.4,509.4,83.9z"/>
	<path class="st25" d="M805.8,26.2c0.1-0.2,0.3-0.5,0.4-0.7c0.3,0,1-0.1,0.9,0.2C807,26.1,806.4,26.2,805.8,26.2z"/>
	<path class="st7" d="M26.8,95.2c1.1-0.5,2.3-0.4,3.5-0.2C29.2,97,27.9,95.9,26.8,95.2z"/>
	<path class="st14" d="M509.4,83.9c-0.4-0.2-0.9-0.5-0.7-0.9c0.3-0.5,0.5-0.1,0.6,0.3C509.4,83.4,509.4,83.7,509.4,83.9z"/>
	<path class="st26" d="M310.6,73.8c0,0.7-0.3,1.3-0.8,1.8C308.7,74.4,310.2,74.3,310.6,73.8z"/>
</g>
</svg>
