<?xml version="1.0" encoding="utf-8"?>
<!-- Generator: Adobe Illustrator 22.0.1, SVG Export Plug-In . SVG Version: 6.00 Build 0)  -->
<svg version="1.1" id="Layer_1" xmlns="http://www.w3.org/2000/svg" xmlns:xlink="http://www.w3.org/1999/xlink" x="0px" y="0px"
	 viewBox="0 0 586.9 145.4" style="enable-background:new 0 0 586.9 145.4;" xml:space="preserve">
<style type="text/css">
	.st0{fill:#F7F901;}
	.st1{fill:#F90001;}
</style>
<g id="NpZhwl.tif">
	<g>
		<path class="st0" d="M366.6,77.3c-0.8-0.8-1.5-1.6-1.1-3c5.2-20,18.1-33.3,36.1-42.5c18-9.3,37.8-14.4,58-15.8
			c19.8-1.4,40.3,0,59.6,5.3c10.8,3,21.3,7.3,30.9,13c7.4,4.4,14,9.6,19.5,16.1c15.6,18.5,14.7,41.1-2.3,58.4
			c-12.5,12.7-27.8,20.6-44.6,25.4c-18.9,5.4-38.5,7.9-58.1,6.9c-9.7-0.5-19.4-1.9-28.9-4c-9.2-2.1-18.3-4.8-26.9-8.6
			c-9-3.9-17.4-9.2-24.7-15.7c-8.3-7.4-14.4-16.1-16.9-27c-0.1-0.6-0.6-1.1-1-1.6c0-1.1,0.6-2.5,1.9-2.7c1.1-0.1,1.4,0.8,1.6,1.7
			c0.6,2.3,0.8,4.7,1.8,6.9c0.9,2,2.8,3.8,5.2,3.4c2.2-0.3,3.4-2.6,4.6-4.2c4.2-5.8,8.8-11.3,13.8-16.5c1.3-1.3,2.6-2.6,3.9-3.9
			c0.8-0.8,1.4-1.9,2.4-2.3c1.2-0.5,2.7,0.4,2.8,1.7c0.1,1.3-1.2,2.4-1.8,3.4c-1.8,2.9-3.7,5.7-5.3,8.7c-1.4,2.7-2.3,5.6-3,8.6
			c-0.3,1.2-0.4,2.6,0.3,3.7c0.7,1.2,2.3,2,3.7,2c3.2,0,5.6-3.2,7.5-5.3c3.5-4,7.1-8,10.9-11.8c1.8-1.9,3.7-3.7,5.7-5.4
			c1.4-1.2,2.8-3.3,4.9-2.8c0.2,2.3-1.1,3.8-2.2,5.1c-3.1,4-4.7,8.7-6.1,13.4c-0.7,2.4-0.9,5,0.9,6.9c2.2,2.3,5,1.8,7.7,0.6
			c5.2-2.3,8.9-6.7,13.3-10.2c5.9-4.6,5.7-4.8,8.7,1.9c4.4,9.9,8.1,10.7,15.7,3.3c2.3-2.3,4.6-4.6,6.8-7c0.8-0.9,1.6-1.8,2.4-2.6
			c0.8-0.8,1.7-1.3,2.8-1.1c0.5,3.9-1.8,7.4-1.5,11.3c0.5,6,3.7,8.2,9.1,5.3c5.6-3,10.6-6.8,14.5-12c0.9-1.2,2.4-3.9,4.4-2.7
			c0.7,0.4,0.8,1.2,0.9,1.9c0.1,0.9,0.2,1.7,0.5,2.6c0.7,2.3,1.3,5,3.6,6.4c1.9,1.1,3.7-0.2,5-1.6c5.6-6.1,9.2-13.7,15.5-19.2
			c2-1.8,3.8-4.1,7-3.4c0.4,1.4-0.6,2-1,2.9c-2.2,4.4-5.1,8.3-6.8,12.9c-1.4,3.7-2.1,8.8,1.5,11.5c2.7,1.9,6,0.7,8.7-1.6
			c4.5-3.8,9.3-7.5,13.7-11.4c1.7-1.5,3.9-3.2,3.1-6.2c-3.2,0.4-5.6,2.5-8.1,4.3c-1.2,0.8-2.4,1.5-3.6,2.3c-1.2,0.9-2.6,1.5-3.8,0.3
			c-2-1.9-1.4-4.5-0.5-6.9c0.6-1.5,1.7-2.8,2.7-4c1.1-1.3,2.2-2.6,3.3-3.9c2.3-2.7,4.6-5.3,6.8-8.1c2.1-2.8,2.4-9.2-0.8-11.4
			c-2.7-1.8-4.8,0.8-6.9,2.1c-10.4,6.3-18.4,15.2-26.1,24.4c-1.2,1.5-2.7,3.7-4.7,1.9c-1.6-1.4-0.2-3.3,0.7-4.7
			c1.7-2.7,3.6-5.2,5.7-7.6c2-2.4,4.1-4.6,6.1-7c0.7-0.9,1.5-2.1,0.9-3.2c-0.6-1-2.1-1.9-3.2-2.2c-2.6-0.7-5.8,1.8-7.4,3.6
			c-3.4,3.6-6.6,7.4-8.9,11.8c-1.1,2.1-1.8,4.5-3.1,6.4c-1.2,1.7-2.7,3.2-4.4,4.4c-1.7,1.2-3.6,2.3-5.5,3.2
			c-1.9,0.9-4.2,1.6-6.1,0.3c-1.9-1.3-2.7-3.7-2.3-6c0.5-2.4,2.2-4.6,3.5-6.6c2.5-3.8,7.2-8.1,4.9-13c-0.4-0.8-1-1.6-1.1-2.5
			c-0.3-1.3,0.5-1.7,1.4-2.4c1.5-1.2,2.1-2.8,1.4-4.6c-0.7-1.9-2.2-3.5-4.3-3.8c-2.1-0.3-4.4,0.4-6.5,0.9c-4.7,1.3-9.2,3.2-13.5,5.7
			c-4.7,2.7-8.9,6-13.1,9.3c-4,3.1-8,6.6-9.9,11.4c-1.3,3.3-3.5,6.1-6.3,8.3c-1.4,1.1-2.8,2-4.3,2.9c-1.2,0.8-2.6,2-4.2,1.3
			c-3.9-1.7-3.1-6.9-1.3-9.7c2.4-3.7,5.7-7,8.6-10.4c1.5-1.8,2.9-3.5,2.7-6c-0.2-2-1.3-3.9-2.6-5.4c-2.6-3-4.7,0.6-6.6,2
			c-5.6,4.3-10.4,9.7-15.9,14.1c-1.3,1.1-2.8,2-4.2,3c-0.7,0.6-1.2,1.8-2.1,2.1c-1,0.3-2.2-0.9-2.1-1.9c0.2-1.1,1.4-1.6,2-2.5
			c2.6-3.8,5.2-7.7,6.9-11.9c1.1-2.6,0.9-5.9-1.9-7.4c-2.4-1.3-5.9,0.3-8,1.6c-2.8,1.7-5.1,4.2-7.5,6.4c-2.6,2.5-5.2,5-7.8,7.5
			c-3,2.9-5.9,5.7-8.9,8.6c-0.9,0.9-2.1,2.2-3.5,2.3c-1.1,0.1-2.5-0.7-2.5-1.9c0-1,1-1.8,1.6-2.6c0.8-1.1,1.4-2.3,2.2-3.4
			c1.7-2.3,3.8-4.2,5.7-6.3c1.7-1.8,5.1-4.9,3.5-7.6c-1.2-2.2-4.3-1.7-6.2-1.1c-2.4,0.8-4.4,2.4-5.7,4.5
			c-3.4,5.4-7.9,10.1-10.1,16.3C369.3,75.9,368.2,77,366.6,77.3z"/>
		<path class="st1" d="M554.8,76.8c-4.3,0.5-6.9,3.8-10.3,5.6c-1.5,0.8-3.3,3.1-5.3,1.3c-2-1.9-1.4-4.5-0.5-6.9
			c0.4-1.1,1.1-2,1.9-2.9c3.6-4.3,7.3-8.6,10.9-13c2.2-2.7,2.1-9.1-0.4-11.1c-3-2.5-5,0.4-7.3,1.8c-10.4,6.3-18.4,15.2-26.1,24.4
			c-1,1.2-2.2,3.3-4.1,2.3c-2.6-1.4-1-3.5,0-5.1c3.2-5,7.2-9.5,11.2-14c1.1-1.2,2.5-3,1-4.3c-1.3-1.3-3.2-2.5-5.4-1.5
			c-1.8,0.8-3.5,1.9-4.9,3.4c-4.2,4.5-8.1,9.2-10.3,14.9c-2.1,5.4-6.2,8.2-10.9,10.7c-2.4,1.3-5.2,2.3-7.5,0.1
			c-2.5-2.4-2.1-5.5-0.4-8.3c1.7-2.8,3.6-5.6,5.6-8.3c2.2-2.9,3.3-5.7,1.3-9.2c-0.6-1.1-1.5-2.8-0.1-3.6c2.7-1.7,3.2-3.5,1.7-6.2
			c-1.6-2.9-4.1-3-6.9-2.5c-10.2,2-18.9,7.1-26.9,13.5c-4.9,3.9-10.5,7.6-12.8,13.7c-2,5.2-5.8,8.3-10.1,11c-1.7,1.1-3.5,3-5.7,0.9
			c-2.1-2-2.1-4.5-1.2-6.9c0.5-1.5,1.6-2.9,2.6-4.2c2.6-3.2,5.4-6.3,8.1-9.5c3-3.6,1.3-7.4-1-10c-2.6-3-4.7,0.6-6.6,2
			c-7,5.3-12.6,12.3-20.1,17.1c-1.1,0.7-1.7,3.1-3.4,1.8c-2.1-1.7,0.5-3,1.2-4.1c2.6-3.8,5.2-7.6,6.9-11.9c0.9-2.3,1-4.6-0.8-6.6
			c-1.9-2-4.2-1.4-6.5-0.6c-2.7,1-5,2.8-7,4.7c-6.7,6.3-13.2,12.6-19.8,19.1c-1.5,1.5-3.3,3.2-5.1,1.9c-2.2-1.6,0.3-3.1,1.1-4.6
			c2.4-4.6,6.7-7.8,9.9-11.8c1.2-1.5,2.1-3.3,1.2-5c-1-1.7-3.1-1.8-4.9-1.4c-3,0.6-5.4,2.2-7,4.9c-3.4,5.4-7.9,10.1-10.1,16.3
			c-0.5,1.5-1.6,2.5-3.2,2.8c-1.1,0.7-2.2,1.5-3.3,2.1c-3,1.8-6.4,4.9-9.4,2.1c-3.1-2.9,0.1-6.4,1.6-9.5c2.1-4.1,5.3-7.2,8.3-10.5
			c2.7-3,3.7-6.1,1.9-10c-1.9-4.2-5.5-3-8.6-2.9c-2.5,0.1-4.9,1.1-7.3,1.4c-2,0.2-4.4,0.9-4.3-2.9c0.1-3.1-2.2-2.2-3.9-1.2
			c-5.8,3.4-9,8.8-11,14.9c-0.4,1.3-0.5,3.5,0.3,4.3c3.5,3.8,0.8,6.3-1.3,9c-2.7,3.5-6.6,5.6-10.3,7.8c-2.1,1.3-4.7,2.3-6.9,0.1
			c-2.3-2.4-1.9-5.2-0.4-7.9c1.5-2.6,3.1-5.1,4.9-7.5c2.3-3.1,4.2-6,1.9-10c-0.5-1-0.9-2.4,0.1-3.3c2.3-2.1,3.1-4.4,1.3-7
			c-2-3-5.1-2.7-8.1-2.1c-10.6,1.8-19,7.7-27.1,14.1c-3.9,3.1-8,6.3-10.7,10.6c-0.7,1.1-1.3,2.3-1.8,3.5c-0.4,1.1-0.7,2.2-1.4,3.1
			c-1.4,1.8-3.5,2.1-5.5,1.1c-4-1.9-0.7-4.3,0.4-6c3.4-5,5.2-10.4,4.5-16.5c-0.4-3.4-2.4-4.7-5.1-2.6c-6.5,5.2-12,11.4-12.9,20
			c-0.4,3.8-1.9,6.7-4.4,9.1c-1.8,1.8-3.5,5.3-6.4,3.6c-2.9-1.8-1.1-5.2-0.1-7.7c3.1-7.2,6.4-14.3,9.7-21.3c0.9-2,1.7-3.8-0.6-5.2
			c-2.2-1.4-4.2-0.8-5.8,1c-2.7,2.8-5,6.2-7.3,9.3c-2.5,3.2-4.9,6.4-7.5,9.5c-3.9,4.7-7.9,9.5-12.7,13.4c-1.1,0.9-2.2,1.6-3.6,1
			c-1.6-0.7-1.2-2.2-1.2-3.5c0-3.4,1.7-5.9,4.1-8.2c5.5-5.1,10.9-10.3,14.5-17c1.3-2.6,3-5.4,0.1-7.6c-2.8-2.1-6-2.3-9.2,0.3
			c-7.8,6.3-13.8,14.1-17.5,23.3c-2.3,5.7-6.8,8.4-11.5,11.1c-2.2,1.2-4.5,1.3-6.5-0.6c-1.8-1.8-1.5-3.9-0.7-6.1
			c1.3-3.7,3.8-6.6,6-9.7c2.1-3,3.7-6,1.3-9.6c-0.7-1.1-1.1-2.7,0.2-3.6c2.4-1.6,2.9-3.4,1.4-5.9c-1.5-2.6-3.7-3.1-6.4-2.9
			c-6.4,0.3-11.9,3.1-17.2,6.2c-9.6,5.7-19,12-24.4,22.2c-2.7,5.1-7.3,7.6-12,9.8c-3.3,1.5-5.1-0.2-4.5-3.9c0.5-2.9,2-5.2,3.7-7.5
			c2.8-3.7,5.5-7.5,8.5-11.1c2-2.4,2.3-4.5,0.1-7c-2.2-2.5-4.6-3.4-7.5-1.7c-2.4,1.4-4.7,3.1-6.9,4.9c-7,5.7-13.3,12-19.3,18.8
			c-0.9,1-2.1,2.9-3.6,1.8c-1.2-0.8-0.9-2.8-0.3-4.2c0.5-1.2,1.4-2.2,2.2-3.3c5.1-6.2,10.3-12.2,15.3-18.4
			c9.3-11.3,17.5-23.5,25.5-35.7c1.5-2.3,4.2-5.4,1.1-8c-3-2.5-6.3-1.2-8.9,1.6c-1.4,1.5-2.9,2.8-4.2,4.3
			c-13.4,14.9-24.3,31.7-35.4,48.3c-5.4,8.2-8.1,17.5-5.3,27.6c0.7,2.4,1.2,5.1,4.3,5.5c2.8,0.4,3.9-1.9,5.4-3.7
			c5.7-6.9,11.5-13.8,17.3-20.7c0.9-1,2.1-2.3,3.3-1.4c1.4,1,0.1,2.4-0.6,3.5c-2.8,3.8-4.8,8.1-6.1,12.5c-1.1,3.7-2.6,8.4,1.1,11.2
			c3.6,2.7,7.8,0.6,11-1.9c4-3.2,7.8-6.7,11.7-10.1c2.1-1.9,3.5-1.6,4.4,1.1c0.4,1.1,0.8,2.2,1.2,3.3c3.9,9.3,8.2,10.3,15.5,3.7
			c0.7-0.7,1.4-1.4,2.1-2.1c3-3.2,6-6.5,9.3-10.1c1.2,2.7,0.2,4.1-0.1,5.7c-0.3,1.8-0.7,3.6-0.7,5.4c-0.2,6.8,3.1,9.2,9.4,6.8
			c5.8-2.2,9.6-7,13.8-11.2c2.9-2.9,4.1-3.8,6.3,1c5.2,11.4,10.7,11.8,19.2,2.3c2.7-3,5.5-5.9,8.6-9.2c1.1,3.5-0.5,6.2-0.2,9
			c0.2,2.6-0.2,5.6,2.5,7.1c2.9,1.7,5.8,0.9,8.5-0.8c3.7-2.4,7-5.2,9.6-8.6c2.3-2.9,4.7-3.3,7.8-1.8c1.4,0.7,2.8,1.8,4.6,0.5
			c4.9-3.6,7-1.1,9.3,3.5c4,8.2,8.9,8.6,15.5,2.1c0.6-0.6,1-1.3,1.7-1.8c3.1-2.3,5-6.1,9.5-8.3c-0.2,2.9-0.5,4.9-0.4,7
			c0,3.2-1.4,7,2.1,9.2c3.8,2.4,7-0.3,10.1-2c1.7-1,3.3-2.3,4.8-3.6c8.2-7.6,16.1-15.4,22.4-24.7c1.5-2.1,10.3-5.1,10.9-3.6
			c1.3,3-2.1,4.4-3,6.8c-0.5,1.4-1.6,2.5-2.4,3.8c-2.5,4.4-4.2,9.1-3.5,14.3c1,6.8,5.9,9.2,11.9,5.9c4.6-2.6,8-6.5,11.8-9.9
			c0-1.3,0.7-2.5,1.8-2.6c1.5-0.2,1.5,1.5,1.8,2.4c0.3,0.9,0.4,1.9,0.6,2.9c0.6,2.8,1.5,5.7,4.6,6.5c3.2,0.8,4.7-2,6.2-4.1
			c5.3-7.3,11.2-14.1,17.7-20.3c1.2-1.2,2.5-3.6,4.5-2c1.9,1.6-0.1,3.4-1,4.8c-2.8,4.6-6.1,9-7.5,14.4c-0.7,2.8-2.3,5.8,0.7,7.8
			c3.1,2,5.7-0.2,7.9-2.3c0.7-0.7,1.3-1.5,2-2.2c5.5-6.2,11.1-12.4,17.4-18c1.1-1,2.1-2.5,4.1-2.1c0.2,2.3-1.1,3.8-2.2,5.1
			c-3.1,4-4.7,8.7-6.1,13.4c-0.8,2.7-1,5.4,1.4,7.4c2.6,2.2,5.3,1.1,7.9-0.1c4.9-2.3,8.4-6.5,12.5-9.8c5.9-4.6,5.7-4.8,8.7,1.9
			c4.4,9.9,8.1,10.7,15.7,3.3c2.8-2.7,5.3-5.5,8-8.2c1.1-1.1,1.9-2.8,4-2.5c0.5,3.9-1.8,7.4-1.5,11.3c0.5,6,3.8,8.2,9.1,5.3
			c5.6-3,10.6-6.8,14.5-12c1-1.3,2-3.2,3.8-2.9c2,0.3,1.3,2.7,1.8,4.1c0.6,1.5,0.7,3.1,1.6,4.6c2.1,3.6,4.5,3.7,7.1,0.8
			c1.2-1.3,2.4-2.8,3.4-4.3c3.7-5.2,7.2-10.6,12-14.9c2-1.8,3.8-4.1,7-3.4c0.5,1.4-0.6,2-1,2.9c-2.5,5-5.9,9.5-7.4,14.9
			c-1,3.5-0.7,7.4,2.2,9.5c2.7,1.9,6,0.7,8.7-1.6c4.5-3.8,9.3-7.5,13.7-11.4C553.4,81.5,555.6,79.8,554.8,76.8z M169.8,76.9
			c-2.5,2.2-5.3,4-7.8,6.1c-1.4,1.2-2.8,2.1-4.5,1.1c-1.5-0.9-1.9-2.7-1.7-4.4c0.2-2,0.9-3.9,2.2-5.5c6.9-8.6,16.8-12.1,26.4-16.4
			C180.7,65.2,175.8,71.6,169.8,76.9z M296.5,75.3c-2.8,3.2-5.8,6.3-9.6,8.4c-3.7,2-5.7,0.8-5.8-3.4c0-3.4,1.6-6.1,3.9-8.3
			c7.2-6.9,16-11,25.2-14.7C307,64.5,301.4,69.6,296.5,75.3z M461.2,84c-3.3,2-5.4,0.5-5.6-3.3c-0.2-3,0.8-5.6,2.8-7.8
			c6.9-7.4,15.7-11.6,24.8-15.3c0.5-0.2,1.2,0.1,2.7,0.2C478.7,68.2,471.7,77.8,461.2,84z"/>
		<path class="st1" d="M35,86.5c6.9,0,13.9-0.1,20.7-1.3c3.4-0.6,6.7-1.5,9.9-2.7c2.9-1.1,6.3-2.4,8.6-4.6c1.6-1.6,1.3-3.3-0.1-4.9
			c-2.1-2.3-5.1-4-7.9-5.2c-6.3-2.8-13.1-3.1-19.6-4.9c-3.4-0.9-6.7-2.1-9.9-3.6c-1.6-0.7-3.2-1.5-4.7-2.3c-1.3-0.7-2.7-1.3-3.8-2.4
			c-2-2-2.3-4.6-2.1-7.3c0.2-2.5,0.5-5,1.1-7.4c0.9-4.1,2.5-8,5.2-11.2c2.9-3.5,6.7-5.9,10.8-7.8c6.1-2.8,12.7-4.5,19.3-5.7
			c7.2-1.3,14.5-1.8,21.7-1.5c3.2,0.1,6.3,0.5,9.5,0.8c2.1,0.2,4.3,0.5,6,2c1.9,1.7,2.3,4.7,2.1,7.1c-0.2,2.5-1.2,4.8-2.9,6.6
			c-2.1,2.2-4.9,3.3-7.6,4.5c-3.2,1.4-6.5,2.8-9.6,4.5c-0.7,0.4-1.5,0.8-2.2,1.3c-0.6,0.4-1.3,1-2,1.2c-1.7,0.5-2.3-1.4-1.4-2.6
			c0.9-1.2,2.3-2.3,3.5-3.2c0.6-0.5,1.3-0.9,1.9-1.3c0.6-0.4,1.4-0.6,2-1.1c0.9-0.8,1.3-2.2-0.1-2.6c-1.3-0.4-3-0.1-4.4-0.1
			c-3.5,0.1-6.9,0.3-10.3,0.7c-6.9,0.8-13.7,2.4-20.1,4.9c-2.9,1.1-6.3,2.3-8.7,4.4c-1.9,1.7-3.5,4.9-1.8,7.2
			c1.4,1.9,4.5,2.1,6.6,2.7c3.6,1.1,7.1,2.1,10.7,3.2c6.7,2.1,13.8,4.4,19.8,8.1c4.6,2.8,8.8,6.9,10.1,12.3c0.6,2.3,0.6,4.7,0,7
			c-2,7.5-6.8,12.9-14.1,15.8c-16.3,6.5-34,8.8-51.3,6c-3-0.5-6.2-0.9-9-2c-2.8-1.2-4.2-3.4-4.4-6.4c-0.3-7.2,6.5-12.5,13-13.6
			c0.7-0.1,2.1-0.2,2.5,0.7c0.4,0.9-0.9,1.7-1.3,2.3c-0.9,1.1-0.9,2,0.6,2.2c1.9,0.3,3.9,0.1,5.8,0.1C29.9,86.5,32.4,86.5,35,86.5z"
			/>
		<path class="st0" d="M485.9,57.8c-4.3,6.2-8.7,12.4-14.1,17.8c-2.6,2.6-5.4,5-8.4,7c-1.9,1.3-5.4,3.8-7.1,1
			c-0.9-1.5-0.9-3.5-0.6-5.1c0.3-2.1,1.3-4,2.7-5.5c6.9-7.4,15.7-11.6,24.8-15.3C483.7,57.5,484.4,57.7,485.9,57.8z"/>
	</g>
</g>
</svg>
