<?xml version="1.0" encoding="utf-8"?>
<!-- Generator: Adobe Illustrator 22.0.1, SVG Export Plug-In . SVG Version: 6.00 Build 0)  -->
<svg version="1.1" id="Layer_1" xmlns="http://www.w3.org/2000/svg" xmlns:xlink="http://www.w3.org/1999/xlink" x="0px" y="0px"
	 viewBox="0 0 595.3 841.9" style="enable-background:new 0 0 595.3 841.9;" xml:space="preserve">
<style type="text/css">
	.st0{fill:#030303;}
	.st1{fill:#0465F8;}
	.st2{fill:#152A60;}
	.st3{fill:#FEFEFE;}
	.st4{fill:#72736F;}
	.st5{fill:#BFBEBD;}
</style>
<g>
	<path class="st0" d="M476,435.7c-3,2.1-4.3,5.3-5.5,8.7c-14.3,41.5-33.9,80.4-58.4,116.8c-12.3,18.3-27.7,34-42.9,49.9
		c-24.4,25.7-51.4,48.3-79.6,69.5c-3.3,2.5-6,3.4-9.6,0.6c-30.4-23.3-60.8-46.5-86.9-74.8c-7.8-8.4-14.7-17.7-21.5-26.9
		c-1.1-1.5-2.4-2.7-3.6-4.1c0.7-1.2,1.3-2.4,2-3.6c0,0,0,0,0,0c2.1,0,4.2,0,6.3,0c6.2,10.3,13.9,19.5,21.9,28.4
		c24.9,27.8,54.6,50.2,84,73c1.9,1.5,3.1,1,4.7-0.3c4.5-3.6,9.2-7.2,13.8-10.7c36-27.5,67.7-59.4,96.6-94.2c1.4-1,2.6-2.1,3-4
		c0.8-1.1,1.6-2.2,2.4-3.3c0.8-1,1.8-2,2.5-3.1c28.3-42.1,49.8-87.4,64.3-136.1c2.7-9.1,4.7-18.3,6.3-27.7c0.3-1.6,1.3-3.8-0.8-4.9
		c-1.7-0.8-7.5,2.8-7.8,4.8c-2.2,16.3-6.6,32-12.1,47.5c-9.8,27.5-22.1,53.8-37.1,78.9c-6.1,10.3-12.7,20.3-19,30.4
		c-0.6,0.7-1.1,1.4-1.7,2.1c-1.1,0.8-2.1,1.7-2.4,3.2c-1.6,1.7-3.2,3.6-4.7,5.4c-11.5,14.2-24.7,26.8-37.7,39.4
		c-9.4,9.1-18.9,18.3-29.3,26.4c-12,9.4-24.1,18.5-36.1,27.9c-1.7,1.4-3,2.1-5.1,0.5c-22.2-16.6-44.5-33.1-65-51.9
		c-10.9-10-21.1-20.6-30-32.4c-1-1.3-1.8-2.9-4-2.3c2.3-3,7-1.7,9.1-5c0.3-0.1,0.5-0.2,0.8-0.3c3.8-0.2,6.9-2.1,10-4.1l0,0
		c1.7,0,3.6,0.7,4.1-1.8c0.2-0.2,0.4-0.3,0.7-0.4c4.3-0.9,8.3-2.2,11.3-5.7l0,0c2.1-0.7,4.8-0.3,5.8-3.2c0,0,0,0,0,0
		c1,0.1,2.1,0.1,3.1,0.2c0.7,1.4,2.2,1.4,3.4,1.8c14.5,5.7,29.6,8.9,45.1,10c9.7,0.7,9.7,0.7,9.7-9.1c0-1.7-0.1-3.3,0-5
		c0.3-2.7-0.9-3.4-3.5-3.3c-5.2,0.2-10.3,0.1-15.5,0c-0.9,0-2.3,0.2-2.4-1.1c-0.2-2,1.5-1.3,2.5-1.4c5.3-0.1,10.7-0.1,16,0
		c2.1,0.1,2.9-0.5,2.9-2.8c-0.1-5.5-0.1-11,0-16.5c0.1-2.4-0.6-3-3-3.1c-3,0-6.2,1.1-9.2-0.7c0.4-1,1.2-1.6,2.1-2
		c1.8,0,3.6-0.1,5.4,0.2c3.8,0.6,5.3-0.9,4.7-4.7c-0.1-0.8-0.1-1.6-0.1-2.4c2.1-2.6,4.4-4.7,7.9-5.1c0,2.5,0,4.9,0,7.4l-0.3,0.2
		l0.4,0.2c0,2.5-0.2,4.8,3.8,4.5c2.3-0.2,6.8-1.5,6.7,1.2c-0.1,2.8-4.4,1.2-6.9,1.2c-2.7,0-3.7,0.7-3.6,3.6c0.2,5.1,0.2,10.3,0,15.5
		c-0.1,2.7,0.8,3.4,3.4,3.3c4.8-0.2,9.7-0.1,14.5,0c1.1,0,3.1-0.9,3,1.3c-0.1,2-2.1,1.1-3.2,1.2c-1.5,0.2-3,0-4.5,0.1
		c-4.3,0.3-10.3-2-12.4,0.8c-2.2,2.9-0.6,8.6-0.8,13.1c-0.2,2.8,0.6,3.9,3.6,3.4c4.3-0.7,8.6-0.9,12.8-1.7
		c55-10.2,93.7-40.8,115.6-92.5c6-14.2,8.5-29.3,9.9-44.5c0-0.3,0.1-0.7,0.1-1c-0.1-1-0.1-2-0.2-3.1c0.1-0.5,0.2-0.9-0.5-0.5
		c-1.7-0.1-3.3-0.1-5-0.2c-1.1-0.5-2.3-0.6-3.4,0c-1.6,0-3.2,0.1-4.8,0.1c0-0.8,0-1.6,0-2.3l0,0c1.7-0.3,3.3-0.8,4.1-2.5
		c0.3-0.2,0.5-0.3,0.8-0.5c6.8-0.9,11.6-5.1,16.1-9.8c0.2-0.2,0.5-0.3,0.8-0.3c0.4-0.2,0.8-0.5,1.2-0.7c0.2-0.2,0.5-0.3,0.7-0.4
		c0.4-0.2,0.8-0.5,1.2-0.7c0.2-0.2,0.5-0.3,0.8-0.3c0.4-0.2,0.8-0.5,1.2-0.7c8.5-5,17.2-9.6,26.8-12.2c8.5,0.1,8.5,0.1,6.9,8.6
		c0,0.2-0.1,0.3-0.1,0.5c-1.6,11.8-5.1,23.2-8,34.7C474.1,432.7,474.1,434.4,476,435.7z"/>
	<path class="st0" d="M97,419c3.5-0.4,2-2.9,1.6-4.5c-6.7-27.4-10.3-55.1-11.8-83.3c-1.6-29.3-1.9-58.6-1.9-87.9c0-4.4,1-5,5.2-4.6
		c27.9,2.6,55.8,4,83.8,2c22.2-1.6,42.7-9,62.8-18.3c18.2-8.4,34.5-19.4,48.4-33.8c3.6-3.7,6.1-3.6,9.8,0.1
		c9.1,9,18.7,17.5,29.1,25.1c15,11,32.5,15.8,50.4,18.8c36.9,6,74.1,8,111.4,5.8c3.8-0.2,3.6,1.8,3.6,4.3c0.2,15,0.5,30,0.7,45
		c-1.1,0.3-2.1,0.6-3.2,0.9c-0.6-0.1-1.3-0.2-1.9-0.3c-0.4-0.1-0.9-0.2-1.3-0.3c-0.6,0-1.2,0-1.8,0c-0.3-0.5-0.5-1.1-0.8-1.6
		c1.4-12.2,0.6-24.5,0.2-36.8c-0.1-2.9-2.2-2.7-4.3-2.7c-8,0.1-16,0-24,0.2c-5.8,0.1-11.8,0.9-17.3,0.2c-11.4-1.3-22.7-2.3-34.1-3.1
		c-16.1-1.2-32.1-3.5-47.6-7.7c-13-3.5-25.7-8.9-36.5-17.7c-8.4-6.8-16.8-13.6-24.6-21.2c-2.5-2.5-3.9-2.3-6.4,0.1
		c-7.6,7.3-15.4,14.4-24.5,19.8c-32.1,19-66,32.1-104,32c-1.6-0.8-3.3-0.4-4.9-0.4c-18.5,0.1-37-0.1-55.4-1.8c-4.2-0.4-5,0.4-5,4.5
		c0,26.8,0.7,53.6,1.9,80.4c1.5,31.4,6.8,62.1,13.9,92.5c5.2,22.2,12.2,43.9,20.5,65.1c-4.9,2.4-7.5,1-9.2-4
		c-4.2-12.4-8.7-24.8-13.1-37.2c-0.2-0.9-0.5-1.9-0.7-2.8c1.4-1.8,0.3-3.4-0.4-5c-0.9-2-1.9-3.9-1.8-6.1c0.2-4.9-3.6-8.8-3.4-13.7
		c0-0.8-1.2-1-2-0.6c-0.5-0.1-1.1-0.1-1.6-0.2C97,419.8,97,419.4,97,419z"/>
	<path class="st1" d="M97,420.2c0.5,0.1,1.1,0.1,1.6,0.2c1.1,1.5,1.2,3.4,1.7,5.1c2,6.8,2.6,14,5.9,20.4c0.2,0.9,0.5,1.9,0.7,2.8
		c0,3-1.1,4.7-4.3,5.5c-2.6,0.7-5,2.5-7.3,4.1c-10.7,7.6-15.2,18.9-18.1,31.1c-1.5,6.5-3.3,11.5-10.9,13.9
		c-8.5,2.7-16.2,7.6-24.3,11.5c-1.5,0.7-2.7,3.3-4.6,1.5c-1.4-1.4-0.2-3.5,0.4-5.2c4-12,7.9-23.9,11.9-35.9c0.5-1.5,1.3-3.5-0.1-4.7
		c-1.3-1-2.8,0.3-4.1,0.9c-13.2,5.9-26.4,11.8-39.6,17.7c-1.3,0.6-3,1.8-4.1,0.5c-1.3-1.4,0.5-2.7,1.3-3.8
		c6.8-10,13.2-20.3,22.1-28.8c0.7-0.7,0.8-1.4-0.1-2c0-0.3,0.2-0.5,0.3-0.8c3.5,0.1,5-2.9,7-4.9c3.8-3.9,9.1-6.4,11.7-11.5
		c0,0,0,0,0,0c2.1,0.8,3.3-1.1,4.9-1.9C64,428.1,78.5,418,97,420.2z"/>
	<path class="st2" d="M24.8,454.9c0.9,0.6,0.9,1.3,0.1,2c-8.9,8.4-15.3,18.8-22.1,28.8c-0.8,1.1-2.6,2.4-1.3,3.8
		c1.2,1.3,2.8,0.1,4.1-0.5c13.2-5.9,26.4-11.8,39.6-17.7c1.3-0.6,2.9-1.9,4.1-0.9c1.5,1.2,0.6,3.1,0.1,4.7
		c-3.9,12-7.9,23.9-11.9,35.9c-0.6,1.7-1.8,3.8-0.4,5.2c1.8,1.8,3.1-0.8,4.6-1.5c8-3.9,15.8-8.8,24.3-11.5
		c7.6-2.4,9.4-7.4,10.9-13.9c2.9-12.1,7.4-23.5,18.1-31.1c2.3-1.6,4.7-3.4,7.3-4.1c3.2-0.8,4.4-2.5,4.3-5.5
		c4.4,12.4,8.9,24.7,13.1,37.2c1.7,5,4.4,6.3,9.2,4c2.8,0.2,5.4,0,7.7-1.8c6.5,0.6,11.7-2.1,16.3-6.4c1.7,0.4,2.8-0.7,4-1.5
		c11.9-7.4,23.8-14.8,35.7-22.2c2.2-1.4,4.2-3.3,7-3.5c-0.4,3.1-3.3,4-5.4,5.4c-9.9,6.3-19.9,12.5-29.9,18.5
		c-7.4,4.4-14.5,9.5-23.1,11.5c-17.6,4-35.2,6.4-53.3,4.6c-4-0.4-8.3,0.2-10.5,4.2c-3.3,5.9-3.9,12.3-3.2,19.1
		c1.2,10.7,5.5,20.1,10.8,29.2c6.3,10.9,12,22.2,18.8,32.7c6.7,10.3,15.4,12.5,26.8,8.2c3.9-1.5,7.6-3.2,11.4-5
		c9-4.2,17.8-8.9,27.7-11c-0.7,1.2-1.3,2.4-2,3.6c-5.6,0.2-10.5,2.7-15.5,5c-6.7,3-13.1,6.5-19.9,9.2c-13.2,5.2-23.1,2.4-30.7-9.4
		c-9.4-14.5-17.7-29.6-25-45.3c-5.2-11.2-5.7-20.2-3.2-32.5c-1-1.1-1.8-0.1-2.6,0.3c-11.6,5.8-23.1,11.6-34.7,17.4
		c-1.2,0.6-2.3,2-3.6,1.1c-1.5-1,0-2.4,0.4-3.5c5.3-14.6,10.1-29.4,14.5-44.3c-0.7-0.9-1.4-0.5-2.2-0.2
		c-15.6,6.9-31.2,13.9-46.8,20.8c-1.1,0.5-2.3,2-3.5,0.6c-0.9-1.1,0.4-2.2,1-3.1c8-11.5,15.2-23.4,24.6-33.9
		C22,456.5,23.4,455.8,24.8,454.9z"/>
	<path class="st2" d="M487,288.6c1.1-0.3,2.1-0.6,3.2-0.9c6.9,3.9,11.3,10.1,14.8,17c4.7,9.3,9.5,18.6,14,28c1,2,2.4,1.9,3.9,2.4
		c-0.2,2.2,1,3.7,2.2,5.4c4.1,6.1,7.8,12.4,9.8,19.5c1.7,6,2.2,6.8,8.5,5.6c10.6-2,21.3-3.6,31.7-6.1c4.3-1,9.4,0.1,13-3.6
		c1.4-0.2,2.3,0.4,2.2,1.9c0,1.1-1,1-1.8,1.2c-14.9,2.7-29.8,5.4-44.7,8c-1.5,0.3-2.9,0.6-4.6,1.7c12.6,10.9,25.7,20.8,38.5,32.7
		c-8,1.3-15.1,1.5-22.1,0.3c-11.7-2-22.7,1.7-34.1,2.8c-2.1,0.2-3.9,2-5.3,3.6c-8.2,9.8-19.1,15.8-29.9,22c-3.4,2-6.9,3.9-10.4,5.8
		c-1.9-1.4-1.9-3-1.4-5.2c2.9-11.5,6.4-22.9,8-34.7c0-0.2,0.1-0.3,0.1-0.5c1.7-8.5,1.7-8.5-6.9-8.6c4.4-1.8,9-1.9,13.6-1.5
		c9.8,0.8,19.3,3.4,29.2,2.8c10.3-0.6,16.9-9,15.6-19.2c-1.4-11.4-7.1-20.7-13.1-29.8c-5.8-8.8-10.9-17.8-15.3-27.3
		C501.7,302.5,497.3,293.1,487,288.6z M537.7,369.7c-1.8,6.1-1.7,12.1-6.1,15.9c-5,4.4-6.8,10.6-11,15.7c1.1,0.2,1.5,0.4,2,0.3
		c14.5-1.7,28.9-4,43.5-1.2c1.4,0.3,4.2,0.4,4.7-1.7c0.6-2.2-2.1-2.6-3.4-3.7c-0.8-0.6-1.5-1.3-2.2-2
		C556.2,385.4,547.3,377.8,537.7,369.7z"/>
	<path class="st1" d="M588.1,355.8c-3.6,3.8-8.7,2.6-13,3.6c-10.5,2.5-21.1,4.1-31.7,6.1c-6.3,1.2-6.8,0.4-8.5-5.6
		c-2-7-5.7-13.4-9.8-19.5c-1.1-1.7-2.4-3.2-2.2-5.4c0.6,0,1.3-0.1,1.9-0.1c1.4,1.4,3.2,1.6,5,2c18.2,3.6,36.2,8.3,53.3,15.8
		C585,353.3,587,353.8,588.1,355.8z"/>
	<path class="st2" d="M97,420.2c-18.5-2.2-33,7.9-48.3,15.7c-1.6,0.8-2.7,2.6-4.9,1.9c0.1-0.4,0.2-1,0.5-1.2
		c12.8-7.5,25.4-15.4,40.4-18.1c4.2-0.8,8.2-0.1,12.3,0.5C97,419.4,97,419.8,97,420.2z"/>
	<path class="st2" d="M583,352.8c-17.1-7.5-35-12.2-53.3-15.8c-1.8-0.4-3.6-0.6-5-2c15,2.1,29.9,4.8,44.1,10.5
		c3.1,1.2,6.3,2.1,9.2,3.6C579.9,350,582.5,350.2,583,352.8z"/>
	<path class="st2" d="M43.9,437.7c-2.6,5.2-7.9,7.6-11.7,11.5c-2,2-3.5,5-7,4.9C30.4,447.5,36.5,441.9,43.9,437.7z"/>
	<path class="st1" d="M487,288.6c10.3,4.5,14.8,13.8,19,23.2c4.4,9.5,9.5,18.6,15.3,27.3c6,9.1,11.8,18.4,13.1,29.8
		c1.2,10.2-5.4,18.6-15.6,19.2c-9.9,0.6-19.5-2-29.2-2.8c-4.7-0.4-9.2-0.3-13.6,1.5c-9.6,2.6-18.3,7.2-26.8,12.2
		c-0.4,0.2-0.8,0.5-1.2,0.7c-0.3,0.1-0.5,0.2-0.8,0.3c-0.4,0.2-0.8,0.5-1.2,0.7c-0.3,0.1-0.5,0.2-0.7,0.4c-0.4,0.2-0.8,0.5-1.2,0.7
		c-0.3,0-0.6,0.1-0.8,0.3c-6.1,2.1-11.1,6-16.1,9.8c-0.3,0.1-0.6,0.3-0.8,0.5c-2.2-0.5-3.2,0.9-4.1,2.5c0,0,0,0,0,0
		c-2.7,0.7-5.2,1.7-7.2,3.8c-11,5.2-21,12-31.2,18.4c-15.8,10-31.4,20.5-46.8,31.1c-7.3,5-14.1,10.8-21.1,16.3l-0.1,0.1
		c-0.3,0.3-0.6,0.6-0.9,0.9c-0.3,0.1-0.5,0.2-0.7,0.4c-3.3,1.1-5.9,3.2-8.1,5.9c-0.4,0.3-0.8,0.6-1.2,0.8c-0.4,0.3-0.7,0.5-1.1,0.8
		c-0.2,0.1-0.5,0.3-0.7,0.4c-1.7,0.1-2.6,1.2-3.3,2.6c-0.6,0.4-1.2,0.9-1.7,1.3c-1.7,0.1-3,1.2-4.3,2.2
		c-15.9,11.3-31.9,22.6-47.8,33.9c-7,4.9-13.9,9.8-20.9,14.7c0,0,0,0,0,0c-2.1,0.8-4.7,0.6-5.8,3.2c0,0,0,0,0,0
		c-4.2,1.1-8.1,2.6-11.3,5.7c-0.2,0.1-0.5,0.2-0.7,0.4c-1.7-0.1-3.1,0.3-4.1,1.8c0,0,0,0,0,0c-3.7,0.5-7,1.7-10,4
		c-0.3,0-0.6,0.1-0.8,0.3c-7.6,2-14.8,5.1-22.1,7.8c0,0,0,0,0,0c-9.8,2.1-18.7,6.8-27.7,11c-3.7,1.8-7.5,3.5-11.4,5
		c-11.4,4.4-20.2,2.2-26.8-8.2c-6.8-10.6-12.5-21.8-18.8-32.7c-5.3-9.1-9.6-18.5-10.8-29.2c-0.8-6.8-0.1-13.2,3.2-19.1
		c2.2-4,6.5-4.6,10.5-4.2c18.1,1.8,35.7-0.7,53.3-4.6c8.6-2,15.7-7.1,23.1-11.5c10.1-6,20-12.2,29.9-18.5c2.1-1.3,5-2.2,5.4-5.4
		c0.3-0.7,1-0.7,1.6-0.6c1.2,0.6,1.3-0.1,1.4-1.1c0,0-0.1,0.1-0.1,0.1c1.6,0.3,2.8-0.6,4.1-1.4c13.7-9,27.5-17.8,40.5-27.8
		c4.9-3.8,10.7-6.5,14.8-11.5c0.2-0.1,0.5-0.2,0.7-0.4c3.1-1,5.5-2.9,7.3-5.6l0,0c0.4-0.3,0.7-0.6,1.1-0.8c0.2-0.1,0.5-0.3,0.6-0.5
		c2.7-0.8,5-2.1,6.2-4.7c0.6-0.4,1.2-0.9,1.8-1.3c1.2,0.1,2-0.5,2.3-1.6c0.6-0.5,1.1-0.9,1.7-1.4c2.3-0.1,3.4-1.7,4.4-3.4
		c0.2-0.1,0.5-0.2,0.7-0.4c1.5,0,2.2-1,2.8-2.2c0.4-0.3,0.8-0.6,1.2-0.9c6.2-3.3,11.3-8,16.9-12.1c28.8-20.8,57.4-41.7,89.1-58.2
		c16.5-8.6,33.4-16.3,51.4-21.4c2.9-0.8,6.4-0.6,8.6-3.3l0,0c7.8-1.5,15-4.9,23-5.9c0.6,0,1.2,0,1.8,0c0.4,0.5,0.8,0.6,1.3,0.3
		C485.7,288.5,486.4,288.6,487,288.6z M302,421.9L302,421.9c-0.2-0.4-0.5-0.8-0.7-1.2c-0.1-0.3-0.2-0.5-0.4-0.7
		c-0.3-0.3-0.6-0.7-0.9-1l0-0.1c0.1-0.9-0.3-1.5-1-1.9c-0.4-0.7-0.7-1.4-1.1-2c0.1-0.6-0.1-1-0.7-1.2c-0.4-1-0.9-1.9-1.3-2.9
		c0.1-0.3,0.2-0.7,0.3-1l0,0c0.3-0.3,0.7-0.7,1-1c0,0,0,0,0,0c0.4-0.2,0.8-0.5,1.2-0.7c0.3-0.1,0.5-0.2,0.7-0.3c1,0,2,0.1,2.9,0.1
		c0.2,0.1,0.5,0.2,0.7,0.2c1.4,1.6,2.8,3.1,5.5,3.4c-0.2-2.5-1-4.5-3-5.9c-0.1-0.3-0.3-0.5-0.4-0.7c0.1-0.6-0.2-1-0.8-1l0,0
		c-0.5-1.6-1.1-2.9-3-1.3c-5.4,3.7-10.7,7.5-16.1,11.2c-0.9,0-1.6,0.2-1.7,1.2l-0.1,0.1c-0.6-0.1-1,0.1-1.2,0.7
		c-0.3,0.1-0.5,0.2-0.8,0.4c-0.6-0.1-1,0.1-1.1,0.7c-2.1,1.7-0.8,3.3,0.1,4.9c-0.1,0.6,0.2,1,0.8,1.1c0.5,0.9,1.1,1.9,1.6,2.8
		c-0.3,0.6,0,0.9,0.5,1l0,0c0.1,2.1,1.6,3.3,3.2,4.3c-0.7-2.8-0.7-5.7-2.4-8.2c0-0.4,0-0.8-0.1-1.2c1-0.8,1.1-1.8,0.9-3
		c2.1-3.8,4-4,6.2,0c2.2,4.1,4.9,7.9,7.1,12c5.2,10,12.9,18.7,15.8,30c4.5-1.3,7.9-4.1,12.7-8c-4.9,1.4-6.5-0.8-7.9-3.2
		c-4.5-7.6-9-15.1-13.5-22.6c0.1-0.9-0.3-1.5-1.2-1.8c-0.4-0.7-0.8-1.4-1.2-2.1C302.8,422.4,302.6,422.1,302,421.9z M184.2,509.7
		L184.2,509.7c-0.4-0.3-0.8-0.5-1.2-0.7c-4.7-2.4-9.7-4.4-14.2-7.2c-5.2-3.3-9.6-4-13.8,1.1c-2.1,0.6-4.9,1.7-4.6,3.7
		c0.3,2.2,3.4,0.9,5.2,1.3c0.2,0,0.3,0,0.5-0.1l0.1,0c0.1,0.6,0.4,0.8,1,0.6c0.2,0.2,0.4,0.4,0.7,0.6c0.3,0.4,0.6,0.8,0.9,1.1
		c0.5,0.9,1,1.7,1.5,2.6c1.7,4.9,5.4,8.7,7.4,13.4c3.5,8,13,13.6,9.2,24.8c4.5-2.2,8.4-4.1,10.9-8.9c-5.5,2.4-8.4-1.3-10.1-4.5
		c-2.3-4.5-5-8.5-7.5-12.8c-2.1-3.7-4.2-7.3-6.6-11.4c1.9,0.2,3.1,0.3,4.4,0.4c11.5,5.5,23,11,34.5,16.5c0.9,0.4,1.8,1.3,2.7,0.5
		c1.2-1.1,0-2.1-0.5-3c-2.9-4.6-5.7-9.3-8.6-13.9c-2.5-6-6.3-11.2-9.6-16.8c-1.7-2.9-4.5-6.1-4.4-9.1c0.2-5.7-2.4-3.4-4.4-2.1
		c-1.8,1.2-4.2,2.1-4.6,5.1c3.3-0.2,6.1,0.1,7.9,3.1c2.7,4.6,5.5,9,8.3,13.6c0.7,1.1,2.1,2.2,1.2,3.5c-0.9,1.3-2.4-0.5-3.7,0
		c-0.7-0.3-1.3-0.6-2-0.9C184.8,509.7,184.5,509.6,184.2,509.7z M337.1,444L337.1,444c0.9-0.6,1.1-1.3,0.8-2.2c1.2-3,2.3,0,3.4,0.1
		c2.4,0.2,4.5-0.1,5.2-2.7c0.5-1.9,1.5-4.3-2.1-4.8c-1.9-0.3-2.5-2.5-3.4-4c-3-5.1-6-10.4-9.1-15.5c-3-4.8-7.3-6.7-11.7-5.2
		c-3,1-5.7,7.4-4.9,11.7c0.5,2.9,1.9,5.4,4.8,6.6c1.2,0.5,2.4,0,2.9-1.3c1.3-3.2-0.3-5.3-2.7-7.3c-1.6-1.3-3.1-3.2-0.9-5
		c2.1-1.7,4-0.3,5.4,1.6c2.9,4,4.4,8,2,12.9c-1,2.1-1.6,4.4-1.3,6.8c-0.6,3.5-0.4,6.7,2.5,9.2c1.3,1.8,2.6,3.6,5,3.7
		c0.9,0.4,1.7,0.3,2-0.8c1-0.6,1.4-1.7,1.7-2.7C336.8,444.8,337,444.4,337.1,444z M248,489.9L248,489.9c-0.4-9.5-5.4-18.1-5-27.8
		c0.1-1.4-1.3-1.5-2.2-1c-1.7,1.1-3.2,2.3-4.7,3.6c-0.7,0.6-0.8,1.4,0.3,1.9c6.9,3.4,5.8,10.2,6.7,16.2c-0.4,0.3-0.8,0.6-1.2,0.8
		c-0.3-0.2-0.7-0.5-1-0.7c0-0.6-0.4-0.9-1-0.8c-1-0.8-2-1.5-3-2.3c0-1.3-0.7-2-2-1.9c-2.8-1.9-4.7-4.3-4.3-8.2c-3.8,1.4-6,4-8.7,5.7
		c-1.5,1-1.9,2.2,0.1,3.4c7.9,5,14.4,11.7,21.8,17.3c0.3,0.3,0.7,0.6,1,1c0.1,0.2,0.3,0.4,0.5,0.6c0,0.6,0.3,0.9,0.9,0.9
		c0.2,0.2,0.4,0.3,0.7,0.4c0.7,1.1,1.7,2.2,3.1,1.6c0.9-0.4,0.8-1.2-0.1-1.8c-0.1-1-0.3-1.9-0.4-2.9
		C249.5,493.8,249.3,491.7,248,489.9z M409,372c-0.7,0-0.9,0.3-0.8,1c-0.1,3.3-0.6,6.7-0.1,10c0.6,4.2,2.8,8.5,7.1,9.2
		c3.6,0.5,4.9-3.5,5.5-6.8c0.6-2.9,1.8-1.9,3.4-0.9c2.1,1.3,3.9,0.6,4.9-1.6c0.9-1.9,1.3-4-1.3-5c-2.1-0.8-2.7-2.8-3.8-4.5
		c-3.8-5.8-7.2-11.7-11.2-17.4c-2-2.8-4.7-5.3-8.6-3.7c-6.4,2.6-8.3,13-3.3,17.9c0.8,0.7,1.4,2,2.9,1.2c1.4-0.7,2.1-1.7,2.2-3.4
		c0.1-2.8-2.1-3.9-3.4-5.7c-0.7-1-2.3-2.4-0.6-3.8c1.4-1.2,3.2-1.2,4.5,0.2c1.4,1.6,2.4,3.5,3.5,5.3c0,0.7,0.1,1.4,0.1,2.1
		c0,0.6,0,1.3,0.1,1.9c-0.5,1-1.7,1.8-1,3.1C409.2,371.3,409.1,371.6,409,372z M217.1,486.8c-0.4-0.3-0.7-0.6-1.1-0.9
		c-0.1-0.3-0.4-0.4-0.6-0.5c-3.6-2.6-6.9-2.3-10.1,0.7c-2.6,2.2-4.7,4.7-4.8,8.3c-0.3,10.7,4,19.1,12.9,24.9
		c5.1,3.3,12.5,1.1,15.1-4.2C232.7,506.3,226.4,490.6,217.1,486.8z M248.8,461.1c0.2,2.8-0.1,5.9,3.6,6.8c1.7,0.4,3.4,0.4,4.4-1.4
		c1.8-3.3-0.3-5.3-2.6-7.1c-2.1-1.5-2.2-3.3-0.7-5.1c1.6-1.9,4-1.5,5.3,0.1c2.8,3.2,5.5,6.4,2.7,11.5c-2.5,4.4-4.3,9.4-2.7,14.8
		c1,3.3,2.5,6,6.3,6.1c3.9,0,5.5-2.8,6-6.1c0.5-3,1.8-3.6,4.4-2.2c1.2,0.6,2.6,0.5,3.8-0.3c2.1-1.3,2.5-3.3,2.9-5.5
		c0.6-3.2-2.1-1.4-3-2.1c-2-1.4-2.8-3.7-4-5.7c-2.1-3.4-4.1-6.9-6.2-10.3c-2.5-4.2-5.7-7.6-11.2-6.6
		C253.2,448.9,248.8,455.6,248.8,461.1z M443.2,373.2c-4.6-2.1-6.1-6.5-8.3-10.3c-6.5-11-12.9-22.1-19.3-33.1
		c-1.1-1.8-1.9-4-4.9-1.8c-3.1,2.2-6.2,3.6-0.7,6.7c1.4,0.8,2.2,2.9,3.1,4.4c4.1,7,8.6,13.8,12.3,21.1c3.2,6.2,8.9,11.3,9,19.4
		C437.8,378.1,440.5,376,443.2,373.2z M405.5,389.8c-1.5,3.2-2.7,6.9-6.9,4.1c-7.7-5.3-12.5-12.7-15-21.6c-0.3-1-0.3-2,0.8-2.6
		c1.1-0.6,1.9,0.2,2.5,0.9c1.4,1.6,2.7,3.3,4.2,4.9c0.8,0.8,1.8,1.7,3.1,0.9c1.2-0.8,1.6-2.1,1.4-3.5c-0.3-3.4-5.4-8-8.6-7.8
		c-4.4,0.3-6.4,3.1-7,7.2c-1.3,9.7,7.3,25.3,16.1,29.6c4.9,2.4,8.8,0.5,10.1-4.8C407,394.6,407,392.2,405.5,389.8z M361.5,419.5
		c-2.7,6.4-5,6.9-10.1,2.1c-5-4.6-8.5-10.2-11-16.5c-0.6-1.6-1.8-3.8,0.2-5c2.1-1.2,3.2,1,4.2,2.5c0.8,1.3,1.4,2.7,2.9,3.3
		c2.4,0.9,4,0.3,4-2.5c0-3.6-5-8.3-8.7-8.4c-3.5-0.1-6.6,3.1-7.1,7.1c-1.1,9.6,7.4,25.3,16.2,29.7c4.7,2.4,8.7,0.7,10.1-4.4
		C363.1,424.9,363.2,422.1,361.5,419.5z M377.9,410.3c-1.4,4.3-3.1,4.4-5.1,1.1c-3.9-6.6-7.8-13.2-11.7-19.8
		c-1.1-1.8-1.3-3.3,0.7-4.6c1-0.7,1.7-1.7,0.9-3c-1-1.6-2.3-1.2-3.4-0.3c-2.1,1.6-3,0-3.8-1.4c-0.8-1.3-1.4-2.7-2.2-3.9
		c-0.4-0.6-1.3-1.3-1.9-1.1c-0.7,0.2-0.8,1-0.7,2c0.3,3.6,0.2,7.3,0.3,11c0,0.9-0.4,2.4,0.6,2.7c5.6,1.7,6.2,7.3,8.9,11.2
		c3.1,4.4,4.9,9.7,8.8,13.6c1.7,1.7,3.6,2.9,6.3,1.9c2.7-1.1,3-3.3,2.9-5.8C378.3,413,378.1,412,377.9,410.3z M370.5,377.2
		c-2.2,0.5-3.6,1.8-4.9,3.4c-0.6,0.7-0.6,1.4,0.1,2.2c7.5,8.9,13.3,18.8,17.4,29.8c0.4,1,0.8,1.4,1.8,1.1c2.5-0.9,5-2.3,6.3-4.6
		c1.3-2.2-2.1-1.9-2.7-3.4c-0.7-1.7-2-3.1-2.9-4.6c-3.9-6.6-7.7-13.2-11.6-19.8C373,379.6,372.2,377.9,370.5,377.2z M366.3,369
		c-0.7-2.9-1.6-6.2-5.5-6.9c-2.3-0.4-3.3,1.4-3.1,3.5c0.3,3.5,1.7,6.6,5.4,7.4C365.8,373.6,366,371.4,366.3,369z"/>
	<path class="st3" d="M430.3,417.2c1.7,0.1,3.3,0.1,5,0.2c0,0,0.1,0.4,0.1,0.4l0.4,0.1c0.1,1,0.1,2,0.2,3.1
		c-0.1,0.1-0.3,0.2-0.3,0.3c0,0.2,0.1,0.5,0.2,0.7c-1.5,15.3-3.9,30.3-9.9,44.5c-21.8,51.6-60.5,82.3-115.6,92.5
		c-4.2,0.8-8.6,1-12.8,1.7c-3,0.5-3.8-0.6-3.6-3.4c0.3-4.5-1.4-10.1,0.8-13.1c2.1-2.8,8.1-0.5,12.4-0.8c1.5-0.1,3,0.1,4.5-0.1
		c1.2-0.1,3.1,0.8,3.2-1.2c0.1-2.2-1.9-1.2-3-1.3c-4.8-0.1-9.7-0.2-14.5,0c-2.6,0.1-3.5-0.6-3.4-3.3c0.2-5.2,0.2-10.3,0-15.5
		c-0.1-2.9,0.9-3.5,3.6-3.6c2.4,0,6.8,1.5,6.9-1.2c0.1-2.7-4.4-1.4-6.7-1.2c-4,0.4-3.8-1.9-3.8-4.4c0,0,0.2-0.3,0.2-0.3l-0.2-0.2
		c0-2.5,0-4.9,0-7.4c0.4-2.3,2.4-2.9,4-3.8c1.8,8.2,6.8,11.8,14.6,10c8.7-2.1,17.4-4.6,25-9.5c3.3-2.2,4.5-0.5,4.8,2.3
		c0.3,2.6,1.4,4.8,2.4,7c1.6,3.5,4.8,5.3,8.5,4.6c3.5-0.6,3.3-4.2,3.6-6.9c0.2-1.3-0.1-2.6-0.2-4c-0.6-9.1-7.5-16-8.9-24.9
		c-0.3-1.5-1.6-4.1-4.6-3.5c-2.9,0.5-5.1,1.9-5.8,4.7c-0.7,2.9-2.1,4-5.1,4.2c-2.2,0.2-4.4,1.4-6.6,2.1c-2.2,0.8-4.3,2.3-7.4,1.4
		c1-1.3,1.8-2.4,1.8-3.8c1.1-0.9,2.2-2,3.4-2.8c17.7-13.1,35.9-25.6,54.5-37.4c11.9-7.5,23.5-15.5,36.1-21.8c0,4.7,0,9.3,0.1,14
		c0,1.4-0.5,3.4,1.9,3.1c2.1-0.2,1.3-2,1.3-3.2c0.3-5.6-0.5-11.3,0.6-16.9c1.4-0.5,2.7-1.1,4.1-1.6c1.6,0,3.2-0.1,4.8-0.1
		C428,417.8,429.1,417.7,430.3,417.2z"/>
	<path class="st3" d="M273.9,517.9c2.9,1.8,6.1,0.6,9.2,0.7c2.4,0,3.1,0.7,3,3.1c-0.2,5.5-0.2,11,0,16.5c0.1,2.3-0.7,2.8-2.9,2.8
		c-5.3-0.1-10.7-0.1-16,0c-1,0-2.7-0.6-2.5,1.4c0.1,1.3,1.5,1.1,2.4,1.1c5.2,0,10.3,0.2,15.5,0c2.6-0.1,3.7,0.5,3.5,3.3
		c-0.2,1.6,0,3.3,0,5c0,9.8,0,9.8-9.7,9.1c-15.5-1.1-30.6-4.3-45.1-10c-1.2-0.5-2.7-0.5-3.4-1.8c13.6-8.3,26.1-18.2,39.2-27.2
		C269.2,520.1,271,517.9,273.9,517.9z"/>
	<path class="st2" d="M273.9,517.9c-2.9,0.1-4.7,2.3-6.8,3.7c-13.1,9-25.6,18.9-39.2,27.2c-1-0.1-2.1-0.1-3.1-0.2
		c7-4.9,14-9.8,20.9-14.7c16-11.3,31.9-22.6,47.8-33.9c1.4-1,2.6-2,4.3-2.2c0,0.7,0,1.4-0.1,2.2c-1.7,0.9-3.6,1.5-4,3.8
		c-3.5,0.4-5.8,2.6-7.9,5.1c-3.8,1.6-6.9,4.2-9.9,6.9C275.1,516.3,274.3,516.9,273.9,517.9z"/>
	<path class="st3" d="M276,515.8c3-2.8,6.2-5.3,9.9-6.9c0,0.8-0.1,1.6,0.1,2.4c0.7,3.8-0.8,5.3-4.7,4.7
		C279.6,515.7,277.8,515.9,276,515.8z"/>
	<path class="st2" d="M183,569.1c-1.9,1.7-4.5,1.8-6.7,2.8c-2.1,0-4.2,0-6.3,0c7.3-2.7,14.5-5.9,22.1-7.8
		C190,567.4,185.3,566.1,183,569.1z"/>
	<path class="st2" d="M427,411.9c5-3.8,10-7.7,16.1-9.8C438.6,406.8,433.8,411,427,411.9z"/>
	<path class="st2" d="M207.7,557.5c3.2-3.1,7.1-4.6,11.3-5.7C216,555.3,212,556.6,207.7,557.5z"/>
	<path class="st2" d="M422.1,417.3c-1.4,0.5-2.7,1.1-4.1,1.6c-0.9,0.1-1.8,0.2-2.7,0.3c-0.2-0.2-0.3-0.3-0.5-0.5
		c2-2.1,4.5-3.1,7.2-3.8C422,415.7,422,416.5,422.1,417.3z"/>
	<path class="st2" d="M192.9,563.8c2.9-2.3,6.3-3.6,10-4C199.8,561.7,196.7,563.6,192.9,563.8z"/>
	<path class="st2" d="M218.9,551.8c1.1-2.5,3.8-2.4,5.8-3.2C223.8,551.5,221.1,551.1,218.9,551.8z"/>
	<path class="st2" d="M202.9,559.7c1-1.5,2.4-1.9,4.1-1.8C206.5,560.5,204.6,559.8,202.9,559.7z"/>
	<path class="st2" d="M422,414.9c0.9-1.6,1.9-3,4.1-2.5C425.4,414.1,423.8,414.7,422,414.9z"/>
	<path class="st2" d="M430.3,417.2c-1.1,0.6-2.3,0.6-3.4,0C428,416.6,429.1,416.6,430.3,417.2z"/>
	<polygon class="st2" points="293.8,511.1 294,511.4 293.8,511.6 293.5,511.4 	"/>
	<path class="st2" d="M435.7,417.9l-0.4-0.1c0,0-0.1-0.4-0.1-0.4C435.9,417,435.9,417.4,435.7,417.9z"/>
	<path class="st2" d="M443.9,401.8c0.4-0.2,0.8-0.5,1.2-0.7C444.7,401.3,444.3,401.6,443.9,401.8z"/>
	<path class="st2" d="M445.8,400.7c0.4-0.2,0.8-0.5,1.2-0.7C446.6,400.2,446.2,400.5,445.8,400.7z"/>
	<path class="st2" d="M435.8,421.9c-0.1-0.2-0.2-0.5-0.2-0.7c0-0.1,0.2-0.2,0.3-0.3C435.9,421.3,435.9,421.6,435.8,421.9z"/>
	<path class="st2" d="M447.8,399.7c0.4-0.2,0.8-0.5,1.2-0.7C448.6,399.2,448.2,399.4,447.8,399.7z"/>
	<path class="st2" d="M472.2,287c3-0.2,6.1-0.4,9.1-0.5c0.2,0.5,0.5,1.1,0.8,1.6c-7.9,0.9-15.2,4.4-23,5.9c0.5-1.4,2.2-1.4,3-2.2
		C465,289.1,469.6,290.3,472.2,287z"/>
	<path class="st2" d="M106.2,445.9c-3.3-6.4-3.9-13.6-5.9-20.4c-0.5-1.7-0.6-3.6-1.7-5.1c0.9-0.3,2.1-0.2,2,0.6
		c-0.2,4.9,3.6,8.8,3.4,13.7c-0.1,2.2,1,4.1,1.8,6.1C106.5,442.5,107.6,444.1,106.2,445.9z"/>
	<path class="st2" d="M485.1,288.4c-0.5,0.3-0.9,0.2-1.3-0.3C484.2,288.2,484.7,288.3,485.1,288.4z"/>
	<path class="st3" d="M201.6,453.9c-0.7-0.1-1.3-0.2-1.6,0.6c-2.8,0.2-4.8,2.1-7,3.5c-11.9,7.4-23.8,14.8-35.7,22.2
		c-1.2,0.8-2.3,1.9-4,1.5c-8.4-16.8-14-34.4-16-53.1c-1-9.7-1.1-9.5,8.4-9.4c2.9,0,3.7,0.9,3.6,3.7c-0.2,5.7-0.1,11.3-0.1,17
		c0,1.4-0.5,3.3,2,3.1c2.2-0.2,1.4-1.9,1.4-3.1c0.1-5.7,0.1-11.3,0-17c-0.1-2.7,0.6-3.8,3.6-3.7c7.3,0.2,14.7,0.2,22,0
		c2.7-0.1,3.5,0.9,3.3,3.4c-0.2,2.8-0.1,5.7,0,8.5c0,0.8,0.2,1.7,1.3,1.8c1.2,0,1.2-0.9,1.2-1.7c0-2.8,0.1-5.7,0-8.5
		c-0.1-2.5,0.6-3.5,3.4-3.5c6,0.2,12,0.2,18,0c2.9-0.1,3.7,1,3.6,3.8c-0.2,5.8-0.1,11.7,0,17.5c0,1-0.5,2.5,1.4,2.6
		c2.3,0.1,1.7-1.6,1.7-2.7c0-5.7,0.2-11.3,0-17c-0.2-3.3,0.8-4.6,4.1-4.1c2.2,0.3,4.5,0.3,4.1-3c9.6-0.1,19.2-0.2,28.9-0.3
		c0-0.7-0.1-1.4-0.1-2.1c-9.6,0-19.2,0-28.8,0c0-3.4-2.6-2.4-4.3-2.3c-3,0.2-4.1-0.9-3.9-4c0.3-4.6,0.2-9.3,0-14
		c0-1.3,1.3-3.9-1.6-3.7c-2.6,0.1-1.4,2.6-1.4,4c-0.2,4.5-0.2,9,0,13.5c0.2,3.2-0.8,4.4-4.1,4.3c-5.5-0.2-11-0.3-16.5,0
		c-3.5,0.2-4.6-0.9-4.4-4.4c0.1-2.3,1.4-6.8-1.1-6.7c-2.7,0.1-1.3,4.4-1.2,6.8c0.1,3.5-1,4.6-4.5,4.4c-6.8-0.3-13.7-0.3-20.5,0
		c-3.5,0.2-4.2-1.1-4.1-4.3c0.3-4.2,0.2-8.3,0-12.5c-0.1-1.7,1.6-4.7-1.5-4.9c-3.3-0.2-1.6,3-1.7,4.6c-0.3,3-0.1,6-0.1,9
		c0,8,0,7.8-7.8,8c-3.6,0.1-4.8-0.7-4.7-4.6c1-20.1,5.5-39.3,14.8-57.1c25.1-48.4,65.1-75.5,119-82.5c14.3-1.8,14.4-1.7,14,12.5
		c-0.1,2.9-1,3.7-3.8,3.6c-5.2-0.2-10.3,0-15.5,0c-0.9,0-2.2-0.3-2.4,1.1c-0.2,1.9,1.4,1.4,2.5,1.4c5.3,0.1,10.7,0,16,0.1
		c1.1,0,2.8-0.6,2.9,1c0.2,5.5,1,11.2-0.4,16.4c-0.7,2.6-6,0.6-9.2,1.1c-0.2,0-0.3,0-0.5,0c-0.9,0.1-2.2-0.3-2.3,1.2
		c-0.1,1.6,1.2,1.3,2.1,1.3c2.3,0,4.7,0.2,7,0c3-0.3,3.6,1,3.5,3.7c-0.2,5.5-0.3,11,0,16.5c0.2,3.6-1.2,4.1-4.3,4
		c-4.8-0.2-9.7-0.1-14.5,0c-1.2,0-3-0.6-2.9,1.5c0.1,1.8,1.7,1.1,2.7,1.2c3,0.1,6,0,9,0c10,0,10.1,0,9.9,9.7
		c-0.1,3.2,0.3,4.6,4.1,4.7c4.1,0.1,3.7-2,3.6-4.6c-0.1-2.2,0.1-4.3,0-6.5c-0.2-2.6,0.6-3.6,3.3-3.4c3.8,0.2,7.7,0.3,11.5,0
		c2-0.2,5.6,1.5,5.7-1.4c0-2.5-3.6-1-5.5-1.2c-4.8-0.3-11.3,1.5-14-0.9c-3.1-2.8-0.9-9.4-1-14.4c-0.2-8.2,0-8.2,8.2-8.9
		c0.3,0,0.7,0,1,0c0.7-0.1,1.3-0.2,1.4-1c0-0.8-0.4-1.3-1.2-1.3c-1.2-0.1-2.3-0.2-3.5,0c-5.1,0.9-6.8-1.3-6.1-6.3
		c0.6-3.9-1.7-9.1,0.9-11.5c2.5-2.4,7.6-0.3,11.6-0.8c2.8-0.3,8,1.3,7.8-1c-0.2-3.2-4.9-1.3-7.6-1.3c-13.3-0.3-13.2-0.1-12.7-13.7
		c0.1-2.5,0.9-3.3,3.2-3c1.5,0.2,3,0.1,4.5,0.2c38.8,4.1,71.7,20.1,98.2,48.9c-4.1,2.4-8.3,4.8-12.4,7.2c-26.2,15.5-51,33-75.7,50.7
		c-1.8-0.2-3.4,0.1-5.2,0.8c-2,0.7-3.4-0.2-2.7-2.9c1.7-5.9-0.2-10.8-4.7-14.6c-4.7-4-10.1-4-15.7-1.4c-2,0.9-3.6,2.6-6.4,2.1
		c-2.6-0.4-7.5,5.6-6.4,6.4c3,1.9,1.5,5.8,4.1,7.6c-0.4,0.4-0.9,0.8-1.3,1.2c-2.7,2.8-6.2,0.7-9.2,1.5c-1.4,0.3-3.1-2-4.4-0.2
		c-0.9,1.3,0,2.8,1,4.1c0.4,0.5,1.5,1.1,0,1.7c-2.2,0.8-4.6,3-6.8,0.8c-6-6-13.4-1.2-19.9-2.7c-0.3-0.1-1.2,1.1-1.1,1.4
		c2,5.9-2.6,4.3-5.3,4.6c-2.8,0.3-5.6,0.3-8.5,0.4c-0.8,0-1.8-0.2-1.9,1c-0.2,1.3,0.7,1.8,1.8,1.9c2.5,0.2,5,0.3,7.7,0.5
		c-0.9,2.5-2.6,1.6-3.6,2c-1.4,0.5-3.9-1.4-4,1.9c-0.1,3.2,1.8,3.6,4.5,3.6c5.5-0.1,11,0.2,16.5,0.1c3.8-0.1,8.4,1.7,9.8,3.6
		c2.3,3.3,6.5,6.3,5.7,11.5c-0.2,1.3,0.7,2.8,1.1,4.3c-0.7,0.7-1.4,1.4-2.1,2c-15.1,11.1-30.6,21.6-46.1,32c-1.6,1-3.8,1.5-4.1,4
		c0,0,0.1-0.1,0.1-0.1C202.2,452.8,201.9,453.2,201.6,453.9z"/>
	<path class="st0" d="M398,315.9c-26.5-28.8-59.4-44.8-98.2-48.9c-1.5-0.2-3,0-4.5-0.2c-2.3-0.3-3.1,0.5-3.2,3
		c-0.5,13.6-0.6,13.5,12.7,13.7c2.7,0.1,7.4-1.9,7.6,1.3c0.1,2.3-5.1,0.7-7.8,1c-3.9,0.5-9-1.6-11.6,0.8c-2.5,2.4-0.3,7.6-0.9,11.5
		c-0.7,5,1,7.1,6.1,6.3c1.1-0.2,2.3-0.1,3.5,0c0.7,0.1,1.2,0.5,1.2,1.3c0,0.9-0.7,1-1.4,1c-0.3,0-0.7,0-1,0
		c-8.3,0.7-8.4,0.7-8.2,8.9c0.1,4.9-2.2,11.5,1,14.4c2.7,2.4,9.2,0.6,14,0.9c1.9,0.1,5.5-1.4,5.5,1.2c0,2.9-3.7,1.3-5.7,1.4
		c-3.8,0.3-7.7,0.3-11.5,0c-2.7-0.2-3.6,0.8-3.3,3.4c0.2,2.2,0,4.3,0,6.5c0.1,2.6,0.4,4.7-3.6,4.6c-3.8-0.1-4.2-1.5-4.1-4.7
		c0.2-9.7,0.1-9.7-9.9-9.7c-3,0-6,0-9,0c-1,0-2.7,0.7-2.7-1.2c-0.1-2.2,1.8-1.5,2.9-1.5c4.8-0.1,9.7-0.2,14.5,0
		c3.1,0.1,4.5-0.4,4.3-4c-0.3-5.5-0.2-11,0-16.5c0.1-2.7-0.5-4-3.5-3.7c-2.3,0.3-4.7,0.1-7,0c-0.9,0-2.2,0.3-2.1-1.3
		c0.1-1.5,1.3-1.1,2.3-1.2c0.2,0,0.3,0,0.5,0c3.2-0.5,8.5,1.5,9.2-1.1c1.4-5.1,0.6-10.9,0.4-16.4c-0.1-1.6-1.8-1-2.9-1
		c-5.3-0.1-10.7,0-16-0.1c-1,0-2.6,0.5-2.5-1.4c0.1-1.4,1.4-1,2.4-1.1c5.2,0,10.3-0.1,15.5,0c2.7,0.1,3.7-0.7,3.8-3.6
		c0.4-14.2,0.2-14.4-14-12.5c-53.9,6.9-93.9,34.1-119,82.5c-9.2,17.8-13.8,37-14.8,57.1c-0.2,4,1,4.7,4.7,4.6c7.8-0.2,7.8,0,7.8-8
		c0-3-0.2-6,0.1-9c0.2-1.6-1.6-4.8,1.7-4.6c3.1,0.1,1.4,3.2,1.5,4.9c0.3,4.1,0.3,8.3,0,12.5c-0.2,3.2,0.6,4.4,4.1,4.3
		c6.8-0.3,13.7-0.3,20.5,0c3.5,0.1,4.6-0.9,4.5-4.4c-0.1-2.4-1.5-6.7,1.2-6.8c2.4-0.1,1.2,4.4,1.1,6.7c-0.2,3.5,0.9,4.6,4.4,4.4
		c5.5-0.3,11-0.3,16.5,0c3.4,0.2,4.3-1,4.1-4.3c-0.3-4.5-0.2-9,0-13.5c0-1.4-1.2-3.8,1.4-4c2.9-0.1,1.5,2.4,1.6,3.7
		c0.2,4.7,0.3,9.3,0,14c-0.2,3.1,0.8,4.2,3.9,4c1.7-0.1,4.3-1.2,4.3,2.3c0,0.8,0,1.5,0,2.3c0.4,3.4-1.9,3.3-4.1,3
		c-3.3-0.5-4.3,0.8-4.1,4.1c0.3,5.7,0.1,11.3,0,17c0,1.2,0.6,2.9-1.7,2.7c-1.9-0.1-1.4-1.6-1.4-2.6c-0.1-5.8-0.2-11.7,0-17.5
		c0.1-2.8-0.7-3.9-3.6-3.8c-6,0.2-12,0.2-18,0c-2.7-0.1-3.5,0.9-3.4,3.5c0.2,2.8,0.1,5.7,0,8.5c0,0.8,0,1.8-1.2,1.7
		c-1.1,0-1.3-1-1.3-1.8c-0.1-2.8-0.2-5.7,0-8.5c0.1-2.5-0.6-3.5-3.3-3.4c-7.3,0.2-14.7,0.2-22,0c-3-0.1-3.7,1.1-3.6,3.7
		c0.1,5.7,0.1,11.3,0,17c0,1.1,0.8,2.9-1.4,3.1c-2.5,0.2-2-1.7-2-3.1c0-5.7-0.1-11.3,0.1-17c0.1-2.8-0.7-3.7-3.6-3.7
		c-9.5-0.1-9.4-0.2-8.4,9.4c2,18.7,7.6,36.4,16,53.1c-4.6,4.3-9.8,7-16.3,6.4c-11.7-26.4-19-54.2-25-82.3c-6.8-32-8.6-64.5-9.4-97.1
		c-0.4-14.3-0.3-28.6-0.6-42.9c-0.1-4.1,1.3-5.1,5.1-4.7c13.2,1.3,26.5,2.2,39.8,2.3c2.6,0,5.3-0.1,7.9-0.2
		c38.7,2.8,73.9-8.2,106.8-27.7c9.1-5.4,16.5-12.8,24.2-19.7c2.6-2.4,4-3,6.7-0.2c4,4.2,8.7,7.7,12.9,11.7
		c17.8,17,39.5,25.2,63.4,28.7c10.3,1.5,20.7,2.6,31.1,3.2c6.3,1.7,12.8,1.4,19.3,2c15.6,1.4,31.3,0.5,46.9-0.2
		c3.8-0.2,5.3,0.6,5.3,4.8c-0.1,7.1,0.4,14.3,0.7,21.4c-2.5,3.3-7.2,2.1-10.1,4.8c-0.9,0.8-2.5,0.8-3,2.2c0,0,0,0,0,0
		c-1.7,0.1-3.4-0.2-4.9,0.3c-12.7,4.1-25.4,8.1-37.5,13.9C410.6,311,404.6,314.3,398,315.9z"/>
	<path class="st1" d="M537.7,369.7c9.5,8.1,18.5,15.7,27.4,23.4c0.8,0.6,1.5,1.3,2.2,2c1.4,1.1,4,1.4,3.4,3.7
		c-0.5,2.1-3.3,2-4.7,1.7c-14.6-2.8-29.1-0.5-43.5,1.2c-0.4,0-0.9-0.1-2-0.3c4.2-5.2,6.1-11.4,11-15.7
		C536,381.7,535.9,375.8,537.7,369.7z"/>
	<path class="st0" d="M255.3,414.9c-0.4-1.4-1.3-2.9-1.1-4.3c0.7-5.2-3.4-8.2-5.7-11.5c-1.4-1.9-6-3.7-9.8-3.6
		c-5.5,0.1-11-0.2-16.5-0.1c-2.7,0.1-4.6-0.4-4.5-3.6c0.1-3.3,2.6-1.3,4-1.9c1.1-0.4,2.7,0.6,3.6-2c-2.7-0.2-5.2-0.3-7.7-0.5
		c-1.1-0.1-2-0.6-1.8-1.9c0.2-1.1,1.2-0.9,1.9-1c2.8-0.1,5.7-0.1,8.5-0.4c2.7-0.3,7.3,1.3,5.3-4.6c-0.1-0.3,0.8-1.5,1.1-1.4
		c6.5,1.5,13.9-3.4,19.9,2.7c2.2,2.2,4.6,0.1,6.8-0.8c1.5-0.6,0.4-1.2,0-1.7c-1-1.2-1.9-2.8-1-4.1c1.3-1.8,3,0.5,4.4,0.2
		c3-0.7,6.5,1.4,9.2-1.5c0.1,1.8,2.6,3.5,0.5,5.4c-0.7,0.6-2.1,0.6-0.3,1.7c1.8,1.2,3.4,3,5.7,2.4c2.1-0.6-0.1-1.8,0.1-2.6
		c0.7-4.1-2.1-6-4.6-8.2c-2.6-1.8-1.1-5.7-4.1-7.6c-1.2-0.8,3.8-6.8,6.4-6.4c2.9,0.5,4.4-1.2,6.4-2.1c5.5-2.6,10.9-2.6,15.7,1.4
		c4.4,3.8,6.4,8.7,4.7,14.6c-0.8,2.7,0.7,3.6,2.7,2.9c1.8-0.6,3.4-1,5.2-0.8c-4,4.7-9.3,7.7-14.3,11.1c-1.7,1.1-2.8,2-2.7,4.1
		c-0.4,0.3-0.8,0.6-1.2,0.9c-1.4,0.1-2.4,0.8-2.8,2.2c-0.2,0.2-0.4,0.3-0.7,0.4c-2.7-0.4-3.7,1.3-4.4,3.4c-0.6,0.5-1.1,0.9-1.7,1.4
		c-1.3-0.2-2.1,0.2-2.3,1.6c-0.6,0.4-1.2,0.9-1.8,1.3c-2.8,0.6-5.1,1.8-6.2,4.7c-0.2,0.2-0.4,0.4-0.6,0.5c-0.7-0.1-1,0.2-1.1,0.8
		c0,0,0,0,0,0c-3.3,0.7-6,2.3-7.3,5.6c-0.2,0.2-0.4,0.3-0.7,0.4C259.5,411.8,258,415.1,255.3,414.9z M266.3,405.2
		c1.4-3,1.5-5.5,1.5-7.9c0-1.6,0.2-4.1-2.5-4c-2.4,0.1-2.4,2.5-2.4,4.2C263.1,400.2,264.3,402.5,266.3,405.2z"/>
	<path class="st0" d="M297.9,500c0-0.7,0-1.4,0.1-2.2c0.6-0.4,1.2-0.9,1.7-1.3c2.2,0.5,3-0.7,3.3-2.6c0.2-0.2,0.4-0.3,0.7-0.4
		c0.7,0.1,1-0.2,1.1-0.8c0.4-0.3,0.8-0.6,1.2-0.8c3.8-0.5,6.4-2.5,8.1-5.9c0.2-0.1,0.5-0.3,0.7-0.4c0.6,0,0.9-0.3,0.9-0.9
		c0,0,0.1-0.1,0.1-0.1c1.5,0.3,2.9,0.1,4.3-0.7c0,1.4-0.8,2.4-1.8,3.8c3.1,0.8,5.2-0.7,7.4-1.4c2.2-0.7,4.3-1.9,6.6-2.1
		c3-0.2,4.4-1.4,5.1-4.2c0.7-2.8,2.9-4.2,5.8-4.7c3-0.5,4.4,2,4.6,3.5c1.5,8.9,8.3,15.8,8.9,24.9c0.1,1.3,0.3,2.7,0.2,4
		c-0.3,2.7-0.1,6.3-3.6,6.9c-3.7,0.7-6.9-1.1-8.5-4.6c-1-2.2-2.1-4.4-2.4-7c-0.3-2.8-1.5-4.5-4.8-2.3c-7.6,5-16.2,7.4-25,9.5
		C304.6,511.8,299.6,508.2,297.9,500z"/>
	<path class="st0" d="M302.6,423c0.4,0.7,0.8,1.4,1.2,2.1c0,0.9,0.3,1.5,1.2,1.8c4.5,7.5,9,15.1,13.5,22.6c1.5,2.4,3,4.7,7.9,3.2
		c-4.8,3.9-8.2,6.7-12.7,8c-2.9-11.2-10.6-20-15.8-30c-2.1-4.1-4.8-7.9-7.1-12c-2.2-4-4.1-3.8-6.2,0c-1.1,0.8-1.1,1.8-0.9,3
		c0,0.4,0,0.8,0.1,1.2c-0.5,1.2,0.5,2.8-0.8,3.9c0,0,0,0,0,0c-0.2-0.3-0.3-0.7-0.5-1c-0.5-0.9-1.1-1.9-1.6-2.8
		c-0.3-0.4-0.5-0.8-0.8-1.1c-1-1.6-2.3-3.2-0.1-4.9c0.4-0.2,0.7-0.5,1.1-0.7c0.2-0.2,0.5-0.3,0.8-0.4c0.4-0.2,0.8-0.5,1.2-0.7
		c0,0,0.1-0.1,0.1-0.1c0.9,0.1,1.5-0.3,1.7-1.2c5.4-3.7,10.7-7.5,16.1-11.2c0.6,1.3,1.8,1.4,3,1.3c0,0,0,0,0,0
		c0.3,0.3,0.5,0.7,0.8,1c0.2,0.2,0.3,0.5,0.4,0.7c-0.1,1.6-1.1,2.3-2.5,2.6c-0.3,0-0.5-0.1-0.7-0.2c-0.9-1.3-1.9-1.4-2.9-0.1
		c-0.2,0.1-0.5,0.2-0.7,0.3c-0.7-0.2-1,0.1-1.2,0.7c0,0,0,0,0,0c-0.6,0-1,0.4-1,1c0,0,0,0,0,0c-0.8,0.1-1.1,0.4-0.3,1
		c0.4,1,0.9,1.9,1.3,2.9c0.2,0.4,0.5,0.8,0.7,1.2c0.4,0.7,0.7,1.4,1.1,2c-0.1,0.9,0.1,1.6,1,1.9c0,0,0,0.1,0,0.1
		c0.3,0.3,0.6,0.7,0.9,1c0.2,0.2,0.3,0.4,0.4,0.7c-0.1,0.6,0.1,1,0.7,1.2c0,0,0,0,0,0C302.2,422.3,302.4,422.6,302.6,423z"/>
	<path class="st0" d="M157.9,509c-0.3-0.2-0.5-0.4-0.7-0.6c-0.3-0.2-0.7-0.4-1-0.6c0,0-0.1,0-0.1,0c-2-1.3-2.4-2.9-1.1-4.9
		c4.2-5.1,8.7-4.4,13.8-1.1c4.5,2.8,9.4,4.9,14.2,7.2c0.4,0.2,0.8,0.5,1.2,0.7c0,0,0.1,0,0.1,0c0.1,0.8,0.3,0.9,0.8,0.3
		c0.7,0.3,1.3,0.6,2,0.9c2.5,2.8,5.6,3.8,9.3,2.7c2.9,4.6,5.8,9.3,8.6,13.9c0.6,0.9,1.7,1.9,0.5,3c-0.9,0.8-1.8-0.1-2.7-0.5
		c-11.5-5.5-23-11-34.5-16.5c-2.1-4.7-5-2.2-7.8-0.9c-0.5-0.9-1-1.7-1.5-2.6C158.8,509.4,158.5,509.1,157.9,509z"/>
	<path class="st0" d="M215.4,485.4c0.3,0.1,0.5,0.3,0.6,0.5c0.1,0.7,0.4,0.9,1.1,0.9c9.4,3.8,15.7,19.5,11.4,28.3
		c-2.6,5.3-10,7.5-15.1,4.2c-8.9-5.8-13.2-14.3-12.9-24.9c0.1-3.6,2.2-6.1,4.8-8.3C208.6,485.7,211.9,484.5,215.4,485.4z
		 M208.2,488.3c-3,0.7-4.3,2.8-2.9,5.4c3.8,7.3,7.5,14.8,13,21.1c1.3,1.4,2.9,3.3,5.1,1.8c2-1.3,1.8-3.5,0.9-5.4
		c-3.4-7.2-7-14.3-12-20.6C211,488.9,209.4,489.2,208.2,488.3z"/>
	<path class="st0" d="M248.8,461.1c0-5.5,4.4-12.2,9-13.1c5.4-1,8.6,2.4,11.2,6.6c2.1,3.4,4,6.9,6.2,10.3c1.2,2,2.1,4.2,4,5.7
		c1,0.7,3.6-1.1,3,2.1c-0.4,2.2-0.8,4.2-2.9,5.5c-1.3,0.8-2.6,0.9-3.8,0.3c-2.6-1.3-3.9-0.7-4.4,2.2c-0.6,3.3-2.2,6.2-6,6.1
		c-3.8,0-5.3-2.8-6.3-6.1c-1.6-5.4,0.2-10.4,2.7-14.8c2.9-5.1,0.1-8.3-2.7-11.5c-1.3-1.6-3.7-2-5.3-0.1c-1.5,1.8-1.4,3.6,0.7,5.1
		c2.4,1.7,4.4,3.8,2.6,7.1c-1,1.8-2.7,1.8-4.4,1.4C248.7,467,249,463.9,248.8,461.1z M264.5,464.3c-1.5,4.4-1.9,8.1,0.5,11.7
		c0.9,1.3,2.1,2.4,3.7,1.6c1.7-0.8,2.4-2.5,1.6-4.2C269,470.3,267.5,467.2,264.5,464.3z"/>
	<path class="st0" d="M410,363.9c-1.2-1.8-2.2-3.7-3.5-5.3c-1.2-1.4-3-1.4-4.5-0.2c-1.7,1.4-0.1,2.8,0.6,3.8
		c1.3,1.8,3.5,2.9,3.4,5.7c-0.1,1.8-0.8,2.7-2.2,3.4c-1.5,0.8-2.1-0.5-2.9-1.2c-5-4.9-3.1-15.3,3.3-17.9c4-1.6,6.7,0.9,8.6,3.7
		c3.9,5.7,7.4,11.6,11.2,17.4c1.1,1.6,1.6,3.6,3.8,4.5c2.5,1,2.1,3.1,1.3,5c-1,2.2-2.8,2.9-4.9,1.6c-1.6-1-2.8-2-3.4,0.9
		c-0.6,3.2-1.9,7.3-5.5,6.8c-4.4-0.6-6.5-4.9-7.1-9.2c-0.5-3.2,0-6.6,0.1-10c0.3-0.3,0.5-0.7,0.8-1c0.1-0.3,0.1-0.7,0.2-1
		c1.9-0.6,2.4-1.5,1-3.1c0-0.6,0-1.3-0.1-1.9c0.6-0.2,1.4-0.3,1.3-1.1C411.4,364.1,410.7,363.9,410,363.9z M414.9,371L414.9,371
		c0.1-1.4-0.6-2.8-1.8-2.5c-2,0.5-1.1,2.3-0.8,3.7c-0.6,2.7,0.2,5.3,1,7.8c0.5,1.7,2.1,3.4,4.1,2.7c2.4-0.7,1.8-2.9,1.3-4.6
		c-0.4-1.4-1.4-2.6-2.2-3.9C416.9,372.7,417.1,371.2,414.9,371z"/>
	<path class="st0" d="M325.4,435.8c-0.3-2.4,0.2-4.7,1.3-6.8c2.4-4.8,0.9-8.9-2-12.9c-1.4-2-3.3-3.3-5.4-1.6c-2.2,1.7-0.7,3.7,0.9,5
		c2.4,1.9,4,4.1,2.7,7.3c-0.5,1.3-1.7,1.8-2.9,1.3c-2.8-1.2-4.2-3.6-4.8-6.6c-0.8-4.3,1.9-10.7,4.9-11.7c4.4-1.5,8.7,0.3,11.7,5.2
		c3.1,5.1,6,10.3,9.1,15.5c0.9,1.5,1.5,3.8,3.4,4c3.7,0.5,2.6,2.9,2.1,4.8c-0.6,2.6-2.7,2.9-5.2,2.7c-1.1-0.1-2.2-3.1-3.4-0.1
		c-0.8,0.5-1,1.2-0.8,2.1c0,0,0,0.1,0,0.1c-0.6,0.3-0.8,0.6-0.4,1.2c-0.3,1.1-0.7,2.1-1.7,2.7c-0.8-0.2-1.6,0-2,0.8
		c-2.5-0.2-3.8-1.9-5-3.7C326.5,442,328.1,438.3,325.4,435.8z M335.8,435c-2.1-2.5-2.8-6.1-5.8-8.5c-1.6,3.8-0.3,6.8,0.2,9.9
		c0.6,3.8,2.4,5,5.8,2.6C337.6,437.5,337.5,436.2,335.8,435z"/>
	<path class="st2" d="M293,388.9c-0.1-2,1-2.9,2.7-4.1c5-3.3,10.3-6.4,14.3-11.1c24.7-17.7,49.5-35.2,75.7-50.7
		c4.1-2.4,8.2-4.8,12.4-7.2c6.6-1.6,12.5-4.9,18.6-7.8c12.1-5.8,24.8-9.8,37.5-13.9c1.5-0.5,3.3-0.2,4.9-0.3
		c-2.3,2.7-5.7,2.5-8.6,3.3c-18,5.1-34.9,12.8-51.4,21.4c-31.6,16.4-60.3,37.4-89.1,58.2C304.3,380.9,299.2,385.6,293,388.9z"/>
	<path class="st0" d="M443.2,373.2c-2.7,2.9-5.4,4.9-8.9,6.4c-0.2-8.1-5.9-13.2-9-19.4c-3.7-7.2-8.1-14.1-12.3-21.1
		c-0.9-1.6-1.7-3.6-3.1-4.4c-5.4-3.1-2.3-4.5,0.7-6.7c3-2.1,3.8,0.1,4.9,1.8c6.5,11,12.8,22.1,19.3,33.1
		C437.1,366.6,438.6,371,443.2,373.2z"/>
	<path class="st0" d="M405.5,389.8c1.4,2.4,1.5,4.8,0.8,7.3c-1.4,5.3-5.2,7.2-10.1,4.8c-8.8-4.3-17.4-20-16.1-29.6
		c0.5-4,2.5-6.9,7-7.2c3.3-0.2,8.3,4.5,8.6,7.8c0.1,1.4-0.2,2.7-1.4,3.5c-1.2,0.8-2.3-0.1-3.1-0.9c-1.5-1.6-2.8-3.3-4.2-4.9
		c-0.7-0.8-1.4-1.5-2.5-0.9c-1.1,0.6-1,1.6-0.8,2.6c2.4,9,7.3,16.4,15,21.6C402.8,396.7,404,393,405.5,389.8z"/>
	<path class="st0" d="M361.5,419.5c1.6,2.6,1.6,5.3,0.8,8c-1.5,5-5.5,6.7-10.1,4.4c-8.8-4.4-17.3-20.1-16.2-29.7
		c0.5-4,3.6-7.2,7.1-7.1c3.7,0.1,8.7,4.8,8.7,8.4c0,2.8-1.6,3.4-4,2.5c-1.5-0.6-2.1-2-2.9-3.3c-0.9-1.5-2.1-3.7-4.2-2.5
		c-2,1.1-0.9,3.3-0.2,5c2.5,6.3,6,11.8,11,16.5C356.5,426.4,358.9,425.9,361.5,419.5z"/>
	<path class="st0" d="M377.9,410.3c0.2,1.7,0.4,2.7,0.5,3.6c0.1,2.4-0.2,4.7-2.9,5.8c-2.6,1.1-4.6-0.1-6.3-1.9
		c-3.8-3.9-5.7-9.2-8.8-13.6c-2.7-3.9-3.4-9.5-8.9-11.2c-1-0.3-0.6-1.8-0.6-2.7c-0.1-3.7,0-7.3-0.3-11c-0.1-1,0-1.8,0.7-2
		c0.5-0.1,1.5,0.6,1.9,1.1c0.9,1.2,1.4,2.6,2.2,3.9c0.9,1.4,1.7,3,3.8,1.4c1.1-0.9,2.4-1.3,3.4,0.3c0.8,1.3,0.1,2.3-0.9,3
		c-2,1.3-1.8,2.8-0.7,4.6c3.9,6.6,7.8,13.2,11.7,19.8C374.7,414.8,376.4,414.6,377.9,410.3z"/>
	<path class="st2" d="M320,483.8c-1.3,0.8-2.8,1-4.3,0.7c7-5.5,13.8-11.3,21.1-16.3c15.4-10.6,31-21.1,46.8-31.1
		c10.2-6.4,20.2-13.2,31.2-18.4c0.2,0.2,0.3,0.3,0.5,0.5c-0.6,0.8,0,2.1-1.2,2.6c-12.6,6.3-24.3,14.2-36.1,21.8
		c-18.6,11.8-36.8,24.3-54.5,37.4C322.2,481.9,321.1,482.9,320,483.8z"/>
	<path class="st0" d="M240.8,483c0.3,0.2,0.7,0.5,1,0.7c0.1,0.3,0.4,0.5,0.7,0.6c1.6,2.1,5.1,2.3,5.4,5.6c0,0,0,0,0,0
		c-0.2,2.2-0.3,4.4,1.5,6.1c0.1,1,0.3,1.9,0.4,2.9c-1,0.1-2,0.1-3.1,0.2c-0.3,0-0.5-0.2-0.7-0.4c-0.3-0.3-0.6-0.6-0.9-0.9
		c-0.2-0.2-0.4-0.3-0.5-0.6c0-0.7-0.3-1-1-1c-7.4-5.6-13.9-12.3-21.8-17.3c-2-1.2-1.6-2.4-0.1-3.4c2.8-1.8,5-4.4,8.7-5.7
		c-0.4,3.9,1.5,6.3,4.3,8.2c0.1,1.2,0.7,1.9,2,1.9c1,0.8,2,1.5,3,2.3C240.2,482.5,240.5,482.7,240.8,483z"/>
	<path class="st0" d="M370.5,377.2c1.8,0.7,2.6,2.4,3.5,3.9c3.9,6.6,7.7,13.2,11.6,19.8c0.9,1.6,2.2,3,2.9,4.6
		c0.6,1.5,4,1.2,2.7,3.4c-1.3,2.3-3.8,3.7-6.3,4.6c-0.9,0.3-1.4-0.1-1.8-1.1c-4.1-10.9-9.9-20.8-17.4-29.8c-0.7-0.8-0.7-1.4-0.1-2.2
		C366.8,379,368.3,377.7,370.5,377.2z"/>
	<path class="st2" d="M160.4,512.7c2.8-1.4,5.7-3.9,7.8,0.9c-1.2-0.1-2.5-0.2-4.4-0.4c2.4,4.1,4.5,7.8,6.6,11.4
		c2.4,4.3,5.2,8.4,7.5,12.8c1.6,3.2,4.6,7,10.1,4.5c-2.5,4.8-6.4,6.7-10.9,8.9c3.7-11.2-5.8-16.8-9.2-24.8
		C165.7,521.4,162.1,517.6,160.4,512.7z"/>
	<path class="st2" d="M255.3,414.9c2.8,0.2,4.2-3,7-2.7c-4,5-9.8,7.7-14.8,11.5c-13,10-26.8,18.8-40.5,27.8
		c-1.3,0.8-2.5,1.7-4.1,1.4c0.3-2.4,2.6-2.9,4.1-4c15.5-10.4,31-20.9,46.1-32C253.9,416.3,254.6,415.5,255.3,414.9z"/>
	<path class="st2" d="M196.3,513.6c-3.7,1.1-6.7,0-9.3-2.7c1.3-0.5,2.8,1.3,3.7,0c0.9-1.3-0.5-2.4-1.2-3.5c-2.8-4.5-5.7-9-8.3-13.6
		c-1.8-3.1-4.7-3.3-7.9-3.1c0.3-3.1,2.8-3.9,4.6-5.1c2.1-1.3,4.6-3.7,4.4,2.1c-0.1,3,2.7,6.2,4.4,9.1
		C189.9,502.4,193.7,507.7,196.3,513.6z"/>
	<path class="st2" d="M247.9,489.9c-0.3-3.3-3.8-3.5-5.4-5.6c0.1-0.1,0.3-0.3,0.4-0.4c0.8-0.4,1.1-0.7,0-1.1l0,0
		c-0.8-6,0.3-12.7-6.7-16.1c-1-0.5-1-1.3-0.3-1.9c1.5-1.3,3-2.6,4.7-3.6c0.9-0.6,2.2-0.4,2.2,1C242.6,471.8,247.6,480.4,247.9,489.9
		z"/>
	<path class="st0" d="M366.3,369c-0.3,2.3-0.6,4.6-3.1,4c-3.7-0.8-5.1-3.9-5.4-7.4c-0.2-2.1,0.8-3.9,3.1-3.5
		C364.8,362.8,365.7,366.1,366.3,369z"/>
	<path class="st2" d="M314,485.9c-1.6,3.4-4.3,5.4-8.1,5.9C308.1,489.1,310.6,487,314,485.9z"/>
	<path class="st2" d="M154.9,502.8c-1.3,2-0.9,3.6,1.1,4.9c-0.2,0-0.3,0.1-0.5,0.1c-1.8-0.4-4.8,0.9-5.2-1.3
		C150.1,504.5,152.9,503.4,154.9,502.8z"/>
	<path class="st2" d="M262.9,411.7c1.3-3.3,4-4.9,7.3-5.6C268.4,408.9,266,410.7,262.9,411.7z"/>
	<path class="st2" d="M325.4,435.8c2.7,2.5,1.2,6.3,2.5,9.2C325,442.5,324.7,439.2,325.4,435.8z"/>
	<path class="st2" d="M283.1,426.8c1.3-1.1,0.4-2.6,0.8-3.9c1.7,2.5,1.7,5.4,2.4,8.2C284.7,430,283.2,428.9,283.1,426.8z"/>
	<path class="st2" d="M302.7,408.3c1.4-0.3,2.4-1,2.5-2.6c2,1.4,2.8,3.4,3,5.9C305.5,411.4,304.1,409.9,302.7,408.3z"/>
	<path class="st2" d="M271.9,404.7c1.1-2.9,3.4-4.1,6.2-4.7C276.9,402.7,274.6,404,271.9,404.7z"/>
	<path class="st2" d="M215.4,485.4c-3.4-0.9-6.8,0.3-10.1,0.7C208.5,483.2,211.8,482.8,215.4,485.4z"/>
	<path class="st2" d="M283.9,395.7c0.7-2.1,1.8-3.8,4.4-3.4C287.3,394,286.2,395.6,283.9,395.7z"/>
	<path class="st2" d="M249.4,496c-1.8-1.7-1.7-3.9-1.5-6.1C249.3,491.7,249.5,493.8,249.4,496z"/>
	<path class="st2" d="M303,493.9c-0.3,1.9-1.1,3.1-3.3,2.6C300.3,495.1,301.3,494,303,493.9z"/>
	<path class="st2" d="M246.8,499.1c1-0.1,2-0.1,3.1-0.2c0.9,0.6,1,1.4,0.1,1.8C248.5,501.2,247.6,500.2,246.8,499.1z"/>
	<path class="st2" d="M410.2,367.8c1.5,1.6,0.9,2.6-1,3.1C408.5,369.6,409.7,368.8,410.2,367.8z"/>
	<path class="st2" d="M304,403.9c-1.2,0.1-2.4,0.1-3-1.3C302.8,401,303.5,402.3,304,403.9z"/>
	<path class="st2" d="M410,363.9c0.7,0,1.4,0.2,1.4,1c0.1,0.8-0.7,0.9-1.3,1.1C410.1,365.3,410.1,364.6,410,363.9z"/>
	<path class="st2" d="M289,391.9c0.4-1.4,1.4-2,2.8-2.2C291.3,391,290.5,391.9,289,391.9z"/>
	<path class="st2" d="M236.9,480c-1.3,0-1.9-0.7-2-1.9C236.2,478,236.9,478.6,236.9,480z"/>
	<path class="st2" d="M279.9,398.7c0.2-1.4,1-1.8,2.3-1.6C281.9,398.2,281.1,398.8,279.9,398.7z"/>
	<path class="st2" d="M283.9,421.8c-0.3-1.2-0.3-2.2,0.9-3C285,419.9,284.9,421,283.9,421.8z"/>
	<path class="st2" d="M299,407.9c1-1.3,2-1.2,2.9,0.1C301,408,300,408,299,407.9z"/>
	<path class="st2" d="M201.6,453.9c0.3-0.6,0.6-1.1,1.4-1.1C203,453.7,202.8,454.5,201.6,453.9z"/>
	<path class="st2" d="M333,448.7c0.5-0.8,1.2-0.9,2-0.8C334.6,449,333.9,449.1,333,448.7z"/>
	<path class="st2" d="M337.1,443.9c-0.3-0.9-0.1-1.6,0.8-2.1C338.2,442.7,337.9,443.4,337.1,443.9z"/>
	<path class="st2" d="M305,426.9c-0.8-0.3-1.2-0.9-1.2-1.8C304.7,425.4,305.1,426,305,426.9z"/>
	<path class="st2" d="M300,418.8c-0.9-0.3-1.1-1-1-1.9C299.7,417.4,300.1,418,300,418.8z"/>
	<path class="st2" d="M284.9,413.8c-0.2,0.9-0.8,1.3-1.7,1.2C283.3,414,284,413.8,284.9,413.8z"/>
	<path class="st2" d="M184.1,509.7c-0.4-0.2-0.8-0.5-1.2-0.7C183.3,509.2,183.7,509.5,184.1,509.7z"/>
	<path class="st2" d="M185,510c-0.5,0.6-0.8,0.5-0.8-0.3C184.5,509.6,184.8,509.7,185,510z"/>
	<path class="st2" d="M245.2,497.8c0.3,0.3,0.6,0.6,0.9,0.9C245.5,498.7,245.2,498.4,245.2,497.8z"/>
	<path class="st2" d="M156.1,507.8c0.3,0.2,0.7,0.4,1,0.6C156.6,508.6,156.3,508.4,156.1,507.8z"/>
	<path class="st2" d="M243.7,496.2c0.7,0,1,0.3,1,1C244.4,496.9,244,496.5,243.7,496.2z"/>
	<path class="st2" d="M304.7,492.6c-0.1,0.7-0.4,0.9-1.1,0.8C304,493.1,304.4,492.9,304.7,492.6z"/>
	<path class="st2" d="M157.9,509c0.7,0.1,1,0.5,0.9,1.1C158.5,509.7,158.2,509.3,157.9,509z"/>
	<path class="st2" d="M270.2,406.1c0.1-0.7,0.4-1,1.1-0.8C270.9,405.5,270.6,405.8,270.2,406.1z"/>
	<path class="st2" d="M297.1,409c0.2-0.6,0.5-0.9,1.2-0.7C297.9,408.5,297.5,408.7,297.1,409z"/>
	<path class="st2" d="M296.1,410c0-0.7,0.4-1,1-1C296.7,409.3,296.4,409.6,296.1,410z"/>
	<path class="st2" d="M295.8,410.9c-0.8-0.6-0.5-0.8,0.3-1C296,410.3,295.9,410.6,295.8,410.9z"/>
	<path class="st2" d="M304.8,405c-0.3-0.3-0.5-0.7-0.8-1C304.6,404,304.9,404.4,304.8,405z"/>
	<path class="st2" d="M297.8,415c-0.2-0.4-0.5-0.8-0.7-1.2C297.7,414,297.9,414.4,297.8,415z"/>
	<path class="st2" d="M283.1,415.1c-0.4,0.2-0.8,0.5-1.2,0.7C282.1,415.2,282.5,414.9,283.1,415.1z"/>
	<path class="st2" d="M281.1,416.1c-0.4,0.2-0.7,0.5-1.1,0.7C280.1,416.3,280.5,416,281.1,416.1z"/>
	<path class="st2" d="M300.9,419.9c-0.3-0.3-0.6-0.7-0.9-1C300.3,419.3,300.6,419.6,300.9,419.9z"/>
	<path class="st2" d="M302,421.9c-0.6-0.2-0.9-0.6-0.7-1.2C301.5,421.1,301.7,421.5,302,421.9z"/>
	<path class="st2" d="M280.2,421.8c0.3,0.4,0.5,0.8,0.8,1.1C280.3,422.8,280.1,422.4,280.2,421.8z"/>
	<path class="st2" d="M302.6,423c-0.2-0.4-0.4-0.7-0.6-1.1C302.6,422.1,302.8,422.4,302.6,423z"/>
	<path class="st2" d="M282.6,425.8c0.2,0.3,0.3,0.7,0.5,1C282.5,426.6,282.2,426.4,282.6,425.8z"/>
	<path class="st2" d="M336.7,445.2c-0.4-0.6-0.2-1,0.4-1.2C337,444.4,336.8,444.8,336.7,445.2z"/>
	<path class="st2" d="M240.8,483c-0.3-0.3-0.7-0.5-1-0.8C240.5,482.1,240.8,482.4,240.8,483z"/>
	<path class="st2" d="M242.6,484.3c-0.3-0.1-0.6-0.3-0.7-0.6c0.4-0.3,0.8-0.6,1.2-0.8c0,0,0,0,0,0c0,0.4,0,0.7,0,1.1
		C242.8,484.1,242.7,484.2,242.6,484.3z"/>
	<path class="st2" d="M409,372c-0.3,0.3-0.5,0.7-0.8,1C408.1,372.3,408.4,372,409,372z"/>
	<path class="st2" d="M315.6,484.6c0,0.6-0.3,0.9-0.9,0.9C315,485.3,315.3,484.9,315.6,484.6z"/>
	<path class="st2" d="M217.1,486.8c-0.6,0-1-0.3-1.1-0.9C216.4,486.2,216.7,486.5,217.1,486.8z"/>
	<path class="st0" d="M414.1,421.8c1.2-0.5,0.7-1.8,1.2-2.6c0.9-0.1,1.8-0.2,2.7-0.3c-1.1,5.6-0.2,11.3-0.6,16.9
		c-0.1,1.2,0.8,3-1.3,3.2c-2.4,0.2-1.9-1.7-1.9-3.1C414.1,431.2,414.1,426.5,414.1,421.8z"/>
	<path class="st4" d="M220.2,416.1c0-0.8,0-1.5,0-2.3c9.6,0,19.2,0,28.8,0c0,0.7,0.1,1.4,0.1,2.1C239.4,415.9,229.8,416,220.2,416.1
		z"/>
	<path class="st5" d="M273.1,371.8c2.5,2.2,5.3,4.1,4.6,8.2c-0.1,0.8,2,2-0.1,2.6c-2.3,0.6-3.9-1.2-5.7-2.4
		c-1.8-1.2-0.3-1.1,0.3-1.7c2.1-1.9-0.3-3.6-0.5-5.4C272.2,372.6,272.6,372.2,273.1,371.8z"/>
	<path class="st5" d="M266.3,405.2c-2-2.7-3.3-5-3.3-7.7c0-1.8-0.1-4.1,2.4-4.2c2.6-0.2,2.5,2.3,2.5,4
		C267.8,399.7,267.7,402.2,266.3,405.2z"/>
	<path class="st1" d="M208.2,488.3c1.2,0.9,2.8,0.6,4.1,2.2c5,6.3,8.6,13.4,12,20.6c0.9,1.9,1.1,4.1-0.9,5.4
		c-2.2,1.5-3.8-0.4-5.1-1.8c-5.5-6.3-9.2-13.7-13-21.1C203.9,491,205.2,489,208.2,488.3z"/>
	<path class="st1" d="M264.5,464.3c3,2.9,4.5,6,5.9,9.1c0.8,1.7,0,3.4-1.6,4.2c-1.7,0.9-2.9-0.3-3.7-1.6
		C262.6,472.5,263,468.7,264.5,464.3z"/>
	<path class="st1" d="M416.6,374.2c0.7,1.3,1.7,2.5,2.2,3.9c0.5,1.7,1.1,3.9-1.3,4.6c-2.1,0.6-3.6-1-4.1-2.7c-0.8-2.5-1.5-5.1-1-7.8
		c0.7-0.7,1.1-2.1,2.5-1.2c0,0,0,0,0,0C414.9,372.4,415.5,373.4,416.6,374.2z"/>
	<path class="st2" d="M414.9,370.9c-1.5-0.9-1.8,0.5-2.5,1.2c-0.3-1.4-1.2-3.2,0.8-3.7C414.3,368.2,415,369.6,414.9,370.9z"/>
	<path class="st2" d="M416.6,374.2c-1.2-0.8-1.7-1.8-1.7-3.2C417.1,371.2,416.9,372.7,416.6,374.2z"/>
	<path class="st1" d="M335.9,438.9c-3.4,2.4-5.2,1.3-5.8-2.6c-0.5-3.1-1.8-6.1-0.2-9.9c3,2.4,3.7,6,5.8,8.5
		C335.9,436.3,335.9,437.6,335.9,438.9z"/>
	<path class="st2" d="M335.9,438.9c0-1.3,0-2.6-0.1-3.9C337.5,436.2,337.6,437.5,335.9,438.9z"/>
	<path class="st1" d="M243,483.9c0-0.4,0-0.7,0-1.1C244.1,483.2,243.7,483.6,243,483.9z"/>
</g>
</svg>
