<?xml version="1.0" encoding="utf-8"?>
<!-- Generator: Adobe Illustrator 22.0.1, SVG Export Plug-In . SVG Version: 6.00 Build 0)  -->
<svg version="1.1" id="Layer_1" xmlns="http://www.w3.org/2000/svg" xmlns:xlink="http://www.w3.org/1999/xlink" x="0px" y="0px"
	 viewBox="0 0 657.5 409.2" style="enable-background:new 0 0 657.5 409.2;" xml:space="preserve">
<style type="text/css">
	.st0{fill:#8B7FDF;}
</style>
<g>
	<path class="st0" d="M645.1,135.8c-4.8-16-12.3-30.3-24.8-41.3C601.8,78.2,580,69,555.4,66.3c-36.2-4-68.5,4.1-94.8,30.5
		c-17.1,17.2-27.4,37.8-29.3,62.3c-0.5,6.8-0.8,13.6,0,20.5c0.4,3.2,0,4.9-3.8,2.6c-4.4-2.6-9.3-4.4-14.4-5.4
		c-15.9-3.2-32.1-3.4-48.2-4c-8.8-0.3-17.6-1.3-25.8-5.2c-6.6-3.2-7-7-1.8-12.2c4.7-4.6,10.1-6.9,16.5-7.1c7.3-0.3,14.7-1,21.7-3
		c26-7.2,43.6-24.4,53.8-48.8c7.1-16.8,6-34.1-1.9-50.8c-2.8-5.8-1.7-7.4,4.8-7.7c6.3-0.2,12.7-0.2,19-0.2c3.7,0,7.3-0.8,10.7-2.2
		c3.6-1.6,5.2-4.6,3.3-8.1c-2.8-5.3-6.6-10.1-11.5-13.6c-4.1-2.9-8.5-3.4-13.2-0.9c-7.1,3.7-14.2,7.3-21.3,10.9
		c-3.6,1.9-7.2,1.9-11,0c-12.9-6.2-26.5-9.5-40.7-11.1c-27.1-3-51.1,3.7-70.5,22.9c-18,17.8-26.7,39.4-22,65.2
		c0.7,3.7,1.7,7.3,2.6,10.9c3.4,5.9,6.8,11.8,10.2,17.7c2-0.3,2.9,1.6,3.8,2.6c5.6,6.2,12.8,9.3,20.5,11.8c1.5,0.5,3.6,0.9,3.8,2.8
		c0.1,1.6-2,2-3.2,2.8c-13.4,8.3-15.3,20.7-5,32.6c3.9,4.5,3.9,4.6-1.4,7.3c-6,3.1-11.1,7.2-16,11.7c-0.9,0.9-1.8,3.8-4,1.2
		c-3.2,1.2-2.8,4.5-3.9,6.9c-1.5,3-3.9,5.6-4.6,9c-2.1,4-3.2,8.5-3.8,12.9c-2.7,19.8,0,31.6,19,42.4c12.5,7.1,26.4,9.9,40.6,11.1
		c29.2,2.4,57.6-0.3,84.1-13.8c12.1-6.2,22.3-14.6,27.6-27.7c1.9-4.8,2.7-9.8,3.8-14.9c0.6,0.2,1,0.3,1.2,0.5
		c0.6,0.6,1.2,1.2,1.7,1.8c11.5,13.9,25.8,23.9,42.6,30.2c14.8,5.6,30.4,6.8,46.1,7.8c20.2,1.2,39.2-2.9,56.3-13.7
		C634.5,230.9,658.7,181.6,645.1,135.8z M310.2,83.4c-2.8-16.9,1.6-32,15.1-43c24.2-19.8,58.9-9.3,70,20.7
		c2.7,7.2,4.5,14.6,4.3,20.8c0.9,33.6-33.1,56.9-61.2,43.2C321.3,116.8,313.2,101.4,310.2,83.4z M414.8,230.5
		c-1.1,12-6.8,21-17.9,26.3c-10.6,5.1-21.7,7.1-30.1,6.8c-19.4-0.1-34.9-2.7-48.6-11.5c-9.2-5.9-15.5-13.6-13.9-25.6
		c1.9-14.4,19.1-27.6,33.4-25.7c18.1,2.3,36.3,4.5,54.5,6.7C405.4,209.1,415.8,219.4,414.8,230.5z M599.7,212.4
		c-9.4,19.7-25.9,30.5-46.3,35.5c-33.1,8.1-59.1-9.3-73.7-39.4c-7.6-15.6-10.5-32.2-9.3-49.4c1-13.6,3.4-27.2,10.3-39.2
		c10.1-17.6,24.8-29.7,44.6-35.1c4.1-1.1,8.6-0.9,11.3-1.1c23.6,0.7,42.9,7.4,56.1,26.1c11.1,15.7,17,33.5,17.4,52.8
		C610.5,180,607.2,196.7,599.7,212.4z"/>
	<path d="M287,199.6c8.6-21.4,11.1-42.9,2-64.8c-0.6-1.6-1.7-3.3-1.1-5.2c-3.4-5.9-6.8-11.8-10.2-17.7c-7-7.1-13.7-14.5-22.8-19.2
		c-25.6-13.4-52.4-15.2-80-7.8c-58,15.4-84.9,80.2-54.7,132c2.1,3.6,1.3,5.4-2,7.1c-5.8,3-11.9,5.3-18.3,6.4
		c-12.2,2.1-23.2-3.8-26.2-14.1c-2.9-10.1-4.8-20.4-5.8-30.8c-1.5-15.9-2.7-31.9-3.8-47.8c-0.4-5.1-0.3-10.3-0.3-15.5
		c0-3.4,1.6-5,5.2-5.1c6.5-0.3,13-0.7,19.4-1.5c10.8-1.3,20.9-4.2,28.7-12.4c3.2-3.3,4.6-7.2,4.3-11.8c-0.4-5.7-3.8-8.5-9.3-7.3
		c-2.7,0.6-5.3,1.8-8.1,2.5c-12.5,3.3-25.4,3.3-38.1,4.7c-4.7,0.5-6.3-1-6.2-5.6c0.1-10.2-1.5-20.2-1.4-30.4
		c0.1-7.8-3.8-9.9-10.7-6.5c-4.7,2.4-9.3,5.2-14,7.7c-6.4,3.4-8.4,7.4-7.5,14.7c0.7,5.6,1.5,11.2,1.8,16.9c0.4,6.5-0.3,7.1-6.7,7.7
		c-9.4,0.9-15,5.6-17.3,14.7c-1.3,5.2,0.6,8.1,6,8.5c4.3,0.4,8.7,0.5,13,0.3c3.9-0.2,5.7,0.9,6.1,5.1c2.2,21.9,5,43.7,6.1,65.6
		c0.6,11.8,0.6,23.7,3.3,35.3c4.8,21,19.2,32.1,40.3,32.6c19.4,0.4,36.8-5.4,50.3-20.1c3.3-3.6,5.5-3.5,8.8-0.3
		c3.6,3.5,7.9,6.1,12.3,8.5c24.7,13.6,50.8,12.7,77.3,7.1c21.5-4.5,37.4-17.4,50.2-34.7c0.6-3.4,3.1-6,4.6-9
		c1.2-2.3,0.7-5.7,3.9-6.9c0.2-0.5,0.3-1,0.5-1.5C286.3,200.3,286.4,199.9,287,199.6z M260,172.2c0,14.8-1.6,27.3-8.6,38.1
		C238.5,230,215,242.9,190.3,236c-15.1-4.2-26.1-14.6-34.2-27.6c-13.5-21.5-17.6-45.1-9.8-69c9.9-30,34.1-44.5,64.9-38.5
		c12.1,2.4,21.9,8.5,29.6,18.1C253.8,135.1,260.5,153.5,260,172.2z"/>
	<path d="M396.5,365.4c0-9,0.2-18-0.1-27c-0.2-4.8,2.6-5,6-5.1c3.6-0.1,5.2,1.4,4.8,5.1c-0.6,6,0.9,11.9,1.2,17.9
		c0.1,2.4,1,3,3.3,3.2c9.5,0.4,9.5,0.5,9.3-9.1c-0.1-4.5,0-9-0.4-13.5c-0.3-3.5,1.4-4.5,4.4-4.3c2.9,0.2,6.7-1.4,6.7,4
		c-0.1,13,2.1,25.9,1.9,38.9c-0.1,5.5,1.5,10.8,1.4,16.4c0,3.1-0.7,4.4-4.1,4.5c-8,0.3-8,0.4-8.4-7.4c-0.2-4.7-0.4-9.3-0.4-14
		c0-3.2-1.1-4.3-4.5-4.1c-9.3,0.5-9.3,0.3-8.4,9.6c0.4,4.5,0.5,9,0.9,13.4c0.2,2.5-0.8,3.5-3.3,3.7c-8.3,0.7-8.7,0.6-9-7.9
		c-0.3-8.1-0.1-16.3-0.1-24.4C397.3,365.4,396.9,365.4,396.5,365.4z"/>
	<path d="M291.4,375.4c-0.7-2-1.7-4.3,0.5-6c6.9-5,7.2-12.3,7-19.7c-0.2-7.6-4-12.6-11.2-14.4c-6.2-1.5-12.5-1.2-18.8-1.7
		c-2.9-0.2-3.5,1.8-3.5,4.3c-0.5,13.5-1,26.9-1.5,40.4c-0.1,0-0.3,0-0.4,0c0,5,0.3,10-0.1,15c-0.4,5.4,3.5,4.6,6.6,5.1
		c3.4,0.5,5.3-0.8,5.3-4.6c0-5.5,0.2-11,0.5-16.5c0.1-1.5-0.7-3.7,1.7-4.1c2.5-0.4,2.8,2,3.3,3.6c1.7,5,3.4,10.1,4.5,15.3
		c1.2,5.3,4.4,6.8,9.3,6.8c3.6,0,4.4-1.2,3.3-4.5C295.6,388,293.5,381.7,291.4,375.4z M281.2,360.8c-3.6,0.4-5.9-0.3-5-4.7
		c0.2-1,0.2-2,0.4-4c0-0.1,0-0.7,0-1.2c0-0.1,0-0.2,0-0.2c-0.4-3.3,0.2-5.4,4.3-5.2c3.8,0.3,6.2,1.1,6.2,5.7
		C287.1,359.1,286.5,360.2,281.2,360.8z"/>
	<path d="M308.9,366.4c0-9.2,0.1-18.3-0.1-27.5c-0.1-3.3,1.3-4.4,4.4-4.4c9,0.1,18,0.1,26.9,0.1c4.1,0,4,2.9,3.9,5.5
		c-0.1,2.7,1,6.6-3.8,6.6c-5,0-10,0.1-15-0.2c-3.2-0.2-4.7,0.9-4.7,4.1c0,1.3-0.4,2.6-0.4,4c-0.3,6.1,0.5,6.8,6.7,6.6
		c2.3-0.1,4.7,0.3,7,0.1c3.9-0.4,5.1,1.1,5.2,5c0.2,4.9-1.5,6.7-6.2,6c-1.1-0.2-2.3,0-3.5,0c-8.8,0-8.5,0-8.9,9
		c-0.2,4.3,1,6,5.4,5.9c4.8-0.1,9.6,0.6,14.4-0.1c3.7-0.5,4.3,1.8,4,4.5c-0.2,2.7,1.2,6.6-3.7,6.7c-9.3,0.2-18.6,0.2-27.9,0.5
		c-3.2,0.1-4.3-1.1-4.3-4.4c0.2-9.3,0.1-18.6,0.1-28C308.7,366.4,308.8,366.4,308.9,366.4z"/>
	<path d="M368.6,398.5c-11.3,0-18-8.1-16.1-19.5c0.2-1.3,0.4-2.4,1.9-2.5c2.5-0.1,5-0.3,7.5,0.1c3.6,0.6,1.8,3.7,2.2,5.7
		c0.5,2.3,1,4.6,3.7,5.4c2.5,0.7,4.6-0.1,6.3-2c1.9-2,1.4-4.2,0.5-6.5c-0.8-2-2.3-3.2-3.8-4.5c-4.4-3.8-8.8-7.7-13.4-11.2
		c-6.7-5.3-6.1-12.5-4.3-19.2c2-7.6,8.7-10,15.9-10.7c6.3-0.7,12.9,3,15.6,8.7c0.8,1.6,1.5,3.4,1.9,5.1c0.6,2.7,1.6,6.1-0.4,8.1
		c-2.2,2.1-5.7,1-8.6,0.8c-2.3-0.1-2.3-1.9-2.4-3.6c-0.1-2.3,0-4.7-2.3-6.3c-2.4-1.7-4.8-1.3-7,0.2c-2.4,1.6-2.1,3.9-1.1,6.2
		c1.7,3.6,4.5,6.1,7.6,8.5c2.9,2.3,5.8,4.5,8.5,7c6.5,6,8.1,13.1,5,20.8C382.5,397,376,398.5,368.6,398.5z"/>
	<path d="M643.8,360.1c-1.2-10.4-2.7-20.7-4.5-31c-1.7-10-7.1-13.9-19.8-13.6c-3,0.4-8.2,1-13.5,1.6c-2,0.2-3,1.1-2.7,3.3
		c2.5,18.8,5,37.5,7.5,56.3c0.4,2.9,1.5,4.1,4.6,3.6c5.4-0.9,10.9-1.4,16.2-2.8C640.7,374.9,644.9,369.4,643.8,360.1z M623.2,368.2
		c-1.2-0.5-1.2-1.4-1.3-2.4c-1.7-12-3.4-24-5.2-36c-0.3-2.4,0.8-3,3-3.6c3.1-0.8,5.6-0.6,7.5,2.1c0.4,0.5,0.5,1.2,0.6,1.9
		c1.6,10.5,3.1,21,4.7,32.1C632.5,365.7,626.9,369.6,623.2,368.2z"/>
	<path d="M552.7,339.5c-1-9-6-14.2-14.9-15.3c-9.3-1.1-19.9,6.5-19.2,14.5c1.1,12.1,1.1,24.2,3.2,36.2c1.7,9.7,9.2,15.3,18.8,14.4
		c9.6-0.9,15.9-7.9,15.8-19.2C555.3,360.9,553.9,350.2,552.7,339.5z M544.4,373c-0.8,3.5-3.5,4.9-6.6,4.9c-3,0-4.2-2.5-4.5-5.1
		c-1.5-10.3-2.5-20.8-3-31.2c-0.2-3.5,1.5-5.3,4.8-5.6c3.2-0.3,5.6,0.9,6,4.4c1.2,9.7,2.4,19.4,3.6,29.1
		C544.6,370.7,544.6,371.9,544.4,373z"/>
	<path d="M599.2,368.5c-0.7-12.7-2.8-22.7-4.2-32.7c-1.3-9.8-4.7-13.7-14.1-16.2c-9.4-2.4-21,7.2-20.1,16.7c1,9.9,1.8,19.8,3,29.7
		c0.6,4.9,1.2,9.9,5.2,13.6c6.1,5.6,12.8,6.6,20.2,3.3C596.7,379.8,600.4,374.2,599.2,368.5z M581.6,373.2c-4.2,0.3-5.4-2.8-5.8-6
		c-1.1-8.8-2.1-17.7-3.1-26.6c0.1,0,0.1,0,0.2,0c0-2-0.4-4.1,0.1-5.9c0.8-2.5,3.2-3.3,5.6-3.2c2.6,0.2,4.5,1.6,4.8,4.2
		c1.4,10.2,2.8,20.3,4,30.5C588,370.4,585.8,372.9,581.6,373.2z"/>
	<path d="M88.2,381.3c-2.1-18-4-36-6.1-54c-0.9-7.4-1.5-7.7-9.6-8.1c-4-1.1-5.8,1.1-7,5.4c-2.3,8-5.3,15.7-7.9,23.6
		c-3.1,9.4-6,19-9.2,28.4c-1,2.8-0.5,4.2,2.6,5c6.4,1.7,7.3,1.3,9.9-5.1c0.8-1.9,0.5-5,2.9-5.4c3.4-0.4,7.1-0.3,10.3,0.7
		c2,0.6,1.2,3.8,1.6,5.9c1.4,7.3,1.8,7.7,9.4,7.3C87.8,384.9,88.5,383.9,88.2,381.3z M73.4,358.2c0,2.9-2.8,1.4-4.4,1.4
		c-2.1,0.1-2.5-1.2-1.9-2.9c1.4-3.7,2.8-7.4,4.3-11.6C74.3,349.5,73.5,354,73.4,358.2z"/>
	<path d="M115.2,388.5c-13.4-0.2-19.1-6.3-18.5-18.4c0.2-3.6,1.4-5.9,5.4-5.1c3.2,0.6,8-0.6,6.6,5.7c-0.7,3.1,0.2,6,3.6,7.3
		c2.6,1,4.7-0.4,6.2-2.1c2.2-2.5,1.2-5.3-0.1-7.9c-0.4-0.9-1.2-1.6-1.9-2.3c-4-4.2-8-8.5-12-12.7c-5.1-5.3-6.1-12.8-2.6-20.3
		c2.5-5.3,9.1-9.1,15.6-8.8c11.2,0.5,18.8,9.6,17.2,20c-0.8,4.8-3.8,4.5-7.3,4.4c-3.4-0.1-5.4-1.4-4.7-5.2c0.2-0.8,0-1.7,0-2.5
		c-0.2-2.2-1.3-3.8-3.4-4.5c-2.4-0.7-4.7-0.5-6.5,1.4c-1.5,1.6-1.4,3.8-0.5,5.6c1.5,3.2,3.5,6,6.1,8.4c3,2.9,6,5.8,8.7,9
		c6,7.1,5.3,18.3-1.1,24.5C122.7,388.3,118.5,388.6,115.2,388.5z"/>
	<path d="M218.6,386.9c0.9-17.1,1.9-34.2,2.7-51.3c0.1-2.9,1.2-3.6,4-3.5c8.5,0.4,17,0.8,25.5,0.8c5.9,0,4.3,4,4.5,7.3
		c0.2,3.7-1.4,4.9-5.1,4.4c-4.6-0.6-9.3-0.3-14-0.6c-2.8-0.2-3.7,0.9-4,3.6c-1,11.5-1.1,11.5,11.4,11.7c6.4,0.1,7.4,1.9,5.6,8
		c-0.7,2.3-1.7,2.9-3.9,2.7c-3-0.3-6-0.2-9-0.5c-3.8-0.4-5.5,0.9-5.3,5c0.2,5.1,0.2,10.3-0.2,15.5c-0.4,5.7-6.1,8.5-11.1,5.8
		c-1.2-0.7-1.4-1.7-1.4-2.9c0-2,0-4,0-6C218.4,386.9,218.5,386.9,218.6,386.9z"/>
	<path d="M28.8,334.9c-1.4,4.4,0.5,6.2,4.8,6.4c2,0.1,3.9,0.8,5.9,1.1c5.3,0.7,7.1,4.4,4.6,9.3c-0.9,1.8-2.1,1.7-3.7,1.4
		c-14.6-2.4-14.6-2.4-16.1,12c-0.3,2.6-0.9,5.3-1,7.9c-0.2,3.3-1.5,4.5-5.1,4.2c-7.1-0.7-7.3-0.5-6.4-7.8
		c2.3-17.6,4.9-35.2,7.4-52.8c0.4-2.7,1.5-3.7,4.4-3.3c8.7,1.3,17.5,2.4,26.2,3.7c5.6,0.8,2.8,5,2.9,7.9c0.1,3.3-1.6,4.2-4.9,3.5
		c-4.1-0.8-8.3-1-12.3-1.9c-4.9-1.1-6.8,0.8-6.7,5.6C28.8,333,28.8,334,28.8,334.9z"/>
	<path d="M475.8,341.3c-0.4-12.1-0.4-12,9.8-12.5c6.5-0.3,13-0.8,19.4-1.4c5.1-0.5,4.6,3.1,5,6.1c0.4,3.2,0,5.3-4.2,5.3
		c-5,0-9.9,0.9-14.9,1.3c-1.6,0.1-3,0.4-3.1,2.4c-0.1,3.7,0.4,7.3,1.2,10.9c0.4,1.8,1.8,1.8,3.1,1.7c3.5-0.2,7-0.2,10.4-0.8
		c3.2-0.5,4.6,0.9,4.4,3.6c-0.2,2.5,2,6.5-3.2,6.8c-3.3,0.2-6.6,0.8-9.9,0.7c-4-0.1-4.8,1.8-4.3,5.3c0.8,5.8,1.6,11.5,1.7,17.4
		c0.1,4.6-2.6,5.1-6,5.3c-3.2,0.2-5.8,0.1-5.9-4.4c-0.4-10.6-1.2-21.2-2-31.9C476.7,351.3,476.1,345.3,475.8,341.3z"/>
	<path d="M172.2,340.3c-4.6-1.4-6.1,0.7-6.4,6.1c-0.7,13.9-1.5,27.9-3.1,41.8c-0.6,5.8-4.3,4.1-7.6,4.1c-4,0-4.3-2.3-4-5.6
		c1.4-14.9,2.6-29.8,3.9-44.7c0.2-2.1-0.5-3.2-2.6-3.2c-1.3,0-2.7,0-4-0.2c-2-0.3-4.7,0.5-5.7-2c-1.1-2.7-0.3-5.6,0.9-8.2
		c0.7-1.6,2.1-1.4,3.5-1.3c9.3,0.8,18.5,1.9,27.8,2.3c4.7,0.2,5.6,2.6,5.5,6.4c-0.1,4.3-2.6,5.3-6.4,4.6
		C173.6,340.2,173.2,340.3,172.2,340.3z"/>
	<path class="st0" d="M286.7,200.8c-0.4-0.5-0.3-0.9,0.3-1.2C287.5,200.1,287.5,200.6,286.7,200.8z"/>
</g>
</svg>
