<?xml version="1.0" encoding="utf-8"?>
<!-- Generator: Adobe Illustrator 22.0.1, SVG Export Plug-In . SVG Version: 6.00 Build 0)  -->
<svg version="1.1" id="Layer_1" xmlns="http://www.w3.org/2000/svg" xmlns:xlink="http://www.w3.org/1999/xlink" x="0px" y="0px"
	 viewBox="0 0 72 79.2" style="enable-background:new 0 0 72 79.2;" xml:space="preserve">
<style type="text/css">
	.st0{fill:#233F77;}
	.st1{fill:#EF433B;}
	.st2{fill:#6FA1D6;}
	.st3{fill:#5E8DC9;}
	.st4{fill:#FFFFFF;}
</style>
<g>
	<path class="st0" d="M61.7,8.7c0,0.2-0.1,0.3-0.3,0.3c-0.6,0.1-1.1,0.4-1.7,0.5c-0.8,0.3-1.6,0.2-2.2-0.4C57.4,9,57.3,8.9,57.2,9
		s-0.1,0.2-0.2,0.3C57,9.5,57.2,9.7,57.3,10c-1.6,0.4-3.1,1.3-4.3,2.5c-0.1,0-0.1,0.1-0.2,0.1c-0.4,0.1-0.8-0.2-1.1-0.5
		c-0.4-0.6-1-0.8-1.7-0.6c-0.3,0.1-0.6,0.2-0.9,0.2c-0.7,0.1-1.3,0.4-2,0.9c0,0.2-0.1,0.3-0.1,0.4c0,0.5-0.4,1-0.7,1.4
		c-0.4,0.6-0.4,1,0.1,1.5c-0.3,0.2-0.6,0.2-0.9,0.4c-0.9,0.3-1.8,0.4-2.8,0.3c-1.1-0.2-2.2-0.4-3.3-0.2c-0.4,0-1-0.1-1.4-0.2
		c-0.6,0-1.3-0.1-1.9-0.3c-0.4-0.1-0.7-0.5-0.6-0.9c0.1-0.5,0.4-1,0.7-1.3c0.1-0.1,0.2-0.2,0.4-0.1c0.4,0,0.9,0,1.3,0
		c0.4,0,0.8,0,1.2,0c0.6,0.1,1.1-0.3,1.5-0.6c0.3-0.2,0.2-0.5-0.1-0.7c-0.2-0.1-0.3-0.1-0.4-0.2c-1-0.4-2-1.1-2.8-2
		c-0.4-0.1-0.6-0.4-0.8-0.7c0-0.1-0.1-0.3-0.2-0.2c-0.5,0.1-0.5-0.5-0.9-0.7c-0.1,0-0.1-0.2-0.1-0.2c0.1-0.4-0.3-0.6-0.4-0.9
		c0-0.2-0.2-0.2-0.3-0.2C34,7,33.5,6.6,33,6c0.7,0.2,1.3,0.6,2.2,0.6c-0.4-0.4-0.9-0.5-1.3-0.8c-0.4-0.3-0.8-0.5-1-1
		c0.8,0.3,1.5,0.9,2.5,0.9c-0.5-0.5-1.3-0.8-1.7-1.3c0,0,0-0.1,0.1-0.1c1,0.4,2,0.9,3,1.3C36.6,5,36,4.8,35.9,4.2
		c0.5,0.3,1,0.6,1.4,1.1c0.2,0.1,0.3,0.1,0.2-0.2c-0.2-0.2-0.3-0.4-0.3-0.7c-0.1-0.3-0.3-0.6-0.2-1c0.2,0,0.3,0.2,0.3,0.3
		c0.4,0.5,0.7,1.1,1.1,1.6c0.3,0.4,0.4,0.7,0.8,0.9c0.4,0.3,1,0.4,1.4,0.6c1.6,0.6,3.4,0.9,4.9,1.9c0.2,0.2,0.4,0,0.5-0.1
		c0.7-0.6,1.5-1.1,1.9-2c0.8-0.6,1.4-1.4,2.2-2.1c0.6-0.5,1.3-1,2-1.5C52.4,3,52.5,2.9,52.8,3c0.1,0.1,0.2-0.1,0.2-0.1
		c0.1-0.2,0.2-0.4,0.4-0.5c0.4-0.4,0.4-0.4,0.8,0c0.2-0.4,0.3-0.7,0.5-1c0.2-0.3,0.4-0.4,0.7-0.1c0.1-0.2,0.2-0.4,0.3-0.6
		c0.1-0.3,0.4-0.4,0.6-0.4c0.1,0,0.3-0.1,0.4-0.2h0.2c0.2,0.5,0.1,1.1,0.1,1.7c-0.1,1.3-0.5,2.5-1.4,3.4c-0.1,0.2-0.3,0.3-0.4,0.4
		c-0.5,0.3-0.9,0.7-1.3,1.3c-0.3,0.4-0.6,0.7-1.1,1c-0.7,0.4-1.1,1.2-1.4,1.8c-0.1,0.2-0.4,0.4-0.3,0.7c0.2,0.2,0.4,0.1,0.7,0
		c1-0.1,2-0.4,3-0.7c1.1-0.3,2-0.9,3-1.4c0.4-0.2,0.7-0.4,1.2-0.4c0.4-0.1,0.9,0,1.3,0.3c0.4,0.4,1,0.5,1.5,0.5
		C61.5,8.5,61.7,8.5,61.7,8.7z"/>
	<path class="st1" d="M68.4,62.3c-0.5,0.1-1.2,0-1.7,0.1c-0.2,0-0.4-0.1-0.4-0.4c-0.2-0.9-0.4-1.7-0.6-2.6c-0.1-0.3-0.2-0.4-0.4-0.4
		c-1.1,0-2.2,0-3.3,0c-0.3,0-0.4,0.1-0.4,0.4c-0.2,0.8-0.4,1.7-0.6,2.5c-0.1,0.3-0.2,0.4-0.4,0.4c-0.4,0-0.7,0-1.1,0
		c-0.3,0-0.4-0.1-0.4-0.4c1-3.9,2.1-7.6,3.2-11.4c0.1-0.3,0.2-0.4,0.5-0.4c0.7,0,1.4,0,2.2,0c0.3,0,0.4,0.1,0.5,0.4
		c0.6,2.2,1.3,4.5,1.9,6.7c0.4,1.5,0.8,3,1.2,4.5c0,0.1,0,0.1,0.1,0.1C68.4,62,68.4,62.1,68.4,62.3z M63.7,57.6c0.4,0,0.9,0,1.4,0
		c0.2,0,0.3,0,0.2-0.3c-0.4-1.8-0.9-3.6-1.3-5.3c0-0.2-0.1-0.3-0.3-0.3c-0.2,0-0.3,0.1-0.4,0.3c-0.4,1.8-0.9,3.5-1.3,5.3
		c-0.1,0.3,0,0.3,0.3,0.3C62.7,57.5,63.2,57.6,63.7,57.6z"/>
	<path class="st1" d="M16.4,78.9c-0.2-0.2-0.4-0.1-0.6-0.2c-1.3-0.4-2.2-1.3-2.7-2.6c-0.7-2.3-0.7-4.6,0.1-6.9
		c0.6-1.8,2.1-2.8,3.9-2.8c0.9,0,1.9,0.1,2.8,0.3c0.3,0.1,0.4,0.2,0.4,0.4c0,0.3-0.1,0.6-0.1,0.9c0,0.3-0.1,0.3-0.4,0.3
		C19,68.1,18.3,68,17.4,68c-1.5,0-2.3,0.6-2.7,2.2c-0.4,1.8-0.4,3.5,0,5.3c0.4,1.3,1.3,2,2.6,2c0.5,0,1,0,1.4-0.1
		c0.2,0,0.2-0.1,0.2-0.3c0-1.1,0-2.2,0-3.3c0-0.2-0.1-0.3-0.3-0.2c-0.4,0-0.9,0-1.3,0c-0.3,0-0.4-0.1-0.4-0.4c0-0.4,0-0.6,0-1
		c0-0.3,0.1-0.4,0.4-0.4c1,0,2.1,0,3,0c0.3,0,0.4,0.1,0.4,0.4c0,2,0,3.9,0,5.8c0,0.3-0.1,0.4-0.3,0.4c-0.6,0.2-1.3,0.4-1.9,0.4
		c-0.1,0-0.2,0-0.2,0.1C17.7,78.9,17,78.9,16.4,78.9z"/>
	<path class="st1" d="M4.5,54.9c0.1-0.5,0.2-1,0.3-1.5c0.3-1,0.6-1.9,1.4-2.5c0.6-0.4,1.3-0.7,2.1-0.7c0.9-0.1,1.8,0,2.6,0.2
		c0.2,0.1,0.3,0.2,0.3,0.4c0,0.3,0,0.5,0,0.8c0,0.3-0.1,0.4-0.4,0.4c-0.7-0.3-1.5-0.3-2.3-0.2c-1,0.1-1.6,0.6-1.9,1.7
		c-0.4,1.9-0.4,3.9,0,5.7c0.4,1.4,1.3,2,3,1.9c0.4,0,0.9-0.1,1.3-0.2c0.3-0.1,0.4,0,0.4,0.4c0,0.1,0,0.3,0,0.4
		c0.1,0.7,0.1,0.7-0.6,0.9c-1,0.2-2,0.3-3,0.1C6,62,5.1,60.9,4.7,59.3c-0.1-0.4-0.2-1-0.3-1.4C4.5,56.9,4.5,55.8,4.5,54.9z"/>
	<path class="st0" d="M51.8,32c-0.3-0.1-0.5-0.4-0.9-0.3c0.2,0.2,0.4,0.3,0.4,0.4c0.3,0.3,0.5,0.4,0.9,0.5c1,0.4,2,0.4,3,0.2
		c-0.2,0.3-0.4,0.4-0.6,0.4c-0.9,0.2-1.8,0.1-2.7-0.2c-0.6-0.3-1.2-0.6-1.7-1.1c0.2,0.4,0.4,0.6,0.6,0.8c0.3,0.3,0.5,0.4,0.8,0.6
		c0.5,0.4,1.3,0.4,1.9,0.7c-0.8,0.1-1.6-0.1-2.3-0.4c-0.7-0.4-1.3-1-1.9-1.6c-0.1-0.1-0.1-0.2-0.2-0.1c-0.1,0.1,0,0.2,0.1,0.2
		c0.4,0.5,0.7,1.1,1.1,1.6c0.2,0.3,0.5,0.5,0.8,0.8c-0.6-0.2-1.2-0.4-1.7-0.9c-0.4-0.5-0.9-1-1.3-1.5c0,0-0.1,0-0.1,0.1
		c0.1,0.5,0.4,1,0.5,1.5c-0.2,0.4-0.3,0-0.4,0c-0.5-0.4-1.1-0.8-1.5-1.3c-0.1-0.1-0.2-0.2-0.3,0c-0.2,0.3-0.3,0.1-0.4,0
		c-0.1-0.1-0.2-0.2-0.4-0.3c-0.2-0.2-0.4-0.4-0.6-0.5c-0.3-0.2-0.5-0.7-1.1-0.4c0,0-0.1,0-0.2,0c-0.4-0.3-0.8-0.5-1.2-0.9
		c-0.2-0.3-0.4-0.6-0.8-0.6c-0.1,0-0.2-0.1-0.3-0.2c-0.2-0.2-0.4-0.3-0.5-0.4c-0.4-0.3-0.3-0.8-0.4-1.3c-0.1,0.1-0.1,0.1-0.1,0.1
		l-0.1,0.1c-0.2,0.4-0.3,0.4-0.6,0.2s-0.7-0.5-0.9-0.9c0-0.1-0.1-0.1-0.2-0.1c-0.5,0-1-0.7-0.9-1.2c0.1-0.2,0.2-0.3,0.1-0.4
		c-0.2,0-0.4,0.2-0.4,0.3c-0.3,0.2-0.6,0.3-0.9,0.1c-0.4-0.1-0.7-0.5-1.3-0.5l0,0c-0.2-0.4-0.5-0.3-0.9-0.4
		c-0.1-0.1-0.3-0.1-0.3-0.3c1-0.4,2-0.9,2.7-1.8c0.4-0.4,0.9-0.7,1.4-0.9c0.7-0.2,1.4-0.4,2.1-0.9c-0.4-0.2-0.7-0.1-1-0.4
		S39,20,38.8,19.7c-0.6-0.8-1.1-1.1-1.7-0.9c-0.3,0.1-0.6,0.2-0.9,0.2c-1.1,0.2-2.2,0.4-3.1,1c-0.4,0.2-0.6,0.4-0.6,0.9
		c0,0.2-0.1,0.4-0.2,0.6c-0.2,0.4-0.4,0.9-0.4,1.3c-0.3,0.9,0.1,1.7,0.8,2.1c-0.1,0.1-0.2,0.1-0.4,0.2c-0.4,0.1-0.7,0.2-1.1,0.3
		c-0.1,0-0.3,0.1-0.3,0.2c0,0.2,0.1,0.2,0.3,0.3c0.2,0.1,0.4,0.2,0.6,0.3c0.4,0.1,0.5,0.4,0.6,0.7c0,0.2,0.1,0.4,0.2,0.4
		c0.1,0.1,0.1,0.2,0.1,0.3c-0.1,0.5,0.2,1,0.4,1.4c0.1,0.2,0.1,0.4,0.2,0.5c0.2,0.5,0.4,1.2,0.4,1.8c0.1,0.3,0.2,0.6,0.2,0.9
		c0.1,0.5,0,1.2,0.4,1.7c0.1,0.3,0.3,0.6,0.4,1c0.3,0.5,0.4,1.1,0.7,1.6c0.2,0.5,0.4,1.1,0.7,1.6c0.4,1,0.7,1.9,1.1,2.9
		c0.3,1.3,0.7,2.5,1.3,3.7c0.1,0.3,0.4,0.4,0.4,0.6c0.2,0.3,0.1,0.4-0.2,0.4c-0.5,0.1-1.1-0.2-1.3-0.6c-0.1-0.2-0.2-0.3-0.3-0.4
		c0-0.1,0-0.2-0.1-0.1c-0.1,0,0,0.1,0,0.2c0.2,0.5,0.4,1,0.5,1.5c0.1,0.4,0.4,0.5,0.5,0.8c0.1,0.1,0.2,0.2,0.2,0.4
		c-0.1,0.2-0.2,0.1-0.4,0.1c-0.8,0-1.5-0.4-1.8-1.3c-0.3-0.7-0.5-1.5-1-2.2c0.1,0.6,0.2,1.3,0.2,1.9c0,0.9-0.4,1.7-0.8,2.5
		c-0.2,0.3-0.4,0.2-0.5-0.1c-0.1-0.1,0-0.3,0-0.4c0-1.1,0-2.1-0.2-3.1c0-0.2,0-0.4-0.2-0.4c-0.1,0.4-0.1,0.9-0.1,1.4
		c-0.1,0.8-0.2,1.6-0.4,2.4c0,0.1,0,0.3-0.2,0.4c-0.2,0-0.2-0.2-0.3-0.3c-0.3-0.9-0.6-1.8-0.6-2.8c-0.2,0-0.1,0.2-0.2,0.3
		c-0.1,0.4-0.2,0.7-0.2,1c0,0.1-0.1,0.3-0.1,0.3c-0.1,0-0.2-0.1-0.3-0.2c-0.4-0.4-0.9-1-0.8-1.7c0-0.1,0-0.3-0.1-0.4
		c-0.1,0-0.1,0-0.1,0c-0.2,0.4-0.2,0.4-0.5,0.1c-0.2-0.2-0.4-0.4-0.5-0.6c-0.3-0.4-0.5-0.7-0.4-1.3c-0.3,0.3-0.4,0.2-0.5,0
		c-0.4-0.4-0.8-0.9-0.8-1.6c0-0.1,0-0.2-0.2-0.2c-0.5-0.1-0.7-0.3-0.8-0.8c-0.1-0.4-0.1-0.9-0.1-1.3c0-0.1,0-0.2-0.1-0.2
		s-0.1,0-0.2,0.1c-0.2,0.4-0.4,0.2-0.5-0.1c-0.2-0.4-0.4-0.7-0.4-1.1c0-0.1,0-0.3-0.1-0.2c-0.5,0.1-0.4-0.3-0.4-0.6
		c0-0.2,0-0.3,0-0.4c0-0.4,0.2-0.8,0.3-1.3c-0.4,0.3-0.5,0.1-0.7-0.2c0-0.1-0.1-0.2-0.1-0.2c0.1-0.4-0.1-0.7-0.3-1.1
		c-0.1-0.2-0.2-0.3-0.4-0.4c-0.3-0.4-0.4-0.9-0.9-1.2c0.1-0.3-0.2-0.4-0.3-0.5C22,31.6,22,31.4,22,31.2s-0.2-0.2-0.3-0.3
		c-0.1-0.1-0.2-0.2-0.2-0.4c0-0.4-0.3-0.7-0.4-1c-0.2-0.2-0.3-0.3-0.2-0.5c0-0.3-0.4-0.4-0.4-0.7c0-0.4-0.4-0.7-0.4-1.1
		c-0.1-0.4-0.2-0.8-0.4-1.2c-0.1-0.2-0.3-0.4-0.2-0.7c0-0.2-0.1-0.3-0.3-0.3c-0.5,0.1-1.1,0.2-1.6,0.3c-0.3,0-0.6,0.2-1,0.1
		c0.2-0.2,0.4-0.4,0.4-0.7c0-0.1,0.1-0.1,0.2-0.1c0.1,0,0.2-0.1,0.1-0.2c-0.2-0.2,0-0.3,0.2-0.4c-0.8-0.4-1.4,0-2.2,0.2
		c0.4-0.3,0.7-0.9,1.3-1.1c0.3-0.1,0.6-0.3,0.8-0.5c0.3-0.2,0.6-0.3,0.8-0.6c0,0,0,0,0.1,0c1.4-0.5,2.7-1.6,4-2.3
		c0.1-0.1,0.2-0.1,0.3-0.2c0.8-0.5,1.8-0.8,2.6-1.3c0.4-0.2,0.8-0.3,1.3-0.4c2.1-0.2,4-0.5,6-0.7c0.9-0.1,1.8-0.1,2.7,0
		c1.2,0.2,2.2,0.5,3.3,1.2c0.6,0.4,1.2,0.4,1.8,0.4c1.2-0.1,2.2-0.1,3.4,0c0.5,0,1.2,0,1.6-0.3c0.3-0.1,0.5-0.3,0.8-0.4
		c1.1-0.4,2-0.4,2.6,0.4c0.4,0.5,0.9,0.9,1.5,1.2c0.2,0.1,0.3,0.1,0.3,0.4c0,0.2-0.2,0.3-0.4,0.3c-0.6,0-1.3,0-1.8,0.1
		c-0.8-0.3-1.6-0.6-2.1-1.5c-0.1-0.2-0.1-0.4-0.4-0.4c-0.3,0-0.4,0.3-0.4,0.4c0,0.6-0.1,1.3,0.6,1.7c-1.3-0.1-2.5-0.4-3.9-0.1
		c0.3,0.4,0.5,0.7,0.9,1.1c0.1,0.1,0.2,0.3,0.3,0.4c1,1.3,1.9,2.5,2.8,3.8c0.7,1.1,1.5,2.2,2.3,3.3c0.1,0.2,0.3,0.4,0.4,0.5
		c0.4,0.6,1,1.2,1.6,1.7c0.8,0.7,1.8,1.2,2.9,0.9c0.6-0.2,1.2-0.4,1.7-0.7c0.2-0.1,0.4-0.2,0.5-0.4c-0.4,0.9-1.7,1.4-3.1,1.3
		C52.4,32.2,52,32.1,51.8,32z"/>
	<path class="st2" d="M55.5,21.5c-4.1,0-8.2,0-12.3,0c-0.3-0.4-0.5-0.7-0.9-1.1c1.3-0.4,2.6,0,3.9,0.1h0.4c0.6,0,1.3,0,1.8-0.3
		c0.6-0.1,1.2-0.2,1.8-0.1c0.2,0,0.4,0,0.4-0.3c0-0.2-0.1-0.3-0.3-0.4c-0.6-0.3-1.2-0.6-1.5-1.2c-0.6-0.8-1.5-0.8-2.6-0.4
		c-0.3,0.1-0.5,0.3-0.8,0.4c-0.5,0.3-1.1,0.4-1.6,0.3c-1.2-0.1-2.2-0.1-3.4,0c-0.6,0.1-1.3,0-1.8-0.4c-1-0.5-2.1-1-3.3-1.2
		c-0.9-0.1-1.8-0.1-2.7,0c-2,0.2-4,0.5-6,0.7c-0.4,0-0.8,0.2-1.3,0.4c-0.9,0.4-1.8,0.7-2.6,1.3c-0.1,0.1-0.2,0.1-0.3,0.2
		c-1.3,0.7-2.6,1.8-4,2.3c0,0,0,0-0.1,0c-0.2,0.4-0.5,0.4-0.8,0.6c-0.1-2.1,0.2-4,0.7-6c0.9-3.2,2.6-6,4.9-8.3
		c2.8-2.7,6.1-4.5,9.9-5.1c5.3-0.9,10.2,0.2,14.6,3.3c0.1,0.1,0.2,0.1,0.3,0.2c-0.4,0.9-1.2,1.3-1.9,2c-0.2,0.2-0.4,0.3-0.5,0.1
		c-1.5-1-3.3-1.3-4.9-1.9c-0.5-0.2-1-0.4-1.4-0.6c-0.4-0.2-0.6-0.5-0.8-0.9c-0.4-0.5-0.7-1.1-1.1-1.6c-0.1-0.1-0.1-0.3-0.3-0.3
		c0,0.4,0.2,0.6,0.2,1c0,0.3,0.2,0.4,0.2,0.7c0,0.2,0,0.3-0.2,0.2c-0.4-0.4-0.9-0.7-1.4-1.1c0.1,0.5,0.6,0.8,0.9,1.3
		c-1-0.4-2-0.9-3-1.3c0,0,0,0.1-0.1,0.1c0.4,0.5,1.1,0.8,1.7,1.3c-1,0-1.7-0.6-2.5-0.9c0.2,0.4,0.6,0.7,1,1c0.4,0.3,0.9,0.4,1.3,0.8
		c-0.8,0-1.4-0.4-2.2-0.6c0.5,0.5,1,0.9,1.6,1.2c0.1,0,0.3,0,0.3,0.2c0.1,0.3,0.4,0.5,0.4,0.9l0.1,0.2c0.4,0.1,0.4,0.8,0.9,0.7
		c0.1,0,0.1,0.2,0.2,0.2c0.2,0.4,0.4,0.6,0.8,0.7c0.9,0.9,1.8,1.5,3,2c0.2,0.1,0.3,0.1,0.4,0.2c0.3,0.2,0.4,0.4,0.1,0.7
		c-0.4,0.4-0.9,0.7-1.5,0.6c-0.4,0-0.8,0-1.2,0c-0.4,0-0.9,0-1.3,0c-0.2,0-0.3,0-0.4,0.1c-0.4,0.4-0.6,0.8-0.7,1.3
		c-0.1,0.4,0.3,0.9,0.6,0.9c0.6,0.2,1.3,0.3,1.9,0.3c0.4,0.1,1,0.2,1.4,0.2c1.2-0.1,2.2,0.1,3.4,0.2c0.9,0.1,1.9,0,2.8-0.3
		c0.3-0.1,0.6-0.1,0.9-0.4c0.9-0.1,1.7-0.4,2.4-0.9c1-0.5,2-1.2,3-1.6c0.4-0.2,0.8-0.4,1.1-0.7c0.1,0,0.1-0.1,0.2-0.1
		c0.4,0.7,0.7,1.4,1,2.2c0.8,2.1,1.3,4.1,1.3,6.4C55.5,21.2,55.6,21.3,55.5,21.5z"/>
	<path class="st3" d="M43.3,21.5c4.1,0,8.2,0,12.3,0c0,1.6-0.1,3.1-0.4,4.7c-0.2,0.8-0.4,1.6-0.7,2.4c-0.1,0.3-0.2,0.3-0.4,0.3
		c-1.8,0-3.5,0-5.3,0c-0.8-1.1-1.6-2.2-2.3-3.3c-0.9-1.3-1.8-2.5-2.8-3.8C43.4,21.7,43.3,21.6,43.3,21.5z"/>
	<path class="st1" d="M26.9,52.3c0,1,0,2,0,3c0,2.2,0,4.5,0.1,6.7c0,0.3-0.1,0.4-0.4,0.4c-0.4,0-0.7,0-1.1,0c-0.3,0-0.4-0.1-0.4-0.4
		c0-3.8,0-7.6,0-11.4c0-0.3,0.1-0.4,0.4-0.4c0.6,0,1.3,0,1.9,0c0.4,0,0.6,0.1,0.7,0.4c0.8,2.2,1.7,4.2,2.5,6.4
		c0.4,0.8,0.7,1.7,1,2.5c0.1,0.1,0.1,0.3,0.2,0.4c0.1-0.1,0.1-0.2,0.1-0.3c0-3,0-5.9-0.1-8.9c0-0.5,0-0.5,0.5-0.5c0.4,0,0.6,0,1,0
		c0.2,0,0.4,0.1,0.3,0.3c0,0.1,0,0.1,0,0.2c0,3.7,0,7.4,0,11.1c0,0.5,0,0.5-0.5,0.5s-1.2,0-1.7,0c-0.4,0-0.5-0.1-0.6-0.4
		c-1.3-3-2.4-6.2-3.7-9.2C27,52.5,27,52.3,26.9,52.3z"/>
	<path class="st1" d="M48.3,56.2c0-1.8,0-3.7,0-5.5c0-0.5,0-0.5,0.5-0.5c1.3,0,2.7,0,4,0c1.6,0,2.8,0.8,3.5,2.3
		c0.6,1.4,0.7,2.9,0.6,4.4c0,1-0.2,2-0.5,3c-0.6,1.7-1.8,2.5-3.6,2.6c-1.3,0-2.7,0-4,0c-0.4,0-0.4-0.2-0.4-0.4
		C48.3,60,48.3,58.1,48.3,56.2z M50.2,56.2c0,1.4,0,2.9,0,4.3c0,0.3,0.1,0.4,0.3,0.3c0.7,0,1.3,0,2.1,0c0.8,0,1.3-0.4,1.8-1
		c0.2-0.4,0.4-0.7,0.4-1.1c0.4-1.3,0.4-2.7,0.2-4.1c-0.1-0.7-0.3-1.4-0.6-2.1c-0.4-0.5-0.8-1-1.5-1c-0.8-0.1-1.5,0-2.3,0
		c-0.3,0-0.4,0.1-0.4,0.4C50.2,53.4,50.2,54.8,50.2,56.2z"/>
	<path class="st1" d="M17.9,50.2c0.4,0,0.6,0,1,0c0.4-0.1,0.5,0.2,0.6,0.4c0.4,1.7,1,3.4,1.4,5.1c0.5,2,1.1,3.9,1.6,6
		c0.2,0.5,0.1,0.5-0.4,0.5c-0.4,0-0.7,0-1.1,0c-0.3,0-0.4-0.1-0.5-0.4c-0.2-0.8-0.4-1.7-0.6-2.5c-0.1-0.3-0.2-0.4-0.4-0.4
		c-1.2,0-2.2,0-3.4,0c-0.3,0-0.4,0.1-0.4,0.4c-0.2,0.8-0.4,1.7-0.6,2.5c-0.1,0.3-0.2,0.4-0.5,0.4c-0.4,0-0.6,0-1,0
		c-0.4,0-0.4-0.1-0.4-0.4c0.4-1.7,0.9-3.3,1.3-5c0.6-2.1,1.3-4.1,1.8-6.3c0.1-0.3,0.2-0.4,0.5-0.4C17.2,50.2,17.5,50.2,17.9,50.2z
		 M17.8,57.6c0.4,0,0.9,0,1.3,0c0.3,0,0.4-0.1,0.3-0.3c-0.4-1.8-0.9-3.5-1.3-5.3c0-0.2-0.1-0.3-0.3-0.3s-0.3,0.1-0.3,0.3
		c-0.1,0.4-0.3,0.9-0.4,1.3c-0.4,1.3-0.6,2.6-1,3.9c-0.1,0.3,0,0.4,0.3,0.4C16.9,57.5,17.4,57.6,17.8,57.6z"/>
	<path class="st1" d="M44.8,62.3c-1.2,0-1,0.1-1.3-1c-0.2-0.6-0.4-1.3-0.5-2c-0.1-0.2-0.1-0.3-0.4-0.3c-1.2,0-2.3,0-3.5,0
		c-0.2,0-0.3,0.1-0.4,0.3c-0.2,0.8-0.4,1.7-0.6,2.5c-0.1,0.4-0.3,0.5-0.6,0.4c-0.3,0-0.6,0-0.9,0c-0.4,0-0.5-0.1-0.4-0.5
		c0.5-2,1.1-3.9,1.6-5.9c0.5-1.7,1-3.5,1.5-5.2c0.1-0.4,0.3-0.4,0.6-0.4c0.7,0,1.4,0,2.2,0c0.3,0,0.4,0.1,0.4,0.4
		c1.1,3.8,2.1,7.5,3,11.3c0.1,0.4,0,0.4-0.4,0.4l0,0C45.1,62.3,45,62.3,44.8,62.3z M40.9,57.6c0.4,0,0.9,0,1.4,0
		c0.3,0,0.3-0.1,0.3-0.3c-0.4-1.8-0.9-3.5-1.3-5.3c0-0.2-0.1-0.3-0.3-0.3s-0.3,0.1-0.3,0.3c-0.4,1.8-1,3.5-1.3,5.3
		c-0.1,0.3,0,0.3,0.2,0.3C40,57.5,40.5,57.6,40.9,57.6z"/>
	<path class="st1" d="M53.3,72.7c0-1.9,0-3.7,0-5.6c0-0.4,0-0.5,0.5-0.5c1.7,0,3.5,0,5.2,0c0.4,0,0.5,0.1,0.5,0.5
		c0,1.3,0.2,1.1-1.2,1.2c-1,0-2,0-3,0c-0.2,0-0.4,0-0.4,0.3c0,1,0,2,0,3c0,0.3,0.1,0.3,0.3,0.3c1.2,0,2.2,0,3.4,0
		c0.4,0,0.4,0.1,0.4,0.4c0,1.3,0.1,1-1,1c-0.9,0-1.9,0-2.8,0c-0.3,0-0.3,0.1-0.3,0.3c0,1.1,0,2.2,0,3.3c0,0.3,0.1,0.4,0.4,0.4
		c1.3,0,2.6,0,3.9,0c0.4,0,0.4,0,0.4,0.4c0,0.3,0,0.5,0,0.7c0,0.3-0.1,0.4-0.4,0.4c-1.9,0-3.9,0-5.7,0c-0.4,0-0.4-0.2-0.4-0.5
		C53.3,76.4,53.3,74.5,53.3,72.7z"/>
	<path class="st1" d="M24.3,72.7c0-1.9,0-3.8,0-5.6c0-0.4,0.1-0.4,0.4-0.4c1.8,0,3.6,0,5.4,0c0.3,0,0.4,0.1,0.4,0.4
		c0,0.2,0,0.4,0,0.6c0,0.5,0,0.5-0.5,0.5c-1.2,0-2.3,0-3.4,0c-0.4,0-0.4,0.1-0.4,0.4c0,0.9,0,1.9,0,2.8c0,0.3,0.1,0.3,0.3,0.3
		c1.2,0,2.2,0,3.4,0c0.4,0,0.4,0.1,0.4,0.4c0,1.1,0,1.1-1.1,1.1c-0.9,0-1.9,0-2.8,0c-0.3,0-0.4,0.1-0.4,0.4c0,1.1,0,2.2,0,3.3
		c0,0.3,0.1,0.3,0.3,0.3c1.3,0,2.6,0,3.9,0c0.4,0,0.4,0,0.4,0.4c0,0.3,0,0.5,0,0.8c0,0.3-0.1,0.4-0.4,0.4c-2,0-3.9,0-5.8,0
		c-0.4,0-0.4-0.2-0.4-0.4C24.3,76.4,24.3,74.6,24.3,72.7z"/>
	<path class="st1" d="M33.9,72.7c0-1.9,0-3.8,0-5.6c0-0.4,0-0.4,0.4-0.4c1.8,0,3.5,0,5.3,0c0.4,0,0.5,0.1,0.4,0.4
		c0,1.3,0.2,1.2-1.1,1.2c-1,0-2,0-3,0c-0.2,0-0.3,0.1-0.3,0.3c0,1,0,2,0,3c0,0.3,0.1,0.3,0.4,0.3c1.1,0,2.2,0,3.3,0
		c0.4,0,0.5,0.1,0.5,0.4c0,1.2,0.1,1-1,1c-0.9,0-1.9,0-2.8,0c-0.3,0-0.4,0.1-0.4,0.4c0,1.1,0,2.2,0,3.2c0,0.3,0.1,0.4,0.4,0.4
		c1.3,0,2.6,0,3.9,0c0.4,0,0.5,0.1,0.4,0.4c0,0.3,0,0.5,0,0.8c0,0.3-0.1,0.4-0.4,0.4c-2,0-3.9,0-5.8,0c-0.4,0-0.4-0.2-0.4-0.4
		C33.9,76.4,33.9,74.6,33.9,72.7z"/>
	<path class="st1" d="M46.2,78.8c-1,0-2-0.1-2.9-0.3c-0.2,0-0.3-0.1-0.3-0.3c0-0.3,0-0.6,0-0.9c0-0.4,0.2-0.4,0.4-0.4
		c1,0.2,2,0.2,2.9,0.3c1.3,0,1.6-0.7,1.5-1.9c-0.1-0.4-0.4-0.8-0.7-1.1c-0.8-0.6-1.7-1.3-2.6-1.9c-0.2-0.1-0.3-0.3-0.4-0.4
		c-1.3-1-1.3-2.2-0.9-3.8c0.3-1,1.1-1.3,2-1.5c1.3-0.3,2.7-0.1,3.9,0.2c0.3,0.1,0.4,0.2,0.4,0.5c-0.1,0.3,0,0.4,0,0.7
		c0,0.3-0.1,0.3-0.4,0.3c-1-0.3-2.1-0.4-3-0.2c-0.5,0.1-1,0.2-1.2,0.7c-0.2,0.6-0.2,1.3,0.3,1.7c0.6,0.6,1.3,1.1,2.1,1.6
		c0.4,0.4,0.9,0.7,1.3,1.1c0.8,0.7,1.1,1.7,1,2.8c0,0.3-0.1,0.6-0.2,0.9c-0.4,1.2-1.3,1.9-2.5,1.9C46.9,78.9,46.6,78.8,46.2,78.8z"
		/>
	<path class="st3" d="M35.5,36.4c-0.3-0.5-0.4-1.1-0.7-1.6c0.2,0,0.4,0,0.4,0c4.9,0,9.9,0,14.8,0c0.1,0,0.3,0,0.4,0
		c-0.3,0.4-0.7,0.7-1,1.1c-0.4,0.4-0.8,0.5-1.3,0.5C43.9,36.4,39.7,36.4,35.5,36.4z"/>
	<path class="st3" d="M45.5,32.1c0.2,0,0.2,0.2,0.4,0.3s0.3,0.3,0.4,0c0.1-0.2,0.2-0.1,0.3,0c0.4,0.5,1,1,1.5,1.4
		c-4.4,0-8.9,0-13.3,0c-0.2,0-0.3-0.1-0.4,0.1c-0.4-0.5-0.3-1.2-0.4-1.7c0.1,0,0.2,0,0.3,0c3.7,0,7.3,0,11,0
		C45.3,32.1,45.4,32.1,45.5,32.1z"/>
	<path class="st3" d="M37.3,40.9c-0.4-1-0.7-1.9-1.1-2.9c3.5,0,6.9,0,10.4,0C43.6,39.8,40.6,40.8,37.3,40.9z"/>
	<path class="st3" d="M17.9,25.4c0.5-0.1,1.1-0.2,1.6-0.3c0.2,0,0.3,0,0.3,0.3c0,0.3,0.1,0.5,0.2,0.7c0.2,0.4,0.3,0.8,0.4,1.2
		c0.1,0.4,0.4,0.6,0.4,1.1c0,0.3,0.4,0.4,0.4,0.7c-0.6,0-1.3,0-1.9,0c-0.2,0-0.4-0.1-0.4-0.3C18.3,27.5,18.1,26.4,17.9,25.4z"/>
	<path class="st3" d="M50.6,31.1C50,30.6,49.4,30,49,29.4c1.5,0,3,0,4.6,0c0.4,0,0.4,0,0.3,0.4c-0.2,0.4-0.3,1-0.6,1.2
		c-0.4,0.3-0.9,0-1.3,0.1C51.5,31.1,51.1,30.9,50.6,31.1z"/>
	<path class="st3" d="M22.6,32.1c0.4,0.3,0.5,0.8,0.9,1.2c0.1,0.2,0.3,0.3,0.4,0.4c-0.6,0-1.3,0-2,0c-0.2,0-0.3,0-0.4-0.2
		c-0.3-0.4-0.5-0.7-0.8-1.2c-0.1-0.1-0.2-0.2-0.1-0.3s0.2-0.1,0.3-0.1C21.5,32.1,22.1,32.1,22.6,32.1z"/>
	<path class="st3" d="M21.2,29.4c0.3,0.3,0.5,0.5,0.4,1c0,0.2,0.1,0.3,0.2,0.4c0.1,0.1,0.3,0.1,0.4,0.3c-0.6,0-1.3,0-2,0
		c-0.3,0-0.4-0.1-0.4-0.3c-0.2-0.4-0.4-0.9-0.6-1.3C19.9,29.4,20.5,29.4,21.2,29.4z"/>
	<path class="st3" d="M24.2,34.8c0.1,0.1,0.1,0.2,0.2,0.2c0.2,0.3,0.3,0.4,0.7,0.2c-0.2,0.4-0.3,0.8-0.3,1.3c-0.3,0-0.4-0.1-0.6-0.3
		c-0.4-0.4-0.9-0.8-1.3-1.4C23.2,34.8,23.7,34.8,24.2,34.8z"/>
	<path class="st3" d="M50.2,33.8c-0.4-0.5-0.7-1.1-1.1-1.5c0-0.1-0.2-0.1-0.1-0.2c0.1-0.1,0.2,0,0.2,0.1c0.5,0.6,1.2,1.2,1.9,1.6
		C50.9,33.8,50.5,33.6,50.2,33.8z"/>
	<path class="st3" d="M48.5,33.7c-0.1-0.5-0.5-1-0.5-1.5c0,0,0.1,0,0.1-0.1c0.4,0.5,0.9,1,1.3,1.5C49,33.7,48.7,33.7,48.5,33.7z"/>
	<path class="st3" d="M51.7,33.4c-0.3-0.2-0.5-0.4-0.8-0.6c-0.3-0.3-0.4-0.4-0.6-0.8c0.5,0.4,1.1,0.7,1.7,1.1
		C51.9,33.2,51.8,33.3,51.7,33.4z"/>
	<path class="st2" d="M51.7,10.3c-0.3,0-0.6,0.2-0.7,0c-0.2-0.3,0.1-0.4,0.3-0.7C51.2,9.9,51.5,10,51.7,10.3z"/>
	<path class="st3" d="M51.8,32c0.3,0.1,0.5,0.2,0.8,0.3c-0.3,0-0.4,0.2-0.4,0.4c-0.4-0.2-0.6-0.4-0.9-0.5
		C51.5,32.1,51.7,32.2,51.8,32z"/>
	<path class="st4" d="M53,12.6c-0.3,0.4-0.6,0.6-1.1,0.7c-1.1,0.4-2.1,1.1-3,1.6c-0.8,0.4-1.5,0.8-2.4,0.9c-0.4-0.5-0.5-1-0.1-1.5
		c0.3-0.4,0.6-0.8,0.7-1.4c0-0.1,0.2-0.3,0.3-0.3c0.6-0.4,1.3-0.7,2-0.9c0.4-0.1,0.6-0.1,0.9-0.2c0.7-0.2,1.3,0,1.7,0.6
		C52.2,12.6,52.5,12.7,53,12.6z"/>
	<path class="st4" d="M32.8,24.9c-0.7-0.4-1-1.3-0.8-2.1c0.1-0.4,0.3-0.9,0.4-1.3c0.1-0.2,0.2-0.4,0.2-0.6c0-0.4,0.3-0.7,0.5-0.9
		c1-0.5,2.1-0.9,3.1-1c0.3,0,0.6-0.2,0.9-0.2c0.6-0.2,1.2,0.2,1.7,0.9c0.2,0.3,0.3,0.6,0.5,0.9s0.6,0.3,1,0.4
		c-0.7,0.4-1.3,0.6-2.1,0.9c-0.5,0.2-1.1,0.4-1.4,0.9c-0.7,0.9-1.7,1.3-2.7,1.8C33.8,24.7,33.3,24.9,32.8,24.9z"/>
	<path class="st3" d="M32.8,24.9c0.5,0,1-0.3,1.5-0.4c0,0.2,0.1,0.3,0.3,0.3c0.3,0.2,0.7,0.1,0.9,0.4l0,0c0.5,0,0.8,0.4,1.3,0.5
		c0.4,0.1,0.6,0.1,0.9-0.1c0.2-0.1,0.3-0.3,0.4-0.3c0.1,0.2-0.1,0.3-0.1,0.4c-0.2,0.4,0.4,1.2,0.9,1.2c0.1,0,0.2,0,0.2,0.1
		c0.2,0.4,0.5,0.7,0.9,1c0.4,0.3,0.4,0.3,0.6-0.2c0,0,0-0.1,0.1-0.1c0,0,0,0,0.1-0.1c0,0.4,0,0.9,0.4,1.3c-0.2,0-0.3,0-0.4,0
		c-2.5,0-5,0-7.5,0c-0.2-0.4-0.4-0.9-0.4-1.4c0-0.1,0-0.2-0.1-0.3c-0.2-0.1-0.2-0.3-0.2-0.4c0-0.4-0.2-0.6-0.6-0.7
		c-0.2-0.1-0.4-0.2-0.6-0.3c-0.1-0.1-0.3-0.1-0.3-0.3c0-0.1,0.2-0.2,0.3-0.2c0.4-0.1,0.7-0.2,1.1-0.3C32.6,25,32.7,25,32.8,24.9z"/>
	<path class="st3" d="M33.8,31.2c0-0.6-0.3-1.2-0.4-1.8c2.7,0,5.3,0,8,0c0.1,0,0.2,0,0.3-0.1c0.1,0.1,0.2,0.2,0.3,0.2
		c0.4,0,0.5,0.4,0.8,0.6c0.3,0.4,0.7,0.6,1.2,0.9c-0.1,0-0.3,0-0.4,0c-3,0-6.2,0-9.2,0C34,31,33.8,31,33.8,31.2z"/>
	<path class="st4" d="M48.5,20.3c-0.5,0.3-1.2,0.3-1.8,0.3c-0.1,0-0.3,0-0.4,0c-0.6-0.4-0.6-1.1-0.6-1.7c0-0.3,0.1-0.4,0.4-0.4
		c0.3,0,0.3,0.2,0.4,0.4C46.8,19.6,47.6,20,48.5,20.3z"/>
</g>
</svg>
