<?xml version="1.0" encoding="utf-8"?>
<!-- Generator: Adobe Illustrator 22.0.1, SVG Export Plug-In . SVG Version: 6.00 Build 0)  -->
<svg version="1.1" id="Layer_1" xmlns="http://www.w3.org/2000/svg" xmlns:xlink="http://www.w3.org/1999/xlink" x="0px" y="0px"
	 viewBox="0 0 1569.4 730.2" style="enable-background:new 0 0 1569.4 730.2;" xml:space="preserve">
<style type="text/css">
	.st0{fill:#C82828;}
	.st1{fill:#C5C7CA;}
	.st2{fill:#F37C59;}
	.st3{fill:#254FA2;}
	.st4{fill:#FEFEFD;}
	.st5{fill:#0A75BC;}
</style>
<g id="oQ1LRa.tif">
	<g>
		<path class="st0" d="M29.4,486.6c6.8-47.7,45.2-84.3,81.3-112.6c44.6-35,94.9-61.5,145.8-86.2c1.8,8.2,3.4,16.5,3.7,24.9
			c-36.1,22.4-72.4,45.5-103,75.2c-26.5,25.7-50.8,60.1-49.8,98.6c-5-0.5-2.4-26.9-2-30.8c1.8-21.2,9.8-41.2,22.9-57.8
			c8.3-10.5,22.7-20.8,28.5-33.1c7.9-16.8-21.4,0.6-25.7,3.8c-30.7,23-58.2,53.1-67.7,91.3c-9.9,39.6,7.1,76.2,38.4,101
			c18.2,14.4,40.5,25.2,62.6,32.1c6.5,2,18.7,7.9,25.7,6.6c11.3-2.1-0.2-8.2,0.4-13.6c74.5,35.9,157.8,48.5,239.4,54.7
			c90.5,6.9,181.6,4.1,271.9-4.6c170.6-16.5,340.5-52.9,499-119.3c72.2-30.2,145.1-67,200.9-123.1c25.2-25.3,49.1-58.9,47.5-96.4
			c-1.5-35.9-27.2-64.5-55.6-83.7c-62-41.9-138.9-55.6-211.8-64.7c-88.9-11-178.7-11.5-268.1-5.6c-44.2,2.9-87.9,8.5-131.8,13.2
			c-7.8,0.8-15.9,0.7-23.7,2.4c-9.7,2.1-12.8,7-17.3,15.3c-9,16.7-20.3,32.2-32.7,46.5c-13.6,15.7-28.8,30.1-45,43
			c-5.5,4.3-10.4,8.7-17.6,8.6c-9.1-0.1-20.1-5.3-28.6-8.3c-19.6-6.9-38.5-15.8-56-27c-7.8-5-15.5-10.3-22.4-16.4
			c-6.6-5.8-11.2-11.2-20.5-10.1c-8.5,1-16.8,5.3-24.8,7.9c-10.9,3.5-21.9,6.7-32.7,10.4c-1-5-1-10-1-15.1c11.3-3.2,22.5-6.8,34-9.4
			c4.4-1,16.9-1.5,19.6-5.6c2.7-4.1-4-10.1-6.7-13.5c-5.6-7.1-10.1-14.2-13.8-22.5c-18.4-40.9-5.4-84.5,34.7-106.3
			c2,6.6-19.9,15.3-11.7,20.8c3,2,9.3-2.7,11.8-4c6.7-3.5,13.3-6.3,20.8-8c17.6-4,35.6-2.3,51.8,5.6c5.9,2.8,12.9,7.2,19.7,4.6
			c7.1-2.8,6-9,9-14.7c4.7-8.9,21.5-17.9,31.2-13.7c3.8,1.6,6.5,4.7,10.5,6.3c3.8,1.4,8,2,11.9,3.2c7.3,2.2,14.6,5,21,9.2
			c14.8,9.6,21.3,24.5,24.1,41.3c1.3,7.9,3.8,44.5,16,23.2c6.9-12.1,7.2-27.8,6.2-41.3c-0.3-3.2-2.3-13.1,0.5-15.7
			c2.8-2.6,4.9,1.1,7.8,0.5c4.9-0.9,3.1-5,6.8-6.9c5.8,16.7,1.5,37.1-2.4,53.7c-0.6,2.6-5.6,27.9-7.3,28.8
			c171.1-23.6,346.1-35.8,517.6-8.4c45.9,7.3,91.7,17.4,135,34.9c-2.8,7.7,6.1,13,11.2,16.6c7.8,5.6,15.3,11.4,22.3,17.9
			c14.8,13.8,24.1,31,28.9,50.6c10.4,41.9-6.2,81.2-33.6,112.8c-3.9,4.5-32.3,26.6-19.6,30.5c4.8,1.5,14.6-5.1,18.2-7.1
			c10.4-6,19.9-13.3,28.8-21.3c16.1-14.3,31.2-30.8,41-50.1c5.5-10.9,9.3-22.8,10.3-35.1c1.1-12.4-3.9-23.9-3.4-36.1
			c21.6,38.5,3,74.5-17.3,108.2c-59.4,72.5-145.5,117-230.4,152.8c-99.6,42-203.3,72.9-308.8,96.2
			c-109.3,24.1-220.3,40.4-331.9,48.1c-112.4,7.8-226,8.2-337.5-9c-58.2-9-116.7-21.8-169.9-47.7C68.2,579.9,26.5,543.5,29.4,486.6z
			"/>
		<path class="st1" d="M29.4,486.6c-4.3,80.9,79.6,120.3,145.2,139.9c102.3,30.7,211.3,38.4,317.5,38
			c241-1.1,484.1-40.8,710.3-124.7c106.2-39.4,218.3-87.4,291.9-177.2c1.4,8-6.2,16.4-10.9,22c-7.6,9.1-15.4,17.9-22.9,26.9
			c-17.2,20.6-37,37.6-59.4,52.4c-23.7,15.7-48,31.2-72.7,45.3c-22.6,12.9-47,22.9-70.8,33.5c-25.2,11.3-49.7,23.2-75.8,32.6
			c-26.1,9.4-52.6,17.5-79.1,25.6c-56.8,17.3-114.1,32.3-172.1,45.1c-118.1,26.1-238.9,41.3-359.6,48.9
			c-117.5,7.4-237.1,2.7-352.6-21.1c-56.2-11.6-116-29.3-161.1-66.5c-22.6-18.7-39.4-43.9-40.5-74C16.4,524.1,17.1,488.6,29.4,486.6
			z"/>
		<path class="st1" d="M459.6,213.6c-0.1,5.1,0,10.1,1,15.1c-2.1,29.8,3.9,59.6,7.2,89.1c1.8,15.6,3.3,31.3,4.7,46.9
			c1.1,12.3-0.7,31.8,4.8,43.2c6.2-1.8,9.2-19.8,11.7-25c3.5-7.2,11.4-23.4,20.6-24.3c-22.1,36.5-28.4,84.9-9.3,124
			c8.8,18.1,23.1,34.8,41.6,43.4c23.1,10.7,48.2,5.5,70.4-4.7c-1.1,7.8-14.2,12.1-20.2,14.9c-11,5.1-22.3,9.3-34.5,10.1
			c-25.2,1.5-48.3-11.6-63.9-30.7c-1.6,1.4-1.7,4-4,4.2c-15.3,3.8-30.2,10.7-44.4,17.4c-6.7,3.1-19.8,12.4-23.8,3.2
			c-3.7-8.6-0.8-21.7-1.3-30.9c-1.1-21.3-3.8-42.6-6-63.8c-1.1-10.8-2.2-21.5-3.3-32.3c-0.4-4.1,0.4-16.2-4.4-18.4
			c-3.7-1.7-13,3.8-16.2,5c-9.9,3.7-21.5,6.2-30.7,11.5c-4.4,2.5-9,7.5-7.1,13.4c2.3,7,8.6,3.8,14,1.9c9-3.2,27.3-16.3,31.8-3.7
			c3.6,10.1,3.1,23.6,4.3,34.3c1.4,12.2,2.6,24.4,3.6,36.6c2,24.4,3.4,48.9,4.4,73.4c23.1-8.8,45.9-17.4,68.7-26.1
			c1.8,8.6,5.4,15.6-3.6,20.9c-6.2,3.6-14.3,4.3-21,6.5c-10.7,3.5-21.5,7.5-31.7,12.3c-5.1,2.4-14,8.7-20.1,7.5
			c-9.9-2-6-31.5-6.5-39.8c-1.4-23.8-3.7-47.6-6.2-71.3c-0.6-5.6,0.4-37.9-5.4-41.3c-4.4-2.6-13.5,3.5-17.5,5.3
			c-6.8,3.1-10.3,4-10.7,12c-0.5,10.6,2.1,22.3,3.2,32.8c1.3,12.8,2.6,25.6,4.3,38.3c1,7.2,10.9,38.1,4.1,43.1
			c-17,4.9-33.7,12.8-49.6,20.6c-6.8,3.3-17.7,12.7-20.2,1.8c-1-4.5,0.1-9.9,0.1-14.5c0-9.6-1-19.3-1.6-28.8
			c-1.3-20-3.1-39.9-5-59.9c-3.8-39.6-7.9-79.2-11.7-118.8c-3.5-36-4.4-73-14.9-107.8c-0.8-6.7,20.3-11.1,24.6-12.4
			c8.4-2.5,15.9-5.8,24-9.2c6.5-2.7,19.9-10.7,23.8-2.3c1.9,4.3-0.1,16.7,0.1,21.3c0.5,10.4,1.2,20.8,2.1,31.2
			c1.5,18.3,4,36.6,4.6,54.9c0.2,4.8-0.8,14.7,5.3,16.6c3.9,1.2,12.5-4.1,16.2-5.2c16.3-5,10.7-16.9,9.5-30.9
			c-1.8-20.6-4.7-41.1-7.2-61.6c4.2-1.7,8.5-3.4,12.7-5.1c3.4,21.9,6.1,44.6,7.2,66.8c0.3,5-1.8,15.3,2.4,18.9
			c5,4.3,11.5-0.8,12.9-5.6c1.7-5.9-1.6-14.2-2.5-20c-1.5-9.8-2.1-19.8-3.1-29.6c-2.4-23.9-3.9-48.2-9.6-71.7
			c-1-6.9,39.3-15,44.8-16.8c5.7-1.9,18.1-10.2,23.9-7.9C463,194,459.6,208.6,459.6,213.6z M274.6,276.4c-0.2,0.7-0.1,1.3,0.5,1.8
			c0.1,1.4,0.3,2.8,0.4,4.1c-1.3,17.9,4.8,35.8,6.8,53.4c2.3,19.9,4,39.8,5.9,59.7c3.8,41.2,8.2,82.4,12.2,123.6
			c1.7,18.3,3.2,36.7,3.3,55c0,3.1-1.4,10.8,2.4,12.6c3.9,1.9,15.9-5.5,19.6-7.1c6.8-3,13.5-6,20.5-8.3c5.5-1.8,14.6-3.5,17.2-9.6
			c2.3-5.4-1.4-14.3-2.2-19.8c-1.5-9.5-2.7-19.1-3.9-28.7c-2.3-19.8-4.1-39.8-6.2-59.6c-0.8-7.7-1.4-15.4-2.6-23
			c-0.9-5.4-3.8-12.4-1.3-17.7c4.5-9.7,23-11.5,32.1-14.5c7.3-2.4,28.9-15.5,34.1-8.8c3.5,4.5,2.3,19,2.9,24.6
			c1.1,10.5,2.2,21.1,3.3,31.6c2,20.1,4.1,40.2,5.6,60.4c0.7,9.6-3.7,32.5,11.1,29.4c12.3-2.6,24.7-11.2,36.8-15.1
			c5.8-1.9,11.6-2.5,12.9-9.2c1.2-6.4-3-15-4.2-21.2c-4.4-22.6-6.3-45.8-8.8-68.6c-2.5-23.3-4.9-46.6-7.2-69.9
			c-2.2-21.6-1.7-43.9-7.1-65c-1.7-22.4-4.5-44.9-4.3-67.3c0-4.1,2-15.4-1.4-18.5c-3.8-3.4-12.9,1.7-16.7,3.2
			c-11,4.4-39.6,6.7-40.7,20.4c-0.8,9.4,3.5,21.3,4.7,30.7c1.7,13.2,3,26.5,4.1,39.7c1,11.6,1.8,23.2,3.3,34.8
			c1.4,10.7,1,16.9-9.7,21.3c-7.6,3.1-15.8,4.2-23.4,7.1c-8.8,3.3-16.7,8-26,10c-8,1.7-7.1-0.5-7.6-8c-0.6-11.4-1.6-22.8-2.7-34.1
			c-2.2-22.4-5.8-44.9-5.9-67.4c0-4.6,1.7-15.8-3.6-17.9c-4.7-1.8-14.9,4.6-19,6.4c-7.2,3.2-14.4,5.1-21.9,7.4
			C274.1,258.5,272.5,262.7,274.6,276.4z"/>
		<path class="st2" d="M1511.6,254.4c-0.4,11.5,4.3,22.4,3.6,34c-0.7,12.1-4.2,24-9.4,34.9c-9.1,19-23.5,35.2-38.8,49.4
			c-8.8,8.1-18.2,15.7-28.4,22c-4.3,2.7-15.9,11.2-21.9,9.4c-13-3.9,14.5-24.8,18.3-29c28.4-31.6,45.5-72,34.9-114.6
			c-5.1-20.4-14.9-37.7-30.5-51.8c-6.9-6.2-36.2-21.5-32-33.1c24.7,8.2,48.6,20.9,69.1,37C1484.1,218.5,1514.6,242.1,1511.6,254.4z"
			/>
		<path class="st2" d="M764.6,66.6c-2.3,1.3-1.8,5.4-4.3,6.5c-2.7,1.2-5-1.7-7.3-1.1c-5.3,1.3-4.1,6.6-3.8,11.4
			c0.8,13.2,1.4,25.3-2.6,38.3c-1.3,4.1-4.9,15.8-10.9,15.2c-6.6-0.8-7.3-15.4-8-20.2c-2.4-16.8-3.7-32.9-16.7-45.3
			c-12.5-11.8-27.8-12.5-42.6-19.2c-6.9-3.1-9.7-7.6-17.7-6c-5.8,1.2-13.3,4.8-17.6,8.9c-9,8.6-6.1,25.1-24,19.7
			c-7.6-2.3-14.1-7-21.9-9.2c-9.4-2.6-19.3-3.3-29.1-2.2c-8.9,1-18.1,3.2-26.1,7.2c-3.7,1.8-9.8,7.3-14.2,6.6
			c-12.7-2.2,11.1-15.2,9.4-20.8c0.4-0.8,1.1-1,1.8-1c2.9,2.3,3.3-0.3,4.1-2.1c21.1-10.3,45.8-12.8,67.9-4.2
			c3.8,1.5,15,11.3,18.5,10.7c4.9-0.8,9.1-12.3,12-15.8c21.1-25.3,70.1-36.6,98.7-19.2c-8.1,1.6-17-3.5-25.2-3.9
			c-8.1-0.4-16.6,0.5-24.5,2.3c-2.6,0.6-12.3,2-8.6,6.4c1.7,2.1,13.4,0,15.3-0.1c17.9-0.6,37.1-0.4,52,10.9c2.4,1.8,9.1,10,12.1,9.1
			c3.4-1.1,0.2-7.7-0.3-10.3c7.2,6.4,10.9,14.6,13,23.7c-0.4,0.2-0.4,0.4,0.1,0.7C764.5,64.6,764.6,65.6,764.6,66.6z M740.3,82.3
			c-0.8-15.6-7.6-31-22.9-36.8c-4.7-1.8-23.5-8.1-26.1-1.1c-2,5.6,9.2,9.2,12.3,10.9c7.5,3.9,14.6,9.3,19.5,16.3
			C726.9,76.8,740.3,104.2,740.3,82.3z M610.4,61.1c-1.4-11.5-44.5-21.8-49.3-11.3c-2.7,5.8,19.1,4.6,22.7,5.4
			C586.5,55.7,610.4,65.4,610.4,61.1z"/>
		<path class="st3" d="M265.5,260.3c10.2,34.1,11.3,70.2,14.6,105.4c3.8,40.4,8,80.9,11.9,121.3c1.9,19.1,3.6,38.3,4.9,57.5
			c0.7,9.6,1.5,19.2,1.7,28.8c0.1,5.2-1.3,11.7-0.1,16.8c2.4,10.6,12.8,1.9,19.7-1.4c16.1-7.7,32.9-15.9,50.2-20.8
			c1.1,6.5,4,12.6-1.3,17.9c-4.3,4.4-12.4,5.5-18,7.6c-16.9,6.3-33.3,14.2-49.9,21.1c-3.7,1.5-8.2,5-11,1.4c-3.1-4-0.8-15.8-1-20.5
			c-0.5-18.6-1.8-37.2-3.3-55.7c-3.1-37.3-7.1-74.5-10.9-111.7c-2-19.7-4.1-39.4-6-59.2c-1.8-18.6-2.2-37.6-6.9-55.7
			c-0.5-12.4-4-24.3-6.2-36.4C252.2,265.9,257.3,265.5,265.5,260.3z"/>
		<path class="st3" d="M388.5,216.4c5.4,22.1,7,44.9,9.2,67.5c1.3,13,2.3,26.2,4,39.2c0.8,5.8,3.9,13.8-0.7,18.6
			c-14.4,15.1-13.8-29.5-14.3-35.6c-1.9-21.8-1.7-44.5-8.3-65.6c0.1-4.9-3.7-10.6-1.7-15.5C378.4,220.8,384.9,218.9,388.5,216.4z"/>
		<path class="st0" d="M378.4,240.5c1.7,5.6,2.1,11.3,2.8,17.1c-4.2,1.7-8.5,3.4-12.7,5.1c-9.9,2.1-20.1,7.8-29.5,11.6
			c-0.4-6.5-0.8-13-1.2-19.4C351.1,249.6,364.2,243.7,378.4,240.5z"/>
		<path class="st1" d="M751.4,39.1c0.5,2.6,3.6,9.4,0.1,10.4c-3,0.9-8.1-6.2-10.3-7.9c-13.6-10.9-30.9-12.6-47.6-12.3
			c-3.1,0.1-19.7,2.4-20.8-0.3c-1.4-3.3,6.7-5.1,9.1-5.8c8.1-2.3,17.4-3.1,25.9-2.2c7.4,0.8,15.3,5.2,22.8,3.7c0,0,0-0.1,0-0.1
			c0.3,2.5,1.5,2.7,3.2,1.1C739.4,30.4,747.3,32.2,751.4,39.1z"/>
		<path class="st0" d="M1480.2,418.7c29.7,0,27.9,45.2-1.5,43.2C1450.8,459.9,1452,418.9,1480.2,418.7z M1497.8,440.6
			c0.2-23.6-35.2-23.4-35.1-0.2C1462.8,463.3,1497.6,463.8,1497.8,440.6z"/>
		<path class="st0" d="M533.4,53.2c-0.8,1.8-1.2,4.4-4.1,2.1C530.6,54.7,532,53.9,533.4,53.2z"/>
		<path class="st2" d="M733.7,25.8c-1.7,1.6-2.9,1.4-3.2-1.1C731.5,25,732.6,25.4,733.7,25.8z"/>
		<path class="st0" d="M764.5,63.6c-0.5-0.3-0.5-0.6-0.1-0.7C764.5,63.1,764.5,63.3,764.5,63.6z"/>
		<path class="st4" d="M355.4,590.5c4.4-1.8,12.3-2.7,14.8-7.3c2.3-4.3-1-11.1-1.8-15.5c4.9-3.6,1-13.6,0-18.1
			c-1.9-8.8-3.2-17.6-4.4-26.5c-2.8-22.1-8.4-47.3-7.3-69.6c0.4-7.1,2.6-8.1,8.9-11.1c4.1-2,12.3-7.7,16.8-6.5
			c8.5,2.3,6.7,29.1,7.4,36c2.3,21.8,4.3,43.6,5.9,65.4c0.8,11.3,1.6,22.7,1.7,34.1c0,5-1.9,13.6,3.2,16.7
			c5.5,3.4,16.7-4.3,21.7-6.7c9.1-4.2,18.6-7.5,28-11c7.6-2.8,16-4.3,23.4-7.7c11-5,7.8-11.6,5.7-21.4c4.1-1.6,11.7-2,13.5-6.5
			c1.6-4-2.3-11.2-3.2-15.1c2.4-0.2,2.4-2.8,4-4.2c15.7,19.2,38.8,32.3,64.1,30.7c11-0.7,52.4-9.7,54.5-24.9
			c27-16.1,41.5-40,52.2-68.7c6.8,13.5-2.6,35.3,6.3,47.4c6.3,8.6,24.3,5.7,33.5,5.1c17.3-1.2,33.8-3.9,50.1-10.1
			c10.7-4.1,29.6-9.5,34-21.5c18.4-12.1,33-27.1,39.1-49c6.1,11.7,3.9,25,15,34.2c10,8.3,24.3,10.5,36.9,9.8
			c9.9-0.5,47.6-4.4,45.1-20.7c4.6-1.8,11.8-2.5,15.2-6.4c4.4-5,1.9-11.4,1.2-17.4c3.3-5.7,10.5,3.9,13.4,6.1
			c5.4,4.2,11.4,7.8,17.8,10.3c16,6.4,33.8,6.6,50.5,2.9c7.9-1.8,54.3-16.7,51.8-30.2c5.1-4.2,10.1-8.5,15.2-12.7
			c5,11.2-1.3,19.4,13.7,22.9c14.3,3.4,29.7,3,44.2,1.9c15.4-1.1,30.2-4.1,44.2-10.8c7.8-3.7,22.7-10,23.9-20c0,0,0,0,0,0
			c1,0.1,1.6-0.3,1.8-1.3c7.3-5.2,13.7-11.4,18.9-18.7c1.5,11-2.9,25.7,9.6,30.7c14.4,5.8,35.5,5.8,50.7,4.9
			c14.6-0.9,29.1-4,42.5-10c7.8-3.5,23.3-10.2,23.5-20.5l0,0c0.9,0,1.6-0.3,1.8-1.3c21.1-15,27.9-40.6,24.9-65.3
			c-1.5-12.1-6.2-23.4-16.1-31c-11.5-8.9-18.8-10-18.6-25.9c4.9,2.5,9.8,5,14.9,7.7c-0.7-8.4-1.3-16.3-2-24.2
			c4.8-3.2,0.5-22.6-0.8-27c-3.2-10.3-13.3-10.8-23.1-11.5c-29.4-2.2-60.1,0.7-80,25.1c-0.3,0.9-2.2,1-1.1,2.5l0.1-0.1
			c-6.5-2.1-15.4,22.6-16.8,27.1c-13.6-0.4-9.7,28.2-15.2,33.9c-3.8,3.9-9.1-0.2-13.4-3.1c-7.4-5-10.1-10.8-8.5-20
			c5.8,0.5,10,4.8,15.6,6.8c-0.8-8.4-1.6-16.5-2.4-24.6c3.1-0.3,0.2-23.1-0.2-25.3c-2.1-12.3-12.1-12.4-23.4-13
			c-29.8-1.4-62.5,1.9-81.2,28.3c-0.7,0-1.3,0.1-1.4,1l0-0.1c-8.1,6.6-12.6,15.5-16.2,25c-4.9,1.6-5.7,7.4-10.2,9.8
			c-6.5-24.9-27.7-44.1-53.3-47.4c-27.8-3.5-53.8,10.1-71.2,31.1c-0.6,0.3-1.2,0.8-1.1,1.6l0.1-0.1c-1.4,0.5-2.8,1-2.1,3
			c0,0,0,0,0,0c-4.3-1.8-14,18-15.9,21.1c-0.9,0.5-1.1,1.2-0.9,2.2l0,0c-9.3-1.2-19.5,30.3-21.2,36.1c-6.6,22.2-5.1,45.3,0.9,67.5
			c-14.2-1.8-14-30.2-14.8-40.3c-0.6-8-2.8-15.5-3.7-23.4c-0.8-6.7,1-7.6,3.3-13.1c2.4-5.6,0.5-10,0.4-15.9
			c4.4-0.8,12.6,0.2,15.2-4.1c2.6-4.2-0.2-12.3-0.3-16.9c0.6-6.2,1.6-23.4-4.3-27.7c-5.8-4.2-14.5,4.5-20.4,1.2
			c-6.3-3.5-4-15.8-4.2-21.6c-0.4-7.6,0.9-24.7-3.4-31.1c-4-6-59,2.8-58.7,7.9c-12.5,5.5-12.2,8.9-10.4,21.2
			c-9.6-0.1-16,7.1-15.2,15.9c1.1,13.1,3.5,26.3,5,39.4c3.1,27.1,6.3,54.1,8.5,81.3c-8.4-9-16.7-11.8-26.9-17.3
			c-7.5-4-7.2-13.1-5.5-20.8c5.6,2.2,11.2,4.4,17.2,6.8c-0.8-8-1.6-15.6-2.4-23.3c3.3-0.3-0.1-23-0.5-25.3
			c-2.1-12.9-8.3-14.8-21.3-14.9c-32.6-0.2-65.2,8.5-86.1,35.2c-0.7,0-1.1,0.3-1.3,1l0-0.1c-5.5,4.4-8.8,10.5-12.8,16.2
			c-1,0.3-1.2,1-1.1,2l0,0c-9.8,1.5-17.4,21.9-20.7,29.6c-5-1.4-7-9.4-9.5-13.3c-3.6-5.5-8.2-10.3-13.2-14.5
			c-11.9-10-26.9-16.3-42.5-16.8c-29.2-1.1-56,16.3-73.2,38.9c-5.5,3-7.7,8.9-11.8,13.2c-9.1,0.8-17.1,17.1-20.6,24.3
			c-2.6,5.3-5.5,23.1-11.7,24.9c-5.1-10.5-3.3-27.3-4.4-38.7c-1.5-16.4-3.1-32.7-4.9-49c-3.3-30.3-9.6-60.9-7.5-91.5
			c18.2-6.2,40.9-18,60.4-18.2c8.1-0.1,12.9,6.2,18.8,11.1c8.1,6.7,16.8,12.7,25.8,18.2c18.2,11.1,37.8,19.4,57.9,26.4
			c6.7,2.3,14,6.3,21.2,7c8.7,0.9,13.9-4.5,20-10c29.5-26.8,56.1-53.5,76.2-88.3c8.9-15.4,17.5-15.1,34.9-17.4
			c21.4-2.9,42.9-5.5,64.4-7.8c89.3-9.4,179.2-12.8,268.8-7.5c77.5,4.6,156.7,15.3,229.4,43.5c47.6,18.4,107.1,51.1,110.8,108.5
			c4.2,65.2-56.1,114.7-104.8,147.1c-131.5,87.4-286.9,134.3-440.5,164.5c-171.5,33.7-349.1,51.7-523.3,30.1
			c-22-2.7-44-6.3-65.8-10.5c5.2-8.1,20.2-10.1,28.6-12.9c3.6-1.2,10.2-2.2,12.6-5.4C359.7,602.2,356.3,595.7,355.4,590.5z"/>
		<path class="st4" d="M107.4,486.6c-1.9-76,81.2-128.3,137-163.9c4.7,7.2,4.6,17.1,5.2,25.4c0.7,11.1,2,22.2,3,33.3
			c2.3,25.6,4.5,51.1,7,76.7c5.1,52.4,10,104.8,12.9,157.5c-63.8-13.9-153.7-50.4-164.8-123.9C108.1,489.9,107.9,488.2,107.4,486.6z
			"/>
		<path class="st2" d="M107.4,486.6c0.5,1.6,0.7,3.3,0.3,5c-1.7,1.3-2,2.3,0.4,2.9c7.5,45.4,45.5,70.3,82.4,91.6
			c-0.5,4.9,8.6,8,2.8,12.9c-3.8,3.2-16.4-2.3-20.3-3.4c-19.9-5.4-39.2-13.7-56.8-24.4c-31.6-19.3-57.6-52.4-55.8-90.9
			c1.8-39.6,27.3-76.6,57.2-101c5.3-4.4,32.6-29.5,40-21.3c5.3,5.8-16.4,25.1-19.7,28.8c-15.8,17.7-26.9,36.1-31.3,59.8
			C106.1,449.5,101.3,486,107.4,486.6z"/>
		<path class="st1" d="M272.5,615.5c-2.9-52.6-7.8-105-12.9-157.5c-2.5-25.5-4.6-51.1-7-76.7c-1-11.1-2.3-22.2-3-33.3
			c-0.5-8.3-0.5-18.2-5.2-25.4c5.3-3.3,10.6-6.6,15.8-9.8c8.2,31.9,8,65.1,11.1,97.7c3.5,36,7.4,72,10.7,108
			c1.7,18.1,3.2,36.1,4.2,54.3c0.5,8.2,0.9,16.5,1.1,24.7c0.1,4.2-1.7,13.7,0.2,17.4c4,7.6,14.3-1.4,19.9-4.1
			c15.6-7.5,32-13.6,47.9-20.3c2.6,14.4,2.3,17.2-11.9,21.9c-8.5,2.8-23.4,4.7-28.6,12.9C300.6,622.5,286.4,619.7,272.5,615.5z"/>
		<path class="st4" d="M754.9,149.2c-1.2,0.6-1.7,0.4-1.1-1C754.2,148.5,754.6,148.8,754.9,149.2z"/>
		<path class="st5" d="M333.5,280.4c2.4,22.1,6.1,44.4,6.1,66.7c0,4.5-1.6,14.4,1.4,18.5c5,6.9,19.4-2.6,25.7-4.9
			c9.2-3.3,18.4-6.4,27.7-9.3c5.1-1.6,12-2.8,14.4-8c2.7-5.9-1.2-16-2-22c-1.5-11.3-2-22.7-3-34c9.9,0.5,19.7-0.6,29.5-0.5
			c8.2,0.1,17.5,2.6,25.5-0.3c4.4,17.2,4.1,35.4,5.9,52.9c2,20.7,4.1,41.4,6.3,62c2,19.2,3.9,38.4,6.4,57.6
			c1.2,9.6,2.6,19.1,4.1,28.7c1.1,6.8,4.5,14.9,4.4,21.7c0,11.8-15.7,12.4-24.5,15.4c-7.8,2.6-29.5,16.5-34.5,7.8
			c-2.7-4.8-0.9-16.9-1.3-22.3c-0.7-9.6-1.4-19.3-2.3-28.9c-1.9-20.8-4.2-41.7-6.4-62.5c-0.9-8.9,1.8-29.7-7.9-31.7
			c-5.2-1.1-12.2,3.6-16.6,5.6c-8.4,3.9-17.1,7.1-25.8,10.3c-15.6,5.8-22.2,7.1-18.9,25.2c3.4,18.7,5,37.6,6.9,56.5
			c1.8,17.3,3.6,34.7,6.1,51.9c1,6.4,4.3,14.7,4,21.1c-0.3,7.4-5.7,9-12.1,11.4c-5.9,2.2-11.8,3.9-17.7,6.4
			c-6.4,2.7-18.7,11.2-25.6,10.6c-5.5-0.5-4.6-2-4.9-7.5c-0.7-11-1-22-1.6-33c-2.6-44.6-8.4-89.1-12.7-133.6
			c-2.2-22.9-4.2-45.9-6.6-68.8c-1.2-11.1-2.1-22.3-3.9-33.3c-1.5-9.1-4.4-18.3-3.7-27.6c10,1.7,20.3-0.8,30.4-0.3
			C315.2,282.6,324.8,284.8,333.5,280.4z"/>
		<path class="st3" d="M664.6,452.7c-10.7,28.7-25.2,52.7-52.2,68.7c-22.3,10.1-47.2,15.3-70.3,4.7c-18.6-8.6-32.8-25.2-41.7-43.4
			c-19.1-39.1-12.8-87.5,9.3-124c4.1-4.3,6.3-10.2,11.8-13.2c-1.1,7-6.1,12.8-9.2,19c-3.8,7.6-6.3,16-8.3,24.3
			c-4.2,17.7-4.6,36-0.5,53.7c6.3,27.1,22,54.1,48.6,65.2c55.2,23.1,105.5-32.9,115.4-83c0.5-0.1,1-0.2,1.4-0.2
			c-0.3,4.1-0.7,8.2-1,12.3C666.9,442.2,665.7,447.5,664.6,452.7z"/>
		<path class="st3" d="M458.7,286.5c-8.1,3-17.2,0.4-25.4,0.3c-9.9-0.1-19.7,1-29.5,0.5c-1.3-12.9-2.7-25.8-4.5-38.7
			c-1-7.4-6.4-22.1-2.8-29.1c3.1-6.1,16.4-8,22.3-9.5c7.3-1.9,13.8-4.2,20.8-6.9c4.6-1.7,10.6-5.4,13.8-1c2.7,3.7,0.9,13.2,0.9,17.4
			C454.4,241.8,457,264.2,458.7,286.5z"/>
		<path class="st3" d="M489.7,519.9c1.2,5.5,4.5,11,0.9,16.1c-3.7,5.2-17.3,7.8-23.3,10c-18.9,7-37.8,14.3-56.6,21.5
			c-1.6-40.8-4.4-81.6-9.4-122.2c-1.5-11.8,1.4-32.5-15.4-26.3c-7.2,2.7-29.8,17.3-33.4,6c-5.1-15.5,26.8-20.9,35.5-24.1
			c2.8-1,14.2-7.5,17.9-6.2c5,1.8,4.3,12.1,4.7,16.3c3.9,36,9.9,73.1,9.7,109.4c0,8.2-3.1,27.2,9.2,22.9
			C449.7,536.1,468.9,525.1,489.7,519.9z"/>
		<path class="st4" d="M338.9,274.3c9.4-3.8,19.6-9.5,29.5-11.6c2.5,20.1,4.9,40.3,7.2,60.5c0.8,6.9,4.6,20,0.3,26.5
			c-3.1,4.7-10.4,5.4-15.3,7.2c-6.8,2.5-11.7,6.3-15.2-1.9c-2.7-6.2-1.2-14.5-1.5-21.1C343.2,314,340.4,294.1,338.9,274.3z"/>
		<path class="st3" d="M333.5,280.4c-8.7,4.4-18.2,2.1-27.4,1.7c-10.1-0.5-20.4,2-30.4,0.3c-0.1-1.4-0.3-2.8-0.4-4.1
			c0.2-0.7,0-1.3-0.5-1.8c-2.1-13.7-0.3-17.1,13-21.1c11.3-3.4,21.9-9,33.1-12.6c6.8-2.2,10.4-3,11.6,4.7
			C333.9,257.5,333.2,270.2,333.5,280.4z"/>
		<path class="st5" d="M274.6,276.4c0.5,0.5,0.8,1.1,0.5,1.8C274.5,277.8,274.4,277.1,274.6,276.4z"/>
		<path class="st1" d="M740.3,82.3c0,21.1-12.1-3.5-15.9-9.2c-5-7.6-12.7-13.6-20.6-17.8c-3.2-1.7-13.9-5.1-12.5-10.4
			c2-7.7,21.8-1.3,26.3,0.5C732.7,51.2,739.5,66.9,740.3,82.3z"/>
		<path class="st1" d="M610.4,61.1c-0.1,4.2-24.2-5.5-26.6-6c-3.4-0.7-25.5,0.7-22.8-5.4C565.9,39.3,609,49.6,610.4,61.1z"/>
		<path class="st4" d="M1497.8,440.6c-0.2,23.3-35,22.7-35.1-0.2C1462.6,417.1,1498,417,1497.8,440.6z M1490.7,452.4
			c-1.5-2.3-4.5-5.4-4.7-8.3c-0.2-4.4,1.9-2.8,2.9-6c1.7-5.4,1.4-8.5-5.5-10.4c-12.8-3.5-11.5,6.8-11.7,15.4c0,1.7-1.4,10.8,2.7,9.8
			c2.9-0.7-0.1-8.5,3.2-9.9C1482.8,440.8,1483.5,454.6,1490.7,452.4z"/>
		<path class="st1" d="M1263.5,226.2c19.8-24.3,50-27,79.2-25.1c9.4,0.6,20.2,0.7,23.5,10.8c1.5,4.7,6.4,24.3,1.2,27.7
			c-12.5-8.6-37.2-18.6-51.7-9.9c-6.8,4.1-12.8,17.6-2,19.5c1.8,0.3,7.8-1.7,9.7-1.8c3.4-0.1,6.8,0.4,10.1,1
			c7.3,1.5,14.3,4.3,20.9,7.7c-0.1,17.5,10.7,18.4,22,28.9c12.5,11.6,13,28.9,12.8,44.7c-5.3,7.1-7.2,15.9-13.5,22.4
			c-6.2,6.4-14.3,10.9-22.6,14.2c-17.5,7-36.5,8.2-55.1,6.8c-7.5-0.6-19.8-0.4-26.5-4.6c-5.9-3.7-5-10.2-5.7-17
			c-1.3-12.2,1.2-27.2-15.7-23.9c-1.8-0.7-3.5-1.4-5.8-2.3c0,5.3,0,10.2,0,15.2c-9.5,34.9-47.2,48.4-80.1,49.4
			c-12.5,0.4-41.3,3.6-44.2-12c-2.6-13.8,2.3-34.6-17.1-34.4c-8.3-6-17.7-12.9-18.7-24.1c5.6-2.9,13.4-9.4,8.3-16.5
			c-4.5-6.2-9.6-0.8-14.5,2.3c-18.7,11.8-38.2,22.5-56.9,34.2c-11.3,7-10.3,20.9,4.5,14.5c18.3-7.9,35.2-21.5,52.6-31.3
			c0.1,16.3-19.7,21.8-32.4,28c-6.7,3.3-25.8,9.2-19.4,17.9c9.5,13,32.7,11.2,44,2.4c4.4-3.4,8.9-12.3,15-12.5
			c1.7,0,3.7,2.2,5.3,2.5c4.4,0.9,9.8,1.3,14,3c1.3,6.7,2.3,13.6,2.8,20.5c0.4,4.9-0.8,11.5,1.5,16c4.3,8.3,17.7,8,25.7,8.6
			c27.9,1.8,55.7-0.4,80.5-14.4c-1.2,9.7-15.5,15.8-23.1,19.5c-13.6,6.7-28,9.9-43.1,11.1c-15.3,1.2-32.9,1.7-47.8-2.3
			c-13-3.5-7.7-12.5-12.1-22.4c7.7-8.5,13.5-14.4,8.4-26.2c-28.1,34.3-81.5,49.6-118.3,19.8c-19.3-15.6-30.4-40.4-32.8-64.7
			c-1.3-13.6,0.3-27.3,4.1-40.4c2-6.9,12-19.4,10.5-26.5c0,0,0,0,0,0c1.8-0.2,2.3-1.4,2.1-3c0,0-0.1,0.1-0.1,0.1
			c1.2,0,1.2-0.7,1.1-1.6c17.4-21,43.4-34.6,71.2-31.1c25.6,3.3,46.8,22.5,53.3,47.4c4.5-2.3,5.4-8.2,10.2-9.8
			c-2.9,27.5-1.2,49.5,25.9,63.3c10.1,5.2,21,8.7,31.7,12.6c8,2.9,20.4,7.1,21.8,17c15.3-5.8,12-22,0.6-29.7
			c-13.9-9.3-31.2-11.9-45.9-19.6c-14.3-7.5-23.8-18.2-25-34.8c-0.5-6.7,0.4-12.8,2.6-19.1c1-2.8,6.4-11.8,4.5-14.7c0,0,0,0.1,0,0.1
			c1.1,0.5,1.2-0.4,1.4-1c18.9-26.6,52.1-29.8,82.1-28.3c11.2,0.6,19.9,0.8,22.1,12.7c0.4,2.4,3.9,25.2,0.6,25.6
			c-13.4-7.4-41.3-18-54.9-6.6c-6.9,5.8-9.2,18,1.9,17.4c14.1-0.8,27.5-2.4,39.8,6.9c-1.7,9.5,1.4,15.8,9.4,20.6
			c5.3,3.3,9.2,6.7,12.8,1.3c4.2-6.3,2.6-33,14.9-32.7c-1.6,13.6-1.2,28.2,6.4,40.1c8.7,13.7,24.7,20.1,38.9,26.4
			c7.9,3.5,17.5,6.3,24.8,11c5.2,3.4,7,11.9,14.3,7.5c8.4-5,6.2-15.6,0.9-21.4c-12.2-13.5-32.7-16.7-48.4-24.4
			c-27.3-13.4-29-40.2-20.1-66.2c0,0-0.1,0.1-0.1,0.1C1263.8,228.3,1263.7,227.3,1263.5,226.2z M1082.5,272.9
			c0.1-0.8-0.1-1.4-0.8-1.8c-3.8-28.1-40-41.3-64.1-38.2c-24.9,3.2-45,20-55.5,42.4c-18.2,26.2-12.3,68.4,3.4,94.2
			c17.6,28.8,48.9,41.3,81.5,32.3c14.3-4,26.9-11.5,37.9-21.3c3.6-3.2,10.1-8.3,3.2-12.2c-6.7-3.8-12.7,6.3-17.5,9.4
			c-14,9-31.1,7.7-44.2-2.1c-7.3-5.5-23.3-21.9-18.8-32.1c3.4-7.8,18.1-13.1,25.1-17.2c10.4-6.2,20.8-12.5,31.3-18.7
			c5.9-3.5,19-7.9,22.5-14.1c3.3-5.8-1-14.7-3.8-20C1082.6,273.3,1082.6,273.1,1082.5,272.9z M1335.8,270.5
			c-13.5-5-39.4-14.6-33.1-33.6c3.7-11.1,15-14.5,25.6-14.7c6.8-0.2,13.5,0.9,19.9,3.1c3.9,1.4,9.7,5.4,14.1,4
			c-1-10.9-1.1-17.4-12.7-20.3c-16.1-4.1-35.2-4-51.2,0.5c-26.4,7.4-45.6,36.5-33.2,63.1c5.9,18.9,39.5,24.9,54.9,32.6
			c8.1,4,18.4,9.5,20.8,19c3.3,13.2-8.4,23.9-20.5,25.9c-15.2,2.5-27.1-3.6-40.1-10c-5-2.5-7.9-5.1-10.1,0.8c-1.6,4.1,0,14,1.9,17.9
			c5.8,11.6,24.8,10.5,35.7,10.2c16.2-0.5,33-2.2,47.7-9.3c19.7-9.4,33-29,27.4-51.3C1377.4,286.1,1355.9,276.3,1335.8,270.5z
			 M1159.1,265.6c-5.7-12.6-2.3-25.2,10.9-30.4c15.2-6.1,32.1,0,46.8,4.7c-1.8-15.1-0.8-22.8-18.5-23.6c-16.3-0.7-33.7-1-49.2,4.7
			c-26.6,9.7-49.6,48.1-27.3,72.9c9.7,10.8,25.6,15.5,38.8,20.4c11.2,4.1,26.2,7.7,32.2,19.2c7.3,13.8-3.4,26.9-16.7,30.6
			c-18.6,5.2-37.3-4.8-53.5-12.6c1,9.5-1.3,25.9,8.5,30.6c10.8,5.2,30.7,3.2,42.2,2.1c22.1-2.3,47.9-10.6,59.9-30.8
			c12.2-20.6,6.3-48-14.5-60.3C1200,281.9,1174.3,282.8,1159.1,265.6z"/>
		<path class="st1" d="M667.6,424.9c-9.8,49.9-60.4,106.4-115.4,83c-26.9-11.4-42.8-38.9-48.9-66.5c-4-18-3.3-36.6,1.2-54.4
			c1.8-7.1,4-14.3,7.1-21c3.1-6.7,8.6-13,9.8-20.5c16.9-22.1,42.7-39.2,71.3-38.9c15.7,0.1,30.7,5.9,42.9,15.7
			c5.6,4.4,10.7,9.6,14.6,15.6c2.4,3.7,4.8,12.1,9.6,13.4c3.3-7.7,10.8-28.1,20.7-29.6c-11.1,27.2-12.6,61.4,16.6,77.2
			c12.2,6.6,26,9.8,39.3,13.4c8.5,2.3,24.3,6.2,23.2,18c18.8-7.2,11-26.3-2.7-33.1c-16.3-8.1-35.3-8.9-51.2-17.8
			c-15.6-8.7-21.8-23.4-21.2-40.8c0.3-7.1,1.7-13,4.4-19.3c1.3-2.9,7.3-12.2,5.5-15.5c0,0,0,0.1,0,0.1c1.1,0.6,1.1-0.3,1.3-1
			c20.9-26.7,53.6-35.4,86.2-35.2c12,0.1,19,1.5,21.1,13.7c0.4,2.4,4.1,26.1,0.7,26.4c-14-8.9-41-14-55.5-3.7
			c-4.3,3.1-13.7,17.7-4.7,20.3c1.6,0.5,5.7-2.7,7.1-3.1c4.1-1.3,8.4-1.9,12.8-2c8.7-0.1,17.4,2.1,25.6,4.9
			c-1.7,7.7-2.5,16.5,5.1,20.6c10.2,5.6,18.9,8.4,27.3,17.4c-2.3-28.6-5.8-57-8.9-85.5c-1.3-12-3.6-23.9-4.9-35.8
			c-0.9-8.9,5.9-15.3,15.5-15.3c10.3,54.3,15.3,110.1,20.6,165c1.8,18.7,2.2,40.8,18.2,53.6c17.7,14.2,42.7,9.4,62.7,3.7
			c2.5,15.9-34.3,20-44,20.7c-12.2,0.8-26.2-1.1-36.3-8.5c-12.5-9.2-10.1-23.1-16.6-35.5c0.7-6.3,2.5-12.5,1.4-20.3
			c-8.6,36.3-42.5,57.6-77.2,64c-11.6,2.1-23.5,2.7-35.3,2.2c-5.8-0.2-12.9,0.5-16.4-4.5c-5.5-7.8,1.9-48.6-12.5-45.6
			c-2.1-4.2-16.1-13.3-18.2-7.6C668.2,416.8,667.8,420.8,667.6,424.9z M506.3,416c0.3,33,14,70.6,45.6,85.6
			c36.2,17.1,76.2-6.8,95.5-38c20.2-32.8,24.1-77.6,5.4-111.9c-18.1-33.1-57.1-48.3-91.9-32.1C524.6,336.4,506.9,377.8,506.3,416z
			 M777.2,273.5c-29.1-1.5-62.8,8.9-78.3,35.3c-13.8,23.4-14.1,56.3,13.8,68.8c18.7,8.4,60.8,7.5,63.8,34.8
			c3.9,34.7-46.4,28.5-64.8,19.7c-10.5-5-10.8-2.2-10.4,8.5c0.3,6.5,0,20.5,6.4,24.3c6.5,3.9,25,0.3,31.8-0.4
			c17.7-1.9,35.6-6.7,50.8-16.2c23.6-14.8,41.7-43.2,31.1-71.7c-8.8-23.8-36.5-29-58.3-34.1c-14-3.3-32-11.1-27.6-29.1
			c4-16.3,25.2-21.2,39.7-19.2c8.1,1.1,20.8,9.9,23.6-0.3c0.9-3.4-0.3-11.8-2.2-14.9C792.4,272,784.3,273.2,777.2,273.5z"/>
		<path class="st1" d="M1074.3,413.3c1.3,6.9-14.7,14.5-19.2,17.1c-11.1,6.4-22.9,11.3-35.5,13.7c-15.2,3-31.3,2.6-46-2.9
			c-7.6-2.9-14.7-7-20.9-12.1c-2.4-2-8.7-10.3-11.8-4.9c-3.6-2.4-20.4,6.5-24.5,7.5c-12,2.8-25.6,3.6-37.1-1.5
			c-20.4-9-21.4-32.7-23.6-52c-3.3-28.9-7-57.7-10.4-86.6c-3.4-29.1-4.7-58.7-11.8-87.2c-0.3-5.1,26.7-7.1,30-7.5
			c5.1-0.7,10.3-1.1,15.5-1.8c7.1-1.1,10.9-3.8,13.8,3.8c3.9,10.1-3.2,48,9.9,50.7c7.7,1.6,14.9-7.3,20,2c3.4,6.3,2.4,17.3,1.8,24.2
			c-6-1.1-17.5-0.4-21.5,4.9c-3.4,4.5-1.3,18.5,6.6,16.2c0.1,5.6,1.6,9.3-0.1,14.7c-1.7,5.2-3.5,6.8-3.2,13.1
			c0.5,8.5,2.7,17,3.4,25.6c0.8,9.9,0.9,37.5,14.7,39.3c-6-22.2-7.5-45.3-0.9-67.5c1.8-6,11.9-37.2,21.2-36.1
			c-13,38.6-14,84.6,14.5,116.7C989.5,436.6,1037.2,435.5,1074.3,413.3z M897.9,299.1c-1.3-12.3-7.7-24.6,8-26.6
			c7.9-1,19.5-4.7,11.4-15.7c-6.5-8.9-18.5,5.8-24.9-3.5c-2.4-3.6-1.1-11-1.3-15.1c-0.4-8.9-1.8-17.8-2.6-26.7
			c-1.3-15.5-7.5-11.3-20.1-9c-7.4,1.3-21.9-0.9-26.7,6.2c-5.2,7.7,2.6,29.3,3.7,38.3c2.2,18.2,4.6,36.3,6.9,54.5
			c-0.5,16.3,3.4,32.4,5.4,48.6c2.1,17,2.5,34.8,6.6,51.5c6.5,26.1,31,29.4,53.8,24.3c12.5-2.8,20.7-5.6,16.9-20
			c-2.8-10.4-14.6-8.8-21.1-17.4c-7.8-10.4-8-25.1-9.4-37.5C902.5,333.7,900.1,316.4,897.9,299.1z"/>
		<path class="st3" d="M833.5,204.4c7,28.5,8.3,58.1,11.8,87.2c3.5,29.4,7.3,58.8,10.6,88.2c2.1,19,3.6,42.3,24,50.7
			c11.9,4.9,25.9,3.8,38.2,0.7c4.6-1.2,18.6-9.8,22.8-7.1c0.7,6,3.1,12.4-1.2,17.4c-3.3,3.8-10.6,4.6-15.1,6.4
			c-19.8,5.7-44.9,10.4-62.4-3.5c-20.6-16.4-18.3-53.6-21.2-77.3c-3.8-31.2-7.8-62.4-11.3-93.7c-1.7-15.2-2.9-30.7-6.3-45.6
			C820.4,214.6,820.5,210.1,833.5,204.4z"/>
		<path class="st3" d="M1074.3,413.3c-37.1,22.2-84.8,23.3-115.1-10.8c-28.5-32.1-27.5-78.1-14.5-116.7c0,0,0,0,0,0
			c0.9-0.5,1.1-1.2,0.9-2.2c2-3.1,11.7-22.8,15.9-21.1c1.4,6.5-8.5,19.9-10.4,26.3c-4,13.1-5.6,26.9-4.3,40.6
			c2.4,24.4,13.6,49.3,32.9,64.8c36.8,29.7,90.2,14.4,118.3-19.9c5.1,11.8-0.8,17.7-8.4,26.2
			C1084.4,404.8,1079.3,409.1,1074.3,413.3z"/>
		<path class="st3" d="M687.5,420.5c14.4-2.9,7,37.9,12.5,45.7c3.5,4.9,10.6,4.2,16.4,4.5c11.8,0.5,23.7-0.1,35.3-2.3
			c34.8-6.4,68.7-27.6,77.2-64c1.1,7.8-0.7,14-1.4,20.3c-6.1,21.9-20.7,36.9-39.1,49c-9,0.9-17.3,7.8-25.9,10.5
			c-8.1,2.6-16.5,4.2-24.9,5.3c-10.5,1.4-40.3,6.3-48.2-3.2c-3.6-4.3-3-17-3.7-22c-0.8-6.2-1.8-12.2-3-18.3
			C681.7,440.1,676.7,420.6,687.5,420.5z"/>
		<path class="st3" d="M1103.1,343.6c19.4-0.2,14.5,20.6,17.1,34.4c2.9,15.6,31.7,12.4,44.2,12c32.9-0.9,70.5-14.4,80.1-49.4
			c0.1,1.7,0.3,3.3,0.4,5c-0.4,10.4-3.4,20.1-8.6,29.1c-5.3,7.3-11.6,13.5-18.9,18.7c-0.8,0.2-1.5,0.5-1.8,1.3c0,0,0,0,0,0
			c-24.7,14-52.4,16.1-80.1,14.4c-7.1-0.4-20.5,0.2-25.4-6.3c-2.8-3.7-1.7-10.5-1.9-14.8c-0.5-8-1.6-16.1-3.1-24
			C1104.3,357.2,1103.7,350.4,1103.1,343.6z"/>
		<path class="st3" d="M1250.2,327.7c16.9-3.3,14.4,11.7,15.7,23.9c0.7,6.8-0.1,13.3,5.7,16.9c6.7,4.2,18.9,4.1,26.5,4.6
			c18.6,1.4,37.6,0.2,55.1-6.8c8.2-3.3,16.4-7.8,22.6-14.2c6.3-6.5,8.2-15.3,13.5-22.4c0.8,20.9-8.3,36.7-25,48.6
			c-0.8,0.2-1.5,0.5-1.8,1.3c-27.4,12.7-55.4,15.4-85.1,11.6c-12.4-1.6-20.6-2.6-22.1-15.9C1253.5,359.5,1251.7,343.6,1250.2,327.7z
			"/>
		<path class="st3" d="M694.5,303.6c2,3.7-3.9,11.4-5.4,14.9c-3.1,7.2-4.5,14.1-4.6,22.1c-0.1,17.3,7.1,31.3,22.5,39.5
			c17.1,9,38.2,9.2,54.5,19.8c12.1,7.9,13,24.8-1.9,30.4c1.1-11.8-14.8-15.5-23.3-17.9c-13.6-3.7-28-7.1-40.4-14.2
			c-28.2-16.2-26.3-49.8-15.4-76.5c0,0,0,0,0,0c0.9-0.4,1.1-1.1,1.1-2C685.6,314.2,688.9,308,694.5,303.6z"/>
		<path class="st3" d="M1115.5,239.6c2,3.2-3.4,11.9-4.4,14.6c-2.3,6-3.1,11.8-2.8,18.2c0.8,16.9,10.5,28.1,24.9,35.8
			c15,7.9,33.3,10.6,47.2,20.7c10.8,7.9,12.5,23.3-1.7,28.7c-1.3-9.6-13-13.7-20.8-16.5c-11.4-4.2-23-8-33.8-13.7
			c-26.3-13.8-27.7-36.1-24.8-62.8C1102.9,255.1,1107.3,246.2,1115.5,239.6z"/>
		<path class="st3" d="M1262.5,228.6c-8.8,25.5-7.9,52.7,19.4,65.8c16,7.7,40.4,11.6,51,27.2c3.8,5.5,3.6,20.7-6.3,20.9
			c-4.3,0.1-7.5-7.3-11.5-9.7c-7.1-4.3-15.8-7-23.3-10.3c-14.2-6.3-30.3-12.7-39.2-26.2c-7.9-11.9-8.5-26.8-6.8-40.6
			C1247,251.4,1256,226.5,1262.5,228.6z"/>
		<path class="st1" d="M1252.3,349.7c0.8,7.1,1.9,14.2,2.4,21.3c0.3,4.3-0.7,10.2,1.7,14.1c4.5,7.2,19,6.9,26.3,7.4
			c28.2,2,53.8-0.9,79.8-12.7c-0.2,9.9-14.8,16.5-22.2,19.9c-13.1,6.1-27.3,9.3-41.6,10.4c-16.4,1.3-34.3-0.2-50.3-4.2
			c-15.2-3.9-10.4-18.5-12.2-31.2c5.2-9,8.3-18.6,8.6-29.1C1248.3,345.2,1249.2,349.5,1252.3,349.7z"/>
		<path class="st1" d="M682.5,438.7c1.8,13.8,2.5,28.4,5.6,42c2.5,11,12.6,9.7,22.4,9.8c14.1,0.1,27.9-0.5,41.7-3.5
			c6.3-1.4,12.7-3.1,18.7-5.6c5.8-2.4,11.3-7,17.6-7.6c-4.6,12.3-25.2,18.2-36.3,22.3c-16.4,6.1-33.5,8.4-50.9,9.5
			c-10,0.6-27.1,3.3-31.8-7.7c-5.9-13.6,2-31.2-5-45.1c1.2-5.2,2.3-10.5,3.5-15.7C673,436,678,435.3,682.5,438.7z"/>
		<path class="st3" d="M789,324.1c-7.8-2.7-16.1-4.8-24.3-4.9c-4,0-8.4,0.2-12.3,1.4c-1.9,0.6-4.6,2.9-6.6,3.1
			c-10.2,0.8-4.6-13.7,0.6-18.4c13.9-12.4,43-6.7,57.3,2.3c0.8,7.6,1.6,15.3,2.4,23.3C800.2,328.6,794.6,326.4,789,324.1z"/>
		<path class="st3" d="M1208.5,266.5c-11.8-8.9-25.5-8.5-39.2-6.8c-11.2,1.3-10.1-10.4-3.3-16.8c13.2-12.6,42.2-1.5,55.7,5.9
			c0.8,8.1,1.6,16.2,2.4,24.6C1218.5,271.3,1214.3,267,1208.5,266.5z"/>
		<path class="st3" d="M1354.5,256.2c-7-3.6-14.4-6.5-22.2-7.8c-6.7-1.1-12.3,1.6-18.3,1.1c-10.6-0.9-5.7-14.5,0.8-19
			c14.3-9.9,40,0.6,52.7,9.2c0.7,7.9,1.3,15.8,2,24.2C1364.3,261.2,1359.4,258.7,1354.5,256.2z"/>
		<path class="st3" d="M909.5,296.7c-8,2.4-9.8-11.6-6.6-16.2c3.8-5.3,15.7-5.9,21.5-4.9c0.2,4.7,3,12.7,0.3,16.9
			C921.9,296.9,913.9,295.9,909.5,296.7z"/>
		<path class="st3" d="M963.5,259.6c0.3,1.7-0.2,2.8-2.1,3C960.6,260.6,962.1,260.1,963.5,259.6z"/>
		<path class="st1" d="M945.5,283.7c0.2,0.9,0,1.7-0.9,2.2C944.4,284.9,944.6,284.2,945.5,283.7z"/>
		<path class="st1" d="M1362.5,379.7c0.3-0.9,1-1.1,1.8-1.3C1364.2,379.5,1363.5,379.8,1362.5,379.7z"/>
		<path class="st3" d="M1263.5,226.2c0.2,1.1,0.3,2.1-1.1,2.5C1261.4,227.2,1263.3,227.1,1263.5,226.2z"/>
		<path class="st1" d="M681.6,319.8c0,0.8-0.2,1.6-1.1,2C680.4,320.8,680.7,320.1,681.6,319.8z"/>
		<path class="st1" d="M1215.5,394.7c0.3-0.8,1-1.1,1.8-1.3C1217.2,394.5,1216.5,394.8,1215.5,394.7z"/>
		<path class="st3" d="M964.5,258.1c0.1,0.9,0.1,1.6-1.1,1.6C963.3,258.9,963.8,258.4,964.5,258.1z"/>
		<path class="st3" d="M1116.8,238.6c-0.3,0.6-0.4,1.5-1.4,1C1115.5,238.8,1116.1,238.6,1116.8,238.6z"/>
		<path class="st3" d="M695.7,302.7c-0.2,0.7-0.2,1.6-1.3,1C694.6,303,695,302.7,695.7,302.7z"/>
		<path class="st0" d="M108.2,494.5c-2.4-0.6-2.1-1.7-0.4-2.9C107.9,492.5,108,493.5,108.2,494.5z"/>
		<path class="st4" d="M682.5,438.7c-4.5-3.4-9.4-2.7-14.4-1.7c0.3-4.1,0.7-8.2,1-12.3c1-3.9,0.1-7.9,0.3-11.8
			c2.1-5.7,16.1,3.5,18.2,7.6C677.4,420.6,681.8,432.2,682.5,438.7z"/>
		<path class="st5" d="M669.3,412.9c-0.1,3.9,0.7,7.9-0.3,11.8c-0.5,0.1-1,0.2-1.4,0.2C667.8,420.8,668.2,416.8,669.3,412.9z"/>
		<path class="st0" d="M1490.7,452.4c-6.9,2.1-8.2-12.9-13.8-9.1c-2.8,1.9,0.8,8.2-2.2,9.5c-4.3,1.8-2.8-10.8-2.8-11.9
			c0.1-4.3-1.6-10.7,2.4-13.4c3-2,12,0.3,14.2,2.7c5.2,5.7-1.4,7-2.3,12.1C1485.5,446.6,1488.3,448.6,1490.7,452.4z M1479,438.8
			c6-0.4,10.9-5.7,3-7.7C1474.3,429.1,1474.2,439.8,1479,438.8z"/>
		<path class="st5" d="M1082.6,273.5c2.3,4.4,5.7,11.1,4.9,16.2c-1.1,7.7-11.6,10.7-17.4,14.2c-18.1,10.6-36.7,20.8-54.1,32.4
			c-5.4,3.6-9.8,6.1-8.9,13c0.8,6.2,7.5,14.4,11.5,19c10.7,12.3,27.1,19.2,43.1,13.7c7.5-2.6,11.4-7.4,17.6-11.7
			c3.8-2.7,12.3-4.4,11.9,3.2c-0.2,3.9-8.4,9-11.3,11.3c-6.5,5.2-13.6,9.6-21.2,12.9c-30.4,13.2-64.8,7.9-86.3-18.3
			c-21.4-26.1-30.9-74.5-10.4-104c3.6,2.1,6.8-1.1,10.2-1.7c4.7-0.7,5.2,0,9.6,0.8c1.3-0.5,2.6-0.9,3.9-1.4c2.6,0.3,5.2,0.7,7.8,1.3
			c-1.2,13.7-0.3,26.6,1.3,40.2c1,9-0.1,20.8,11.6,13.7c9.9-6.1,21.8-12.1,30.1-20.3c10.9-10.7,7.8-22.7,5.4-36.3
			C1055.5,271.6,1069,273.7,1082.6,273.5z"/>
		<path class="st5" d="M1159.1,265.6c14.9,16.9,40.1,16.3,58.7,26.8c21.5,12.1,27.8,39.9,15.4,61c-12.3,20.9-39.6,29-62.3,30.9
			c-10.8,0.9-29.7,2.7-39.8-2.1c-9.7-4.7-7.4-21.6-8.4-30.8c18.2,8.7,48.3,24.3,66,6c15-15.5,0.4-31.5-14.4-38.7
			c-25.1-12.3-63.9-16.6-60.4-53.2C1127,262.3,1146.1,261.7,1159.1,265.6z"/>
		<path class="st5" d="M1335.8,270.5c17.6,5.1,36.6,12.9,44.6,30.8c8,17.8,2.6,38.1-12.3,50.4c-14.3,11.8-33.2,15.4-51.2,16.7
			c-11.7,0.9-30.6,3.2-40.6-4.6c-5-3.9-10.9-24.7-3-26.9c3.4-1,12.5,6.1,15.4,7.6c5.8,2.9,11.5,4.8,18,5.6c14,1.7,31.3-2,34.2-18.3
			c1.8-9.9-4.8-16.8-12.5-21.9c-11.2-7.4-24.5-11.4-36.7-16.8c-9.4-4.1-23.2-9.6-26.6-20.5c11.8-0.5,23.7,0.8,35.4-0.4
			C1312.3,271,1324.5,274.2,1335.8,270.5z"/>
		<path class="st3" d="M1335.8,270.5c-10.8,3.6-23,1-34.3,1.9c-12.1,1-24.2-0.3-36.3,0.2c-12.4-26.7,6.9-55.6,33.2-63.1
			c15.9-4.5,35.1-4.6,51.1-0.5c11.6,2.9,11.7,9.4,12.7,20.4c-4.3,1.4-9.1-2.4-13-3.7c-6.5-2.3-13.4-3.4-20.3-3.3
			c-10.8,0.2-22.5,3.3-26.2,14.7C1296.4,255.9,1322.3,265.5,1335.8,270.5z"/>
		<path class="st3" d="M1082.6,273.5c-13.6,0.2-27.1-1.9-40.7-1.7c-4.8-10.9-11.6-23.1-25.4-21.8c-12.6,1.3-20,13.3-23,24.4
			c-3-0.2-6.2,0.5-9.2,0.2c-2.4-0.3-4.9-1.9-7.1-2.1c-4.7-0.3-11.3,5.1-15.3,2.8c10.9-23.1,31.6-39.9,57.3-42.6
			c23.6-2.5,58.6,11,62.3,38.4c0.3,0.6,0.5,1.2,0.8,1.8C1082.6,273.1,1082.6,273.3,1082.6,273.5z"/>
		<path class="st3" d="M1159.1,265.6c-13-3.9-32.1-3.3-45.2-0.1c3.1-27.6,25.4-44.9,51.7-48.5c12.6-1.7,28.6-2.3,41.2,0.5
			c11.3,2.5,8.8,12.9,9.9,22.3c-14.7-4.7-31.6-10.7-46.8-4.7C1156.8,240.4,1153.4,253,1159.1,265.6z"/>
		<path class="st4" d="M1103.1,343.6c0.6,6.8,1.2,13.6,1.8,20.5c-4.6-1.8-8-1.3-12.6-2.4c0.2,0-8.1-3-6.7-3.1
			c-5.9,0.4-9.5,8-13.6,11.4c-4.8,3.9-10.9,6.7-17,7.7c-7.7,1.2-34.9-3.5-28.5-15.7c3.7-7.1,20.7-11.6,27.5-15.3
			c11.3-6.2,24.5-9.4,24.5-23.9c2-1.1,3.6-2.9,6-3.2C1085.4,330.6,1094.8,337.5,1103.1,343.6z"/>
		<path class="st3" d="M1084.4,319.5c-7.8,1.1-14.5,7.1-20.8,11.3c-8.1,5.4-16.7,10.2-25,15.3c-4.8,2.9-14.9,12.4-20.9,9.8
			c-10.1-4.3-2.3-12.4,2.7-16c17-12.1,36.1-20.9,53.6-32.2c4.3-2.8,11.5-10.4,17-7C1099.8,306.3,1089.9,316.7,1084.4,319.5z"/>
		<path class="st4" d="M1252.3,349.7c-3.1-0.2-4-4.5-7.5-4c-0.1-1.7-0.3-3.3-0.4-5c0-4.9,0-9.9,0-15.2c2.2,0.9,4,1.6,5.8,2.3
			C1250.9,335,1251.6,342.3,1252.3,349.7z"/>
		<path class="st5" d="M1082.5,272.9c-0.3-0.6-0.5-1.2-0.8-1.8C1082.4,271.5,1082.6,272.2,1082.5,272.9z"/>
		<path class="st5" d="M506.3,416c0.7-42.3,22.8-89.3,66.7-100.9c39.8-10.6,76,16.9,86.9,54.4c16.5,56.8-16.8,141.5-85.6,137.6
			C529,504.6,506.6,456.4,506.3,416z M613.5,434.1c0.3-16.9-1.9-33.6-4.9-50.1c-2.3-12.7-4.5-27.8-13.9-37.6
			c-9.4-9.7-23.4-9.1-31,2.5c-6.9,10.6-6.4,25.3-6.1,37.5c0.4,15.9,2.7,31.6,5.4,47.2c2.2,12.6,4.7,28.6,14.4,38
			c9.2,8.9,23.2,7.2,30.3-3.4C614.2,458.5,613.7,445.3,613.5,434.1z"/>
		<path class="st5" d="M777.2,273.5c12.7-0.5,19.4-0.4,21.1,13.2c2.3,18.3-13.4,8-25.4,7.4c-12.2-0.6-29.4,2-35.7,14.2
			c-8,15.4,5,27.3,18.5,32c21.3,7.3,50.3,7.2,62.9,29.3c16.1,28.2-1.7,61.3-26.1,77.4c-13.7,9-29.5,14.4-45.6,16.9
			c-7.8,1.2-33.4,6.1-40.5,0.6c-5.3-4.2-4.7-20.5-5.6-27c-2.1-15.5,10.6-4.1,19.1-1.4c15.2,4.8,42.3,6.9,53.1-7.7
			c22.4-30.2-33-41.6-49.9-47.5c-15.1-5.3-27.9-12.8-31.9-29.3c-3.1-12.4-0.5-26.1,5-37.5C710.3,284.2,746,271.9,777.2,273.5z"/>
		<path class="st5" d="M897.9,299.1c2.2,16.7,4.5,33.4,6.4,50.2c1.5,13.3,1.4,30,10.7,40.7c6.7,7.8,17.1,5.6,19.9,15.8
			c4.3,15.7-5.3,17.6-18.4,20.4c-22.6,4.9-46.1,0.8-52.3-24.8c-3.9-15.9-4.4-32.8-6.3-49.1c-2-16.9-6.1-33.7-5.6-50.8
			C855.7,301.9,896.3,304,897.9,299.1z"/>
		<path class="st3" d="M897.9,299.1c-1.6,5-42,2.9-45.6,2.4c-2.4-18.7-5.2-37.3-7.7-56c-1.2-9.3-9.2-33.4-0.3-39.4
			c6.6-4.5,22.1-3.8,30.3-5.3c5.4-1,10.4-2.8,13.4,3c2.3,4.6,1.3,15.1,1.8,20c0.7,6.5-1.6,26.9,4,31.2c7.1,5.6,18.1-7.1,24,1.8
			c1.3,2,1.9,10.1,0.5,12.3c-2.7,4-8.7,2.9-13,3.5C889.3,274.6,896.7,287.5,897.9,299.1z"/>
		<path class="st4" d="M1479,438.8c-4.2,0.9-5.3-9.9,3-7.7C1489.6,433.1,1485.2,438.4,1479,438.8z"/>
		<path class="st1" d="M993.6,274.4c3-11.1,10.4-23.4,23-24.5c13.8-1.2,20.5,10.8,25.4,21.8c2.5,14.3,5.4,26.4-6.5,37.3
			c-8.3,7.6-20,14.6-29.9,19.8c-10.7,5.7-9.2-3.3-10.2-12.2C993.6,302.4,992.3,288.9,993.6,274.4z M1027.9,307.2
			c17.9-10.6,14.5-45.9-6.3-51.6c-18.2-5-24.2,24.3-23.7,37.1c4-7.6,7.9-21.5,19.2-16C1026.9,281.5,1027.7,297.8,1027.9,307.2z
			 M1012,315.3c-1.1-4.5-3.5-17.4-9.8-18.2c-5.8-0.7-3.2,7.9-2.7,11.7c0.3,2.6,0.5,12.3,3.6,13.7
			C1005.6,323.6,1012.1,318.1,1012,315.3z"/>
		<path class="st1" d="M613.5,434.1c0.2,11.6,0.7,25.5-6.7,35.3c-6.8,9-19.5,10.9-28.3,3.4c-9.8-8.3-12.6-23.9-14.9-35.8
			c-3-15.8-5.3-31.9-6-48c-0.5-12.4-1.3-27.3,5-38.6c6.7-11.9,20.6-14.6,30.8-5.3c9.9,9,12.4,24.2,14.7,36.7
			C611.4,399.1,613.8,416.5,613.5,434.1z M563.3,378.9c2.8-7.4,6.8-18.7,16.4-11.9c7.4,5.3,8.9,17.5,10.6,25.6
			c5.3,25.6,10.6,53.1,4.2,79c14.6-3.8,14.2-24.4,14.1-36.2c-0.2-20.7-2.8-41.4-7.5-61.6c-2.5-10.8-7.4-30.7-22.1-29.4
			C563.8,345.8,562.9,367.6,563.3,378.9z M579.5,462.7c0-17.7-2.2-35.4-5.4-52.8c-0.6-3.2-5.3-26.3-10.2-21.8
			c-4.1,3.8,1.4,24.7,2.1,29.9C568.1,433.1,570,450.2,579.5,462.7z"/>
		<path class="st3" d="M1027.9,307.2c-0.2-9.5-0.9-25.7-10.8-30.5c-11.4-5.5-15.3,8.4-19.2,16c-0.5-12.7,5.5-42.2,23.7-37.1
			C1042.3,261.4,1045.8,296.5,1027.9,307.2z"/>
		<path class="st4" d="M1012,315.3c0.2,4.5-6.6,8.4-9.6,6c-3-2.5-2.9-11.5-3.3-15.3c-0.5-4.7-2.2-10.7,4.6-7.8
			C1009.4,300.7,1010.7,310.2,1012,315.3z"/>
		<path class="st3" d="M563.3,378.9c-0.4-11.3,0.5-33.1,15.7-34.4c14.7-1.3,19.6,18.7,22.1,29.5c4.7,20.1,7.3,40.9,7.5,61.5
			c0.1,11.8,0.5,32.4-14.1,36.2c6.4-25.8,1.2-53.1-4.1-78.6c-1.8-8.6-3.5-21.5-11.8-26.6C569.7,361.2,565.9,372,563.3,378.9z"/>
		<path class="st4" d="M579.5,462.7c-11-14.4-12.5-35.9-15.2-53.4c-0.7-4.4-3.6-30.8,4.2-17.9c6.1,10.2,6.2,27.4,7.7,38.9
			C577.6,441,579.5,452,579.5,462.7z"/>
	</g>
</g>
</svg>
