<?xml version="1.0" encoding="utf-8"?>
<!-- Generator: Adobe Illustrator 22.0.1, SVG Export Plug-In . SVG Version: 6.00 Build 0)  -->
<svg version="1.1" id="Layer_1" xmlns="http://www.w3.org/2000/svg" xmlns:xlink="http://www.w3.org/1999/xlink" x="0px" y="0px"
	 viewBox="0 0 497.8 289.1" style="enable-background:new 0 0 497.8 289.1;" xml:space="preserve">
<style type="text/css">
	.st0{fill:#181713;}
	.st1{fill:#1680C0;}
	.st2{fill:#C6C3C4;}
	.st3{fill:#F7D80A;}
	.st4{fill:#67696B;}
	.st5{fill:#FEFEFE;}
</style>
<g id="cuXHRa.tif">
	<g>
		<path class="st0" d="M199.1,183.8c4.8,5.6,4.5,7.4-2.2,10.7c-10,5-20.8,7.9-31.6,10.5c-3,0.7-5.6,1.3-5.2,5.6
			c0.3,3.3-2.1,5.2-5.5,4.8c-2.8-0.3-4.5,0.7-6.3,2.8c-4.2,4.9-10.1,6.9-16.4,7.5c-3.3,0.3-5.1,1.6-6.2,5.1
			c-5.6,18.9-11.6,37.6-17.4,56.5c0,0.1,0.2,0.2,0.3,0.3c-1.7,0-3.3,0-5,0c-1-2.4-1-4.7-0.1-7.1c1.7-4.9,3.1-9.8,4.7-14.7
			c2.9-9.3,5.7-18.5,8.9-28.9c-6.2,4.3-9.5,9.6-14.2,13.8c-5.9-6.9-9.9-14.7-13.2-22.9c-0.5-1.2-0.3-3.3-2.6-2.8
			c-2.8,0.6-5.5,0.8-6.8-2.3c-1.4-3.2,0-6.2,2.1-8.2c3.4-3.2,3.6-6.8,2.5-10.8c0.4-2.6,0.3-5.1-0.2-7.8c-10.8,3.8-20.9,8.7-32,9.9
			c-3.2-1.9-4.6-5.1-6-8.3c-3.9-8.8-6.2-18.2-8.8-27.5c-0.4-1.4-0.1-3.6-2-3.6c-3.9-0.1-4.2-2.4-3.7-5.3c0.2-1.3-0.2-2.2-1.2-3
			c-3.1-2.2-5-5.4-6.2-8.9c-3.3-9.3-10.1-16.1-16.1-23.4c0-2,0-4,0-6c4.4-1.8,7.9-1.1,10.8,3c3.2,4.5,5,3.9,10.1-0.5
			c4.8-4.1,9.7-8.4,16.6-9.1c2.2-0.2,4.6-0.6,6.1,1.1c2.2,2.5,3.7,0.8,5.4-0.3c2.6-1.6,0.6-3.2,0-4.6c-5.9-12.9-12.8-25.2-20.7-37
			c-4.3-6.4-4-9.2,2.2-13.8c13.4-9.9,28.8-15.7,44.8-19.9c6.4-1.7,12.9-3.1,19.7-3.1c4.1,0,6.6,1.8,7.3,5.9
			c0.9,5.2,1.8,10.5,2.7,15.7c0.2,9.7,3.5,18.8,5.9,28c0.8,3.2,2.3,3.8,5.3,3.1c2.7-0.6,5.6-0.6,8.4-0.6c3,0,6.3,0,7.6,3.4
			c1.4,3.5-1.3,5.6-3.6,7.4c-1.6,1.3-2.5,2-1.1,4.3c6,9.3,8.2,19.8,8.6,30.8c0.1,3.6,0.6,7.2,1,12c5.5-10.3,9.2-12,20.6-11
			c5.1,2.1,8.1,6.1,10.1,11.1c-0.2,4.6-0.8,9.2-2.8,13.4c-0.8,1.6-1.6,3-3.7,2.3c-2-0.7-3.1-1.9-2.7-4.1c0.4-2,0.8-3.9,1.2-5.8
			c0.8-4-0.2-7.2-4.3-9c-4.1-1.8-7.4-0.7-10,2.9c-2.2,3-2.9,6.7-4.4,9.9c-1.5,3.3-0.3,4.6,2.9,5.7c11.4,4.1,22.3,9.1,33.2,14.5
			c2.5,0.7,4.2,3.1,6.9,3.4C194.9,180.5,197,182.2,199.1,183.8z M176.7,173.8c-0.3-0.3-0.7-0.5-1-0.8c-0.1,0.2-0.2,0.3-0.3,0.5
			C175.9,173.6,176.4,173.6,176.7,173.8c0.4,0.2,0.7,0.5,1,0.8c0.1-0.2,0.2-0.3,0.4-0.5C177.6,174,177.2,173.9,176.7,173.8z
			 M169.8,170.7c0.3,0.3,0.7,0.5,1,0.8c0.1-0.2,0.2-0.4,0.3-0.5C170.6,170.9,170.2,170.9,169.8,170.7c-0.4-0.2-0.7-0.5-1-0.7
			c-0.1,0.2-0.2,0.3-0.3,0.5C168.9,170.6,169.3,170.6,169.8,170.7z M62.8,192.8c0.9,0.1,1.6-0.1,2-1c0.6,0,1-0.3,1-1
			c1,0.1,1.9,0,2.5-0.8c0.1-0.2,0-0.8-0.1-0.8c-1.3-0.2-2,0.5-2.5,1.6c-0.6,0-1,0.3-1,1C63.8,191.6,63.1,191.8,62.8,192.8
			c-0.6,0-1,0.3-1,1c-0.9-0.1-1.7,0-2,1c-0.9,0-1.7-0.1-2.6-0.1c0.1,0.3,0.1,0.7,0.3,0.8c1,0.7,1.8,0.3,2.2-0.8c0.9,0.1,1.6-0.1,2-1
			C62.3,193.7,62.7,193.4,62.8,192.8z M159.7,166.8c-0.3-1-1.2-1-2-1c-0.7-1.2-1.9-1-3-1c-0.7-1.3-1.9-1-3-1
			c-0.1-0.1-0.2-0.2-0.3-0.3c0.1,0.1,0.3,0.1,0.4,0.2c0.7,1.2,1.9,1,3,1c0.7,1.3,1.9,1,3,1C158.1,166.7,159,166.7,159.7,166.8
			c0.7,1.2,1.9,0.9,3,0.9c0.3,0.3,0.6,0.5,1,0.8c0.1-0.2,0.2-0.3,0.3-0.5c-0.5-0.1-0.9-0.1-1.4-0.2
			C162,166.5,160.8,166.8,159.7,166.8z M109.9,274.8c0.7-0.5,1-1.3,0.8-2.1c0-0.2-0.4-0.3-0.6-0.4c-0.1,0.8-0.3,1.6-0.4,2.3
			c-1.2,0.7-1,1.9-1,3c-1.7,2.1-2.2,4.5-1.8,7.1c-0.2,0.1-0.4,0.3-0.5,0.4c0.1,0,0.3,0,0.3,0c0.1-0.1,0.1-0.3,0.2-0.4
			c1.6-2,2.2-4.4,2.1-6.9C110,277.1,109.8,275.9,109.9,274.8z M113.9,261.9c0.7-0.5,0.9-1.3,0.8-2.1c0-0.2-0.4-0.3-0.6-0.4
			c-0.2,0.8-0.3,1.5-0.5,2.3c-1.1,0.8-1,1.9-1,3c-1.2,1.7-2.3,3.4-1.5,5.9c1.4-1.9,1.9-3.7,1.7-5.8C114,264.1,113.8,263,113.9,261.9
			z M121.5,235.5c-2.1,4.1-3.6,8.4-3.9,13.1c-1.7,2.6-2.7,5.4-2.6,9.3c2-3.2,2.8-6,3-9c1.9-4.2,3.4-8.5,4-13c1-1.8,2-3.6,1.5-5.9
			C121.4,231.6,121.8,233.7,121.5,235.5z M71,188c4.8-2.2,9.7-4.5,14.5-6.7c-0.3-0.5-0.5-1-0.8-1.5c-4.8,2.5-10,4.2-14.2,7.7
			c-0.2,0.3-0.3,0.5-0.5,0.8C70.4,188.3,70.7,188.2,71,188z M71.5,103.7c0.6-1.2-0.8-1.9-0.8-3c1.2-0.3,2.1,0.3,3,1
			c2.2,1.9,2.9-0.5,4.1-1.7c-1.1,0-2.2,0-3.2,0c-0.4-0.4-0.7-0.8-1.1-1.3c-0.3-0.4-0.5-0.8-0.8-1.2c0-0.2,0-0.5,0-0.7
			c1.1-1.1,1-2.2,0-3.2c-0.1-0.9-0.5-1.5-1.2-1.8c-0.9-1.2-1.9-1.4-2.9-0.1c-0.3,0-0.6,0.1-0.9,0.3c-0.6-0.1-0.9,0.2-1.1,0.7
			c-1.5,0.7-0.7,1.9-0.8,3c-0.2,0.2-0.3,0.5-0.2,0.9c-1.6,0.2-0.3-2.8-2.4-2.2c-2.3,0.7-0.8,2.9-1.7,4.2c-1.5,0.4-1.9-2.6-3.7-1
			c-1.8,1.5-0.2,2.8,0.2,3.9c0.9,2.7,2.2,5.4,3.3,8c0.3-5.5,5.9-1.9,7.4-4.7C69.7,104.4,71.1,105.4,71.5,103.7z M146.4,166.8
			c-0.5,1.5-1,3-1.4,4.4c-2.1,6.3-4,12.7-6.3,18.9c-1.1,3-0.1,3.5,2.5,3.9c3.7,0.6,7.1,1.1,10.6-0.8c1.3-0.7,3.4-1.9,4.3,0.3
			c1.7,4,3.9,2.3,6.3,0.9c0.8-0.3,1.5-0.7,2.3-1c2.8-0.3,2.6-1.6,1.4-3.6c-5.1-8.7-11.8-16.2-17.6-24.4
			C146.5,162.7,146.9,166.1,146.4,166.8z M82.8,92.8c1.6-1.8,1.9-0.3,2.5,0.9c1.7,3.4,6.7,3.7,8.2,0.2c1-2.4,1.3-2.1,3.3-1.2
			c2.3,1.1,4.6,0.9,4-2.8l-0.1,0c3.1,0.2,6.2,0.7,9.2,0.4c1.9-0.2,2.3-2.2,1.6-4c-0.8-2-1.6-4.1-2.7-6.9c4,1.8,3.8,5.1,5.1,7.3
			c0.5,0.9,0.7,2.7,2.2,2.1c1.7-0.6,0.3-1.9,0.1-2.9c-0.4-2.2-2.4-4.1-1.6-6.5c0.3-1.1,0.5-2.3-0.8-2.2c-2.3,0.1-4.6,0.5-6.8,1.1
			c-1.4,0.4-0.6,1.6-0.4,2.5c0.7,2.5,2.5,4.6,2.2,7.9c-2.7-2-2.8-4.8-4-7c-1.1-2-4.8-2.4-6.2-0.5c-0.3,0.4,0.5,1.8-1.2,0.9
			c-4.5-2.6-2.5,0.7-2,2.4c-0.3,0.2-0.6,0.4-0.8,0.6c-1.5-0.5-1.4-4-4-2.5c-2,1.1-0.5,3-0.3,4.5c0.2,1.5,0.4,3,0.7,4.4
			c0.3,1.3-0.4,1.8-1.4,2.2c-0.6,0.2-1.3,0.4-1.8-0.2c-0.7-0.9-0.2-1.4,0.4-2.1c1-1.1,1-2.1-0.8-2.3c-2.7-0.3-2.4-1.2-0.5-2.5
			c0.8-0.5,1.2-1.2,0.6-2c-0.6-0.8-1.4-0.3-2.2-0.1c-2.3,0.6-3.5,1.7-2.5,4.2c-3.1-1.9-7.2-1.3-6.6,0.6c1.1,3.6,2.4,7.4,5.5,10.4
			C80.9,96.8,80.6,94.6,82.8,92.8z M126.7,222.7c11.5,0.3,19.1-3.8,22.1-11.9c0.5-0.5,1.2-1,1.6-0.3c1.5,2.1,3.7,1.7,5.3,1
			c1.8-0.8,0.8-2.9,0.8-4.5c0.1-2.9-1-5.5-1.7-8.2c-0.7-2.6-2.5-2.9-4-1.5c-2.2,2.1-4,1.5-6.5,0.8c-2.7-0.7-5.6-0.9-8.4-0.7
			c-3.2,0.2-6.8-0.3-9.4,2.4c-5.4,5.7-7.7,13-10.5,20c-0.6,1.5,0.2,2.9,1.1,4.1c0.5,0.7,1.4,1.3,2,0.5
			C121.4,221.6,124.3,223.2,126.7,222.7z M35.8,156.7c-0.4,2-2.3,4.2-0.7,6c1.6,1.8,4,0.6,6.1,0.1c1.1-0.3,2.2-0.7,3.3-1.1
			c3.2-1.1,4.3-2.8,1.7-5.7c-0.6-0.7-2.1-1.2-0.9-2.3c6.5-6.1,5.7-16.4,13-22.1c0.8-0.6,1.8-1.7,0.9-3c-0.9-1.4-2.3-1.3-3.6-0.8
			c-1.1,0.4-2.3,0.9-2.9,1.8c-3.4,5.2-9.2,7.6-13.6,11.6c-1.7,1.5-3.8,1.4-5.2-0.6c-1.2-1.7-2-3.7-3.5-6.3c3.3,0.8,3.3,3.1,4.4,4.4
			c0.7,0.8,1.5,1.4,2.6,1c0.9-0.3,1.2-1,1.3-1.9c0.5-3.8-3.5-10.1-7-11c-5.1-1.4-6.5,2-7.2,6.5c-2.7-3.4-5-6.3-7.3-9.1
			c-1.1-1.4-2.4-3.4-4.4-2.2c-2.2,1.4-0.5,3.4,0.5,4.7c6.2,7.4,11.6,15.3,15.5,24.2C30,154,32.3,156.1,35.8,156.7z M62.8,188.8
			c4.7-2.5,9.3-5.2,14-7.5c9-4.5,9.4-5.9,3.4-14.1c-0.9-1.2-1.8-2.4-2.8-3.5c-6.4-6.8-11.6-14.5-15.3-23.1c-0.6-2.1-1.2-4.2-1.9-6.5
			c-3.8,2.6-5,6.1-6.3,9.5c-1.1,2.9-2,6.1-3.7,8.6c-1.4,2.1-1.8,3.6-0.1,5.6c1.2,1.5,1.3,3.2-0.6,4.2c-2.7,1.3-1.9,2.8-1,4.8
			c3.1,7,6.3,13.9,9.1,21C58.9,191.5,60.4,191.6,62.8,188.8z M142.3,157.1c0.6-1.4,1.4-2.8,1-4.3c-2.3-9-1.4-18.2-2.8-27.3
			c-1.3-8.5-3.8-16.5-9.2-23.4c-1.3-1.7-2.5-3.1-5.3-2.7c-21.2,3.3-40.9,10.1-58.8,22.1c-2.8,1.9-3.6,4-3.4,7.1
			c0.7,11.8,6.4,21.4,14.3,29.5c8.8,9.1,12.1,19.5,11.2,31.8c-0.6,8.6-0.6,17.3,1.2,25.9c0.5,2.5,1.1,4.2,4.6,4.1
			c-2.3,1.8-2.8,3.6-1.8,6c2.1,5.1,4.3,10.1,7.3,14.7c0.7,1,1.2,3.4,3.1,1.5c1.3-1.3,4.2-2.3,2-5.1c-1-1.3-2-2.7-2.7-4.2
			c-0.6-1.1-2.6-2.7-0.3-3.6c1.5-0.6,3.8-2.2,5.2,0.6c0.4,0.7,0.7,1.5,1.3,2.1c0.8,0.8,0.8,3.1,2.7,1.8c1.2-0.8,2.9-1.7,1.8-4
			c-0.7-1.5-3.7-6.3-5.5-8.2c-0.3-0.3-0.4-0.9-0.6-1.3c-0.7-2.4-1.4-4.8-2.2-7.1c-0.8-2.2,0.3-3,2.2-3.5c1.9-0.5,2.6,0.2,3.3,1.9
			c0.7,1.9,0.6,4.2,2.4,5.7c0.3-0.4,0.5-0.6,0.6-0.9c3.5-8.7,5.8-18.3,16.3-22c0.8-0.3,1.2-1.9,1.5-3c2.9-9.4,5.8-18.7,8.7-28.1
			C141,161.1,141.7,159.1,142.3,157.1z M124.6,90.9c-1.3,0-2.7-0.2-4,0c-25,5-48.1,14.2-68.3,30c-1.3,1-2.4,2.3-3.2,3.7
			c-0.9,1.5,0.1,3,1.6,2.6c1.9-0.5,4.6-0.9,4.9-3.5c0.4-3.1,2.7-4.5,4.8-6C80.1,104.8,101.4,96,124.6,90.9z M103.8,74.3
			c-1.8-6.2-3.5-12.5-5.3-18.7c-1.2-4.2-2.4-8.3-3.4-12.5c-0.5-2.1-1.6-2.7-3.6-2.3c-2.2,0.4-2,1.8-1.5,3.4
			c3.6,10.2,7.1,20.4,10.7,30.6c0.3,1,0.8,1.9,2.1,1.6C103.9,76.1,103.8,75.1,103.8,74.3z M101.3,39.1c-1,0.4-2.8,0.6-2.2,2.8
			c2.7,10.6,5.4,21.2,8.1,31.8c0.2,0.9,0.7,2,2,1.7c1.2-0.3,1.4-1.2,1.1-2.4c-2.8-10.4-4.7-21-6.2-31.7
			C103.9,39.9,103.5,38.6,101.3,39.1z M44.1,132.9c-0.8-3.5-1.5-6.9-4.3-9.4c-2-1.8-4.3-2.6-6.8-1.3c-0.8,0.4-2.4,1.7-0.2,2.4
			c4.8,1.4,5.8,5.4,7.2,9.3c0.4,1.1,0.9,2.3,2.4,2C44,135.5,44.2,134.2,44.1,132.9z M48.2,115.7c-2.8,0.2-5.6,0.5-8.1,1.9
			c-1.5,0.8-1.7,1.3-0.4,2.8c3.2,3.7,6.3,0.4,9.4,0.1c1.4-0.1,2.9-1.1,2.6-3C51.4,115.5,49.7,115.8,48.2,115.7z M134.4,192.6
			c0.4,0.2,0.9,0.3,1.3,0.5c3.4-10.8,6.9-21.7,10.3-32.5c-0.4-0.1-0.9-0.3-1.3-0.4C141.3,171,137.8,181.8,134.4,192.6z M167.9,184.9
			c3.1,7.2,3.3,7.2,11.9,2.7C175.4,187,172.1,184.4,167.9,184.9z M85.4,213.6c-1.7,2-3,4.1-2.7,6.7c0.3,2,1.7,2.7,3.6,2.5
			c2.1-0.2,1.6-1.9,1.2-3C86.8,217.9,87.4,215.5,85.4,213.6z M145.7,159c2.2-2.4,2.6-4.5,3.1-7.6C146.6,153.9,146.2,156,145.7,159z
			 M149.3,150.3c0.1-0.2,0.2-0.5,0.3-0.8c0-0.1-0.2-0.2-0.3-0.3c-0.1,0.3-0.2,0.5-0.3,0.8C149,150.1,149.2,150.2,149.3,150.3z
			 M55.5,190c0-0.1,0.1-0.3,0-0.4c-0.2-0.4-0.4-0.3-0.5,0.1c0,0.1,0.1,0.3,0.1,0.4C55.2,190.1,55.3,190.1,55.5,190z M54.5,186.8
			c-0.1-0.1-0.1-0.2-0.2-0.4c-0.1,0.1-0.3,0.2-0.3,0.3c0.1,0.2,0.2,0.3,0.3,0.5C54.4,187,54.4,186.9,54.5,186.8z M56.1,192.2
			l0.2,0.2l0-0.3L56.1,192.2z M173.2,172.4l0.2-0.2l-0.3,0L173.2,172.4z M166.2,169.4l0.2-0.2l-0.3,0L166.2,169.4z"/>
		<path class="st1" d="M166.5,134.6c-11.5-1.1-15.1,0.7-20.6,11c-0.4-4.8-0.9-8.4-1-12c-0.3-11-2.5-21.4-8.6-30.8
			c-1.5-2.3-0.5-3,1.1-4.3c2.3-1.9,5-3.9,3.6-7.4c-1.3-3.4-4.6-3.4-7.6-3.4c-2.8,0-5.7,0-8.4,0.6c-3,0.7-4.5,0.1-5.3-3.1
			c-2.4-9.3-5.7-18.3-5.9-28c15.7-4.5,31.2-9.3,47-13.5c44.9-12,90.7-19.4,137-23.3c43.9-3.7,87.8-3.8,131.7-0.8
			c12.9,0.9,25.8,2.6,38.7,3.9c3.2,0.3,6.4,0.8,6.8,5c0.2,2.1,0.2,4.3,0.5,6.4c2.1,13.1,4.3,26.2,6.5,39.2c2,11.9,4.2,23.8,6.3,35.7
			c0.1,1,0.2,2.1,0.3,3.1c-20.7,0.6-41.5,0.5-62.2,1.8c-5,0.1-9.9,0.5-14.9,0.9c-16,1.3-32,3-47.9,5.5
			c-29.6,4.7-58.7,11.2-87.4,19.6c-18.3,5.4-36.4,11.8-54.1,18.7c-12.2,4.8-23.9,10.7-35.9,16c-10.8-5.3-21.8-10.4-33.2-14.5
			c-3.2-1.1-4.4-2.4-2.9-5.7c1.5-3.3,2.2-7,4.4-9.9c2.6-3.5,5.9-4.6,10-2.9c4,1.7,5.1,4.9,4.3,9c-0.4,1.9-0.9,3.9-1.2,5.8
			c-0.4,2.2,0.7,3.4,2.7,4.1c2.1,0.7,2.9-0.6,3.7-2.3c2-4.3,2.5-8.8,2.8-13.4c2.4-1.1,4.8-2.3,7.3-3.2c3-1.1,4-2.4,2.7-5.8
			c-2.5-6.5-4.1-13.3-6.5-19.9c-1.1-3-0.2-3.9,2.4-5.2c16.4-7.9,21.1-19.7,15.2-37.4C195,59.5,184,52.1,169.6,55.7
			c-6.9,1.7-13.5,4.3-20.2,6.6c-2.2,0.8-5,0.6-6.5,3c0.5,1.6,0.9,3.2,1.4,4.8C151.6,91.6,159.1,113.1,166.5,134.6z M421.7,40.7
			L421.7,40.7c-0.3-1-0.9-1.7-1.9-1.9c-8.1-1.6-16.2-1.9-24.4-1.2c-3.1,0.2-1.6,2.4-1.3,3.7c3,16.5,6.2,33,9.1,49.5
			c0.5,3.1,1.7,4.4,4.8,3.8c1.3-0.2,2.7-0.2,4-0.1c3.4,0.3,3.8-1.2,3.2-4.2c-1.1-5.3-1.9-10.6-2.8-15.9c-0.2-1-0.7-2.5,1.1-2.8
			c1.4-0.2,1.6,1,1.9,1.8c1.7,5,4.9,9.2,7.4,13.8c1.5,2.6,2.2,6.3,6.5,6.4c7.6,0.2,15.3-1.3,22.9,0.8c0.8,0.2,1.7,0,2.5-0.1
			c11-1.7,15.4-9.7,11.1-20c-2-4.7-5.3-8.4-9-11.8c-3.3-3.1-6.6-6-9.8-9.2c-1.5-1.5-3.1-3.7-1.3-5.7c1.9-2.3,4.3-0.9,6.3,0.4
			c2.2,1.3,3.7,3.3,5.1,5.4c1.1,1.5,1.4,0.8,1.3-0.6c0-7.7-0.9-9.5-7.8-11.8c-9.1-3-16-0.1-19.5,9.2c-2.1-1.3-1.8-3.8-3.8-4.4
			c0-0.3-0.1-0.4-0.4-0.4C426.8,41.8,424.3,41.2,421.7,40.7z M241.6,52.8c-1.6,1.5-0.8,3.5-0.8,5.2c0.1,18.9,0.3,37.8,0.5,56.6
			c-1.3,0.3-2.6,0.4-3.8,1c-4.5,2.1-6.8,0.7-7.3-4.1c-0.1-0.8-0.4-1.6-0.6-2.4c-4.2-15.8-8.4-31.7-12.6-47.5
			c-0.4-1.6-0.4-4.2-3.1-3.4c-4.7,1.4-9.8,1.4-14.1,4.2c5.6,21.7,11.3,43.5,16.9,65.2c0.7,2.7,2,2.8,4.3,2.1
			c7.3-2.4,14.5-5,21.9-6.7c5.4-1.2,7.6-3.6,6.5-9c-0.7-3.3,0.8-4.8,4.1-5.4c3.8-0.7,7.7-1.6,9.5-6c1.8,3.6,3.4,6.6,4.8,9.8
			c0.6,1.3,1.3,2.7,2.8,2.3c4.7-1.2,9.9-0.7,14.1-3.9c0-0.3,0.1-0.7-0.1-1c-9.3-19.3-18.7-38.7-28-58c-0.6-1.3-1.5-2.3-3.1-1.8
			C249.7,51,245.4,50.8,241.6,52.8z M309.6,74c-1.7-0.3-2.3-1.6-3.1-2.9c-5.7-8-11.6-15.9-17.4-24c-1-1.4-1.8-2.7-3.8-2.5
			c-4.6,0.4-9.3,0.7-13.5,3.1c4.6,18.9,9.3,37.9,13.8,56.8c1.7,7.2,1.6,7.2,8.7,4.9c0.7-0.9,0.5-1.9,0.3-2.8c-1.5-6-3.5-11.9-4.2-18
			c-0.5-3.7-3.7-7.1-1.7-11.1c6.7,7.2,12,15.5,17.5,23.5c2.8,4.1,5.8,5.5,10.4,4.3c1.9-0.5,3.9-0.8,5.9-1c2.3-0.3,2.8-1.3,2.3-3.7
			c-3.1-14.5-6-29-9-43.4c-1.8-8.9-1.8-8.9,7.5-8.5c3.4,0.1,5.9-0.2,6.7,4.7c2,12.2,5.2,24.3,7.8,36.4c2.3,10.5,2.3,10.3,13.4,10
			c4.3-0.1,4.8-1.6,4-5.2c-3.1-14.7-5.7-29.5-9-44.2c-0.8-3.6,0.6-4.5,3.3-4.5c3.2,0,5.8-0.7,7.8-3.3c0.8-1.1,2.1-1.5,2.5,0.4
			c1.4,6.7,2.6,13.4,4,20.1c2.3,10.9,4.8,21.7,7,32.6c0.3,1.6,0.9,1.9,2.2,1.7c6.9-0.6,13.8-1.3,20.7-1.9c2.7-0.2,4.7-1.5,5.5-4.2
			c0.6-2,0.6-3.2-2.1-2.8c-3.5,0.5-7,0.5-10.5,0.8c-1.9,0.2-3.1-0.2-3.5-2.5c-0.8-4.6-1.8-9.1-2.8-13.7c-0.6-2.7,0.5-3.5,3.1-3.5
			c2.6,0,5.4,0.4,7.9-0.6c2.5-1,3.8-3.3,3.4-5.5c-0.4-2.5-2.7-0.7-4.1-0.5c-12.2,1.1-12.4,1-14.3-11.1c-0.1-0.8-0.1-1.7-0.4-2.5
			c-1.4-3.6-0.5-5.3,3.6-4.9c2.1,0.2,4.3,0.1,6.5-0.2c2.9-0.4,4.7-2.5,4.4-5.1c-0.3-2.5-3-1.1-4.5-1.2c-22.5-0.9-44.9,1.8-67.4,3.3
			c-3.9,0.3-7.9,0.6-11.8,1c-1.3,0.1-4.1,0.4-2.8,2.8c1.8,3.3,1.9,6.8,2.4,10.2C307.5,61.5,310.4,67.4,309.6,74z M179.9,160.7
			c94.9-41.1,194-58.3,298.1-57c-3.7-2.1-6.2-1.6-8.6-1.7c-55.2-2-109.8,2.7-164,13.7c-41.1,8.4-81.2,19.9-120.2,35.7
			C180.7,153.3,179.8,156.2,179.9,160.7z M189.6,50.8c5.6,5,5.6,5.1,10.7,3.7c39.1-10.7,79-17,119.3-20.6c22.3-2,44.7-2.7,67.1-2.8
			c12.4,0,24.8,0.8,37.3,1.5c9.8,0.5,19.7,0.5,29.5,1.9c3.2,0.5,6.4,0.1,9.6,0.1C371.1,21.8,280.3,28,189.6,50.8z"/>
		<path class="st2" d="M426.3,114.8c20.7-1.3,41.5-1.2,62.2-1.8c0.4,2.4-1.6,2.7-3,3.3c-2.3,1-4.7,1.5-7.3,1.5
			c-23.2,0-46.3,1.5-69.4,4.7c-20.3,2.8-40.7,5.4-60.8,9.5c-16.2,3.2-32.6,6.5-48,12.4c-12.8,4.9-26.3,7.6-39,12.7
			c-6.7,2.7-13.1,6.3-20,8.3c-12.5,3.6-23.8,9.9-35.7,14.7c-2.3,0.9-4.2,2.6-6.3,3.9c-2.1-1.7-4.2-3.3-6.4-5
			c2.9-1.2,5.9-2.1,8.8-3.5c26.3-13.1,53.8-23.4,81.8-32.2c22-6.9,44.3-12.5,66.9-17c20.8-4.2,41.7-7.7,62.8-9.6
			C417.5,116.2,422.1,116.8,426.3,114.8z"/>
		<path class="st2" d="M488.2,109.9C486.1,98,484,86.1,482,74.2c-2.2-13.1-4.4-26.1-6.5-39.2c-0.3-2.1-0.3-4.3-0.5-6.4
			c3.2,2.5,2.2,6.4,2.8,9.6c3.7,20.8,7.1,41.6,10.6,62.4C488.9,103.7,489.4,106.8,488.2,109.9z"/>
		<path class="st3" d="M140.4,163.1c-2.9,9.4-5.8,18.7-8.7,28.1c-0.3,1.1-0.7,2.7-1.5,3c-10.4,3.7-12.8,13.3-16.3,22
			c-0.1,0.3-0.4,0.5-0.6,0.9c-1.8-1.5-1.7-3.8-2.4-5.7c-0.7-1.7-1.4-2.4-3.3-1.9c-1.9,0.5-2.9,1.3-2.2,3.5c0.8,2.4,1.5,4.8,2.2,7.1
			c0.1,0.5,0.3,1,0.6,1.3c1.8,1.8,4.8,6.6,5.5,8.2c1.1,2.3-0.6,3.2-1.8,4c-1.9,1.3-1.9-1-2.7-1.8c-0.6-0.6-0.9-1.4-1.3-2.1
			c-1.4-2.7-3.7-1.2-5.2-0.6c-2.3,0.9-0.3,2.5,0.3,3.6c0.7,1.5,1.7,2.9,2.7,4.2c2.2,2.9-0.7,3.8-2,5.1c-1.9,1.9-2.4-0.5-3.1-1.5
			c-3-4.6-5.2-9.6-7.3-14.7c-1-2.3-0.4-4.1,1.8-6c-3.5,0.1-4.1-1.5-4.6-4.1c-1.8-8.6-1.8-17.2-1.2-25.9c0.8-12.3-2.4-22.8-11.2-31.8
			c-7.9-8.1-13.5-17.7-14.3-29.5c-0.2-3.1,0.6-5.2,3.4-7.1c17.9-12,37.7-18.8,58.8-22.1c2.8-0.4,4,1,5.3,2.7
			c5.4,6.9,8,14.9,9.2,23.4c1.4,9,0.5,18.3,2.8,27.3c0.4,1.5-0.4,2.9-1,4.3c-2.9-11.1-2.5-22.7-4.7-33.9c-0.3-1.6-0.1-3.6-2.8-4.5
			c2,10.7,1.5,21.1,2.6,31.4C137.8,154.6,138.1,159.1,140.4,163.1z M108,126.5c-0.1-6.2-3.7-10.7-9.8-12.2c-5.3-1.3-11,1.5-13.7,6.7
			c-1.9,3.5-0.6,8.7-5.7,10.6c-0.5,0.2-0.3,2.2-0.3,3.3c0.2,10,4.3,18.3,11,25.5c3.8,4,7.7,7.9,11.1,12.2c8.2,10.5,8.4,26,0.6,36.9
			c-0.5,0.7-1,1.8-1.6,1.8c-4.6,0-4.1,3.7-5.3,6.6c-1.4,3.3,2.9,2.4,2.7,5c-0.2,2.5,2.3,2.1,4.2,1.6c2.2-0.6,1.7-2.1,1.1-3.5
			c-2-4.4-0.6-7.9,1.8-11.9c9.7-15.7,7.6-30.8-5.6-43.9c-2.6-2.6-5.3-5.1-7.8-7.7c-5.6-5.7-8.4-12.7-9.6-20.4c-0.2-1.5-1-3.4,1-4.4
			c2.4-1.2,2.7,1.1,3.7,2.3c3.8,4.3,8.9,5.8,13.9,4C104.9,137,108,132.4,108,126.5z M117.9,117.4c0.3-7.2,2.2-9.3,8.3-10.6
			c1.4-0.3,3.5-0.1,3.2-2.1c-0.2-1.8-2.3-1.6-3.7-1.7c-0.8,0-1.6,0.2-2.4,0.4c-6.9,1.6-10.7,9.3-9.1,18.1c1.2,6.4,4.5,11.7,8.5,16.7
			c-3.6,3.4-8.1,3.8-13.8,5.2c6.8,1.8,11.1-0.5,15.5-2.9c2.3-1.3,2.5-2.5,0.7-4.5c-3.2-3.7-5.5-7.9-6.9-12.6
			c-0.4-1.5-0.1-2.6,0.9-3.6c1.6-1.5,1.9,0.4,2.5,1c1.2,1.2,2.7,1.4,4.1,0.8c1.7-0.7,2.6-2.3,2.1-4c-0.6-2.2-0.1-3,2.2-2.8
			c1,0.1,2.3,0,2.1-1.4c-0.1-1-1.3-1.4-2.3-1.6C125,111,121.3,112.6,117.9,117.4z M130.9,141.7c-7.9,8.7-18.1,10.1-29,9.9
			c4.7,1.2,6.6,5.4,10,7.6c6.3,3.9,13.3,2.3,15.8-3.9C129.4,151,129.1,146.3,130.9,141.7z M99.3,204.1c-0.1-0.8-0.3-2.9-0.5-5
			c-0.2-1.3,0.2-3.3-2.3-2.7c-1.5,0.4-3.4,0.5-3,3c0.3,2.3,0.3,4.6,0.5,6.9c0.1,1.3,0.1,2.9,2.2,2.4
			C97.8,208.2,100,208.1,99.3,204.1z"/>
		<path class="st3" d="M166.5,134.6c-7.4-21.5-14.9-43-22.3-64.5c-0.5-1.6-1-3.2-1.4-4.8c2.3,0.5,4.5,0.2,6.8-0.6
			c5.6-2,11.3-3.8,17-5.4c15.4-4.3,20.8-1.9,28.1,12.6c0.7,1.4,1,2.9,3.1,2.4c5.9,17.6,1.1,29.5-15.2,37.4c-2.6,1.2-3.4,2.2-2.4,5.2
			c2.4,6.5,4,13.4,6.5,19.9c1.3,3.4,0.3,4.8-2.7,5.8c-2.5,0.9-4.9,2.1-7.3,3.2C174.7,140.7,171.6,136.7,166.5,134.6z M184.1,84.8
			c-1.1-4.5-2.2-9.1-4.9-13c-3.7-5.5-7.9-6.6-14.2-3.9c-3.1-1.2-2,0.7-1.6,2.1c3.8,11.7,7.6,23.3,11.3,35.1c0.7,2.3,1.6,2.8,3.9,1.9
			c7.5-2.9,12-15.1,8-22C185.8,83.8,185,84,184.1,84.8z"/>
		<path class="st4" d="M426.3,114.8c-4.2,2-8.8,1.5-13.2,1.9c-21.2,1.9-42,5.4-62.8,9.6c-22.6,4.5-44.9,10.1-66.9,17
			c-28,8.8-55.5,19-81.8,32.2c-2.8,1.4-5.8,2.3-8.8,3.5c-2.7-0.3-4.4-2.7-6.9-3.4c12-5.4,23.7-11.3,35.9-16
			c17.8-6.9,35.8-13.3,54.1-18.7c28.7-8.5,57.9-15,87.4-19.6c15.9-2.5,31.9-4.2,47.9-5.5C416.3,115.2,421.3,114.8,426.3,114.8z"/>
		<path class="st5" d="M28.7,150.8c-3.9-8.9-9.3-16.8-15.5-24.2c-1-1.3-2.8-3.2-0.5-4.7c2-1.3,3.2,0.7,4.4,2.2
			c2.3,2.8,4.6,5.7,7.3,9.1c0.8-4.5,2.1-7.9,7.2-6.5c3.6,1,7.6,7.3,7,11c-0.1,0.9-0.4,1.7-1.3,1.9c-1.1,0.3-1.8-0.2-2.6-1
			c-1.2-1.3-1.1-3.5-4.4-4.4c1.4,2.6,2.3,4.6,3.5,6.3c1.4,2,3.5,2.1,5.2,0.6c4.4-4,10.2-6.3,13.6-11.6c0.6-0.9,1.8-1.4,2.9-1.8
			c1.3-0.4,2.7-0.5,3.6,0.8c0.9,1.3-0.1,2.4-0.9,3c-7.3,5.6-6.4,16-13,22.1c-1.1,1.1,0.3,1.6,0.9,2.3c2.6,2.8,1.5,4.6-1.7,5.7
			c-1.1,0.4-2.2,0.8-3.3,1.1c-2.1,0.6-4.5,1.7-6.1-0.1c-1.6-1.8,0.2-4,0.7-6c1.1-2,4.3-0.2,5.2-2.8c-3-1-6.4-0.6-8.7-3.2
			C31.1,149.5,29.9,150.3,28.7,150.8z"/>
		<path class="st5" d="M126.7,222.7c-2.5,0.5-5.4-1.1-7.3,1.8c-0.6,0.9-1.5,0.2-2-0.5c-0.9-1.2-1.7-2.6-1.1-4.1
			c2.7-7.1,5-14.4,10.5-20c2.6-2.7,6.2-2.2,9.4-2.4c2.8-0.2,5.7-0.1,8.4,0.7c2.4,0.7,4.3,1.3,6.5-0.8c1.5-1.5,3.3-1.1,4,1.5
			c0.7,2.7,1.8,5.4,1.7,8.2c0,1.5,1,3.7-0.8,4.5c-1.7,0.7-3.9,1.1-5.3-1c-0.5-0.7-1.2-0.3-1.6,0.3c-1.7-0.9-2.8-0.6-4.1,1
			c-3.4,4.2-7.8,6.9-13.2,8.1C129.7,220.3,127.4,220.2,126.7,222.7z"/>
		<path class="st2" d="M100.8,89.7c0.6,3.7-1.7,3.9-4,2.8c-2-0.9-2.3-1.2-3.3,1.2c-1.4,3.6-6.5,3.2-8.2-0.2
			c-0.6-1.2-0.9-2.6-2.5-0.9c0-1.5,0-2.9,0-4.4c-1-2.5,0.3-3.6,2.5-4.2c0.8-0.2,1.6-0.7,2.2,0.1c0.7,0.8,0.2,1.6-0.6,2
			c-2,1.3-2.3,2.1,0.5,2.5c1.8,0.2,1.8,1.2,0.8,2.3c-0.6,0.7-1.1,1.3-0.4,2.1c0.5,0.6,1.1,0.5,1.8,0.2c1-0.4,1.7-0.9,1.4-2.2
			c-0.3-1.4-0.5-2.9-0.7-4.4c-0.2-1.5-1.6-3.4,0.3-4.5c2.6-1.5,2.4,2,4,2.5c0.2,0.6,0.5,1.1,0.7,1.7c0.8-0.7,0.4-1.5,0.1-2.3
			c-0.4-1.7-2.5-5,2-2.4c1.7,0.9,0.9-0.4,1.2-0.9c1.4-1.9,5-1.6,6.2,0.5c1.2,2.2,1.3,5.1,4,7c0.3-3.3-1.5-5.4-2.2-7.9
			c-0.3-0.9-1-2.1,0.4-2.5c2.2-0.6,4.5-1,6.8-1.1c1.3,0,1.2,1.2,0.8,2.2c-0.8,2.5,1.1,4.3,1.6,6.5c0.2,1,1.6,2.3-0.1,2.9
			c-1.5,0.5-1.7-1.2-2.2-2.1c-1.3-2.3-1.1-5.5-5.1-7.3c1.1,2.9,1.9,4.9,2.7,6.9c0.7,1.8,0.4,3.8-1.6,4
			C106.9,90.5,103.8,90,100.8,89.7c0.7-0.4,0.1-0.7-0.1-1.1c-0.1-0.1-0.4-0.1-0.4,0C100,89.2,100.2,89.6,100.8,89.7z"/>
		<path class="st3" d="M162.4,194.5c-2.3,1.4-4.5,3-6.3-0.9c-0.9-2.2-3-1-4.3-0.3c-3.5,1.9-6.9,1.5-10.6,0.8
			c-2.7-0.5-3.7-0.9-2.5-3.9c2.3-6.2,4.2-12.6,6.3-18.9C151.3,178.7,157.4,186.2,162.4,194.5z"/>
		<path class="st2" d="M62.1,140.5c-4.6,4-5.8,9.8-7.1,15.2c-3,12.2,1.3,22.9,7.8,33c-2.4,2.8-3.9,2.7-5.4-1c-2.8-7.1-6-14.1-9.1-21
			c-0.9-2-1.7-3.6,1-4.8c2-0.9,1.9-2.6,0.6-4.2c-1.6-2-1.3-3.5,0.1-5.6c1.7-2.6,2.6-5.7,3.7-8.6c1.3-3.4,2.6-6.8,6.3-9.5
			C60.9,136.4,61.5,138.5,62.1,140.5z"/>
		<path class="st2" d="M84.9,203.7c-6,0.6-10.9,4.2-16.6,5.7c-4.9,1.2-9.8,3.3-14.3-1c-0.6-0.6-0.9-1.7-1.3-2.6
			c11.1-1.2,21.2-6.1,32-9.9C85.2,198.6,85.4,201.1,84.9,203.7z"/>
		<path class="st4" d="M124.6,90.9c-23.2,5.1-44.5,13.9-64.1,27c-2.1,1.4-4.4,2.8-4.8,6c-0.3,2.6-3,2.9-4.9,3.5
			c-1.5,0.4-2.5-1.1-1.6-2.6c0.8-1.4,2-2.7,3.2-3.7c20.2-15.8,43.3-25,68.3-30C121.9,90.7,123.3,90.9,124.6,90.9z"/>
		<path class="st4" d="M103.8,74.3c0,0.8,0.2,1.8-0.9,2.1c-1.3,0.4-1.8-0.6-2.1-1.6c-3.6-10.2-7.2-20.4-10.7-30.6
			c-0.5-1.6-0.7-2.9,1.5-3.4c2-0.4,3.1,0.2,3.6,2.3c1,4.2,2.2,8.3,3.4,12.5C100.3,61.8,102,68,103.8,74.3z"/>
		<path class="st4" d="M101.3,39.1c2.3-0.5,2.6,0.8,2.8,2.2c1.4,10.7,3.4,21.3,6.2,31.7c0.3,1.1,0.1,2.1-1.1,2.4
			c-1.3,0.3-1.8-0.8-2-1.7c-2.7-10.6-5.4-21.2-8.1-31.8C98.5,39.7,100.3,39.5,101.3,39.1z"/>
		<path class="st5" d="M140.4,163.1c-2.3-4-2.6-8.5-3-13c-1-10.3-0.6-20.8-2.6-31.4c2.7,0.9,2.4,2.9,2.8,4.5
			c2.3,11.2,1.8,22.8,4.7,33.9C141.7,159.1,141,161.1,140.4,163.1z"/>
		<path class="st5" d="M162.4,194.5c-5-8.4-11.1-15.9-17.5-23.3c0.5-1.5,1-3,1.4-4.4c6.7,8.5,13.7,16.8,18.3,26.7
			C163.9,193.9,163.2,194.2,162.4,194.5z"/>
		<path class="st5" d="M68.7,104.8c-1.5,2.8-7.1-0.7-7.4,4.7c-1.1-2.7-2.4-5.3-3.3-8c-0.4-1.2-2-2.4-0.2-3.9c1.9-1.6,2.3,1.4,3.7,1
			c0.9-1.2-0.6-3.4,1.7-4.2c2.1-0.7,0.8,2.3,2.4,2.2C66,99.5,67.8,102,68.7,104.8z"/>
		<path class="st3" d="M164.7,193.5c-4.6-9.9-11.6-18.2-18.3-26.7c0.6-0.7,0.1-4.2,2.1-1.3c5.8,8.2,12.5,15.7,17.6,24.4
			C167.3,192,167.5,193.3,164.7,193.5z"/>
		<path class="st2" d="M126.7,222.7c0.6-2.5,3-2.4,4.7-2.8c5.4-1.2,9.8-3.9,13.2-8.1c1.3-1.6,2.4-1.9,4.1-1
			C145.9,218.9,138.2,223.1,126.7,222.7z"/>
		<path class="st5" d="M44.1,132.9c0.1,1.3-0.2,2.6-1.8,3c-1.5,0.3-2-0.9-2.4-2c-1.4-3.9-2.4-7.9-7.2-9.3c-2.2-0.6-0.6-2,0.2-2.4
			c2.5-1.2,4.8-0.4,6.8,1.3C42.6,126,43.3,129.4,44.1,132.9z"/>
		<path class="st5" d="M48.3,115.7c1.5,0.1,3.2-0.1,3.5,1.9c0.3,1.9-1.2,2.9-2.6,3c-3.1,0.2-6.2,3.6-9.4-0.1c-1.3-1.5-1.2-2,0.4-2.8
			C42.7,116.2,45.4,115.9,48.3,115.7z"/>
		<path class="st5" d="M82.8,88.4c0,1.5,0,2.9,0,4.4c-2.2,1.8-1.9,4-1.1,6.6c-3.2-3-4.4-6.8-5.5-10.4C75.5,87,79.6,86.5,82.8,88.4z"
			/>
		<path class="st4" d="M134.4,192.6c3.4-10.8,6.9-21.6,10.3-32.4c0.4,0.1,0.9,0.3,1.3,0.4c-3.4,10.8-6.9,21.7-10.3,32.5
			C135.3,193,134.8,192.8,134.4,192.6z"/>
		<path class="st4" d="M167.9,184.9c4.2-0.5,7.5,2.1,11.9,2.7C171.2,192.1,171,192.1,167.9,184.9z"/>
		<path class="st2" d="M28.7,150.8c1.2-0.5,2.4-1.3,3.6,0.1c2.3,2.6,5.7,2.2,8.7,3.2c-0.9,2.5-4.1,0.7-5.2,2.8
			C32.3,156.1,30,154,28.7,150.8z"/>
		<path class="st5" d="M65.9,95.7c0.1-1-0.7-2.3,0.8-3c0.4-0.2,0.7-0.5,1.1-0.7c0.2-0.2,0.5-0.3,0.9-0.3c1,0,1.9,0.1,2.9,0.1
			c0.8,0.4,1.2,1,1.2,1.8c0,1.1,0,2.1,0,3.2c0,0.2,0,0.5,0,0.7c-0.1,0.7,0.1,1,0.8,1.2c0.4,0.4,0.7,0.8,1.1,1.3
			c-0.1,0.7-0.1,1.4-0.9,1.7c-0.9-0.7-1.8-1.3-3-1l0,0c-0.1-0.4-0.2-1.2-0.3-1.2c-0.9,0-0.5,0.8-0.7,1.2l0,0c-1-1.1-3-2.3,0.3-3.2
			c1.3-0.4,2.1-1.5,0.7-3c-1.3-1.3-2.2-1.9-3.2,0.3C67.3,95.3,66.4,95.5,65.9,95.7z"/>
		<path class="st2" d="M85.4,213.6c1.9,1.9,1.4,4.3,2.1,6.2c0.4,1.1,0.9,2.8-1.2,3c-1.9,0.2-3.3-0.5-3.6-2.5
			C82.4,217.7,83.8,215.7,85.4,213.6z"/>
		<path class="st2" d="M65.9,95.7c0.6-0.3,1.4-0.4,1.6-0.8c0.9-2.2,1.9-1.6,3.2-0.3c1.5,1.5,0.6,2.6-0.7,3c-3.3,0.9-1.2,2.1-0.3,3.2
			c0.1,1.3-0.1,2.8,1.8,2.9c-0.4,1.7-1.9,0.7-2.8,1.1c-1-2.7-2.7-5.2-3-8.2C65.6,96.2,65.6,96,65.9,95.7z"/>
		<path class="st4" d="M70.6,187.6c4.3-3.5,9.5-5.2,14.2-7.7c0.3,0.5,0.5,1,0.8,1.5c-4.8,2.2-9.7,4.5-14.5,6.7
			C70.9,187.9,70.7,187.7,70.6,187.6z"/>
		<path class="st4" d="M117.6,248.6c0.4-4.6,1.8-8.9,3.9-13.1c0.1,0.1,0.3,0.2,0.4,0.4c-0.6,4.6-2.1,8.9-4,13L117.6,248.6z"/>
		<path class="st4" d="M117.9,248.9c-0.2,3-1,5.8-3,9c-0.1-3.9,0.9-6.7,2.6-9.3C117.6,248.6,117.9,248.9,117.9,248.9z"/>
		<path class="st4" d="M145.7,159c0.5-3.1,0.9-5.2,3.1-7.6C148.3,154.5,147.9,156.6,145.7,159z"/>
		<path class="st4" d="M108.9,277.8c0,2.5-0.5,4.9-2.1,6.9l0,0c-0.3-2.6,0.2-5,1.9-7.1C108.6,277.6,108.9,277.8,108.9,277.8z"/>
		<path class="st2" d="M73.8,101.7c0.8-0.3,0.8-1,0.9-1.7c1.1,0,2.2,0,3.2,0C76.7,101.2,76,103.7,73.8,101.7z"/>
		<path class="st4" d="M121.5,235.5c0.4-1.9-0.1-4,1.9-5.6c0.5,2.4-0.5,4.2-1.5,5.9C121.8,235.8,121.6,235.6,121.5,235.5z"/>
		<path class="st4" d="M112.9,264.8c0.1,2-0.4,3.8-1.7,5.8c-0.8-2.5,0.3-4.3,1.5-5.9C112.6,264.6,112.9,264.8,112.9,264.8z"/>
		<path class="st4" d="M65.7,190.7c0.5-1.1,1.2-1.8,2.5-1.6c0.1,0,0.2,0.6,0.1,0.8C67.7,190.8,66.8,190.9,65.7,190.7
			C65.8,190.8,65.7,190.7,65.7,190.7z"/>
		<path class="st5" d="M71.5,103.7c-1.9-0.2-1.7-1.6-1.8-2.9c0,0,0,0,0,0c0.3,0,0.6,0,1,0l0,0C70.7,101.8,72.2,102.5,71.5,103.7z"/>
		<path class="st4" d="M59.7,194.7c-0.5,1.1-1.2,1.4-2.2,0.8c-0.2-0.1-0.2-0.5-0.3-0.8C58,194.7,58.9,194.7,59.7,194.7L59.7,194.7z"
			/>
		<path class="st2" d="M71.5,91.8c-1,0-1.9-0.1-2.9-0.1C69.7,90.5,70.6,90.7,71.5,91.8z"/>
		<path class="st2" d="M72.8,96.9c0-1.1,0-2.1,0-3.2C73.9,94.7,73.9,95.8,72.8,96.9z"/>
		<path class="st4" d="M113.6,261.6c0.2-0.8,0.3-1.5,0.5-2.3c0.2,0.1,0.5,0.3,0.6,0.4c0.2,0.8,0,1.6-0.8,2.1L113.6,261.6z"/>
		<path class="st4" d="M113.9,261.9c-0.1,1.1,0.1,2.2-1,3c0,0-0.2-0.2-0.2-0.2c0-1.1-0.1-2.3,1-3
			C113.6,261.6,113.9,261.9,113.9,261.9z"/>
		<path class="st4" d="M154.8,164.7c-1.1,0-2.3,0.2-3-1l-0.1,0C152.8,163.8,154.1,163.5,154.8,164.7L154.8,164.7z"/>
		<path class="st4" d="M109.6,274.7c0.1-0.8,0.3-1.6,0.4-2.3c0.2,0.1,0.6,0.2,0.6,0.4c0.2,0.9-0.1,1.6-0.8,2.1L109.6,274.7z"/>
		<path class="st4" d="M154.7,164.8c1.1,0,2.3-0.2,3,1l0.1-0.1C156.7,165.7,155.5,166,154.7,164.8
			C154.8,164.7,154.7,164.8,154.7,164.8z"/>
		<path class="st4" d="M109.9,274.8c0,1.1,0.1,2.3-1,3c0,0-0.2-0.2-0.2-0.2c0.1-1.1-0.1-2.3,1-3
			C109.6,274.7,109.9,274.8,109.9,274.8z"/>
		<path class="st4" d="M162.8,167.7c-1.1,0-2.3,0.2-3-1c0,0-0.1,0.1-0.1,0.1C160.8,166.8,162,166.5,162.8,167.7L162.8,167.7z"/>
		<path class="st4" d="M149.3,150.3c-0.1-0.1-0.3-0.2-0.3-0.3c0.1-0.3,0.2-0.5,0.3-0.8c0.1,0.1,0.3,0.2,0.3,0.3
			C149.5,149.8,149.4,150.1,149.3,150.3z"/>
		<path class="st4" d="M59.8,194.8c0.3-1,1.1-1.1,2-1c0,0,0,0,0,0C61.3,194.6,60.6,194.8,59.8,194.8
			C59.7,194.7,59.8,194.8,59.8,194.8z"/>
		<path class="st4" d="M157.7,165.8c0.8,0,1.7,0,2,1c0,0,0.1-0.1,0.1-0.1C159,166.7,158.1,166.7,157.7,165.8
			C157.8,165.7,157.7,165.8,157.7,165.8z"/>
		<path class="st4" d="M64.8,191.8c-0.4,0.9-1.1,1.1-2,1l0,0C63.1,191.8,63.8,191.6,64.8,191.8L64.8,191.8z"/>
		<path class="st4" d="M162.7,167.8c0.5,0.1,0.9,0.1,1.4,0.2c-0.1,0.2-0.2,0.3-0.3,0.5C163.4,168.3,163.1,168,162.7,167.8
			C162.8,167.7,162.7,167.8,162.7,167.8z"/>
		<path class="st4" d="M55.5,190c-0.1,0-0.3,0.1-0.3,0.1c-0.1-0.1-0.2-0.3-0.1-0.4c0.1-0.5,0.3-0.5,0.5-0.1
			C55.6,189.7,55.5,189.9,55.5,190z"/>
		<path class="st4" d="M169.8,170.7c-0.4-0.1-0.9-0.2-1.3-0.3c0.1-0.2,0.2-0.3,0.3-0.5C169.1,170.2,169.4,170.5,169.8,170.7
			L169.8,170.7z"/>
		<path class="st4" d="M54.5,186.8c0,0.1-0.1,0.3-0.1,0.4c-0.1-0.1-0.3-0.3-0.3-0.5c0-0.1,0.2-0.2,0.3-0.3
			C54.3,186.5,54.4,186.6,54.5,186.8z"/>
		<path class="st4" d="M169.7,170.8c0.5,0.1,0.9,0.1,1.4,0.2c-0.1,0.2-0.2,0.4-0.3,0.5C170.4,171.2,170.1,171,169.7,170.8
			C169.8,170.7,169.7,170.8,169.7,170.8z"/>
		<path class="st4" d="M176.7,173.8c0.4,0.1,0.9,0.2,1.3,0.3c-0.1,0.2-0.2,0.3-0.4,0.5C177.4,174.3,177.1,174,176.7,173.8
			C176.8,173.7,176.7,173.8,176.7,173.8z"/>
		<path class="st4" d="M176.8,173.7c-0.4-0.1-0.9-0.1-1.3-0.2c0.1-0.2,0.2-0.3,0.3-0.5C176.1,173.3,176.4,173.5,176.8,173.7
			C176.7,173.8,176.8,173.7,176.8,173.7z"/>
		<path class="st4" d="M106.7,284.7c-0.1,0.1-0.1,0.3-0.2,0.4c-0.1,0.1-0.2,0-0.3,0C106.4,285,106.6,284.9,106.7,284.7
			C106.8,284.8,106.7,284.7,106.7,284.7z"/>
		<path class="st2" d="M67.8,92c-0.4,0.2-0.7,0.5-1.1,0.7C66.9,92.2,67.2,91.9,67.8,92z"/>
		<path class="st2" d="M73.6,98.8c-0.6-0.2-0.9-0.5-0.8-1.2C73.1,98,73.4,98.4,73.6,98.8z"/>
		<path class="st4" d="M62.8,192.8c0,0.7-0.4,0.9-1,1c0,0,0,0,0,0C61.7,193.1,62.1,192.8,62.8,192.8
			C62.7,192.7,62.8,192.8,62.8,192.8z"/>
		<polygon class="st4" points="56.1,192.2 56.3,192.1 56.3,192.4 		"/>
		<path class="st4" d="M64.7,191.7c0-0.7,0.4-1,1-1c0,0,0,0,0,0C65.8,191.4,65.4,191.7,64.7,191.7C64.8,191.8,64.7,191.7,64.7,191.7
			z"/>
		<path class="st4" d="M71,188c-0.3,0.1-0.7,0.2-1,0.4c0.2-0.3,0.3-0.5,0.5-0.8C70.7,187.7,70.9,187.9,71,188z"/>
		<polygon class="st4" points="173.2,172.4 173.1,172.2 173.4,172.2 		"/>
		<polygon class="st4" points="166.2,169.4 166.1,169.2 166.4,169.2 		"/>
		<path class="st4" d="M151.8,163.7c-0.1-0.1-0.3-0.1-0.4-0.2C151.5,163.6,151.6,163.7,151.8,163.7
			C151.7,163.8,151.8,163.7,151.8,163.7z"/>
		<path class="st3" d="M294.4,109.5c-7.1,2.3-7,2.2-8.7-4.9c-4.6-18.9-9.2-37.9-13.8-56.8c3,0.6,6,0.7,8.8-0.3
			c4.6-1.5,7.1,0.4,9.7,4.2c7.9,11.6,16.2,22.8,24.3,34.2c-1.9-3.9-2.1-8.5-5-11.9c0.8-6.5-2.1-12.5-3.1-18.8
			c-0.5-3.3-0.6-6.9-2.4-10.2c-1.3-2.4,1.5-2.7,2.8-2.8c3.9-0.4,7.9-0.7,11.8-1c22.4-1.5,44.8-4.2,67.4-3.3c1.5,0.1,4.2-1.4,4.5,1.2
			c0.3,2.7-1.5,4.8-4.4,5.1c-2.1,0.3-4.3,0.4-6.5,0.2c-4.2-0.4-5,1.3-3.6,4.9c0.3,0.8,0.3,1.6,0.4,2.5c1.9,12.2,2.1,12.2,14.3,11.1
			c1.4-0.1,3.7-2,4.1,0.5c0.4,2.2-0.9,4.6-3.4,5.5c-2.6,1-5.3,0.6-7.9,0.6c-2.6,0-3.7,0.7-3.1,3.5c1,4.5,2,9.1,2.8,13.7
			c0.4,2.2,1.6,2.6,3.5,2.5c3.5-0.3,7-0.3,10.5-0.8c2.8-0.4,2.8,0.8,2.1,2.8c-0.9,2.7-2.8,4-5.5,4.2c-6.9,0.6-13.8,1.2-20.7,1.9
			c-1.3,0.1-1.9-0.1-2.2-1.7c-2.2-10.9-4.7-21.7-7-32.6c-1.4-6.7-2.6-13.4-4-20.1c-0.4-1.8-1.6-1.5-2.5-0.4c-2,2.7-4.6,3.3-7.8,3.3
			c-2.7,0-4.1,0.9-3.3,4.5c3.3,14.7,5.9,29.5,9,44.2c0.7,3.6,0.3,5.1-4,5.2c-11.1,0.3-11.1,0.5-13.4-10c-2.7-12.1-5.8-24.2-7.8-36.4
			c-0.8-4.9-3.3-4.6-6.7-4.7c-9.3-0.4-9.3-0.4-7.5,8.5c3,14.5,5.9,29,9,43.4c0.5,2.4,0,3.4-2.3,3.7c-2,0.3-4,0.5-5.9,1
			c-4.6,1.2-7.5-0.1-10.4-4.3c-5.5-8.1-10.9-16.3-17.5-23.5c-1.5-3.2-3-6.5-4.4-9.7c1.6,9.1,3.5,18.2,5.8,27.1
			C291.4,99.8,291.5,105,294.4,109.5z"/>
		<path class="st3" d="M241.4,114.6c-0.2-18.9-0.4-37.8-0.5-56.6c0-1.7-0.8-3.6,0.8-5.2c2.6,2.6,5.4,0.7,7.9,0.1
			c4-1,5.9,0.3,7.6,3.9c7.9,16.8,16.1,33.4,24.3,50.1c0.8,1.6,1.1,3.6,3.4,3.8c-4.1,3.3-9.3,2.8-14.1,3.9c-1.5,0.4-2.2-0.9-2.8-2.3
			c-1.4-3.2-3-6.2-4.8-9.8c-1.8,4.4-5.7,5.3-9.5,6c-3.3,0.6-4.8,2.1-4.1,5.4c1.2,5.5-1.1,7.8-6.5,9c-7.4,1.7-14.7,4.3-21.9,6.7
			c-2.3,0.8-3.6,0.6-4.3-2.1c-5.6-21.7-11.3-43.5-16.9-65.2c3.7,1.7,7.2-0.1,10.6-1.1c3.6-1.1,4.6,0,5.4,3.3
			c4.4,17.4,9.1,34.6,13.6,52c0.4,1.5,0.4,4,2.8,2.8c3.1-1.5,7.6-0.3,9.4-4.5C241.8,114.8,241.5,114.7,241.4,114.6z M248.7,71.9
			c-0.5-1.9-1.1-3.9-1.6-6c0,11.6,0,22.9,0,34.2c0,1.3-0.4,2.8,1,3.6c1.9,1.2,11.6-2.6,12.7-4.9C257.9,89.3,253.3,80.6,248.7,71.9z"
			/>
		<path class="st3" d="M458.5,52.6c0.1,1.4-0.2,2.1-1.3,0.6c-1.5-2-3-4-5.1-5.4c-2-1.2-4.4-2.6-6.3-0.4c-1.8,2.1-0.2,4.2,1.3,5.7
			c3.2,3.2,6.5,6.2,9.8,9.2c3.7,3.4,7,7.1,9,11.8c4.3,10.3-0.1,18.3-11.1,20c-0.8,0.1-1.7,0.3-2.5,0.1c-7.6-2-15.2-0.6-22.9-0.8
			c-4.3-0.1-5-3.8-6.5-6.4c-2.6-4.5-5.7-8.8-7.4-13.8c-0.3-0.9-0.6-2.1-1.9-1.8c-1.8,0.3-1.3,1.8-1.1,2.8c0.8,5.3,1.7,10.6,2.8,15.9
			c0.6,2.9,0.2,4.5-3.2,4.2c-1.3-0.1-2.7-0.1-4,0.1c-3.1,0.5-4.3-0.7-4.8-3.8c-2.9-16.5-6.1-33-9.1-49.5c-0.2-1.3-1.8-3.5,1.3-3.7
			c0.6,1.2,1.8,1.3,2.9,1.3c7.8,0.1,15.6,0.6,23.4,1.9l0,0c1.4,1.9,2.7,3.9,5.3,4.4c0.2,0,0.4,0.2,0.4,0.4c0,2.7,1.2,4.9,3.3,6.5
			c2,5.7,1.7,11.1-2.8,15.6c-1,1-2.1,1.7-1.2,3.3c3.5,6.2,6.9,12.5,10.4,18.7c0.4,0.7,0.9,1.5,1.9,1.3c1.4-0.4,0.9-1.5,0.9-2.4
			c-0.1-2.1-0.2-4.3-0.4-7.6c1.4,1.8,1.9,2.5,2.4,3.2c0.6,1.5,0.2,4,3.2,3.1l0.3,0.2c2.8,4.1,9.3,4.4,11.7,0.5c1.9-3,0.5-6.8-2.9-8
			c-3.7-5.4-8.8-9.5-13.5-13.9c-3.7-3.5-6.7-7.4-7.6-12.6c1.2-0.6,1.9-1.4,2.3-2.9c1.8-7.4,6.6-9.7,14-8.3
			C455.6,43.4,456.4,48.3,458.5,52.6z M420.1,58c0.1-6.7-3.5-12.8-8.3-13.9c-3.3-0.7-4.8,0.1-3.9,3.8c1,4.5,1.8,9.1,2.6,13.6
			c0.8,4.3,2.7,5.2,6.3,2.8C419.1,62.8,420.1,60.6,420.1,58z"/>
		<path class="st3" d="M179.9,160.7c-0.1-4.6,0.8-7.4,5.4-9.3c38.9-15.8,79.1-27.3,120.2-35.7c54.1-11,108.8-15.7,164-13.7
			c2.4,0.1,4.9-0.4,8.6,1.7C373.9,102.4,274.8,119.6,179.9,160.7z"/>
		<path class="st3" d="M189.6,50.8c90.6-22.9,181.5-29,273.5-16.2c-3.2,0-6.5,0.4-9.6-0.1c-9.8-1.4-19.7-1.4-29.5-1.9
			c-12.4-0.6-24.8-1.5-37.3-1.5c-22.4,0.1-44.8,0.8-67.1,2.8c-40.3,3.6-80.2,9.9-119.3,20.6C195.3,55.9,195.3,55.8,189.6,50.8z"/>
		<path class="st2" d="M241.4,114.6c0.1,0.1,0.4,0.2,0.4,0.2c-1.8,4.2-6.2,3-9.4,4.5c-2.5,1.1-2.4-1.3-2.8-2.8
			c-4.6-17.3-9.2-34.6-13.6-52c-0.8-3.3-1.8-4.4-5.4-3.3c-3.4,1-6.9,2.8-10.6,1.1c4.3-2.8,9.4-2.9,14.1-4.2c2.8-0.8,2.7,1.8,3.1,3.4
			c4.2,15.8,8.4,31.7,12.6,47.5c0.2,0.8,0.5,1.6,0.6,2.4c0.5,4.8,2.8,6.3,7.3,4.1C238.8,115,240.1,114.9,241.4,114.6z"/>
		<path class="st2" d="M284.9,110.7c-2.3-0.2-2.7-2.3-3.4-3.8c-8.1-16.7-16.3-33.3-24.3-50.1c-1.7-3.7-3.6-4.9-7.6-3.9
			c-2.5,0.6-5.3,2.6-7.9-0.1c3.8-2,8.1-1.7,12-2.9c1.6-0.5,2.5,0.5,3.1,1.8c9.3,19.3,18.7,38.7,28,58
			C284.9,110,284.8,110.4,284.9,110.7z"/>
		<path class="st2" d="M197.8,74.3c-2,0.5-2.4-1-3.1-2.4c-7.4-14.4-12.7-16.8-28.1-12.6c-5.7,1.6-11.4,3.4-17,5.4
			c-2.3,0.8-4.5,1.1-6.8,0.6c1.5-2.4,4.3-2.2,6.5-3c6.7-2.3,13.4-4.9,20.2-6.6C184,52.1,195,59.5,197.8,74.3z"/>
		<path class="st2" d="M309.6,74c2.8,3.4,3.1,7.9,5,11.9c-8.1-11.4-16.4-22.7-24.3-34.2c-2.6-3.8-5-5.7-9.7-4.2
			c-2.8,0.9-5.8,0.9-8.8,0.3c4.2-2.4,8.8-2.7,13.5-3.1c2-0.2,2.8,1.1,3.8,2.5c5.7,8,11.6,16,17.4,24C307.3,72.4,307.9,73.7,309.6,74
			z"/>
		<path class="st2" d="M458.5,52.6c-2.1-4.3-2.9-9.2-9.1-10.4c-7.4-1.4-12.3,0.9-14,8.3c-0.4,1.5-1.1,2.3-2.3,2.9
			c-0.4-1.1-1-1.9-2.3-1.4c-2.2-1.6-3.3-3.8-3.3-6.5c2,0.6,1.6,3.1,3.8,4.4c3.5-9.3,10.4-12.2,19.5-9.2
			C457.6,43.1,458.5,44.9,458.5,52.6z"/>
		<path class="st2" d="M294.4,109.5c-2.9-4.4-3-9.7-4.3-14.6c-2.3-8.9-4.2-18-5.8-27.1c1.5,3.2,3,6.5,4.4,9.7
			c-2,4.1,1.2,7.4,1.7,11.1c0.8,6.1,2.8,12,4.2,18C294.9,107.6,295.1,108.6,294.4,109.5z"/>
		<path class="st2" d="M421.8,40.8c-7.7-1.2-15.5-1.8-23.4-1.9c-1.2,0-2.3-0.1-2.9-1.3c8.2-0.7,16.3-0.4,24.3,1.2
			C420.9,39,421.4,39.8,421.8,40.8z"/>
		<path class="st2" d="M427,45.1c-2.6-0.5-3.9-2.4-5.3-4.4C424.3,41.2,426.8,41.8,427,45.1z"/>
		<path class="st0" d="M108,126.5c0.1,5.9-3,10.5-8.3,12.4c-5.1,1.8-10.1,0.3-13.9-4c-1-1.1-1.3-3.5-3.7-2.3c-2,1-1.2,2.9-1,4.4
			c1.2,7.7,4,14.8,9.6,20.4c2.6,2.6,5.2,5.1,7.8,7.7c13.2,13,15.3,28.1,5.6,43.9c-2.5,4-3.8,7.5-1.8,11.9c0.6,1.4,1.2,2.9-1.1,3.5
			c-1.9,0.5-4.4,0.9-4.2-1.6c0.2-2.6-4.1-1.7-2.7-5c1.2-2.9,0.6-6.5,5.3-6.6c0.5,0,1.1-1.2,1.6-1.8c7.8-10.9,7.7-26.4-0.6-36.9
			c-3.4-4.3-7.3-8.2-11.1-12.2c-6.8-7.2-10.8-15.5-11-25.5c0-1.2-0.2-3.2,0.3-3.3c5.1-1.9,3.8-7.1,5.7-10.6c2.8-5.2,8.4-8,13.7-6.7
			C104.2,115.7,107.9,120.3,108,126.5z M89.3,133.8c2.3,2.3,5.1,3.2,8.2,2.4c4.5-1.2,7.1-4,7.4-8.8c0.3-4.5-1.6-7.8-5.7-9.5
			c-4.4-1.9-8.3-0.6-11.1,3c-3,4-3,8.3,0.5,12.2C88.9,133.4,89.1,133.6,89.3,133.8z"/>
		<path class="st0" d="M117.9,117.4c3.4-4.8,7.2-6.4,11.9-5.6c1,0.2,2.2,0.6,2.3,1.6c0.2,1.3-1.2,1.4-2.1,1.4
			c-2.3-0.2-2.8,0.7-2.2,2.8c0.5,1.8-0.4,3.3-2.1,4c-1.5,0.6-2.9,0.4-4.1-0.8c-0.7-0.6-1-2.6-2.5-1c-1,1-1.4,2.2-0.9,3.6
			c1.4,4.7,3.7,8.9,6.9,12.6c1.8,2.1,1.6,3.3-0.7,4.5c-4.4,2.4-8.7,4.7-15.5,2.9c5.7-1.4,10.3-1.8,13.8-5.2
			c-4.1-5-7.4-10.3-8.5-16.7c-1.6-8.8,2.3-16.5,9.1-18.1c0.8-0.2,1.6-0.4,2.4-0.4c1.4,0.1,3.5-0.1,3.7,1.7c0.3,2.1-1.8,1.8-3.2,2.1
			C120.1,108,118.2,110.2,117.9,117.4z"/>
		<path class="st0" d="M130.9,141.7c-1.8,4.6-1.4,9.3-3.2,13.5c-2.6,6.2-9.6,7.9-15.8,3.9c-3.5-2.2-5.4-6.4-10-7.6
			C112.8,151.8,123,150.4,130.9,141.7z M127,148.1c-5.5,4-10.9,5.4-17.2,6c3.5,3.3,6.7,5.2,11.1,3.7
			C125.1,156.4,126.5,153.2,127,148.1z"/>
		<path class="st0" d="M99.3,204.1c0.7,4.1-1.5,4.2-3.2,4.6c-2,0.5-2-1.1-2.2-2.4c-0.2-2.3-0.2-4.6-0.5-6.9c-0.3-2.5,1.5-2.6,3-3
			c2.5-0.6,2.1,1.4,2.3,2.7C99,201.2,99.2,203.3,99.3,204.1z"/>
		<path class="st1" d="M165,67.9c6.3-2.7,10.5-1.6,14.2,3.9c2.7,3.9,3.8,8.5,4.9,13c0.3,2.3,0.7,4.6,0.7,6.9
			c0.2,4.5-0.8,8.6-4.5,11.6c-2.1,1.7-3.4,2.1-4.4-1.3C172.5,90.6,168.7,79.3,165,67.9z"/>
		<path class="st2" d="M165,67.9c3.7,11.3,7.5,22.6,10.9,34c1,3.4,2.3,3,4.4,1.3c3.7-3,4.7-7.1,4.5-11.6c-0.1-2.3-0.5-4.6-0.7-6.9
			c0.9-0.8,1.7-1,2.4,0.2c4.1,6.8-0.5,19.1-8,22c-2.3,0.9-3.2,0.5-3.9-1.9c-3.7-11.7-7.5-23.4-11.3-35.1
			C162.9,68.6,161.9,66.7,165,67.9z"/>
		<path class="st0" d="M100.8,89.7c-0.6-0.2-0.7-0.6-0.6-1.1c0,0,0.4-0.1,0.4,0C100.9,89,101.4,89.4,100.8,89.7
			C100.7,89.8,100.8,89.7,100.8,89.7z"/>
		<path class="st0" d="M95.4,84.3c0.3,0.8,0.6,1.5-0.1,2.3c-0.2-0.6-0.5-1.1-0.7-1.7C94.9,84.7,95.2,84.5,95.4,84.3z"/>
		<path class="st2" d="M70.7,100.7c-0.3,0-0.6,0-1,0c0.2-0.5-0.2-1.3,0.7-1.2C70.5,99.5,70.6,100.3,70.7,100.7z"/>
		<path class="st1" d="M248.7,71.9c4.5,8.7,9.2,17.4,12,26.9c-2.6,0.6-5.2,1-7.7,1.9c-3.1,1.2-4.2,0.3-4.2-3
			C249,89.1,248.8,80.5,248.7,71.9z"/>
		<path class="st2" d="M248.7,71.9c0.1,8.6,0.2,17.2,0.2,25.9c0,3.2,1,4.1,4.2,3c2.5-0.9,5.1-1.3,7.7-1.9
			c-1.1,2.3-10.7,6.1-12.7,4.9c-1.4-0.9-1-2.4-1-3.6c0-11.3,0-22.6,0-34.2C247.7,68,248.2,70,248.7,71.9z"/>
		<path class="st1" d="M430.7,52c1.4-0.5,2,0.3,2.3,1.4c0.9,5.2,3.9,9,7.6,12.6c4.7,4.4,9.8,8.5,13.5,13.9c0.6,2.6,2.9,5.3,0.1,7.8
			c-2.5,2.2-5.3,1-7.9-0.1c-0.3-0.1-0.6-0.1-1-0.2c0,0-0.3-0.2-0.3-0.2c-0.7-1.4-1.9-2.3-3.2-3.1c-0.5-0.7-1-1.3-2.4-3.2
			c0.2,3.3,0.3,5.4,0.4,7.6c0,0.9,0.5,2.1-0.9,2.4c-1,0.3-1.5-0.6-1.9-1.3c-3.5-6.2-7-12.4-10.4-18.7c-0.9-1.6,0.2-2.3,1.2-3.3
			C432.4,63.1,432.7,57.7,430.7,52z"/>
		<path class="st1" d="M420.1,58c0,2.7-1,4.9-3.2,6.3c-3.7,2.4-5.6,1.5-6.3-2.8c-0.8-4.5-1.6-9.1-2.6-13.6c-0.8-3.7,0.7-4.5,3.9-3.8
			C416.6,45.1,420.2,51.2,420.1,58z"/>
		<path class="st2" d="M445.4,87.4c0.3,0.1,0.7,0.1,1,0.2c2.6,1.1,5.4,2.3,7.9,0.1c2.8-2.5,0.5-5.2-0.1-7.8c3.4,1.2,4.8,5,2.9,8
			C454.7,91.8,448.2,91.5,445.4,87.4z"/>
		<path class="st2" d="M441.9,84c1.3,0.8,2.5,1.7,3.2,3.1C442.1,88,442.5,85.5,441.9,84z"/>
		<path class="st5" d="M88.7,133.1c-3.5-4-3.5-8.2-0.5-12.2c2.8-3.7,6.7-4.9,11.1-3c4.1,1.7,6,5.1,5.7,9.5c-0.3,4.8-2.9,7.6-7.4,8.8
			c-3.1,0.8-5.9,0-8.2-2.4c2.5-0.7,4.9,1.9,8.3,0.1c-4.2-0.5-6.5-2.9-8.8-5.2c-0.2-1,0.4-2.1-0.9-3.3c-0.1,1.4-0.4,2.5,0.8,3.4
			C88.7,130.2,88.7,131.7,88.7,133.1z"/>
		<path class="st2" d="M88.8,128.7c2.3,2.4,4.6,4.7,8.8,5.2c-3.4,1.8-5.7-0.8-8.3-0.1c-0.2-0.2-0.5-0.5-0.7-0.7c0-1.5,0-2.9,0-4.4
			L88.8,128.7z"/>
		<path class="st5" d="M127,148.1c-0.5,5.1-1.9,8.3-6.1,9.7c-4.4,1.5-7.5-0.4-11.1-3.7C116.1,153.5,121.5,152.1,127,148.1z"/>
		<path class="st2" d="M88.7,128.8c-1.2-0.8-0.9-1.9-0.8-3.4c1.3,1.1,0.7,2.3,0.9,3.3C88.8,128.7,88.7,128.8,88.7,128.8z"/>
	</g>
</g>
</svg>
