<?xml version="1.0" encoding="utf-8"?>
<!-- Generator: Adobe Illustrator 19.0.0, SVG Export Plug-In . SVG Version: 6.00 Build 0)  -->
<svg version="1.0" id="Ebene_1" xmlns="http://www.w3.org/2000/svg" xmlns:xlink="http://www.w3.org/1999/xlink" x="0px" y="0px"
	 width="113.4px" height="127.6px" viewBox="-248 333.4 113.4 127.6" style="enable-background:new -248 333.4 113.4 127.6;"
	 xml:space="preserve">
<style type="text/css">
	.st0{fill:#FFFFFF;}
</style>
<path class="st0" d="M-142.5,420.7c0.5-2.8,0.9-5.6,0.9-8.5c0-11.5-4.2-22-10.9-30.3l-21.7,21.7c-0.5,2.8-2.2,5.2-4.6,6.5l2.6,8.4
	c0.4,0,0.7-0.2,1.1-0.2c5.1,0,9.2,4.1,9.2,9.2c0,0.4-0.2,0.8-0.2,1.2l6.9,0.8c0.9-4.1,4.4-7.2,8.8-7.2c5.1,0,9.2,4.1,9.2,9.2
	c0,5.1-4.1,9.2-9.2,9.2c-4.8,0-8.7-3.8-9.1-8.5l-7.2-0.9c-1.5,3.2-4.6,5.4-8.3,5.4c-5.1,0-9.2-4.1-9.2-9.2c0-3.7,2.2-6.9,5.4-8.3
	l-2.5-8.1c-0.1,0-0.2,0-0.3,0.1l-38.9,38.9c8.3,6.7,18.8,10.9,30.3,10.9c14.5,0,27.3-6.4,36.2-16.4c1.2,0.3,2.3,0.6,3.6,0.6
	c7.4,0,13.5-6,13.5-13.5C-137,427.1-139.2,423.2-142.5,420.7L-142.5,420.7z M-206.2,386c0.7,0.1,1.3,0.4,1.9,0.6l0.7-3.7
	c-0.7-0.1-1.3-0.2-1.9-0.4L-206.2,386L-206.2,386z M-205.8,410.9l-0.8,4.5c0.8,0.6,1.6,1.3,2.2,2.1l12.6-12.6
	c-0.3-0.8-0.5-1.7-0.6-2.6l-3.2-0.5C-197,406.6-200.9,410.1-205.8,410.9L-205.8,410.9z M-208.6,411c-0.6-0.1-1.3-0.2-1.9-0.4
	l-0.5,3.1c0.7,0.1,1.3,0.3,1.9,0.5L-208.6,411L-208.6,411z M-160.7,373.8c-8.2-6.3-18.4-10.3-29.6-10.3c-1.2,0-2.3,0.3-3.4,0.3
	c-2.4-2.2-5.6-3.6-9.1-3.6c-6.5,0-11.9,4.6-13.2,10.7c-4.6,2.9-8.6,6.5-12,10.7c-1.3-0.4-2.7-0.7-4.2-0.7c-7.4,0-13.5,6-13.5,13.5
	c0,5.2,3,9.6,7.3,11.9c-0.2,1.9-0.6,3.8-0.6,5.8c0,11.2,3.9,21.4,10.3,29.6L-217,430c-2.4-1.7-4-4.3-4-7.4c0-4.4,3.1-7.8,7.2-8.8
	l0.7-4.1c-4.3-2-7.3-6.3-7.3-11.4c0-0.1,0.1-0.2,0.1-0.3l-3.3-0.5c-1.3,3.5-4.6,6-8.6,6c-5.1,0-9.2-4.1-9.2-9.2s4.1-9.2,9.2-9.2
	s9.2,4.1,9.2,9.2c0,0.2-0.1,0.4-0.1,0.6l3.3,0.5c1.2-5.2,5.5-9,10.9-9.6l0.8-4.8c-2.3-1.7-4-4.3-4-7.4c0-5.1,4.1-9.2,9.2-9.2
	s9.2,4.1,9.2,9.2c0,4.4-3.1,7.9-7.2,8.8l-0.8,4.8c4,2.1,6.7,6.2,6.7,11c0,0.3-0.1,0.5-0.2,0.8l3.2,0.5c1.1-3.8,4.5-6.7,8.7-6.7
	c1,0,1.9,0.3,2.7,0.6L-160.7,373.8L-160.7,373.8z"/>
</svg>
