<?xml version="1.0" encoding="utf-8"?>
<!-- Generator: Adobe Illustrator 19.0.0, SVG Export Plug-In . SVG Version: 6.00 Build 0)  -->
<svg version="1.0" id="Ebene_1" xmlns="http://www.w3.org/2000/svg" xmlns:xlink="http://www.w3.org/1999/xlink" x="0px" y="0px"
	 width="107.7px" height="127.6px" viewBox="-251 333.4 107.7 127.6" style="enable-background:new -251 333.4 107.7 127.6;"
	 xml:space="preserve">
<style type="text/css">
	.st0{fill:#FFFFFF;}
</style>
<g>
	<path class="st0" d="M-236.1,442.3l19.9-19.9v-3c0-8.8,3.6-15.1,6.5-20c1.6-2.8,3-5.2,3.4-7.5l0.1-0.4l-0.4-0.2
		c-1-0.5-1.7-1.5-1.7-2.7V385c0-1.6,1.3-3,3-3h14.2c1.6,0,3,1.3,3,3v3.6c0,1.1-0.6,2.2-1.7,2.7l-0.4,0.2l0.1,0.4
		c0.2,1,0.6,2.1,1.1,3.2l21-20.9c-7.5-6-16.7-9.5-25.9-10.3c-2.6-5.5-6.6-9.6-11.9-12.3c-3.5-1.7-7.4-2.6-11.2-2.6
		c-6.8,0-12.8,2.9-16.5,7.9c-3.3,4.5-4.6,9.7-3.8,14.7c0.5,2.8,1.6,5.3,3.4,7.6C-249.8,396.6-251,423.5-236.1,442.3L-236.1,442.3z
		 M-219.1,391c-2.1,4.4-6.6,5.9-10.1,3.5c-4.2-2.9-2.8-7.5,0.5-10.3c5.6-4.8,15-2.9,17.8-2.2C-215,383.1-217.8,388.3-219.1,391
		L-219.1,391z M-226.1,359.1c3.8-4,12.2-5.5,16.9-3.2c7.3,3.6,10.1,11.3,11.2,21.9c-11.2-8.1-20.4-0.5-26.7-4.9
		C-229.4,369.4-230.4,363.8-226.1,359.1L-226.1,359.1z"/>
	<path class="st0" d="M-216.2,457.2V438l-12.2,12.2C-224.5,453.1-220.5,455.5-216.2,457.2L-216.2,457.2z"/>
	<path class="st0" d="M-160.1,382l-23.3,23.3c1.8,3.9,3.3,8.4,3.3,14.2v37.8c4.8-1.9,9.4-4.7,13.6-8.2
		C-146.7,431.9-144.1,402.3-160.1,382L-160.1,382z"/>
	<path class="st0" d="M-214,437.6c0-0.1,0.1-0.2,0.2-0.2h1.9c0.1,0,0.2,0,0.3,0.2l2.7,6.1h0.1l2.7-6.1c0-0.1,0.1-0.2,0.3-0.2h1.8
		c0.1,0,0.2,0.1,0.2,0.2V448c0,0.1-0.1,0.2-0.2,0.2h-1.8c-0.1,0-0.2-0.1-0.2-0.2v-6h-0.2l-2,4.5c-0.1,0.1-0.2,0.2-0.3,0.2h-1.1
		c-0.1,0-0.2-0.1-0.3-0.2l-2-4.5h-0.1v6c0,0.1-0.1,0.2-0.2,0.2h-1.8c-0.1,0-0.2-0.1-0.2-0.2v-10.4H-214z"/>
	<path class="st0" d="M-201.9,437.6c0-0.1,0.1-0.2,0.2-0.2h2c0.1,0,0.2,0.1,0.2,0.2V448c0,0.1-0.1,0.2-0.2,0.2h-2
		c-0.1,0-0.2-0.1-0.2-0.2V437.6L-201.9,437.6z"/>
	<path class="st0" d="M-197.5,437.6c0-0.1,0.1-0.2,0.2-0.2h2c0.1,0,0.2,0.1,0.2,0.2v8.4c0,0.1,0,0.1,0.1,0.1h3.8
		c0.1,0,0.2,0.1,0.2,0.2v1.8c0,0.1-0.1,0.2-0.2,0.2h-6c-0.1,0-0.2-0.1-0.2-0.2v-10.5H-197.5z"/>
	<path class="st0" d="M-189.8,437.6c0-0.1,0.1-0.2,0.2-0.2h2c0.1,0,0.2,0.1,0.2,0.2v4.6l3.6-4.6c0.1-0.1,0.1-0.1,0.3-0.1h2.3
		c0.1,0,0.1,0.1,0.1,0.2l-3.2,4.1l3.5,6.2c0.1,0.1,0,0.2-0.1,0.2h-2.3c-0.1,0-0.2,0-0.2-0.1l-2.7-4.6l-1.4,1.8v2.7
		c0,0.1-0.1,0.2-0.2,0.2h-2c-0.1,0-0.2-0.1-0.2-0.2v-10.4C-189.9,437.6-189.8,437.6-189.8,437.6z"/>
</g>
</svg>
