<?xml version="1.0" encoding="utf-8"?>
<!-- Generator: Adobe Illustrator 19.0.0, SVG Export Plug-In . SVG Version: 6.00 Build 0)  -->
<svg version="1.0" id="Ebene_1" xmlns="http://www.w3.org/2000/svg" xmlns:xlink="http://www.w3.org/1999/xlink" x="0px" y="0px"
	 width="107.7px" height="127.6px" viewBox="-251 333.4 107.7 127.6" style="enable-background:new -251 333.4 107.7 127.6;"
	 xml:space="preserve">
<style type="text/css">
	.st0{fill:#FFFFFF;}
</style>
<g>
	<path class="st0" d="M-213.5,421.5c-2.6-3.2-4.5-6.5-5.3-8.1c3.9,0,8.2,0.3,12.2,1.2l2-2c-1,0.2-2.1,0.1-3.3-0.1
		c-5.7-1.2-12.4-9.4-16.1-16.4c7.5-0.2,16-0.1,22.1,5.6c1.9,1.8,2.7,3.8,2.2,5.9l32.1-32.1c-7.9-5.6-21-12-35.6-10.5
		c-3.5-3-6.5-5-7.7-5.7l-13.6-7.5l-2.4,15.4c-0.5,3.1-0.8,6-1,8.7c-0.2,0.1-0.3,0.3-0.5,0.4c-19.6,16.9-22.2,46.2-6.3,66.2
		L-213.5,421.5L-213.5,421.5z M-202.6,391.7c2.9-7.2,9.1-10.8,16.1-14.8c-0.2,8.2-0.6,16.4-5.3,21.5c-2.7,2.9-5.4,4-8.4,2.2
		C-203.2,398.8-204.1,395.5-202.6,391.7L-202.6,391.7z M-221,361.9c2.5,1.5,14.6,11,16.8,19.9c1.2,4.9-0.4,9.5-5,11
		c-5.8,1.9-10.5-3.9-12.1-9.3C-223,377.4-222.3,369.3-221,361.9L-221,361.9z"/>
	<path class="st0" d="M-186.8,444.2c-0.4-1.1,0.6-2.6,1.5-2.9c0.9-0.3,1.6,0.5,2.2,1.7c0.8,1.6,2.8,4.4,6.5,13.1
		c0.2-0.1,0.4-0.2,0.6-0.3c-1.7-16.2,9.8-27.4,20.6-39.2c-0.4,4.6-6.4,13.8-8.4,30.7c17.8-17.1,19.7-45.1,4.3-64.4l-21.9,21.9
		c-0.8,4.7-2.4,9.6-6,12.5c-2.4,1.9-4.9,2.1-7.1,0.9c0,0-0.1,0-0.1-0.1l-1.4,1.4l0.1,0.1c2.2,2.4,2.5,4.5,1.3,7.1
		c-1.2,2.6-3.8,4-6.7,3.5c-1.3-0.2-2.7-0.7-3.9-1.4l-2.5,2.5c5.6,0.9,11.6,2.7,14.9,5.2c3.7,2.9,5.2,6.3,3.3,10.1
		c-1.9,3.9-6.5,5.5-10.6,3.7c-5.3-2.3-10.1-8-13.8-12.8l-13,13c13.2,10.5,30.5,13.4,46,7.6C-184,450.1-186.7,444.6-186.8,444.2
		L-186.8,444.2z M-188.8,437.6c-2.9-1.7-4.5-4.8-3.9-8.2c1.2-7.7,14.3-17.4,20.3-20.6c-0.3,4.1,0.5,20.5-7.9,27.6
		C-182.6,438.4-185.7,439.4-188.8,437.6L-188.8,437.6z"/>
</g>
</svg>
