<?xml version="1.0" encoding="utf-8"?>
<!-- Generator: Adobe Illustrator 19.0.0, SVG Export Plug-In . SVG Version: 6.00 Build 0)  -->
<svg version="1.0" id="Ebene_1" xmlns="http://www.w3.org/2000/svg" xmlns:xlink="http://www.w3.org/1999/xlink" x="0px" y="0px"
	 width="107.7px" height="127.6px" viewBox="-251 333.4 107.7 127.6" style="enable-background:new -251 333.4 107.7 127.6;"
	 xml:space="preserve">
<style type="text/css">
	.st0{fill:#FFFFFF;}
</style>
<g>
	<path class="st0" d="M-148.4,412.3c0-26.9-21.8-48.7-48.7-48.7s-48.7,21.8-48.7,48.7c0,26.9,21.8,48.7,48.7,48.7
		S-148.4,439.2-148.4,412.3L-148.4,412.3z M-225.2,429v5.6c0,0.1,0,0.1-0.1,0.2c-0.1,0.1-0.1,0.1-0.2,0.1s-0.3,0.1-0.5,0.1
		s-0.4,0-0.7,0s-0.5,0-0.7,0c-0.2,0-0.3,0-0.5-0.1c-0.1,0-0.2-0.1-0.2-0.1c0-0.1-0.1-0.1-0.1-0.2v-13.2c0-0.1,0-0.1,0.1-0.2
		c0.1-0.1,0.1-0.1,0.2-0.1c0.1,0,0.3-0.1,0.5-0.1c0.2,0,0.4,0,0.7,0s0.5,0,0.7,0s0.3,0,0.5,0.1c0.1,0,0.2,0.1,0.2,0.1
		c0,0.1,0.1,0.1,0.1,0.2v5.1h5.4v-5.1c0-0.1,0-0.1,0.1-0.2c0.1-0.1,0.1-0.1,0.2-0.1s0.3-0.1,0.5-0.1s0.4,0,0.7,0s0.5,0,0.7,0
		c0.2,0,0.3,0,0.5,0.1c0.1,0,0.2,0.1,0.2,0.1c0,0.1,0.1,0.1,0.1,0.2v13.2c0,0.1,0,0.1-0.1,0.2c-0.1,0.1-0.1,0.1-0.2,0.1
		c-0.1,0-0.3,0.1-0.5,0.1c-0.2,0-0.4,0-0.7,0s-0.5,0-0.7,0s-0.3,0-0.5-0.1c-0.1,0-0.2-0.1-0.2-0.1c0-0.1-0.1-0.1-0.1-0.2V429H-225.2
		L-225.2,429z M-229.8,416.6c-1.7-0.9-2.6-2.3-2.9-4.2c-0.2-1.3,0-2.5,0.3-3.7c0.3-1.5,0.9-2.9,1.5-4.2c0.5-1.1,1-2.1,1.6-3.2
		c0.1-0.1,0.1-0.2,0.2-0.3c0.3,0.1,0.4,0.1,0.7,0.4c-0.1,0.1-0.1,0.3-0.2,0.4c-0.6,1.1-1.2,2.3-1.7,3.5c-0.3,0.9-0.6,1.8-0.7,2.7
		c-0.1,0.7-0.1,1.4,0,2.2c0.2,1.2,0.9,2.1,1.9,2.7c0.7,0.5,1.5,0.8,2.4,1c1,0.2,2,0.3,3,0.3c2.3,0,4.6-0.4,6.7-1.3
		c0.5-0.2,1-0.5,1.5-0.7c0.3-0.2,0.7-0.5,0.9-0.8c0.4-0.5,0.6-1,0.6-1.6c0-0.8-0.1-1.6-0.2-2.4c-0.1-0.8-0.2-1.6-0.3-2.5
		s-0.2-1.8-0.4-2.7c-0.2-1-0.3-2-0.5-3.1c-0.2-1.1-0.4-2.3-0.6-3.4c-0.2-1.2-0.4-2.4-0.6-3.6c-0.1-0.3-0.1-0.6-0.2-0.9
		c-0.4-0.2-0.7-0.3-0.9-0.5c-0.1-1.4,0.4-3.8,1.2-5c0.1,0,0.2,0,0.3,0c0,0.2,0.1,0.3,0.1,0.5c0,0.2,0.1,0.3,0.2,0.5
		c0.2,0.4,0.4,0.6,0.8,0.8c0.7,0.3,1.3,0.6,2,0.9c0.1,0.1,0.2,0.1,0.4,0.2c0.1,0.9-0.2,3.1-0.5,3.9c-0.4,0-0.7-0.2-1.1-0.3
		c0,0.2,0,0.5,0.1,0.7c0.2,1.4,0.4,2.9,0.7,4.3c0.2,1,0.3,2,0.5,3c0.1,0.7,0.2,1.4,0.3,2.1c0.1,0.9,0.2,1.8,0.3,2.7
		c0.1,0.6,0.1,1.2,0.2,1.8c0.1,1.1,0.2,2.3,0.1,3.4c0,0.8-0.2,1.6-0.4,2.4c-0.6,1.8-1.7,3.1-3.5,3.9c-0.8,0.4-1.7,0.6-2.5,0.8
		c-1.1,0.2-2.2,0.4-3.4,0.4c-0.7,0-1.4,0.1-2.1,0.1c-1.1,0-2.2-0.1-3.2-0.3C-228.3,417.3-229.1,417-229.8,416.6L-229.8,416.6z
		 M-214.8,434l4.5-12.4c0-0.1,0.1-0.2,0.2-0.3c0.1-0.1,0.2-0.1,0.3-0.2c0.1,0,0.3-0.1,0.5-0.1s0.5,0,0.9,0c0.4,0,0.8,0,1.1,0
		s0.5,0,0.6,0.1c0.1,0,0.3,0.1,0.3,0.2c0.1,0.1,0.1,0.2,0.2,0.3l4.5,12.4c0.1,0.3,0.1,0.5,0.2,0.6c0,0.2,0,0.3-0.1,0.3
		c-0.1,0.1-0.2,0.1-0.4,0.1s-0.5,0-0.9,0c-0.4,0-0.7,0-0.9,0s-0.4,0-0.5-0.1c-0.1,0-0.2-0.1-0.2-0.1c0-0.1-0.1-0.1-0.1-0.2l-1-2.8
		h-5.5l-0.9,2.7c0,0.1-0.1,0.2-0.1,0.3s-0.1,0.1-0.2,0.2c-0.1,0-0.3,0.1-0.5,0.1s-0.5,0-0.8,0c-0.3,0-0.6,0-0.8,0
		c-0.2,0-0.3-0.1-0.4-0.2c-0.1-0.1-0.1-0.2-0.1-0.4C-214.9,434.4-214.9,434.2-214.8,434L-214.8,434z M-208.9,388.4
		c0.8,0.3,1.5,0.6,2.3,1c2.2,1.1,4.2,2.5,6,4.2c0.9,0.9,1.7,1.8,2.4,2.8s1.2,2,1.5,3.2c0.2,0.6,0.2,1.3,0.2,1.9c0,0.3-0.1,0.7-0.2,1
		c0,0.1-0.1,0.1-0.1,0.2c-0.1-0.2-0.1-0.3-0.2-0.4c-1.2-2.3-2.8-4.4-4.7-6.3c-0.4-0.4-0.8-0.7-1.3-1c-0.4-0.2-0.7-0.4-1.2-0.5
		c-0.3,0-0.5,0-0.6,0.2c-0.1,0.1-0.1,0.2-0.2,0.3c-0.1,0.1-0.1,0.2-0.2,0.3c-0.2,0.2-0.4,0.3-0.7,0.3c-0.3,0-0.5-0.1-0.7-0.2
		c-0.4-0.1-0.7-0.3-1.1-0.6c-0.9-0.6-1.6-1.2-2.3-2c-0.6-0.8-1.1-1.6-1.3-2.6c-0.1-0.4-0.1-0.8-0.1-1.3c0-0.1,0-0.1,0-0.2
		c0.1-0.6,0.5-0.8,1.1-0.7C-209.8,388.2-209.3,388.3-208.9,388.4L-208.9,388.4z M-195.3,402.8c0.6-1.2,1-2.4,1.1-3.8
		c0.1-1.1,0-2.2-0.1-3.4c-0.1-1.6-0.4-3.2-0.8-4.7c0-0.1,0-0.3,0-0.4c0.4-1,0.9-2,1.3-3l0.1-0.1c0.1,0.1,0.1,0.2,0.1,0.3
		c0.1,0.5,0.2,1,0.3,1.5c0.2,1.3,0.4,2.7,0.6,4c0.2,1.1,0.3,2.3,0.5,3.4c0.1,1,0.3,2,0.4,3s0.2,1.9,0.4,2.9c0.2,1.1,0.3,2.2,0.6,3.4
		c0.1,0.5,0.3,1,0.5,1.4c0.1,0.3,0.3,0.5,0.5,0.7c0.2,0.2,0.5,0.4,0.8,0.4c0.1,0,0.3,0,0.4,0c5.8,0,11.6,0,17.5,0c0.2,0,0.3,0,0.5,0
		v-0.1l-0.1-0.1c-1.2-0.9-2.5-1.8-3.8-2.6c-1.2-0.7-2.5-1.3-3.8-1.6c-0.8-0.2-1.6-0.3-2.4-0.3c-0.6,0-1.1,0-1.7,0.1
		c-0.2,0-0.4,0.1-0.5,0c0-0.1,0-0.1,0-0.2c0.4-0.8,0.9-1.6,1.6-2.3c0.7-0.6,1.6-1,2.5-1.2c1.1-0.2,2.1-0.1,3.1,0.3
		c1.2,0.4,2.3,1.1,3.3,1.8c0.8,0.6,1.6,1.2,2.3,1.8c0.8,0.7,1.7,1.4,2.5,2.1c0.6,0.5,1.2,1,1.9,1.5c0.3,0.2,0.6,0.4,0.9,0.5
		c0.2,0.1,0.5,0.2,0.7,0.2c0.3,0,0.5,0,0.7,0c0.1,0,0.2,0,0.2,0c0.1,0.4,0.1,3.1,0,3.5c-0.1,0-0.1,0-0.2,0s-0.3,0-0.4,0
		c-6.8,0-13.6,0-20.5,0c-1.5,0-2.9,0-4.4,0c-0.3,0-0.5,0-0.7,0c-0.7-0.1-1.3-0.4-1.8-0.9c-0.4-0.4-0.7-0.9-0.9-1.4
		c-0.3-0.7-0.5-1.5-0.7-2.2c-0.2-1.1-0.3-2.2-0.4-3.3c0-0.7-0.1-1.4-0.2-2c-0.1,0-0.1,0.1-0.1,0.2c-0.5,1.2-0.9,2.4-1.5,3.5
		c-0.4,0.8-0.8,1.7-1.4,2.5c-0.9,1.4-2.1,2.4-3.6,3.1c-0.6,0.3-1.3,0.5-1.9,0.7c-0.7,0.2-1.5,0.3-2.3,0.4c-0.9,0.1-1.9,0.2-2.8,0.3
		c-0.9,0.1-1.8,0.1-2.7,0.2c-0.7,0-1.5,0.1-2.2,0.1c-0.1,0-0.3,0-0.4,0c-0.1-0.2-0.1-0.4-0.1-0.5c0.1-0.1,0.3-0.1,0.4-0.2
		c1.6-0.5,3.2-1,4.8-1.5c1.8-0.6,3.6-1.3,5.3-2.2c1.3-0.6,2.5-1.4,3.5-2.2C-197,405.4-196,404.2-195.3,402.8L-195.3,402.8z
		 M-199.6,421.3c0-0.1,0.1-0.1,0.2-0.1s0.3-0.1,0.5-0.1c0.2,0,0.4,0,0.7,0s0.5,0,0.7,0c0.2,0,0.3,0,0.5,0.1c0.1,0,0.2,0.1,0.2,0.1
		c0.1,0.1,0.1,0.1,0.1,0.2v11.2h4.6c0.1,0,0.1,0,0.2,0.1c0.1,0,0.1,0.1,0.1,0.2c0,0.1,0.1,0.2,0.1,0.4c0,0.1,0,0.3,0,0.5
		c0,0.2,0,0.4,0,0.5s0,0.3-0.1,0.4c0,0.1-0.1,0.2-0.1,0.2c-0.1,0-0.1,0.1-0.2,0.1h-6.7c-0.2,0-0.5-0.1-0.6-0.2
		c-0.2-0.1-0.3-0.4-0.3-0.7v-12.7C-199.7,421.4-199.7,421.4-199.6,421.3L-199.6,421.3z M-191.1,434l4.5-12.4c0-0.1,0.1-0.2,0.2-0.3
		c0.1-0.1,0.2-0.1,0.3-0.2c0.1,0,0.3-0.1,0.5-0.1c0.2,0,0.5,0,0.9,0s0.8,0,1.1,0c0.3,0,0.5,0,0.6,0.1c0.1,0,0.3,0.1,0.3,0.2
		c0.1,0.1,0.1,0.2,0.2,0.3l4.5,12.4c0.1,0.3,0.1,0.5,0.2,0.6c0,0.2,0,0.3-0.1,0.3c-0.1,0.1-0.2,0.1-0.4,0.1s-0.5,0-0.9,0
		c-0.4,0-0.7,0-0.9,0c-0.2,0-0.4,0-0.5-0.1c-0.1,0-0.2-0.1-0.2-0.1c0-0.1-0.1-0.1-0.1-0.2l-1-2.8h-5.5l-0.9,2.7
		c0,0.1-0.1,0.2-0.1,0.3s-0.1,0.1-0.2,0.2c-0.1,0-0.3,0.1-0.5,0.1c-0.2,0-0.5,0-0.8,0c-0.3,0-0.6,0-0.8,0s-0.3-0.1-0.4-0.2
		s-0.1-0.2-0.1-0.4C-191.2,434.4-191.2,434.2-191.1,434L-191.1,434z M-175.9,421.3c0-0.1,0.1-0.1,0.2-0.1c0.1,0,0.3-0.1,0.5-0.1
		c0.2,0,0.4,0,0.7,0c0.3,0,0.5,0,0.7,0c0.2,0,0.3,0,0.4,0.1c0.1,0,0.2,0.1,0.2,0.1c0.1,0.1,0.1,0.1,0.1,0.2v11.2h4.6
		c0.1,0,0.1,0,0.2,0.1c0.1,0,0.1,0.1,0.1,0.2c0,0.1,0.1,0.2,0.1,0.4c0,0.1,0,0.3,0,0.5c0,0.2,0,0.4,0,0.5s0,0.3-0.1,0.4
		c0,0.1-0.1,0.2-0.1,0.2c-0.1,0-0.1,0.1-0.2,0.1h-6.6c-0.2,0-0.5-0.1-0.6-0.2c-0.2-0.1-0.3-0.4-0.3-0.7v-12.7
		C-176,421.4-176,421.4-175.9,421.3L-175.9,421.3z M-184.7,423.8l-2.1,5.9h4.1L-184.7,423.8L-184.7,423.8L-184.7,423.8z
		 M-208.4,423.8l-2.1,5.9h4.1L-208.4,423.8L-208.4,423.8L-208.4,423.8z"/>
</g>
</svg>
