<?xml version="1.0" encoding="utf-8"?>
<!-- Generator: Adobe Illustrator 22.0.1, SVG Export Plug-In . SVG Version: 6.00 Build 0)  -->
<svg version="1.1" id="Layer_1" xmlns="http://www.w3.org/2000/svg" xmlns:xlink="http://www.w3.org/1999/xlink" x="0px" y="0px"
	 viewBox="0 0 357.1 249.8" style="enable-background:new 0 0 357.1 249.8;" xml:space="preserve">
<style type="text/css">
	.st0{fill:#6A5B93;}
	.st1{fill:#DE8DBA;}
</style>
<g id="Soqt4W.tif">
	<g>
		<path class="st0" d="M102.7,27.8c7.4,10.6,2.2,19.2-3,27.5c-2.8,4.6-3,8.5,0,12.8c0.4,0.5,0.6,1.2,0.9,1.8c4.4,8.1,10,16,1.9,25.5
			c8.5-2.4,13.7-8.2,18.4-15c2,4.8,3.8,9.3,6.5,13.3c1.2,1.7,0.3,2.7-0.8,3.9c-10.7,11.1-23.7,17-39.2,16.7c-5.6-0.1-8.5-5-6.2-10.3
			c2.3-5.2,4.7-10.3,7.6-15.2c1.9-3.3,1.8-6-0.1-9.2c-2.6-4.4-4.6-9.2-7-13.8c-1.4-2.8-1.4-5.4,0-8.1c2.6-5,5-10.2,7.6-15.2
			c1.2-2.3,1.3-4.2,0.1-6.5c-2.5-4.7-4.8-9.5-7.2-14.3c-4-8.2-1-12.8,8.2-12.5c25.3,0.7,47.5,21.5,49.9,46.7
			c0.5,4.8,0.2,9.7,1.6,14.4c4.6,15.6,14.6,25.9,30.8,28.5c15.6,2.5,28-3.6,37-16.6c0.3-0.4,0.6-0.8,1.3-1.7
			c2.2,4.9,4.2,9.5,6.9,13.8c1.2,2-0.8,3-1.9,4.1c-14.4,14-31.4,19.2-50.9,14.1c-19.6-5.1-32.1-18.1-37.7-37.6
			c-1.5-5.2-1.5-10.5-1.9-15.8C124.7,44.9,115.1,31.5,102.7,27.8z"/>
		<path class="st1" d="M253.3,94.7c-0.1-0.7-0.1-1.3-0.3-1.7c-5.6-7.6-2.5-14.4,1.9-21c4.5-6.7,5.6-13.2,0.3-20
			c-1.5-1.9-2-4.6-3.4-6.7c-2.7-4.1-2.8-8-0.3-12.2c0.8-1.4,2-2.7,1.6-4.5c-5.6,0.8-9,3.6-17.3,14.1c-2.3-4.7-4.6-9.2-6.9-13.7
			c-0.9-1.7,0.4-2.4,1.3-3.4C240.6,14.5,253.5,9,268.8,9.2c6.3,0.1,9.2,4.8,6.6,10.7c-2.3,5.2-4.9,10.2-7.6,15.2
			c-1.5,2.8-1.7,5.1-0.1,7.9c2.4,4.2,4.1,8.7,6.6,12.9c2.4,4.1,2.2,7.7-0.1,11.7c-2.5,4.3-4.4,9-6.8,13.4c-1.2,2.3-1.2,4.3,0,6.6
			c2.7,5,5.2,10.1,7.6,15.2c3.3,6.8,0.3,11.5-7.3,11.5c-26.2,0.3-49.4-21-51.4-47.5c-0.9-12-3.2-23.2-12.5-32.1
			c-16.3-15.6-42.5-13.4-55.6,5c-0.7,1-1,2.5-2.6,2.9c-2.1-4.3-4.2-8.6-6.5-12.8c-1.3-2.5,0.2-3.7,1.6-5.1
			c17.9-18.5,48.4-20.9,69-5.4c14.4,10.9,21.1,25.6,21.6,43.5c0.5,14.3,7.2,24.9,19.7,31.9c0.4,0.2,0.9,0.3,1.4,0.4
			C252.6,95,252.7,94.9,253.3,94.7z"/>
		<path class="st0" d="M334.2,217.4c-5.8,2.5-11.5,3.8-17.6,3.1c-14.3-1.8-25.5-13.1-26.4-27.6c-0.5-8.1-0.3-16.3-0.1-24.5
			c0.1-4.7,3.1-7.9,7.2-8c4.2-0.1,7.6,3.1,7.8,8.1c0.2,7,0,14,0.1,21c0.1,9.5,6,16,14.7,16.1c8.9,0.1,15.2-6.4,15.3-16.1
			c0.1-6.8,0-13.7,0-20.5c0.1-5.3,3.2-8.7,7.7-8.6c4.2,0.1,7.2,3.6,7.3,8.6c0.1,15.2,0.4,30.3-0.1,45.5
			c-0.4,12.4-6.9,21.5-18.3,26.4c-11.2,4.8-21.9,2.9-31.3-4.8c-4.5-3.7-5.2-8-2-11.7c3-3.5,6.9-3.5,11.4,0
			C319.3,231.4,330.6,228.4,334.2,217.4z"/>
		<path class="st0" d="M278.7,210.2c-4.4-4.8-2-8.8-0.8-13.4c0.6-2.2,0.6-4.6,0.6-6.9c0-14.3,0-28.7,0-43c0-5.6-2.6-8.8-7.1-8.9
			c-4.7-0.2-7.8,3.2-7.8,8.9c-0.1,5.6,0,11.2,0,17.3c-2.1-0.8-3.6-1.4-5.2-1.9c-12.9-4.4-26.8,0.1-34.5,11.1
			c-7.8,11.1-7.3,25.6,1.2,36.2c8.2,10.3,22.4,14,34.7,8.9c2.6-1.1,3.9-0.7,5.9,1.2c3.2,2.9,7,2.8,10.5,0.3
			C279.7,217.3,281.2,212.8,278.7,210.2z M248.6,205.5c-8.5,0-15.2-6.8-15.1-15.2c0.1-8.1,6.9-14.8,15-14.9
			c8.3-0.1,15.1,6.8,15,15.3C263.5,199,256.9,205.5,248.6,205.5z"/>
		<path class="st0" d="M6.5,185.6c0.1-17.8,9.1-31.7,23-37.3c14.6-5.9,28.1-3.3,40,6.9c3.2,2.8,4.8,6.1,2.4,10.1
			c-1.9,3.3-4.9,4.4-8.5,3.6c-2-0.5-3.3-2.2-4.9-3.4c-7.7-5.9-16.1-7-24.8-2.5c-8.4,4.4-12.6,11.8-12.2,21.3
			c0.4,9.3,6.6,17.2,15.5,20c8.1,2.6,15.4,1,21.9-4.4c4.7-4,9.1-4,12.2-0.3c2.9,3.6,2.2,7.8-2.4,11.7c-12.1,10.1-25.7,12.3-40.1,5.9
			C14.1,210.8,7.2,198.7,6.5,185.6z"/>
		<path class="st0" d="M138.4,209.9c-3.6-4.2-2.6-7.8-1-12c0.9-2.3,1.1-4.9,1-7c0-13.5-8.4-25-20.9-29c-12.7-4.1-26.4,0.6-34,11.5
			c-7.4,10.7-7.1,25.2,0.9,35.5c8.1,10.5,22.1,14.6,34.5,9.7c2.8-1.1,4.4-1.2,6.8,1c3.1,2.9,7.1,2.7,10.5,0
			C139.4,217.1,141,212.9,138.4,209.9z M108,205.5c-8.5-0.2-15-7-14.7-15.5c0.2-8.1,7.1-14.7,15.3-14.6c8.3,0.1,15,7.3,14.8,15.7
			C123.1,199.3,116.3,205.7,108,205.5z"/>
		<path class="st0" d="M150.1,200.1c0.2-7.6-0.8-15.4,3-22.5c1.1-2-0.5-2.6-1.4-3.7c-3.3-3.9-3.2-8.9,0.1-12.1
			c3.3-3.2,8.1-3.3,11.6,0.2c1.8,1.8,3,1.8,5.1,1c21.1-8.2,41.7,5.9,41.9,28.5c0,6.8,0.1,13.7,0,20.5c-0.1,5.4-3,8.6-7.6,8.6
			c-4.6,0-7.4-3.2-7.5-8.7c-0.1-6.8,0-13.7,0-20.5c-0.1-9.3-6.4-15.9-15-15.9c-8.6-0.1-14.9,6.5-15.1,15.8c-0.1,6.8,0,13.7-0.1,20.5
			c-0.1,5.4-2.9,8.8-7.4,8.9c-4.5,0.1-7.5-3.2-7.6-8.6C150,208.1,150.1,204.1,150.1,200.1z"/>
	</g>
</g>
</svg>
