<?xml version="1.0" encoding="utf-8"?>
<!-- Generator: Adobe Illustrator 22.0.1, SVG Export Plug-In . SVG Version: 6.00 Build 0)  -->
<svg version="1.1" id="Layer_1" xmlns="http://www.w3.org/2000/svg" xmlns:xlink="http://www.w3.org/1999/xlink" x="0px" y="0px"
	 viewBox="0 0 144 144" style="enable-background:new 0 0 144 144;" xml:space="preserve">
<style type="text/css">
	.st0{fill:#AD9964;}
	.st1{fill:#FDFDFD;}
	.st2{fill:#AEAEAE;}
	.st3{fill:#787877;}
	.st4{fill:#0B0B0B;}
</style>
<g>
	<path class="st0" d="M107.1,42.7c-0.3,1.9-0.7,3.8-1.5,5.5c-2.4,5.5-6.3,9.4-11.8,11.8c-0.2,0.1-0.3,0.1-0.5,0.2
		c1.5,0.4,6.3-0.9,9.2-2.6c2.8-1.7,5.2-3.9,7.1-6.7c-1.6,5.2-7.8,12.7-18,13.7c0.4,0.4,0.9,0.3,1.3,0.4c6.1,0.8,11.6-0.7,16.3-4.6
		c0.1-0.1,0.2-0.1,0.3-0.2c0,0,0.1,0.1,0.1,0.1c-0.7,1.1-1.7,2.1-2.7,3c-3.3,2.9-7.1,4.6-11.4,5.3c-2.1,0.3-4.1,0.3-6.2-0.1
		c-0.1,0-0.2,0-0.3,0c1,1,5.8,2.5,9.4,2.4c3.3,0,6.5-0.8,9.5-2.2c-1.4,1.2-2.9,2.2-4.6,2.9c-3.3,1.5-6.8,2.1-10.4,1.8
		c-2.1-0.1-4.2-0.6-6.2-1.4c-0.2-0.1-0.5-0.2-0.7-0.3c-0.1-0.1-0.2-0.1-0.3-0.1c0-0.1-0.2-0.1-0.2-0.1c-0.1,0.1,0.1,0.1,0.1,0.2
		c0,0.1,0.1,0.2,0.2,0.2c1.2,1.2,2.7,2.1,4.2,2.9c3.2,1.6,6.6,2.4,10.2,2.2c1,0,1.9-0.1,2.9-0.3c0.2,0,0.5,0,0.7,0l0,0
		c-1.7,0.9-3.5,1.4-5.4,1.6c-3.2,0.5-6.5,0.3-9.6-0.7c-2.4-0.8-4.6-1.9-6.6-3.4c-0.3-0.2-0.5-0.4-0.8-0.6c0,0-0.1-0.2-0.1,0
		c0,0,0.1,0.1,0.1,0c-0.1,0.3,0.2,0.5,0.3,0.7c3.3,4.7,7.8,7.6,13.5,8.7c0.8,0.2,1.7,0.2,2.5,0.3c-2.6,0.7-7.6,0.4-11.5-1.3
		c-3.7-1.6-6.8-4-9.2-7.4c-0.1,1.5,2.5,6,4.8,8.3c2.3,2.3,5,4,8.1,5.2c-3.8-0.4-7.2-1.8-10.2-4c-3-2.3-5.3-5.2-6.9-8.7
		c-0.2,3.6,1.7,10.6,8.6,15.4c-3.3-1.3-6.1-3.3-8.4-6.1c-2.3-2.7-3.8-5.9-4.7-9.3C67,81.2,68.9,86,72.4,90.4
		C67.7,86.8,65,82,64,76.3c-0.2-0.1-0.2,0.1-0.3,0.2c-0.7,1.8-0.9,3.7-0.7,5.6c0.3,2.1,0.8,4.1,1.6,6.1c0,0,0,0.1,0,0.2
		c-0.7-0.6-2-3-2.8-5.1c-0.7-1.9-1.1-3.8-1.2-5.8c-0.6,0.2-1.1,0.3-1.6,0.5c-2.4,0.7-4.8,1.1-7.3,1.1c-3,0-6-0.6-8.8-1.8l0,0
		c1-0.1,2,0.1,3,0.2c1.2,0.1,2.3,0,3.5-0.1c3.6-0.3,6.8-1.6,9.9-3.4c0.2-0.1,0.4-0.3,0.6-0.4c0.1,0,0.2-0.1,0.2-0.1
		c-0.1-0.1-0.2,0-0.3,0c-1.3,0.3-2.6,0.7-4,0.9c-2.2,0.3-4.4,0.4-6.6,0.2c-3.5-0.3-6.7-1.3-9.8-2.9c-1.4-0.7-2.8-1.6-4-2.7
		c7.3,3.4,14.6,3.5,21.9,0.2c-0.3-0.1-0.5-0.1-0.8,0c-7.7,0.9-14.5-1.1-20.5-6c-1.3-1.1-2.5-2.3-3.6-3.6c-0.1-0.2-0.3-0.3-0.4-0.6
		c0,0,0.1-0.1,0.1-0.1c0.4,0.3,0.9,0.7,1.3,1c3.4,2.6,7.3,4.2,11.5,4.8c3.2,0.4,6.4,0.3,9.7-0.5c-0.5-0.1-0.8-0.2-1.2-0.2
		c-0.4,0-0.8-0.1-1.1-0.2c-9.3-1.7-15.9-6.9-20-15.3c0-0.1,0-0.1-0.1-0.2c0-0.1,0-0.3,0.2-0.3c2.3,3.1,5.1,5.7,8.6,7.6
		c3,1.7,6.3,2.7,9.7,3.1c0.7,0.1,1.4,0.1,2.2,0.1c-4.8-1.8-8.9-4.6-12.2-8.7c-3.2-4-5.2-8.6-5.8-13.8c0.4,1,0.8,2.1,1.3,3
		c3.2,6.4,8.2,10.9,14.9,13.3c0.3,0.1,0.6,0.2,0.9,0.2c0.1,0.1,0.2,0.2,0.2,0.1c0.1-0.1-0.1-0.1-0.2-0.1c-0.8-0.7-1.7-1.3-2.5-2.1
		c-3.8-3.4-6.5-7.6-8-12.4c-1.1-3.4-1.4-6.8-1.2-10.4c0-0.5,0.1-1,0.2-1.5c0.3,0.7,0.2,1.4,0.4,2.1c1,6,3.6,11.2,8,15.4
		c1.2,1.1,2.4,2.2,3.9,3c0,0.1,0.1,0.1,0.2,0.1c0,0.1,0.1,0.1,0.2,0.1c0,0,0-0.1,0-0.1c-0.1,0-0.1-0.1-0.2,0c0.1-0.1,0-0.2,0-0.2
		c-0.9-1.2-1.8-2.3-2.5-3.6c-2-3.4-3.2-7-3.7-10.9c-0.6-4.5,0-8.9,1.6-13.2c0.2,0.2,0.1,0.5,0.1,0.8c-0.2,1.5-0.2,3-0.2,4.5
		c0.2,6.4,2.5,12.1,6.8,16.9c0,0.1,0.1,0.1,0.2,0.1c0.1,0.1,0.1,0.2,0.2,0.2c0.1-0.1,0-0.2-0.1-0.3c-0.4-1.1-0.9-2.3-1.3-3.4
		c-0.8-2.6-1.3-5.2-1.3-7.9c0-6,1.6-11.6,5.1-16.5c0.1,0.1,0.1,0.2,0.2,0.3c-0.8,1.9-1.4,3.9-1.8,5.9c-1,5.9-0.2,11.6,2.5,16.9
		c0.1,0.1,0.1,0.3,0.3,0.4c-1.5-10.6,1.4-19.5,9.6-26.6c0.1,0.1,0.1,0.1,0.2,0.2c-2.4,3.1-4.1,6.4-5.1,10.2c-1,4.1-1.1,8.1-0.2,12.2
		c0,0.2,0,0.5,0.2,0.6c1.1-13.4,10.4-21.2,16.8-23.5c-0.5,0.4-0.9,0.7-1.3,1c-5.1,4-8.2,9.2-9.6,15.5c-0.4,1.8-0.5,3.7-0.6,5.5
		c0,0.9,0.1,1.9,0.2,2.8c0,0.3,0,0.5-0.2,0.7c-3.4,2.9-5.1,6.7-6.1,10.9c-0.4,1.7-0.5,3.5-0.2,5.3c0.1,0.8,0.4,1.6,0.9,2.3
		c0.2,0.4,0.5,0.7,0.9,0.9c1.4,0.9,3.1,0.4,3.8-1.1c0.1-0.3,0.1-0.6,0.1-0.9c0-1.9,0.6-3.6,2.2-4.7c1.2-0.8,2.5-1.1,3.9-0.7
		c1.5,0.4,2.9,1.1,4.2,1.9c0.4,0.2,0.7,0.3,1.1,0.3c2.7,0,5.5,0,8.3,0.2c-0.2,0.2-0.4,0.2-0.6,0.3c-2.3,0.8-4.7,1.6-7,2.6
		c-1.5,0.6-2.8,1.6-4,2.7c-1.5,1.4-2,3.2-1.9,5.2c0.3,3.7-0.7,7.1-3.3,9.9c-0.5,0.5-1.1,1-1.7,1.4c-0.2,0.1-0.5,0.2-0.6,0.5
		c0.3-0.1,0.5-0.2,0.7-0.3c1.6-0.8,3-1.7,4.3-3c1.2-1.3,2.1-2.9,2.3-4.7c0.2-0.1,0.3,0.1,0.5,0.2c1,0.6,2.1,0.6,3.2,0.4
		c1.6-0.3,3-1.1,4.4-2c2.3-1.6,4.2-3.5,5.7-5.8c0.3-0.4,0.6-0.6,1.1-0.7c7.4-1.6,12.4-6.1,15.3-13c0.1-0.2,0.2-0.5,0.3-0.7
		C107,42.6,107,42.7,107.1,42.7z M76.7,74.7C76.7,74.6,76.7,74.6,76.7,74.7C76.7,74.6,76.6,74.6,76.7,74.7
		C76.6,74.7,76.7,74.7,76.7,74.7C76.7,74.7,76.7,74.7,76.7,74.7z"/>
	<path class="st1" d="M104,126c0-0.4,0-0.7,0-1c0-4.6,0-9.2,0-13.9c0-0.2,0-0.4,0-0.6c0-0.2,0.1-0.3,0.3-0.3c1.1,0,2.2,0,3.3,0
		c0.1,0.3,0.1,0.5,0.1,0.7c0,6.2,0,12.5,0,18.7c0,0.1,0,0.3,0,0.4c0,0.3-0.1,0.4-0.4,0.4c-1.6,0-3.3,0-4.9,0c-0.3,0-0.4-0.2-0.5-0.4
		c-0.5-1.2-1-2.5-1.6-3.7c-1.5-3.6-3-7.2-4.6-10.9c-0.1-0.2-0.1-0.5-0.5-0.7c0,0.4,0,0.7,0,0.9c0,4.7,0,9.3,0,14
		c0,0.9,0.1,0.8-0.8,0.8c-0.8,0-1.6,0-2.4,0c-0.3,0-0.5-0.1-0.5-0.5c0-0.1,0-0.3,0-0.4c0-6.2,0-12.3,0-18.5c0-1-0.1-0.8,0.9-0.9
		c1.4,0,2.8,0,4.2,0c0.8,0,0.8,0,1,0.7c1.9,4.7,3.8,9.4,5.8,14.1C103.6,125.4,103.6,125.7,104,126z"/>
	<path class="st0" d="M28.5,119.9c0.2,0.3,0.4,0.4,0.6,0.6c1.7,1.4,2.1,3.2,1.8,5.2c-0.3,3-2.2,4.2-4.5,4.8
		c-2.1,0.5-4.2,0.4-6.2-0.1c-1.9-0.5-3.3-1.6-3.7-3.6c-0.5-2.5-0.1-4.8,2.1-6.5c0.1-0.1,0.2-0.1,0.2-0.2c0-0.3-0.2-0.3-0.3-0.4
		c-1.5-1.2-1.9-2.8-1.8-4.6c0.2-2.5,1.6-4,3.9-4.8c2.1-0.6,4.2-0.6,6.3,0c1.7,0.5,3.1,1.6,3.6,3.4c0.4,1.3,0.3,2.6,0,3.8
		c-0.2,0.5-0.4,1-0.8,1.4C29.3,119.3,28.9,119.6,28.5,119.9z M23.9,121.7c-0.3,0-0.5,0-0.7,0c-1.2,0-2.3,0.7-2.8,1.9
		c-0.5,1.3-0.1,2.6,1,3.1c1.4,0.6,2.9,0.6,4.3,0.1c0.6-0.2,0.9-0.6,1.1-1.2c0.3-0.9,0.2-1.7-0.3-2.5C25.9,122,25,121.5,23.9,121.7z
		 M23.5,118.6c1.5,0,2.3-0.4,2.9-1.4c0.9-1.5,0.3-3.2-1.5-3.6c-0.9-0.2-1.8-0.2-2.7,0c-1.2,0.3-1.7,1-1.6,2.4c0,0.7,0.4,1.3,0.9,1.9
		C22.1,118.5,22.8,118.7,23.5,118.6z"/>
	<path class="st1" d="M77.6,130.5c-0.8,0-1.6,0-2.4,0c-0.5,0-1.2,0.2-1.5-0.1c-0.3-0.3-0.4-0.9-0.6-1.4c-0.7-1.6-1.3-3.2-1.9-4.8
		c-0.2-0.4-0.3-0.5-0.8-0.5c-1,0-2,0-3,0c-0.6,0-0.6,0-0.6,0.6c0,1.8,0,3.7,0,5.5c0,0.7,0,0.7-0.7,0.7c-0.9,0-1.7,0-2.6,0
		c-0.3,0-0.5-0.1-0.4-0.4c0-0.2,0-0.3,0-0.5c0-6.1,0-12.3,0-18.4c0-0.1,0-0.1,0-0.2c0-0.9,0-0.7,0.7-0.7c2.4,0,4.8,0,7.2,0
		c1,0,2,0.1,3,0.4c1.8,0.6,3,1.7,3.5,3.6c0.4,1.6,0.4,3.1,0.1,4.7c-0.3,1.5-1.1,2.7-2.5,3.4c-0.4,0.2-0.4,0.4-0.2,0.8
		c0.9,2.2,1.8,4.4,2.7,6.5C77.5,129.9,77.7,130.1,77.6,130.5z M66.7,116.9c0,0.9,0,1.9,0,2.8c0,0.2,0,0.4,0.3,0.4c1.4,0,2.9,0,4.3,0
		c1.1-0.1,2-0.7,2.3-1.8c0.2-0.7,0.3-1.4,0.2-2.1c-0.2-1.5-1-2.2-2.5-2.3c-1.4-0.2-2.8,0-4.3-0.1c-0.3,0-0.4,0.1-0.4,0.4
		C66.7,115.1,66.7,116,66.7,116.9z"/>
	<path class="st1" d="M43.2,120.4c0-3.1,0-6.3,0-9.4c0-0.7,0-0.7,0.6-0.7c2.2,0,4.5,0,6.7,0c1.2,0,2.3,0.2,3.4,0.5
		c1.7,0.6,2.9,1.7,3.6,3.4c0.4,1.1,0.6,2.2,0.7,3.3c0.1,2.3,0.2,4.6-0.2,6.9c-0.1,0.3-0.1,0.7-0.2,1c-0.8,2.8-2.5,4.5-5.9,4.9
		c-1.5,0.2-3.1,0.1-4.6,0.1c-1.1,0-2.2,0-3.3,0c-0.8,0-0.8,0.1-0.8-0.7c0-1.2,0-2.4,0-3.6C43.2,124.2,43.2,122.3,43.2,120.4z
		 M46.9,120.4c0,2,0,4,0,6c0,0.5,0,0.5,0.5,0.6c0.9,0,1.7,0,2.6,0c0.5,0,0.9,0,1.4-0.1c1.6-0.3,2.5-1.4,2.8-3
		c0.5-2.3,0.5-4.6,0.1-6.9c-0.3-2-1.4-2.9-3.5-3.1c-1.1-0.1-2.3-0.1-3.4-0.1c-0.5,0-0.5,0-0.5,0.6C46.9,116.4,46.9,118.4,46.9,120.4
		z"/>
	<path class="st1" d="M116.8,110.3c0.1,0.3,0.1,0.6,0.1,0.9c0,2.4,0,4.8,0,7.2c0,0.5-0.1,0.6,0.6,0.5c0.6-0.1,1.3,0.1,1.9-0.2
		c0.5-0.3,0.6-1.1,0.9-1.6c1-2.1,1.9-4.1,2.8-6.2c0.2-0.5,0.4-0.6,1-0.6c1.2,0,2.3,0,3.5,0c0.1,0.3-0.1,0.6-0.3,0.8
		c-1.4,2.9-2.7,5.7-4.1,8.6c-0.2,0.5-0.3,0.9,0,1.4c1.5,2.9,2.9,5.8,4.3,8.6c0.1,0.2,0.3,0.5,0.3,0.8c-1.4,0-2.7,0-4,0
		c-0.3,0-0.4-0.2-0.5-0.5c-0.9-1.9-1.9-3.8-2.8-5.7c-0.3-0.5-0.5-1.1-0.8-1.6c-0.1-0.2-0.2-0.3-0.5-0.3c-0.6,0.1-1.2,0.1-1.8,0.1
		c-0.4,0-0.5,0.2-0.5,0.6c0,2,0,4,0,5.9c0,0.5,0.2,1-0.1,1.3c-0.3,0.3-0.9,0.1-1.3,0.1c-0.6,0-1.3,0-1.9,0c-0.3,0-0.4-0.1-0.4-0.4
		c0-0.2,0-0.3,0-0.5c0-6.2,0-12.3,0-18.5c0-1-0.1-0.8,0.8-0.9C114.9,110.3,115.9,110.3,116.8,110.3z"/>
	<path class="st1" d="M136.9,130.8c-2-0.1-3.9-0.4-5.9-0.7c-0.3,0-0.4-0.1-0.3-0.4c0.1-0.9,0.2-1.8,0.3-2.7c0-0.2,0.1-0.3,0.3-0.3
		c0.2,0,0.4,0,0.6,0.1c1.8,0.2,3.5,0.4,5.3,0.4c0.5,0,1-0.1,1.5-0.2c1-0.3,1.4-1,1.5-2c0.1-0.9-0.2-1.7-1.1-2.2
		c-0.8-0.4-1.6-0.6-2.4-0.8c-1-0.3-2.1-0.5-3-1c-2.5-1.1-3.8-2.7-3.4-6.2c0.3-2.7,2.2-4.3,5-4.8c1.6-0.2,3.2-0.1,4.9,0.1
		c1,0.1,1.9,0.3,2.9,0.4c0.4,0.1,0.5,0.2,0.5,0.6c-0.1,0.8-0.2,1.6-0.2,2.4c0,0.4-0.2,0.4-0.5,0.4c-1.7-0.2-3.4-0.4-5.1-0.4
		c-0.7,0-1.5,0-2.2,0.2c-1.6,0.5-1.7,1.6-1.5,2.7c0.1,0.5,0.5,0.9,1,1.1c0.7,0.4,1.4,0.6,2.1,0.8c1,0.3,2,0.6,3,1
		c2.9,1.1,3.9,2.6,3.8,5.7c-0.1,1.7-0.6,3.1-1.9,4.2c-1,0.8-2.1,1.2-3.3,1.4C138.1,130.7,137.5,130.8,136.9,130.8z"/>
	<path class="st0" d="M6.2,130.4c-1.8,0-3.6,0-5.3,0c-0.9,0-0.9,0-0.9-0.9c0-0.9,0-1.8,0.1-2.7c0.1-1.5,0.6-2.8,1.7-3.9
		c1-1.1,2.2-2,3.4-3c0.8-0.6,1.5-1.2,2.2-1.9c0.7-0.7,1.1-1.5,0.9-2.6c-0.1-0.8-0.4-1.3-1.2-1.6c-0.4-0.1-0.8-0.2-1.2-0.3
		c-1.5-0.1-2.9,0-4.4,0.3c-0.9,0.2-0.9,0.1-1.1-0.8c-0.1-0.7-0.2-1.4-0.3-2.1c-0.1-0.5,0.1-0.6,0.5-0.7c0.9-0.2,1.8-0.4,2.8-0.5
		c1-0.1,2-0.2,3-0.2c0.8,0,1.7,0.2,2.5,0.4c2,0.7,3,2.1,3.2,4.1c0.3,2.6-0.7,4.7-2.4,6.6c-0.9,1-2,1.8-3.1,2.6
		c-0.3,0.2-0.6,0.5-0.9,0.7c-0.4,0.4-0.7,0.8-1,1.3c-0.5,1.1-0.4,1.2,0.8,1.2c2.1,0,4.3,0,6.4,0c0.6,0,0.6,0,0.6,0.6
		c0,0.8,0,1.6,0,2.4c0,0.7,0,0.7-0.7,0.7C9.9,130.4,8.1,130.4,6.2,130.4z"/>
	<path class="st1" d="M82.3,120.4c0-3.1,0-6.1,0-9.2c0-0.2,0-0.4,0-0.5c0-0.2,0.1-0.4,0.3-0.4c1,0,2.1,0,3.1,0
		c0.2,0,0.3,0.1,0.3,0.3c0,0.2,0,0.3,0,0.5c0,6.2,0,12.4,0,18.6c0,0.9,0.1,0.8-0.9,0.8c-0.8,0-1.5,0-2.3,0c-0.6,0-0.6,0-0.6-0.6
		C82.3,126.7,82.3,123.5,82.3,120.4z"/>
	<path class="st2" d="M93.5,2.7c-8,1.1-15.3,3.6-21.2,9.3c-0.1-0.1,0-0.1,0-0.2c1.6-2.9,3.6-5.4,6.3-7.3c3-2.1,6.4-3.1,10.1-2.9
		c1.5,0.1,2.9,0.4,4.3,0.8C93.2,2.5,93.3,2.6,93.5,2.7C93.5,2.7,93.5,2.7,93.5,2.7z"/>
	<path class="st2" d="M61.1,14.7c0.8-3.5,2.2-6.8,4.7-9.4c2.4-2.5,5.3-4,8.7-4.6c1.1-0.2,2.1-0.3,3.2-0.2c0.2,0,0.4,0,0.5,0.1
		C71.2,3.6,65.1,7.9,61.1,14.7z"/>
	<path class="st2" d="M64.4,1.7c-2.9,2.2-5.4,4.7-7.6,7.6c-2.2,2.9-3.9,6-4.8,9.6c-0.2-1.1,0-2.1,0.1-3.1c0.2-2.5,0.9-4.8,2.2-7
		C56.5,4.8,60,2.6,64.4,1.7z"/>
	<path class="st2" d="M50.7,7.8c0,0.2-0.2,0.3-0.3,0.4c-3.1,4.3-5.2,9-6.1,14.2c-0.2,1.3-0.3,2.7-0.2,4C44,26.5,44,26.4,44,26.3
		c-1-3.4-1.4-6.9-0.3-10.4c1.1-3.5,3.4-6.1,6.5-8C50.4,7.9,50.5,7.8,50.7,7.8C50.7,7.8,50.7,7.8,50.7,7.8z"/>
	<path class="st2" d="M39.2,17.7c-0.9,3-1.4,6.1-1.4,9.3c0,3.1,0.3,6.2,1.5,9.2c-1.5-1-3.5-5.7-3.7-8.5
		C35.3,23.6,37.1,19.6,39.2,17.7z"/>
	<path class="st2" d="M36.7,47.3c-3.3-2.4-5.5-5.5-6-9.6c-0.3-2.2,0.1-4.3,0.9-6.4c0.1-0.2,0.1-0.5,0.4-0.7c0,0.8,0,1.6,0,2.3
		c0.2,4.1,1.2,8.1,3.1,11.8c0.5,0.9,1.1,1.7,1.6,2.6C36.7,47.3,36.7,47.3,36.7,47.3z"/>
	<path class="st2" d="M39,58.9c-6.1-1-10.9-7.3-9.9-13C31.2,51.1,34.1,55.7,39,58.9z"/>
	<path class="st2" d="M106.3,51.7c0.9-1.5,1.7-3.1,2.3-4.8c1.3-3.4,2-6.9,1.6-10.6c0.3-0.1,0.2,0.2,0.3,0.3c1,2.5,1.4,5.1,0.9,7.8
		c-0.6,3.1-2.3,5.4-4.8,7.2C106.5,51.7,106.4,51.7,106.3,51.7C106.3,51.7,106.3,51.7,106.3,51.7z"/>
	<path class="st2" d="M113.9,48.8c0.1,2.7-0.4,5.2-1.8,7.5c-1.6,2.5-3.8,4-6.6,4.7c-0.1,0-0.2,0-0.4,0
		C109.2,57.7,112.4,53.8,113.9,48.8z"/>
	<path class="st2" d="M60,88.2c-1.4-1.2-2.4-2.6-2.9-4.3c-0.3-0.8-0.3-0.8-1.1-0.7c-2.4,0.3-4.6-0.2-6.7-1.1c-0.1,0-0.2-0.1-0.2-0.2
		c0.8,0,1.6,0,2.3,0c0.8,0,1.6-0.1,2.4-0.1c1.3-0.1,2.6-0.3,3.9-0.7c0.5-0.1,0.5-0.1,0.6,0.4c0.2,1.2,0.3,2.4,0.6,3.5
		C59.1,86.1,59.6,87.1,60,88.2L60,88.2z"/>
	<path class="st2" d="M41.7,67.7c-6.1,0.6-10.9-3.1-11.8-8.2c1.5,2,3.3,3.7,5.2,5.1C37.1,66,39.3,67.1,41.7,67.7z"/>
	<path class="st2" d="M103,68.5c4.4-2.1,8.1-5,10.6-9.3c-0.9,3.9-2.7,7.2-6.7,8.7C105.7,68.4,104.4,68.6,103,68.5z"/>
	<path class="st2" d="M99.1,75.2c4.8-0.8,9.1-2.5,12.7-6C109.4,74.6,104.1,76.9,99.1,75.2z"/>
	<path class="st2" d="M106.1,78.4c-3.7,4.4-9.1,5-13.2,2.3C97.6,81.1,102,80.7,106.1,78.4z"/>
	<path class="st2" d="M85.4,84c0.3-0.1,0.4,0.1,0.6,0.1c3.2,1.4,6.6,2,10.1,1.8c0.6,0,1.2-0.1,1.7-0.2c0.2,0,0.4-0.1,0.7-0.1
		c0,0.2-0.2,0.2-0.3,0.3c-1.9,1-3.9,1.6-6,1.5c-2.7-0.2-4.9-1.3-6.7-3.3C85.5,84.2,85.5,84.1,85.4,84L85.4,84z"/>
	<path class="st2" d="M89.1,90.9c-1.6,0.3-3.3,0.3-4.9-0.1c-2.9-0.8-4.8-2.7-6-5.4c0,0,0-0.1,0-0.2c0.2,0.1,0.4,0.3,0.6,0.5
		c2.6,2.2,5.4,3.9,8.8,4.7c0.5,0.1,1,0.2,1.6,0.3C89.1,90.7,89.1,90.8,89.1,90.9z"/>
	<path class="st2" d="M35,70.6c0.2,0,0.3,0.1,0.5,0.2c2.5,1.7,5.3,3,8.3,3.5c1,0.2,2,0.3,3.1,0.1c-0.6,0.4-1.3,0.5-1.9,0.6
		c-1.5,0.3-3.1,0.4-4.6-0.1C38,74.3,36.2,72.9,35,70.6L35,70.6z"/>
	<path class="st2" d="M79.5,92.5c-5.3,0-8.1-3.7-8.4-7.3c1.1,1.7,2.3,3.1,3.7,4.3C76.2,90.8,77.7,91.8,79.5,92.5z"/>
	<path class="st2" d="M64.6,82.4c1,3.5,2.4,6.5,5.2,8.9C66.1,90.3,63.9,86.4,64.6,82.4z"/>
	<path class="st3" d="M32.4,47.6c-0.2,0.1-0.2,0.2-0.2,0.3c-0.3-0.3-0.4-0.7-0.5-1.3C32.1,47,32.3,47.3,32.4,47.6z"/>
	<path class="st3" d="M48.4,19.6c0-0.3,0-0.6-0.1-0.8c0-0.3,0.2-0.5,0.4-0.9C48.7,18.6,48.6,19.1,48.4,19.6z"/>
	<path class="st3" d="M58,13.5c0-0.1,0-0.3-0.2-0.3c0.1-0.3,0.3-0.5,0.6-0.7C58.4,12.9,58.2,13.2,58,13.5z"/>
	<path class="st3" d="M68.9,10.3c-0.1-0.1-0.1-0.1-0.2-0.2c0.1-0.2,0.3-0.4,0.6-0.5l0,0C69.3,10,69.1,10.1,68.9,10.3z"/>
	<path class="st3" d="M107.1,42.7c-0.1-0.1-0.1-0.1-0.2-0.2c0-0.2,0.1-0.4,0.2-0.8C107.2,42.2,107.3,42.5,107.1,42.7z"/>
	<path class="st3" d="M89.1,90.9c0-0.1,0-0.2,0-0.3c0.2,0,0.4,0,0.7,0C89.5,90.8,89.3,90.9,89.1,90.9z"/>
	<path class="st0" d="M109.5,60.4c0.1-0.2,0.2-0.3,0.4-0.4c0,0.2-0.2,0.4-0.3,0.5C109.6,60.5,109.5,60.4,109.5,60.4z"/>
	<path class="st0" d="M32,58.7c-0.1-0.1-0.3-0.2-0.5-0.4c0.4-0.1,0.5,0.1,0.6,0.3C32.1,58.6,32.1,58.6,32,58.7z"/>
	<path class="st3" d="M69.3,9.7C69.3,9.6,69.3,9.6,69.3,9.7C69.4,9.6,69.4,9.7,69.3,9.7C69.3,9.7,69.3,9.7,69.3,9.7z"/>
	<path class="st2" d="M50.6,7.8c0-0.1,0.1-0.1,0.2,0C50.8,7.8,50.7,7.8,50.6,7.8C50.7,7.8,50.7,7.8,50.6,7.8z"/>
	<path class="st2" d="M60,88.1c0.1,0,0.1,0.1,0.1,0.1C60,88.3,60,88.2,60,88.1C60,88.2,60,88.1,60,88.1z"/>
	<path class="st2" d="M85.4,84C85.4,84,85.4,84,85.4,84C85.4,84,85.4,83.9,85.4,84C85.5,84,85.5,84,85.4,84C85.4,84,85.4,84,85.4,84
		z"/>
	<path class="st0" d="M42.9,77.2C42.9,77.2,42.9,77.1,42.9,77.2C42.9,77.1,42.9,77.1,42.9,77.2C42.9,77.1,42.9,77.2,42.9,77.2
		C42.9,77.2,42.9,77.2,42.9,77.2z"/>
	<path class="st0" d="M103.7,76.9C103.7,76.9,103.7,76.8,103.7,76.9C103.7,76.8,103.7,76.9,103.7,76.9
		C103.7,76.9,103.7,76.9,103.7,76.9z"/>
	<polygon class="st2" points="35,70.6 35,70.6 35,70.6 	"/>
	<path class="st2" d="M106.3,51.7c0,0.1-0.1,0.1-0.1,0.1C106.1,51.8,106.2,51.7,106.3,51.7C106.3,51.7,106.3,51.7,106.3,51.7z"/>
	<polygon class="st2" points="37,47.6 37,47.6 37,47.6 	"/>
	<path class="st2" d="M37,47.6c0-0.1-0.1-0.1-0.1-0.2l0,0C37,47.4,37,47.5,37,47.6C37,47.6,37,47.6,37,47.6z"/>
	<path class="st2" d="M36.8,47.5c-0.1,0-0.1,0-0.2-0.1c0,0,0.1-0.1,0.1-0.1C36.8,47.3,36.9,47.4,36.8,47.5
		C36.8,47.5,36.8,47.5,36.8,47.5z"/>
	<polygon class="st2" points="39.3,36.4 39.3,36.4 39.4,36.4 	"/>
	<path class="st4" d="M52.1,52.4c0.1,0,0.2,0,0.2,0.1C52.2,52.7,52.1,52.6,52.1,52.4C52.1,52.5,52.1,52.5,52.1,52.4z"/>
	<path class="st4" d="M53,46.7c0.1-0.1,0.1,0,0.2,0c0,0,0,0.1,0,0.1C53.1,46.8,53,46.8,53,46.7C53,46.7,53,46.7,53,46.7z"/>
	<path class="st4" d="M55.3,41c0.1,0.1,0.2,0.2,0.1,0.3c-0.1,0-0.1-0.1-0.2-0.2C55.2,41.1,55.3,41.1,55.3,41z"/>
	<path class="st4" d="M76.7,74.7C76.7,74.7,76.7,74.7,76.7,74.7C76.7,74.7,76.6,74.7,76.7,74.7C76.6,74.6,76.7,74.6,76.7,74.7
		C76.7,74.6,76.7,74.6,76.7,74.7z"/>
	<path class="st4" d="M52.9,46.5c0.1,0.1,0.2,0.1,0,0.2c0,0,0,0,0,0c-0.1,0-0.2,0-0.2-0.1C52.8,46.5,52.9,46.5,52.9,46.5z"/>
</g>
</svg>
