<?xml version="1.0" encoding="utf-8"?>
<!-- Generator: Adobe Illustrator 22.0.1, SVG Export Plug-In . SVG Version: 6.00 Build 0)  -->
<svg version="1.1" id="Layer_1" xmlns="http://www.w3.org/2000/svg" xmlns:xlink="http://www.w3.org/1999/xlink" x="0px" y="0px"
	 viewBox="0 0 180 72" style="enable-background:new 0 0 180 72;" xml:space="preserve">
<style type="text/css">
	.st0{fill:#2F2113;}
	.st1{fill:#9B8352;}
	.st2{fill:#2F2214;}
	.st3{fill:#B8B6B4;}
	.st4{fill:#B8B6B5;}
	.st5{fill:#B8B6B6;}
	.st6{fill:#9B8351;}
	.st7{fill:#C3B598;}
</style>
<g>
	<path class="st0" d="M178.4,69.6c-1.5-6.4-3-12.8-4.5-19.2c-0.2-0.6-0.4-0.9-1.1-0.9c-1.8,0.1-3.7,0-5.5,0c-0.5,0-0.8,0.1-0.9,0.7
		c-0.5,2.3-1.1,4.6-1.7,7c-1,4.2-2,8.4-3,12.5c-0.1,0.5,0,0.7,0.5,0.6c0.9,0,1.7,0,2.6,0c0.4,0,0.6-0.1,0.7-0.5
		c0.2-1,0.5-1.9,0.7-2.9c0.1-0.5,0.3-0.6,0.7-0.6c2,0,4.1,0,6.1,0c0.6,0,0.7,0.2,0.9,0.7c0.2,1,0.5,1.9,0.8,2.9
		c0.1,0.3,0.2,0.5,0.5,0.5c1.1,0,2.3,0.1,3.4-0.1v-0.3C178.4,69.8,178.5,69.7,178.4,69.6z M172.4,62.6c-0.8,0-1.6,0-2.4,0
		c-0.8,0-1.6,0-2.4,0c-0.4,0-0.5-0.1-0.4-0.5c0.7-2.9,1.4-5.8,2.1-8.8c0.1-0.5,0.4-0.4,0.8-0.5c0.4,0,0.6,0.1,0.7,0.5
		c0.7,2.9,1.3,5.8,2,8.7C172.9,62.5,172.8,62.6,172.4,62.6z"/>
	<path class="st1" d="M54.5,65.3c-6.1,0.3-10.9-2.1-14.6-6.8c1.6,4.7,4.7,8,9.3,9.9c0,0.1,0,0.2-0.2,0.2c-5.1-0.9-8.9-3.7-11.4-8.2
		c-0.2-0.3-0.4-0.7-0.5-1.1c-0.1,0-0.1-0.2-0.2,0c-0.1,0.2-0.1,0.5,0,0.7c0.4,4.3,2.6,7.6,6,10.3c-2.9-0.8-7.8-4.8-9.4-11.2
		c-0.2,1-0.3,2-0.3,3c0.2,2.9,1.4,5.3,3.1,7.6c-0.1,0.1-0.2,0.1-0.3,0c-3.1-2.6-4.9-6-5.6-10.2c-0.5,1-0.7,2-0.7,2.9
		c-0.1,1,0,2,0.2,3c0.2,0.9,0.5,1.9,0.7,2.8c-1.6-2.3-2.4-4.9-2.7-7.7c-4.3,1.5-8.7,1.6-13,0c2.2,0.2,4.4,0.2,6.5-0.3
		c2.2-0.5,4.1-1.4,5.9-2.7c-6.4,1.8-12.4,0.9-17.9-3c5.3,2,10.5,2.1,15.6-0.2c0.1-0.1,0.1-0.1,0.2-0.1c0.1,0,0.1-0.1,0.2-0.1
		c-0.1,0.1-0.3,0-0.5,0c-5.2,0.6-10-0.5-14.3-3.4c-1.5-1-2.8-2.1-3.9-3.5C6.8,47,6.9,47,7,47c2.5,1.7,5.1,3.1,8.1,3.6
		c2.6,0.5,5.2,0.4,7.8-0.1c0.2-0.1,0.3-0.1,0.5-0.2c0.1,0,0-0.1,0,0c0,0-0.1,0.1-0.1,0.1c-0.1,0-0.2,0-0.2-0.1
		c-7.5-0.9-13-4.7-16.4-11.5c-0.1-0.2,0-0.2,0.2-0.2c3,3.8,6.8,6.3,11.5,7.4c1.2,0.3,2.4,0.5,3.8,0.4c-0.4-0.2-0.7-0.3-0.9-0.4
		c-6.8-2.8-11-7.9-12.6-15.1c0-0.1,0-0.3,0-0.4c-0.1-0.1-0.2-0.3,0.1-0.3c2.4,5.8,6.5,9.7,12.4,11.6c-6.2-4.9-9.1-11.3-8.5-19.2
		c0.9,6.4,3.9,11.4,9.3,15c0.2-0.3-0.1-0.4-0.2-0.6c-4.7-6.2-5.8-13-3.3-20.3c0-0.1,0.1-0.1,0.2,0c-0.4,3-0.3,6,0.6,9
		c0.9,3,2.4,5.6,4.6,7.8c-3.1-7.3-2.6-14.2,1.8-20.8c-2.2,5.9-2.1,11.6,0.8,17.3c0.2,0,0.2,0,0.1-0.3c-0.6-4.1-0.2-8,1.4-11.8
		c1.3-2.9,3.1-5.4,5.6-7.4c-3.7,5.2-5,10.8-3.6,17.1c0.9-7.9,4.8-13.7,12-17.3c0.1,0.4-0.1,0.4-0.3,0.5c-5.4,4.5-8,10.2-7.6,17.2
		c0,0.7-0.2,1.2-0.7,1.7c-3,3.2-4.6,7-4.2,11.4c0.1,1,0.4,1.9,1.3,2.5c0.6,0.5,1.3,0.6,2,0.2c0.7-0.4,1.1-0.9,1.1-1.7
		c0-2.1,1.2-3.6,3.1-4c0.9-0.2,1.7,0.2,2.5,0.4c0.3,0.1,0.6,0.2,0.9,0.4c1.2,0.9,2.6,1,4,0.9c1.3,0,2.7,0,4,0c0,0.1,0,0.1,0,0.2
		c-0.8,0.3-1.7,0.6-2.5,0.9c-1.8,0.7-3.6,1.2-5.1,2.4c-1.7,1.2-2.4,2.8-2.3,4.9c0.2,2.7-0.5,5.1-2.3,7.1c-0.4,0.5-0.9,0.9-1.5,1.3
		c1.9-0.1,4.6-3,5.2-5.7c1.8,1,3.4,0.4,5-0.5c2.1-1.2,3.8-2.8,5.2-4.8c0.3-0.4,0.7-0.6,1.2-0.8c5.6-1.3,9.3-4.7,11.4-10
		c0.1-0.1,0.2,0,0.2,0.1c-1,5.8-4.2,10-9.5,12.5c-0.3,0.1-0.6,0.1-0.8,0.5c5.1-0.4,9-2.6,12.1-6.5c-1.1,2.8-2.9,5-5.3,6.7
		c-2.4,1.7-5.1,2.7-8.3,3c2.6,0.6,4.9,0.6,7.2,0c2.3-0.5,4.4-1.6,6.3-2.9c-1.8,2.3-4.1,4-6.8,5c-2.7,1-5.6,1.2-8.4,0.8
		c4.5,2.3,9.1,2.4,13.8,0.5c-1.1,1-2.3,1.6-3.6,2.1c-1.4,0.6-2.8,0.9-4.2,1c-1.4,0.1-2.9,0.1-4.3-0.1c-1.4-0.2-2.7-0.7-4.1-1.1
		c1.7,1.6,3.6,2.7,5.8,3.4c2.4,0.7,4.8,0.8,7.2,0.5c0,0,0.1,0.1,0,0.1c0,0,0,0.1-0.1,0.1c-5.8,2.1-11.1,1.2-16.1-2.5
		c0.9,3,6.8,6.7,11.2,7.1C54.9,65.4,54.6,65.2,54.5,65.3z"/>
	<path class="st1" d="M127.6,23.5c-0.4-0.3-0.7-0.6-1.1-0.9c0.1-0.1,0.2-0.2,0.2-0.2c2.8-1.8,3.9-4.4,3.8-7.7
		c-0.1-4.3-1.9-7.3-5.9-8.9c-4.4-1.7-8.9-1.7-13.4-0.1c-2.4,0.9-4.2,2.5-5.2,4.9c-1.2,3.2-1.3,8.6,2.9,11.6c0.4,0.3,0.4,0.4,0,0.7
		c-3.2,2.3-4.3,5.6-4.2,9.4c0.2,4.4,2.3,7.3,6.5,8.6c3.3,1,6.8,1.1,10.2,0.6c5-0.7,9.3-3.3,9.6-9.7
		C131.3,28.6,130.4,25.7,127.6,23.5z M116.3,11.3c1.2-0.1,2.3-0.1,3.5,0c3.4,0.4,5,3.7,3.1,6.6c-1.1,1.7-2.5,2.4-5.2,2.4
		c-2,0.3-3.6-0.7-4.7-2.6C111.4,14.7,113,11.7,116.3,11.3z M124.1,31.5c-0.1,1.8-1.2,3-3,3.5c-1.8,0.5-3.6,0.5-5.5,0.1
		c-1.6-0.3-3-1-3.5-2.8c-0.5-2,0-3.7,1.5-5.1c1.3-1.3,2.8-1.7,4.4-1.4c1.6-0.1,2.9-0.1,4.1,1C123.5,28,124.2,29.5,124.1,31.5z"/>
	<path class="st1" d="M88.3,41.3c-3.4,0-6.9,0-10.3,0c-0.6,0-0.8-0.1-0.8-0.7c0.1-2.4-0.1-4.8,0.3-7.2c0.4-2.1,1.4-3.7,2.8-5.2
		c2-2.3,4.5-4.1,6.8-6c1.2-0.9,2.3-1.9,3.3-3c1.2-1.4,1.9-2.9,1.5-4.8c-0.3-1.2-0.9-1.9-2-2.4c-1.1-0.4-2.2-0.5-3.3-0.6
		c-2.5,0-5,0.2-7.5,0.7c-0.7,0.1-0.9,0-1-0.7c-0.2-1.5-0.5-3-0.8-4.5c-0.1-0.5,0-0.8,0.6-1c3.9-0.8,7.7-1.5,11.7-1.2
		C90.8,4.8,92,5,93.1,5.4c3.5,1.3,5.2,3.9,5.6,7.5c0.6,5.4-2.1,9.3-5.8,12.7c-1.4,1.3-3,2.4-4.5,3.5c-1.2,0.9-2.3,1.9-3,3.3
		c0,0.1-0.1,0.2-0.1,0.3c-0.7,1.6-0.5,1.9,1.2,1.9c4.1,0,8.1,0,12.2,0c0.6,0,0.8,0.1,0.8,0.8c-0.1,1.7,0,3.4,0,5.1
		c0,0.6-0.1,0.8-0.8,0.8C95.2,41.3,91.8,41.3,88.3,41.3z"/>
	<path class="st2" d="M145.1,59.8c0-3.2,0-6.4,0-9.6c0-0.6,0.1-0.8,0.7-0.8c3.9,0,7.8,0,11.8,0c0.6,0,0.8,0.2,0.7,0.8
		c0,0.7,0,1.4,0,2.1c0,0.6-0.1,0.7-0.7,0.7c-2.7,0-5.4,0-8,0c-0.6,0-0.8,0.1-0.8,0.8c0.1,1.2,0,2.5,0,3.7c0,0.6,0.2,0.7,0.7,0.7
		c2.1,0,4.2,0,6.2,0c0.6,0,0.8,0.1,0.7,0.7c-0.1,0.7,0,1.5,0,2.2c0,0.5-0.2,0.6-0.7,0.6c-2.1,0-4.2,0-6.2,0c-0.7,0-0.8,0.2-0.8,0.8
		c0,1.2,0,2.3,0,3.5c0,0.6,0.1,0.7,0.7,0.7c2.6,0,5.3,0,7.9,0c0.7,0,0.9,0.2,0.8,0.9c-0.1,0.7,0,1.5,0,2.2c0,0.4-0.1,0.6-0.6,0.6
		c-4,0-8.1,0-12.1,0c-0.6,0-0.6-0.3-0.6-0.7C145.1,66.3,145.1,63.1,145.1,59.8z"/>
	<path class="st0" d="M105.3,59.5c0-3.2,0-6.4,0-9.6c0-0.5,0.1-0.7,0.7-0.7c3.9,0,7.9,0,11.8,0c0.5,0,0.7,0.1,0.7,0.7
		c-0.1,0.7-0.1,1.5,0,2.2c0,0.6-0.1,0.8-0.7,0.8c-2.7,0-5.3,0-8,0c-0.6,0-0.7,0.2-0.7,0.7c0,1.3,0,2.6,0,3.9c0,0.5,0.1,0.6,0.6,0.6
		c2.1,0,4.3,0,6.4,0c0.5,0,0.7,0.1,0.7,0.7c0,0.8,0,1.5,0,2.3c0,0.5-0.1,0.6-0.6,0.6c-2.1,0-4.3,0-6.4,0c-0.5,0-0.7,0.1-0.7,0.7
		c0,1.2,0,2.4,0,3.6c0,0.6,0.1,0.7,0.7,0.7c2.7,0,5.3,0,8,0c0.5,0,0.8,0.1,0.7,0.7c-0.1,0.8-0.1,1.5,0,2.3c0,0.6-0.2,0.6-0.7,0.6
		c-3.9,0-7.9,0-11.8,0c-0.5,0-0.7-0.2-0.7-0.7C105.3,66,105.3,62.8,105.3,59.5z"/>
	<path class="st0" d="M90.9,59.6c0,1.3,0,2.6,0.3,3.8c0.5,2.3,1.5,3.2,3.9,3.2c1.6,0,3.3-0.2,4.9-0.4c0.6-0.1,0.8,0,0.8,0.7
		c0,0.7,0,1.4,0,2c0,0.5-0.1,0.7-0.6,0.8c-2.5,0.4-4.9,0.8-7.5,0.5c-2.8-0.4-4.5-2.1-5.1-4.8c-0.9-3.9-0.9-7.8,0.1-11.7
		c0.8-3,2.7-4.5,6-4.8c2.3-0.2,4.5,0.2,6.7,0.7c0.4,0.1,0.5,0.3,0.4,0.6c0,0.7-0.1,1.5,0,2.2c0,0.5-0.2,0.6-0.6,0.5
		c-1.5-0.2-2.9-0.4-4.4-0.4c-0.6,0-1.2,0-1.8,0.1c-1.7,0.3-2.6,1.5-2.9,3.7C90.9,57.4,90.8,58.5,90.9,59.6z"/>
	<path class="st0" d="M136.1,61.7c0,2.6,0,5.2,0,7.9c0,0.6-0.1,0.8-0.7,0.7c-0.7-0.1-1.5-0.1-2.2,0c-0.7,0.1-0.9-0.1-0.9-0.9
		c0-5.2,0-10.3,0-15.5c0-0.8-0.2-1-0.9-0.9c-1.4,0.1-2.8,0-4.2,0c-0.5,0-0.7-0.1-0.7-0.6c0-0.8,0-1.6,0-2.4c0-0.4,0.1-0.6,0.5-0.6
		c4.7,0,9.5,0,14.2,0c0.4,0,0.5,0.1,0.5,0.5c0,0.9,0,1.7,0,2.6c0,0.4-0.1,0.5-0.6,0.5c-1.4,0-2.7,0-4.1,0c-1.1,0-1.1,0-1.1,1.1
		C136.1,56.7,136.1,59.2,136.1,61.7z"/>
	<path class="st2" d="M77.4,59.5c0-3.2,0-6.5,0-9.7c0-0.5,0.1-0.7,0.7-0.7c0.8,0,1.6,0.1,2.4,0c0.6,0,0.8,0.2,0.8,0.8
		c0,5.4,0,10.8,0,16.1c0,1.1,0,2.3,0,3.4c0,0.4-0.1,0.6-0.6,0.6c-0.9,0-1.8,0-2.7,0c-0.5,0-0.6-0.2-0.6-0.7
		C77.4,66.1,77.4,62.8,77.4,59.5z"/>
	<path class="st3" d="M52.2,4.6C49.4,5,46.6,5.7,44,6.8c-2.7,1.1-5.1,2.6-7.2,4.7C39.9,5.1,46.4,2.4,52.2,4.6z"/>
	<path class="st4" d="M28.4,13C30,6.2,35.3,2.5,41,3c-5.1,2.3-9.5,5.3-12.4,10.1C28.4,13.2,28.4,13.1,28.4,13z"/>
	<path class="st4" d="M30.5,3.9c-4.3,3.4-7.6,7.4-9.1,12.7C21.1,10.1,24.8,4.9,30.5,3.9z"/>
	<path class="st4" d="M15.4,22.2c-1.9-4.6-0.6-11.1,4.9-13.8C17.4,12.7,15.4,17.1,15.4,22.2z"/>
	<path class="st4" d="M11.5,29.2c-3.4-4.1-3.2-10,0.2-13.2c-0.7,2.3-1,4.5-1,6.7C10.6,24.9,10.9,27.1,11.5,29.2z"/>
	<path class="st4" d="M6.3,25.5c0,4.5,0.9,8.7,3.4,12.3C6.1,35.6,3.9,30.5,6.3,25.5z"/>
	<path class="st4" d="M4.2,37.1c1.6,3.8,3.6,7,7,9.4C7.1,45.7,3.7,41.9,4.2,37.1z"/>
	<path class="st4" d="M65.6,30.2c0.8,2.5,1.1,4.9,0,7.4c-0.7,1.5-1.7,2.8-3.2,3.6c1.8-3.2,2.9-6.6,3-10.3
		C65.4,30.7,65.1,30.4,65.6,30.2z"/>
	<path class="st4" d="M67.9,39.4c0.3,4.5-2.6,8.2-6.3,8.7c1.4-1.3,2.7-2.5,3.8-3.9C66.5,42.7,67.4,41.2,67.9,39.4z"/>
	<path class="st4" d="M13.3,53.3c-4.2,0.3-7.5-2-8.5-5.9C6.2,48.7,7.3,50,8.7,51C10.2,52,11.7,52.8,13.3,53.3z"/>
	<path class="st4" d="M27,68.3c-0.8-0.8-1.5-1.8-1.8-2.9c-0.2-0.5-0.5-0.5-0.9-0.5c-1.7,0.1-3.4-0.1-5-0.8c0,0-0.1-0.1-0.2-0.1
		c1.6-0.1,3.2,0.1,4.8-0.2c0.5-0.1,1-0.2,1.5-0.3c0.4-0.1,0.5-0.1,0.6,0.4c0.2,1.5,0.5,2.9,1.1,4.3C27.2,68.3,27.1,68.3,27,68.3z"/>
	<path class="st4" d="M59.7,53.9c3.3-1.5,5.9-3.6,7.8-6.5C67.1,51,64,54.1,59.7,53.9z"/>
	<path class="st4" d="M66.2,54.8c-1.5,3.6-5.7,5.5-9.2,4.1c1.8-0.3,3.3-0.7,4.9-1.4C63.5,56.9,64.9,56,66.2,54.8z"/>
	<path class="st4" d="M61.8,61.8c-1.2,1.1-2.5,2-4.1,2.4c-1.9,0.4-3.7,0.1-5.6-1.1c3.4,0.4,6.5,0,9.5-1.5
		C61.8,61.6,61.9,61.6,61.8,61.8z"/>
	<path class="st4" d="M56.1,67.1c-1.9,0.9-3.8,1.3-5.9,0.8c-1.4-0.4-2.7-1.1-3.7-2.4c3.1,1.3,6.1,1.9,9.3,1.5
		C56,66.9,56.1,66.8,56.1,67.1z"/>
	<path class="st4" d="M9,55.8c1.9,1.2,3.9,2.1,6.1,2.5c0.7,0.1,1.4,0,2.1,0.1c-2.3,1.3-6.4,0.7-8.4-2.5C8.8,55.8,8.8,55.7,9,55.8z"
		/>
	<path class="st4" d="M41.2,66.6c1.3,1.1,2.5,2,3.9,2.6c1.4,0.7,2.8,1.1,4.5,1.4C45.4,71.2,42.4,69.7,41.2,66.6z"/>
	<path class="st4" d="M36.1,67c1.5,2,3.2,3.7,5.5,4.7c0,0.3-0.2,0.2-0.3,0.2c-2.7-0.2-4.9-2.2-5.3-4.7C35.8,67,35.9,66.9,36.1,67z"
		/>
	<path class="st5" d="M34.1,70.7c-2.2-0.9-3.8-3.6-3.1-6.1c0.7,2.3,1.7,4.3,3.3,6C34.3,70.7,34.3,70.8,34.1,70.7z"/>
	<path class="st6" d="M7,47c-0.1,0.1-0.1,0.1-0.2,0.2c-0.2-0.1-0.3-0.2-0.3-0.5C6.8,46.7,6.9,46.9,7,47z"/>
	<path class="st7" d="M18.6,16.7c0.1-0.2,0.1-0.4,0.2-0.6"/>
</g>
</svg>
