<?xml version="1.0" encoding="utf-8"?>
<!-- Generator: Adobe Illustrator 22.0.1, SVG Export Plug-In . SVG Version: 6.00 Build 0)  -->
<svg version="1.1" id="Layer_1" xmlns="http://www.w3.org/2000/svg" xmlns:xlink="http://www.w3.org/1999/xlink" x="0px" y="0px"
	 viewBox="0 0 180 180" style="enable-background:new 0 0 180 180;" xml:space="preserve">
<style type="text/css">
	.st0{fill:#FFFFFF;}
	.st1{fill:#9B8352;}
	.st2{fill:#B8B6B4;}
	.st3{fill:#B8B6B5;}
	.st4{fill:#B8B6B6;}
	.st5{fill:#9B8351;}
	.st6{fill:#C3B598;}
</style>
<g>
	<path class="st0" d="M178.4,129.6c-1.5-6.4-3-12.8-4.5-19.2c-0.2-0.6-0.4-0.9-1.1-0.9c-1.8,0.1-3.7,0-5.5,0c-0.5,0-0.8,0.1-0.9,0.7
		c-0.5,2.3-1.1,4.6-1.7,7c-1,4.2-2,8.4-3,12.5c-0.1,0.5,0,0.7,0.5,0.6c0.9,0,1.7,0,2.6,0c0.4,0,0.6-0.1,0.7-0.5
		c0.2-1,0.5-1.9,0.7-2.9c0.1-0.5,0.3-0.6,0.7-0.6c2,0,4.1,0,6.1,0c0.6,0,0.7,0.2,0.9,0.7c0.2,1,0.5,1.9,0.8,2.9
		c0.1,0.3,0.2,0.5,0.5,0.5c1.1,0,2.3,0.1,3.4-0.1V130C178.4,129.8,178.5,129.7,178.4,129.6z M172.4,122.6c-0.8,0-1.6,0-2.4,0
		c-0.8,0-1.6,0-2.4,0c-0.4,0-0.5-0.1-0.4-0.5c0.7-2.9,1.4-5.8,2.1-8.8c0.1-0.5,0.4-0.4,0.8-0.5c0.4,0,0.6,0.1,0.7,0.5
		c0.7,2.9,1.3,5.8,2,8.7C172.9,122.5,172.8,122.6,172.4,122.6z"/>
	<path class="st1" d="M54.5,125.3c-6.1,0.3-10.9-2.1-14.6-6.8c1.6,4.7,4.7,8,9.3,9.9c0,0.1,0,0.2-0.2,0.2c-5.1-0.9-8.9-3.7-11.4-8.2
		c-0.2-0.3-0.4-0.7-0.5-1.1c-0.1,0-0.1-0.2-0.2,0c-0.1,0.2-0.1,0.5,0,0.7c0.4,4.3,2.6,7.6,6,10.3c-2.9-0.8-7.8-4.8-9.4-11.2
		c-0.2,1-0.3,2-0.3,3c0.2,2.9,1.4,5.3,3.1,7.6c-0.1,0.1-0.2,0.1-0.3,0c-3.1-2.6-4.9-6-5.6-10.2c-0.5,1-0.7,2-0.7,2.9
		c-0.1,1,0,2,0.2,3c0.2,0.9,0.5,1.9,0.7,2.8c-1.6-2.3-2.4-4.9-2.7-7.7c-4.3,1.5-8.7,1.6-13,0c2.2,0.2,4.4,0.2,6.5-0.3
		c2.2-0.5,4.1-1.4,5.9-2.7c-6.4,1.8-12.4,0.9-17.9-3c5.3,2,10.5,2.1,15.6-0.2c0.1-0.1,0.1-0.1,0.2-0.1s0.1-0.1,0.2-0.1
		c-0.1,0.1-0.3,0-0.5,0c-5.2,0.6-10-0.5-14.3-3.4c-1.5-1-2.8-2.1-3.9-3.5C6.8,107,6.9,107,7,107c2.5,1.7,5.1,3.1,8.1,3.6
		c2.6,0.5,5.2,0.4,7.8-0.1c0.2-0.1,0.3-0.1,0.5-0.2c0.1,0,0-0.1,0,0l-0.1,0.1c-0.1,0-0.2,0-0.2-0.1c-7.5-0.9-13-4.7-16.4-11.5
		c-0.1-0.2,0-0.2,0.2-0.2c3,3.8,6.8,6.3,11.5,7.4c1.2,0.3,2.4,0.5,3.8,0.4c-0.4-0.2-0.7-0.3-0.9-0.4c-6.8-2.8-11-7.9-12.6-15.1
		c0-0.1,0-0.3,0-0.4c-0.1-0.1-0.2-0.3,0.1-0.3c2.4,5.8,6.5,9.7,12.4,11.6c-6.2-4.9-9.1-11.3-8.5-19.2c0.9,6.4,3.9,11.4,9.3,15
		c0.2-0.3-0.1-0.4-0.2-0.6c-4.7-6.2-5.8-13-3.3-20.3c0-0.1,0.1-0.1,0.2,0c-0.4,3-0.3,6,0.6,9s2.4,5.6,4.6,7.8
		c-3.1-7.3-2.6-14.2,1.8-20.8c-2.2,5.9-2.1,11.6,0.8,17.3c0.2,0,0.2,0,0.1-0.3c-0.6-4.1-0.2-8,1.4-11.8c1.3-2.9,3.1-5.4,5.6-7.4
		c-3.7,5.2-5,10.8-3.6,17.1c0.9-7.9,4.8-13.7,12-17.3c0.1,0.4-0.1,0.4-0.3,0.5c-5.4,4.5-8,10.2-7.6,17.2c0,0.7-0.2,1.2-0.7,1.7
		c-3,3.2-4.6,7-4.2,11.4c0.1,1,0.4,1.9,1.3,2.5c0.6,0.5,1.3,0.6,2,0.2c0.7-0.4,1.1-0.9,1.1-1.7c0-2.1,1.2-3.6,3.1-4
		c0.9-0.2,1.7,0.2,2.5,0.4c0.3,0.1,0.6,0.2,0.9,0.4c1.2,0.9,2.6,1,4,0.9c1.3,0,2.7,0,4,0c0,0.1,0,0.1,0,0.2
		c-0.8,0.3-1.7,0.6-2.5,0.9c-1.8,0.7-3.6,1.2-5.1,2.4c-1.7,1.2-2.4,2.8-2.3,4.9c0.2,2.7-0.5,5.1-2.3,7.1c-0.4,0.5-0.9,0.9-1.5,1.3
		c1.9-0.1,4.6-3,5.2-5.7c1.8,1,3.4,0.4,5-0.5c2.1-1.2,3.8-2.8,5.2-4.8c0.3-0.4,0.7-0.6,1.2-0.8c5.6-1.3,9.3-4.7,11.4-10
		c0.1-0.1,0.2,0,0.2,0.1c-1,5.8-4.2,10-9.5,12.5c-0.3,0.1-0.6,0.1-0.8,0.5c5.1-0.4,9-2.6,12.1-6.5c-1.1,2.8-2.9,5-5.3,6.7
		c-2.4,1.7-5.1,2.7-8.3,3c2.6,0.6,4.9,0.6,7.2,0c2.3-0.5,4.4-1.6,6.3-2.9c-1.8,2.3-4.1,4-6.8,5s-5.6,1.2-8.4,0.8
		c4.5,2.3,9.1,2.4,13.8,0.5c-1.1,1-2.3,1.6-3.6,2.1c-1.4,0.6-2.8,0.9-4.2,1s-2.9,0.1-4.3-0.1c-1.4-0.2-2.7-0.7-4.1-1.1
		c1.7,1.6,3.6,2.7,5.8,3.4c2.4,0.7,4.8,0.8,7.2,0.5c0,0,0.1,0.1,0,0.1c0,0,0,0.1-0.1,0.1c-5.8,2.1-11.1,1.2-16.1-2.5
		c0.9,3,6.8,6.7,11.2,7.1C54.9,125.4,54.6,125.2,54.5,125.3z"/>
	<path class="st1" d="M127.6,83.5c-0.4-0.3-0.7-0.6-1.1-0.9c0.1-0.1,0.2-0.2,0.2-0.2c2.8-1.8,3.9-4.4,3.8-7.7
		c-0.1-4.3-1.9-7.3-5.9-8.9c-4.4-1.7-8.9-1.7-13.4-0.1c-2.4,0.9-4.2,2.5-5.2,4.9c-1.2,3.2-1.3,8.6,2.9,11.6c0.4,0.3,0.4,0.4,0,0.7
		c-3.2,2.3-4.3,5.6-4.2,9.4c0.2,4.4,2.3,7.3,6.5,8.6c3.3,1,6.8,1.1,10.2,0.6c5-0.7,9.3-3.3,9.6-9.7
		C131.3,88.6,130.4,85.7,127.6,83.5z M116.3,71.3c1.2-0.1,2.3-0.1,3.5,0c3.4,0.4,5,3.7,3.1,6.6c-1.1,1.7-2.5,2.4-5.2,2.4
		c-2,0.3-3.6-0.7-4.7-2.6C111.4,74.7,113,71.7,116.3,71.3z M124.1,91.5c-0.1,1.8-1.2,3-3,3.5s-3.6,0.5-5.5,0.1c-1.6-0.3-3-1-3.5-2.8
		c-0.5-2,0-3.7,1.5-5.1c1.3-1.3,2.8-1.7,4.4-1.4c1.6-0.1,2.9-0.1,4.1,1C123.5,88,124.2,89.5,124.1,91.5z"/>
	<path class="st1" d="M88.3,101.3c-3.4,0-6.9,0-10.3,0c-0.6,0-0.8-0.1-0.8-0.7c0.1-2.4-0.1-4.8,0.3-7.2c0.4-2.1,1.4-3.7,2.8-5.2
		c2-2.3,4.5-4.1,6.8-6c1.2-0.9,2.3-1.9,3.3-3c1.2-1.4,1.9-2.9,1.5-4.8c-0.3-1.2-0.9-1.9-2-2.4c-1.1-0.4-2.2-0.5-3.3-0.6
		c-2.5,0-5,0.2-7.5,0.7c-0.7,0.1-0.9,0-1-0.7c-0.2-1.5-0.5-3-0.8-4.5c-0.1-0.5,0-0.8,0.6-1c3.9-0.8,7.7-1.5,11.7-1.2
		c1.2,0.1,2.4,0.3,3.5,0.7c3.5,1.3,5.2,3.9,5.6,7.5c0.6,5.4-2.1,9.3-5.8,12.7c-1.4,1.3-3,2.4-4.5,3.5c-1.2,0.9-2.3,1.9-3,3.3
		c0,0.1-0.1,0.2-0.1,0.3c-0.7,1.6-0.5,1.9,1.2,1.9c4.1,0,8.1,0,12.2,0c0.6,0,0.8,0.1,0.8,0.8c-0.1,1.7,0,3.4,0,5.1
		c0,0.6-0.1,0.8-0.8,0.8C95.2,101.3,91.8,101.3,88.3,101.3z"/>
	<path class="st0" d="M145.1,119.8c0-3.2,0-6.4,0-9.6c0-0.6,0.1-0.8,0.7-0.8c3.9,0,7.8,0,11.8,0c0.6,0,0.8,0.2,0.7,0.8
		c0,0.7,0,1.4,0,2.1c0,0.6-0.1,0.7-0.7,0.7c-2.7,0-5.4,0-8,0c-0.6,0-0.8,0.1-0.8,0.8c0.1,1.2,0,2.5,0,3.7c0,0.6,0.2,0.7,0.7,0.7
		c2.1,0,4.2,0,6.2,0c0.6,0,0.8,0.1,0.7,0.7c-0.1,0.7,0,1.5,0,2.2c0,0.5-0.2,0.6-0.7,0.6c-2.1,0-4.2,0-6.2,0c-0.7,0-0.8,0.2-0.8,0.8
		c0,1.2,0,2.3,0,3.5c0,0.6,0.1,0.7,0.7,0.7c2.6,0,5.3,0,7.9,0c0.7,0,0.9,0.2,0.8,0.9c-0.1,0.7,0,1.5,0,2.2c0,0.4-0.1,0.6-0.6,0.6
		c-4,0-8.1,0-12.1,0c-0.6,0-0.6-0.3-0.6-0.7C145.1,126.3,145.1,123.1,145.1,119.8z"/>
	<path class="st0" d="M105.3,119.5c0-3.2,0-6.4,0-9.6c0-0.5,0.1-0.7,0.7-0.7c3.9,0,7.9,0,11.8,0c0.5,0,0.7,0.1,0.7,0.7
		c-0.1,0.7-0.1,1.5,0,2.2c0,0.6-0.1,0.8-0.7,0.8c-2.7,0-5.3,0-8,0c-0.6,0-0.7,0.2-0.7,0.7c0,1.3,0,2.6,0,3.9c0,0.5,0.1,0.6,0.6,0.6
		c2.1,0,4.3,0,6.4,0c0.5,0,0.7,0.1,0.7,0.7c0,0.8,0,1.5,0,2.3c0,0.5-0.1,0.6-0.6,0.6c-2.1,0-4.3,0-6.4,0c-0.5,0-0.7,0.1-0.7,0.7
		c0,1.2,0,2.4,0,3.6c0,0.6,0.1,0.7,0.7,0.7c2.7,0,5.3,0,8,0c0.5,0,0.8,0.1,0.7,0.7c-0.1,0.8-0.1,1.5,0,2.3c0,0.6-0.2,0.6-0.7,0.6
		c-3.9,0-7.9,0-11.8,0c-0.5,0-0.7-0.2-0.7-0.7C105.3,126,105.3,122.8,105.3,119.5z"/>
	<path class="st0" d="M90.9,119.6c0,1.3,0,2.6,0.3,3.8c0.5,2.3,1.5,3.2,3.9,3.2c1.6,0,3.3-0.2,4.9-0.4c0.6-0.1,0.8,0,0.8,0.7
		s0,1.4,0,2c0,0.5-0.1,0.7-0.6,0.8c-2.5,0.4-4.9,0.8-7.5,0.5c-2.8-0.4-4.5-2.1-5.1-4.8c-0.9-3.9-0.9-7.8,0.1-11.7
		c0.8-3,2.7-4.5,6-4.8c2.3-0.2,4.5,0.2,6.7,0.7c0.4,0.1,0.5,0.3,0.4,0.6c0,0.7-0.1,1.5,0,2.2c0,0.5-0.2,0.6-0.6,0.5
		c-1.5-0.2-2.9-0.4-4.4-0.4c-0.6,0-1.2,0-1.8,0.1c-1.7,0.3-2.6,1.5-2.9,3.7C90.9,117.4,90.8,118.5,90.9,119.6z"/>
	<path class="st0" d="M136.1,121.7c0,2.6,0,5.2,0,7.9c0,0.6-0.1,0.8-0.7,0.7c-0.7-0.1-1.5-0.1-2.2,0c-0.7,0.1-0.9-0.1-0.9-0.9
		c0-5.2,0-10.3,0-15.5c0-0.8-0.2-1-0.9-0.9c-1.4,0.1-2.8,0-4.2,0c-0.5,0-0.7-0.1-0.7-0.6c0-0.8,0-1.6,0-2.4c0-0.4,0.1-0.6,0.5-0.6
		c4.7,0,9.5,0,14.2,0c0.4,0,0.5,0.1,0.5,0.5c0,0.9,0,1.7,0,2.6c0,0.4-0.1,0.5-0.6,0.5c-1.4,0-2.7,0-4.1,0c-1.1,0-1.1,0-1.1,1.1
		C136.1,116.7,136.1,119.2,136.1,121.7z"/>
	<path class="st0" d="M77.4,119.5c0-3.2,0-6.5,0-9.7c0-0.5,0.1-0.7,0.7-0.7c0.8,0,1.6,0.1,2.4,0c0.6,0,0.8,0.2,0.8,0.8
		c0,5.4,0,10.8,0,16.1c0,1.1,0,2.3,0,3.4c0,0.4-0.1,0.6-0.6,0.6c-0.9,0-1.8,0-2.7,0c-0.5,0-0.6-0.2-0.6-0.7
		C77.4,126.1,77.4,122.8,77.4,119.5z"/>
	<path class="st2" d="M52.2,64.6c-2.8,0.4-5.6,1.1-8.2,2.2c-2.7,1.1-5.1,2.6-7.2,4.7C39.9,65.1,46.4,62.4,52.2,64.6z"/>
	<path class="st3" d="M28.4,73C30,66.2,35.3,62.5,41,63c-5.1,2.3-9.5,5.3-12.4,10.1C28.4,73.2,28.4,73.1,28.4,73z"/>
	<path class="st3" d="M30.5,63.9c-4.3,3.4-7.6,7.4-9.1,12.7C21.1,70.1,24.8,64.9,30.5,63.9z"/>
	<path class="st3" d="M15.4,82.2c-1.9-4.6-0.6-11.1,4.9-13.8C17.4,72.7,15.4,77.1,15.4,82.2z"/>
	<path class="st3" d="M11.5,89.2c-3.4-4.1-3.2-10,0.2-13.2c-0.7,2.3-1,4.5-1,6.7C10.6,84.9,10.9,87.1,11.5,89.2z"/>
	<path class="st3" d="M6.3,85.5c0,4.5,0.9,8.7,3.4,12.3C6.1,95.6,3.9,90.5,6.3,85.5z"/>
	<path class="st3" d="M4.2,97.1c1.6,3.8,3.6,7,7,9.4C7.1,105.7,3.7,101.9,4.2,97.1z"/>
	<path class="st3" d="M65.6,90.2c0.8,2.5,1.1,4.9,0,7.4c-0.7,1.5-1.7,2.8-3.2,3.6c1.8-3.2,2.9-6.6,3-10.3
		C65.4,90.7,65.1,90.4,65.6,90.2z"/>
	<path class="st3" d="M67.9,99.4c0.3,4.5-2.6,8.2-6.3,8.7c1.4-1.3,2.7-2.5,3.8-3.9C66.5,102.7,67.4,101.2,67.9,99.4z"/>
	<path class="st3" d="M13.3,113.3c-4.2,0.3-7.5-2-8.5-5.9c1.4,1.3,2.5,2.6,3.9,3.6C10.2,112,11.7,112.8,13.3,113.3z"/>
	<path class="st3" d="M27,128.3c-0.8-0.8-1.5-1.8-1.8-2.9c-0.2-0.5-0.5-0.5-0.9-0.5c-1.7,0.1-3.4-0.1-5-0.8c0,0-0.1-0.1-0.2-0.1
		c1.6-0.1,3.2,0.1,4.8-0.2c0.5-0.1,1-0.2,1.5-0.3c0.4-0.1,0.5-0.1,0.6,0.4c0.2,1.5,0.5,2.9,1.1,4.3C27.2,128.3,27.1,128.3,27,128.3z
		"/>
	<path class="st3" d="M59.7,113.9c3.3-1.5,5.9-3.6,7.8-6.5C67.1,111,64,114.1,59.7,113.9z"/>
	<path class="st3" d="M66.2,114.8c-1.5,3.6-5.7,5.5-9.2,4.1c1.8-0.3,3.3-0.7,4.9-1.4C63.5,116.9,64.9,116,66.2,114.8z"/>
	<path class="st3" d="M61.8,121.8c-1.2,1.1-2.5,2-4.1,2.4c-1.9,0.4-3.7,0.1-5.6-1.1c3.4,0.4,6.5,0,9.5-1.5
		C61.8,121.6,61.9,121.6,61.8,121.8z"/>
	<path class="st3" d="M56.1,127.1c-1.9,0.9-3.8,1.3-5.9,0.8c-1.4-0.4-2.7-1.1-3.7-2.4c3.1,1.3,6.1,1.9,9.3,1.5
		C56,126.9,56.1,126.8,56.1,127.1z"/>
	<path class="st3" d="M9,115.8c1.9,1.2,3.9,2.1,6.1,2.5c0.7,0.1,1.4,0,2.1,0.1c-2.3,1.3-6.4,0.7-8.4-2.5
		C8.8,115.8,8.8,115.7,9,115.8z"/>
	<path class="st3" d="M41.2,126.6c1.3,1.1,2.5,2,3.9,2.6c1.4,0.7,2.8,1.1,4.5,1.4C45.4,131.2,42.4,129.7,41.2,126.6z"/>
	<path class="st3" d="M36.1,127c1.5,2,3.2,3.7,5.5,4.7c0,0.3-0.2,0.2-0.3,0.2c-2.7-0.2-4.9-2.2-5.3-4.7
		C35.8,127,35.9,126.9,36.1,127z"/>
	<path class="st4" d="M34.1,130.7c-2.2-0.9-3.8-3.6-3.1-6.1c0.7,2.3,1.7,4.3,3.3,6C34.3,130.7,34.3,130.8,34.1,130.7z"/>
	<path class="st5" d="M7,107c-0.1,0.1-0.1,0.1-0.2,0.2c-0.2-0.1-0.3-0.2-0.3-0.5C6.8,106.7,6.9,106.9,7,107z"/>
	<path class="st6" d="M18.6,76.7c0.1-0.2,0.1-0.4,0.2-0.6"/>
</g>
</svg>
